<svg xmlns="http://www.w3.org/2000/svg" viewBox="0 0 500 500"><g id="freepik--background-simple--inject-302"><path d="M111.73,92.76c27.62-14.6,63-17.57,91.11-2.57,24.22,12.92,32.93,39.09,41.42,63.38,11.87,34,32.33,73,74.32,49.82,28.7-15.87,58.18-44.7,93.89-29.1,32.47,14.18,39.34,54.92,29.8,85.77C411.33,360,285.53,398,193.07,367.36,108.29,339.27,12.19,236.81,60.62,142.66,71.13,122.23,89.86,104.32,111.73,92.76Z" style="fill:#fa5951"/><path d="M111.73,92.76c27.62-14.6,63-17.57,91.11-2.57,24.22,12.92,32.93,39.09,41.42,63.38,11.87,34,32.33,73,74.32,49.82,28.7-15.87,58.18-44.7,93.89-29.1,32.47,14.18,39.34,54.92,29.8,85.77C411.33,360,285.53,398,193.07,367.36,108.29,339.27,12.19,236.81,60.62,142.66,71.13,122.23,89.86,104.32,111.73,92.76Z" style="fill:#ffffff;isolation:isolate;opacity:0.9"/></g><g id="freepik--Device--inject-302"><rect x="228.89" y="321.17" width="48.6" height="96.6" style="fill:#263238"/><rect x="228.89" y="352.26" width="48.6" height="14.9" style="opacity:0.2" fill="#000000"/><rect x="196.08" y="411.27" width="114.2" height="6.65" style="fill:#263238"/><rect x="196.08" y="411.27" width="114.2" height="6.65" style="opacity:0.2" fill="#000000"/><rect x="104.56" y="157.29" width="297.26" height="205.39" rx="10.68" style="fill:#263238"/><rect x="104.56" y="157.29" width="297.26" height="205.39" rx="10.68" style="fill:#ffffff;opacity:0.5"/><rect x="109.62" y="164.04" width="286.12" height="176.99" style="fill:#263238"/><circle cx="253.19" cy="352.26" r="7.72" transform="translate(-147.82 517.74) rotate(-76.72)" style="fill:#e0e0e0"/><rect x="114.74" y="167.21" width="275.88" height="170.65" style="fill:#ffffff;opacity:0.7000000000000001"/><rect x="114.74" y="167.21" width="275.88" height="168.43" style="fill:#fa5951"/><g style="opacity:0.9"><rect x="114.74" y="167.21" width="275.88" height="170.65" style="fill:#ffffff"/></g><rect x="202.97" y="219.53" width="187.64" height="65.47" style="fill:#fa5951"/><g style="opacity:0.4"><rect x="202.97" y="219.53" width="187.64" height="65.47" style="fill:#ffffff"/></g><rect x="142.86" y="219.53" width="60.11" height="65.47" style="fill:#fa5951"/><g style="opacity:0.7000000000000001"><rect x="142.86" y="219.53" width="60.11" height="65.47" style="fill:#ffffff"/></g><rect x="114.74" y="219.53" width="28.12" height="65.47" style="fill:#fa5951"/><g style="opacity:0.6000000000000001"><rect x="114.74" y="219.53" width="28.12" height="65.47" style="fill:#ffffff"/></g><rect x="167.72" y="203.48" width="158.92" height="9.53" style="fill:#fa5951"/><g style="opacity:0.8"><rect x="167.72" y="203.48" width="158.92" height="9.53" style="fill:#ffffff"/></g><rect x="326.64" y="203.48" width="10.32" height="9.53" style="fill:#fa5951"/><g style="opacity:0.5"><rect x="326.64" y="203.48" width="10.32" height="9.53" style="fill:#ffffff"/></g><rect x="114.74" y="167.21" width="275.88" height="10.77" style="fill:#fa5951"/><path d="M364.22,172.59a3.09,3.09,0,1,1-3.09-3.08A3.09,3.09,0,0,1,364.22,172.59Z" style="fill:#ffffff"/><path d="M376.08,172.59a3.09,3.09,0,1,1-3.09-3.08A3.09,3.09,0,0,1,376.08,172.59Z" style="fill:#ffffff"/><path d="M387.94,172.59a3.09,3.09,0,1,1-3.09-3.08A3.09,3.09,0,0,1,387.94,172.59Z" style="fill:#ffffff"/><path d="M123.65,212.21a5.22,5.22,0,0,1-1.55-.6l.87-2a5.46,5.46,0,0,0,1.28.53,4.77,4.77,0,0,0,1.36.2,2.17,2.17,0,0,0,.8-.1.37.37,0,0,0,.24-.33c0-.17-.1-.29-.31-.38a7.67,7.67,0,0,0-1-.27,11.31,11.31,0,0,1-1.54-.42,2.65,2.65,0,0,1-1.08-.74,2,2,0,0,1-.46-1.38,2.32,2.32,0,0,1,.43-1.37,2.74,2.74,0,0,1,1.26-1,5.19,5.19,0,0,1,2-.36,7.31,7.31,0,0,1,1.62.18,5.15,5.15,0,0,1,1.4.52l-.81,2a5,5,0,0,0-2.24-.6c-.69,0-1,.17-1,.51,0,.16.1.28.31.36a8,8,0,0,0,1,.26,10,10,0,0,1,1.55.39,2.66,2.66,0,0,1,1.09.73,1.93,1.93,0,0,1,.46,1.37,2.36,2.36,0,0,1-.42,1.37,2.93,2.93,0,0,1-1.27,1,5.17,5.17,0,0,1-2,.36A8.31,8.31,0,0,1,123.65,212.21Z" style="fill:#263238"/><path d="M131.75,206.33H129.4v-2.1h7.4v2.1h-2.35v5.92h-2.7Z" style="fill:#263238"/><path d="M139.27,211.9a4.2,4.2,0,0,1-1.62-5.82,4.09,4.09,0,0,1,1.62-1.49,4.9,4.9,0,0,1,2.32-.54,5,5,0,0,1,2.33.54,4.13,4.13,0,0,1,1.61,1.49,4.07,4.07,0,0,1,.59,2.16,4,4,0,0,1-.59,2.16,4.08,4.08,0,0,1-1.61,1.5,5,5,0,0,1-2.33.54A4.9,4.9,0,0,1,139.27,211.9Zm3.23-1.9a1.7,1.7,0,0,0,.65-.7,2.21,2.21,0,0,0,.24-1.06,2.27,2.27,0,0,0-.24-1.06,1.73,1.73,0,0,0-.65-.69,1.78,1.78,0,0,0-1.82,0,1.73,1.73,0,0,0-.65.69,2.27,2.27,0,0,0-.24,1.06,2.21,2.21,0,0,0,.24,1.06,1.7,1.7,0,0,0,.65.7,1.78,1.78,0,0,0,1.82,0Z" style="fill:#263238"/><path d="M150.54,210.24h-.74v2h-2.7v-8H151a4.83,4.83,0,0,1,1.94.37,2.94,2.94,0,0,1,1.27,1.05,2.88,2.88,0,0,1,.44,1.61,2.84,2.84,0,0,1-.39,1.5,2.65,2.65,0,0,1-1.12,1l1.69,2.47H151.9Zm1.07-3.67a1.17,1.17,0,0,0-.82-.25h-1v1.88h1a1.17,1.17,0,0,0,.82-.25,1,1,0,0,0,0-1.38Z" style="fill:#263238"/><path d="M162.3,210.21v2h-6.67v-8h6.52v2h-3.86v.94h3.39v1.95h-3.39v1.05Z" style="fill:#263238"/><path d="M350.79,213a1.38,1.38,0,1,1-1.38-1.38A1.37,1.37,0,0,1,350.79,213Z" style="fill:#263238"/><circle cx="358" cy="213" r="1.38" style="fill:#263238"/><path d="M348.26,203.26l-.93-3h-3.48v.94h2.78l2.61,8.49h9.15l.8-5.62Zm9.41,5.78-7.79-.08-1.47-5,9.89.73Z" style="fill:#263238"/><path d="M246.74,277.11a2.76,2.76,0,1,1-2.75-2.75A2.75,2.75,0,0,1,246.74,277.11Z" style="fill:#fa5951"/><path d="M246.74,277.11a2.76,2.76,0,1,1-2.75-2.75A2.75,2.75,0,0,1,246.74,277.11Z" style="fill:#ffffff;opacity:0.9"/><path d="M254.78,277.11a2.76,2.76,0,1,1-2.76-2.75A2.75,2.75,0,0,1,254.78,277.11Z" style="fill:#fa5951"/><path d="M254.78,277.11a2.76,2.76,0,1,1-2.76-2.75A2.75,2.75,0,0,1,254.78,277.11Z" style="fill:#ffffff;opacity:0.9"/><path d="M262.88,277.26a2.76,2.76,0,1,1-2.76-2.75A2.76,2.76,0,0,1,262.88,277.26Z" style="fill:#fa5951"/><path d="M262.88,277.26a2.76,2.76,0,1,1-2.76-2.75A2.76,2.76,0,0,1,262.88,277.26Z" style="fill:#ffffff;opacity:0.9"/><path d="M271,277.26a2.76,2.76,0,1,1-2.76-2.75A2.77,2.77,0,0,1,271,277.26Z" style="fill:#fa5951"/><path d="M271,277.26a2.76,2.76,0,1,1-2.76-2.75A2.77,2.77,0,0,1,271,277.26Z" style="fill:#ffffff;opacity:0.9"/><path d="M279.08,277.26a2.76,2.76,0,1,1-2.76-2.75A2.77,2.77,0,0,1,279.08,277.26Z" style="fill:#fa5951"/><path d="M279.08,277.26a2.76,2.76,0,1,1-2.76-2.75A2.77,2.77,0,0,1,279.08,277.26Z" style="fill:#ffffff;opacity:0.5"/><path d="M287.18,277.26a2.76,2.76,0,1,1-2.76-2.75A2.77,2.77,0,0,1,287.18,277.26Z" style="fill:#fa5951"/><path d="M287.18,277.26a2.76,2.76,0,1,1-2.76-2.75A2.77,2.77,0,0,1,287.18,277.26Z" style="fill:#ffffff;opacity:0.9"/><path d="M295.28,277.26a2.76,2.76,0,1,1-2.76-2.75A2.77,2.77,0,0,1,295.28,277.26Z" style="fill:#fa5951"/><path d="M295.28,277.26a2.76,2.76,0,1,1-2.76-2.75A2.77,2.77,0,0,1,295.28,277.26Z" style="fill:#ffffff;opacity:0.9"/><path d="M303.37,277.26a2.76,2.76,0,1,1-2.75-2.75A2.76,2.76,0,0,1,303.37,277.26Z" style="fill:#fa5951"/><path d="M303.37,277.26a2.76,2.76,0,1,1-2.75-2.75A2.76,2.76,0,0,1,303.37,277.26Z" style="fill:#ffffff;opacity:0.9"/><path d="M218.81,255.76a11.1,11.1,0,0,1-3.31-1.28l1.86-4.21a11.68,11.68,0,0,0,2.74,1.14,10.91,10.91,0,0,0,2.91.43,4.36,4.36,0,0,0,1.71-.24.73.73,0,0,0,.51-.69c0-.36-.22-.63-.67-.81a15.57,15.57,0,0,0-2.21-.59,23.75,23.75,0,0,1-3.3-.89,5.68,5.68,0,0,1-2.3-1.56,4.22,4.22,0,0,1-1-2.95,5.07,5.07,0,0,1,.9-2.93,6,6,0,0,1,2.71-2.08,11.09,11.09,0,0,1,4.36-.76,16,16,0,0,1,3.46.38,10.67,10.67,0,0,1,3,1.11L228.46,244a10.72,10.72,0,0,0-4.77-1.27q-2.22,0-2.22,1.08c0,.34.22.6.66.77a14.55,14.55,0,0,0,2.17.55,21.22,21.22,0,0,1,3.3.84,5.82,5.82,0,0,1,2.34,1.55,4.18,4.18,0,0,1,1,2.94,5,5,0,0,1-.91,2.92,6.12,6.12,0,0,1-2.7,2.08,11.12,11.12,0,0,1-4.36.77A17.91,17.91,0,0,1,218.81,255.76Z" style="fill:#263238"/><path d="M244.3,252.86h-6.5l-1.15,3h-5.87l7.48-17.12h5.68l7.48,17.12h-6Zm-1.59-4.15-1.66-4.31-1.66,4.31Z" style="fill:#263238"/><path d="M252.35,238.73h5.77v12.64h7.73v4.48h-13.5Z" style="fill:#263238"/><path d="M281.67,251.5v4.35H267.43V238.73h13.92v4.35h-8.24v2h7.24v4.15h-7.24v2.26Z" style="fill:#263238"/><rect x="114.74" y="177.98" width="275.88" height="20.48" style="fill:#fa5951"/><g style="opacity:0.7000000000000001"><rect x="114.74" y="177.98" width="275.88" height="20.48" style="fill:#ffffff"/></g><path d="M375.06,193.83H146.27a5.61,5.61,0,0,1-5.61-5.61h0a5.61,5.61,0,0,1,5.61-5.61H375.06a5.61,5.61,0,0,1,5.61,5.61h0A5.61,5.61,0,0,1,375.06,193.83Z" style="fill:#263238"/><path d="M375.06,193.83H146.27a5.61,5.61,0,0,1-5.61-5.61h0a5.61,5.61,0,0,1,5.61-5.61H375.06a5.61,5.61,0,0,1,5.61,5.61h0A5.61,5.61,0,0,1,375.06,193.83Z" style="fill:#ffffff;opacity:0.7000000000000001"/><polygon points="373.28 183.92 374.68 186.75 377.8 187.2 375.54 189.41 376.07 192.52 373.28 191.05 370.48 192.52 371.02 189.41 368.76 187.2 371.88 186.75 373.28 183.92" style="fill:#fa5951"/><rect x="145.87" y="186.03" width="103.86" height="4.66" rx="1.78" style="fill:#fa5951"/><polygon points="129.34 182.34 123.16 188.52 124.97 188.52 124.97 194.09 133.71 194.09 133.71 188.52 135.51 188.52 129.34 182.34" style="fill:#fa5951"/><path d="M189.78,227.85H150.5a1.88,1.88,0,0,1-1.89-1.88h0a1.89,1.89,0,0,1,1.89-1.89h39.28a1.89,1.89,0,0,1,1.88,1.89h0A1.88,1.88,0,0,1,189.78,227.85Z" style="fill:#fa5951"/><path d="M189.78,235.39H150.5a1.88,1.88,0,0,1-1.89-1.88h0a1.88,1.88,0,0,1,1.89-1.89h39.28a1.88,1.88,0,0,1,1.88,1.89h0A1.88,1.88,0,0,1,189.78,235.39Z" style="fill:#fa5951"/><path d="M189.78,242.93H150.5a1.88,1.88,0,0,1-1.89-1.88h0a1.88,1.88,0,0,1,1.89-1.89h39.28a1.88,1.88,0,0,1,1.88,1.89h0A1.88,1.88,0,0,1,189.78,242.93Z" style="fill:#fa5951"/><path d="M189.78,250.47H150.5a1.89,1.89,0,0,1-1.89-1.89h0a1.88,1.88,0,0,1,1.89-1.88h39.28a1.88,1.88,0,0,1,1.88,1.88h0A1.89,1.89,0,0,1,189.78,250.47Z" style="fill:#fa5951"/><path d="M189.78,258H150.5a1.89,1.89,0,0,1-1.89-1.89h0a1.88,1.88,0,0,1,1.89-1.88h39.28a1.88,1.88,0,0,1,1.88,1.88h0A1.89,1.89,0,0,1,189.78,258Z" style="fill:#fa5951"/><path d="M189.78,265.55H150.5a1.89,1.89,0,0,1-1.89-1.89h0a1.88,1.88,0,0,1,1.89-1.88h39.28a1.88,1.88,0,0,1,1.88,1.88h0A1.89,1.89,0,0,1,189.78,265.55Z" style="fill:#fa5951"/><path d="M189.78,273.09H150.5a1.89,1.89,0,0,1-1.89-1.89h0a1.88,1.88,0,0,1,1.89-1.88h39.28a1.88,1.88,0,0,1,1.88,1.88h0A1.89,1.89,0,0,1,189.78,273.09Z" style="fill:#fa5951"/><path d="M189.78,280.63H150.5a1.89,1.89,0,0,1-1.89-1.89h0a1.88,1.88,0,0,1,1.89-1.88h39.28a1.88,1.88,0,0,1,1.88,1.88h0A1.89,1.89,0,0,1,189.78,280.63Z" style="fill:#fa5951"/><g style="opacity:0.5"><path d="M189.78,227.85H150.5a1.88,1.88,0,0,1-1.89-1.88h0a1.89,1.89,0,0,1,1.89-1.89h39.28a1.89,1.89,0,0,1,1.88,1.89h0A1.88,1.88,0,0,1,189.78,227.85Z" style="fill:#ffffff"/><path d="M189.78,235.39H150.5a1.88,1.88,0,0,1-1.89-1.88h0a1.88,1.88,0,0,1,1.89-1.89h39.28a1.88,1.88,0,0,1,1.88,1.89h0A1.88,1.88,0,0,1,189.78,235.39Z" style="fill:#ffffff"/><path d="M189.78,242.93H150.5a1.88,1.88,0,0,1-1.89-1.88h0a1.88,1.88,0,0,1,1.89-1.89h39.28a1.88,1.88,0,0,1,1.88,1.89h0A1.88,1.88,0,0,1,189.78,242.93Z" style="fill:#ffffff"/><path d="M189.78,250.47H150.5a1.89,1.89,0,0,1-1.89-1.89h0a1.88,1.88,0,0,1,1.89-1.88h39.28a1.88,1.88,0,0,1,1.88,1.88h0A1.89,1.89,0,0,1,189.78,250.47Z" style="fill:#ffffff"/><path d="M189.78,258H150.5a1.89,1.89,0,0,1-1.89-1.89h0a1.88,1.88,0,0,1,1.89-1.88h39.28a1.88,1.88,0,0,1,1.88,1.88h0A1.89,1.89,0,0,1,189.78,258Z" style="fill:#ffffff"/><path d="M189.78,265.55H150.5a1.89,1.89,0,0,1-1.89-1.89h0a1.88,1.88,0,0,1,1.89-1.88h39.28a1.88,1.88,0,0,1,1.88,1.88h0A1.89,1.89,0,0,1,189.78,265.55Z" style="fill:#ffffff"/><path d="M189.78,273.09H150.5a1.89,1.89,0,0,1-1.89-1.89h0a1.88,1.88,0,0,1,1.89-1.88h39.28a1.88,1.88,0,0,1,1.88,1.88h0A1.89,1.89,0,0,1,189.78,273.09Z" style="fill:#ffffff"/><path d="M189.78,280.63H150.5a1.89,1.89,0,0,1-1.89-1.89h0a1.88,1.88,0,0,1,1.89-1.88h39.28a1.88,1.88,0,0,1,1.88,1.88h0A1.89,1.89,0,0,1,189.78,280.63Z" style="fill:#ffffff"/></g><rect x="120.72" y="291.16" width="127.95" height="40.62" style="fill:#fa5951"/><g style="opacity:0.7000000000000001"><rect x="120.72" y="291.16" width="127.95" height="40.62" style="fill:#ffffff"/></g><rect x="127.56" y="294.96" width="22.24" height="22.24" style="fill:#fa5951"/><rect x="128.55" y="318.95" width="20.04" height="1.56" style="fill:#fa5951"/><rect x="128.55" y="318.95" width="20.04" height="1.56" style="fill:#ffffff;opacity:0.2"/><rect x="128.55" y="321.13" width="20.04" height="1.56" style="fill:#fa5951"/><rect x="128.55" y="321.13" width="20.04" height="1.56" style="fill:#ffffff;opacity:0.2"/><rect x="128.55" y="326.63" width="9.76" height="1.56" style="fill:#fa5951"/><rect x="128.55" y="326.63" width="9.76" height="1.56" style="fill:#ffffff;opacity:0.2"/><rect x="128.55" y="323.74" width="6.68" height="2.13" style="fill:#fa5951"/><rect x="128.55" y="323.74" width="6.68" height="2.13" style="fill:#ffffff;opacity:0.2"/><rect x="218.89" y="294.96" width="22.24" height="22.24" style="fill:#fa5951"/><rect x="219.89" y="318.95" width="20.04" height="1.56" style="fill:#fa5951"/><rect x="219.89" y="318.95" width="20.04" height="1.56" style="fill:#ffffff;opacity:0.2"/><rect x="219.89" y="321.13" width="20.04" height="1.56" style="fill:#fa5951"/><rect x="219.89" y="321.13" width="20.04" height="1.56" style="fill:#ffffff;opacity:0.2"/><rect x="219.89" y="326.63" width="9.76" height="1.56" style="fill:#fa5951"/><rect x="219.89" y="326.63" width="9.76" height="1.56" style="fill:#ffffff;opacity:0.2"/><rect x="219.89" y="323.74" width="6.68" height="2.13" style="fill:#fa5951"/><rect x="219.89" y="323.74" width="6.68" height="2.13" style="fill:#ffffff;opacity:0.2"/><rect x="159.01" y="294.96" width="22.24" height="22.24" style="fill:#fa5951"/><rect x="160.01" y="318.95" width="20.04" height="1.56" style="fill:#fa5951"/><rect x="160.01" y="318.95" width="20.04" height="1.56" style="fill:#ffffff;opacity:0.2"/><rect x="160.01" y="321.13" width="20.04" height="1.56" style="fill:#fa5951"/><rect x="160.01" y="321.13" width="20.04" height="1.56" style="fill:#ffffff;opacity:0.2"/><rect x="160.01" y="326.63" width="9.76" height="1.56" style="fill:#fa5951"/><rect x="160.01" y="326.63" width="9.76" height="1.56" style="fill:#ffffff;opacity:0.2"/><rect x="160.01" y="323.74" width="6.68" height="2.13" style="fill:#fa5951"/><rect x="160.01" y="323.74" width="6.68" height="2.13" style="fill:#ffffff;opacity:0.2"/><rect x="188.95" y="294.96" width="22.24" height="22.24" style="fill:#fa5951"/><rect x="189.95" y="318.95" width="20.04" height="1.56" style="fill:#fa5951"/><rect x="189.95" y="318.95" width="20.04" height="1.56" style="fill:#ffffff;opacity:0.2"/><rect x="189.95" y="321.13" width="20.04" height="1.56" style="fill:#fa5951"/><rect x="189.95" y="321.13" width="20.04" height="1.56" style="fill:#ffffff;opacity:0.2"/><rect x="189.95" y="326.63" width="9.76" height="1.56" style="fill:#fa5951"/><rect x="189.95" y="326.63" width="9.76" height="1.56" style="fill:#ffffff;opacity:0.2"/><rect x="189.95" y="323.74" width="6.68" height="2.13" style="fill:#fa5951"/><rect x="189.95" y="323.74" width="6.68" height="2.13" style="fill:#ffffff;opacity:0.2"/><rect x="254.17" y="291.16" width="127.95" height="40.62" style="fill:#fa5951"/><g style="opacity:0.7000000000000001"><rect x="254.17" y="291.16" width="127.95" height="40.62" style="fill:#ffffff"/></g><rect x="261.35" y="294.96" width="22.24" height="22.24" style="fill:#fa5951"/><rect x="262.35" y="318.95" width="20.04" height="1.56" style="fill:#fa5951"/><rect x="262.35" y="318.95" width="20.04" height="1.56" style="fill:#ffffff;opacity:0.2"/><rect x="262.35" y="321.13" width="20.04" height="1.56" style="fill:#fa5951"/><rect x="262.35" y="321.13" width="20.04" height="1.56" style="fill:#ffffff;opacity:0.2"/><rect x="262.35" y="326.63" width="9.76" height="1.56" style="fill:#fa5951"/><rect x="262.35" y="326.63" width="9.76" height="1.56" style="fill:#ffffff;opacity:0.2"/><rect x="262.35" y="323.74" width="6.68" height="2.13" style="fill:#fa5951"/><rect x="262.35" y="323.74" width="6.68" height="2.13" style="fill:#ffffff;opacity:0.2"/><rect x="352.69" y="294.96" width="22.24" height="22.24" style="fill:#fa5951"/><rect x="353.68" y="318.95" width="20.04" height="1.56" style="fill:#fa5951"/><rect x="353.68" y="318.95" width="20.04" height="1.56" style="fill:#ffffff;opacity:0.2"/><rect x="353.68" y="321.13" width="20.04" height="1.56" style="fill:#fa5951"/><rect x="353.68" y="321.13" width="20.04" height="1.56" style="fill:#ffffff;opacity:0.2"/><rect x="353.68" y="326.63" width="9.76" height="1.56" style="fill:#fa5951"/><rect x="353.68" y="326.63" width="9.76" height="1.56" style="fill:#ffffff;opacity:0.2"/><rect x="353.68" y="323.74" width="6.68" height="2.13" style="fill:#fa5951"/><rect x="353.68" y="323.74" width="6.68" height="2.13" style="fill:#ffffff;opacity:0.2"/><rect x="292.81" y="294.96" width="22.24" height="22.24" style="fill:#fa5951"/><rect x="293.81" y="318.95" width="20.04" height="1.56" style="fill:#fa5951"/><rect x="293.81" y="318.95" width="20.04" height="1.56" style="fill:#ffffff;opacity:0.2"/><rect x="293.81" y="321.13" width="20.04" height="1.56" style="fill:#fa5951"/><rect x="293.81" y="321.13" width="20.04" height="1.56" style="fill:#ffffff;opacity:0.2"/><rect x="293.81" y="326.63" width="9.76" height="1.56" style="fill:#fa5951"/><rect x="293.81" y="326.63" width="9.76" height="1.56" style="fill:#ffffff;opacity:0.2"/><rect x="293.81" y="323.74" width="6.68" height="2.13" style="fill:#fa5951"/><rect x="293.81" y="323.74" width="6.68" height="2.13" style="fill:#ffffff;opacity:0.2"/><rect x="322.75" y="294.96" width="22.24" height="22.24" style="fill:#fa5951"/><rect x="323.74" y="318.95" width="20.04" height="1.56" style="fill:#fa5951"/><rect x="323.74" y="318.95" width="20.04" height="1.56" style="fill:#ffffff;opacity:0.2"/><rect x="323.74" y="321.13" width="20.04" height="1.56" style="fill:#fa5951"/><rect x="323.74" y="321.13" width="20.04" height="1.56" style="fill:#ffffff;opacity:0.2"/><rect x="323.74" y="326.63" width="9.76" height="1.56" style="fill:#fa5951"/><rect x="323.74" y="326.63" width="9.76" height="1.56" style="fill:#ffffff;opacity:0.2"/><rect x="323.74" y="323.74" width="6.68" height="2.13" style="fill:#fa5951"/><rect x="323.74" y="323.74" width="6.68" height="2.13" style="fill:#ffffff;opacity:0.2"/><ellipse cx="340.95" cy="268.57" rx="40.46" ry="5.35" style="fill:#fa5951"/><ellipse cx="340.95" cy="268.57" rx="40.46" ry="5.35" style="opacity:0.1" fill="#000000"/><path d="M345,266.4l-4.33-9.58H330.57l1.55,9a.8.8,0,0,1-.8.95H326.9a.43.43,0,0,0-.43.43v.48a.43.43,0,0,0,.43.43h17.8a.46.46,0,0,0,.46-.47v-.49A1.79,1.79,0,0,0,345,266.4Z" style="fill:#fa5951"/><path d="M331.49,266.73H326.9a.43.43,0,0,0-.43.43v.48a.43.43,0,0,0,.43.43h17.8a.47.47,0,0,0,.47-.47v-.49a1.6,1.6,0,0,0-.05-.39Z" style="fill:#ffffff;opacity:0.2"/><path d="M345.58,266.4l-4.33-9.58h-.57L345,266.4a1.79,1.79,0,0,1,.15.72v.49a.46.46,0,0,1-.46.47h.57a.47.47,0,0,0,.47-.47v-.49A1.8,1.8,0,0,0,345.58,266.4Z" style="fill:#fa5951"/><g style="opacity:0.2"><path d="M345.58,266.4l-4.33-9.58h-.57L345,266.4a1.79,1.79,0,0,1,.15.72v.49a.46.46,0,0,1-.46.47h.57a.47.47,0,0,0,.47-.47v-.49A1.8,1.8,0,0,0,345.58,266.4Z" fill="#000000"/></g><polygon points="340.68 256.82 330.57 256.82 330.97 259.11 341.72 259.11 340.68 256.82" style="opacity:0.2" fill="#000000"/><path d="M356.17,257.83H313a1.43,1.43,0,0,1-1.44-1.58l2.73-31.17A1.75,1.75,0,0,1,316,223.5h43.15a1.42,1.42,0,0,1,1.43,1.58l-2.72,31.17A1.77,1.77,0,0,1,356.17,257.83Z" style="fill:#263238"/><path d="M311.89,252.88l-.3,3.37a1.43,1.43,0,0,0,1.44,1.58h43.14a1.77,1.77,0,0,0,1.72-1.58l.29-3.37Z" style="fill:#fa5951"/><path d="M356.66,251.93H313.58a.77.77,0,0,1-.78-.86l2.25-25.76a1,1,0,0,1,.93-.86h43.08a.76.76,0,0,1,.78.86l-2.25,25.76A1,1,0,0,1,356.66,251.93Z" style="fill:#fa5951"/><path d="M356.66,251.93H313.58a.77.77,0,0,1-.78-.86l2.25-25.76a1,1,0,0,1,.93-.86h43.08a.76.76,0,0,1,.78.86l-2.25,25.76A1,1,0,0,1,356.66,251.93Z" style="fill:#fa5951"/><path d="M360.13,223.5h-.95a1.42,1.42,0,0,1,1.43,1.58l-2.72,31.17a1.77,1.77,0,0,1-1.72,1.58h1a1.76,1.76,0,0,0,1.71-1.58l2.73-31.17A1.43,1.43,0,0,0,360.13,223.5Z" style="fill:#fa5951"/><path d="M360.13,223.5h-.95a1.42,1.42,0,0,1,1.43,1.58l-2.72,31.17a1.77,1.77,0,0,1-1.72,1.58h1a1.76,1.76,0,0,0,1.71-1.58l2.73-31.17A1.43,1.43,0,0,0,360.13,223.5Z" style="fill:#fa5951;opacity:0.2"/><g style="opacity:0.30000000000000004"><polygon points="358.49 224.45 356.83 224.45 350.99 251.93 352.64 251.93 358.49 224.45" style="fill:#ffffff"/><polygon points="349.31 251.93 355.15 224.45 348.93 224.45 343.09 251.93 349.31 251.93" style="fill:#ffffff"/></g><path d="M311.89,252.88l-.3,3.37a1.43,1.43,0,0,0,1.44,1.58h43.14a1.77,1.77,0,0,0,1.72-1.58l.29-3.37Z" style="fill:#ffffff;opacity:0.6000000000000001"/><path d="M360.13,223.53h-.95a1.42,1.42,0,0,1,1.43,1.58l-2.72,31.17a1.77,1.77,0,0,1-1.72,1.58h1a1.76,1.76,0,0,0,1.71-1.58l2.73-31.17A1.43,1.43,0,0,0,360.13,223.53Z" style="fill:#ffffff;opacity:0.2"/><path d="M338.32,266.57h26.43a1.22,1.22,0,0,0,1.23-1.35l-1.65-18.86a1.5,1.5,0,0,0-1.47-1.34H336.43a1.22,1.22,0,0,0-1.23,1.34l1.65,18.86A1.5,1.5,0,0,0,338.32,266.57Z" style="fill:#263238"/><path d="M338.32,266.57h26.43a1.22,1.22,0,0,0,1.23-1.35l-1.65-18.86a1.5,1.5,0,0,0-1.47-1.34H336.43a1.22,1.22,0,0,0-1.23,1.34l1.65,18.86A1.5,1.5,0,0,0,338.32,266.57Z" style="fill:#ffffff;opacity:0.4"/><path d="M338.8,266.57h26.43a1.22,1.22,0,0,0,1.23-1.35l-1.65-18.86a1.5,1.5,0,0,0-1.47-1.34H336.91a1.22,1.22,0,0,0-1.23,1.34l1.65,18.86A1.5,1.5,0,0,0,338.8,266.57Z" style="fill:#263238"/><path d="M338.8,266.57h26.43a1.22,1.22,0,0,0,1.23-1.35l-1.65-18.86a1.5,1.5,0,0,0-1.47-1.34H336.91a1.22,1.22,0,0,0-1.23,1.34l1.65,18.86A1.5,1.5,0,0,0,338.8,266.57Z" style="fill:#ffffff;opacity:0.7000000000000001"/><polygon points="338.4 265.23 365.39 265.23 363.74 246.36 336.75 246.36 338.4 265.23" style="fill:#fa5951"/><polygon points="338.4 265.23 365.39 265.23 363.74 246.36 336.75 246.36 338.4 265.23" style="fill:#ffffff;opacity:0.5"/><path d="M339,268.37h27a2.15,2.15,0,0,0,2.16-2.16h-31.3A2.15,2.15,0,0,0,339,268.37Z" style="fill:#263238"/><path d="M339,268.37h27a2.15,2.15,0,0,0,2.16-2.16h-31.3A2.15,2.15,0,0,0,339,268.37Z" style="fill:#ffffff;opacity:0.2"/><path d="M341.16,268.37h27a2.16,2.16,0,0,0,2.16-2.16H339A2.16,2.16,0,0,0,341.16,268.37Z" style="fill:#263238"/><path d="M341.16,268.37h27a2.16,2.16,0,0,0,2.16-2.16H339A2.16,2.16,0,0,0,341.16,268.37Z" style="fill:#ffffff;opacity:0.5"/><path d="M357.46,266.21a1.25,1.25,0,0,1-1.09.63h-3.43a1.24,1.24,0,0,1-1.09-.63Z" style="opacity:0.30000000000000004" fill="#000000"/><path d="M328.93,244.41h-2.14l-2.16,24.66h2.14a2,2,0,0,0,2-1.8l1.84-21.06A1.62,1.62,0,0,0,328.93,244.41Z" style="fill:#263238"/><path d="M326.33,269.07h-8.81a1.62,1.62,0,0,1-1.64-1.8l1.84-21.06a2,2,0,0,1,1.95-1.8h8.82a1.63,1.63,0,0,1,1.64,1.8l-1.85,21.06A2,2,0,0,1,326.33,269.07Z" style="fill:#fa5951"/><path d="M328.45,244.82h-2.29a.33.33,0,0,0-.32.26v.08a.82.82,0,0,1-.78.63h-2.18a.66.66,0,0,1-.67-.63v-.08a.27.27,0,0,0-.27-.26h-2.29a1.54,1.54,0,0,0-1.51,1.39l-1.84,21.06a1.25,1.25,0,0,0,1.26,1.39h8.82a1.54,1.54,0,0,0,1.5-1.39l1.84-21.06A1.24,1.24,0,0,0,328.45,244.82Z" style="fill:#fa5951"/><path d="M328.45,244.82h-2.29a.33.33,0,0,0-.32.26v.08a.82.82,0,0,1-.78.63h-2.18a.66.66,0,0,1-.67-.63v-.08a.27.27,0,0,0-.27-.26h-2.29a1.54,1.54,0,0,0-1.51,1.39l-1.84,21.06a1.25,1.25,0,0,0,1.26,1.39h8.82a1.54,1.54,0,0,0,1.5-1.39l1.84-21.06A1.24,1.24,0,0,0,328.45,244.82Z" style="fill:#ffffff;opacity:0.7000000000000001"/><g style="opacity:0.2"><path d="M323.49,245.06a.19.19,0,0,1-.19.17.15.15,0,0,1-.16-.17.19.19,0,0,1,.19-.18A.16.16,0,0,1,323.49,245.06Z" fill="#000000"/><path d="M324.75,244.88h-.6a.19.19,0,0,0-.19.18.15.15,0,0,0,.16.17h.6a.2.2,0,0,0,.19-.17A.16.16,0,0,0,324.75,244.88Z" fill="#000000"/></g><polygon points="319.13 245.79 319.31 245.79 319.33 245.6 319.14 245.6 319.13 245.79" style="fill:#fa5951"/><polygon points="319.51 245.6 319.5 245.79 319.69 245.79 319.7 245.6 319.72 245.42 319.53 245.42 319.51 245.6" style="fill:#fa5951"/><polygon points="319.92 245.23 319.9 245.42 319.89 245.6 319.87 245.79 320.06 245.79 320.07 245.6 320.09 245.42 320.1 245.23 319.92 245.23" style="fill:#fa5951"/><path d="M327.89,245.24v.14h-.09l0,.27h.09v.14h.82l0-.55Zm.33.41h-.28l0-.27h.27Z" style="fill:#fa5951"/><g style="opacity:0.4"><path d="M322.88,245.79l-6.09,22.63a1.3,1.3,0,0,0,.76.24H318l6.15-22.87Z" style="fill:#ffffff"/><path d="M328.45,244.82h-2.29a.33.33,0,0,0-.32.26v.08a.82.82,0,0,1-.75.63l-6.15,22.87h4.69L329.71,246A1.24,1.24,0,0,0,328.45,244.82Z" style="fill:#ffffff"/></g></g><g id="freepik--Tab--inject-302"><g style="opacity:0.2"><rect x="197.63" y="122.82" width="145.29" height="87.07" fill="#000000"/></g><rect x="193.54" y="118.2" width="145.29" height="87.07" style="fill:#fa5951"/><g style="opacity:0.5"><rect x="193.54" y="118.2" width="145.29" height="87.07" style="fill:#ffffff"/></g><rect x="193.53" y="118.2" width="145.3" height="5.83" style="fill:#fa5951"/><path d="M336.94,121.09a1.73,1.73,0,1,1-1.73-1.74A1.74,1.74,0,0,1,336.94,121.09Z" style="fill:#ffffff"/><polygon points="241.46 136.93 250.96 126.19 255.91 140.72 269.97 136.65 267.16 151.08 282 154.76 272.18 165.22 283.83 175.69 269.63 179.37 274.97 193.8 260.2 189.72 257.79 204.26 246.41 193.51 236.9 204.26 231.95 189.72 217.89 193.8 220.7 179.37 205.86 175.69 215.68 165.22 204.03 154.76 218.23 151.08 212.89 136.65 227.66 140.72 230.07 126.19 241.46 136.93" style="fill:#f5f5f5"/><path d="M214.94,166.7,235.3,189c10.38-16.39,31.93-6.54,37.29-25.93L251.88,141.5C250.52,157.93,222,153.7,214.94,166.7Z" style="fill:#fa5951"/><path d="M214.94,166.7,235.3,189c10.38-16.39,31.93-6.54,37.29-25.93L251.88,141.5C250.52,157.93,222,153.7,214.94,166.7Z" style="fill:#ffffff;opacity:0.4"/><path d="M239.28,162.9a1.6,1.6,0,0,1,1.19.88,2.16,2.16,0,0,1,.27,1.05,2.24,2.24,0,0,1-.36,1.12,3.35,3.35,0,0,1-1.06,1,4.87,4.87,0,0,1-1.15.55,2.89,2.89,0,0,1-1.13.15l-.06-1.26a2.45,2.45,0,0,0,.88-.08,3.11,3.11,0,0,0,.85-.39,1.62,1.62,0,0,0,.61-.65.74.74,0,0,0,0-.68.62.62,0,0,0-.56-.35,2.1,2.1,0,0,0-1,.43l-1.32.86-1.42-3.2,3.14-2.06.56,1-2.15,1.41.49,1.07.42-.27A2.85,2.85,0,0,1,239.28,162.9Z" style="fill:#fa5951"/><path d="M242.83,164.22a2.29,2.29,0,0,1-1.31-.44,3.91,3.91,0,0,1-1.12-1.32,4.14,4.14,0,0,1-.55-1.68,2.86,2.86,0,0,1,.25-1.47,2.54,2.54,0,0,1,1-1.07,2.34,2.34,0,0,1,1.32-.42,2.24,2.24,0,0,1,1.32.45,3.76,3.76,0,0,1,1.11,1.31,4,4,0,0,1,.55,1.68,2.68,2.68,0,0,1-1.2,2.55A2.31,2.31,0,0,1,242.83,164.22Zm1.24-2.37a2.82,2.82,0,0,0-.46-1.49,2.64,2.64,0,0,0-1-1.13,1,1,0,0,0-1,.06,1.06,1.06,0,0,0-.49.9,2.82,2.82,0,0,0,.46,1.49,2.64,2.64,0,0,0,1,1.13.92.92,0,0,0,1-.06A1.05,1.05,0,0,0,244.07,161.85Z" style="fill:#fa5951"/><path d="M245.56,158.84a1.67,1.67,0,0,1-1-.85,1.93,1.93,0,0,1-.25-1.32,1.56,1.56,0,0,1,.7-1,1.31,1.31,0,0,1,1.15-.2,1.65,1.65,0,0,1,1,.85,1.86,1.86,0,0,1,.25,1.31,1.53,1.53,0,0,1-.69,1A1.37,1.37,0,0,1,245.56,158.84Zm1.07-1.31a1.47,1.47,0,0,0-.21-.73,1.26,1.26,0,0,0-.5-.54.49.49,0,0,0-.52,0,.56.56,0,0,0-.26.47,1.3,1.3,0,0,0,.2.73,1.21,1.21,0,0,0,.5.54.54.54,0,0,0,.52,0A.62.62,0,0,0,246.63,157.53Zm1.52-3.81.88-.57-.52,7.69-.87.57Zm2.71,5.42a1.24,1.24,0,0,1-.75-.22,1.89,1.89,0,0,1-.59-.68,2.05,2.05,0,0,1-.28-.89,1.61,1.61,0,0,1,.16-.82,1.72,1.72,0,0,1,.56-.61,1.37,1.37,0,0,1,1.15-.2,1.67,1.67,0,0,1,1,.85,1.87,1.87,0,0,1,.24,1.32,1.51,1.51,0,0,1-.69,1A1.4,1.4,0,0,1,250.86,159.14Zm.68-1.35a1.41,1.41,0,0,0-.21-.73,1.21,1.21,0,0,0-.5-.54.51.51,0,0,0-.52,0,.62.62,0,0,0-.27.47,1.29,1.29,0,0,0,.21.74,1.26,1.26,0,0,0,.5.54.49.49,0,0,0,.51,0A.59.59,0,0,0,251.54,157.79Z" style="fill:#fa5951"/><path d="M243.28,174.74a2.78,2.78,0,0,1-1.56-.34,3,3,0,0,1-1.16-1.19,3.35,3.35,0,0,1,0-3.32,3.78,3.78,0,0,1,1.24-1.31,3.46,3.46,0,0,1,1.65-.58,2.8,2.8,0,0,1,1.56.34,2.9,2.9,0,0,1,1.16,1.19,3.17,3.17,0,0,1,.43,1.66,3.47,3.47,0,0,1-.45,1.66,3.84,3.84,0,0,1-1.24,1.3A3.48,3.48,0,0,1,243.28,174.74Zm1.76-2.41a2,2,0,0,0,.23-1,2.19,2.19,0,0,0-.28-1,2,2,0,0,0-.71-.75,1.67,1.67,0,0,0-.92-.24,1.86,1.86,0,0,0-.94.32,2.07,2.07,0,0,0-.71.76,2,2,0,0,0-.23,1,2.16,2.16,0,0,0,.28,1,2.09,2.09,0,0,0,.71.76,1.66,1.66,0,0,0,.92.23,1.77,1.77,0,0,0,.94-.32A2.07,2.07,0,0,0,245,172.33Z" style="fill:#fa5951"/><path d="M247.34,166.47l.79,1.42,2.39-1.56.55,1-2.38,1.55,1.09,2-1.19.77-3-5.38,3.89-2.55.56,1Z" style="fill:#fa5951"/><path d="M252,163.4l.79,1.42,2.39-1.56.55,1-2.38,1.56,1.09,2-1.19.78-3-5.39,3.89-2.54.56,1Z" style="fill:#fa5951"/><path d="M291.27,158h-3.2l-.56,1.47h-2.88l3.67-8.4h2.79l3.67,8.4h-2.93Zm-.78-2-.82-2.11-.82,2.11Z" style="fill:#fa5951"/><path d="M302.33,150.51v8.91h-2.58v-.54a2.28,2.28,0,0,1-1.8.66,3.1,3.1,0,0,1-1.59-.42,2.93,2.93,0,0,1-1.15-1.19,4,4,0,0,1,0-3.6,3,3,0,0,1,1.15-1.18,3.1,3.1,0,0,1,1.59-.42,2.28,2.28,0,0,1,1.67.57v-2.79Zm-3,6.57a1.39,1.39,0,0,0,.3-1,1.37,1.37,0,0,0-.3-.95,1,1,0,0,0-1.54,0,1.37,1.37,0,0,0-.3.95,1.39,1.39,0,0,0,.3,1,1,1,0,0,0,1.54,0Z" style="fill:#fa5951"/><path d="M310.79,150.51v8.91h-2.58v-.54a2.28,2.28,0,0,1-1.8.66,3.1,3.1,0,0,1-1.59-.42,2.93,2.93,0,0,1-1.15-1.19,4,4,0,0,1,0-3.6,3,3,0,0,1,1.15-1.18,3.1,3.1,0,0,1,1.59-.42,2.28,2.28,0,0,1,1.67.57v-2.79Zm-3,6.57a1.39,1.39,0,0,0,.3-1,1.37,1.37,0,0,0-.3-.95,1,1,0,0,0-1.54,0,1.37,1.37,0,0,0-.3.95,1.39,1.39,0,0,0,.3,1,1,1,0,0,0,1.54,0Z" style="fill:#fa5951"/><path d="M275.64,173.45a4.12,4.12,0,0,1-1.67-1.56,4.55,4.55,0,0,1,0-4.55,4.12,4.12,0,0,1,1.67-1.56,5.12,5.12,0,0,1,2.4-.56,5.25,5.25,0,0,1,2.19.44,4,4,0,0,1,1.58,1.24L280,168.5a2.27,2.27,0,0,0-1.83-1,1.87,1.87,0,0,0-1.43.57,2.44,2.44,0,0,0,0,3.06,1.87,1.87,0,0,0,1.43.57,2.29,2.29,0,0,0,1.83-1l1.79,1.6a4.13,4.13,0,0,1-1.58,1.25A5.41,5.41,0,0,1,278,174,5.12,5.12,0,0,1,275.64,173.45Z" style="fill:#fa5951"/><path d="M283.87,173.5a3.34,3.34,0,0,1-1.36-1.21,3.35,3.35,0,0,1,0-3.52,3.27,3.27,0,0,1,1.36-1.21,4.7,4.7,0,0,1,3.93,0,3.23,3.23,0,0,1,1.85,3,3.23,3.23,0,0,1-1.85,3,4.61,4.61,0,0,1-3.93,0Zm2.73-2a1.65,1.65,0,0,0,0-1.9,1,1,0,0,0-1.54,0,1.65,1.65,0,0,0,0,1.9,1,1,0,0,0,1.54,0Z" style="fill:#fa5951"/><path d="M297.67,167.25v6.57h-2.58v-.63a2.26,2.26,0,0,1-.84.56,2.89,2.89,0,0,1-1,.19,2.68,2.68,0,0,1-2-.77,3.13,3.13,0,0,1-.76-2.29v-3.63h2.72v3.16a1.66,1.66,0,0,0,.21,1,.77.77,0,0,0,.64.29.84.84,0,0,0,.66-.32,1.6,1.6,0,0,0,.26-1v-3.09Z" style="fill:#fa5951"/><path d="M304.84,167.55a3,3,0,0,1,1.16,1.19,3.74,3.74,0,0,1,.42,1.8,3.67,3.67,0,0,1-.42,1.79,3,3,0,0,1-1.16,1.19,3.1,3.1,0,0,1-1.59.42,2.26,2.26,0,0,1-1.66-.57v2.77h-2.72v-8.89h2.58v.54a2.31,2.31,0,0,1,1.8-.66A3.1,3.1,0,0,1,304.84,167.55Zm-1.47,3.94a1.39,1.39,0,0,0,.3-1,1.37,1.37,0,0,0-.3-.95,1,1,0,0,0-1.53,0,1.37,1.37,0,0,0-.3.95,1.39,1.39,0,0,0,.3,1,1.05,1.05,0,0,0,1.53,0Z" style="fill:#fa5951"/><path d="M308.78,173.5a3.4,3.4,0,0,1-1.36-1.21,3.41,3.41,0,0,1,0-3.52,3.33,3.33,0,0,1,1.36-1.21,4.44,4.44,0,0,1,2-.43,4.5,4.5,0,0,1,2,.43,3.24,3.24,0,0,1,1.35,1.21,3.41,3.41,0,0,1,0,3.52,3.31,3.31,0,0,1-1.35,1.21,4.37,4.37,0,0,1-2,.44A4.31,4.31,0,0,1,308.78,173.5Zm2.73-2a1.65,1.65,0,0,0,0-1.9,1,1,0,0,0-1.54,0,1.65,1.65,0,0,0,0,1.9,1,1,0,0,0,1.54,0Z" style="fill:#fa5951"/><path d="M321.92,167.86a3,3,0,0,1,.74,2.21v3.75H320v-3.28c0-.75-.27-1.13-.81-1.13a1,1,0,0,0-.74.32,1.53,1.53,0,0,0-.28,1v3.09h-2.71v-6.57H318v.65a2.49,2.49,0,0,1,.89-.58,3.2,3.2,0,0,1,1.09-.19A2.67,2.67,0,0,1,321.92,167.86Z" style="fill:#fa5951"/></g></svg>