<svg xmlns="http://www.w3.org/2000/svg" viewBox="0 0 500 500"><g id="freepik--Gears--inject-144"><g id="freepik--gears--inject-144"><path id="freepik--shadow--inject-144" d="M199.21,472.68a5.3,5.3,0,0,1-5.14-4.25l-.87-4.59a57.94,57.94,0,0,1-5.84-1.45l-8.92,4.13a6,6,0,0,1-2.51.53h0a6.24,6.24,0,0,1-3.06-.78L163.76,461a4.52,4.52,0,0,1-.39-7.71l4.78-3.44c-.23-.33-.44-.66-.65-1l-11.14-.7a5.08,5.08,0,0,1-4.75-5.06V436.3a5.08,5.08,0,0,1,4.75-5.06l11.14-.7c.21-.34.42-.67.65-1l-4.78-3.44a4.53,4.53,0,0,1,.38-7.71l9.13-5.27a6.19,6.19,0,0,1,3.05-.78,6,6,0,0,1,2.52.53l8.91,4.13a57.94,57.94,0,0,1,5.84-1.45l.87-4.58a5.3,5.3,0,0,1,5.14-4.26h13.42a5.32,5.32,0,0,1,5.14,4.25l.87,4.59a58.62,58.62,0,0,1,5.84,1.45l8.91-4.13a6,6,0,0,1,2.52-.53,6.21,6.21,0,0,1,3.05.78l9.12,5.27a4.52,4.52,0,0,1,.39,7.71l-4.78,3.44c.22.33.44.66.65,1l11.14.7a5.08,5.08,0,0,1,4.75,5.06v6.79a5.08,5.08,0,0,1-4.75,5.06l-11.14.7c-.21.34-.43.67-.65,1l4.78,3.44a4.53,4.53,0,0,1-.38,7.71L239,466.27a6.19,6.19,0,0,1-3.05.78,6,6,0,0,1-2.52-.53l-8.91-4.13a58.62,58.62,0,0,1-5.84,1.45l-.87,4.58a5.3,5.3,0,0,1-5.14,4.26Zm-6.78-38.54c-2.83,1.63-4.45,3.66-4.45,5.55s1.62,3.93,4.45,5.56a30.27,30.27,0,0,0,27,0c2.83-1.63,4.46-3.66,4.46-5.56s-1.63-3.92-4.46-5.55a30.27,30.27,0,0,0-27,0Z" style="fill:#e0e0e0"/><path d="M165.26,414.44h0l0,7.92h0a.76.76,0,0,0,.36.6l4.17,3a2,2,0,0,1-1.05.44l-12.16.77a1.22,1.22,0,0,0-1.13,1.21v6.82l0,7.87a1.23,1.23,0,0,0,1.13,1.21l12.16.77a2.19,2.19,0,0,1,1,.43l-4.2,3a.79.79,0,0,0-.36.61h0l0,7.93h0a.74.74,0,0,0,.42.61l9.13,5.26a2.42,2.42,0,0,0,2,.09l9.24-4.28a3.49,3.49,0,0,1,2.12-.13,54.88,54.88,0,0,0,7.18,1.71,1.76,1.76,0,0,1,1.34,1.3l1.15,6.09a1.43,1.43,0,0,0,1.35,1.12h13.42A1.43,1.43,0,0,0,214,467.7l1.16-6.09a1.73,1.73,0,0,1,1.33-1.3,54.88,54.88,0,0,0,7.18-1.71,3.49,3.49,0,0,1,2.12.13L235,463a2.42,2.42,0,0,0,2-.09l9.12-5.26a.75.75,0,0,0,.42-.62h0l0-7.92h0a.79.79,0,0,0-.36-.61l-4.18-3a2.19,2.19,0,0,1,1.06-.45l12.16-.77a1.22,1.22,0,0,0,1.13-1.21v-9.51h0v-5.17a1.23,1.23,0,0,0-1.13-1.21l-12.16-.77a2,2,0,0,1-1-.43l4.2-3a.72.72,0,0,0,.36-.61h0l0-7.91h0a.73.73,0,0,0-.42-.62L237,408.55a2.49,2.49,0,0,0-2-.09l-9.24,4.29a3.42,3.42,0,0,1-2.12.12,53.3,53.3,0,0,0-7.18-1.7,1.76,1.76,0,0,1-1.34-1.3l-1.15-6.1a1.45,1.45,0,0,0-1.35-1.12H199.21a1.43,1.43,0,0,0-1.35,1.12l-1.16,6.1a1.75,1.75,0,0,1-1.33,1.3,53.3,53.3,0,0,0-7.18,1.7,3.42,3.42,0,0,1-2.12-.12l-9.25-4.29a2.5,2.5,0,0,0-2,.09l-9.12,5.27A.73.73,0,0,0,165.26,414.44Zm56.07,26.24c-8.51,4.92-22.31,4.92-30.82,0-3.33-1.92-5.35-4.31-6.08-6.8.92-2,3-4,6.08-5.82,8.51-4.91,22.31-4.91,30.82,0,3.33,1.93,5.29,4.07,5.94,6.25C226.45,436.65,224.47,438.87,221.33,440.68Z" style="fill:#fa5951"/><path d="M165.26,414.44h0l0,7.92h0a.76.76,0,0,0,.36.6l4.17,3a2,2,0,0,1-1.05.44l-12.16.77a1.22,1.22,0,0,0-1.13,1.21v6.82l0,7.87a1.23,1.23,0,0,0,1.13,1.21l12.16.77a2.19,2.19,0,0,1,1,.43l-4.2,3a.79.79,0,0,0-.36.61h0l0,7.93h0a.74.74,0,0,0,.42.61l9.13,5.26a2.42,2.42,0,0,0,2,.09l9.24-4.28a3.49,3.49,0,0,1,2.12-.13,54.88,54.88,0,0,0,7.18,1.71,1.76,1.76,0,0,1,1.34,1.3l1.15,6.09a1.43,1.43,0,0,0,1.35,1.12h13.42A1.43,1.43,0,0,0,214,467.7l1.16-6.09a1.73,1.73,0,0,1,1.33-1.3,54.88,54.88,0,0,0,7.18-1.71,3.49,3.49,0,0,1,2.12.13L235,463a2.42,2.42,0,0,0,2-.09l9.12-5.26a.75.75,0,0,0,.42-.62h0l0-7.92h0a.79.79,0,0,0-.36-.61l-4.18-3a2.19,2.19,0,0,1,1.06-.45l12.16-.77a1.22,1.22,0,0,0,1.13-1.21v-9.51h0v-5.17a1.23,1.23,0,0,0-1.13-1.21l-12.16-.77a2,2,0,0,1-1-.43l4.2-3a.72.72,0,0,0,.36-.61h0l0-7.91h0a.73.73,0,0,0-.42-.62L237,408.55a2.49,2.49,0,0,0-2-.09l-9.24,4.29a3.42,3.42,0,0,1-2.12.12,53.3,53.3,0,0,0-7.18-1.7,1.76,1.76,0,0,1-1.34-1.3l-1.15-6.1a1.45,1.45,0,0,0-1.35-1.12H199.21a1.43,1.43,0,0,0-1.35,1.12l-1.16,6.1a1.75,1.75,0,0,1-1.33,1.3,53.3,53.3,0,0,0-7.18,1.7,3.42,3.42,0,0,1-2.12-.12l-9.25-4.29a2.5,2.5,0,0,0-2,.09l-9.12,5.27A.73.73,0,0,0,165.26,414.44Zm56.07,26.24c-8.51,4.92-22.31,4.92-30.82,0-3.33-1.92-5.35-4.31-6.08-6.8.92-2,3-4,6.08-5.82,8.51-4.91,22.31-4.91,30.82,0,3.33,1.93,5.29,4.07,5.94,6.25C226.45,436.65,224.47,438.87,221.33,440.68Z" style="fill:#fff;opacity:0.2"/><path d="M238.85,441.83a1,1,0,0,0,.14,1.48l3,2.19a2,2,0,0,1,1.07-.44l12.16-.76a1.25,1.25,0,0,0,1.14-1.22l0-9.51v1.61a1.22,1.22,0,0,1-1.13,1.21l-12.16.76a2.23,2.23,0,0,0-1.64,1.1A18.58,18.58,0,0,1,238.85,441.83Zm7.74-27.31a.93.93,0,0,1-.37.54l-7.23,5.2a1,1,0,0,0-.13,1.48,19,19,0,0,1,2.58,3.58,2.11,2.11,0,0,0,.6.67l4.2-3a.72.72,0,0,0,.36-.61h0Z" style="opacity:0.1" fill="#000000"/><path d="M190.51,422.89c8.51-4.92,22.31-4.92,30.82,0,5.38,3.11,7.36,7.44,5.94,11.44-.64-2.18-2.6-4.33-5.94-6.26-8.51-4.91-22.31-4.91-30.82,0-3.12,1.8-5.16,3.77-6.08,5.8C183.29,430,185.33,425.88,190.51,422.89Z" style="opacity:0.1" fill="#000000"/><path d="M155.49,443.09a1.21,1.21,0,0,0,1.13,1.2l12.16.78a1.7,1.7,0,0,1,.6.17v-7.92a1.74,1.74,0,0,0-.62-.17l-12.15-.76a1.26,1.26,0,0,1-1.13-1.06Zm9.78-20.72h0a.79.79,0,0,0,.36.61l4.18,3a2.34,2.34,0,0,0,.58-.65,17.74,17.74,0,0,1,2.45-3.42,1,1,0,0,1,.13-.16,1.14,1.14,0,0,0,.25-.42l0-.16a.76.76,0,0,0,0-.3,1,1,0,0,0-.23-.45.66.66,0,0,0-.17-.16l-7.23-5.2a1.15,1.15,0,0,1-.17-.14.43.43,0,0,1-.14-.24.42.42,0,0,1-.05-.24h0Zm0,34.69a.73.73,0,0,0,.43.6l9.12,5.26a2.34,2.34,0,0,0,1.41.24l0-7.9a2.43,2.43,0,0,1-1.41-.24l-9.13-5.27a.82.82,0,0,1-.43-.56Zm59.6,1.46a2.83,2.83,0,0,1,.91.21L235,463a2.4,2.4,0,0,0,.83.17l0-7.9a1.87,1.87,0,0,1-.83-.18l-9.24-4.28a2.7,2.7,0,0,0-.91-.22Zm-26.82,9.63a1.44,1.44,0,0,0,1.18.67h13.41a1.36,1.36,0,0,0,.81-.29v-7.91a1.42,1.42,0,0,1-.82.3H199.21a1.4,1.4,0,0,1-1.13-.6Z" style="fill:#fa5951"/><path d="M155.49,443.09a1.21,1.21,0,0,0,1.13,1.2l12.16.78a1.7,1.7,0,0,1,.6.17v-7.92a1.74,1.74,0,0,0-.62-.17l-12.15-.76a1.26,1.26,0,0,1-1.13-1.06Zm9.78-20.72h0a.79.79,0,0,0,.36.61l4.18,3a2.34,2.34,0,0,0,.58-.65,17.74,17.74,0,0,1,2.45-3.42,1,1,0,0,1,.13-.16,1.14,1.14,0,0,0,.25-.42l0-.16a.76.76,0,0,0,0-.3,1,1,0,0,0-.23-.45.66.66,0,0,0-.17-.16l-7.23-5.2a1.15,1.15,0,0,1-.17-.14.43.43,0,0,1-.14-.24.42.42,0,0,1-.05-.24h0Zm0,34.69a.73.73,0,0,0,.43.6l9.12,5.26a2.34,2.34,0,0,0,1.41.24l0-7.9a2.43,2.43,0,0,1-1.41-.24l-9.13-5.27a.82.82,0,0,1-.43-.56Zm59.6,1.46a2.83,2.83,0,0,1,.91.21L235,463a2.4,2.4,0,0,0,.83.17l0-7.9a1.87,1.87,0,0,1-.83-.18l-9.24-4.28a2.7,2.7,0,0,0-.91-.22Zm-26.82,9.63a1.44,1.44,0,0,0,1.18.67h13.41a1.36,1.36,0,0,0,.81-.29v-7.91a1.42,1.42,0,0,1-.82.3H199.21a1.4,1.4,0,0,1-1.13-.6Z" style="fill:#fff;opacity:0.7000000000000001"/><path d="M174.8,408.55l-9.12,5.27a.68.68,0,0,0-.06,1.23l7.23,5.21a1,1,0,0,1,.13,1.48,19,19,0,0,0-2.58,3.58,2.24,2.24,0,0,1-1.64,1.09l-12.16.77a1.22,1.22,0,0,0-1.13,1.21v6.79a1.23,1.23,0,0,0,1.13,1.21l12.16.77a2.19,2.19,0,0,1,1.64,1.09,19,19,0,0,0,2.58,3.58,1,1,0,0,1-.13,1.48l-7.23,5.2a.69.69,0,0,0,.06,1.24L174.8,455a2.46,2.46,0,0,0,2,.1l9.25-4.29a3.42,3.42,0,0,1,2.12-.12,54.87,54.87,0,0,0,7.18,1.7,1.73,1.73,0,0,1,1.33,1.3l1.16,6.1a1.43,1.43,0,0,0,1.35,1.11h13.42a1.43,1.43,0,0,0,1.35-1.12l1.15-6.09a1.76,1.76,0,0,1,1.34-1.3,54.88,54.88,0,0,0,7.18-1.71,3.49,3.49,0,0,1,2.12.13l9.24,4.29a2.46,2.46,0,0,0,2-.1l9.13-5.26a.69.69,0,0,0,.06-1.24l-7.23-5.2a1,1,0,0,1-.14-1.48,18.58,18.58,0,0,0,2.59-3.58,2.19,2.19,0,0,1,1.64-1.09l12.16-.77a1.24,1.24,0,0,0,1.13-1.21v-6.79a1.23,1.23,0,0,0-1.13-1.21l-12.16-.77a2.24,2.24,0,0,1-1.64-1.09,18.28,18.28,0,0,0-2.59-3.58,1,1,0,0,1,.14-1.48l7.23-5.21a.68.68,0,0,0-.06-1.23L237,408.55a2.49,2.49,0,0,0-2-.09l-9.24,4.29a3.42,3.42,0,0,1-2.12.12,53.3,53.3,0,0,0-7.18-1.7,1.76,1.76,0,0,1-1.34-1.3l-1.15-6.1a1.45,1.45,0,0,0-1.35-1.12H199.21a1.43,1.43,0,0,0-1.35,1.12l-1.16,6.1a1.75,1.75,0,0,1-1.33,1.3,53.3,53.3,0,0,0-7.18,1.7,3.42,3.42,0,0,1-2.12-.12l-9.25-4.29A2.5,2.5,0,0,0,174.8,408.55Zm46.53,14.34c8.51,4.91,8.51,12.88,0,17.79s-22.31,4.92-30.82,0-8.52-12.88,0-17.79S212.82,418,221.33,422.89Z" style="fill:#fa5951"/><g style="opacity:0.55"><path d="M174.8,408.55l-9.12,5.27a.68.68,0,0,0-.06,1.23l7.23,5.21a1,1,0,0,1,.13,1.48,19,19,0,0,0-2.58,3.58,2.24,2.24,0,0,1-1.64,1.09l-12.16.77a1.22,1.22,0,0,0-1.13,1.21v6.79a1.23,1.23,0,0,0,1.13,1.21l12.16.77a2.19,2.19,0,0,1,1.64,1.09,19,19,0,0,0,2.58,3.58,1,1,0,0,1-.13,1.48l-7.23,5.2a.69.69,0,0,0,.06,1.24L174.8,455a2.46,2.46,0,0,0,2,.1l9.25-4.29a3.42,3.42,0,0,1,2.12-.12,54.87,54.87,0,0,0,7.18,1.7,1.73,1.73,0,0,1,1.33,1.3l1.16,6.1a1.43,1.43,0,0,0,1.35,1.11h13.42a1.43,1.43,0,0,0,1.35-1.12l1.15-6.09a1.76,1.76,0,0,1,1.34-1.3,54.88,54.88,0,0,0,7.18-1.71,3.49,3.49,0,0,1,2.12.13l9.24,4.29a2.46,2.46,0,0,0,2-.1l9.13-5.26a.69.69,0,0,0,.06-1.24l-7.23-5.2a1,1,0,0,1-.14-1.48,18.58,18.58,0,0,0,2.59-3.58,2.19,2.19,0,0,1,1.64-1.09l12.16-.77a1.24,1.24,0,0,0,1.13-1.21v-6.79a1.23,1.23,0,0,0-1.13-1.21l-12.16-.77a2.24,2.24,0,0,1-1.64-1.09,18.28,18.28,0,0,0-2.59-3.58,1,1,0,0,1,.14-1.48l7.23-5.21a.68.68,0,0,0-.06-1.23L237,408.55a2.49,2.49,0,0,0-2-.09l-9.24,4.29a3.42,3.42,0,0,1-2.12.12,53.3,53.3,0,0,0-7.18-1.7,1.76,1.76,0,0,1-1.34-1.3l-1.15-6.1a1.45,1.45,0,0,0-1.35-1.12H199.21a1.43,1.43,0,0,0-1.35,1.12l-1.16,6.1a1.75,1.75,0,0,1-1.33,1.3,53.3,53.3,0,0,0-7.18,1.7,3.42,3.42,0,0,1-2.12-.12l-9.25-4.29A2.5,2.5,0,0,0,174.8,408.55Zm46.53,14.34c8.51,4.91,8.51,12.88,0,17.79s-22.31,4.92-30.82,0-8.52-12.88,0-17.79S212.82,418,221.33,422.89Z" style="fill:#fff"/><path d="M212.63,461.36H199.21a1.88,1.88,0,0,1-1.79-1.48l-1.16-6.1a1.32,1.32,0,0,0-1-.94,53.91,53.91,0,0,1-7.24-1.72,2.88,2.88,0,0,0-1.79.11L177,455.51a2.91,2.91,0,0,1-2.43-.11l-9.12-5.26a1.13,1.13,0,0,1-.1-2l7.23-5.2a.5.5,0,0,0,.23-.37.54.54,0,0,0-.17-.45,19,19,0,0,1-2.64-3.67,1.8,1.8,0,0,0-1.28-.86l-12.16-.77a1.68,1.68,0,0,1-1.55-1.65v-6.79a1.68,1.68,0,0,1,1.55-1.65l12.16-.77a1.83,1.83,0,0,0,1.28-.86,18.75,18.75,0,0,1,2.64-3.67.55.55,0,0,0,.17-.45.5.5,0,0,0-.23-.37l-7.23-5.2a1.21,1.21,0,0,1-.55-1,1.2,1.2,0,0,1,.65-1l9.12-5.27h0a2.91,2.91,0,0,1,2.43-.1l9.25,4.28a3,3,0,0,0,1.79.11,55.1,55.1,0,0,1,7.24-1.73,1.29,1.29,0,0,0,1-.94l1.16-6.09a1.88,1.88,0,0,1,1.79-1.48h13.42a1.88,1.88,0,0,1,1.79,1.48l1.15,6.09a1.3,1.3,0,0,0,1,.94,56.58,56.58,0,0,1,7.23,1.72,3,3,0,0,0,1.8-.1l9.25-4.28a2.91,2.91,0,0,1,2.43.1l9.12,5.27a1.22,1.22,0,0,1,.65,1,1.2,1.2,0,0,1-.55,1l-7.23,5.2a.5.5,0,0,0-.23.37.57.57,0,0,0,.16.45,18.4,18.4,0,0,1,2.65,3.67,1.83,1.83,0,0,0,1.28.86l12.15.77a1.68,1.68,0,0,1,1.56,1.65v6.79a1.68,1.68,0,0,1-1.55,1.65l-12.16.77a1.8,1.8,0,0,0-1.28.86,18.69,18.69,0,0,1-2.65,3.67.56.56,0,0,0-.16.45.5.5,0,0,0,.23.37l7.23,5.2a1.2,1.2,0,0,1,.55,1,1.22,1.22,0,0,1-.65,1l-9.12,5.26a2.91,2.91,0,0,1-2.43.11l-9.25-4.28a2.91,2.91,0,0,0-1.8-.11,53.4,53.4,0,0,1-7.23,1.72,1.35,1.35,0,0,0-1,.94l-1.15,6.1A1.88,1.88,0,0,1,212.63,461.36Zm-25.29-11.23a3.36,3.36,0,0,1,1,.14,55.27,55.27,0,0,0,7.12,1.69,2.21,2.21,0,0,1,1.7,1.66l1.16,6.09a1,1,0,0,0,.91.76h13.42a1,1,0,0,0,.91-.76l1.15-6.09A2.22,2.22,0,0,1,216.4,452a54.88,54.88,0,0,0,7.12-1.69,3.74,3.74,0,0,1,2.43.15l9.25,4.28a2,2,0,0,0,1.61-.07l9.12-5.27a.37.37,0,0,0,.21-.23.36.36,0,0,0-.18-.25l-7.23-5.21a1.37,1.37,0,0,1-.6-1,1.48,1.48,0,0,1,.39-1.15A17.29,17.29,0,0,0,241,438a2.72,2.72,0,0,1,2-1.32l12.16-.77a.8.8,0,0,0,.72-.76v-6.79a.79.79,0,0,0-.72-.76l-12.16-.77a2.72,2.72,0,0,1-2-1.32,17.34,17.34,0,0,0-2.52-3.5,1.42,1.42,0,0,1,.21-2.15l7.23-5.2a.38.38,0,0,0,.18-.25.37.37,0,0,0-.21-.23l-9.12-5.27a2,2,0,0,0-1.61-.07L226,413.15a3.81,3.81,0,0,1-2.43.15,55.27,55.27,0,0,0-7.12-1.69,2.22,2.22,0,0,1-1.71-1.66l-1.15-6.09a1,1,0,0,0-.91-.76H199.21a1,1,0,0,0-.91.76L197.14,410a2.21,2.21,0,0,1-1.7,1.66,54.88,54.88,0,0,0-7.12,1.69,3.78,3.78,0,0,1-2.44-.15l-9.24-4.28a2,2,0,0,0-1.61.07h0l-9.13,5.27a.38.38,0,0,0-.2.23.35.35,0,0,0,.18.25l7.23,5.2a1.4,1.4,0,0,1,.6,1,1.45,1.45,0,0,1-.4,1.14,17.68,17.68,0,0,0-2.51,3.5,2.72,2.72,0,0,1-2,1.32l-12.16.77a.78.78,0,0,0-.72.76v6.79a.8.8,0,0,0,.72.76l12.16.77a2.72,2.72,0,0,1,2,1.32,17.62,17.62,0,0,0,2.51,3.49,1.49,1.49,0,0,1,.4,1.15,1.37,1.37,0,0,1-.6,1l-7.23,5.21a.36.36,0,0,0-.18.25.37.37,0,0,0,.21.23l9.12,5.27a2,2,0,0,0,1.6.07l9.25-4.28A3.56,3.56,0,0,1,187.34,450.13Zm18.58-5.33a32,32,0,0,1-15.64-3.73c-4.26-2.46-6.61-5.76-6.61-9.29s2.35-6.82,6.61-9.28c8.62-5,22.65-5,31.28,0h0c4.26,2.46,6.6,5.76,6.6,9.28s-2.34,6.83-6.6,9.29A32,32,0,0,1,205.92,444.8Zm0-25.15a31,31,0,0,0-15.19,3.62c-4,2.3-6.16,5.32-6.16,8.51s2.19,6.22,6.16,8.51c8.38,4.84,22,4.84,30.38,0,4-2.3,6.16-5.32,6.16-8.52s-2.19-6.21-6.16-8.51h0A31,31,0,0,0,205.92,419.65Z" style="fill:#fff"/></g><path id="freepik--shadow--inject-144" d="M293,475.39l-1.14-2.22c-1.13-.1-2.26-.25-3.35-.44h0l-3.81,2.54a6.31,6.31,0,0,1-3.43,1,5.84,5.84,0,0,1-2.19-.41l-5.89-2.36a4.4,4.4,0,0,1-1.6-7.22l.81-.86-6.26.25A5.41,5.41,0,0,1,261,462l-1-3.26a4.68,4.68,0,0,1,3.71-6.07l3.45-.59-1.26-.64A4.36,4.36,0,0,1,265,444l3.76-3.13a6.24,6.24,0,0,1,3.93-1.36,5.85,5.85,0,0,1,1.69.25l5.59,1.75h.08s0,0,0,0q.89-.37,1.83-.72l-.14-1.14a4.86,4.86,0,0,1,4.33-5.43l7.35-.77a4.87,4.87,0,0,1,.54,0,5.65,5.65,0,0,1,4.93,3l1.14,2.22c1.13.1,2.25.25,3.35.43h0l3.81-2.54a6.31,6.31,0,0,1,3.43-1,5.81,5.81,0,0,1,2.19.41l5.89,2.35a4.41,4.41,0,0,1,1.6,7.23l-.8.86,6.25-.25a5.41,5.41,0,0,1,5.06,3.71l1,3.25a4.69,4.69,0,0,1-3.71,6.08l-3.45.59,1.27.64a4.37,4.37,0,0,1,.85,7.39l-3.76,3.13a6.24,6.24,0,0,1-3.93,1.36,5.85,5.85,0,0,1-1.69-.25l-5.59-1.76h-.08s0,0,0,0c-.58.25-1.19.49-1.82.72l.14,1.14a4.88,4.88,0,0,1-4.33,5.43l-7.36.77-.53,0A5.67,5.67,0,0,1,293,475.39ZM286.69,454c-.51.42-1.33,1.24-1.21,2.05s1.2,2.13,3.78,3.16a18.17,18.17,0,0,0,6.67,1.2c3.75,0,7.3-1,9.27-2.67.51-.41,1.33-1.24,1.21-2s-1.2-2.13-3.78-3.17a18.17,18.17,0,0,0-6.67-1.19C292.21,451.37,288.66,452.39,286.69,454Z" style="fill:#e0e0e0"/><path d="M281.5,438.67a4,4,0,0,1-2.44.16L273.34,437a2.68,2.68,0,0,0-2.26.44l-3.76,3.13a.88.88,0,0,0-.36.7h0v6h0a.85.85,0,0,0,.53.75l2,1-5.21.89a1.1,1.1,0,0,0-.94,1.13h0v6h0a1.18,1.18,0,0,0,.05.37l1,3.25a1.81,1.81,0,0,0,1.7,1.2l6.73-.27a3.09,3.09,0,0,1,1.62.5l-.35.36a1,1,0,0,0-.29.66h0v6.06h0a.86.86,0,0,0,.61.78l5.89,2.36a2.8,2.8,0,0,0,2.31-.24l4-2.62a3.81,3.81,0,0,1,2.38-.48,37,37,0,0,0,3.81.47,2.6,2.6,0,0,1,1.91,1.24l1.46,2.86a2.07,2.07,0,0,0,1.9,1l7.36-.77a1.28,1.28,0,0,0,1.15-1.26h0v-4.1a1.59,1.59,0,0,1,.75-.53,30,30,0,0,0,3.07-1.13,4,4,0,0,1,2.44-.16l5.72,1.79a2.68,2.68,0,0,0,2.26-.44l3.76-3.13a.89.89,0,0,0,.36-.67h0v-6.08h0a.82.82,0,0,0-.53-.73l-2-1,5.21-.89a1.1,1.1,0,0,0,.95-1.06h0v-6.08h0a1.36,1.36,0,0,0,0-.4l-1-3.26a1.79,1.79,0,0,0-1.7-1.19l-6.72.27a3.16,3.16,0,0,1-1.62-.5l.34-.37a1,1,0,0,0,.29-.66h0v-6h0v-.07h0a.86.86,0,0,0-.6-.76l-5.89-2.35a2.77,2.77,0,0,0-2.3.23l-4,2.63a3.81,3.81,0,0,1-2.38.48,37,37,0,0,0-3.81-.47,2.57,2.57,0,0,1-1.9-1.25l-1.47-2.85a2.07,2.07,0,0,0-1.9-1l-7.36.77a1.28,1.28,0,0,0-1.14,1.43l.34,2.8a1.6,1.6,0,0,1-1.1,1.66A30.89,30.89,0,0,0,281.5,438.67Zm26,15.71c-4.43,3.69-13.19,4.6-19.57,2a10.84,10.84,0,0,1-5-3.65,8.34,8.34,0,0,1,1.49-1.58c4.43-3.69,13.19-4.6,19.57-2.05a11,11,0,0,1,5,3.64A8.1,8.1,0,0,1,307.5,454.38Z" style="fill:#fa5951"/><path d="M281.5,438.67a4,4,0,0,1-2.44.16L273.34,437a2.68,2.68,0,0,0-2.26.44l-3.76,3.13a.88.88,0,0,0-.36.7h0v6h0a.85.85,0,0,0,.53.75l2,1-5.21.89a1.1,1.1,0,0,0-.94,1.13h0v6h0a1.18,1.18,0,0,0,.05.37l1,3.25a1.81,1.81,0,0,0,1.7,1.2l6.73-.27a3.09,3.09,0,0,1,1.62.5l-.35.36a1,1,0,0,0-.29.66h0v6.06h0a.86.86,0,0,0,.61.78l5.89,2.36a2.8,2.8,0,0,0,2.31-.24l4-2.62a3.81,3.81,0,0,1,2.38-.48,37,37,0,0,0,3.81.47,2.6,2.6,0,0,1,1.91,1.24l1.46,2.86a2.07,2.07,0,0,0,1.9,1l7.36-.77a1.28,1.28,0,0,0,1.15-1.26h0v-4.1a1.59,1.59,0,0,1,.75-.53,30,30,0,0,0,3.07-1.13,4,4,0,0,1,2.44-.16l5.72,1.79a2.68,2.68,0,0,0,2.26-.44l3.76-3.13a.89.89,0,0,0,.36-.67h0v-6.08h0a.82.82,0,0,0-.53-.73l-2-1,5.21-.89a1.1,1.1,0,0,0,.95-1.06h0v-6.08h0a1.36,1.36,0,0,0,0-.4l-1-3.26a1.79,1.79,0,0,0-1.7-1.19l-6.72.27a3.16,3.16,0,0,1-1.62-.5l.34-.37a1,1,0,0,0,.29-.66h0v-6h0v-.07h0a.86.86,0,0,0-.6-.76l-5.89-2.35a2.77,2.77,0,0,0-2.3.23l-4,2.63a3.81,3.81,0,0,1-2.38.48,37,37,0,0,0-3.81-.47,2.57,2.57,0,0,1-1.9-1.25l-1.47-2.85a2.07,2.07,0,0,0-1.9-1l-7.36.77a1.28,1.28,0,0,0-1.14,1.43l.34,2.8a1.6,1.6,0,0,1-1.1,1.66A30.89,30.89,0,0,0,281.5,438.67Zm26,15.71c-4.43,3.69-13.19,4.6-19.57,2a10.84,10.84,0,0,1-5-3.65,8.34,8.34,0,0,1,1.49-1.58c4.43-3.69,13.19-4.6,19.57-2.05a11,11,0,0,1,5,3.64A8.1,8.1,0,0,1,307.5,454.38Z" style="fill:#fff;opacity:0.2"/><path d="M319.14,453.37a1.27,1.27,0,0,0,.54,1.73l2.7,1.36,5.21-.89a1.11,1.11,0,0,0,.94-1.06v-6a1.1,1.1,0,0,1-.95,1l-6.4,1.09a2.22,2.22,0,0,0-1.56,1.5A8.22,8.22,0,0,1,319.14,453.37Zm-1.09-17.09a1,1,0,0,1-.29.66l-2.68,2.84a1.14,1.14,0,0,0,.17,1.72,15,15,0,0,1,1.61,1.43,2.25,2.25,0,0,0,.56.43l.34-.36a1,1,0,0,0,.29-.67h0Z" style="opacity:0.1" fill="#000000"/><path d="M304,443.09c5.5,2.2,7.44,6.26,5,9.7a10.85,10.85,0,0,0-5-3.64c-6.38-2.56-15.14-1.65-19.57,2a8.34,8.34,0,0,0-1.49,1.58c-1.7-2.44-1.31-5.32,1.49-7.64C288.82,441.44,297.58,440.53,304,443.09Z" style="opacity:0.1" fill="#000000"/><path d="M294.07,470.11a2,2,0,0,1,.62.69l1.48,2.86a2,2,0,0,0,1.08.91v-6.06a2.12,2.12,0,0,1-1.08-.91l-1.47-2.86a2.11,2.11,0,0,0-.61-.7Zm-20.23-.82a.86.86,0,0,0,.61.78l5.89,2.36a2.66,2.66,0,0,0,1.54.06v-6.06a2.67,2.67,0,0,1-1.54-.05L274.46,464a.85.85,0,0,1-.61-.79h0Zm39.06-2.53,5.65,1.77a2.5,2.5,0,0,0,1.43,0v-6a2.55,2.55,0,0,1-1.42,0l-5.65-1.78Zm-49.54-9.6a1,1,0,0,0,.06.37l1,3.26a1.81,1.81,0,0,0,1.7,1.19l6.72-.27a2.69,2.69,0,0,1,1,.21v-6.05a2.71,2.71,0,0,0-1-.22l-6.73.27a1.81,1.81,0,0,1-1.7-1.19l-1-3.26a2.33,2.33,0,0,1-.06-.35Zm3.59-9.81h0a.87.87,0,0,0,.53.75l2,1,1.19-.2a2.18,2.18,0,0,0,1.56-1.51,9.27,9.27,0,0,1,.48-1.26,2,2,0,0,0,.11-.32,1.07,1.07,0,0,0,0-.25,1.22,1.22,0,0,0-.07-.47,1.13,1.13,0,0,0-.32-.49.84.84,0,0,0-.28-.2L267.49,442a1.34,1.34,0,0,1-.29-.2.64.64,0,0,1-.21-.32,1.46,1.46,0,0,1-.05-.2Z" style="fill:#fa5951"/><path d="M294.07,470.11a2,2,0,0,1,.62.69l1.48,2.86a2,2,0,0,0,1.08.91v-6.06a2.12,2.12,0,0,1-1.08-.91l-1.47-2.86a2.11,2.11,0,0,0-.61-.7Zm-20.23-.82a.86.86,0,0,0,.61.78l5.89,2.36a2.66,2.66,0,0,0,1.54.06v-6.06a2.67,2.67,0,0,1-1.54-.05L274.46,464a.85.85,0,0,1-.61-.79h0Zm39.06-2.53,5.65,1.77a2.5,2.5,0,0,0,1.43,0v-6a2.55,2.55,0,0,1-1.42,0l-5.65-1.78Zm-49.54-9.6a1,1,0,0,0,.06.37l1,3.26a1.81,1.81,0,0,0,1.7,1.19l6.72-.27a2.69,2.69,0,0,1,1,.21v-6.05a2.71,2.71,0,0,0-1-.22l-6.73.27a1.81,1.81,0,0,1-1.7-1.19l-1-3.26a2.33,2.33,0,0,1-.06-.35Zm3.59-9.81h0a.87.87,0,0,0,.53.75l2,1,1.19-.2a2.18,2.18,0,0,0,1.56-1.51,9.27,9.27,0,0,1,.48-1.26,2,2,0,0,0,.11-.32,1.07,1.07,0,0,0,0-.25,1.22,1.22,0,0,0-.07-.47,1.13,1.13,0,0,0-.32-.49.84.84,0,0,0-.28-.2L267.49,442a1.34,1.34,0,0,1-.29-.2.64.64,0,0,1-.21-.32,1.46,1.46,0,0,1-.05-.2Z" style="fill:#fff;opacity:0.7000000000000001"/><path d="M271.08,437.48l-3.76,3.13a.79.79,0,0,0,.17,1.42l4.72,2.37a1.28,1.28,0,0,1,.54,1.74,7.85,7.85,0,0,0-.48,1.27,2.2,2.2,0,0,1-1.56,1.5l-6.4,1.09a1.11,1.11,0,0,0-.9,1.47l1,3.26a1.79,1.79,0,0,0,1.7,1.19l6.72-.27a3.25,3.25,0,0,1,2.18.93,16.2,16.2,0,0,0,1.61,1.43,1.13,1.13,0,0,1,.16,1.72l-2.67,2.84a.84.84,0,0,0,.32,1.45l5.89,2.35a2.77,2.77,0,0,0,2.3-.23l4-2.63A3.81,3.81,0,0,1,289,463a37,37,0,0,0,3.81.47,2.57,2.57,0,0,1,1.9,1.25l1.47,2.85a2.07,2.07,0,0,0,1.9,1l7.36-.77a1.28,1.28,0,0,0,1.14-1.43l-.34-2.8a1.6,1.6,0,0,1,1.1-1.66,30.89,30.89,0,0,0,3.07-1.13,4,4,0,0,1,2.44-.16l5.72,1.79a2.68,2.68,0,0,0,2.26-.44l3.76-3.13a.79.79,0,0,0-.17-1.42l-4.72-2.37a1.28,1.28,0,0,1-.54-1.74,7.85,7.85,0,0,0,.48-1.27,2.2,2.2,0,0,1,1.56-1.5l6.4-1.09a1.12,1.12,0,0,0,.9-1.47l-1-3.26a1.79,1.79,0,0,0-1.7-1.19l-6.72.27a3.25,3.25,0,0,1-2.18-.93,16.2,16.2,0,0,0-1.61-1.43,1.13,1.13,0,0,1-.16-1.72l2.67-2.85a.83.83,0,0,0-.32-1.44l-5.89-2.35a2.77,2.77,0,0,0-2.3.23l-4,2.63a3.81,3.81,0,0,1-2.38.48,37,37,0,0,0-3.81-.47,2.57,2.57,0,0,1-1.9-1.25l-1.47-2.85a2.07,2.07,0,0,0-1.9-1l-7.36.77a1.28,1.28,0,0,0-1.14,1.43l.34,2.8a1.6,1.6,0,0,1-1.1,1.66,30.89,30.89,0,0,0-3.07,1.13,4,4,0,0,1-2.44.16L273.34,437A2.68,2.68,0,0,0,271.08,437.48Zm32.88,5.6c6.38,2.56,8,7.62,3.54,11.3s-13.19,4.6-19.57,2-8-7.61-3.54-11.29S297.58,440.53,304,443.08Z" style="fill:#fa5951"/><g style="opacity:0.55"><path d="M271.08,437.48l-3.76,3.13a.79.79,0,0,0,.17,1.42l4.72,2.37a1.28,1.28,0,0,1,.54,1.74,7.85,7.85,0,0,0-.48,1.27,2.2,2.2,0,0,1-1.56,1.5l-6.4,1.09a1.11,1.11,0,0,0-.9,1.47l1,3.26a1.79,1.79,0,0,0,1.7,1.19l6.72-.27a3.25,3.25,0,0,1,2.18.93,16.2,16.2,0,0,0,1.61,1.43,1.13,1.13,0,0,1,.16,1.72l-2.67,2.84a.84.84,0,0,0,.32,1.45l5.89,2.35a2.77,2.77,0,0,0,2.3-.23l4-2.63A3.81,3.81,0,0,1,289,463a37,37,0,0,0,3.81.47,2.57,2.57,0,0,1,1.9,1.25l1.47,2.85a2.07,2.07,0,0,0,1.9,1l7.36-.77a1.28,1.28,0,0,0,1.14-1.43l-.34-2.8a1.6,1.6,0,0,1,1.1-1.66,30.89,30.89,0,0,0,3.07-1.13,4,4,0,0,1,2.44-.16l5.72,1.79a2.68,2.68,0,0,0,2.26-.44l3.76-3.13a.79.79,0,0,0-.17-1.42l-4.72-2.37a1.28,1.28,0,0,1-.54-1.74,7.85,7.85,0,0,0,.48-1.27,2.2,2.2,0,0,1,1.56-1.5l6.4-1.09a1.12,1.12,0,0,0,.9-1.47l-1-3.26a1.79,1.79,0,0,0-1.7-1.19l-6.72.27a3.25,3.25,0,0,1-2.18-.93,16.2,16.2,0,0,0-1.61-1.43,1.13,1.13,0,0,1-.16-1.72l2.67-2.85a.83.83,0,0,0-.32-1.44l-5.89-2.35a2.77,2.77,0,0,0-2.3.23l-4,2.63a3.81,3.81,0,0,1-2.38.48,37,37,0,0,0-3.81-.47,2.57,2.57,0,0,1-1.9-1.25l-1.47-2.85a2.07,2.07,0,0,0-1.9-1l-7.36.77a1.28,1.28,0,0,0-1.14,1.43l.34,2.8a1.6,1.6,0,0,1-1.1,1.66,30.89,30.89,0,0,0-3.07,1.13,4,4,0,0,1-2.44.16L273.34,437A2.68,2.68,0,0,0,271.08,437.48Zm32.88,5.6c6.38,2.56,8,7.62,3.54,11.3s-13.19,4.6-19.57,2-8-7.61-3.54-11.29S297.58,440.53,304,443.08Z" style="fill:#fff"/><path d="M297.91,469.15a2.6,2.6,0,0,1-2.21-1.32L294.24,465a2.1,2.1,0,0,0-1.49-1c-1.31-.1-2.61-.26-3.86-.48a3.13,3.13,0,0,0-2,.4l-4,2.62a3.32,3.32,0,0,1-2.78.29l-5.89-2.36a1.34,1.34,0,0,1-.5-2.27l2.67-2.84a.62.62,0,0,0,.18-.47.66.66,0,0,0-.29-.49,17.12,17.12,0,0,1-1.66-1.48,2.79,2.79,0,0,0-1.79-.78l-6.72.28a2.32,2.32,0,0,1-2.21-1.56l-1-3.25a1.62,1.62,0,0,1,1.3-2.13l6.4-1.1a1.67,1.67,0,0,0,1.15-1.14,11.5,11.5,0,0,1,.51-1.34.78.78,0,0,0-.3-1.06l-4.72-2.37a1.3,1.3,0,0,1-.26-2.28l3.75-3.12a3.24,3.24,0,0,1,2.74-.55l5.73,1.8a3.51,3.51,0,0,0,2.07-.14,30.1,30.1,0,0,1,3.12-1.15,1.11,1.11,0,0,0,.75-1.11l-.34-2.79a1.79,1.79,0,0,1,1.6-2l7.36-.77a2.59,2.59,0,0,1,2.41,1.3l1.46,2.86a2.1,2.1,0,0,0,1.49,1c1.31.1,2.61.26,3.86.48a3.13,3.13,0,0,0,2-.4l4-2.62a3.32,3.32,0,0,1,2.78-.29l5.89,2.36a1.34,1.34,0,0,1,.5,2.27l-2.67,2.84a.62.62,0,0,0-.18.47.69.69,0,0,0,.29.49,17.12,17.12,0,0,1,1.66,1.48,2.76,2.76,0,0,0,1.79.77l6.72-.27a2.31,2.31,0,0,1,2.21,1.56l1,3.25a1.62,1.62,0,0,1-1.3,2.13l-6.4,1.1a1.67,1.67,0,0,0-1.15,1.14,11.5,11.5,0,0,1-.51,1.34.78.78,0,0,0,.3,1.06l4.72,2.37a1.29,1.29,0,0,1,.26,2.28l-3.75,3.12a3.24,3.24,0,0,1-2.74.55l-5.73-1.8a3.51,3.51,0,0,0-2.07.14,30.1,30.1,0,0,1-3.12,1.15,1.11,1.11,0,0,0-.75,1.11l.34,2.79a1.75,1.75,0,0,1-.38,1.34,1.77,1.77,0,0,1-1.22.67l-7.36.77Zm-9.4-6.67a3.43,3.43,0,0,1,.56,0,37.85,37.85,0,0,0,3.76.47,3.06,3.06,0,0,1,2.32,1.52l1.47,2.86a1.56,1.56,0,0,0,1.39.75l7.35-.77a.75.75,0,0,0,.53-.29.73.73,0,0,0,.16-.57l-.34-2.8a2.13,2.13,0,0,1,1.46-2.21,30.54,30.54,0,0,0,3-1.11,4.47,4.47,0,0,1,2.79-.18l5.73,1.79a2.15,2.15,0,0,0,1.77-.35l3.76-3.12a.44.44,0,0,0,.18-.31c0-.09-.1-.19-.25-.26l-4.72-2.37a1.8,1.8,0,0,1-.78-2.42,7.6,7.6,0,0,0,.46-1.2,2.68,2.68,0,0,1,2-1.86l6.4-1.09a.61.61,0,0,0,.44-.28.65.65,0,0,0,.05-.53l-1-3.25a1.32,1.32,0,0,0-1.19-.84l-6.72.27a3.79,3.79,0,0,1-2.57-1.08,15.11,15.11,0,0,0-1.56-1.39,1.71,1.71,0,0,1-.68-1.22,1.67,1.67,0,0,1,.46-1.26l2.67-2.84a.42.42,0,0,0,.15-.35c0-.1-.12-.19-.28-.26l-5.89-2.36a2.34,2.34,0,0,0-1.83.19l-4,2.63a4.21,4.21,0,0,1-2.75.56,37.85,37.85,0,0,0-3.76-.47,3.06,3.06,0,0,1-2.32-1.52l-1.47-2.86a1.55,1.55,0,0,0-1.39-.75l-7.35.77a.75.75,0,0,0-.53.29.77.77,0,0,0-.16.57l.34,2.8a2.13,2.13,0,0,1-1.46,2.21,30.54,30.54,0,0,0-3,1.11,4.47,4.47,0,0,1-2.79.18l-5.73-1.79a2.15,2.15,0,0,0-1.77.35L267.65,441a.44.44,0,0,0-.18.31c0,.09.1.19.25.26l4.72,2.37a1.79,1.79,0,0,1,.78,2.41,9.38,9.38,0,0,0-.46,1.21,2.7,2.7,0,0,1-2,1.86l-6.39,1.09a.61.61,0,0,0-.45.28.65.65,0,0,0-.05.53l1,3.25a1.29,1.29,0,0,0,1.19.84l6.72-.27a3.87,3.87,0,0,1,2.57,1.08,16.38,16.38,0,0,0,1.56,1.39,1.73,1.73,0,0,1,.68,1.22,1.67,1.67,0,0,1-.46,1.26l-2.67,2.84a.42.42,0,0,0-.15.35c0,.1.12.19.28.26l5.89,2.36a2.34,2.34,0,0,0,1.83-.19l4-2.63A4.24,4.24,0,0,1,288.51,462.48Zm7.4-4.1a22.19,22.19,0,0,1-8.17-1.48c-3.6-1.44-5.9-3.75-6.31-6.33-.32-2.08.61-4.15,2.63-5.84,4.55-3.79,13.56-4.74,20.09-2.12h0c3.6,1.44,5.9,3.75,6.31,6.33.33,2.08-.61,4.15-2.63,5.84C305,457.12,300.49,458.38,295.91,458.38Zm0-16.23c-4.33,0-8.59,1.18-11.23,3.37-1.76,1.47-2.54,3.16-2.27,4.89.35,2.21,2.42,4.23,5.67,5.54,6.22,2.49,14.76,1.61,19.05-2,1.76-1.47,2.54-3.16,2.27-4.89-.35-2.22-2.42-4.23-5.67-5.54h0A21.44,21.44,0,0,0,296,442.15Z" style="fill:#fff"/></g></g></g><g id="freepik--Arrows--inject-144"><g id="freepik--Arrow--inject-144"><polygon points="326.37 36.6 319.41 33.85 267.02 62.26 281.01 71.85 202.58 186.35 165.18 160.51 158.23 157.75 54.13 309.6 70.92 321.12 77.88 323.87 168.72 191.36 203.44 214.65 213.87 218.78 303.74 87.61 311.79 92.95 318.75 95.7 326.37 36.6" style="fill:#fa5951"/><polygon points="326.37 36.6 319.41 33.85 267.02 62.26 281.01 71.85 202.58 186.35 165.18 160.51 158.23 157.75 54.13 309.6 70.92 321.12 77.88 323.87 168.72 191.36 203.44 214.65 213.87 218.78 303.74 87.61 311.79 92.95 318.75 95.7 326.37 36.6" style="fill:#fff;opacity:0.25"/><polygon points="326.37 36.6 318.75 95.7 304.76 86.11 213.87 218.78 170.47 188.81 77.88 323.87 61.08 312.36 165.18 160.51 208.58 190.47 287.97 74.6 273.98 65.01 326.37 36.6" style="fill:#fa5951"/><polygon points="170.47 188.81 168.72 191.36 203.44 214.65 213.87 218.78 170.47 188.81" style="fill:#fa5951"/><polygon points="170.47 188.81 168.72 191.36 203.44 214.65 213.87 218.78 170.47 188.81" style="opacity:0.2" fill="#000000"/><polygon points="281.01 71.85 287.97 74.6 273.98 65.01 267.02 62.26 281.01 71.85" style="fill:#fa5951"/><polygon points="281.01 71.85 287.97 74.6 273.98 65.01 267.02 62.26 281.01 71.85" style="opacity:0.2" fill="#000000"/><polygon points="303.74 87.61 304.76 86.11 318.75 95.7 311.79 92.95 303.74 87.61" style="fill:#fa5951"/><polygon points="303.74 87.61 304.76 86.11 318.75 95.7 311.79 92.95 303.74 87.61" style="opacity:0.2" fill="#000000"/><polygon points="54.13 309.6 61.08 312.36 77.88 323.87 70.92 321.12 54.13 309.6" style="fill:#fa5951"/><polygon points="54.13 309.6 61.08 312.36 77.88 323.87 70.92 321.12 54.13 309.6" style="opacity:0.2" fill="#000000"/><polygon points="67.21 303.36 165.6 163.22 208.58 190.47 165.18 160.51 67.21 303.36" style="fill:#fff;opacity:0.5"/><polygon points="216.36 179.08 289.83 74.32 276.38 65.22 326.37 36.6 273.98 65.01 287.97 74.6 216.36 179.08" style="fill:#fff;opacity:0.5"/></g><g id="freepik--arrow--inject-144"><polyline points="162.19 346.12 171.5 352.39 178.51 355.17 274.41 215.26 279.83 218.85 284.51 220.7 289.63 180.97 284.95 179.12 249.73 198.22 259.14 204.67 162.19 346.12" style="fill:#f0f0f0"/><polygon points="254.41 200.07 263.81 206.52 167.25 347.39 178.51 355.17 275.1 214.26 284.51 220.7 289.63 180.97 254.41 200.07" style="fill:#e6e6e6"/><polygon points="167.25 347.39 162.19 346.12 171.5 352.39 178.51 355.17 167.25 347.39" style="fill:#e0e0e0"/><polygon points="259.14 204.67 263.81 206.52 254.41 200.07 249.73 198.22 259.14 204.67" style="fill:#e0e0e0"/><polygon points="274.41 215.26 275.1 214.26 284.51 220.7 279.83 218.85 274.41 215.26" style="fill:#e0e0e0"/></g></g><g id="freepik--Device--inject-144"><g id="freepik--Mobile--inject-144"><path d="M209,338.79V31.86c0-7.89-3.92-10.07-7.4-12.08s-9.22-3.23-14.17-.37L60.65,92.58c-4.95,2.86-9,9.81-9,15.53V415c0,5.72,3.59,9.09,7.07,11.1s9.56,4.22,14.51,1.36L200,354.31A16.84,16.84,0,0,0,209,338.79Z" style="fill:#37474f"/><path d="M200.91,341.7,70.58,416.94l0-308.25-16.3-9.42a18.26,18.26,0,0,0-2.63,8.84V415c0,5.72,3.59,9.09,7.07,11.1s9.56,4.22,14.51,1.36L200,354.31a17.07,17.07,0,0,0,7.76-8.65l-.5-.3Z" style="fill:#263238"/><path d="M199.77,29.21,72.67,102.6a13.92,13.92,0,0,0-6.3,10.89V417.92c0,6.14,4.36,8.65,9.68,5.57l123.72-71.42a15.83,15.83,0,0,0,7.13-12.35V33.33C206.9,28.8,203.69,27,199.77,29.21Z" style="fill:#455a64"/><path d="M200.7,47.88V332.45a15,15,0,0,1-6.77,11.74L79.35,410.35c-3.74,2.17-6.77.42-6.77-3.9V119.78a15.11,15.11,0,0,1,4.75-10.21L78,109a11.21,11.21,0,0,1,1.38-.94l32.23-18.61,2.1-1.21c1.16-.67,2.1-.13,2.1,1.21s1,1.86,2.24,1.13l37.56-21.68a4.82,4.82,0,0,0,2.25-3.72,4.79,4.79,0,0,1,1.88-3.52l.22-.13,31.53-18.2.67-.39C196.85,40.21,200.7,42.43,200.7,47.88Z" fill="#000000"/><path d="M184.1,336.59a15,15,0,0,0,6.77-11.74V43.66L159.93,61.52l-.22.13a4.79,4.79,0,0,0-1.88,3.52,4.83,4.83,0,0,1-2.24,3.72L118,90.57c-1.24.73-2.24.21-2.24-1.13s-.94-1.88-2.1-1.21l-2.1,1.21L79.35,108.05A11.21,11.21,0,0,0,78,109l-.64.58a15.11,15.11,0,0,0-4.75,10.21V401Z" style="fill:#263238"/><path d="M123.73,79.12,141,69.18c1-.6,1.86-.18,1.86.94A4,4,0,0,1,141,73.21l-17.22,9.94c-1,.59-1.86.17-1.86-.94A4,4,0,0,1,123.73,79.12Z" style="fill:#263238"/><path d="M149.78,63.26c1.16-.67,2.1-.13,2.1,1.21a4.64,4.64,0,0,1-2.1,3.63c-1.16.67-2.09.12-2.09-1.21A4.59,4.59,0,0,1,149.78,63.26Z" style="fill:#263238"/><path d="M63.45,144.93a7.56,7.56,0,0,0-3.31-6,2.19,2.19,0,0,0-2.27-.19c-.42.25-2,1.16-2.49,1.42a2.6,2.6,0,0,0-1,2.35v25a7.56,7.56,0,0,0,3.31,6,2.25,2.25,0,0,0,2.19.24c.46-.24,2.13-1.21,2.56-1.47a2.57,2.57,0,0,0,1-2.35Z" style="fill:#455a64"/><path d="M61,146.35v25c0,2.25-1.49,3.22-3.32,2.16a7.56,7.56,0,0,1-3.31-6v-25c0-2.25,1.48-3.22,3.31-2.16A7.57,7.57,0,0,1,61,146.35Z" style="fill:#37474f"/><path d="M63.45,188.7a7.56,7.56,0,0,0-3.31-6,2.21,2.21,0,0,0-2.27-.19c-.42.25-2,1.16-2.49,1.42a2.6,2.6,0,0,0-1,2.35v25a7.55,7.55,0,0,0,3.31,6,2.25,2.25,0,0,0,2.19.24c.46-.24,2.13-1.21,2.56-1.47a2.56,2.56,0,0,0,1-2.35Z" style="fill:#455a64"/><path d="M61,190.12v25c0,2.25-1.49,3.22-3.32,2.16a7.55,7.55,0,0,1-3.31-6v-25c0-2.25,1.48-3.22,3.31-2.16A7.59,7.59,0,0,1,61,190.12Z" style="fill:#37474f"/></g></g><g id="freepik--Screen--inject-144"><g id="freepik--Window--inject-144"><path d="M222.84,57.45c-1.58-.9-3.74-.78-6.13.6l-.69.4L184,76.92l-.22.14a4.84,4.84,0,0,0-1.91,3.57,4.88,4.88,0,0,1-2.28,3.77l-38.13,22-.09,0a1.45,1.45,0,0,0-.62-1.29l-2.2-1.27a1.47,1.47,0,0,0-1.5.15l-2.14,1.23-32.71,18.89a10.55,10.55,0,0,0-1.4,1l-.65.58a15.36,15.36,0,0,0-4.83,10.36v291c0,2.19.77,3.72,2,4.44l2.22,1.28c1.24.71,3,.61,4.85-.49l116.32-67.16a15.21,15.21,0,0,0,6.87-11.91V64.34c0-2.75-1-4.69-2.54-5.6Z" style="fill:#fa5951"/><path d="M105.07,431.35v.57l-.66.38c-1.88,1.1-3.6,1.2-4.84.49l-2.22-1.28c-1.24-.72-2-2.26-2-4.44v-291a14.27,14.27,0,0,1,2.37-7.34l2.62,1.51a13.91,13.91,0,0,0-2.3,7.11v291a5.27,5.27,0,0,0,.94,3.31,2.91,2.91,0,0,0,2.36,1.11,5.77,5.77,0,0,0,2.83-.89Z" style="opacity:0.30000000000000004" fill="#000000"/><path d="M185.38,79.68a4,4,0,0,0-.8,2.22,4.91,4.91,0,0,1-.85,2.56l-2.64-1.53a4.38,4.38,0,0,0,.8-2.3,4.64,4.64,0,0,1,.86-2.48Z" style="opacity:0.30000000000000004" fill="#000000"/><path d="M101.34,432.76a2.92,2.92,0,0,1-2.36-1.1,5.31,5.31,0,0,1-.94-3.32v-291a15,15,0,0,1,4.66-10l.21-.19c.14-.13.28-.26.43-.38a12,12,0,0,1,1.32-.91L137.38,107l2.13-1.22a1.4,1.4,0,0,1,.72-.23c.62,0,.68.72.68,1a1.75,1.75,0,0,0,1.7,2,2.71,2.71,0,0,0,1.32-.4l38.13-22a5.37,5.37,0,0,0,2.52-4.2,4.32,4.32,0,0,1,1.71-3.17.87.87,0,0,1,.18-.11l32-18.47.69-.41a7.5,7.5,0,0,1,3.62-1.11c2.68,0,4.34,2.19,4.34,5.71V353.23a14.65,14.65,0,0,1-6.63,11.49L104.17,431.88A5.85,5.85,0,0,1,101.34,432.76Z" style="fill:#fafafa"/><path d="M222.78,59.12h0c2.41,0,3.85,2,3.85,5.22V353.23a14.32,14.32,0,0,1-6.38,11.06L103.93,431.45a5.26,5.26,0,0,1-2.59.82c-1.76,0-2.81-1.47-2.81-3.93v-291a14.39,14.39,0,0,1,4.5-9.63l.22-.2c.13-.13.27-.25.38-.35a10.73,10.73,0,0,1,1.28-.87l32.72-18.9,2.13-1.22a1,1,0,0,1,.47-.17c.19,0,.19.49.19.55a2.23,2.23,0,0,0,2.19,2.46,3.09,3.09,0,0,0,1.56-.47l38.13-22a5.9,5.9,0,0,0,2.77-4.62,3.84,3.84,0,0,1,1.5-2.77l.14-.09,32-18.47.68-.4a6.94,6.94,0,0,1,3.38-1.05m0-1a7.86,7.86,0,0,0-3.87,1.18l-.68.4-32,18.47-.22.14a4.84,4.84,0,0,0-1.91,3.57,4.88,4.88,0,0,1-2.28,3.77l-38.13,22a2.14,2.14,0,0,1-1.07.34c-.72,0-1.21-.54-1.21-1.48s-.48-1.52-1.17-1.52a1.92,1.92,0,0,0-1,.29c-1.18.67-2.13,1.23-2.13,1.23l-32.72,18.89a11.24,11.24,0,0,0-1.4,1l-.65.58a15.35,15.35,0,0,0-4.82,10.36v291c0,3.11,1.54,4.91,3.79,4.91a6.26,6.26,0,0,0,3.08-.95l116.32-67.16a15.21,15.21,0,0,0,6.87-11.91V64.34c0-3.92-2-6.2-4.83-6.2Z" style="fill:#fa5951"/><path d="M222.78,58.63a7.5,7.5,0,0,0-3.62,1.11l-.69.41-32,18.47a.87.87,0,0,0-.18.11,4.32,4.32,0,0,0-1.71,3.17,5.36,5.36,0,0,1-2.53,4.2l-38.12,22a2.71,2.71,0,0,1-1.32.4,1.75,1.75,0,0,1-1.7-2c0-.31-.06-1-.68-1a1.4,1.4,0,0,0-.72.23L137.38,107l-32.72,18.89a12,12,0,0,0-1.32.91c-.15.12-.29.25-.43.38l-.21.19a15,15,0,0,0-4.66,10v34.19L227.12,97V64.34C227.12,60.82,225.46,58.63,222.78,58.63Z" style="fill:#455a64"/><path d="M107.42,140.52a.68.68,0,0,1-.61-.35.7.7,0,0,1,.26-1l11.4-6.58a.7.7,0,1,1,.7,1.21l-11.4,6.59A.73.73,0,0,1,107.42,140.52Z" style="fill:#fafafa"/><path d="M107.42,145.49a.71.71,0,0,1-.61-.35.69.69,0,0,1,.26-1l11.4-6.59a.7.7,0,0,1,.7,1.22l-11.4,6.58A.64.64,0,0,1,107.42,145.49Z" style="fill:#fafafa"/><path d="M107.42,150.45a.68.68,0,0,1-.61-.35.7.7,0,0,1,.26-1l11.4-6.58a.7.7,0,1,1,.7,1.21l-11.4,6.59A.73.73,0,0,1,107.42,150.45Z" style="fill:#fafafa"/><path d="M131.64,127c.07,0,.13,0,.17,0a.28.28,0,0,1,.08.22v9a.67.67,0,0,1-.08.3.34.34,0,0,1-.17.21l-.73.42a.12.12,0,0,1-.17,0,.28.28,0,0,1-.07-.22v-3.66L128,134.79v3.66a.66.66,0,0,1-.07.3.38.38,0,0,1-.17.21l-.73.43a.15.15,0,0,1-.17,0,.29.29,0,0,1-.07-.23v-9a.66.66,0,0,1,.07-.3.38.38,0,0,1,.17-.21l.73-.42a.12.12,0,0,1,.17,0,.28.28,0,0,1,.07.22v3.56l2.72-1.57v-3.56a.73.73,0,0,1,.07-.31.44.44,0,0,1,.17-.2Z" style="fill:#fafafa"/><path d="M133.07,129.78a9.37,9.37,0,0,1,.2-1.57,6.51,6.51,0,0,1,.49-1.47,5.33,5.33,0,0,1,.81-1.28,4.46,4.46,0,0,1,1.15-1,2.39,2.39,0,0,1,1.14-.37,1.12,1.12,0,0,1,.81.34,2.16,2.16,0,0,1,.5.9,5.83,5.83,0,0,1,.2,1.36c0,.17,0,.36,0,.57v1.32c0,.21,0,.41,0,.59a9.24,9.24,0,0,1-.2,1.57,6.59,6.59,0,0,1-.49,1.48,5.53,5.53,0,0,1-.81,1.26,4.24,4.24,0,0,1-1.15,1,2.32,2.32,0,0,1-1.15.37,1.07,1.07,0,0,1-.81-.33,1.94,1.94,0,0,1-.49-.9,6,6,0,0,1-.2-1.36c0-.17,0-.36,0-.57v-1.32C133.06,130.16,133.07,130,133.07,129.78Zm4.08-2.28a1.72,1.72,0,0,0-.42-1.3c-.25-.22-.59-.21-1,0a2.58,2.58,0,0,0-1,1.14,4.13,4.13,0,0,0-.42,1.78c0,.36,0,.75,0,1.18s0,.82,0,1.16a1.71,1.71,0,0,0,.42,1.3c.25.21.59.2,1,0a2.6,2.6,0,0,0,1-1.13,4.13,4.13,0,0,0,.42-1.78c0-.36,0-.75,0-1.18S137.16,127.84,137.15,127.5Z" style="fill:#fafafa"/><path d="M142.51,125.67l1.71-5.56a3.1,3.1,0,0,1,.12-.29.57.57,0,0,1,.26-.31l.62-.35a.12.12,0,0,1,.17,0,.34.34,0,0,1,.07.22v9a.87.87,0,0,1-.07.31.54.54,0,0,1-.17.21l-.73.42a.15.15,0,0,1-.18,0,.34.34,0,0,1-.07-.22v-5.42l-1.17,3.79a3.11,3.11,0,0,1-.12.3.63.63,0,0,1-.21.24l-.47.27a.15.15,0,0,1-.2,0,.58.58,0,0,1-.13-.15l-1.17-2.45v5.42a.82.82,0,0,1-.07.3.51.51,0,0,1-.17.22l-.73.42c-.07,0-.13,0-.17,0a.28.28,0,0,1-.08-.22v-9a.67.67,0,0,1,.08-.3.34.34,0,0,1,.17-.21l.61-.36c.12-.07.21-.07.26,0l.13.15Z" style="fill:#fafafa"/><path d="M151.06,123.75a.12.12,0,0,1,.17,0,.28.28,0,0,1,.07.22v1a.73.73,0,0,1-.07.31.54.54,0,0,1-.17.21l-4,2.28a.14.14,0,0,1-.17,0,.32.32,0,0,1-.07-.22v-9a.82.82,0,0,1,.07-.3.54.54,0,0,1,.17-.21l3.88-2.24c.07,0,.13,0,.17,0a.29.29,0,0,1,.08.22v1a.67.67,0,0,1-.08.3.41.41,0,0,1-.17.21l-2.9,1.68v2.2l2.71-1.56a.12.12,0,0,1,.17,0,.34.34,0,0,1,.07.22v1a.82.82,0,0,1-.07.31.54.54,0,0,1-.17.21l-2.71,1.56v2.3Z" style="fill:#fafafa"/><path d="M213.64,80.49a1.49,1.49,0,0,1,.77,0,1.2,1.2,0,0,1,.56.29,1.46,1.46,0,0,1,.34.53,2.37,2.37,0,0,1,.14.64.7.7,0,0,1-.07.31.45.45,0,0,1-.18.2l-.63.37c-.1,0-.18.07-.23,0a.57.57,0,0,1-.14-.16.66.66,0,0,0-.4-.37,1.09,1.09,0,0,0-.82.21,2,2,0,0,0-.44.34,1.88,1.88,0,0,0-.37.43,2,2,0,0,0-.25.5,1.58,1.58,0,0,0-.09.52.78.78,0,0,0,.1.46.41.41,0,0,0,.32.17,2.09,2.09,0,0,0,.56-.06l.85-.2a2.86,2.86,0,0,1,.91-.1,1,1,0,0,1,.61.23,1.11,1.11,0,0,1,.34.58,3.7,3.7,0,0,1,.11.95,4.53,4.53,0,0,1-.14,1.09,5.37,5.37,0,0,1-.39,1.08,6,6,0,0,1-.62,1,5.07,5.07,0,0,1-.84.83v.94a.87.87,0,0,1-.07.31.48.48,0,0,1-.18.21l-.72.42a.14.14,0,0,1-.18,0,.32.32,0,0,1-.07-.22V91a1.9,1.9,0,0,1-.76.11,1.2,1.2,0,0,1-.62-.2,1.24,1.24,0,0,1-.43-.52,2.56,2.56,0,0,1-.18-.86.67.67,0,0,1,.07-.31.4.4,0,0,1,.18-.2l.63-.37a.28.28,0,0,1,.23-.05c.06,0,.1.08.14.17a1.17,1.17,0,0,0,.15.27.43.43,0,0,0,.24.18.68.68,0,0,0,.38,0A2,2,0,0,0,213,89a3.46,3.46,0,0,0,.52-.36,2.79,2.79,0,0,0,.44-.47,2.17,2.17,0,0,0,.3-.53,1.53,1.53,0,0,0,.12-.6.6.6,0,0,0-.12-.43.52.52,0,0,0-.39-.11,2.88,2.88,0,0,0-.63.1c-.25.06-.54.13-.87.19a2.83,2.83,0,0,1-.79.06,1,1,0,0,1-.56-.24,1.24,1.24,0,0,1-.33-.6,3.93,3.93,0,0,1-.11-1,4.3,4.3,0,0,1,.14-1.07,5.36,5.36,0,0,1,.37-1,5.23,5.23,0,0,1,.57-.94,6.06,6.06,0,0,1,.73-.78v-.94a.82.82,0,0,1,.07-.3.39.39,0,0,1,.18-.21l.72-.42a.14.14,0,0,1,.18,0,.32.32,0,0,1,.07.22Z" style="fill:#fafafa"/><g id="freepik--Chart--inject-144"><path d="M112.07,172.35l101-58.32c2.39-1.38,4.33-.26,4.33,2.5V217.65a9.58,9.58,0,0,1-4.33,7.5l-101,58.32c-2.39,1.38-4.33.26-4.33-2.5V179.85A9.58,9.58,0,0,1,112.07,172.35Z" style="fill:#e0e0e0"/><path d="M113,285.52l1.66,1a3.28,3.28,0,0,0,3,0l101-58.33a3.26,3.26,0,0,0,1.48-2.56V121a3.26,3.26,0,0,0-1.48-2.56l-1.66-1a3.22,3.22,0,0,0-3,0L113,175.8a3.26,3.26,0,0,0-1.48,2.56V283A3.26,3.26,0,0,0,113,285.52Z" style="fill:#fa5951"/><path d="M113,285.52l1.66,1a3.28,3.28,0,0,0,3,0l101-58.33a3.26,3.26,0,0,0,1.48-2.56V121a3.26,3.26,0,0,0-1.48-2.56l-1.66-1a3.22,3.22,0,0,0-3,0L113,175.8a3.26,3.26,0,0,0-1.48,2.56V283A3.26,3.26,0,0,0,113,285.52Z" style="fill:#fff;opacity:0.55"/><path d="M117.58,286.48l101-58.33a3.26,3.26,0,0,0,1.48-2.56V121c0-.94-.66-1.33-1.48-.86l-101,58.34A3.25,3.25,0,0,0,116.1,181v104.6C116.1,286.57,116.76,287,117.58,286.48Z" style="fill:#fff"/><path d="M219.27,120.5c.22,0,.25.31.25.49v104.6a2.73,2.73,0,0,1-1.19,2.07L117.3,286a.86.86,0,0,1-.38.12c-.22,0-.25-.3-.25-.48V181a2.74,2.74,0,0,1,1.19-2.07l101-58.33a.82.82,0,0,1,.37-.13m0-.57a1.45,1.45,0,0,0-.66.2l-101,58.34A3.25,3.25,0,0,0,116.1,181v104.6c0,.67.33,1.05.82,1.05a1.31,1.31,0,0,0,.66-.2l101-58.33a3.26,3.26,0,0,0,1.48-2.56V121c0-.67-.33-1.06-.82-1.06Z" style="fill:#fa5951"/><path d="M117.36,286.59a3.29,3.29,0,0,1-2.73-.11l-1.67-1a3.26,3.26,0,0,1-1.48-2.56V178.36a3,3,0,0,1,.43-1.46l4.62,2.67a3,3,0,0,0-.43,1.45V285.63C116.1,286.49,116.65,286.88,117.36,286.59Z" style="fill:#fa5951"/><path d="M117.36,286.59a3.29,3.29,0,0,1-2.73-.11l-1.67-1a3.26,3.26,0,0,1-1.48-2.56V178.36a3,3,0,0,1,.43-1.46l4.62,2.67a3,3,0,0,0-.43,1.45V285.63C116.1,286.49,116.65,286.88,117.36,286.59Z" style="fill:#fff;opacity:0.1"/><path d="M163.77,251.14c.6-.34,1.08-.06,1.08.63a2.37,2.37,0,0,1-1.08,1.87c-.6.35-1.08.07-1.08-.62A2.4,2.4,0,0,1,163.77,251.14Z" style="fill:#455a64"/><path d="M168.1,248.65c.59-.35,1.08-.07,1.08.62a2.39,2.39,0,0,1-1.08,1.87c-.6.35-1.08.07-1.08-.62A2.37,2.37,0,0,1,168.1,248.65Z" style="fill:#455a64"/><path d="M172.42,246.15c.6-.34,1.08-.06,1.08.63a2.38,2.38,0,0,1-1.08,1.87c-.6.34-1.08.06-1.08-.63A2.38,2.38,0,0,1,172.42,246.15Z" style="fill:#455a64"/><path d="M125.92,184c.06,0,.1,0,.13,0a.38.38,0,0,1,.08.17l1.36,4.61v.06a.39.39,0,0,1,0,.18.25.25,0,0,1-.11.13l-.4.23c-.07,0-.12,0-.15,0a.24.24,0,0,1-.06-.11l-.24-.81-1.75,1-.24,1.08a.94.94,0,0,1-.06.18.35.35,0,0,1-.16.16l-.39.23a.09.09,0,0,1-.11,0,.18.18,0,0,1,0-.14v-.06l1.36-6.17a1.25,1.25,0,0,1,.08-.27.29.29,0,0,1,.13-.14Zm.3,3.57-.61-2.08-.61,2.79Z" style="fill:#e0e0e0"/><path d="M128.67,188.15a.49.49,0,0,1,0,.19.25.25,0,0,1-.1.12l-.42.25a.09.09,0,0,1-.11,0,.18.18,0,0,1,0-.14V183a.43.43,0,0,1,0-.19.29.29,0,0,1,.11-.13l.42-.24a.07.07,0,0,1,.1,0,.16.16,0,0,1,0,.13Z" style="fill:#e0e0e0"/><path d="M130.15,187.29a.43.43,0,0,1,0,.19.36.36,0,0,1-.11.13l-.42.24s-.08,0-.1,0a.16.16,0,0,1,0-.13v-5.6a.49.49,0,0,1,0-.19.27.27,0,0,1,.1-.13l.42-.24a.09.09,0,0,1,.11,0,.18.18,0,0,1,0,.14Z" style="fill:#e0e0e0"/><path d="M133.91,179.38c.06,0,.1,0,.13,0a.38.38,0,0,1,.08.17l1.36,4.61v.05a.41.41,0,0,1,0,.19.29.29,0,0,1-.11.13l-.4.23c-.07,0-.12.05-.15,0a.24.24,0,0,1-.06-.11l-.24-.81-1.75,1-.24,1.09a.7.7,0,0,1-.06.17.37.37,0,0,1-.16.17l-.4.23a.08.08,0,0,1-.1,0,.2.2,0,0,1,0-.14v-.06l1.36-6.18c0-.1,0-.19.07-.26a.4.4,0,0,1,.14-.15Zm.3,3.57-.61-2.08-.61,2.78Z" style="fill:#e0e0e0"/><path d="M136.48,181.35c0,.09,0,.19,0,.3s0,.22,0,.3a1.28,1.28,0,0,0,.08.4.43.43,0,0,0,.15.22.31.31,0,0,0,.21.05.47.47,0,0,0,.22-.07,1.66,1.66,0,0,0,.24-.17,1.46,1.46,0,0,0,.16-.19,2.12,2.12,0,0,0,.11-.21l.09-.24c0-.06,0-.13.08-.2a.32.32,0,0,1,.1-.14l.43-.24a.08.08,0,0,1,.1,0s.05.07,0,.14a2.15,2.15,0,0,1-.08.48,3.1,3.1,0,0,1-.24.63,3.52,3.52,0,0,1-.42.64,2.33,2.33,0,0,1-.61.51,1,1,0,0,1-.55.16.67.67,0,0,1-.42-.18,1.16,1.16,0,0,1-.28-.46,2.65,2.65,0,0,1-.13-.68c0-.1,0-.21,0-.33s0-.25,0-.36a4,4,0,0,1,.13-.82,3.53,3.53,0,0,1,.28-.79,3.46,3.46,0,0,1,.42-.67,2.23,2.23,0,0,1,.55-.48,1.21,1.21,0,0,1,.61-.19.72.72,0,0,1,.42.16.79.79,0,0,1,.24.35,1.18,1.18,0,0,1,.08.39.24.24,0,0,1,0,.18.24.24,0,0,1-.1.13l-.43.25a.07.07,0,0,1-.1,0,.44.44,0,0,1-.08-.11l-.09-.13-.11-.08a.29.29,0,0,0-.16,0,.65.65,0,0,0-.24.1.87.87,0,0,0-.22.18,1.67,1.67,0,0,0-.21.29,1.76,1.76,0,0,0-.15.39A2.49,2.49,0,0,0,136.48,181.35Z" style="fill:#e0e0e0"/><path d="M140.37,177.1a1.16,1.16,0,0,1,.55-.17.64.64,0,0,1,.42.15,1.13,1.13,0,0,1,.29.43,2.15,2.15,0,0,1,.13.67V179a4.31,4.31,0,0,1-.13.8,3.8,3.8,0,0,1-.71,1.41,2.36,2.36,0,0,1-.55.46,1.11,1.11,0,0,1-.55.17.64.64,0,0,1-.43-.15,1,1,0,0,1-.29-.43,2,2,0,0,1-.12-.66,1,1,0,0,1,0-.18V180a1.21,1.21,0,0,1,0-.2,3.69,3.69,0,0,1,.12-.8,3.94,3.94,0,0,1,.29-.77,2.87,2.87,0,0,1,.43-.64A1.89,1.89,0,0,1,140.37,177.1Zm.67,1.53a1.15,1.15,0,0,0-.08-.39.41.41,0,0,0-.16-.18.3.3,0,0,0-.21,0,.72.72,0,0,0-.22.1.91.91,0,0,0-.23.17,1.38,1.38,0,0,0-.21.25,2,2,0,0,0-.23.86.86.86,0,0,0,0,.17V180a.76.76,0,0,0,0,.17,1,1,0,0,0,.08.39.42.42,0,0,0,.15.19.31.31,0,0,0,.21,0,.89.89,0,0,0,.23-.1,1.53,1.53,0,0,0,.22-.16,1.09,1.09,0,0,0,.21-.26,2.57,2.57,0,0,0,.16-.37,2.18,2.18,0,0,0,.08-.49v-.77Z" style="fill:#e0e0e0"/><path d="M142.37,176.26a.39.39,0,0,1,0-.18.25.25,0,0,1,.11-.13l.42-.25a.08.08,0,0,1,.1,0,.18.18,0,0,1,.05.14V178a1.4,1.4,0,0,0,.14.74c.09.15.25.16.46,0a1,1,0,0,0,.45-.56,2.59,2.59,0,0,0,.15-.91v-2.17a.49.49,0,0,1,.05-.19.34.34,0,0,1,.1-.13l.42-.24s.08,0,.11,0a.17.17,0,0,1,0,.13v4a.46.46,0,0,1,0,.19.28.28,0,0,1-.11.13l-.42.24a.08.08,0,0,1-.1,0,.18.18,0,0,1-.05-.14v-.19a3,3,0,0,1-.31.54,1.5,1.5,0,0,1-.46.41.92.92,0,0,1-.55.17.54.54,0,0,1-.36-.23,1.37,1.37,0,0,1-.19-.53,5.46,5.46,0,0,1,0-.73Z" style="fill:#e0e0e0"/><path d="M148.48,176.71a.39.39,0,0,1,0,.18.25.25,0,0,1-.11.13l-.42.25a.08.08,0,0,1-.1,0,.18.18,0,0,1-.05-.14V175a1.3,1.3,0,0,0-.15-.73c-.11-.15-.26-.16-.48,0a1.12,1.12,0,0,0-.46.57,2.4,2.4,0,0,0-.17.92v2.16a.45.45,0,0,1-.05.19.23.23,0,0,1-.1.13l-.42.24a.08.08,0,0,1-.11,0s0-.07,0-.13v-4a.39.39,0,0,1,0-.18.25.25,0,0,1,.11-.13l.42-.25s.08,0,.1,0a.18.18,0,0,1,.05.14v.19a3.48,3.48,0,0,1,.34-.56,1.5,1.5,0,0,1,.46-.41.91.91,0,0,1,.56-.16.52.52,0,0,1,.37.22,1.18,1.18,0,0,1,.19.52,4.15,4.15,0,0,1,.06.73Z" style="fill:#e0e0e0"/><path d="M150.16,174.36a.57.57,0,0,0,.09.37c.06.07.18.06.34,0l.34-.2a.09.09,0,0,1,.11,0,.17.17,0,0,1,0,.13v.57a.39.39,0,0,1,0,.18.25.25,0,0,1-.11.13l-.41.24c-.35.2-.61.23-.8.07s-.28-.49-.28-1V173l-.37.21a.08.08,0,0,1-.1,0,.2.2,0,0,1,0-.14v-.56a.41.41,0,0,1,0-.19.28.28,0,0,1,.1-.13l.37-.21v-1.39a.45.45,0,0,1,.05-.19.27.27,0,0,1,.1-.13L150,170a.09.09,0,0,1,.11,0s0,.07,0,.13v1.39l.72-.41a.08.08,0,0,1,.1,0,.17.17,0,0,1,.05.13v.57a.49.49,0,0,1-.05.19.25.25,0,0,1-.1.12l-.72.42Z" style="fill:#e0e0e0"/><path d="M153.19,173c0-.06,0-.11,0-.13s-.07,0-.13,0l-.26.05-.41.1a1,1,0,0,1-.41,0,.41.41,0,0,1-.25-.15.68.68,0,0,1-.14-.31,2.89,2.89,0,0,1,0-.45,2.28,2.28,0,0,1,.08-.55,2.72,2.72,0,0,1,.23-.57,2.44,2.44,0,0,1,.35-.51,1.83,1.83,0,0,1,.48-.4,1.33,1.33,0,0,1,.49-.19.69.69,0,0,1,.36,0,.51.51,0,0,1,.24.22,1,1,0,0,1,.09.35.46.46,0,0,1,0,.19.36.36,0,0,1-.11.13l-.43.24a.15.15,0,0,1-.12,0L153,171a.29.29,0,0,0-.14,0,1.12,1.12,0,0,0-.25.1,1.37,1.37,0,0,0-.29.25.53.53,0,0,0-.13.34.24.24,0,0,0,0,.14s.06.05.12.05l.24,0,.39-.09a.67.67,0,0,1,.7.1,1.07,1.07,0,0,1,.2.74,2.28,2.28,0,0,1-.08.55,3.46,3.46,0,0,1-.24.57,2.9,2.9,0,0,1-.39.53,2.09,2.09,0,0,1-.52.42,1.44,1.44,0,0,1-.52.19.59.59,0,0,1-.38-.06.49.49,0,0,1-.23-.24.78.78,0,0,1-.09-.37.34.34,0,0,1,0-.19.36.36,0,0,1,.11-.13l.42-.24c.06,0,.1,0,.13,0l.09.09a.33.33,0,0,0,.15.05.56.56,0,0,0,.28-.11l.17-.11.17-.15a.71.71,0,0,0,.12-.18A.31.31,0,0,0,153.19,173Z" style="fill:#e0e0e0"/><path d="M128.15,193a.09.09,0,0,1,.13,0,.19.19,0,0,1,.05.16v.74a.52.52,0,0,1-.05.24c0,.09-.06.16-.09.23l-1,2.17a1.27,1.27,0,0,1,.55-.09.71.71,0,0,1,.42.19,1,1,0,0,1,.27.47,2.41,2.41,0,0,1,.1.76,4,4,0,0,1-.14,1,3.82,3.82,0,0,1-.39.93,4.12,4.12,0,0,1-.58.79,3.23,3.23,0,0,1-.72.57,2.12,2.12,0,0,1-.82.3,1,1,0,0,1-.58-.1A.85.85,0,0,1,125,201a1.65,1.65,0,0,1-.14-.6.48.48,0,0,1,0-.23A.39.39,0,0,1,125,200l.54-.31a.08.08,0,0,1,.11,0,.56.56,0,0,1,.09.14.34.34,0,0,0,.11.17.32.32,0,0,0,.17.1.76.76,0,0,0,.29,0,1.75,1.75,0,0,0,.41-.19,1.92,1.92,0,0,0,.66-.64,1.55,1.55,0,0,0,.25-.87c0-.31-.08-.48-.25-.52a.94.94,0,0,0-.66.18l-.56.32a.1.1,0,0,1-.13,0,.22.22,0,0,1-.06-.17v-.74a.69.69,0,0,1,.05-.24l.1-.23,1-2.07L125.19,196a.08.08,0,0,1-.12,0,.2.2,0,0,1-.06-.16v-.74a.49.49,0,0,1,.06-.23.35.35,0,0,1,.12-.16Z" style="fill:#455a64"/><path d="M129.27,198.42a1,1,0,0,1,.09-.32.43.43,0,0,1,.2-.25l.59-.34s.08,0,.1,0a.16.16,0,0,1,.05.13.22.22,0,0,1,0,.08l-.44,2a2.13,2.13,0,0,1-.09.27.5.5,0,0,1-.2.23l-.31.18a.08.08,0,0,1-.1,0,.18.18,0,0,1-.05-.14v0Z" style="fill:#455a64"/><path d="M131.3,191.43a.46.46,0,0,1,.06-.23.36.36,0,0,1,.13-.16l2.54-1.47a.1.1,0,0,1,.12,0,.22.22,0,0,1,.06.17v.74a.53.53,0,0,1-.06.23.32.32,0,0,1-.12.15l-1.9,1.1-.08,1.37a2.25,2.25,0,0,1,.37-.34,2.33,2.33,0,0,1,.29-.19,1.7,1.7,0,0,1,.7-.25.82.82,0,0,1,.56.14,1.06,1.06,0,0,1,.37.54,2.76,2.76,0,0,1,.14.95,5.17,5.17,0,0,1-.14,1.22,4,4,0,0,1-.38,1,3.54,3.54,0,0,1-.56.78,3.35,3.35,0,0,1-.69.53,2.05,2.05,0,0,1-.8.3.81.81,0,0,1-.55-.13,1,1,0,0,1-.34-.46,2.51,2.51,0,0,1-.12-.71.46.46,0,0,1,0-.23.33.33,0,0,1,.13-.15l.55-.32a.09.09,0,0,1,.12,0s.06.07.07.14a.76.76,0,0,0,.13.31.41.41,0,0,0,.2.13.6.6,0,0,0,.26,0,2,2,0,0,0,.3-.14,1.64,1.64,0,0,0,.62-.68,2.2,2.2,0,0,0,.24-1,.75.75,0,0,0-.24-.64.57.57,0,0,0-.62,0,1.47,1.47,0,0,0-.32.23,1.74,1.74,0,0,0-.19.22l-.14.19a.47.47,0,0,1-.15.13l-.63.36a.08.08,0,0,1-.12,0,.2.2,0,0,1-.06-.16Z" style="fill:#455a64"/><path d="M137.25,190.92a2.7,2.7,0,0,0,.26-.66,3.62,3.62,0,0,0,.05-.51.91.91,0,0,0-.17-.63c-.11-.13-.3-.12-.56,0a1.28,1.28,0,0,0-.54.59,3.61,3.61,0,0,0-.25.86.61.61,0,0,1-.08.25.35.35,0,0,1-.12.14l-.53.31a.1.1,0,0,1-.13,0,.19.19,0,0,1-.05-.18,4.16,4.16,0,0,1,.15-1,5.07,5.07,0,0,1,.36-.94,4.44,4.44,0,0,1,.53-.8,2.66,2.66,0,0,1,.66-.56,1.28,1.28,0,0,1,.73-.21.79.79,0,0,1,.52.26,1.47,1.47,0,0,1,.3.57,3.1,3.1,0,0,1,.09.76,4.35,4.35,0,0,1,0,.51,2.71,2.71,0,0,1-.09.52,4.18,4.18,0,0,1-.22.61c-.09.23-.22.48-.37.77l-1.25,2.47,1.87-1.08a.09.09,0,0,1,.13,0,.21.21,0,0,1,.06.17v.73a.46.46,0,0,1-.06.23.31.31,0,0,1-.13.16l-3.15,1.82a.09.09,0,0,1-.13,0,.23.23,0,0,1-.05-.16v-.64a.87.87,0,0,1,.07-.35,1.42,1.42,0,0,1,.11-.24Z" style="fill:#455a64"/><path d="M142.49,184.69a.09.09,0,0,1,.12,0,.21.21,0,0,1,.06.17v.73a.79.79,0,0,1,0,.25l-.1.22-1,2.17a1.26,1.26,0,0,1,.55-.08.67.67,0,0,1,.43.18,1.21,1.21,0,0,1,.27.48,2.65,2.65,0,0,1,.09.75,4,4,0,0,1-.14,1,4.11,4.11,0,0,1-.38.94,4.16,4.16,0,0,1-.58.78,3.52,3.52,0,0,1-.73.57,2,2,0,0,1-.82.31,1,1,0,0,1-.58-.11.91.91,0,0,1-.36-.41,1.89,1.89,0,0,1-.14-.59.46.46,0,0,1,.05-.23.45.45,0,0,1,.13-.16l.54-.31a.09.09,0,0,1,.11,0,.42.42,0,0,1,.09.14.62.62,0,0,0,.11.17.26.26,0,0,0,.18.09.56.56,0,0,0,.28,0,1.9,1.9,0,0,0,.41-.18,1.93,1.93,0,0,0,.66-.64,1.61,1.61,0,0,0,.26-.87c0-.31-.09-.49-.26-.53a1,1,0,0,0-.66.19l-.56.32a.1.1,0,0,1-.13,0,.25.25,0,0,1,0-.17v-.73a.59.59,0,0,1,0-.25,1.12,1.12,0,0,1,.1-.22l.94-2.08-1.86,1.08a.1.1,0,0,1-.13,0,.22.22,0,0,1-.05-.17v-.74a.44.44,0,0,1,.05-.22.36.36,0,0,1,.13-.16Z" style="fill:#455a64"/><path d="M144.37,189.3a.09.09,0,0,1,.13,0,.23.23,0,0,1,.05.16v1a.59.59,0,0,1-.05.23.36.36,0,0,1-.13.16l-.63.36a.09.09,0,0,1-.13,0,.23.23,0,0,1-.05-.16v-1a.64.64,0,0,1,.05-.23.36.36,0,0,1,.13-.16Z" style="fill:#455a64"/><path d="M148.86,183.72c0,.13,0,.27,0,.43v1c0,.16,0,.31,0,.44a9.07,9.07,0,0,1-.11,1.19,5.11,5.11,0,0,1-.31,1.07,3.65,3.65,0,0,1-.56.91,2.84,2.84,0,0,1-.83.7,1.63,1.63,0,0,1-.84.27.78.78,0,0,1-.55-.28,1.73,1.73,0,0,1-.31-.71,7.61,7.61,0,0,1-.12-1.05c0-.26,0-.56,0-.89s0-.64,0-.91a11.61,11.61,0,0,1,.12-1.2,5.48,5.48,0,0,1,.31-1.09,4.08,4.08,0,0,1,.55-.92,3,3,0,0,1,.84-.71,1.62,1.62,0,0,1,.83-.27.76.76,0,0,1,.56.28,1.73,1.73,0,0,1,.31.71A6.39,6.39,0,0,1,148.86,183.72Zm-2.72,3.37a2,2,0,0,0,.24,1c.13.2.35.21.67,0a1.51,1.51,0,0,0,.67-.8,4.2,4.2,0,0,0,.23-1.29c0-.27,0-.57,0-.89s0-.6,0-.86a2.14,2.14,0,0,0-.23-1c-.13-.19-.36-.2-.67,0a1.47,1.47,0,0,0-.67.8,4.18,4.18,0,0,0-.24,1.29c0,.27,0,.57,0,.88S146.14,186.83,146.14,187.09Z" style="fill:#455a64"/><path d="M153.27,181.18V183a11,11,0,0,1-.12,1.18,5.2,5.2,0,0,1-.31,1.08,3.54,3.54,0,0,1-.56.91,3,3,0,0,1-.83.69,1.46,1.46,0,0,1-.84.27.75.75,0,0,1-.55-.27,1.73,1.73,0,0,1-.31-.71,7.61,7.61,0,0,1-.12-1.05c0-.26,0-.56,0-.9s0-.63,0-.9a11.61,11.61,0,0,1,.12-1.2,5.3,5.3,0,0,1,.31-1.09,4.48,4.48,0,0,1,.55-.92,3,3,0,0,1,.84-.71,1.62,1.62,0,0,1,.83-.27.74.74,0,0,1,.56.27,1.78,1.78,0,0,1,.31.72A7.61,7.61,0,0,1,153.27,181.18Zm-2.72,3.37a2.09,2.09,0,0,0,.23,1c.13.2.36.21.67,0a1.51,1.51,0,0,0,.67-.8,4.19,4.19,0,0,0,.24-1.3c0-.27,0-.56,0-.88s0-.6,0-.86a2.12,2.12,0,0,0-.24-1c-.13-.19-.35-.2-.67,0a1.51,1.51,0,0,0-.67.8,4.2,4.2,0,0,0-.23,1.29c0,.27,0,.56,0,.88S150.54,184.29,150.55,184.55Z" style="fill:#455a64"/><path d="M159.37,174.94a.1.1,0,0,1,.13,0,.22.22,0,0,1,.05.17v4.26a6.11,6.11,0,0,1-.12,1.23,4.81,4.81,0,0,1-.36,1.11,4.15,4.15,0,0,1-.61.93,3.52,3.52,0,0,1-.84.69,1.87,1.87,0,0,1-.85.28.81.81,0,0,1-.61-.23,1.42,1.42,0,0,1-.36-.68,4.39,4.39,0,0,1-.11-1.1v-4.26a.48.48,0,0,1,.05-.23.43.43,0,0,1,.13-.16l.54-.31a.09.09,0,0,1,.13,0,.2.2,0,0,1,.06.16V181a2.56,2.56,0,0,0,.07.69.72.72,0,0,0,.21.37.41.41,0,0,0,.32.1,1.34,1.34,0,0,0,.42-.15,2.47,2.47,0,0,0,.41-.33,2,2,0,0,0,.33-.47,2.65,2.65,0,0,0,.21-.62,3.64,3.64,0,0,0,.08-.77v-4.21a.64.64,0,0,1,0-.23.36.36,0,0,1,.13-.16Z" style="fill:#455a64"/><path d="M162.19,173.21a1.61,1.61,0,0,1,.8-.27.93.93,0,0,1,.57.13.91.91,0,0,1,.35.42,1.58,1.58,0,0,1,.13.56.42.42,0,0,1,0,.24.39.39,0,0,1-.13.15l-.47.27c-.08,0-.14.06-.17,0a.26.26,0,0,1-.11-.12.55.55,0,0,0-.31-.27.79.79,0,0,0-.61.16,1.91,1.91,0,0,0-.33.25,2.07,2.07,0,0,0-.28.32,1.46,1.46,0,0,0-.18.38,1.07,1.07,0,0,0-.07.39.76.76,0,0,0,.06.35.31.31,0,0,0,.22.14,1.53,1.53,0,0,0,.4,0l.62-.14a2.35,2.35,0,0,1,.7-.09.79.79,0,0,1,.48.16.9.9,0,0,1,.28.43,2.29,2.29,0,0,1,.09.7,3.47,3.47,0,0,1-.14.95,3.9,3.9,0,0,1-1,1.72,3.53,3.53,0,0,1-.81.63,2.22,2.22,0,0,1-.73.28,1.12,1.12,0,0,1-.61,0,1,1,0,0,1-.43-.39,1.82,1.82,0,0,1-.18-.73.46.46,0,0,1,.05-.23.36.36,0,0,1,.13-.16l.48-.27c.07,0,.13-.06.17,0a.2.2,0,0,1,.1.13.82.82,0,0,0,.12.2.32.32,0,0,0,.18.14.56.56,0,0,0,.29,0,1.41,1.41,0,0,0,.43-.18,2.28,2.28,0,0,0,.39-.27,2.2,2.2,0,0,0,.33-.35,2,2,0,0,0,.23-.4,1.13,1.13,0,0,0,.09-.45.41.41,0,0,0-.1-.32.36.36,0,0,0-.29-.08,2.54,2.54,0,0,0-.47.07c-.19.05-.41.1-.66.14a1.79,1.79,0,0,1-.59,0,.76.76,0,0,1-.42-.18.88.88,0,0,1-.24-.45,2.6,2.6,0,0,1-.08-.75,3.45,3.45,0,0,1,.13-.95,4.64,4.64,0,0,1,.37-.89,4.19,4.19,0,0,1,.57-.76A2.83,2.83,0,0,1,162.19,173.21Z" style="fill:#455a64"/><path d="M166.8,170.65a2,2,0,0,1,.87-.3.83.83,0,0,1,.61.23,1.52,1.52,0,0,1,.38.68,4.75,4.75,0,0,1,.16,1.1c0,.5,0,1,0,1.54a7.35,7.35,0,0,1-.16,1.27,5.26,5.26,0,0,1-.38,1.12,3.9,3.9,0,0,1-.6.93,3.38,3.38,0,0,1-.85.69l-1.7,1a.09.09,0,0,1-.13,0,.23.23,0,0,1-.05-.16V172a.68.68,0,0,1,.05-.23.39.39,0,0,1,.13-.15Zm1.1,2.23a2,2,0,0,0-.08-.57.82.82,0,0,0-.21-.37.48.48,0,0,0-.35-.14,1.09,1.09,0,0,0-.5.17l-.9.52v4.68l.94-.54a2,2,0,0,0,.48-.4,2,2,0,0,0,.33-.52,2.82,2.82,0,0,0,.21-.62,3,3,0,0,0,.08-.67C167.92,173.9,167.92,173.39,167.9,172.88Z" style="fill:#455a64"/><path d="M190.43,166.42a1,1,0,0,1-.47-.12,1.14,1.14,0,0,1-.5-1v-5.65a2.76,2.76,0,0,1,1.27-2.2l20.65-11.92a1.1,1.1,0,0,1,1.14-.08,1.12,1.12,0,0,1,.5,1v5.66a2.78,2.78,0,0,1-1.27,2.2l-20.64,11.92A1.39,1.39,0,0,1,190.43,166.42Zm21.62-20.37a.67.67,0,0,0-.3.09l-20.64,11.93a2,2,0,0,0-.9,1.55v5.65a.45.45,0,0,0,.13.38.48.48,0,0,0,.39-.08l20.65-11.92a2,2,0,0,0,.89-1.55v-5.66c0-.18-.05-.33-.13-.37S212.09,146.05,212.05,146.05Z" style="fill:#e0e0e0"/><path d="M197.6,155.7a.5.5,0,0,1,.28-.09.27.27,0,0,1,.19.08.44.44,0,0,1,.12.19.81.81,0,0,1,.05.27c0,.11,0,.24,0,.37s0,.25,0,.37a1.39,1.39,0,0,1-.05.33,2.19,2.19,0,0,1-.12.33,1.53,1.53,0,0,1-.19.3,1,1,0,0,1-.28.23.6.6,0,0,1-.27.09.33.33,0,0,1-.2-.08.44.44,0,0,1-.12-.19,1.17,1.17,0,0,1,0-.27c0-.11,0-.24,0-.37s0-.25,0-.37a1.73,1.73,0,0,1,.17-.66,1.21,1.21,0,0,1,.2-.3A.75.75,0,0,1,197.6,155.7Zm1.72-.84a.54.54,0,0,1,.07-.13.24.24,0,0,1,.09-.08l.26-.15a.06.06,0,0,1,.07,0s0,0,0,.08a.08.08,0,0,1,0,0,.06.06,0,0,1,0,0l-2.12,5.52a.53.53,0,0,1-.06.13.2.2,0,0,1-.09.09l-.26.15a.08.08,0,0,1-.08,0,.11.11,0,0,1,0-.08v0s0,0,0-.05Zm-1.49,2.2v-.61a.43.43,0,0,0-.06-.19s-.09,0-.17,0a.35.35,0,0,0-.17.19,1,1,0,0,0-.06.25v.13c0,.06,0,.12,0,.18s0,.12,0,.18v.12a.38.38,0,0,0,.06.19c0,.05.09.05.17,0a.39.39,0,0,0,.17-.19A1.1,1.1,0,0,0,197.83,157.06Zm1.63-.12a.48.48,0,0,1,.28-.08.32.32,0,0,1,.19.07.48.48,0,0,1,.12.2.76.76,0,0,1,0,.27c0,.11,0,.23,0,.36s0,.26,0,.37a1.26,1.26,0,0,1,0,.33,2,2,0,0,1-.12.34,1.89,1.89,0,0,1-.19.3,1,1,0,0,1-.28.22.57.57,0,0,1-.27.09.27.27,0,0,1-.2-.07.52.52,0,0,1-.12-.19,1.26,1.26,0,0,1-.05-.28c0-.11,0-.23,0-.36s0-.25,0-.37a1.88,1.88,0,0,1,.05-.33,1.61,1.61,0,0,1,.12-.33,1.49,1.49,0,0,1,.2-.31A1,1,0,0,1,199.46,156.94Zm.23,1.37v-.61a.38.38,0,0,0-.06-.19s-.09,0-.17,0a.39.39,0,0,0-.17.19,1.1,1.1,0,0,0-.06.26v.13c0,.06,0,.12,0,.18s0,.12,0,.18v.12a.43.43,0,0,0,.06.19c0,.05.09,0,.17,0a.35.35,0,0,0,.17-.19A1,1,0,0,0,199.69,158.31Z" style="fill:#455a64"/><path d="M200.38,155.62a.22.22,0,0,1,0-.12.42.42,0,0,1,0-.15l.94-1.67.07-.11a.15.15,0,0,1,.08-.08l.33-.2a.06.06,0,0,1,.08,0,.11.11,0,0,1,0,.1v4.27a.28.28,0,0,1,0,.15.21.21,0,0,1-.08.1l-.34.2a.07.07,0,0,1-.09,0,.18.18,0,0,1,0-.11v-3.27l-.61,1.09a.16.16,0,0,1-.09.08.05.05,0,0,1-.07,0Z" style="fill:#455a64"/><path d="M203.82,154.18a1.6,1.6,0,0,0,.16-.42,1.47,1.47,0,0,0,0-.33.58.58,0,0,0-.11-.4c-.07-.08-.19-.07-.35,0a.8.8,0,0,0-.35.38,2.1,2.1,0,0,0-.15.55.34.34,0,0,1-.06.15.17.17,0,0,1-.07.09l-.34.2a.07.07,0,0,1-.09,0,.16.16,0,0,1,0-.11,2.67,2.67,0,0,1,.1-.62,3.1,3.1,0,0,1,.23-.6,2.66,2.66,0,0,1,.34-.51,1.47,1.47,0,0,1,.41-.35.8.8,0,0,1,.47-.14.57.57,0,0,1,.33.16,1,1,0,0,1,.19.37,1.86,1.86,0,0,1,.06.48c0,.11,0,.22,0,.33a2.33,2.33,0,0,1-.06.33,3.86,3.86,0,0,1-.14.39,5.34,5.34,0,0,1-.24.48l-.79,1.58,1.19-.69a.05.05,0,0,1,.08,0,.13.13,0,0,1,0,.1v.47a.42.42,0,0,1,0,.15.27.27,0,0,1-.08.1l-2,1.15a.06.06,0,0,1-.08,0,.16.16,0,0,1,0-.11V157a.54.54,0,0,1,0-.22l.07-.16Z" style="fill:#455a64"/><path d="M205.62,154.72a.06.06,0,0,1,.08,0,.11.11,0,0,1,0,.1v.65a.28.28,0,0,1,0,.15.27.27,0,0,1-.08.1l-.4.23a.06.06,0,0,1-.08,0,.15.15,0,0,1,0-.1v-.65a.4.4,0,0,1,0-.15.21.21,0,0,1,.08-.1Z" style="fill:#455a64"/><path d="M207.57,152a1.38,1.38,0,0,0,.16-.42,1.33,1.33,0,0,0,0-.32.62.62,0,0,0-.11-.4c-.07-.08-.19-.08-.35,0a.76.76,0,0,0-.35.38,2.13,2.13,0,0,0-.16.54.38.38,0,0,1-.05.16.24.24,0,0,1-.08.09l-.34.19a.06.06,0,0,1-.08,0,.14.14,0,0,1,0-.11,2.76,2.76,0,0,1,.1-.62,3,3,0,0,1,.23-.59,2.63,2.63,0,0,1,.33-.51,1.75,1.75,0,0,1,.42-.36.78.78,0,0,1,.47-.13.52.52,0,0,1,.33.16.92.92,0,0,1,.19.37,1.86,1.86,0,0,1,.06.48c0,.11,0,.22,0,.32a2.1,2.1,0,0,1-.06.33c0,.12-.08.25-.14.39a4.35,4.35,0,0,1-.24.49l-.8,1.58,1.2-.69a.06.06,0,0,1,.08,0,.16.16,0,0,1,0,.11v.47a.39.39,0,0,1,0,.14.21.21,0,0,1-.08.1l-2,1.16a.05.05,0,0,1-.08,0,.13.13,0,0,1,0-.1v-.41a.52.52,0,0,1,0-.21.89.89,0,0,1,.07-.16Z" style="fill:#455a64"/><path d="M211.17,149.62v1.18a5.94,5.94,0,0,1-.08.75,3.06,3.06,0,0,1-.2.69,2.3,2.3,0,0,1-.35.58,1.92,1.92,0,0,1-.53.44,1,1,0,0,1-.53.17.46.46,0,0,1-.35-.17,1,1,0,0,1-.2-.46,3.28,3.28,0,0,1-.07-.67c0-.16,0-.35,0-.56s0-.41,0-.58a4.77,4.77,0,0,1,.07-.76,2.92,2.92,0,0,1,.2-.69,2.19,2.19,0,0,1,.35-.59,1.79,1.79,0,0,1,.53-.45,1,1,0,0,1,.53-.17.46.46,0,0,1,.35.17,1,1,0,0,1,.2.46A4,4,0,0,1,211.17,149.62Zm-1.73,2.15a1.36,1.36,0,0,0,.14.65c.09.12.23.13.43,0a1,1,0,0,0,.43-.51,2.93,2.93,0,0,0,.15-.82V150a1.47,1.47,0,0,0-.15-.65c-.09-.13-.23-.13-.43,0a1,1,0,0,0-.43.5,2.76,2.76,0,0,0-.14.83c0,.17,0,.35,0,.56S209.43,151.6,209.44,151.77Z" style="fill:#455a64"/><polygon points="192.14 163.47 192.14 161.61 191.34 162.07 192.95 158.35 194.56 160.21 193.75 160.68 193.75 162.54 192.14 163.47" style="fill:#fa5951"/><path d="M127.58,253.49l-5.17,3a.5.5,0,0,0-.18.68.5.5,0,0,0,.43.25.51.51,0,0,0,.25-.06l5.17-3a.5.5,0,1,0-.5-.86Zm-4.92-33.61a.43.43,0,0,0,.25-.07l5.17-3a.5.5,0,1,0-.5-.87l-5.17,3a.5.5,0,0,0,.25.93Zm4.92,24.23-5.17,3a.5.5,0,0,0-.18.68.5.5,0,0,0,.43.25.43.43,0,0,0,.25-.07l5.17-3a.5.5,0,1,0-.5-.86Zm0-9.38-5.17,3a.5.5,0,0,0-.18.68.5.5,0,0,0,.43.25.43.43,0,0,0,.25-.07l5.17-3a.5.5,0,1,0-.5-.86Zm0-9.39-5.17,3a.5.5,0,0,0-.18.68.5.5,0,0,0,.43.25.43.43,0,0,0,.25-.07l5.17-3a.51.51,0,0,0,.19-.68A.52.52,0,0,0,127.58,225.34Z" style="fill:#e0e0e0"/><path d="M151.76,249.84h.5V198.49h-.5Zm8.57-4.93h.5V193.57h-.5Zm-25.71,14.77h.5V208.33h-.5Zm8.57-4.92h.5V203.41h-.5ZM168.9,240h.5V188.64h-.5Zm34.29-19.69h.5V169h-.5Zm-25.71,14.77h.5V183.72h-.5Zm34.28-71v51.34h.5V164Zm-25.71,66.11h.5V178.8h-.5Zm8.57-4.92h.5V173.87h-.5Z" style="fill:#f0f0f0"/><path d="M134.73,259.72l.25.43,77-44.56-.25-.43Zm0-10.31.25.43,77-44.56-.25-.43ZM212,164l-.25-.43-77,44.55.25.44ZM134.73,239.1l.25.43L212,195l-.25-.43Zm0-20.62.25.43,77-44.56-.25-.43Zm0,10.31.25.43,77-44.56-.25-.43Z" style="fill:#f0f0f0"/><path d="M211.86,189.45c-2.48,1.43-1.73,4.54-4.83,6.33s-4.34,2.42-5.33,4.94-.25,6.68-2.36,7.9S198,206.18,198,197.77V184.71c0-3.94-1.61-3.32-2.61-1.35s-2.35,8.1-6.44,10.46-6.33,4.94-7.82,11.17-3.34,9.55-6.81,11.55a13.93,13.93,0,0,0-7.2,9.26c-1.36,4.89-2.6,6.6-8.67,10.11l-9.92,5.72c-2.11,1.22-3.35-.1-3.35-3.78V219.47c0-4.77.26-7.27-2.48-5.69a6.6,6.6,0,0,1-7.89-.82v46.92l77-44.36Z" style="fill:#fa5951;opacity:0.30000000000000004"/><path d="M199.93,208.6a4.43,4.43,0,0,0,.48-.67,10.27,10.27,0,0,0,1.13-4.39,13,13,0,0,1,.54-3c.65-1.65,1.3-2.13,4.34-3.89l.37-.21a8.25,8.25,0,0,0,3.33-4.29c.47-1.07.68-1.57,1.51-2a2,2,0,0,0,.64-.92c.13-.38,0-.57-.17-.44a7.12,7.12,0,0,0-2.69,3.62,4.66,4.66,0,0,1-2.15,2.71l-.37.21c-2.91,1.68-4.37,2.53-5.57,5.58a13.69,13.69,0,0,0-.72,3.61,10.53,10.53,0,0,1-.61,3.07,1.25,1.25,0,0,1-.41.37c-1.36.78-1.32-.92-1.21-5.48,0-1.47.08-3.21.08-5.23V184.17c0-2.55-.68-3.61-1.82-2.83a5.45,5.45,0,0,0-1.56,2c-.27.55-.52,1.21-.83,2-1.25,3.36-2.49,6.25-5.08,7.75a15.57,15.57,0,0,0-5.67,5.13,22.06,22.06,0,0,0-2.82,7.09,23.56,23.56,0,0,1-2.74,7.32,9.71,9.71,0,0,1-3.4,3.18,15.48,15.48,0,0,0-5.5,4.94,18.29,18.29,0,0,0-2.36,5.32,14.19,14.19,0,0,1-1.66,4.15c-1,1.52-2.8,2.91-6.35,5L148.74,241c-2,1.15-3.11-.18-3.11-3.64V217.78c0-4,0-6.27-2.72-4.68a6.51,6.51,0,0,1-7.7-.83c-.11-.11-.39.11-.62.49s-.34.78-.23.89a6.67,6.67,0,0,0,8.08.81c2.28-1.31,2.27.48,2.25,4.4v19.53c0,3.81,1.3,5.24,3.58,3.92l9.92-5.72c3.92-2.26,5.78-3.78,7.12-5.78a17.62,17.62,0,0,0,2.23-5.34,14.26,14.26,0,0,1,1.79-4.13,13.49,13.49,0,0,1,4.73-4.12,12,12,0,0,0,4.2-4.05,26.59,26.59,0,0,0,3.3-8.55,18.69,18.69,0,0,1,2.26-5.86,13.35,13.35,0,0,1,4.87-4.26c3.57-2.06,5.37-6.9,6.34-9.5.25-.67.48-1.3.64-1.63a1.79,1.79,0,0,1,.56-.71c.63-.44,1.28.19,1.28,2.6v13.05c0,2,0,3.75-.08,5.22-.12,4.83-.17,6.83,1.68,5.77A3.29,3.29,0,0,0,199.93,208.6Z" style="fill:#fa5951"/><path d="M212.28,163.35a.5.5,0,0,0-.5,0L134.6,207.91a.5.5,0,0,0-.25.43v51.6a.52.52,0,0,0,.25.43.59.59,0,0,0,.25.07.55.55,0,0,0,.25-.07l77.18-44.56a.52.52,0,0,0,.25-.43v-51.6A.5.5,0,0,0,212.28,163.35Zm-.75,51.74-76.18,44V208.63l76.18-44Z" style="fill:#e0e0e0"/></g><text transform="matrix(0.65, -0.38, 0, 1, 107.8, 312.79)" style="font-size:11.848810195922852px;fill:#455a64;font-family:Rubik-Medium, Rubik;font-weight:500;letter-spacing:-0.08901210185330807em">T<tspan x="5.97" y="0" style="letter-spacing:0.00010989148376951613em" fill="#000000">od</tspan><tspan x="20.36" y="0" style="letter-spacing:-0.014945241792654194em" fill="#000000">a</tspan><tspan x="26.94" y="0" style="letter-spacing:-0.02604428165337532em" fill="#000000">y</tspan></text><path d="M198.56,263.75a.84.84,0,0,1-.46-.13,1.12,1.12,0,0,1-.51-1v-6.66a2.78,2.78,0,0,1,1.27-2.2l20.65-11.92a1,1,0,0,1,1.64,1v6.66a2.75,2.75,0,0,1-1.27,2.2l-20.64,11.92A1.39,1.39,0,0,1,198.56,263.75Zm21.62-21.38a.7.7,0,0,0-.3.1l-20.64,11.92a2,2,0,0,0-.9,1.55v6.66c0,.18,0,.33.13.37a.43.43,0,0,0,.39-.07L219.51,251a2,2,0,0,0,.89-1.55v-6.66c0-.18-.05-.33-.13-.37A.12.12,0,0,0,220.18,242.37Z" style="fill:#e0e0e0"/><text transform="matrix(0.65, -0.38, 0, 1, 200.28, 260.53)" style="font-size:7.016560077667236px;fill:#455a64;font-family:Rubik-Medium, Rubik;font-weight:500">-$36.20</text><text transform="matrix(0.65, -0.38, 0, 1, 200.19, 285.48)" style="font-size:7.016560077667236px;fill:#fa5951;font-family:Rubik-Medium, Rubik;font-weight:500">-$15.20</text><path d="M113.51,321.42c3.37-1.94,6.09-.37,6.09,3.52a13.43,13.43,0,0,1-6.09,10.55c-3.36,1.95-6.09.37-6.09-3.51A13.49,13.49,0,0,1,113.51,321.42Z" style="fill:#fa5951"/><path d="M125.83,316.66l20-11.57c1.2-.69,2.17-.2,2.17,1.09a4.64,4.64,0,0,1-2.17,3.6l-20,11.57c-1.19.69-2.16.2-2.16-1.1A4.65,4.65,0,0,1,125.83,316.66Z" style="fill:#e0e0e0"/><path d="M124,327.55a.5.5,0,0,1-.25-.93l13.84-8a.5.5,0,1,1,.5.86l-13.84,8A.45.45,0,0,1,124,327.55Z" style="fill:#e0e0e0"/><text transform="matrix(0.65, -0.38, 0, 1, 195.67, 311.55)" style="font-size:7.016560077667236px;fill:#fa5951;font-family:Rubik-Medium, Rubik;font-weight:500">+$20<tspan x="17.7" y="0" style="letter-spacing:-0.01280452942831068em" fill="#000000">0.</tspan><tspan x="23.92" y="0" fill="#000000">00</tspan></text><path d="M113.51,344.87c3.37-1.94,6.09-.36,6.09,3.52A13.47,13.47,0,0,1,113.51,359c-3.36,1.94-6.09.36-6.09-3.52A13.49,13.49,0,0,1,113.51,344.87Z" style="fill:#fa5951"/><path d="M113.51,344.87c3.37-1.94,6.09-.36,6.09,3.52A13.47,13.47,0,0,1,113.51,359c-3.36,1.94-6.09.36-6.09-3.52A13.49,13.49,0,0,1,113.51,344.87Z" style="opacity:0.2" fill="#000000"/><path d="M125.83,340.11l20-11.57c1.2-.69,2.17-.2,2.17,1.09a4.64,4.64,0,0,1-2.17,3.6l-20,11.57c-1.19.69-2.16.2-2.16-1.1A4.65,4.65,0,0,1,125.83,340.11Z" style="fill:#e0e0e0"/><path d="M124,351a.5.5,0,0,1-.25-.93l13.84-8a.49.49,0,0,1,.68.18.51.51,0,0,1-.18.69l-13.84,8A.45.45,0,0,1,124,351Z" style="fill:#e0e0e0"/><text transform="matrix(0.65, -0.38, 0, 1, 202.72, 330.93)" style="font-size:7.016560077667236px;fill:#fa5951;font-family:Rubik-Medium, Rubik;font-weight:500">-$5<tspan x="12.21" y="0" style="letter-spacing:-0.04193947319997412em" fill="#000000">.</tspan><tspan x="13.74" y="0" fill="#000000">99</tspan></text><path d="M113.51,368.33c3.37-1.95,6.09-.37,6.09,3.51a13.45,13.45,0,0,1-6.09,10.56c-3.36,1.94-6.09.37-6.09-3.52A13.46,13.46,0,0,1,113.51,368.33Z" style="fill:#fa5951"/><path d="M113.51,368.33c3.37-1.95,6.09-.37,6.09,3.51a13.45,13.45,0,0,1-6.09,10.56c-3.36,1.94-6.09.37-6.09-3.52A13.46,13.46,0,0,1,113.51,368.33Z" style="fill:#fff;opacity:0.55"/><path d="M125.83,363.56l20-11.57c1.2-.69,2.17-.2,2.17,1.1a4.64,4.64,0,0,1-2.17,3.59l-20,11.57c-1.19.69-2.16.2-2.16-1.09A4.65,4.65,0,0,1,125.83,363.56Z" style="fill:#e0e0e0"/><path d="M124,374.45a.5.5,0,0,1-.25-.93l13.84-8a.5.5,0,0,1,.5.87l-13.84,8A.54.54,0,0,1,124,374.45Z" style="fill:#e0e0e0"/><text transform="matrix(0.65, -0.38, 0, 1, 198.54, 356.8)" style="font-size:7.016560077667236px;fill:#fa5951;font-family:Rubik-Medium, Rubik;font-weight:500">+$3<tspan x="13.28" y="0" style="letter-spacing:-0.012990102318576054em" fill="#000000">0.</tspan><tspan x="19.51" y="0" fill="#000000">00</tspan></text><ellipse cx="113.51" cy="398.81" rx="8.62" ry="4.98" transform="translate(-288.63 297.71) rotate(-60)" style="fill:#fa5951"/><ellipse cx="113.51" cy="398.81" rx="8.62" ry="4.98" transform="translate(-288.63 297.71) rotate(-60)" style="fill:#fff;opacity:0.30000000000000004"/><path d="M125.83,387l20-11.57c1.2-.69,2.17-.2,2.17,1.1a4.64,4.64,0,0,1-2.17,3.59l-20,11.57c-1.19.69-2.16.2-2.16-1.09A4.65,4.65,0,0,1,125.83,387Z" style="fill:#e0e0e0"/><path d="M124,397.91a.5.5,0,0,1-.43-.25.51.51,0,0,1,.18-.69l13.84-8a.5.5,0,0,1,.5.87l-13.84,8A.55.55,0,0,1,124,397.91Z" style="fill:#e0e0e0"/></g></g><g id="freepik--Coin--inject-144"><g id="freepik--Con--inject-144"><g id="freepik--coin--inject-144"><path d="M315.17,284.84l3-6.22-13-7.52h0a20.57,20.57,0,0,0-4.91-2.05c-.6-.16-1.21-.29-1.83-.4a24.18,24.18,0,0,0-9.17.25,30.75,30.75,0,0,0-3.31.89,32.37,32.37,0,0,0-3.42,1.32,41.41,41.41,0,0,0-4.39,2.24c-1.55.91-3.07,1.91-4.58,3-1.13.82-2.25,1.7-3.35,2.64C254,292.65,241.24,317,238,340.42c-.23,1.6-.4,3.18-.53,4.76-.19,2.26-.28,4.51-.28,6.73,0,1.82.08,3.58.22,5.27.12,1.48.28,2.9.5,4.27s.46,2.69.76,4h0a38.21,38.21,0,0,0,3.79,10c.35.62.71,1.23,1.09,1.81a24.24,24.24,0,0,0,5.77,6.24,22.2,22.2,0,0,0,2.13,1.39h0L263.78,392l2.73-5.69c.72-.17,1.46-.35,2.19-.58a39.48,39.48,0,0,0,8.58-3.8,52.41,52.41,0,0,0,5-3.35,63.94,63.94,0,0,0,6.18-5.27c13.51-13,24.15-33.33,28.05-53.58a90.62,90.62,0,0,0,1.27-9c.23-2.48.34-4.95.33-7.38a63.29,63.29,0,0,0-.86-10.47A45.14,45.14,0,0,0,315.17,284.84Z" style="fill:#fa5951"/><path d="M241,326.57l26.45,15.27,3.48-10.06-26.47-15.29C243.12,319.8,242,323.17,241,326.57Z" style="fill:#fff;opacity:0.25"/><path d="M305.11,271.1h0a20.57,20.57,0,0,0-4.91-2.05c-.6-.16-1.21-.29-1.83-.4a24.18,24.18,0,0,0-9.17.25c-.4.08-.81.19-1.22.29l27.21,15.72a.14.14,0,0,0,0-.07l3-6.22Z" style="fill:#fff;opacity:0.25"/><path d="M302.28,309.72l3.49-4.18L266.11,282.7c-1.26,1.25-2.5,2.57-3.7,3.93Z" style="fill:#fff;opacity:0.25"/><path d="M254,297.86l34.36,19.84,3.78-9.89-32-18.48A97.18,97.18,0,0,0,254,297.86Z" style="fill:#fff;opacity:0.25"/><path d="M305.11,271.1h0a20.57,20.57,0,0,0-4.91-2.05c-.6-.16-1.21-.29-1.83-.4a24.18,24.18,0,0,0-9.17.25,30.75,30.75,0,0,0-3.31.89,32.37,32.37,0,0,0-3.42,1.32,41.41,41.41,0,0,0-4.39,2.24c-1.55.91-3.07,1.91-4.58,3-1.13.82-2.25,1.7-3.35,2.64-15.07,12.72-27.15,34.71-31.34,56.59L294,367.45a107.62,107.62,0,0,0,22.56-47.7,90.62,90.62,0,0,0,1.27-9c.23-2.48.34-4.95.33-7.38a63.29,63.29,0,0,0-.86-10.47,45.14,45.14,0,0,0-2.12-8.08l3-6.22Z" style="fill:#fff;opacity:0.4"/><path d="M263.78,392l2.73-5.69c.72-.17,1.46-.35,2.19-.58a39.48,39.48,0,0,0,8.58-3.8,52.41,52.41,0,0,0,5-3.35,63.94,63.94,0,0,0,6.18-5.27,79.36,79.36,0,0,0,5.49-5.88l-55.18-31.86c-.31,1.61-.58,3.22-.8,4.83s-.4,3.18-.53,4.76c-.19,2.26-.28,4.51-.28,6.73,0,1.82.08,3.58.22,5.27.12,1.48.28,2.9.5,4.27s.46,2.69.76,4h0a38.21,38.21,0,0,0,3.79,10c.35.62.71,1.23,1.09,1.81a24.24,24.24,0,0,0,5.77,6.24,22.2,22.2,0,0,0,2.13,1.39h0Z" style="opacity:0.1" fill="#000000"/><path d="M242.47,375.46c.35.62.71,1.23,1.09,1.81a24.24,24.24,0,0,0,5.77,6.24,22.2,22.2,0,0,0,2.13,1.39h0L263.78,392l2.73-5.69.11,0,.2-2.33-27.41-15.83A36.66,36.66,0,0,0,242.47,375.46Z" style="opacity:0.1" fill="#000000"/><path d="M331.23,301a43.81,43.81,0,0,0-3.05-10.4,26.8,26.8,0,0,0-8-10.58,20.37,20.37,0,0,0-7.18-3.55c-.6-.16-1.21-.29-1.83-.4a24.18,24.18,0,0,0-9.17.25,30.75,30.75,0,0,0-3.31.89,35.56,35.56,0,0,0-3.42,1.31,44.61,44.61,0,0,0-4.39,2.25c-1.55.91-3.07,1.91-4.58,3-1.13.82-2.24,1.7-3.34,2.64-16.19,13.65-28.92,38-32.15,61.42-.22,1.59-.4,3.18-.53,4.76-.19,2.26-.28,4.51-.27,6.73,0,1.82.08,3.58.21,5.27.12,1.47.29,2.9.5,4.27s.47,2.69.77,4h0a38.56,38.56,0,0,0,3.78,10c.35.62.71,1.23,1.09,1.81a24.62,24.62,0,0,0,5.78,6.24,20.55,20.55,0,0,0,11.4,4.09,26.72,26.72,0,0,0,9.11-1.19,40,40,0,0,0,8.58-3.8,52.41,52.41,0,0,0,5-3.35,64,64,0,0,0,6.19-5.27c13.5-13,24.14-33.34,28-53.58q.87-4.51,1.27-9c.23-2.48.34-4.95.33-7.37A63.29,63.29,0,0,0,331.23,301Z" style="fill:#fa5951"/><path d="M331.23,301a43.81,43.81,0,0,0-3.05-10.4,26.8,26.8,0,0,0-8-10.58,20.37,20.37,0,0,0-7.18-3.55c-.6-.16-1.21-.29-1.83-.4a24.18,24.18,0,0,0-9.17.25,30.75,30.75,0,0,0-3.31.89,35.56,35.56,0,0,0-3.42,1.31,44.61,44.61,0,0,0-4.39,2.25c-1.55.91-3.07,1.91-4.58,3-1.13.82-2.24,1.7-3.34,2.64-16.19,13.65-28.92,38-32.15,61.42-.22,1.59-.4,3.18-.53,4.76-.19,2.26-.28,4.51-.27,6.73,0,1.82.08,3.58.21,5.27.12,1.47.29,2.9.5,4.27s.47,2.69.77,4h0a38.56,38.56,0,0,0,3.78,10c.35.62.71,1.23,1.09,1.81a24.62,24.62,0,0,0,5.78,6.24,20.55,20.55,0,0,0,11.4,4.09,26.72,26.72,0,0,0,9.11-1.19,40,40,0,0,0,8.58-3.8,52.41,52.41,0,0,0,5-3.35,64,64,0,0,0,6.19-5.27c13.5-13,24.14-33.34,28-53.58q.87-4.51,1.27-9c.23-2.48.34-4.95.33-7.37A63.29,63.29,0,0,0,331.23,301Z" style="fill:#fff;opacity:0.1"/><path d="M251.61,343q-.48,2.43-.81,4.86c-.22,1.59-.4,3.18-.53,4.76-.19,2.26-.28,4.51-.27,6.73,0,1.82.08,3.58.21,5.27.12,1.47.29,2.9.5,4.27s.47,2.69.77,4h0a38.56,38.56,0,0,0,3.78,10c.35.62.71,1.23,1.09,1.81a24.62,24.62,0,0,0,5.78,6.24,20.55,20.55,0,0,0,11.4,4.09,26.72,26.72,0,0,0,9.11-1.19,40,40,0,0,0,8.58-3.8,51.68,51.68,0,0,0,4.48-3Z" style="opacity:0.05" fill="#000000"/><path d="M252.24,375.64a36.4,36.4,0,0,0,3,7.21c.35.62.71,1.23,1.09,1.81a24.62,24.62,0,0,0,5.78,6.24,20.46,20.46,0,0,0,9.22,3.85Z" style="opacity:0.05" fill="#000000"/><path d="M257.22,323.9c-1.32,3.3-2.47,6.67-3.45,10.06l48,48,.66-.61a80,80,0,0,0,5.88-6.37Z" style="fill:#fff;opacity:0.15"/><path d="M272.92,296.72a97.18,97.18,0,0,0-6.15,8.53l52.86,52.86q2.58-4.85,4.7-10Z" style="fill:#fff;opacity:0.15"/><path d="M278.92,290.08c-1.27,1.26-2.52,2.58-3.73,4l50.54,50.54c.7-1.89,1.37-3.8,2-5.72Z" style="fill:#fff;opacity:0.15"/><path d="M332,307.78h0c-.05-1-.13-1.93-.22-2.87,0-.31-.06-.63-.1-.94s-.07-.63-.12-1c-.09-.69-.19-1.38-.3-2a43.81,43.81,0,0,0-3.05-10.4,26.8,26.8,0,0,0-8-10.58,20.37,20.37,0,0,0-7.18-3.55c-.6-.16-1.21-.29-1.83-.4a24.18,24.18,0,0,0-9.17.25c-.4.08-.81.19-1.22.29Z" style="fill:#fff;opacity:0.15"/><path d="M321.63,317.71c0,21.61-12.6,46.55-28.53,57.16-.68.45-1.37.88-2.06,1.28-16.89,9.75-30.58-.59-30.58-23.12s13.69-48.69,30.58-58.44c.69-.4,1.38-.76,2.06-1.09C309,285.7,321.63,296.11,321.63,317.71Z" style="fill:#fa5951"/><path d="M321.63,317.71c0,21.61-12.6,46.55-28.53,57.16-.68.45-1.37.88-2.06,1.28-16.89,9.75-30.58-.59-30.58-23.12s13.69-48.69,30.58-58.44c.69-.4,1.38-.76,2.06-1.09C309,285.7,321.63,296.11,321.63,317.71Z" style="opacity:0.4" fill="#000000"/><path d="M320.27,318.5c0,.69,0,1.39,0,2.1-.78,20.14-12.51,42.72-27.23,52.52l-.4.26c-.51.33-1,.66-1.56,1a25.27,25.27,0,0,1-9.18,3.34c-6.86.93-12.59-2.07-16.15-8.22a32,32,0,0,1-3.78-13.94c-.07-1.06-.11-2.15-.11-3.27s0-2.07.09-3.12a60.47,60.47,0,0,1,.74-6.64c2.58-15.56,10.88-31.43,21.44-41a42.7,42.7,0,0,1,4.66-3.68c.75-.52,1.52-1,2.29-1.45s1.32-.72,2-1l.55-.26a19.78,19.78,0,0,1,12.09-1.92c6.15,1.18,10.89,6.09,13.16,13.92A41.33,41.33,0,0,1,320.27,318.5Z" style="fill:#fa5951"/><path d="M320.27,318.5c0,.69,0,1.39,0,2.1-.78,20.14-12.51,42.72-27.23,52.52l-.4.26c-.51.33-1,.66-1.56,1a25.27,25.27,0,0,1-9.18,3.34c-6.86.93-12.59-2.07-16.15-8.22a32,32,0,0,1-3.78-13.94c-.07-1.06-.11-2.15-.11-3.27s0-2.07.09-3.12a60.47,60.47,0,0,1,.74-6.64c2.58-15.56,10.88-31.43,21.44-41a42.7,42.7,0,0,1,4.66-3.68c.75-.52,1.52-1,2.29-1.45s1.32-.72,2-1l.55-.26a19.78,19.78,0,0,1,12.09-1.92c6.15,1.18,10.89,6.09,13.16,13.92A41.33,41.33,0,0,1,320.27,318.5Z" style="opacity:0.5" fill="#000000"/><path d="M315.38,317.78c0-.71,0-1.41,0-2.1a41.33,41.33,0,0,0-1.47-11.4,21.59,21.59,0,0,0-6.29-10.56,15.41,15.41,0,0,0-2-.54,19.78,19.78,0,0,0-12.09,1.92l-.55.26c-.64.32-1.3.66-2,1s-1.54.93-2.29,1.45a42.7,42.7,0,0,0-4.66,3.68c-10.56,9.53-18.86,25.4-21.44,41a60.47,60.47,0,0,0-.74,6.64c-.06,1.05-.09,2.08-.09,3.12s0,2.21.11,3.27a32,32,0,0,0,3.78,13.94,18.56,18.56,0,0,0,3.85,4.73,16,16,0,0,0,7.45.67,25.27,25.27,0,0,0,9.18-3.34c.53-.3,1.05-.63,1.56-1l.4-.26C302.87,360.5,314.6,337.92,315.38,317.78Z" style="fill:#fa5951"/><path d="M315.38,317.78c0-.71,0-1.41,0-2.1a41.33,41.33,0,0,0-1.47-11.4,21.59,21.59,0,0,0-6.29-10.56,15.41,15.41,0,0,0-2-.54,19.78,19.78,0,0,0-12.09,1.92l-.55.26c-.64.32-1.3.66-2,1s-1.54.93-2.29,1.45a42.7,42.7,0,0,0-4.66,3.68c-10.56,9.53-18.86,25.4-21.44,41a60.47,60.47,0,0,0-.74,6.64c-.06,1.05-.09,2.08-.09,3.12s0,2.21.11,3.27a32,32,0,0,0,3.78,13.94,18.56,18.56,0,0,0,3.85,4.73,16,16,0,0,0,7.45.67,25.27,25.27,0,0,0,9.18-3.34c.53-.3,1.05-.63,1.56-1l.4-.26C302.87,360.5,314.6,337.92,315.38,317.78Z" style="opacity:0.25" fill="#000000"/><path d="M311.16,276c-17.66-2-32,12.64-41.62,25.79-13.85,20.41-22.62,46.26-17.83,71v-.05c1.56,6.87,4.71,13.77,10.43,18.14-5.85-4.29-9.24-11.18-10.88-18.1v.05c-4.41-20.23,1.14-41.49,10.4-59.59C271.56,295.34,288.36,273.6,311.16,276Z" style="fill:#f5f5f5"/><g id="freepik--money-sign--inject-144"><polygon points="297.8 323.92 291.93 320.53 303.28 310.85 309.15 314.23 297.8 323.92" style="opacity:0.35000000000000003" fill="#000000"/><path d="M301.4,326.16c-3-2.13-8.21-.52-12.62.87-1.06.35-2,.67-2.89.94a5.42,5.42,0,0,0-.43,2c0,3.42,2.9,2.49,9.2.41a47.17,47.17,0,0,1,6.5-1.71c.2,1.74,1.4,3.32,6.11.84Z" style="opacity:0.35000000000000003" fill="#000000"/><polygon points="286.87 370.65 281 367.26 281 360.33 286.87 363.73 286.87 370.65" style="opacity:0.45" fill="#000000"/><path d="M296.81,344.35c0,2.76-2.07,5.21-5.14,7-4.89,2.84-6.79.52-7.21-1.74l-1-.6a11,11,0,0,0,2.38-1.06,10.42,10.42,0,0,0,4.77-5.05C294.2,341.72,296.81,341.25,296.81,344.35Z" style="opacity:0.35000000000000003" fill="#000000"/><path d="M275,361.33a3.89,3.89,0,0,0-2.14-.52,11,11,0,0,1-.32-1.1l-5.86-3.39a7.24,7.24,0,0,0,3.29,5h0l5.86,3.38S276.8,362.51,275,361.33Z" style="opacity:0.35000000000000003" fill="#000000"/><path d="M294.66,330.42c-6.3,2.08-9.2,3-9.2-.41a5.42,5.42,0,0,1,.43-2c-4.3,1.33-6.3,1.49-6.3-1.35,0-2.08,1.41-4.66,5.3-6.92,4.14-2.4,6.46-1.84,7,.83l11.35-9.69c0-.14-.1-.27-.16-.41a7.08,7.08,0,0,0,2-.78l-4.68-2.78-.45-.27-.07,0h0a7.91,7.91,0,0,0-4.46-.73,19.59,19.59,0,0,0-5.87,1.61v-.12l5.87-3.42-5.87-3.39h0l-4,2.31L280.25,306h0v6.92c-7.95,5.79-12.92,13.35-12.92,21.53,0,3.73,1,5.84,2.63,6.91h0l.08,0a3.62,3.62,0,0,0,.43.24l4.91,2.77a3.56,3.56,0,0,0-.3-2.21,27.91,27.91,0,0,0,4.6-1c6-1.8,11.27-4.63,11.27-.21a5.56,5.56,0,0,1-.36,1.94c3.62-1.18,6.23-1.65,6.23,1.45,0,2.76-2.07,5.21-5.14,7-4.89,2.84-6.79.52-7.21-1.74h0l-1-.6-4.83-2.79-11.93,10.1,5.86,3.39a10.43,10.43,0,0,0,.91,2.5,19,19,0,0,0,7.56-1.88v2.81l9.28-1.27v-6.93c8-5.92,13.58-13.9,13.58-22.24a11.46,11.46,0,0,0-.66-4.18A32.58,32.58,0,0,0,294.66,330.42Z" style="fill:#fa5951"/><path d="M294.66,330.42c-6.3,2.08-9.2,3-9.2-.41a5.42,5.42,0,0,1,.43-2c-4.3,1.33-6.3,1.49-6.3-1.35,0-2.08,1.41-4.66,5.3-6.92,4.14-2.4,6.46-1.84,7,.83l11.35-9.69c0-.14-.1-.27-.16-.41a7.08,7.08,0,0,0,2-.78l-4.68-2.78-.45-.27-.07,0h0a7.91,7.91,0,0,0-4.46-.73,19.59,19.59,0,0,0-5.87,1.61v-.12l5.87-3.42-5.87-3.39h0l-4,2.31L280.25,306h0v6.92c-7.95,5.79-12.92,13.35-12.92,21.53,0,3.73,1,5.84,2.63,6.91h0l.08,0a3.62,3.62,0,0,0,.43.24l4.91,2.77a3.56,3.56,0,0,0-.3-2.21,27.91,27.91,0,0,0,4.6-1c6-1.8,11.27-4.63,11.27-.21a5.56,5.56,0,0,1-.36,1.94c3.62-1.18,6.23-1.65,6.23,1.45,0,2.76-2.07,5.21-5.14,7-4.89,2.84-6.79.52-7.21-1.74h0l-1-.6-4.83-2.79-11.93,10.1,5.86,3.39a10.43,10.43,0,0,0,.91,2.5,19,19,0,0,0,7.56-1.88v2.81l9.28-1.27v-6.93c8-5.92,13.58-13.9,13.58-22.24a11.46,11.46,0,0,0-.66-4.18A32.58,32.58,0,0,0,294.66,330.42Z" style="opacity:0.15" fill="#000000"/><g style="opacity:0.2"><path d="M280.25,312.89c-4.34,3.55-8.29,7.71-10.6,12.79a21.84,21.84,0,0,0-2,8,14,14,0,0,0,.25,4.14,5.68,5.68,0,0,0,2.07,3.5,5.64,5.64,0,0,1-2.41-3.41,14.49,14.49,0,0,1-.47-4.25,21.43,21.43,0,0,1,1.92-8.29,28.23,28.23,0,0,1,4.78-7A34.7,34.7,0,0,1,280.25,312.89Z" fill="#000000"/></g><path d="M303.2,328.52a32.58,32.58,0,0,0-8.54,1.9c-6.3,2.08-9.2,3-9.2-.41a5.42,5.42,0,0,1,.43-2c.67-1.6,2.18-3.31,4.87-4.88,4.14-2.41,6.46-1.83,7,.83l11.35-9.69c-1.09-3.27-3.3-5-6.59-5.05a17.58,17.58,0,0,0-7.08,1.66v-6.92l-5.87,3.41-3.49,2v6.92c-7.95,5.79-12.92,13.36-12.92,21.53a11.92,11.92,0,0,0,.71,4.46c1.75,4.38,6.56,3.78,11.63,2.29,1.78-.53,3.5-1.16,5-1.66,3.62-1.18,6.23-1.65,6.23,1.45,0,2.76-2.07,5.21-5.14,7-4.89,2.84-6.79.52-7.21-1.74l-11.93,10.1a10.19,10.19,0,0,0,.91,2.49c1.55,2.92,4.32,3.72,7.56,3.29a22.63,22.63,0,0,0,5.87-1.76v6.92l9.27-5.35v-7c8-5.91,13.59-13.9,13.59-22.24C309.73,330.08,306.88,328.43,303.2,328.52Z" style="fill:#fa5951"/><g style="opacity:0.1"><path d="M303.2,328.52a32.58,32.58,0,0,0-8.54,1.9c-6.3,2.08-9.2,3-9.2-.41a5.42,5.42,0,0,1,.43-2c.67-1.6,2.18-3.31,4.87-4.88,4.14-2.41,6.46-1.83,7,.83l11.35-9.69c-1.09-3.27-3.3-5-6.59-5.05a17.58,17.58,0,0,0-7.08,1.66v-6.92l-5.87,3.41-3.49,2v6.92c-7.95,5.79-12.92,13.36-12.92,21.53a11.92,11.92,0,0,0,.71,4.46c1.75,4.38,6.56,3.78,11.63,2.29,1.78-.53,3.5-1.16,5-1.66,3.62-1.18,6.23-1.65,6.23,1.45,0,2.76-2.07,5.21-5.14,7-4.89,2.84-6.79.52-7.21-1.74l-11.93,10.1a10.19,10.19,0,0,0,.91,2.49c1.55,2.92,4.32,3.72,7.56,3.29a22.63,22.63,0,0,0,5.87-1.76v6.92l9.27-5.35v-7c8-5.91,13.59-13.9,13.59-22.24C309.73,330.08,306.88,328.43,303.2,328.52Z" style="fill:#fff"/></g><path d="M283.63,350.31l-7.31,6.2,8.13,8.14c.8-.27,1.61-.57,2.42-.92v3.33l2.27,2.28,7-4v-2.47Z" style="fill:#fff;opacity:0.15"/><path d="M303.2,328.52a32.58,32.58,0,0,0-8.54,1.9l-2,.67,14.66,14.66a21.43,21.43,0,0,0,2.45-9.66,13.8,13.8,0,0,0-.27-2.83l-4.65-4.65A9.37,9.37,0,0,0,303.2,328.52Z" style="fill:#fff;opacity:0.15"/><path d="M287.32,325.79a14.3,14.3,0,0,1,3.44-2.7c4.14-2.41,6.46-1.83,7,.83l1.25-1.07-12.93-12.93v6.36a41.3,41.3,0,0,0-4.51,3.8Z" style="fill:#fff;opacity:0.15"/><path d="M298.6,309.76a23.74,23.74,0,0,0-3.12,1.08v-4.19l-1.73-1.73-4.14,2.41-.72.42,12.83,12.82,4.15-3.54Z" style="fill:#fff;opacity:0.15"/><path d="M279,345.64,273.35,340a9.52,9.52,0,0,0,.56,2.24A5.2,5.2,0,0,0,279,345.64Z" style="fill:#fff;opacity:0.15"/><polygon points="286.12 316.28 280.25 312.89 280.25 305.96 286.12 309.36 286.12 316.28" style="fill:#fa5951"/><polygon points="286.12 316.28 280.25 312.89 280.25 305.96 286.12 309.36 286.12 316.28" style="opacity:0.35000000000000003" fill="#000000"/><path d="M296.14,358.33l.91-.72c.29-.23.64-.51,1-.85s.83-.7,1.29-1.14,1-.89,1.48-1.41l.78-.8.78-.86c.27-.28.53-.59.79-.9s.52-.63.78-1c.49-.66,1-1.33,1.46-2s.89-1.42,1.31-2.13.77-1.45,1.07-2.18.56-1.44.83-2.12c.1-.34.2-.68.29-1,.05-.16.1-.32.14-.48s.07-.32.1-.47a14.48,14.48,0,0,0,.32-1.69c.07-.51.15-.95.16-1.32,0-.74.07-1.16.07-1.16s0,.42,0,1.16a20.7,20.7,0,0,1-.38,3c0,.16-.06.31-.09.48s-.09.32-.13.48c-.09.34-.18.68-.28,1-.25.68-.46,1.42-.8,2.14s-.68,1.47-1.06,2.21-.83,1.47-1.31,2.16-1,1.39-1.49,2c-.26.33-.53.64-.79,1s-.52.62-.8.91l-.8.86-.8.78c-.51.51-1,1-1.5,1.38s-.94.78-1.34,1.11-.75.6-1.05.81Z" style="fill:#fff"/><polygon points="286.12 309.36 295.48 303.92 295.48 310.84 294.85 305.04 286.12 309.36" style="fill:#fafafa"/><polygon points="286.87 363.73 287.36 369.74 296.14 365.3 286.87 370.65 286.87 363.73" style="fill:#fafafa"/></g></g><polygon points="304 274.99 304.78 264.69 305.57 274.99 315.87 275.77 305.57 276.56 304.78 286.86 304 276.56 293.7 275.77 304 274.99" style="fill:#fff"/><polygon points="312.08 283.44 312.46 278.45 312.84 283.44 317.83 283.82 312.84 284.2 312.46 289.19 312.08 284.2 307.09 283.82 312.08 283.44" style="fill:#fff"/></g></g></svg>