<svg xmlns="http://www.w3.org/2000/svg" viewBox="0 0 500 500"><g id="freepik--background-simple--inject-188"><path d="M110.4,278.73c5.18,33.75-7.13,86.36,26.67,102.18,39.41,18.45,88.2-13.82,140-18.58,36.52-3.36,114.47,27.13,141.38-16.89,23.53-38.49-16.47-73.88-18.47-130.36-1.17-33.13,35.92-98.47-5.21-125.67-38.79-25.66-104,31.31-150,43.58-40.86,10.89-143.58-32.17-169.66,9.87C49.94,183.34,105.41,246.15,110.4,278.73Z" style="fill:#7376F3"></path><path d="M110.4,278.73c5.18,33.75-7.13,86.36,26.67,102.18,39.41,18.45,88.2-13.82,140-18.58,36.52-3.36,114.47,27.13,141.38-16.89,23.53-38.49-16.47-73.88-18.47-130.36-1.17-33.13,35.92-98.47-5.21-125.67-38.79-25.66-104,31.31-150,43.58-40.86,10.89-143.58-32.17-169.66,9.87C49.94,183.34,105.41,246.15,110.4,278.73Z" style="fill:#fff;opacity:0.9"></path></g><g id="freepik--Shadow--inject-188"><ellipse id="freepik--path--inject-188" cx="245.18" cy="412.39" rx="193.89" ry="11.32" style="fill:#f5f5f5"></ellipse></g><g id="freepik--Icon--inject-188"><path d="M371.41,295l2.78-2.55-5.76-14.3c3-2.65,6.79-6.28,6.79-6.28a4.14,4.14,0,0,0,1.23-4.38,1.08,1.08,0,0,0-.73-.8,4.13,4.13,0,0,0-4.46.85s-3.93,3.5-6.82,6.24l-13.69-7L348,269.36l12.31,8.56c-3.16,3.21-7.26,7.45-9.89,10.18l-7.16-3.25-1.64,1.51,6.22,6.05.71.77,5.45,6.76,1.64-1.51L353,291c2.93-2.39,7.51-6.12,11-9Z" style="fill:#7376F3"></path><path d="M373.27,305.18H342.93a7,7,0,0,1-7.08-7.76l2.65-30.34a8.65,8.65,0,0,1,8.44-7.77h30.34a7,7,0,0,1,7.09,7.77l-2.66,30.34A8.65,8.65,0,0,1,373.27,305.18Zm-26.53-43.57a6.09,6.09,0,0,0-5.94,5.47l-2.66,30.34a4.94,4.94,0,0,0,5,5.46h30.34a6.09,6.09,0,0,0,5.94-5.46l2.66-30.34a4.94,4.94,0,0,0-5-5.47Z" style="fill:#7376F3"></path><g style="opacity:0.5"><path d="M373.27,305.18H342.93a7,7,0,0,1-7.08-7.76l2.65-30.34a8.65,8.65,0,0,1,8.44-7.77h30.34a7,7,0,0,1,7.09,7.77l-2.66,30.34A8.65,8.65,0,0,1,373.27,305.18Zm-26.53-43.57a6.09,6.09,0,0,0-5.94,5.47l-2.66,30.34a4.94,4.94,0,0,0,5,5.46h30.34a6.09,6.09,0,0,0,5.94-5.46l2.66-30.34a4.94,4.94,0,0,0-5-5.47Z" style="fill:#fff"></path></g></g><g id="freepik--Checkmark--inject-188"><path d="M383.68,82.61c-5,0-6.85,2.29-10.05,5.62-2.61-3.33-4.1-5.62-9.06-5.62a9.2,9.2,0,0,0-9.6,8.77,12.61,12.61,0,0,0,3.75,9.68l6.46,7a21.92,21.92,0,0,1-7.83,6.68A12.16,12.16,0,0,0,368.78,112l2.53,2.76,15-13.73c3.48-3.15,5.17-6.6,5.44-9.68C392.21,86.11,389,82.61,383.68,82.61Z" style="fill:#7376F3"></path><path d="M383.68,82.61c-5,0-6.85,2.29-10.05,5.62-2.61-3.33-4.1-5.62-9.06-5.62a9.2,9.2,0,0,0-9.6,8.77,12.61,12.61,0,0,0,3.75,9.68l6.46,7a21.92,21.92,0,0,1-7.83,6.68A12.16,12.16,0,0,0,368.78,112l2.53,2.76,15-13.73c3.48-3.15,5.17-6.6,5.44-9.68C392.21,86.11,389,82.61,383.68,82.61Z" style="fill:#fff;opacity:0.5"></path><path d="M372.48,104.61,361.4,92.47a2.31,2.31,0,0,1,.28-3.24h0a2.28,2.28,0,0,1,3.24,0l8.12,8.9,18.8-17.29a2.3,2.3,0,0,1,3.24,0h0a2.31,2.31,0,0,1-.28,3.24Z" style="fill:#7376F3"></path></g><g id="freepik--Device--inject-188"><path d="M300.77,374.24H204.48a17.68,17.68,0,0,1-17.9-19.61l20.13-230.15A21.85,21.85,0,0,1,228,104.86h96.3a17.69,17.69,0,0,1,17.89,19.62L322.1,354.63A21.84,21.84,0,0,1,300.77,374.24Z" style="fill:#7376F3"></path><path d="M295.77,374.24H199.48a17.68,17.68,0,0,1-17.9-19.61l20.13-230.15A21.85,21.85,0,0,1,223,104.86h96.3a17.69,17.69,0,0,1,17.89,19.62L317.1,354.63A21.84,21.84,0,0,1,295.77,374.24Z" style="fill:#263238"></path><path d="M318.94,109.36h-25a3.63,3.63,0,0,0-3.48,2.85l-.16.78a8.89,8.89,0,0,1-8.5,7H258a7.15,7.15,0,0,1-7.28-7l0-.78a2.93,2.93,0,0,0-3-2.85h-25a16.83,16.83,0,0,0-16.44,15.12L186.08,354.63a13.62,13.62,0,0,0,13.79,15.11h96.29a16.82,16.82,0,0,0,16.44-15.11l20.13-230.15A13.63,13.63,0,0,0,318.94,109.36Z" style="fill:#7376F3"></path><path d="M318.94,109.36h-25a3.63,3.63,0,0,0-3.48,2.85l-.16.78a8.89,8.89,0,0,1-8.5,7H258a7.15,7.15,0,0,1-7.28-7l0-.78a2.93,2.93,0,0,0-3-2.85h-25a16.83,16.83,0,0,0-16.44,15.12L186.08,354.63a13.62,13.62,0,0,0,13.79,15.11h96.29a16.82,16.82,0,0,0,16.44-15.11l20.13-230.15A13.63,13.63,0,0,0,318.94,109.36Z" style="fill:#fff;opacity:0.8"></path><g style="opacity:0.7000000000000001"><path d="M264.75,111.91a2.13,2.13,0,0,1-2.08,1.92,1.73,1.73,0,0,1-1.75-1.92A2.14,2.14,0,0,1,263,110,1.73,1.73,0,0,1,264.75,111.91Z"></path><path d="M278.48,110h-6.56a2.13,2.13,0,0,0-2.08,1.91,1.73,1.73,0,0,0,1.74,1.92h6.56a2.13,2.13,0,0,0,2.08-1.92A1.73,1.73,0,0,0,278.48,110Z"></path></g><polygon points="217.09 119.9 219.12 119.9 219.3 117.88 217.27 117.88 217.09 119.9" style="fill:#7376F3"></polygon><polygon points="221.32 117.88 221.14 119.9 223.17 119.9 223.35 117.88 223.52 115.85 221.5 115.85 221.32 117.88" style="fill:#7376F3"></polygon><polygon points="225.73 113.83 225.55 115.85 225.37 117.88 225.19 119.9 227.22 119.9 227.4 117.88 227.57 115.85 227.75 113.83 225.73 113.83" style="fill:#7376F3"></polygon><path d="M312.8,114l-.13,1.49h-1l-.26,3h1l-.13,1.48h8.91l.52-5.94Zm3.57,4.46h-3l.26-3h3Z" style="fill:#7376F3"></path><path d="M332.73,124.48a13.86,13.86,0,0,0-3.59-10.79l-139.21,252a13.79,13.79,0,0,0,9.94,4.07h96.29a16.82,16.82,0,0,0,16.44-15.11Z" style="fill:#fff;opacity:0.30000000000000004"></path></g><g id="freepik--Code--inject-188"><polygon points="253.85 278.12 253.86 278.12 253.86 278.11 253.85 278.12" style="fill:#263238"></polygon><polygon points="261.08 256.72 261.08 256.71 261.07 256.71 261.07 256.72 261.08 256.72" style="fill:#263238"></polygon><polygon points="277.93 278.12 277.94 278.12 277.94 278.11 277.93 278.11 277.93 278.12" style="fill:#263238"></polygon><polygon points="246.63 299.53 246.63 299.52 246.63 299.52 246.63 299.53" style="fill:#263238"></polygon><path d="M275.49,275.45h-2.67c.08-.88.16-1.75.24-2.66h-2.68c.08-.92.16-1.81.24-2.69h-5.34c.08-.89.16-1.76.24-2.67h2.64c.16-1.81.32-3.58.47-5.35H266c.16-1.81.31-3.58.47-5.35h-5.34c-.07.87-.15,1.75-.23,2.64h-2.68c.07-.88.15-1.76.23-2.64h-2.69c-.32,3.59-.63,7.13-.94,10.67h-5.31c.16-1.78.31-3.55.47-5.33h2.63c.08-.9.16-1.78.24-2.69h-2.67c.08-.9.16-1.76.23-2.64H231.64c-.08.9-.16,1.78-.24,2.65H226c.08-.91.16-1.78.23-2.65h-2.63c-.16,1.78-.31,3.55-.47,5.35h2.63c-.07.9-.15,1.77-.23,2.67h-2.63c-.47,5.37-.94,10.7-1.4,16h2.65c.16-1.79.31-3.55.47-5.31h2.68c-.16,1.78-.31,3.54-.47,5.3h2.68c.16-1.78.31-3.55.47-5.31h2.67c-.08.89-.16,1.76-.24,2.67h2.68c-.08.9-.15,1.77-.23,2.64h5.35c.08-.9.15-1.77.23-2.65h2.66q-.69,8-1.4,16.06h5.36c-.16,1.8-.31,3.57-.46,5.34h2.68c.08-.91.15-1.78.23-2.69h2.68c.15-1.79.31-3.55.46-5.34h2.66c.08-.9.16-1.78.23-2.65h2.67c-.16,1.78-.31,3.54-.47,5.34h-2.64c-.08.91-.15,1.77-.23,2.67h2.67c-.08.91-.16,1.78-.23,2.65H260c.07-.9.15-1.76.23-2.66h8c.08-.91.15-1.79.23-2.66h2.68c.08-.92.16-1.8.24-2.7h5.33c.39-4.48.78-8.92,1.17-13.36h-2.67C275.33,277.21,275.41,276.33,275.49,275.45Zm-5.33,0h2.65c-.07.87-.15,1.74-.23,2.64h-2.65C270,277.23,270.09,276.35,270.16,275.45Zm-2.48-2.66c-.08.87-.16,1.74-.24,2.65H264.8c.07-.88.15-1.75.23-2.65Zm-28.23-13.38h5.31c-.15,1.76-.31,3.52-.46,5.32h-2.65c.08-.87.15-1.75.23-2.66h-2.66C239.3,261.17,239.38,260.31,239.45,259.41Zm-10.93,2.67h2.66l.23-2.69h2.65c-.15,1.78-.31,3.54-.46,5.33h-5.32C228.36,263.84,228.44,263,228.52,262.08Zm-3.61,10.68c.08-.88.16-1.75.24-2.66h2.63c.08-.9.16-1.77.24-2.66h5.35c-.08.86-.15,1.73-.24,2.65h2.69c-.08.89-.16,1.78-.23,2.67Zm10.45,2.66.24-2.65h2.66c-.07.88-.15,1.77-.22,2.65Zm2.69,0h2.66c-.08.92-.16,1.8-.24,2.68h-2.66Zm5.78-5.35h-2.66c-.07.88-.15,1.76-.23,2.68h-2.67l.24-2.67h-2.68c.15-1.77.31-3.54.47-5.35H239c-.08.92-.15,1.8-.23,2.67h5.33C244,268.3,243.91,269.18,243.83,270.08Zm2,8h-2.65c.16-1.76.31-3.53.47-5.32h2.65C246.12,274.55,246,276.31,245.8,278.11Zm-.65,8c.08-.88.15-1.75.23-2.65h5.32c-.07.88-.15,1.77-.23,2.65Zm2.21,5.33c.07-.87.15-1.74.23-2.65h2.65c-.08.88-.16,1.75-.23,2.65Zm16.47-5.33h-8c-.08.92-.16,1.8-.23,2.69l-5.33,0c.08-.88.15-1.77.23-2.66h2.66c.08-.9.16-1.77.24-2.68h5.35c.08-.9.15-1.76.23-2.65h5.34C264.15,282.58,264,284.34,263.83,286.14Zm-10-8c-.08.88-.15,1.75-.23,2.65h-5.34c.31-3.55.62-7.09.93-10.67h8c.15-1.8.31-3.56.46-5.35h2.67c-.07.88-.15,1.75-.23,2.65h2.67c-.23,2.68-.47,5.34-.7,8.05h2.68c-.07.87-.15,1.75-.23,2.67Zm9.55,13.4h5.32c-.07.88-.15,1.77-.23,2.65h-5.32C263.26,293.29,263.33,292.41,263.41,291.52Zm10.9-2.72h-8c.24-2.65.47-5.3.7-8h8C274.78,283.49,274.54,286.14,274.31,288.8Z" style="fill:#263238"></path><path d="M244.2,235.32H225.51q-.82,9.38-1.63,18.69h18.69Q243.38,244.65,244.2,235.32ZM240,251.21H226.93q.57-6.53,1.15-13.07h13.07Q240.58,244.68,240,251.21Z" style="fill:#263238"></path><path d="M273.68,235.33q-.82,9.38-1.64,18.69h18.69c.55-6.24,1.09-12.45,1.64-18.69Zm14.49,15.88H275.1q.57-6.53,1.14-13.07h13.07Z" style="fill:#263238"></path><path d="M219.66,302.19h18.68q.82-9.39,1.64-18.69H221.29C220.75,289.74,220.2,296,219.66,302.19Zm4.19-15.89h13.07q-.57,6.51-1.14,13.07H222.71C223.09,295,223.47,290.66,223.85,286.3Z" style="fill:#263238"></path><path d="M282.24,259.36h-2.68l.23-2.63h-2.68c-.07.9-.15,1.77-.23,2.67h-2.67c-.07.9-.15,1.77-.23,2.67h-2.66c-.08.87-.16,1.75-.24,2.66h2.67c-.08.92-.16,1.8-.23,2.69h2.67c.15-1.79.31-3.55.46-5.34h2.67c-.15,1.76-.31,3.52-.47,5.32h8.06c-.08.92-.16,1.8-.24,2.68h2.65c.24-2.69.47-5.34.7-8h-2.65l.24-2.69h2.65c.08-.9.16-1.77.23-2.64h-8C282.39,257.62,282.32,258.5,282.24,259.36Zm-.2,2.71h5.32c-.07.87-.15,1.75-.23,2.64h-5.32C281.88,263.85,282,263,282,262.07Z" style="fill:#263238"></path><polygon points="271.32 262.07 271.32 262.06 271.31 262.06 271.31 262.07 271.32 262.07" style="fill:#263238"></polygon><path d="M283.77,272.75h-5.36c.08-.88.16-1.75.23-2.64H276c-.16,1.78-.32,3.55-.47,5.33h2.68c-.08.91-.16,1.79-.24,2.67h2.68c-.15,1.81-.31,3.58-.46,5.35h5.33l.48-5.34h2.65c.16-1.81.31-3.57.47-5.37h-2.66c.08-.91.15-1.78.23-2.66H284C283.92,271,283.84,271.85,283.77,272.75Zm-.23,2.71h2.65c-.08.89-.15,1.77-.23,2.65h-2.65C283.39,277.23,283.47,276.36,283.54,275.46Z" style="fill:#263238"></path><polygon points="286.66 270.09 286.67 270.09 286.67 270.08 286.66 270.08 286.66 270.09" style="fill:#263238"></polygon><polygon points="285.5 283.46 285.49 283.46 285.49 283.47 285.5 283.46" style="fill:#263238"></polygon><polygon points="275.5 275.44 275.49 275.44 275.49 275.45 275.5 275.45 275.5 275.44" style="fill:#263238"></polygon><polygon points="276.06 299.52 276.06 299.53 276.07 299.53 276.07 299.52 276.06 299.52" style="fill:#263238"></polygon><path d="M281.87,294.18h-8c-.08.91-.16,1.78-.23,2.68H271c-.08.9-.16,1.77-.24,2.66h5.33c.08-.88.15-1.75.23-2.65H279l-.24,2.65h5.37c-.08.92-.16,1.8-.24,2.66h2.64c.31-3.57.62-7.11.93-10.66H282.1C282,292.41,282,293.28,281.87,294.18Z" style="fill:#263238"></path><path d="M254.22,243.32h2.66c.08-.91.15-1.77.23-2.67h-2.66c.08-.91.16-1.79.23-2.66h-5.36c.08-.93.16-1.8.23-2.67h-2.63c-.24,2.68-.47,5.33-.7,8h2.66c.08-.9.16-1.76.23-2.63h2.67c-.15,1.79-.31,3.56-.46,5.32H254C254.06,245.12,254.14,244.24,254.22,243.32Z" style="fill:#263238"></path><polygon points="254.68 237.98 254.68 237.99 254.69 237.99 254.68 237.98" style="fill:#263238"></polygon><polygon points="259.33 246 259.33 246.01 259.34 246.01 259.33 246" style="fill:#263238"></polygon><polygon points="248.17 251.36 248.17 251.35 248.16 251.35 248.17 251.36" style="fill:#263238"></polygon><polygon points="251.31 246.01 251.32 246.01 251.32 246 251.31 246 251.31 246.01 251.32 246.01 251.31 246.01" style="fill:#263238"></polygon><path d="M259.1,248.68l.23-2.67H254c-.08.88-.15,1.75-.23,2.65h-2.69l.24-2.65H246c-.08.91-.16,1.78-.23,2.68h2.66c-.08.91-.16,1.79-.24,2.66h2.69c-.08.93-.16,1.8-.23,2.67h2.66l.24-2.67h2.66c.08-.87.15-1.75.23-2.67Z" style="fill:#263238"></path><polygon points="253.99 246.01 253.99 246 253.98 246 253.98 246.01 253.99 246.01" style="fill:#263238"></polygon><polygon points="256.19 251.35 256.19 251.36 256.2 251.36 256.2 251.35 256.19 251.35" style="fill:#263238"></polygon><path d="M282.6,286.16c-.08.9-.15,1.76-.23,2.64h5.31c.16-1.78.31-3.55.47-5.33H285.5c-.08.89-.16,1.77-.24,2.69Z" style="fill:#263238"></path><polygon points="285.5 283.46 285.49 283.47 285.5 283.47 285.5 283.46" style="fill:#263238"></polygon><path d="M262.07,245.37l.39-4.72h-2.65c-.16,1.82-.31,3.59-.47,5.35H262C262,245.77,262.05,245.57,262.07,245.37Z" style="fill:#263238"></path><polygon points="259.33 246 259.34 246.01 259.34 246 259.33 246" style="fill:#263238"></polygon><path d="M241.07,302.18h5.32c.08-.9.16-1.78.23-2.65H241.3C241.22,300.43,241.14,301.31,241.07,302.18Z" style="fill:#263238"></path><polygon points="246.63 299.53 246.63 299.52 246.63 299.53 246.63 299.53" style="fill:#263238"></polygon><path d="M262.48,302.18h5.3c.08-.89.16-1.76.23-2.64h-5.3C262.63,300.44,262.55,301.32,262.48,302.18Z" style="fill:#263238"></path><polygon points="268.64 262.06 268.63 262.06 268.63 262.07 268.64 262.07 268.64 262.06" style="fill:#263238"></polygon><path d="M271.77,256.73h-2.66c-.16,1.79-.31,3.56-.47,5.33h2.67C271.46,260.28,271.62,258.51,271.77,256.73Z" style="fill:#263238"></path><path d="M251.77,302.17h2.64c.08-.89.15-1.75.23-2.63H252C251.92,300.44,251.85,301.31,251.77,302.17Z" style="fill:#263238"></path><path d="M257.57,235.33h-2.64c-.08.9-.16,1.77-.24,2.65h2.65C257.42,237.07,257.5,236.2,257.57,235.33Z" style="fill:#263238"></path><polygon points="254.68 237.98 254.69 237.99 254.69 237.98 254.68 237.98" style="fill:#263238"></polygon><polygon points="262.73 237.96 262.72 237.97 262.73 237.96 262.73 237.96" style="fill:#263238"></polygon><path d="M260.29,235.33c-.08.89-.15,1.75-.23,2.63h2.66l.24-2.63Z" style="fill:#263238"></path><polygon points="265.16 240.65 265.15 240.65 265.15 240.66 265.16 240.65" style="fill:#263238"></polygon><polygon points="262.72 237.97 262.73 237.97 262.73 237.96 262.72 237.97" style="fill:#263238"></polygon><polygon points="262.48 240.64 262.47 240.64 262.47 240.65 262.47 240.64 262.46 240.65 262.48 240.65 262.48 240.64" style="fill:#263238"></polygon><path d="M265.39,238h-2.66c-.08.89-.17,1.78-.25,2.67h2.67C265.23,239.77,265.31,238.89,265.39,238Z" style="fill:#263238"></path><path d="M270.72,238h-2.63c-.08.9-.16,1.78-.24,2.66h2.63C270.56,239.73,270.64,238.86,270.72,238Z" style="fill:#263238"></path><polygon points="278.73 299.53 278.74 299.53 278.74 299.52 278.74 299.52 278.73 299.53" style="fill:#263238"></polygon><path d="M275.84,302.18h2.66c.08-.9.16-1.78.23-2.65h-2.66C276,300.41,275.91,301.29,275.84,302.18Z" style="fill:#263238"></path><polygon points="248.17 251.36 248.16 251.35 248.16 251.36 248.17 251.36" style="fill:#263238"></polygon><path d="M245.28,254h2.65c.08-.9.16-1.77.23-2.65h-2.65C245.43,252.27,245.36,253.14,245.28,254Z" style="fill:#263238"></path><path d="M267.58,243.34c0-.34.07-.68.1-1l-.09,1h0q-.34,4-.7,8h2.66c.31-3.58.62-7.12.93-10.66h-2.64v0h-2.68c-.08.88-.15,1.76-.23,2.68Z" style="fill:#263238"></path><polygon points="265.16 240.65 265.15 240.66 265.16 240.66 265.16 240.65" style="fill:#263238"></polygon><polygon points="267.85 240.67 267.85 240.67 267.85 240.66 267.84 240.66 267.84 240.67 267.85 240.67 267.85 240.67" style="fill:#263238"></polygon><polygon points="258.87 251.36 258.88 251.36 258.88 251.35 258.87 251.35 258.87 251.36" style="fill:#263238"></polygon><polygon points="258.63 254.03 258.63 254.04 258.64 254.04 258.64 254.03 258.63 254.03" style="fill:#263238"></polygon><path d="M256.2,251.36c-.08.89-.16,1.77-.23,2.67h2.66l.24-2.67Z" style="fill:#263238"></path><polygon points="259.11 248.69 259.11 248.68 259.1 248.68 259.1 248.69 259.11 248.69" style="fill:#263238"></polygon><path d="M261.54,251.35c.08-.88.16-1.76.23-2.66h-2.66c-.08.89-.16,1.78-.23,2.66Z" style="fill:#263238"></path><path d="M261.31,254h-2.67c-.08.89-.15,1.78-.23,2.67h2.66Z" style="fill:#263238"></path><polygon points="261.31 254.04 261.32 254.04 261.32 254.03 261.31 254.03 261.31 254.04" style="fill:#263238"></polygon><polygon points="258.41 256.71 258.4 256.71 258.4 256.72 258.41 256.72 258.41 256.71" style="fill:#263238"></polygon><polygon points="261.55 251.36 261.55 251.35 261.54 251.35 261.54 251.36 261.55 251.36" style="fill:#263238"></polygon><path d="M264,254c.08-.91.16-1.78.24-2.67h-2.65c-.08.89-.15,1.78-.23,2.67Z" style="fill:#263238"></path><polygon points="253.85 278.12 253.86 278.11 253.85 278.11 253.85 278.12" style="fill:#263238"></polygon><path d="M259.42,275.43c.08-.9.16-1.77.23-2.64h-8c-.16,1.78-.31,3.54-.47,5.32h2.65c.08-.88.15-1.76.24-2.68Z" style="fill:#263238"></path><path d="M276,270.09h2.68c.08-.92.16-1.8.24-2.68h-2.69C276.13,268.34,276.05,269.22,276,270.09Z" style="fill:#263238"></path><path d="M272.09,283.48h-2.63c-.08.9-.15,1.77-.23,2.64h2.63C271.94,285.22,272,284.35,272.09,283.48Z" style="fill:#263238"></path><path d="M238.38,240.68h-8q-.36,4-.7,8h8Z" style="fill:#263238"></path><path d="M286.54,240.67h-8c-.23,2.67-.46,5.32-.7,8h8C286.07,246,286.31,243.32,286.54,240.67Z" style="fill:#263238"></path><path d="M225.47,296.82h8c.23-2.67.47-5.33.7-8h-8C225.94,291.5,225.71,294.15,225.47,296.82Z" style="fill:#263238"></path><path d="M219.16,248.89h-.68a.76.76,0,0,1-.76-.84L219,233.72a5.66,5.66,0,0,1,5.52-5.08h14.33a.76.76,0,0,1,.76.84l-.06.68a.94.94,0,0,1-.91.84H224.29a3,3,0,0,0-3,2.72l-1.26,14.33A.94.94,0,0,1,219.16,248.89Z" style="fill:#263238"></path><path d="M272.44,308l.06-.67a.94.94,0,0,1,.92-.85h14.32a3,3,0,0,0,2.95-2.72L292,289.46a.93.93,0,0,1,.91-.84h.68a.76.76,0,0,1,.77.84l-1.26,14.32a5.65,5.65,0,0,1-5.52,5.08H273.21A.75.75,0,0,1,272.44,308Z" style="fill:#263238"></path><path d="M297,248.89h-.68a.76.76,0,0,1-.76-.84l1.24-14.22a2.73,2.73,0,0,0-.32-1.63,2.48,2.48,0,0,0-2.15-1.19H280a.76.76,0,0,1-.77-.84l.06-.67a.93.93,0,0,1,.92-.84h14.13a4.94,4.94,0,0,1,3.34,1.17,4.65,4.65,0,0,1,1.49,3.91l-1.26,14.32A.94.94,0,0,1,297,248.89Z" style="fill:#263238"></path><path d="M217.47,308.86a4.61,4.61,0,0,1-3.75-1.83,5,5,0,0,1-.87-3.43l1.24-14.14a.93.93,0,0,1,.91-.84h.68a.75.75,0,0,1,.77.84l-1.25,14.23a2.66,2.66,0,0,0,.33,1.63,2.45,2.45,0,0,0,2.14,1.19H232a.75.75,0,0,1,.77.84l-.06.67a.93.93,0,0,1-.91.84Z" style="fill:#263238"></path></g><g id="freepik--Texts--inject-188"><path d="M224.33,190h2l-.93,10.58h-2Z" style="fill:#263238"></path><path d="M238,200.54l.6-7-4,5.8h-.87l-3-5.71-.6,6.92h-1.88l.93-10.58h1.61l3.59,7,4.74-7h1.62l-.91,10.58Z" style="fill:#263238"></path><path d="M252.39,200.54l.6-7-4,5.8h-.87l-3-5.71-.61,6.92h-1.87L243.6,190h1.61l3.59,7,4.74-7h1.62l-.91,10.58Z" style="fill:#263238"></path><path d="M258.34,199.46a4.46,4.46,0,0,1-.92-3.53l.52-6h2l-.52,5.9q-.27,3.1,2.42,3.11t2.95-3.11l.52-5.9h1.93l-.52,6a5.2,5.2,0,0,1-1.53,3.53,4.94,4.94,0,0,1-3.51,1.23A4.24,4.24,0,0,1,258.34,199.46Z" style="fill:#263238"></path><path d="M279.37,190l-.93,10.58h-1.61l-5.21-7.16-.63,7.16H269L270,190h1.62l5.21,7.17.63-7.17Z" style="fill:#263238"></path><path d="M282.21,190h2l-.93,10.58h-2Z" style="fill:#263238"></path><path d="M289,191.62h-3.51l.14-1.66h9l-.14,1.66H291l-.78,8.92h-2Z" style="fill:#263238"></path><path d="M300,196.81l-.32,3.73h-2l.32-3.7L294.43,190h2.1l2.65,5.15,3.58-5.15h1.93Z" style="fill:#263238"></path><path d="M215.25,347a4.58,4.58,0,0,1-1.86-1.94,5.1,5.1,0,0,1-.49-2.8,5.69,5.69,0,0,1,1-2.79,5.91,5.91,0,0,1,2.2-1.95,6.3,6.3,0,0,1,3-.7,5.8,5.8,0,0,1,2.33.45,4.28,4.28,0,0,1,1.7,1.32l-1.37,1.19a3.41,3.41,0,0,0-2.72-1.24,4.22,4.22,0,0,0-2,.48,4,4,0,0,0-1.46,1.32,4.11,4.11,0,0,0-.65,1.92,3.55,3.55,0,0,0,.32,1.92,3,3,0,0,0,1.23,1.33,3.78,3.78,0,0,0,1.91.47,4,4,0,0,0,2.93-1.25l1.17,1.21a5.5,5.5,0,0,1-1.94,1.31,6.44,6.44,0,0,1-2.42.46A5.58,5.58,0,0,1,215.25,347Z" style="fill:#263238"></path><path d="M226,347a4.62,4.62,0,0,1-1.87-1.95,5.08,5.08,0,0,1-.49-2.79,5.78,5.78,0,0,1,1-2.79,5.94,5.94,0,0,1,2.21-1.95,6.38,6.38,0,0,1,3-.7,5.69,5.69,0,0,1,2.86.7,4.57,4.57,0,0,1,1.87,1.95,5.06,5.06,0,0,1,.5,2.79,5.72,5.72,0,0,1-1,2.8,5.92,5.92,0,0,1-2.21,1.94,6.39,6.39,0,0,1-3,.71A5.7,5.7,0,0,1,226,347Zm5-1.49a3.91,3.91,0,0,0,1.44-1.33,4.12,4.12,0,0,0,.66-1.92,3.67,3.67,0,0,0-.32-1.91,3.06,3.06,0,0,0-1.21-1.33,3.59,3.59,0,0,0-1.87-.48,4.08,4.08,0,0,0-1.95.48,3.91,3.91,0,0,0-1.44,1.33,4.11,4.11,0,0,0-.65,1.91,3.68,3.68,0,0,0,.31,1.92,3.08,3.08,0,0,0,1.22,1.33A3.62,3.62,0,0,0,229,346,4.13,4.13,0,0,0,231,345.5Z" style="fill:#263238"></path><path d="M247,337l-5.54,10.58h-1.93L235.79,337h2.13l2.81,8.17L245,337Z" style="fill:#263238"></path><path d="M248.08,337h2l-.92,10.58h-2Z" style="fill:#263238"></path><path d="M252.9,337h4.63a6.26,6.26,0,0,1,3,.66,4.33,4.33,0,0,1,1.88,1.86,5,5,0,0,1,.48,2.77,5.53,5.53,0,0,1-3.17,4.64,7,7,0,0,1-3.07.65H252Zm3.76,8.92a4.89,4.89,0,0,0,2.09-.44,3.78,3.78,0,0,0,1.47-1.27,4.06,4.06,0,0,0,.64-1.92,3.6,3.6,0,0,0-.31-1.91,2.79,2.79,0,0,0-1.25-1.27,4.2,4.2,0,0,0-2-.45h-2.57l-.63,7.26Z" style="fill:#263238"></path><path d="M264.39,342.56h4.16l-.14,1.57h-4.16Z" style="fill:#263238"></path><path d="M273.89,337,273,347.54h-2l.78-8.93h-2.24l.15-1.65Z" style="fill:#263238"></path><path d="M282.83,338.17a5.36,5.36,0,0,1,.86,3.9,7.06,7.06,0,0,1-.91,3.05,5.16,5.16,0,0,1-2,1.92,5.8,5.8,0,0,1-2.78.66,6,6,0,0,1-1.51-.18,3.8,3.8,0,0,1-1.21-.5l.86-1.49a3.32,3.32,0,0,0,2,.52,3.36,3.36,0,0,0,2.48-.94,4.22,4.22,0,0,0,1.09-2.71h0a3.21,3.21,0,0,1-1.26.82,4.63,4.63,0,0,1-1.66.28,4,4,0,0,1-1.84-.4,2.76,2.76,0,0,1-1.2-1.14,3,3,0,0,1-.32-1.71,3.56,3.56,0,0,1,.67-1.81,4,4,0,0,1,1.5-1.2,4.75,4.75,0,0,1,2-.42A3.91,3.91,0,0,1,282.83,338.17Zm-2,3.27a1.84,1.84,0,0,0,.71-1.3,1.5,1.5,0,0,0-.47-1.28,2.2,2.2,0,0,0-1.57-.51,2.47,2.47,0,0,0-1.54.49,1.83,1.83,0,0,0-.69,1.31,1.55,1.55,0,0,0,.46,1.32,2.18,2.18,0,0,0,1.5.48A2.49,2.49,0,0,0,280.87,341.44Z" style="fill:#263238"></path></g><g id="freepik--Button--inject-188"><path d="M313.13,173.36H215.8a7.24,7.24,0,0,1-7.33-8L209.89,149a9,9,0,0,1,8.75-8H316a7.24,7.24,0,0,1,7.33,8l-1.42,16.33A9,9,0,0,1,313.13,173.36Z" style="fill:#7376F3"></path><g style="opacity:0.9"><path d="M223.18,153.69l-.61,6.93h-1.28l.25-3H218l-.26,3h-1.29l.61-6.93h1.29l-.25,2.86h3.58l.25-2.86Z" style="fill:#fff"></path><path d="M229.73,159.54l-.1,1.08h-5.2l.61-6.93h5.06l-.1,1.08h-3.77l-.16,1.8h3.35l-.09,1.06H226l-.17,1.91Z" style="fill:#fff"></path><path d="M235.7,159h-3.46l-.83,1.6h-1.32l3.72-6.93h1.27l2.52,6.93h-1.35Zm-.34-1-1-3-1.56,3Z" style="fill:#fff"></path><path d="M239.09,153.69h1.28l-.51,5.84h3.63l-.1,1.09h-4.91Z" style="fill:#fff"></path><path d="M245.69,154.78h-2.3l.09-1.09h5.88l-.09,1.09H247l-.51,5.84h-1.29Z" style="fill:#fff"></path><path d="M256.49,153.69l-.6,6.93H254.6l.26-3h-3.59l-.25,3h-1.29l.6-6.93h1.29l-.25,2.86H255l.25-2.86Z" style="fill:#fff"></path><path d="M265.48,154a2,2,0,0,1,.95.85,2.18,2.18,0,0,1,.24,1.32,2.56,2.56,0,0,1-.47,1.31,2.61,2.61,0,0,1-1.1.85,4,4,0,0,1-1.59.3h-1.57l-.17,2h-1.29l.61-6.93h2.85A3.62,3.62,0,0,1,265.48,154Zm-.63,3.18a1.31,1.31,0,0,0,.52-1,1.12,1.12,0,0,0-.34-1,1.85,1.85,0,0,0-1.25-.36h-1.5l-.24,2.75h1.5A2.1,2.1,0,0,0,264.85,157.17Z" style="fill:#fff"></path><path d="M271.86,159h-3.47l-.82,1.6h-1.33l3.73-6.93h1.26l2.52,6.93h-1.34Zm-.34-1-1-3-1.57,3Z" style="fill:#fff"></path><path d="M275.25,160.49a2.8,2.8,0,0,1-1.13-.6l.53-1a3.17,3.17,0,0,0,1,.55,3.64,3.64,0,0,0,1.22.21,2.19,2.19,0,0,0,1.17-.25.81.81,0,0,0,.44-.65.58.58,0,0,0-.17-.49,1.28,1.28,0,0,0-.51-.3,7.77,7.77,0,0,0-.87-.25,9.67,9.67,0,0,1-1.25-.38,1.83,1.83,0,0,1-.79-.59,1.46,1.46,0,0,1-.26-1.08,2,2,0,0,1,.41-1,2.28,2.28,0,0,1,1-.75,3.93,3.93,0,0,1,1.57-.28,4.61,4.61,0,0,1,1.23.16,3.18,3.18,0,0,1,1,.45l-.49,1a4,4,0,0,0-.92-.4,3.52,3.52,0,0,0-.95-.14,2.13,2.13,0,0,0-1.15.26.87.87,0,0,0-.43.68.58.58,0,0,0,.17.49,1.39,1.39,0,0,0,.51.29,7.77,7.77,0,0,0,.87.25,8.47,8.47,0,0,1,1.23.37,2,2,0,0,1,.8.59,1.45,1.45,0,0,1,.26,1.07,2,2,0,0,1-.41,1,2.32,2.32,0,0,1-1,.74,3.88,3.88,0,0,1-1.56.28A5.1,5.1,0,0,1,275.25,160.49Z" style="fill:#fff"></path><path d="M281.47,160.49a2.94,2.94,0,0,1-1.13-.6l.54-1a3.12,3.12,0,0,0,1,.55,3.7,3.7,0,0,0,1.23.21,2.21,2.21,0,0,0,1.17-.25.81.81,0,0,0,.44-.65.58.58,0,0,0-.17-.49,1.28,1.28,0,0,0-.51-.3c-.22-.08-.51-.16-.87-.25a9.2,9.2,0,0,1-1.25-.38,1.78,1.78,0,0,1-.79-.59,1.46,1.46,0,0,1-.26-1.08,2,2,0,0,1,.4-1,2.32,2.32,0,0,1,1-.75,3.92,3.92,0,0,1,1.56-.28,4.63,4.63,0,0,1,1.24.16,3.18,3.18,0,0,1,1,.45l-.5,1a3.7,3.7,0,0,0-.91-.4,3.52,3.52,0,0,0-.95-.14,2.17,2.17,0,0,0-1.16.26.9.9,0,0,0-.43.68.61.61,0,0,0,.17.49,1.53,1.53,0,0,0,.52.29,7.77,7.77,0,0,0,.87.25,8.88,8.88,0,0,1,1.23.37,2,2,0,0,1,.8.59,1.45,1.45,0,0,1,.25,1.07,1.91,1.91,0,0,1-.4,1,2.32,2.32,0,0,1-1,.74,3.93,3.93,0,0,1-1.57.28A5.2,5.2,0,0,1,281.47,160.49Z" style="fill:#fff"></path><path d="M292.09,154a1.94,1.94,0,0,1,1,.85,2.18,2.18,0,0,1,.24,1.32,2.56,2.56,0,0,1-.47,1.31,2.61,2.61,0,0,1-1.1.85,4,4,0,0,1-1.59.3h-1.57l-.17,2h-1.29l.61-6.93h2.85A3.62,3.62,0,0,1,292.09,154Zm-.63,3.18a1.35,1.35,0,0,0,.53-1,1.15,1.15,0,0,0-.35-1,1.85,1.85,0,0,0-1.25-.36h-1.5l-.24,2.75h1.5A2.1,2.1,0,0,0,291.46,157.17Z" style="fill:#fff"></path><path d="M295.64,160.26a3,3,0,0,1-1.23-1.28,3.25,3.25,0,0,1-.32-1.82,3.66,3.66,0,0,1,.64-1.83,3.82,3.82,0,0,1,1.45-1.28,4.12,4.12,0,0,1,1.95-.46,3.68,3.68,0,0,1,1.87.46,3,3,0,0,1,1.22,1.27,3.32,3.32,0,0,1,.33,1.84,3.71,3.71,0,0,1-.65,1.83,3.92,3.92,0,0,1-1.44,1.27,4.18,4.18,0,0,1-1.95.46A3.68,3.68,0,0,1,295.64,160.26Zm3.24-1a2.64,2.64,0,0,0,.95-.87,2.74,2.74,0,0,0,.42-1.25,2.49,2.49,0,0,0-.2-1.26,2,2,0,0,0-.8-.87,2.33,2.33,0,0,0-1.22-.31,2.6,2.6,0,0,0-1.27.31,2.56,2.56,0,0,0-.95.87,2.64,2.64,0,0,0-.43,1.26,2.37,2.37,0,0,0,.21,1.25,2,2,0,0,0,.79.87,2.36,2.36,0,0,0,1.22.31A2.63,2.63,0,0,0,298.88,159.28Z" style="fill:#fff"></path><path d="M307.15,160.62l-1.24-2h-1.83l-.18,2h-1.29l.61-6.93h2.85a3.58,3.58,0,0,1,1.54.3,1.94,1.94,0,0,1,.95.85,2.18,2.18,0,0,1,.24,1.32,2.5,2.5,0,0,1-.49,1.34,2.53,2.53,0,0,1-1.17.84l1.39,2.28Zm0-5.48a1.82,1.82,0,0,0-1.24-.36h-1.51l-.24,2.76h1.5a2.1,2.1,0,0,0,1.31-.36,1.39,1.39,0,0,0,.53-1A1.13,1.13,0,0,0,307.16,155.14Z" style="fill:#fff"></path><path d="M311.67,154.78h-2.3l.1-1.09h5.88l-.1,1.09H313l-.51,5.84h-1.28Z" style="fill:#fff"></path></g></g><g id="freepik--Passport--inject-188"><path d="M394.85,248.76h-73.1L332.49,126h73.1a17.66,17.66,0,0,1,17.87,19.59l-7.31,83.61A21.81,21.81,0,0,1,394.85,248.76Z" style="fill:#7376F3"></path><path d="M394.85,248.76h-73.1L332.49,126h73.1a17.66,17.66,0,0,1,17.87,19.59l-7.31,83.61A21.81,21.81,0,0,1,394.85,248.76Z" style="opacity:0.4"></path><path d="M393,248.15H320.83L331.46,126.6h72.18a17.65,17.65,0,0,1,17.87,19.58l-7.21,82.38A21.8,21.8,0,0,1,393,248.15Z" style="fill:#7376F3"></path><path d="M393,248.15H320.83L331.46,126.6h72.18a17.65,17.65,0,0,1,17.87,19.58l-7.21,82.38A21.8,21.8,0,0,1,393,248.15Z" style="fill:#fff;opacity:0.8"></path><path d="M390,248.76h-73.1L327.63,126h73.1a17.66,17.66,0,0,1,17.87,19.59l-7.31,83.61A21.81,21.81,0,0,1,390,248.76Z" style="fill:#7376F3"></path><path d="M390,248.76h-73.1L327.63,126h73.1a17.66,17.66,0,0,1,17.87,19.59l-7.31,83.61A21.81,21.81,0,0,1,390,248.76Z" style="opacity:0.30000000000000004"></path><g style="opacity:0.9"><g style="opacity:0.9"><path d="M358.77,140l-.59,6.8h-1.26l.25-2.92h-3.52l-.25,2.92h-1.27l.6-6.8H354l-.24,2.8h3.51l.25-2.8Z" style="fill:#fff"></path><path d="M365.2,145.69l-.09,1.06H360l.59-6.8h5l-.09,1.06h-3.71l-.15,1.76h3.28l-.09,1h-3.28l-.17,1.88Z" style="fill:#fff"></path><path d="M371.07,145.18h-3.4l-.81,1.57h-1.3l3.65-6.8h1.25l2.47,6.8h-1.32Zm-.33-1-1-3-1.54,3Z" style="fill:#fff"></path><path d="M374.39,140h1.27l-.5,5.73h3.55l-.09,1.07H373.8Z" style="fill:#fff"></path><path d="M380.87,141h-2.25l.09-1.06h5.77l-.09,1.06h-2.26l-.5,5.74h-1.26Z" style="fill:#fff"></path><path d="M391.48,140l-.59,6.8h-1.27l.26-2.92h-3.52l-.26,2.92h-1.26l.6-6.8h1.26l-.25,2.8H390l.25-2.8Z" style="fill:#fff"></path></g><g style="opacity:0.9"><path d="M342.09,228.19a1.94,1.94,0,0,1,.93.83,2.29,2.29,0,0,1,.24,1.3,2.51,2.51,0,0,1-1.55,2.13,4,4,0,0,1-1.56.29h-1.54l-.17,2h-1.26l.59-6.8h2.8A3.53,3.53,0,0,1,342.09,228.19Zm-.62,3.13a1.35,1.35,0,0,0,.51-1,1.09,1.09,0,0,0-.34-1,1.76,1.76,0,0,0-1.22-.35h-1.48l-.23,2.7h1.47A2.13,2.13,0,0,0,341.47,231.32Z" style="fill:#fff"></path><path d="M348.35,233.13H345l-.81,1.57h-1.31l3.66-6.8h1.25l2.47,6.8h-1.32Zm-.33-1-1-3-1.53,3Z" style="fill:#fff"></path><path d="M351.68,234.57a2.65,2.65,0,0,1-1.11-.59l.52-1a3,3,0,0,0,1,.54,3.53,3.53,0,0,0,1.2.21,2.13,2.13,0,0,0,1.15-.25.79.79,0,0,0,.43-.64.59.59,0,0,0-.16-.48,1.39,1.39,0,0,0-.51-.29,7.88,7.88,0,0,0-.85-.25,8.1,8.1,0,0,1-1.23-.37,1.7,1.7,0,0,1-.77-.58,1.42,1.42,0,0,1-.25-1.06,2,2,0,0,1,.39-1,2.38,2.38,0,0,1,1-.73,4,4,0,0,1,1.53-.27,4.83,4.83,0,0,1,1.21.15,3.36,3.36,0,0,1,1,.45l-.49,1a4,4,0,0,0-.9-.4,3.31,3.31,0,0,0-.93-.13,2,2,0,0,0-1.13.25.88.88,0,0,0-.43.67.57.57,0,0,0,.17.48,1.39,1.39,0,0,0,.51.29c.2.07.49.15.85.24a8.51,8.51,0,0,1,1.21.37,1.86,1.86,0,0,1,.78.58,1.4,1.4,0,0,1,.25,1.05,2,2,0,0,1-.39,1,2.46,2.46,0,0,1-1,.73,4,4,0,0,1-1.54.27A4.91,4.91,0,0,1,351.68,234.57Z" style="fill:#fff"></path><path d="M357.79,234.57a2.65,2.65,0,0,1-1.11-.59l.52-1a3.16,3.16,0,0,0,1,.54,3.53,3.53,0,0,0,1.2.21,2.17,2.17,0,0,0,1.16-.25.83.83,0,0,0,.43-.64.6.6,0,0,0-.17-.48,1.43,1.43,0,0,0-.5-.29,8.17,8.17,0,0,0-.86-.25,7.93,7.93,0,0,1-1.22-.37,1.78,1.78,0,0,1-.78-.58,1.42,1.42,0,0,1-.25-1.06,2,2,0,0,1,.39-1,2.44,2.44,0,0,1,1-.73,4,4,0,0,1,1.54-.27,4.89,4.89,0,0,1,1.21.15,3.41,3.41,0,0,1,1,.45l-.49,1a4.18,4.18,0,0,0-.89-.4,3.42,3.42,0,0,0-.93-.13,2.1,2.1,0,0,0-1.14.25.84.84,0,0,0-.42.67.57.57,0,0,0,.16.48,1.39,1.39,0,0,0,.51.29c.21.07.49.15.85.24a8.12,8.12,0,0,1,1.21.37,1.83,1.83,0,0,1,.79.58,1.44,1.44,0,0,1,.25,1.05,2,2,0,0,1-.4,1,2.46,2.46,0,0,1-1,.73,4,4,0,0,1-1.54.27A5,5,0,0,1,357.79,234.57Z" style="fill:#fff"></path><path d="M368.21,228.19a2,2,0,0,1,.94.83,2.21,2.21,0,0,1,.23,1.3,2.42,2.42,0,0,1-.46,1.28,2.49,2.49,0,0,1-1.08.85,4,4,0,0,1-1.57.29h-1.53l-.17,2H363.3l.6-6.8h2.8A3.48,3.48,0,0,1,368.21,228.19Zm-.61,3.13a1.38,1.38,0,0,0,.51-1,1.12,1.12,0,0,0-.34-1,1.76,1.76,0,0,0-1.22-.35h-1.48l-.24,2.7h1.48A2.13,2.13,0,0,0,367.6,231.32Z" style="fill:#fff"></path><path d="M371.69,234.35a3,3,0,0,1-1.2-1.26,3.23,3.23,0,0,1-.32-1.79,3.83,3.83,0,0,1,2.06-3.05,4.1,4.1,0,0,1,1.91-.45,3.66,3.66,0,0,1,1.84.45,3,3,0,0,1,1.2,1.25,3.25,3.25,0,0,1,.32,1.8,3.74,3.74,0,0,1-.63,1.8,4,4,0,0,1-1.42,1.25,4.18,4.18,0,0,1-1.92.45A3.69,3.69,0,0,1,371.69,234.35Zm3.19-1a2.53,2.53,0,0,0,.93-.85,2.66,2.66,0,0,0,.42-1.23,2.26,2.26,0,0,0-.21-1.23,1.91,1.91,0,0,0-.78-.86,2.31,2.31,0,0,0-1.19-.3,2.69,2.69,0,0,0-1.26.3,2.56,2.56,0,0,0-.93.86,2.68,2.68,0,0,0-.41,1.23,2.29,2.29,0,0,0,.2,1.23,1.89,1.89,0,0,0,.78.85,2.23,2.23,0,0,0,1.2.31A2.55,2.55,0,0,0,374.88,233.38Z" style="fill:#fff"></path><path d="M383,234.7l-1.22-2H380l-.17,2h-1.26l.59-6.8h2.8a3.48,3.48,0,0,1,1.51.29,2,2,0,0,1,.94.83,2.21,2.21,0,0,1,.23,1.3,2.39,2.39,0,0,1-.49,1.32,2.47,2.47,0,0,1-1.14.82l1.37,2.24Zm0-5.38a1.76,1.76,0,0,0-1.22-.35h-1.48l-.24,2.71h1.48a2.06,2.06,0,0,0,1.29-.36,1.36,1.36,0,0,0,.51-1A1.09,1.09,0,0,0,383,229.32Z" style="fill:#fff"></path><path d="M387.44,229h-2.26l.09-1.07h5.78L391,229H388.7l-.5,5.73h-1.27Z" style="fill:#fff"></path></g></g><path d="M370,163.3a23.34,23.34,0,0,0-23,21.24c-1,11.83,7.45,21.09,19.32,21.09a23.58,23.58,0,0,0,23.08-21.09A19.17,19.17,0,0,0,370,163.3Zm-19,14.48a19,19,0,0,1,4.9-6.69,19.58,19.58,0,0,1,6.54-4.1l1-.41-.7.86a24.28,24.28,0,0,0-4.15,8.39l-.06.18-.18,0a35.77,35.77,0,0,0-7,2.1l-.68.3Zm-1.42,12.53-.08-.3a17,17,0,0,1-.38-5.47c.27-3.16.8-5,8.43-6.24l.4-.06-.08.39a51.79,51.79,0,0,0-.86,5.7,34.14,34.14,0,0,0-.19,3.86v.29l-.3,0a25.09,25.09,0,0,0-6.64,1.68Zm10.15,11.85a16.18,16.18,0,0,1-9.44-9.64l-.08-.22.2-.14c.86-.61,3-1.24,6.23-1.83l.3-.05,0,.3c.32,4.78,1.38,8.52,3.15,11.12l.54.79Zm5.74,1.22h-.29a3.08,3.08,0,0,1-1.58-.8l-.34-.24c-2.29-2.26-4-6.83-4.46-11.94l0-.32.33,0c2.47-.22,4.85-.36,7.27-.43h.3Zm1.37-15.65h-.29c-2.61.06-5.07.2-7.52.42l-.3,0v-.3c0-1.21.12-2.3.23-3.55a38.46,38.46,0,0,1,1-6.29l.06-.2.21,0a60.46,60.46,0,0,1,7.24-.64h.3ZM368,175.27h-.29c-2.18.07-4.4.21-6.6.42l-.43,0,.15-.41c1-2.68,3.68-9.77,7.72-9.77h.3Zm9-8.28a15.3,15.3,0,0,1,5.75,4.1,16.82,16.82,0,0,1,3.92,7l.24.76-.69-.39a26.2,26.2,0,0,0-6.8-2.31l-.18-.05,0-.18a20.31,20.31,0,0,0-2.61-8.45l-.54-.85ZM371,165.56h.3c1.83,0,3.45,1.74,4.45,4.78a16.86,16.86,0,0,1,1.49,5l.06.4-.41,0c-2.07-.21-4.25-.35-6.45-.42h-.29Zm-1,11.59h.3a48.06,48.06,0,0,1,7.13.72l.2,0v.21a42.19,42.19,0,0,1-.11,6.21c-.05.64-.12,1.22-.19,1.81s-.14,1.16-.2,1.8l0,.33-.32,0c-2.12-.25-4.55-.41-7.43-.49H369Zm-1.75,26.21-.05,0h-.5l1.21-13.77h.3c2.45.08,4.84.22,7.13.43l.31,0-.08.31C374.76,197.08,371.58,202.05,368.19,203.36Zm16.46-10.77a18.63,18.63,0,0,1-4.2,5.26,21.7,21.7,0,0,1-6.86,4.21l-.36-.42a27.71,27.71,0,0,0,5.16-11l.08-.32.31.08c1.31.37,2.32.62,3.09.82,1.67.42,2.29.59,2.74,1l.15.14Zm1.18-2.2-.3-.13a31,31,0,0,0-6.44-1.75l-.26,0,.05-.27a36.57,36.57,0,0,0,.55-3.86,35.47,35.47,0,0,0,.07-5.62l0-.41.4.07c5.18,1,7,2.81,7.38,3.36l.05.06v.07a15.36,15.36,0,0,1-.09,2.68,21.52,21.52,0,0,1-1.27,5.53Z" style="fill:#fff;opacity:0.9"></path></g></svg>