<svg xmlns="http://www.w3.org/2000/svg" viewBox="0 0 500 500"><g id="freepik--background-simple--inject-2"><path d="M424.84,207.22c-7.12-27.28-19-52.72-31.36-70.17-29.78-41.94-99-60.4-146.87-42.83-40.77,15-55,60.23-90.65,81.91-32.76,20-62.49,36.2-73.95,74.22-24.2,80.31,71.51,144.33,143,124,22.58-6.43,41.66-19.95,65.74-20,48.85-.17,66.05,6.53,105.57-19.85C435.28,308.42,437.3,255,424.84,207.22Z" style="fill:#fa5951"/><path d="M424.84,207.22c-7.12-27.28-19-52.72-31.36-70.17-29.78-41.94-99-60.4-146.87-42.83-40.77,15-55,60.23-90.65,81.91-32.76,20-62.49,36.2-73.95,74.22-24.2,80.31,71.51,144.33,143,124,22.58-6.43,41.66-19.95,65.74-20,48.85-.17,66.05,6.53,105.57-19.85C435.28,308.42,437.3,255,424.84,207.22Z" style="fill:#fff;opacity:0.8"/></g><g id="freepik--Machine--inject-2"><path d="M216.22,305l1.28-.59-.27-1.54-1.42-.11a5.92,5.92,0,0,0-.71-1.34l.73-1.24-1.11-1.11-1.24.74a6.33,6.33,0,0,0-2.38-1l-.36-1.42h-1.56l-.36,1.43a6.45,6.45,0,0,0-1.41.45l-1.12-1-1.29.9.53,1.38a7.28,7.28,0,0,0-.9,1.17l-1.47-.15-.54,1.47,1.22.83a7.17,7.17,0,0,0-.08,1c0,.15,0,.3,0,.44l-1.28.72.4,1.51,1.46,0a5.56,5.56,0,0,0,.8,1.27l-.63,1.31,1.2,1,1.16-.83a6.39,6.39,0,0,0,1.4.59l.24,1.41,1.56.13.47-1.33a5.81,5.81,0,0,0,1.5-.32l1,1,1.36-.78-.37-1.35a6.61,6.61,0,0,0,1-1.14l1.38.25.66-1.42-1.08-.89A6.4,6.4,0,0,0,216.22,305Zm-2.32,0a3.92,3.92,0,1,1-3.91-3.91A3.91,3.91,0,0,1,213.9,305Z" style="fill:#263238"/><path d="M328.16,305l1.29-.59-.27-1.54-1.42-.11a5.92,5.92,0,0,0-.71-1.34l.73-1.24-1.11-1.11-1.24.74a6.33,6.33,0,0,0-2.38-1l-.36-1.42h-1.56l-.36,1.43a6.45,6.45,0,0,0-1.41.45l-1.12-1-1.29.9.53,1.38a7.28,7.28,0,0,0-.9,1.17l-1.47-.15-.54,1.47,1.22.83a7.17,7.17,0,0,0-.08,1c0,.15,0,.3,0,.44l-1.28.72.4,1.51,1.46,0a5.56,5.56,0,0,0,.8,1.27l-.63,1.31,1.2,1,1.16-.83a6.39,6.39,0,0,0,1.4.59l.24,1.41,1.56.13.47-1.33a5.81,5.81,0,0,0,1.5-.32l1,1,1.36-.78-.37-1.35a6.61,6.61,0,0,0,1-1.14l1.38.25.66-1.42-1.08-.89A5.92,5.92,0,0,0,328.16,305Zm-2.31,0a3.92,3.92,0,1,1-3.91-3.91A3.91,3.91,0,0,1,325.85,305Z" style="fill:#263238"/><rect x="266.5" y="298.01" width="10" height="50.74" style="fill:#263238"/><path d="M276.5,349.25h-10a.5.5,0,0,1-.5-.5V298a.5.5,0,0,1,.5-.5h10a.5.5,0,0,1,.5.5v50.74A.5.5,0,0,1,276.5,349.25Zm-9.5-1h9V298.51h-9Z" style="fill:#263238"/><rect x="259.51" y="315.31" width="23.98" height="70.16" style="fill:#fff"/><path d="M283.49,386h-24a.5.5,0,0,1-.5-.5V315.31a.5.5,0,0,1,.5-.5h24a.5.5,0,0,1,.5.5v70.16A.5.5,0,0,1,283.49,386ZM260,385h23V315.81H260Z" style="fill:#263238"/><rect x="269.71" y="315.31" width="3.57" height="70.16" style="fill:#fff"/><path d="M273.29,386h-3.58a.51.51,0,0,1-.5-.5V315.31a.5.5,0,0,1,.5-.5h3.58a.5.5,0,0,1,.5.5v70.16A.51.51,0,0,1,273.29,386Zm-3.08-1h2.58V315.81h-2.58Z" style="fill:#263238"/><rect x="171" y="295.97" width="250.83" height="8.67" style="fill:#fa5951"/><path d="M421.83,305.14H171a.5.5,0,0,1-.5-.5V296a.5.5,0,0,1,.5-.5H421.83a.5.5,0,0,1,.5.5v8.67A.5.5,0,0,1,421.83,305.14Zm-250.33-1H421.33v-7.67H171.5Z" style="fill:#263238"/><path d="M202.12,305.1a.5.5,0,0,1-.5-.5v-8.12a.5.5,0,0,1,1,0v8.12A.5.5,0,0,1,202.12,305.1Z" style="fill:#263238"/><path d="M210.46,305.1a.5.5,0,0,1-.5-.5v-8.12a.51.51,0,0,1,.5-.5.5.5,0,0,1,.5.5v8.12A.5.5,0,0,1,210.46,305.1Z" style="fill:#263238"/><path d="M218.81,305.1a.5.5,0,0,1-.5-.5v-8.12a.5.5,0,0,1,.5-.5.51.51,0,0,1,.5.5v8.12A.5.5,0,0,1,218.81,305.1Z" style="fill:#263238"/><path d="M227.15,305.1a.5.5,0,0,1-.5-.5v-8.12a.5.5,0,0,1,.5-.5.51.51,0,0,1,.5.5v8.12A.5.5,0,0,1,227.15,305.1Z" style="fill:#263238"/><path d="M235.49,305.1a.5.5,0,0,1-.5-.5v-8.12a.5.5,0,0,1,1,0v8.12A.5.5,0,0,1,235.49,305.1Z" style="fill:#263238"/><path d="M243.83,305.1a.5.5,0,0,1-.5-.5v-8.12a.5.5,0,0,1,1,0v8.12A.5.5,0,0,1,243.83,305.1Z" style="fill:#263238"/><path d="M252.17,305.1a.5.5,0,0,1-.5-.5v-8.12a.51.51,0,0,1,.5-.5.5.5,0,0,1,.5.5v8.12A.5.5,0,0,1,252.17,305.1Z" style="fill:#263238"/><path d="M260.51,305.1a.5.5,0,0,1-.5-.5v-8.12a.51.51,0,0,1,.5-.5.5.5,0,0,1,.5.5v8.12A.5.5,0,0,1,260.51,305.1Z" style="fill:#263238"/><path d="M268.86,305.1a.5.5,0,0,1-.5-.5v-8.12a.5.5,0,0,1,.5-.5.51.51,0,0,1,.5.5v8.12A.5.5,0,0,1,268.86,305.1Z" style="fill:#263238"/><path d="M277.2,305.1a.5.5,0,0,1-.5-.5v-8.12a.5.5,0,0,1,1,0v8.12A.5.5,0,0,1,277.2,305.1Z" style="fill:#263238"/><path d="M285.54,305.1a.5.5,0,0,1-.5-.5v-8.12a.5.5,0,0,1,1,0v8.12A.5.5,0,0,1,285.54,305.1Z" style="fill:#263238"/><path d="M293.88,305.1a.5.5,0,0,1-.5-.5v-8.12a.51.51,0,0,1,.5-.5.5.5,0,0,1,.5.5v8.12A.5.5,0,0,1,293.88,305.1Z" style="fill:#263238"/><path d="M302.22,305.1a.5.5,0,0,1-.5-.5v-8.12a.51.51,0,0,1,.5-.5.5.5,0,0,1,.5.5v8.12A.5.5,0,0,1,302.22,305.1Z" style="fill:#263238"/><path d="M310.57,305.1a.5.5,0,0,1-.5-.5v-8.12a.5.5,0,0,1,.5-.5.51.51,0,0,1,.5.5v8.12A.5.5,0,0,1,310.57,305.1Z" style="fill:#263238"/><path d="M318.91,305.1a.5.5,0,0,1-.5-.5v-8.12a.5.5,0,0,1,1,0v8.12A.5.5,0,0,1,318.91,305.1Z" style="fill:#263238"/><path d="M327.25,305.1a.5.5,0,0,1-.5-.5v-8.12a.5.5,0,0,1,1,0v8.12A.5.5,0,0,1,327.25,305.1Z" style="fill:#263238"/><path d="M335.59,305.1a.5.5,0,0,1-.5-.5v-8.12a.51.51,0,0,1,.5-.5.5.5,0,0,1,.5.5v8.12A.5.5,0,0,1,335.59,305.1Z" style="fill:#263238"/><path d="M343.93,305.1a.5.5,0,0,1-.5-.5v-8.12a.51.51,0,0,1,.5-.5.5.5,0,0,1,.5.5v8.12A.5.5,0,0,1,343.93,305.1Z" style="fill:#263238"/><path d="M352.28,305.1a.5.5,0,0,1-.5-.5v-8.12a.5.5,0,0,1,.5-.5.51.51,0,0,1,.5.5v8.12A.5.5,0,0,1,352.28,305.1Z" style="fill:#263238"/><path d="M360.62,305.1a.5.5,0,0,1-.5-.5v-8.12a.5.5,0,0,1,1,0v8.12A.5.5,0,0,1,360.62,305.1Z" style="fill:#263238"/><polygon points="187.31 230.9 102.53 230.9 63.85 281.11 63.85 385.47 187.31 385.47 187.31 299.63 187.31 230.9" style="fill:#fff"/><path d="M187.31,386H63.85a.5.5,0,0,1-.5-.5V281.11a.51.51,0,0,1,.1-.3l38.69-50.21a.47.47,0,0,1,.39-.2h84.78a.5.5,0,0,1,.5.5V385.47A.5.5,0,0,1,187.31,386Zm-123-1H186.81V231.4h-84L64.35,281.28Z" style="fill:#263238"/><rect x="184.33" y="229.3" width="7.33" height="84" style="fill:#263238"/><path d="M191.67,313.8h-7.34a.5.5,0,0,1-.5-.5v-84a.51.51,0,0,1,.5-.5h7.34a.51.51,0,0,1,.5.5v84A.5.5,0,0,1,191.67,313.8Zm-6.84-1h6.34v-83h-6.34Z" style="fill:#263238"/><circle cx="81.75" cy="314.39" r="4.25" style="fill:#263238"/><path d="M81.75,319.14a4.75,4.75,0,1,1,4.75-4.75A4.76,4.76,0,0,1,81.75,319.14Zm0-8.5a3.75,3.75,0,1,0,3.75,3.75A3.75,3.75,0,0,0,81.75,310.64Z" style="fill:#263238"/><circle cx="81.75" cy="335.89" r="4.25" style="fill:#263238"/><path d="M81.75,340.64a4.75,4.75,0,1,1,4.75-4.75A4.76,4.76,0,0,1,81.75,340.64Zm0-8.5a3.75,3.75,0,1,0,3.75,3.75A3.75,3.75,0,0,0,81.75,332.14Z" style="fill:#263238"/><path d="M95,385.64a.5.5,0,0,1-.5-.5v-88.5a.5.5,0,0,1,.5-.5h24.5v-65a.5.5,0,0,1,1,0v65.5a.5.5,0,0,1-.5.5H95.5v88A.5.5,0,0,1,95,385.64Z" style="fill:#263238"/><path d="M94.7,370.14H63.94a.5.5,0,0,1-.5-.5.5.5,0,0,1,.5-.5H94.7a.5.5,0,0,1,.5.5A.5.5,0,0,1,94.7,370.14Z" style="fill:#263238"/><rect x="99.33" y="340.64" width="5" height="5" style="fill:#fff"/><path d="M104.33,346.14h-5a.51.51,0,0,1-.5-.5v-5a.5.5,0,0,1,.5-.5h5a.5.5,0,0,1,.5.5v5A.5.5,0,0,1,104.33,346.14Zm-4.5-1h4v-4h-4Z" style="fill:#263238"/><rect x="107" y="340.64" width="5" height="5" style="fill:#fff"/><path d="M112,346.14h-5a.5.5,0,0,1-.5-.5v-5a.5.5,0,0,1,.5-.5h5a.5.5,0,0,1,.5.5v5A.5.5,0,0,1,112,346.14Zm-4.5-1h4v-4h-4Z" style="fill:#263238"/><rect x="114.67" y="340.64" width="5" height="5" style="fill:#fff"/><path d="M119.67,346.14h-5a.5.5,0,0,1-.5-.5v-5a.5.5,0,0,1,.5-.5h5a.5.5,0,0,1,.5.5v5A.51.51,0,0,1,119.67,346.14Zm-4.5-1h4v-4h-4Z" style="fill:#263238"/><rect x="99.33" y="349.97" width="5" height="5" style="fill:#fff"/><path d="M104.33,355.47h-5a.5.5,0,0,1-.5-.5v-5a.5.5,0,0,1,.5-.5h5a.5.5,0,0,1,.5.5v5A.5.5,0,0,1,104.33,355.47Zm-4.5-1h4v-4h-4Z" style="fill:#263238"/><rect x="107" y="349.97" width="5" height="5" style="fill:#fff"/><path d="M112,355.47h-5a.5.5,0,0,1-.5-.5v-5a.5.5,0,0,1,.5-.5h5a.5.5,0,0,1,.5.5v5A.5.5,0,0,1,112,355.47Zm-4.5-1h4v-4h-4Z" style="fill:#263238"/><rect x="114.67" y="349.97" width="5" height="5" style="fill:#fff"/><path d="M119.67,355.47h-5a.5.5,0,0,1-.5-.5v-5a.5.5,0,0,1,.5-.5h5a.5.5,0,0,1,.5.5v5A.5.5,0,0,1,119.67,355.47Zm-4.5-1h4v-4h-4Z" style="fill:#263238"/><rect x="99.33" y="359.3" width="5" height="5" style="fill:#fff"/><path d="M104.33,364.8h-5a.5.5,0,0,1-.5-.5v-5a.51.51,0,0,1,.5-.5h5a.5.5,0,0,1,.5.5v5A.5.5,0,0,1,104.33,364.8Zm-4.5-1h4v-4h-4Z" style="fill:#263238"/><rect x="107" y="359.3" width="5" height="5" style="fill:#fff"/><path d="M112,364.8h-5a.5.5,0,0,1-.5-.5v-5a.5.5,0,0,1,.5-.5h5a.5.5,0,0,1,.5.5v5A.5.5,0,0,1,112,364.8Zm-4.5-1h4v-4h-4Z" style="fill:#263238"/><rect x="114.67" y="359.3" width="5" height="5" style="fill:#fff"/><path d="M119.67,364.8h-5a.5.5,0,0,1-.5-.5v-5a.5.5,0,0,1,.5-.5h5a.51.51,0,0,1,.5.5v5A.5.5,0,0,1,119.67,364.8Zm-4.5-1h4v-4h-4Z" style="fill:#263238"/></g><g id="freepik--Box--inject-2"><rect x="291.75" y="270.62" width="30.22" height="25.38" style="fill:#fff"/><path d="M322,296.49H291.75a.5.5,0,0,1-.5-.5V270.62a.5.5,0,0,1,.5-.5H322a.5.5,0,0,1,.5.5V296A.5.5,0,0,1,322,296.49Zm-29.73-1h29.23V271.12H292.25Z" style="fill:#263238"/><rect x="304.54" y="270.62" width="22.09" height="25.38" style="fill:#263238"/><path d="M326.63,296.49H304.54a.5.5,0,0,1-.5-.5V270.62a.5.5,0,0,1,.5-.5h22.09a.5.5,0,0,1,.5.5V296A.5.5,0,0,1,326.63,296.49Zm-21.59-1h21.09V271.12H305Z" style="fill:#263238"/></g><g id="freepik--robotic-arm-3--inject-2"><path d="M372.45,266.48h39.3A13.25,13.25,0,0,1,425,279.73v50.75a0,0,0,0,1,0,0H367.5a0,0,0,0,1,0,0v-59A5,5,0,0,1,372.45,266.48Z" style="fill:#fff"/><path d="M425,331H367.5a.5.5,0,0,1-.5-.5V271.43a5.46,5.46,0,0,1,5.45-5.45h39.3a13.77,13.77,0,0,1,13.75,13.75v50.75A.5.5,0,0,1,425,331Zm-57-1h56.5V279.73A12.76,12.76,0,0,0,411.75,267h-39.3a4.46,4.46,0,0,0-4.45,4.45Z" style="fill:#263238"/><path d="M363.25,317h66a6.75,6.75,0,0,1,6.75,6.75V336a0,0,0,0,1,0,0H356.5a0,0,0,0,1,0,0V323.73A6.75,6.75,0,0,1,363.25,317Z" style="fill:#fa5951"/><path d="M436,336.48H356.5a.5.5,0,0,1-.5-.5V323.73a7.26,7.26,0,0,1,7.25-7.25h66a7.26,7.26,0,0,1,7.25,7.25V336A.5.5,0,0,1,436,336.48Zm-79-1h78.5V323.73a6.25,6.25,0,0,0-6.25-6.25h-66a6.25,6.25,0,0,0-6.25,6.25Z" style="fill:#263238"/><path d="M347.75,334.48h97a4.25,4.25,0,0,1,4.25,4.25v46.74a0,0,0,0,1,0,0H343.5a0,0,0,0,1,0,0V338.73A4.25,4.25,0,0,1,347.75,334.48Z" style="fill:#263238"/><path d="M449,386H343.5a.5.5,0,0,1-.5-.5V338.73a4.75,4.75,0,0,1,4.75-4.75h97a4.75,4.75,0,0,1,4.75,4.75v46.74A.5.5,0,0,1,449,386Zm-105-1H448.5V338.73a3.75,3.75,0,0,0-3.75-3.75h-97a3.75,3.75,0,0,0-3.75,3.75Z" style="fill:#263238"/><path d="M390.12,317.06a.5.5,0,0,1-.5-.5V304.37a.5.5,0,0,1,.5-.5h22V266.48a.5.5,0,0,1,1,0v37.89a.5.5,0,0,1-.5.5h-22v11.69A.5.5,0,0,1,390.12,317.06Z" style="fill:#263238"/><path d="M424.47,289.36H412.65a.5.5,0,0,1-.5-.5.5.5,0,0,1,.5-.5h11.82a.5.5,0,0,1,.5.5A.5.5,0,0,1,424.47,289.36Z" style="fill:#263238"/><rect x="353.84" y="223.79" width="45.33" height="8.67" style="fill:#fff"/><path d="M399.17,233H353.84a.5.5,0,0,1-.5-.5v-8.66a.5.5,0,0,1,.5-.5h45.33a.5.5,0,0,1,.5.5v8.66A.5.5,0,0,1,399.17,233Zm-44.83-1h44.33v-7.66H354.34Z" style="fill:#263238"/><path d="M368.3,232.73a.51.51,0,0,1-.5-.5v-8.55a.5.5,0,0,1,.5-.5.5.5,0,0,1,.5.5v8.55A.5.5,0,0,1,368.3,232.73Z" style="fill:#263238"/><path d="M371.33,232.73a.5.5,0,0,1-.5-.5v-8.55a.5.5,0,0,1,1,0v8.55A.5.5,0,0,1,371.33,232.73Z" style="fill:#263238"/><path d="M374.36,232.73a.5.5,0,0,1-.5-.5v-8.55a.5.5,0,0,1,.5-.5.5.5,0,0,1,.5.5v8.55A.51.51,0,0,1,374.36,232.73Z" style="fill:#263238"/><path d="M377.38,232.73a.51.51,0,0,1-.5-.5v-8.55a.5.5,0,0,1,.5-.5.5.5,0,0,1,.5.5v8.55A.5.5,0,0,1,377.38,232.73Z" style="fill:#263238"/><path d="M380.41,232.73a.5.5,0,0,1-.5-.5v-8.55a.5.5,0,0,1,1,0v8.55A.5.5,0,0,1,380.41,232.73Z" style="fill:#263238"/><path d="M383.44,232.73a.5.5,0,0,1-.5-.5v-8.55a.5.5,0,0,1,.5-.5.5.5,0,0,1,.5.5v8.55A.51.51,0,0,1,383.44,232.73Z" style="fill:#263238"/><path d="M386.46,232.73a.51.51,0,0,1-.5-.5v-8.55a.5.5,0,0,1,.5-.5.5.5,0,0,1,.5.5v8.55A.5.5,0,0,1,386.46,232.73Z" style="fill:#263238"/><path d="M407.5,230.56,394,279.33A9.15,9.15,0,0,1,382.35,285h0a9.16,9.16,0,0,1-5.68-11.65l13.5-48.78a9.17,9.17,0,0,1,11.65-5.68h0A9.17,9.17,0,0,1,407.5,230.56Z" style="fill:#fa5951"/><path d="M385.33,286a9.84,9.84,0,0,1-3.14-.52,9.67,9.67,0,0,1-6-12.29l13.49-48.75A9.66,9.66,0,1,1,408,230.7l-13.49,48.77A9.71,9.71,0,0,1,385.33,286Zm13.5-67.11a8.69,8.69,0,0,0-8.19,5.85L377.15,273.5a8.67,8.67,0,1,0,16.38,5.67L407,230.42a0,0,0,0,1,0,0,8.68,8.68,0,0,0-8.2-11.49Z" style="fill:#263238"/><polygon points="327.67 269.64 339.94 262.41 329.54 255.52 327.67 269.64" style="fill:#263238"/><path d="M327.67,270.14a.53.53,0,0,1-.27-.08.49.49,0,0,1-.22-.48l1.87-14.12a.5.5,0,0,1,.28-.39.51.51,0,0,1,.49,0l10.4,6.89a.47.47,0,0,1,.22.42.49.49,0,0,1-.24.42l-12.27,7.23A.48.48,0,0,1,327.67,270.14Zm2.26-13.76-1.63,12.31,10.7-6.3Z" style="fill:#263238"/><rect x="344.31" y="222.43" width="7" height="33.61" transform="translate(189.95 -152.29) rotate(33.52)" style="fill:#fff"/><path d="M341.45,255.67a.45.45,0,0,1-.27-.08l-5.84-3.86a.49.49,0,0,1-.21-.32.51.51,0,0,1,.07-.38l18.56-28a.49.49,0,0,1,.69-.15l5.84,3.87a.47.47,0,0,1,.21.32.48.48,0,0,1-.07.37l-18.56,28A.5.5,0,0,1,341.45,255.67Zm-5.14-4.5,5,3.31,18-27.18-5-3.32Z" style="fill:#263238"/><path d="M334.12,235.89h15a0,0,0,0,1,0,0v23.7a1.76,1.76,0,0,1-1.76,1.76H335.88a1.76,1.76,0,0,1-1.76-1.76v-23.7a0,0,0,0,1,0,0Z" transform="translate(194.11 -147.29) rotate(33.52)" style="fill:#fa5951"/><path d="M340.3,263.19a2.26,2.26,0,0,1-1.24-.38l-9.54-6.31a2.28,2.28,0,0,1-.64-3.14L342,233.6a.51.51,0,0,1,.7-.14l12.47,8.26a.5.5,0,0,1,.14.69l-13.09,19.76A2.27,2.27,0,0,1,340.3,263.19Zm2.23-28.62-12.81,19.34a1.27,1.27,0,0,0-.19,1,1.25,1.25,0,0,0,.54.8l9.54,6.32h0a1.27,1.27,0,0,0,1.75-.36l12.81-19.34Z" style="fill:#263238"/><circle cx="355.84" cy="227.12" r="9.5" style="fill:#fff"/><path d="M355.84,237.12a10,10,0,1,1,10-10A10,10,0,0,1,355.84,237.12Zm0-19a9,9,0,1,0,9,9A9,9,0,0,0,355.84,218.12Z" style="fill:#263238"/><circle cx="355.84" cy="227.12" r="4.5" style="fill:#263238"/><path d="M355.84,232.12a5,5,0,1,1,5-5A5,5,0,0,1,355.84,232.12Zm0-9a4,4,0,1,0,4,4A4,4,0,0,0,355.84,223.12Z" style="fill:#263238"/><circle cx="399.17" cy="227.12" r="9.5" style="fill:#fff"/><path d="M399.17,237.12a10,10,0,1,1,10-10A10,10,0,0,1,399.17,237.12Zm0-19a9,9,0,1,0,9,9A9,9,0,0,0,399.17,218.12Z" style="fill:#263238"/><circle cx="399.17" cy="227.12" r="4.5" style="fill:#263238"/><path d="M399.17,232.12a5,5,0,1,1,5-5A5,5,0,0,1,399.17,232.12Zm0-9a4,4,0,1,0,4,4A4,4,0,0,0,399.17,223.12Z" style="fill:#263238"/><circle cx="385.41" cy="276.34" r="9.5" style="fill:#fff"/><path d="M385.41,286.34a10,10,0,1,1,10-10A10,10,0,0,1,385.41,286.34Zm0-19a9,9,0,1,0,9,9A9,9,0,0,0,385.41,267.34Z" style="fill:#263238"/><circle cx="385.41" cy="276.34" r="4.5" style="fill:#263238"/><path d="M385.41,281.34a5,5,0,1,1,5-5A5,5,0,0,1,385.41,281.34Zm0-9a4,4,0,1,0,4,4A4,4,0,0,0,385.41,272.34Z" style="fill:#263238"/><path d="M325.83,266.32a.5.5,0,0,1-.48-.35l-1.48-4.74a.49.49,0,0,1,.32-.63.51.51,0,0,1,.63.33l1.48,4.74a.51.51,0,0,1-.33.63Z" style="fill:#263238"/><path d="M323.16,268.1a.5.5,0,0,1-.29-.09l-4.16-3a.5.5,0,1,1,.59-.81l4.15,3a.51.51,0,0,1,.11.7A.48.48,0,0,1,323.16,268.1Z" style="fill:#263238"/><path d="M336.79,271.36h0l-5-.3a.5.5,0,0,1,.06-1l5,.3a.5.5,0,0,1,.47.53A.49.49,0,0,1,336.79,271.36Z" style="fill:#263238"/><path d="M332.05,279.07a.5.5,0,0,1-.45-.28l-3-5.93a.51.51,0,0,1,.22-.67.5.5,0,0,1,.67.23l3,5.92a.51.51,0,0,1-.23.68A.54.54,0,0,1,332.05,279.07Z" style="fill:#263238"/><path d="M335.61,275.51a.54.54,0,0,1-.25-.06l-2.07-1.19a.49.49,0,0,1-.19-.68.51.51,0,0,1,.68-.19l2.08,1.19a.5.5,0,0,1-.25.93Z" style="fill:#263238"/></g><g id="freepik--robotic-arm-2--inject-2"><path d="M298.4,156.7h-4.61a.5.5,0,0,1-.5-.5V98.44a.5.5,0,0,1,.5-.5.5.5,0,0,1,.5.5V155.7h3.61v-57a.5.5,0,0,1,.5-.5.5.5,0,0,1,.5.5V156.2A.5.5,0,0,1,298.4,156.7Z" style="fill:#263238"/><path d="M276.75,247.49a2,2,0,0,1-2-2V227.81a2,2,0,0,1,4,0v17.68A2,2,0,0,1,276.75,247.49Z" style="fill:#263238"/><path d="M277.25,229.36a2,2,0,0,1-1.07-3.7L295,213.85a2,2,0,0,1,2.13,3.39l-18.85,11.81A2,2,0,0,1,277.25,229.36Z" style="fill:#263238"/><path d="M280.54,227.81a3.79,3.79,0,1,0-3.79,3.79A3.79,3.79,0,0,0,280.54,227.81Z" style="fill:#fff"/><path d="M276.75,232.1a4.29,4.29,0,1,1,4.29-4.29A4.29,4.29,0,0,1,276.75,232.1Zm0-7.58a3.29,3.29,0,1,0,3.29,3.29A3.29,3.29,0,0,0,276.75,224.52Z" style="fill:#263238"/><path d="M278.54,227.81a1.8,1.8,0,1,0-1.79,1.8A1.79,1.79,0,0,0,278.54,227.81Z" style="fill:#fff"/><path d="M276.75,230.11a2.3,2.3,0,1,1,2.29-2.3A2.3,2.3,0,0,1,276.75,230.11Zm0-3.59a1.3,1.3,0,1,0,1.29,1.29A1.3,1.3,0,0,0,276.75,226.52Z" style="fill:#263238"/><path d="M315.31,247.49a2,2,0,0,1-2-2V227.81a2,2,0,0,1,4,0v17.68A2,2,0,0,1,315.31,247.49Z" style="fill:#263238"/><path d="M314.81,229.36a2,2,0,0,1-1.06-.31l-18.84-11.81a2,2,0,0,1,2.12-3.39l18.85,11.81a2,2,0,0,1-1.07,3.7Z" style="fill:#263238"/><path d="M311.52,227.81a3.79,3.79,0,1,1,3.79,3.79A3.79,3.79,0,0,1,311.52,227.81Z" style="fill:#fff"/><path d="M315.31,232.1a4.29,4.29,0,1,1,4.29-4.29A4.3,4.3,0,0,1,315.31,232.1Zm0-7.58a3.29,3.29,0,1,0,3.29,3.29A3.3,3.3,0,0,0,315.31,224.52Z" style="fill:#263238"/><path d="M313.52,227.81a1.8,1.8,0,1,1,1.79,1.8A1.79,1.79,0,0,1,313.52,227.81Z" style="fill:#fff"/><path d="M315.31,230.11a2.3,2.3,0,1,1,2.3-2.3A2.3,2.3,0,0,1,315.31,230.11Zm0-3.59a1.3,1.3,0,1,0,1.3,1.29A1.29,1.29,0,0,0,315.31,226.52Z" style="fill:#263238"/><rect x="291.66" y="146.42" width="8.86" height="58.61" style="fill:#263238"/><path d="M300.52,205.54h-8.86a.51.51,0,0,1-.5-.5V146.42a.51.51,0,0,1,.5-.5h8.86a.5.5,0,0,1,.5.5V205A.5.5,0,0,1,300.52,205.54Zm-8.36-1H300V146.92h-7.86Z" style="fill:#263238"/><path d="M296.09,225.67h0A10.12,10.12,0,0,1,286,215.54V175.6h20.25v39.94A10.12,10.12,0,0,1,296.09,225.67Z" style="fill:#fa5951"/><path d="M296.09,226.17a10.64,10.64,0,0,1-10.62-10.63V175.6a.5.5,0,0,1,.5-.5h20.25a.5.5,0,0,1,.5.5v39.94A10.64,10.64,0,0,1,296.09,226.17Zm-9.62-50.07v39.44a9.63,9.63,0,1,0,19.25,0V176.1Z" style="fill:#263238"/><rect x="283.74" y="173.96" width="24.7" height="6.19" style="fill:#fff"/><path d="M308.44,180.65h-24.7a.51.51,0,0,1-.5-.5V174a.5.5,0,0,1,.5-.5h24.7a.5.5,0,0,1,.5.5v6.19A.5.5,0,0,1,308.44,180.65Zm-24.2-1h23.7v-5.19h-23.7Z" style="fill:#263238"/><circle cx="296.09" cy="215.54" r="8.02" style="fill:#fff"/><path d="M296.09,224.06a8.52,8.52,0,1,1,8.52-8.52A8.52,8.52,0,0,1,296.09,224.06Zm0-16a7.52,7.52,0,1,0,7.52,7.51A7.52,7.52,0,0,0,296.09,208Z" style="fill:#263238"/><circle cx="296.09" cy="215.54" r="3.8" style="fill:#263238"/><path d="M296.09,219.84a4.3,4.3,0,1,1,4.3-4.3A4.31,4.31,0,0,1,296.09,219.84Zm0-7.59a3.3,3.3,0,1,0,3.3,3.29A3.3,3.3,0,0,0,296.09,212.25Z" style="fill:#263238"/><rect x="287.83" y="185.09" width="4.34" height="18.19" style="fill:#263238"/><path d="M292.18,203.77h-4.35a.5.5,0,0,1-.5-.5V185.09a.5.5,0,0,1,.5-.5h4.35a.5.5,0,0,1,.5.5v18.18A.5.5,0,0,1,292.18,203.77Zm-3.85-1h3.35V185.59h-3.35Z" style="fill:#263238"/><rect x="300.05" y="185.09" width="4.34" height="18.19" style="fill:#263238"/><path d="M304.39,203.77h-4.34a.5.5,0,0,1-.5-.5V185.09a.5.5,0,0,1,.5-.5h4.34a.5.5,0,0,1,.5.5v18.18A.5.5,0,0,1,304.39,203.77Zm-3.84-1h3.34V185.59h-3.34Z" style="fill:#263238"/></g><g id="freepik--robotic-arm-1--inject-2"><rect x="207.85" y="242.62" width="30.22" height="25.38" style="fill:#fff"/><path d="M238.07,268.49H207.85a.5.5,0,0,1-.5-.5V242.62a.5.5,0,0,1,.5-.5h30.22a.5.5,0,0,1,.5.5V268A.5.5,0,0,1,238.07,268.49Zm-29.72-1h29.22V243.12H208.35Z" style="fill:#263238"/><rect x="220.64" y="242.62" width="22.09" height="25.38" style="fill:#263238"/><path d="M242.72,268.49H220.64a.5.5,0,0,1-.5-.5V242.62a.5.5,0,0,1,.5-.5h22.08a.5.5,0,0,1,.5.5V268A.5.5,0,0,1,242.72,268.49Zm-21.58-1h21.08V243.12H221.14Z" style="fill:#263238"/><path d="M227.64,156.7H223a.5.5,0,0,1-.5-.5V98.44a.5.5,0,0,1,.5-.5.5.5,0,0,1,.5.5V155.7h3.61v-57a.5.5,0,0,1,.5-.5.5.5,0,0,1,.5.5V156.2A.5.5,0,0,1,227.64,156.7Z" style="fill:#263238"/><path d="M206,247.49a2,2,0,0,1-2-2V227.81a2,2,0,0,1,4,0v17.68A2,2,0,0,1,206,247.49Z" style="fill:#263238"/><path d="M206.49,229.36a2,2,0,0,1-1.06-3.7l18.85-11.81a2,2,0,0,1,2.12,3.39l-18.85,11.81A2,2,0,0,1,206.49,229.36Z" style="fill:#263238"/><path d="M209.79,227.81a3.8,3.8,0,1,0-3.8,3.79A3.8,3.8,0,0,0,209.79,227.81Z" style="fill:#fff"/><path d="M206,232.1a4.29,4.29,0,1,1,4.3-4.29A4.3,4.3,0,0,1,206,232.1Zm0-7.58a3.29,3.29,0,1,0,3.3,3.29A3.3,3.3,0,0,0,206,224.52Z" style="fill:#263238"/><path d="M207.79,227.81a1.8,1.8,0,1,0-1.8,1.8A1.79,1.79,0,0,0,207.79,227.81Z" style="fill:#fff"/><path d="M206,230.11a2.3,2.3,0,1,1,2.3-2.3A2.3,2.3,0,0,1,206,230.11Zm0-3.59a1.3,1.3,0,1,0,1.3,1.29A1.29,1.29,0,0,0,206,226.52Z" style="fill:#263238"/><path d="M244.56,247.49a2,2,0,0,1-2-2V227.81a2,2,0,0,1,4,0v17.68A2,2,0,0,1,244.56,247.49Z" style="fill:#263238"/><path d="M244.06,229.36a2,2,0,0,1-1.06-.31l-18.85-11.81a2,2,0,0,1,2.13-3.39l18.84,11.81a2,2,0,0,1-1.06,3.7Z" style="fill:#263238"/><path d="M240.77,227.81a3.79,3.79,0,1,1,3.79,3.79A3.79,3.79,0,0,1,240.77,227.81Z" style="fill:#fff"/><path d="M244.56,232.1a4.29,4.29,0,1,1,4.29-4.29A4.29,4.29,0,0,1,244.56,232.1Zm0-7.58a3.29,3.29,0,1,0,3.29,3.29A3.29,3.29,0,0,0,244.56,224.52Z" style="fill:#263238"/><path d="M242.76,227.81a1.8,1.8,0,1,1,1.8,1.8A1.8,1.8,0,0,1,242.76,227.81Z" style="fill:#fff"/><path d="M244.56,230.11a2.3,2.3,0,1,1,2.29-2.3A2.3,2.3,0,0,1,244.56,230.11Zm0-3.59a1.3,1.3,0,1,0,1.29,1.29A1.3,1.3,0,0,0,244.56,226.52Z" style="fill:#263238"/><rect x="220.91" y="146.42" width="8.86" height="58.61" style="fill:#263238"/><path d="M229.77,205.54h-8.86a.5.5,0,0,1-.5-.5V146.42a.5.5,0,0,1,.5-.5h8.86a.51.51,0,0,1,.5.5V205A.51.51,0,0,1,229.77,205.54Zm-8.36-1h7.86V146.92h-7.86Z" style="fill:#263238"/><path d="M225.34,225.67h0a10.12,10.12,0,0,1-10.13-10.13V175.6h20.25v39.94A10.12,10.12,0,0,1,225.34,225.67Z" style="fill:#fa5951"/><path d="M225.34,226.17a10.64,10.64,0,0,1-10.63-10.63V175.6a.5.5,0,0,1,.5-.5h20.25a.5.5,0,0,1,.5.5v39.94A10.64,10.64,0,0,1,225.34,226.17Zm-9.63-50.07v39.44a9.63,9.63,0,1,0,19.25,0V176.1Z" style="fill:#263238"/><rect x="212.99" y="173.96" width="24.7" height="6.19" style="fill:#fff"/><path d="M237.69,180.65H213a.5.5,0,0,1-.5-.5V174a.5.5,0,0,1,.5-.5h24.7a.5.5,0,0,1,.5.5v6.19A.51.51,0,0,1,237.69,180.65Zm-24.2-1h23.7v-5.19h-23.7Z" style="fill:#263238"/><circle cx="225.34" cy="215.54" r="8.02" style="fill:#fff"/><path d="M225.34,224.06a8.52,8.52,0,1,1,8.51-8.52A8.53,8.53,0,0,1,225.34,224.06Zm0-16a7.52,7.52,0,1,0,7.51,7.51A7.52,7.52,0,0,0,225.34,208Z" style="fill:#263238"/><circle cx="225.34" cy="215.54" r="3.8" style="fill:#263238"/><path d="M225.34,219.84a4.3,4.3,0,1,1,4.3-4.3A4.31,4.31,0,0,1,225.34,219.84Zm0-7.59a3.3,3.3,0,1,0,3.3,3.29A3.3,3.3,0,0,0,225.34,212.25Z" style="fill:#263238"/><rect x="217.08" y="185.09" width="4.34" height="18.19" style="fill:#263238"/><path d="M221.42,203.77h-4.34a.5.5,0,0,1-.5-.5V185.09a.5.5,0,0,1,.5-.5h4.34a.5.5,0,0,1,.5.5v18.18A.5.5,0,0,1,221.42,203.77Zm-3.84-1h3.34V185.59h-3.34Z" style="fill:#263238"/><rect x="229.3" y="185.09" width="4.34" height="18.19" style="fill:#263238"/><path d="M233.64,203.77h-4.35a.5.5,0,0,1-.5-.5V185.09a.5.5,0,0,1,.5-.5h4.35a.5.5,0,0,1,.5.5v18.18A.5.5,0,0,1,233.64,203.77Zm-3.85-1h3.35V185.59h-3.35Z" style="fill:#263238"/></g><g id="freepik--Floor--inject-2"><rect x="53.61" y="384.89" width="404.99" height="4.04" style="fill:#263238"/><path d="M458.6,389.43h-405a.5.5,0,0,1-.5-.5v-4a.5.5,0,0,1,.5-.5h405a.51.51,0,0,1,.5.5v4A.5.5,0,0,1,458.6,389.43Zm-404.49-1h404v-3h-404Z" style="fill:#263238"/></g></svg>