<svg xmlns="http://www.w3.org/2000/svg" viewBox="0 0 500 500"><g id="freepik--background-complete--inject-55"><path d="M404.79,65.69l13.13-.28,6.66-.12c2.22,0,4.46,0,6.69-.05h.45v.45l0,11.19v.5h-.5L418,77.31c-4.41,0-8.82-.11-13.24-.16h-.27v-.26c0-1.9.09-3.79.13-5.66Zm0,0,.14,5.65c.05,1.86.12,3.7.14,5.54l-.28-.28c4.42,0,8.83-.16,13.24-.16l13.24-.06-.5.5.06-11.19.44.44c-2.18,0-4.35,0-6.54,0L418.15,66Z" style="fill:#ebebeb"/><path d="M419.56,51.58l13.13-.28,6.66-.12c2.23,0,4.46,0,6.69,0h.45v.45l.05,11.19v.5H446L432.8,63.2c-4.41,0-8.82-.11-13.24-.16h-.27v-.27c0-1.9.09-3.79.13-5.66Zm0,0,.15,5.65c0,1.86.11,3.7.13,5.54l-.28-.28c4.42-.05,8.83-.16,13.24-.16L446,62.27l-.49.5.05-11.19L446,52c-2.18,0-4.35,0-6.54-.05l-6.58-.12Z" style="fill:#ebebeb"/><path d="M390,51.58l13.13-.28,6.66-.12c2.22,0,4.46,0,6.69,0h.44v.45L417,62.77v.5h-.5l-13.24-.06c-4.41,0-8.83-.11-13.24-.16h-.27v-.27c0-1.9.08-3.79.13-5.66Zm0,0,.14,5.65c0,1.86.11,3.7.13,5.54l-.27-.28c4.41-.05,8.83-.16,13.24-.16l13.24-.06-.5.5.06-11.19.44.44c-2.18,0-4.36,0-6.54-.05l-6.58-.12Z" style="fill:#ebebeb"/><path d="M68.73,51.58l13.12-.28,6.66-.12c2.23,0,4.47,0,6.7,0h.44v.45l.06,11.19v.5h-.5L82,63.2c-4.42,0-8.83-.11-13.24-.16h-.28v-.27c0-1.9.09-3.79.13-5.66Zm0,0,.14,5.65c0,1.86.11,3.7.13,5.54l-.27-.28c4.41-.05,8.82-.16,13.24-.16l13.24-.06-.5.5.05-11.19.45.44C93,52,90.85,52,88.66,52l-6.58-.12Z" style="fill:#ebebeb"/><path d="M68.73,350.75l13.12-.28,6.66-.11c2.23-.05,4.47,0,6.7-.06h.44v.45l.06,11.19v.5h-.5L82,362.37c-4.42,0-8.83-.11-13.24-.16h-.28v-.27c0-1.9.09-3.79.13-5.66Zm0,0,.14,5.65c0,1.86.11,3.71.13,5.54l-.27-.28c4.41-.05,8.82-.15,13.24-.16l13.24-.06-.5.5.05-11.19.45.44c-2.18,0-4.36,0-6.55-.05L82.08,351Z" style="fill:#ebebeb"/><path d="M54,336.64l13.12-.28,6.66-.11c2.23-.05,4.46,0,6.7-.06h.44v.45l.06,11.19v.5h-.5l-13.24-.07c-4.42,0-8.83-.11-13.24-.16h-.28v-.27c0-1.9.09-3.79.13-5.66Zm0,0,.14,5.65c0,1.86.11,3.71.13,5.54l-.27-.28c4.41-.05,8.82-.15,13.24-.16l13.24-.06-.5.5,0-11.19.45.44c-2.19,0-4.36,0-6.55-.05l-6.58-.11Z" style="fill:#ebebeb"/><path d="M419.56,350.74l13.13-.28,6.66-.12c2.23,0,4.46,0,6.69,0h.45v.45l.05,11.19v.5H446l-13.24-.06c-4.41,0-8.82-.11-13.24-.16h-.27v-.27c0-1.9.09-3.79.13-5.66Zm0,0,.15,5.65c0,1.86.11,3.7.13,5.54l-.28-.28c4.42,0,8.83-.16,13.24-.16l13.24-.06-.49.5.05-11.19.44.44c-2.18,0-4.35,0-6.54-.05l-6.58-.12Z" style="fill:#ebebeb"/><path d="M341,171.66l-13.12.28-6.66.12c-2.23,0-4.47,0-6.7.05h-.44v-.45L314,160.47V160h.5l13.24.06c4.41,0,8.83.11,13.24.16h.28v.26c0,1.9-.08,3.79-.13,5.66Zm0,0-.14-5.65c-.05-1.86-.11-3.7-.13-5.54l.27.28c-4.41.05-8.83.16-13.24.16l-13.24.06.5-.5,0,11.19-.45-.44c2.18,0,4.36,0,6.55.05l6.58.12Z" style="fill:#ebebeb"/><path d="M148.15,250.25l-13.13.27-6.66.12c-2.22,0-4.46,0-6.69.05h-.45v-.45l0-11.18v-.51h.51l13.24.06c4.41,0,8.82.11,13.24.16h.27v.27c0,1.89-.09,3.78-.13,5.65Zm0,0-.14-5.66c0-1.86-.12-3.7-.14-5.53l.28.27c-4.42,0-8.83.16-13.24.16l-13.24.06.5-.49-.06,11.18-.44-.44c2.18,0,4.35,0,6.54,0l6.58.12Z" style="fill:#ebebeb"/><path d="M326.24,185.77l-13.13.28-6.66.12c-2.22,0-4.46,0-6.69.05h-.44v-.45l-.05-11.19v-.5h.5l13.24.06c4.41,0,8.83.11,13.24.16h.27v.27c0,1.9-.08,3.79-.13,5.66Zm0,0-.14-5.65c-.05-1.86-.12-3.7-.13-5.54l.27.28c-4.41,0-8.83.16-13.24.16l-13.24.06.5-.5-.06,11.19-.44-.44c2.18,0,4.36,0,6.54,0l6.58.12Z" style="fill:#ebebeb"/><polygon points="327.75 107.52 412.88 91.83 401.69 35.91 316.57 51.6 327.75 107.52" style="fill:#ebebeb"/><polygon points="330.6 103.39 408.65 89 398.85 40.04 320.8 54.44 330.6 103.39" style="fill:#fff"/><path d="M330.93,68.39a8.72,8.72,0,0,0,10.15,6.78,8.43,8.43,0,0,0,6.83-9.91,8.72,8.72,0,0,0-10.15-6.78A8.43,8.43,0,0,0,330.93,68.39Z" style="fill:#dbdbdb"/><polygon points="354.85 98.99 408.61 89.08 374.61 58.24 354.85 98.99" style="fill:#ebebeb"/><polygon points="333.77 102.9 378.16 94.71 351.33 75.49 333.77 102.9" style="fill:#dbdbdb"/><polygon points="367.18 159.06 432.66 166.89 437.17 123.68 371.69 115.85 367.18 159.06" style="fill:#ebebeb"/><polygon points="370.19 156.69 430.23 163.87 434.17 126.04 374.13 118.86 370.19 156.69" style="fill:#fff"/><path d="M378.34,131.31a6.63,6.63,0,0,0,5.85,7.22,6.42,6.42,0,0,0,7.22-5.66,6.66,6.66,0,0,0-5.86-7.23A6.43,6.43,0,0,0,378.34,131.31Z" style="fill:#dbdbdb"/><polygon points="388.82 158.98 430.18 163.93 412.42 133.8 388.82 158.98" style="fill:#ebebeb"/><polygon points="372.61 157.06 406.75 161.14 391.58 141.09 372.61 157.06" style="fill:#dbdbdb"/><g id="freepik--xsrjP0--inject-55"><path d="M67.07,306c-1-.39-2-1.07-3.21-.7-.46.14-.44-.27-.49-.53-.95-4.63-1.88-9.25-2.83-13.88-.06-.33-.1-.61.23-.87,3.17-2.5,4-6.32,5.55-9.75a14.12,14.12,0,0,0,.44-11,1.4,1.4,0,0,1,.92-2,2.37,2.37,0,0,1,2.81.29,18.82,18.82,0,0,1,3.25,5.66c.56,1.71.28,3.55.41,5.33.1,1.3.06,2.62.08,4,.35.17.69,0,1-.09,3.91-.78,7.82-1.58,11.73-2.37,1.65-.33,2.55,0,3,1a3.19,3.19,0,0,1-1,3.74c-.26.2-.81.18-.76.64s.6.32.91.45c1.61.68,1.75,2.74.35,4.23-.34.35-1.13.38-1,1s.8.32,1.19.57c1.37.9,1.23,3.12-.31,4.32a4.54,4.54,0,0,0-.63.41c-.17.17-.33.35.1.54,1.94.87,2.24,2.56.79,4.13-.14.16-.29.31-.44.47a3.38,3.38,0,0,1-2,.87l-18.39,3.73A2.21,2.21,0,0,1,67.07,306Z" style="fill:#ebebeb;fill-rule:evenodd"/><path d="M48,301.34c-.6-2.94-1.18-5.88-1.8-8.82-.12-.59-.12-.9.61-1q5.4-1,10.76-2.18c.7-.15.86.07,1,.7q1.77,8.88,3.6,17.75c.16.75,0,1-.76,1.14-3.49.67-7,1.36-10.43,2.12-.86.19-1.05-.09-1.19-.85C49.21,307.22,48.59,304.28,48,301.34Z" style="fill:#ebebeb;fill-rule:evenodd"/></g><g id="freepik--xsrjp0--inject-55"><path d="M196.22,68.73c-.66-.61-1.18-1.4-2.19-1.49-.38,0-.24-.34-.2-.54q1-5.61,2.08-11.2c.05-.27.1-.49.43-.58,3.12-.91,4.88-3.51,7.08-5.6a11.34,11.34,0,0,0,3.64-8.08c0-.86.5-1.16,1.29-1.19a1.91,1.91,0,0,1,2,1.06,15.57,15.57,0,0,1,.71,5.2,17.69,17.69,0,0,1-1.3,4.09c-.32,1-.75,2-1.14,3,.22.23.53.19.79.24l9.46,1.77c1.33.25,1.91.75,1.93,1.67a2.58,2.58,0,0,1-1.88,2.48c-.26.07-.67-.12-.77.25s.35.41.54.6c1,1,.48,2.57-1,3.26-.36.17-1,0-1.06.41s.5.47.71.78c.75,1.09,0,2.7-1.52,3.13a3.75,3.75,0,0,0-.6.11c-.17.08-.35.17-.09.44,1.19,1.23.9,2.58-.65,3.31L214,72a2.77,2.77,0,0,1-1.73.06l-14.83-2.77A1.77,1.77,0,0,1,196.22,68.73Z" style="fill:#ebebeb;fill-rule:evenodd"/><path d="M183.39,59.52c.44-2.37.89-4.74,1.32-7.11.08-.48.18-.71.77-.59q4.32.85,8.67,1.62c.57.1.62.31.52.81-.9,4.77-1.8,9.54-2.66,14.32-.11.6-.31.74-.92.62-2.8-.55-5.6-1.08-8.41-1.56-.7-.12-.75-.38-.63-1C182.53,64.27,183,61.9,183.39,59.52Z" style="fill:#ebebeb;fill-rule:evenodd"/></g><g id="freepik--xsrjp0--inject-55"><path d="M83.26,220.5c.66-.61,1.18-1.4,2.19-1.49.38,0,.24-.34.21-.55q-1.05-5.6-2.09-11.19c0-.27-.1-.49-.43-.59-3.12-.9-4.88-3.5-7.08-5.59A11.35,11.35,0,0,1,72.42,193c0-.86-.5-1.17-1.29-1.2a1.93,1.93,0,0,0-2,1.07,15.54,15.54,0,0,0-.71,5.19,17.77,17.77,0,0,0,1.3,4.1c.32,1,.75,2,1.14,3-.22.23-.53.19-.79.24l-9.46,1.77c-1.33.25-1.91.75-1.93,1.67a2.56,2.56,0,0,0,1.88,2.47c.26.08.67-.11.77.26s-.35.41-.54.6c-1,1-.48,2.57,1,3.26.36.16,1,0,1.06.41s-.5.47-.71.78c-.75,1.08,0,2.7,1.53,3.13a3.84,3.84,0,0,1,.59.11c.18.08.35.16.09.44-1.19,1.23-.9,2.58.66,3.31l.46.22a2.7,2.7,0,0,0,1.73.05q7.41-1.37,14.83-2.76A1.81,1.81,0,0,0,83.26,220.5Z" style="fill:#ebebeb;fill-rule:evenodd"/><path d="M96.09,211.29c-.44-2.37-.89-4.74-1.32-7.11-.08-.48-.18-.71-.77-.59q-4.32.85-8.67,1.62c-.57.1-.62.31-.52.81.9,4.77,1.8,9.54,2.66,14.31.11.61.31.75.92.63,2.8-.56,5.6-1.09,8.41-1.56.7-.12.75-.39.63-1C97,216,96.53,213.67,96.09,211.29Z" style="fill:#ebebeb;fill-rule:evenodd"/></g></g><g id="freepik--Device--inject-55"><path d="M332.17,81.35H167.82a16.79,16.79,0,0,0-16.63,16.94V436.6a16.8,16.8,0,0,0,16.63,16.94H332.17a16.81,16.81,0,0,0,16.64-16.94V98.29A16.8,16.8,0,0,0,332.17,81.35Zm6.24,344.79c0,8.91-6.67,16.11-14.9,16.11h-147c-8.25,0-14.92-7.2-14.92-16.11v-315c0-18.14,6.67-19,14.92-19h29.45c1.71,0,3.11,1.94,3.11,4.35v1c0,5.65,3.09,5.67,6.89,5.67H284c3.83,0,6.91,0,6.91-5.67v-1c0-2.41,1.38-4.35,3.12-4.35h29.44c8.23,0,14.9,2.41,14.9,19Z" style="fill:#37474f"/><path d="M338.48,111.27V426.51c0,8.91-6.68,16.12-14.91,16.12H176.45c-8.25,0-14.92-7.21-14.92-16.12V111.27c0-18.15,6.67-19,14.92-19h29.47c1.71,0,3.11,1.94,3.11,4.35v1c0,5.66,3.09,5.68,6.9,5.68h68.15c3.83,0,6.9,0,6.9-5.68v-1c0-2.41,1.38-4.35,3.12-4.35h29.47C331.8,92.24,338.48,94.65,338.48,111.27Z" style="fill:#fff"/><path d="M338.47,111.27v23.52h-177V111.27c0-18.15,6.68-19,14.93-19h29.47c1.71,0,3.11,1.94,3.11,4.35v1c0,5.66,3.1,5.68,6.89,5.68h68.15c3.84,0,6.91,0,6.91-5.68v-1c0-2.41,1.38-4.35,3.12-4.35h29.47C331.8,92.24,338.47,94.65,338.47,111.27Z" style="fill:#ebebeb"/><polygon points="179.44 123.31 174.21 118.41 179.44 113.52 180.25 114.38 175.94 118.41 180.25 122.45 179.44 123.31" style="fill:#fff"/><path d="M324.77,115.36a1,1,0,1,1-1-1A1,1,0,0,1,324.77,115.36Z" style="fill:#fff"/><path d="M324.77,119a1,1,0,1,1-1-1A1,1,0,0,1,324.77,119Z" style="fill:#fff"/><path d="M324.77,122.68a1,1,0,1,1-1-1A1,1,0,0,1,324.77,122.68Z" style="fill:#fff"/><g id="freepik--u5Zjqx--inject-55"><path d="M200.83,99.32c-.09.09-.19.18-.28.28l-.16.16a3.87,3.87,0,0,0-5.49,0c-.05-.05-.11-.1-.16-.16l-.28-.28h0l0,0,.36-.32a4.58,4.58,0,0,1,.84-.53,4.2,4.2,0,0,1,1.1-.37l.55-.07h.48l.38,0a4.37,4.37,0,0,1,1,.24,4.32,4.32,0,0,1,.69.32,4.24,4.24,0,0,1,.65.46l.3.27Z" style="fill:#fff"/><path d="M195.8,100.66l-.45-.45a3.24,3.24,0,0,1,4.58,0l-.45.45a2.58,2.58,0,0,0-1.84-.76A2.55,2.55,0,0,0,195.8,100.66Z" style="fill:#fff"/><path d="M199,101.1c-.15.15-.29.3-.45.45a1.3,1.3,0,0,0-.94-.39,1.32,1.32,0,0,0-.94.39l-.45-.44A2,2,0,0,1,199,101.1Z" style="fill:#fff"/><path d="M198.05,102a.41.41,0,0,1-.41.4.4.4,0,0,1-.4-.4.41.41,0,0,1,.4-.41A.42.42,0,0,1,198.05,102Z" style="fill:#fff"/></g><path d="M173.07,100.18a1.17,1.17,0,1,1,1.17,1.17A1.17,1.17,0,0,1,173.07,100.18Z" style="fill:#fff"/><path d="M176.76,100.18a1.17,1.17,0,1,1,1.17,1.17A1.17,1.17,0,0,1,176.76,100.18Z" style="fill:#fff"/><path d="M180.45,100.18a1.18,1.18,0,1,1,1.18,1.17A1.18,1.18,0,0,1,180.45,100.18Z" style="fill:#fff"/><path d="M184.15,100.18a1.17,1.17,0,1,1,1.17,1.17A1.17,1.17,0,0,1,184.15,100.18Z" style="fill:#fff"/><path d="M187.84,100.18a1.18,1.18,0,1,1,1.17,1.17A1.17,1.17,0,0,1,187.84,100.18Z" style="fill:#fff"/><path d="M325.21,102.74h-9.56V98.31h9.56Zm-9.06-.5h8.56V98.81h-8.56Z" style="fill:#fff"/><rect x="316.45" y="99.07" width="6.15" height="2.92" style="fill:#fff"/><rect x="325.21" y="99.34" width="0.85" height="2.37" style="fill:#fff"/><polygon points="188.41 423.36 187.07 423.36 187.07 429.54 184.56 429.54 184.56 426.39 180.1 426.39 180.1 429.54 177.59 429.54 177.59 423.36 176.24 423.36 182.33 417.07 188.41 423.36" style="fill:#ebebeb"/><rect x="309.1" y="417.07" width="14.67" height="2.1" style="fill:#ebebeb"/><rect x="309.1" y="422.26" width="14.67" height="2.1" style="fill:#ebebeb"/><rect x="309.1" y="427.44" width="14.67" height="2.1" style="fill:#ebebeb"/><polygon points="254.18 422.47 250 426.92 245.84 422.47 246.57 421.78 250 425.45 253.44 421.78 254.18 422.47" style="fill:#ebebeb"/><path d="M250,431.52a7.58,7.58,0,1,1,7.58-7.57A7.58,7.58,0,0,1,250,431.52Zm0-14.15a6.58,6.58,0,1,0,6.58,6.58A6.58,6.58,0,0,0,250,417.37Z" style="fill:#ebebeb"/><path d="M320.68,371.69a2.48,2.48,0,0,1-.75.31,2.54,2.54,0,0,1-2-.31,2.6,2.6,0,0,1-1.15-1.58,2.58,2.58,0,1,1,3.87,1.58Z" style="fill:#dbdbdb"/><path d="M320.1,369.2a.79.79,0,1,1-.78-.78A.78.78,0,0,1,320.1,369.2Z" style="fill:#fff"/><path d="M320.68,371.37v.32a2.48,2.48,0,0,1-.75.31,2.54,2.54,0,0,1-2-.31v-.32a1.36,1.36,0,0,1,2.72,0Z" style="fill:#fff"/><path d="M187.9,178.21a9.6,9.6,0,0,1-10.07,0,9.58,9.58,0,1,1,10.07,0Z" style="fill:#dbdbdb"/><path d="M185.78,169a2.92,2.92,0,1,1-2.92-2.92A2.92,2.92,0,0,1,185.78,169Z" style="fill:#fff"/><path d="M187.9,177v1.21a9.6,9.6,0,0,1-10.07,0V177a5,5,0,0,1,10.07,0Z" style="fill:#fff"/><path d="M322.2,169.86a.48.48,0,0,1,.47.48.47.47,0,0,1-.94,0A.48.48,0,0,1,322.2,169.86Z" fill="#000000"/><path d="M323.65,169.86a.48.48,0,0,1,.47.48.47.47,0,0,1-.94,0A.48.48,0,0,1,323.65,169.86Z" fill="#000000"/><path d="M325.1,169.86a.49.49,0,0,1,.48.48.47.47,0,0,1-.48.46.46.46,0,0,1-.46-.46A.48.48,0,0,1,325.1,169.86Z" fill="#000000"/><polygon points="173.28 189.5 192.38 189.29 211.47 189.16 249.67 189.06 287.86 189.16 306.96 189.28 326.06 189.5 306.96 189.72 287.86 189.84 249.67 189.94 211.47 189.84 192.38 189.72 173.28 189.5" style="fill:#c7c7c7"/><path d="M173.28,193.55c9.27-.18,18.53-.27,27.79-.34l27.79-.1,27.8.1,13.89.12,13.9.22-13.9.22-13.89.12-27.8.1-27.79-.1C191.81,193.82,182.55,193.73,173.28,193.55Z" style="fill:#c7c7c7"/><path d="M173.28,197.6c6.19-.18,12.37-.27,18.56-.34s12.37-.07,18.56-.1,12.37,0,18.55.1l9.28.12c3.1.08,6.19.12,9.28.22-3.09.1-6.18.14-9.28.22l-9.28.12c-6.18.07-12.37.07-18.55.1s-12.38,0-18.56-.1S179.47,197.78,173.28,197.6Z" style="fill:#c7c7c7"/><path d="M173.28,205.7c10.87-.19,21.73-.27,32.6-.34l32.59-.11,32.6.1,16.29.13,16.3.22-16.3.21-16.29.13-32.6.1L205.88,206C195,206,184.15,205.88,173.28,205.7Z" style="fill:#fa5951"/><path d="M173.28,209.74c7.27-.18,14.53-.26,21.79-.34l21.79-.1,21.79.1,10.9.13,10.89.21-10.89.22-10.9.12-21.79.11-21.79-.11C187.81,210,180.55,209.93,173.28,209.74Z" style="fill:#fa5951"/><path d="M199.87,170.06c2.83-.21,5.67-.31,8.5-.39s5.66-.1,8.5-.11,5.66,0,8.49.11l4.25.14c1.42.08,2.83.13,4.25.25-1.42.11-2.83.16-4.25.24l-4.25.14c-2.83.09-5.66.1-8.49.11s-5.67,0-8.5-.11S202.7,170.26,199.87,170.06Z" style="fill:#263238"/><path d="M199.87,177c2.83-.21,5.67-.3,8.5-.38s5.66-.11,8.5-.12,5.66,0,8.49.12l4.25.14c1.42.08,2.83.13,4.25.24-1.42.11-2.83.16-4.25.25l-4.25.14c-2.83.09-5.66.1-8.49.11s-5.67,0-8.5-.12S202.7,177.25,199.87,177Z" style="fill:#c7c7c7"/><rect x="183.88" y="392.81" width="142" height="6.84" style="fill:#ebebeb"/><path d="M178.9,399.54a3.71,3.71,0,0,1-1.1.46,3.83,3.83,0,1,1,1.1-.46Z" style="fill:#dbdbdb"/><path d="M178.06,395.85a1.17,1.17,0,1,1-1.17-1.17A1.17,1.17,0,0,1,178.06,395.85Z" style="fill:#fff"/><path d="M178.9,399.06v.48a3.71,3.71,0,0,1-1.1.46,3.83,3.83,0,0,1-2.92-.46v-.48a2,2,0,0,1,4,0Z" style="fill:#fff"/><path d="M189.31,396.88h-1.24l-.25.65a.1.1,0,0,1-.09.06h0a.1.1,0,0,1-.06-.12l1-2.52a.1.1,0,0,1,.09-.06.1.1,0,0,1,.1.06l.94,2.52a.09.09,0,0,1-.05.12h0a.1.1,0,0,1-.09-.06Zm-1.18-.19h1.11l-.55-1.46Z" style="fill:#a6a6a6"/><path d="M191.71,397.22a.91.91,0,0,1-.73.37,1,1,0,0,1,0-1.91.89.89,0,0,1,.73.38V395a.1.1,0,0,1,.1-.09.09.09,0,0,1,.09.09v2.53a.1.1,0,0,1-.09.1.11.11,0,0,1-.1-.1Zm0-.55v-.06a.76.76,0,1,0,0,.06Z" style="fill:#a6a6a6"/><path d="M194.28,397.22a.92.92,0,0,1-.73.37,1,1,0,0,1,0-1.91.9.9,0,0,1,.73.38V395a.09.09,0,0,1,.1-.09.09.09,0,0,1,.09.09v2.53a.1.1,0,0,1-.09.1.1.1,0,0,1-.1-.1Zm0-.55v-.06a.76.76,0,1,0,0,.06Z" style="fill:#a6a6a6"/><path d="M198.09,395.78v1.71a.1.1,0,0,1-.09.1.11.11,0,0,1-.1-.1v-.28a.87.87,0,0,1-.71.38,1,1,0,0,1,0-1.91.87.87,0,0,1,.71.38v-.28a.1.1,0,0,1,.1-.1A.09.09,0,0,1,198.09,395.78Zm-.19.85a.74.74,0,0,0-.71-.76.77.77,0,1,0,.71.76Z" style="fill:#a6a6a6"/><path d="M199.93,396.63a1,1,0,0,1,1-.95,1,1,0,0,1,.61.21.09.09,0,0,1,0,.13.09.09,0,0,1-.13,0,.75.75,0,0,0-.49-.17.77.77,0,1,0,0,1.53.75.75,0,0,0,.49-.17.09.09,0,0,1,.13,0,.09.09,0,0,1,0,.14,1,1,0,0,1-.6.2A1,1,0,0,1,199.93,396.63Z" style="fill:#a6a6a6"/><path d="M203.05,395.68a1,1,0,0,1,0,1.91,1,1,0,0,1,0-1.91Zm0,1.72a.77.77,0,1,0-.72-.77A.75.75,0,0,0,203.05,397.4Z" style="fill:#a6a6a6"/><path d="M207.39,396.46a.59.59,0,0,0-1.18,0v1h0s0,0-.05.05H206v-1a.59.59,0,1,0-1.17,0v1a.08.08,0,0,1,0,.07h-.06a.18.18,0,0,1-.08-.07v-1.74a.09.09,0,0,1,.09-.09c.06,0,.1,0,.1.09V396a.75.75,0,0,1,.58-.27.76.76,0,0,1,.68.4.8.8,0,0,1,.69-.4.76.76,0,0,1,.77.77v1a.09.09,0,0,1-.18,0Z" style="fill:#a6a6a6"/><path d="M211.09,396.46a.59.59,0,0,0-1.18,0v1h0s0,0,0,.05h-.14v-1a.59.59,0,1,0-1.17,0v1a.08.08,0,0,1-.05.07h-.06a.18.18,0,0,1-.08-.07v-1.74a.09.09,0,0,1,.09-.09c.06,0,.1,0,.1.09V396a.75.75,0,0,1,.58-.27.76.76,0,0,1,.68.4.8.8,0,0,1,.69-.4.76.76,0,0,1,.77.77v1a.09.09,0,0,1-.18,0Z" style="fill:#a6a6a6"/><path d="M211.93,396.64a.92.92,0,1,1,1.84-.07h0a.09.09,0,0,1-.09.09h-1.56a.73.73,0,0,0,.73.73.71.71,0,0,0,.62-.35.1.1,0,0,1,.12,0,.1.1,0,0,1,0,.14.89.89,0,0,1-.77.43A.94.94,0,0,1,211.93,396.64Zm.2-.15h1.44a.74.74,0,0,0-.72-.62A.75.75,0,0,0,212.13,396.49Z" style="fill:#a6a6a6"/><path d="M215.8,396.46a.6.6,0,0,0-.59-.59.6.6,0,0,0-.59.59v1.05s0,0,0,0a.09.09,0,0,1-.07,0h0a.15.15,0,0,1-.06,0h0v-1.74a.09.09,0,0,1,.1-.09.09.09,0,0,1,.09.09V396a.75.75,0,0,1,.59-.27.77.77,0,0,1,.77.77v1a.09.09,0,1,1-.18,0Z" style="fill:#a6a6a6"/><path d="M217.48,395.78a.1.1,0,0,1-.09.09h-.24v1.39a.15.15,0,0,0,.14.14.1.1,0,0,1,0,.19.33.33,0,0,1-.34-.33v-1.39h-.24c-.09,0-.09-.05-.09-.09s0-.1.09-.1H217V395a.11.11,0,0,1,.09-.09.11.11,0,0,1,.11.09v.71h.24A.1.1,0,0,1,217.48,395.78Z" style="fill:#a6a6a6"/><path d="M218.53,397.2a.18.18,0,0,1,.19.19.19.19,0,0,1-.19.2.2.2,0,0,1-.2-.2A.19.19,0,0,1,218.53,397.2Z" style="fill:#a6a6a6"/><path d="M219.42,397.2a.19.19,0,0,1,.2.19.2.2,0,0,1-.2.2.19.19,0,0,1-.19-.2A.18.18,0,0,1,219.42,397.2Z" style="fill:#a6a6a6"/><path d="M220.32,397.2a.18.18,0,0,1,.19.19.19.19,0,0,1-.19.2.2.2,0,0,1-.2-.2A.19.19,0,0,1,220.32,397.2Z" style="fill:#a6a6a6"/><rect x="170.69" y="228.87" width="158.62" height="121.88" transform="translate(500 579.61) rotate(180)" style="fill:#ebebeb"/><path d="M191.17,258.12a10.64,10.64,0,1,0,8.35-8.35A10.64,10.64,0,0,0,191.17,258.12Z" style="fill:#fff"/><polygon points="214.67 325.02 329.31 325.02 271.99 270.82 214.67 325.02" style="fill:#fff"/><polygon points="170.69 325.07 265.34 325.07 218.01 289.78 170.69 325.07" style="fill:#dbdbdb"/><rect x="170.69" y="325.02" width="158.62" height="25.73" style="fill:#dbdbdb"/><path d="M173.17,369.27a3.7,3.7,0,1,1,4.48,2.72A3.69,3.69,0,0,1,173.17,369.27Z" style="fill:#455a64"/><g id="freepik--xsrjp0--inject-55"><path d="M176.29,369.94c-.1-.06-.18-.15-.31-.13s0,0,0-.06v-1.44a.07.07,0,0,1,0-.08,2.36,2.36,0,0,0,.74-.86,1.4,1.4,0,0,0,.26-1.08.15.15,0,0,1,.13-.18.24.24,0,0,1,.28.08,2.34,2.34,0,0,1,.21.63,2.5,2.5,0,0,1-.07.54,2.66,2.66,0,0,1-.07.39.17.17,0,0,0,.1,0h1.22c.17,0,.25.05.27.16a.32.32,0,0,1-.17.35s-.09,0-.09.05.05,0,.08.06.12.31-.05.43-.12,0-.12.07.07.05.11.08a.27.27,0,0,1-.12.42s-.05,0-.07,0,0,0,0,.06a.23.23,0,0,1,0,.42l-.06,0a.3.3,0,0,1-.21.05h-1.9A.22.22,0,0,1,176.29,369.94Z" style="fill:#fff;fill-rule:evenodd"/><path d="M174.48,369.1v-.91c0-.06,0-.09.08-.09h1.11c.07,0,.08,0,.08.09,0,.61,0,1.22,0,1.83,0,.08,0,.1-.1.1h-1.07c-.09,0-.11,0-.11-.11C174.49,369.71,174.48,369.41,174.48,369.1Z" style="fill:#fff;fill-rule:evenodd"/></g><rect x="173.23" y="378.94" width="152.65" height="0.25" style="fill:#ebebeb"/><rect x="173.23" y="150.04" width="152.65" height="0.25" style="fill:#ebebeb"/><rect x="173.23" y="388.43" width="152.65" height="0.25" style="fill:#ebebeb"/><rect x="173.23" y="415.02" width="152.65" height="0.25" style="fill:#ebebeb"/><path d="M210.92,385.37h0a.11.11,0,0,1-.11-.11v-2.9a.11.11,0,0,1,.22,0v2.79h1.49a.11.11,0,0,1,0,.22Z" style="fill:#a6a6a6"/><path d="M213.26,382.58a.11.11,0,0,1,.22,0v.11a.11.11,0,1,1-.22,0Zm0,.72a.11.11,0,1,1,.22,0v2a.11.11,0,1,1-.22,0Z" style="fill:#a6a6a6"/><path d="M214.51,382.36a.1.1,0,0,1,.1-.1c.07,0,.12,0,.12.1v2.1l1.28-1.29a.12.12,0,0,1,.16,0,.11.11,0,0,1,0,.15l-.84.84.84,1a.11.11,0,0,1,0,.16l-.07,0s-.07,0-.08,0l-.84-1-.44.44v.5a.11.11,0,0,1-.12.11.11.11,0,0,1-.1-.11Z" style="fill:#a6a6a6"/><path d="M216.73,384.28a1.06,1.06,0,0,1,2.11-.08h0a.1.1,0,0,1-.11.1H217a.86.86,0,0,0,.84.84.82.82,0,0,0,.7-.4.11.11,0,0,1,.14,0,.13.13,0,0,1,0,.16,1.06,1.06,0,0,1-.88.49A1.07,1.07,0,0,1,216.73,384.28Zm.23-.17h1.65a.84.84,0,0,0-.82-.71A.85.85,0,0,0,217,384.11Z" style="fill:#a6a6a6"/><g id="freepik--xsrjp0--inject-55"><path d="M201.42,385.87a.37.37,0,0,1-.25-.08l-.08-.05a.35.35,0,0,0-.21-.09.18.18,0,0,1-.14,0,.16.16,0,0,1,0-.15V383.7a.21.21,0,0,1,.12-.21,1.89,1.89,0,0,0,.67-.73c.06-.09.12-.19.19-.28a1.64,1.64,0,0,0,.3-1.23.29.29,0,0,1,.25-.36.4.4,0,0,1,.47.17,2.22,2.22,0,0,1,.27.8,1.51,1.51,0,0,1,0,.48c0,.07,0,.14,0,.21s0,.23,0,.34h1.45c.1,0,.4,0,.46.29a.52.52,0,0,1-.22.53.42.42,0,0,1,.12.28.55.55,0,0,1-.23.41h0a.4.4,0,0,1,.1.34.5.5,0,0,1-.24.35.39.39,0,0,1,.1.27.45.45,0,0,1-.21.36l-.07,0a.48.48,0,0,1-.32.08h-2.35Zm-.47-.47a.66.66,0,0,1,.29.14l.07,0,0,0s0,0,.11,0h2.32a.33.33,0,0,0,.19,0l.06-.05a.22.22,0,0,0,.11-.16.21.21,0,0,0-.1-.16.15.15,0,0,1-.08-.13.17.17,0,0,1,.08-.14l.08,0a.27.27,0,0,0,.17-.19.18.18,0,0,0,0-.13.21.21,0,0,1-.17-.19.21.21,0,0,1,.18-.18.27.27,0,0,0,.15-.21.11.11,0,0,0-.07-.11.18.18,0,0,1,0-.36.26.26,0,0,0,.16-.28c0-.05,0-.1-.22-.1H202.8a.29.29,0,0,1-.2,0l-.06-.05,0-.23.06-.32a1.85,1.85,0,0,1,0-.23,1.87,1.87,0,0,0,0-.4,2.55,2.55,0,0,0-.25-.72s-.1-.06-.19,0-.07,0-.07.08a1.81,1.81,0,0,1-.34,1.41l-.18.27a2,2,0,0,1-.75.81Zm0,.05-.12,0h.12Z" style="fill:#a6a6a6"/><path d="M199.16,386A.22.22,0,0,1,199,386a.26.26,0,0,1-.06-.19v-2.22a.22.22,0,0,1,.06-.18.21.21,0,0,1,.16-.06h1.36a.25.25,0,0,1,.17.06.24.24,0,0,1,.06.18v2.23a.21.21,0,0,1-.06.19.26.26,0,0,1-.18.06h-1.32Zm0-1.37v1.11h1.3v-2.22h-1.31v1.1Z" style="fill:#a6a6a6"/></g><path d="M287.58,382.21a1.63,1.63,0,0,1,1,.34.11.11,0,0,1,0,.16.1.1,0,0,1-.15,0,1.41,1.41,0,0,0-.87-.3,1.36,1.36,0,1,0,0,2.72,1.36,1.36,0,0,0,.86-.3.1.1,0,0,1,.15,0c.05,0,0,.11,0,.15a1.63,1.63,0,0,1-1,.34,1.58,1.58,0,1,1,0-3.16Z" style="fill:#a6a6a6"/><path d="M290.36,383.19a1.09,1.09,0,1,1-1,1.09A1.07,1.07,0,0,1,290.36,383.19Zm0,2a.88.88,0,1,0-.82-.88A.86.86,0,0,0,290.36,385.16Z" style="fill:#a6a6a6"/><path d="M295.33,384.08a.69.69,0,0,0-.68-.68.68.68,0,0,0-.67.68v1.19h0l-.06.06h-.11a0,0,0,0,1,0,0h0v0h0v-1.19a.67.67,0,1,0-1.34,0v1.19a.1.1,0,0,1-.05.08h-.07a.14.14,0,0,1-.09-.08v-2a.11.11,0,0,1,.1-.11.1.1,0,0,1,.11.11v.21a.85.85,0,0,1,.67-.32.88.88,0,0,1,.78.47.91.91,0,0,1,.78-.47.89.89,0,0,1,.89.89v1.19a.11.11,0,0,1-.11.1.1.1,0,0,1-.1-.1Z" style="fill:#a6a6a6"/><path d="M299.56,384.08a.68.68,0,1,0-1.35,0v1.19h0l-.06.06H298a0,0,0,0,1,0,0h0v0h0v-1.19a.67.67,0,1,0-1.34,0v1.19a.1.1,0,0,1,0,.08h-.07a.14.14,0,0,1-.09-.08v-2a.11.11,0,0,1,.1-.11.1.1,0,0,1,.11.11v.21a.85.85,0,0,1,.67-.32.88.88,0,0,1,.78.47.91.91,0,0,1,.78-.47.89.89,0,0,1,.89.89v1.19a.11.11,0,0,1-.11.1.1.1,0,0,1-.1-.1Z" style="fill:#a6a6a6"/><path d="M300.52,384.28a1.07,1.07,0,0,1,1.06-1.09,1.05,1.05,0,0,1,1,1h0a.09.09,0,0,1-.1.1h-1.79a.87.87,0,0,0,.85.84.85.85,0,0,0,.7-.4.11.11,0,0,1,.14,0,.13.13,0,0,1,0,.16,1.05,1.05,0,0,1-1.94-.6Zm.22-.17h1.65a.83.83,0,0,0-.81-.71A.86.86,0,0,0,300.74,384.11Z" style="fill:#a6a6a6"/><path d="M304.94,384.08a.67.67,0,0,0-.67-.67.69.69,0,0,0-.68.67v1.2a.08.08,0,0,1,0,.05.09.09,0,0,1-.08,0h0a.11.11,0,0,1-.07-.06h0v-2a.11.11,0,0,1,.11-.11.1.1,0,0,1,.1.11v.21a.9.9,0,0,1,.68-.32.88.88,0,0,1,.88.89v1.18a.11.11,0,0,1-.1.11.11.11,0,0,1-.11-.11Z" style="fill:#a6a6a6"/><path d="M306.87,383.3a.11.11,0,0,1-.11.1h-.28V385a.17.17,0,0,0,.16.16.12.12,0,0,1,.11.11.11.11,0,0,1-.11.11.37.37,0,0,1-.38-.38V383.4H306c-.11,0-.11,0-.11-.1s0-.11.11-.11h.27v-.81a.11.11,0,0,1,.22,0v.81h.28A.11.11,0,0,1,306.87,383.3Z" style="fill:#a6a6a6"/><path d="M278.48,385.63c-1.41,0-2.56-.86-2.56-1.92s1.15-1.91,2.56-1.91,2.55.86,2.55,1.91a1.48,1.48,0,0,1-.23.79l.4.91-1-.27A3,3,0,0,1,278.48,385.63Zm0-3.58c-1.27,0-2.31.74-2.31,1.66s1,1.67,2.31,1.67a2.82,2.82,0,0,0,1.6-.47l0,0,.65.17-.25-.56,0-.05a1.38,1.38,0,0,0,.22-.72C280.78,382.79,279.75,382.05,278.48,382.05Z" style="fill:#a6a6a6"/><path d="M173.72,146.58V143.8a.26.26,0,1,1,.52,0v1.13h1.22V143.8a.27.27,0,0,1,.53,0v2.78a.27.27,0,0,1-.53,0v-1.13h-1.22v1.13a.26.26,0,1,1-.52,0Z" style="fill:#c7c7c7"/><path d="M177.23,146.5a1.19,1.19,0,0,1-.32-.83,1.25,1.25,0,0,1,.32-.83,1.1,1.1,0,0,1,.81-.35,1.06,1.06,0,0,1,.79.35,1.21,1.21,0,0,1,.33.83,1.15,1.15,0,0,1-.33.83,1.07,1.07,0,0,1-.79.36A1.11,1.11,0,0,1,177.23,146.5Zm.19-.83a.76.76,0,0,0,.17.5.64.64,0,0,0,.45.17.6.6,0,0,0,.43-.17.74.74,0,0,0,0-1A.65.65,0,0,0,178,145a.7.7,0,0,0-.45.18A.75.75,0,0,0,177.42,145.67Z" style="fill:#c7c7c7"/><path d="M181.93,145.46v1.13a.25.25,0,0,1-.25.25.25.25,0,0,1-.25-.25v-1.13a.49.49,0,0,0-.49-.47.48.48,0,0,0-.47.49v1.15h0a0,0,0,0,1,0,0v0a.27.27,0,0,1-.24.15h0a.27.27,0,0,1-.21-.25v-1.11h0v-.73a.25.25,0,0,1,.25-.25.24.24,0,0,1,.23.14,1,1,0,0,1,.5-.14,1,1,0,0,0,1.48,0,1,1,0,0,1,1,1v1.11a.25.25,0,0,1-.25.25.25.25,0,0,1-.25-.25v-1.11a.49.49,0,0,0-1,0Z" style="fill:#c7c7c7"/><path d="M184.28,145.66a1.17,1.17,0,0,1,1.15-1.17,1.12,1.12,0,0,1,1.14,1.09v0s0,0,0,.05a.22.22,0,0,1-.24.18h-1.5a.69.69,0,0,0,.16.32.75.75,0,0,0,.94.09.27.27,0,0,1,.36,0,.21.21,0,0,1,0,.3,1.2,1.2,0,0,1-.85.31A1.17,1.17,0,0,1,184.28,145.66Zm.52-.23h1.33a.8.8,0,0,0-.7-.5A.66.66,0,0,0,184.8,145.43Z" style="fill:#c7c7c7"/><path d="M202.5,145.56h-.57v1a.27.27,0,0,1-.53,0V143.8a.26.26,0,0,1,.26-.26h.84a1,1,0,0,1,1,1A1,1,0,0,1,202.5,145.56Zm-.57-.52h.57a.49.49,0,1,0,0-1h-.57Z" style="fill:#fa5951"/><path d="M204.25,146.5a1.15,1.15,0,0,1-.33-.83,1.21,1.21,0,0,1,.33-.83,1.09,1.09,0,0,1,.81-.35,1,1,0,0,1,.78.35,1.16,1.16,0,0,1,.33.83,1.12,1.12,0,0,1-.33.83,1,1,0,0,1-.78.36A1.1,1.1,0,0,1,204.25,146.5Zm.19-.83a.81.81,0,0,0,.16.5.67.67,0,0,0,.46.17.63.63,0,0,0,.43-.17.71.71,0,0,0,.18-.5.71.71,0,0,0-.18-.49.69.69,0,0,0-.43-.18.73.73,0,0,0-.46.18A.8.8,0,0,0,204.44,145.67Z" style="fill:#fa5951"/><path d="M206.87,146.17a.24.24,0,0,1,.35,0,.9.9,0,0,0,.52.21.63.63,0,0,0,.32-.09c.06-.06.08-.1.08-.14s0,0,0-.05l-.06-.06a1.26,1.26,0,0,0-.38-.13h0a1.64,1.64,0,0,1-.41-.12.86.86,0,0,1-.33-.27.61.61,0,0,1-.08-.3.65.65,0,0,1,.28-.52,1,1,0,0,1,.58-.17,1.16,1.16,0,0,1,.7.26.25.25,0,1,1-.27.41.78.78,0,0,0-.43-.17.44.44,0,0,0-.28.08.13.13,0,0,0-.08.11.06.06,0,0,0,0,0s0,0,.05,0a.81.81,0,0,0,.34.12h0a1.51,1.51,0,0,1,.44.14.65.65,0,0,1,.43.59.67.67,0,0,1-.3.54,1.05,1.05,0,0,1-.61.19,1.35,1.35,0,0,1-.84-.32A.24.24,0,0,1,206.87,146.17Z" style="fill:#fa5951"/><path d="M210.43,144.75a.26.26,0,0,1-.26.25h-.12v1.32a.26.26,0,0,1,.26.26.26.26,0,0,1-.26.26.52.52,0,0,1-.52-.52V145h-.14a.26.26,0,1,1,0-.51h.14v-.69a.26.26,0,1,1,.52,0v.69h.12A.26.26,0,0,1,210.43,144.75Z" style="fill:#fa5951"/><path d="M211.14,146.17a.26.26,0,0,1,.36,0,.9.9,0,0,0,.52.21.63.63,0,0,0,.32-.09c.06-.06.08-.1.08-.14s0,0,0-.05l-.06-.06a1.26,1.26,0,0,0-.38-.13h0a1.93,1.93,0,0,1-.41-.12.83.83,0,0,1-.32-.27.61.61,0,0,1-.08-.3.65.65,0,0,1,.28-.52,1,1,0,0,1,.58-.17,1.16,1.16,0,0,1,.7.26.25.25,0,1,1-.27.41A.78.78,0,0,0,212,145a.48.48,0,0,0-.29.08.14.14,0,0,0-.07.11.06.06,0,0,0,0,0s0,0,.05,0a.81.81,0,0,0,.34.12h0a1.62,1.62,0,0,1,.44.14.65.65,0,0,1,.43.59.67.67,0,0,1-.3.54,1.05,1.05,0,0,1-.61.19,1.35,1.35,0,0,1-.84-.32A.25.25,0,0,1,211.14,146.17Z" style="fill:#fa5951"/><path d="M232.94,146.79l0,0a0,0,0,0,1,0,0s0,0,0,0h0l0,0-1.16-2.75a.26.26,0,0,1,.15-.34.25.25,0,0,1,.33.14l.92,2.18.92-2.18a.26.26,0,0,1,.34-.14.27.27,0,0,1,.14.34l-1.17,2.75a0,0,0,0,1,0,0h0s0,0,0,0h0l0,0h0l0,0H233l-.05,0Z" style="fill:#c7c7c7"/><path d="M235.77,143.9a.26.26,0,1,1-.51,0v-.1a.26.26,0,1,1,.51,0Zm0,.85v1.84a.26.26,0,0,1-.51,0v-1.84a.26.26,0,1,1,.51,0Z" style="fill:#c7c7c7"/><path d="M238.72,146.59a.26.26,0,0,1-.26.25.26.26,0,0,1-.25-.2,1.16,1.16,0,1,1-.64-2.15,1.12,1.12,0,0,1,.63.19v-.88a.26.26,0,0,1,.52,0v1.86h0ZM237.57,145a.61.61,0,0,0-.44.19.69.69,0,0,0,0,.95.61.61,0,0,0,.44.19.58.58,0,0,0,.44-.19.69.69,0,0,0,0-.95A.58.58,0,0,0,237.57,145Z" style="fill:#c7c7c7"/><path d="M239.46,145.66a1.15,1.15,0,0,1,1.15-1.17,1.11,1.11,0,0,1,1.13,1.09v.07a.22.22,0,0,1-.24.18H240a.61.61,0,0,0,.16.32.76.76,0,0,0,.45.21.8.8,0,0,0,.49-.12.26.26,0,0,1,.35,0,.21.21,0,0,1,0,.3,1.2,1.2,0,0,1-.84.31A1.16,1.16,0,0,1,239.46,145.66Zm.51-.23h1.34a.8.8,0,0,0-.7-.5A.67.67,0,0,0,240,145.43Z" style="fill:#c7c7c7"/><path d="M242.71,146.5a1.19,1.19,0,0,1-.32-.83,1.25,1.25,0,0,1,.32-.83,1.12,1.12,0,0,1,.81-.35,1,1,0,0,1,.79.35,1.21,1.21,0,0,1,.33.83,1.15,1.15,0,0,1-.33.83,1,1,0,0,1-.79.36A1.13,1.13,0,0,1,242.71,146.5Zm.19-.83a.76.76,0,0,0,.17.5.66.66,0,0,0,.45.17.64.64,0,0,0,.44-.17.71.71,0,0,0,.18-.5.71.71,0,0,0-.18-.49.7.7,0,0,0-.44-.18.72.72,0,0,0-.45.18A.75.75,0,0,0,242.9,145.67Z" style="fill:#c7c7c7"/><path d="M245.33,146.17a.26.26,0,0,1,.36,0,.9.9,0,0,0,.51.21.58.58,0,0,0,.32-.09c.07-.06.09-.1.09-.14a.06.06,0,0,0,0-.05l-.06-.06a1.08,1.08,0,0,0-.37-.13h0a1.77,1.77,0,0,1-.41-.12.76.76,0,0,1-.32-.27.61.61,0,0,1-.08-.3.67.67,0,0,1,.27-.52,1.06,1.06,0,0,1,.58-.17,1.17,1.17,0,0,1,.71.26.26.26,0,0,1,.08.34.25.25,0,0,1-.35.07.78.78,0,0,0-.44-.17.47.47,0,0,0-.28.08.14.14,0,0,0-.07.11.06.06,0,0,0,0,0s0,0,.05,0a.81.81,0,0,0,.34.12h0a1.62,1.62,0,0,1,.44.14.64.64,0,0,1,.33.28.56.56,0,0,1,.09.31.66.66,0,0,1-.29.54,1.06,1.06,0,0,1-.62.19,1.32,1.32,0,0,1-.83-.32A.25.25,0,0,1,245.33,146.17Z" style="fill:#c7c7c7"/><path d="M265.72,145.56h-.58v1a.26.26,0,1,1-.52,0V143.8a.26.26,0,0,1,.26-.26h.84a1,1,0,0,1,1,1A1,1,0,0,1,265.72,145.56Zm-.58-.52h.58a.49.49,0,1,0,0-1h-.58Z" style="fill:#c7c7c7"/><path d="M267.84,146.58a.26.26,0,0,1-.51.07.15.15,0,0,1,0-.07V143.8a.26.26,0,1,1,.52,0v.82a1.06,1.06,0,0,1,.5-.13,1,1,0,0,1,1,1v1.06a.25.25,0,0,1-.26.26.26.26,0,0,1-.26-.26v-1.06a.51.51,0,0,0-.51-.51.52.52,0,0,0-.5.51Z" style="fill:#c7c7c7"/><path d="M270.43,146.5a1.15,1.15,0,0,1-.33-.83,1.21,1.21,0,0,1,.33-.83,1.09,1.09,0,0,1,.81-.35,1,1,0,0,1,.78.35,1.16,1.16,0,0,1,.33.83,1.12,1.12,0,0,1-.33.83,1,1,0,0,1-.78.36A1.1,1.1,0,0,1,270.43,146.5Zm.18-.83a.81.81,0,0,0,.17.5.67.67,0,0,0,.46.17.63.63,0,0,0,.43-.17.71.71,0,0,0,.18-.5.71.71,0,0,0-.18-.49.69.69,0,0,0-.43-.18.73.73,0,0,0-.46.18A.81.81,0,0,0,270.61,145.67Z" style="fill:#c7c7c7"/><path d="M274.13,144.75a.26.26,0,0,1-.27.25h-.11v1.32a.26.26,0,0,1,.26.26.26.26,0,0,1-.26.26.52.52,0,0,1-.53-.52V145h-.13a.26.26,0,1,1,0-.51h.13v-.69a.27.27,0,0,1,.53,0v.69h.11A.26.26,0,0,1,274.13,144.75Z" style="fill:#c7c7c7"/><path d="M275.1,146.5a1.19,1.19,0,0,1-.32-.83,1.25,1.25,0,0,1,.32-.83,1.1,1.1,0,0,1,.81-.35,1,1,0,0,1,.79.35,1.21,1.21,0,0,1,.33.83,1.15,1.15,0,0,1-.33.83,1.05,1.05,0,0,1-.79.36A1.11,1.11,0,0,1,275.1,146.5Zm.19-.83a.76.76,0,0,0,.17.5.64.64,0,0,0,.45.17.6.6,0,0,0,.43-.17.74.74,0,0,0,0-1,.65.65,0,0,0-.43-.18.7.7,0,0,0-.45.18A.75.75,0,0,0,275.29,145.67Z" style="fill:#c7c7c7"/><path d="M277.72,146.17a.24.24,0,0,1,.35,0,1,1,0,0,0,.52.21.58.58,0,0,0,.32-.09c.07-.06.09-.1.09-.14a.06.06,0,0,0,0-.05l-.06-.06a1.16,1.16,0,0,0-.38-.13h0a1.64,1.64,0,0,1-.41-.12.86.86,0,0,1-.33-.27.61.61,0,0,1-.08-.3.68.68,0,0,1,.28-.52,1,1,0,0,1,.58-.17,1.17,1.17,0,0,1,.71.26.25.25,0,0,1,.07.34.24.24,0,0,1-.34.07.84.84,0,0,0-.44-.17.44.44,0,0,0-.28.08.16.16,0,0,0-.08.11.06.06,0,0,0,0,0,.1.1,0,0,0,.06,0,.81.81,0,0,0,.34.12h0a1.73,1.73,0,0,1,.44.14.68.68,0,0,1,.33.28.56.56,0,0,1,.09.31.67.67,0,0,1-.3.54,1.05,1.05,0,0,1-.61.19,1.35,1.35,0,0,1-.84-.32A.25.25,0,0,1,277.72,146.17Z" style="fill:#c7c7c7"/><path d="M294.75,145.15a1.72,1.72,0,0,1,1.73-1.7,1.74,1.74,0,0,1,1.08.37.27.27,0,0,1,.05.37.28.28,0,0,1-.38.06,1.14,1.14,0,0,0-.75-.26,1.23,1.23,0,0,0-.85.34,1.14,1.14,0,0,0,0,1.64,1.28,1.28,0,0,0,.85.34,1.16,1.16,0,0,0,.75-.26.28.28,0,0,1,.38,0,.27.27,0,0,1-.05.37,1.68,1.68,0,0,1-1.08.37A1.72,1.72,0,0,1,294.75,145.15Z" style="fill:#c7c7c7"/><path d="M298.65,146.5a1.15,1.15,0,0,1-.33-.83,1.21,1.21,0,0,1,.33-.83,1.09,1.09,0,0,1,.81-.35,1,1,0,0,1,.78.35,1.16,1.16,0,0,1,.33.83,1.12,1.12,0,0,1-.33.83,1,1,0,0,1-.78.36A1.1,1.1,0,0,1,298.65,146.5Zm.19-.83a.76.76,0,0,0,.17.5.65.65,0,0,0,.88,0,.74.74,0,0,0,0-1,.69.69,0,0,0-.43-.18.68.68,0,0,0-.45.18A.75.75,0,0,0,298.84,145.67Z" style="fill:#c7c7c7"/><path d="M303.35,145.46v1.13a.25.25,0,0,1-.25.25.26.26,0,0,1-.26-.25v-1.13a.48.48,0,0,0-.48-.47.49.49,0,0,0-.48.49v1.15h0l0,0v0a.25.25,0,0,1-.23.15h-.05a.27.27,0,0,1-.2-.25v-1.11h0v-.73a.24.24,0,0,1,.25-.25.22.22,0,0,1,.22.14,1,1,0,0,1,.51-.14,1,1,0,0,1,.74.32,1,1,0,0,1,.74-.32,1,1,0,0,1,1,1v1.11a.25.25,0,0,1-.25.25.26.26,0,0,1-.26-.25v-1.11a.48.48,0,0,0-.47-.49A.49.49,0,0,0,303.35,145.46Z" style="fill:#c7c7c7"/><path d="M307.83,145.46v1.13a.25.25,0,0,1-.25.25.25.25,0,0,1-.25-.25v-1.13a.48.48,0,0,0-.49-.47.49.49,0,0,0-.47.49v1.15h0a0,0,0,0,1,0,0v0a.27.27,0,0,1-.24.15h0a.27.27,0,0,1-.21-.25v-1.11h0v-.73a.25.25,0,0,1,.25-.25.24.24,0,0,1,.23.14,1,1,0,0,1,.5-.14,1,1,0,0,1,.74.32,1,1,0,0,1,.74-.32,1,1,0,0,1,1,1v1.11a.25.25,0,0,1-.25.25.25.25,0,0,1-.25-.25v-1.11a.49.49,0,0,0-1,0Z" style="fill:#c7c7c7"/><path d="M312.32,145.46v1.13a.25.25,0,0,1-.25.25.25.25,0,0,1-.25-.25v-1.13a.49.49,0,0,0-.49-.47.48.48,0,0,0-.47.49v1.15h0a0,0,0,0,1,0,0v0a.28.28,0,0,1-.24.15h-.05a.27.27,0,0,1-.2-.25v-1.11h0v-.73a.25.25,0,0,1,.48-.11,1,1,0,0,1,.5-.14,1,1,0,0,0,1.48,0,1,1,0,0,1,1,1v1.11a.25.25,0,0,1-.5,0v-1.11a.49.49,0,0,0-1,0Z" style="fill:#c7c7c7"/><path d="M315.77,146.84a1,1,0,0,1-1-1v-1.12a.25.25,0,0,1,.5,0v1.12a.47.47,0,0,0,.48.48.5.5,0,0,0,.5-.48v-1.12a.24.24,0,0,1,.24-.25.26.26,0,0,1,.26.25v1.12A1,1,0,0,1,315.77,146.84Z" style="fill:#c7c7c7"/><path d="M319.58,145.47v1.12a.25.25,0,1,1-.49,0v-1.12a.49.49,0,0,0-.49-.48.47.47,0,0,0-.47.48v1.12a.09.09,0,0,1,0,0,.27.27,0,0,1-.25.2.24.24,0,0,1-.25-.25v-1.85a.24.24,0,0,1,.25-.25.25.25,0,0,1,.23.14.92.92,0,0,1,.5-.14A1,1,0,0,1,319.58,145.47Z" style="fill:#c7c7c7"/><path d="M321,143.9a.26.26,0,0,1-.25.26.26.26,0,0,1-.26-.26v-.1a.26.26,0,0,1,.26-.26.26.26,0,0,1,.25.26Zm0,.85v1.84a.25.25,0,0,1-.25.25.26.26,0,0,1-.26-.25v-1.84a.26.26,0,0,1,.26-.26A.25.25,0,0,1,321,144.75Z" style="fill:#c7c7c7"/><path d="M322.89,144.75a.26.26,0,0,1-.26.25h-.12v1.32a.26.26,0,0,1,.26.26.25.25,0,0,1-.26.26.52.52,0,0,1-.52-.52V145h-.14a.26.26,0,1,1,0-.51H322v-.69a.26.26,0,0,1,.26-.26.26.26,0,0,1,.26.26v.69h.12A.26.26,0,0,1,322.89,144.75Z" style="fill:#c7c7c7"/><path d="M325.5,144.74v1.78a1.11,1.11,0,0,1-1.13,1.12,1.09,1.09,0,0,1-.48-.11.26.26,0,0,1-.13-.34.27.27,0,0,1,.34-.1.66.66,0,0,0,.27.06.62.62,0,0,0,.59-.43.87.87,0,0,1-.45.12,1,1,0,0,1-1-1v-1.11a.25.25,0,0,1,.24-.25.24.24,0,0,1,.25.25v1.11a.49.49,0,0,0,1,0v-1.11a.23.23,0,0,1,.24-.25A.25.25,0,0,1,325.5,144.74Z" style="fill:#c7c7c7"/><polygon points="323.58 368.9 325.95 368.9 324.76 370.35 323.58 368.9" style="fill:#c7c7c7"/><rect x="201.4" y="149.92" width="11.47" height="0.5" style="fill:#fa5951"/><rect x="188.03" y="112.65" width="123.95" height="12.08" style="opacity:0.1" fill="#000000"/><path d="M235.59,121.38l-1,.74-1.81-2.39-.66-.88a1.58,1.58,0,0,0,.38-.21,1.56,1.56,0,0,0,.5-.65l.7.93Z" style="fill:#fff"/><path d="M233.66,115.75a2.67,2.67,0,1,0-.86,4,2.92,2.92,0,0,0,.37-.24,2.66,2.66,0,0,0,.49-3.74Zm-1.14,2.89a1.63,1.63,0,0,1-2.24-.29,1.61,1.61,0,0,1,.3-2.24A1.6,1.6,0,0,1,233,118,1.56,1.56,0,0,1,232.52,118.64Z" style="fill:#fff"/><path d="M240.61,120a.48.48,0,0,1,.67-.06,3,3,0,0,0,1.76.7,1.91,1.91,0,0,0,1.14-.34.82.82,0,0,0,.4-.66.48.48,0,0,0-.09-.29.87.87,0,0,0-.27-.28,3.81,3.81,0,0,0-1.26-.43h0a5.09,5.09,0,0,1-1.18-.35,2,2,0,0,1-.85-.72,1.39,1.39,0,0,1-.21-.75,1.7,1.7,0,0,1,.73-1.34A2.73,2.73,0,0,1,243,115a3.55,3.55,0,0,1,2,.74.48.48,0,0,1,.13.65.47.47,0,0,1-.66.13,2.62,2.62,0,0,0-1.47-.58,1.77,1.77,0,0,0-1,.31.71.71,0,0,0-.35.58.39.39,0,0,0,.07.25.68.68,0,0,0,.24.24,3.21,3.21,0,0,0,1.15.41h0a5.34,5.34,0,0,1,1.26.38,2.16,2.16,0,0,1,.92.76,1.48,1.48,0,0,1,.22.78,1.76,1.76,0,0,1-.79,1.42,2.86,2.86,0,0,1-1.69.53,4,4,0,0,1-2.35-.92A.5.5,0,0,1,240.61,120Z" style="fill:#fff"/><path d="M246.51,119.27a2.27,2.27,0,0,1,2.24-2.29,2.19,2.19,0,0,1,2.21,2.13v0a.28.28,0,0,1,0,.09.44.44,0,0,1-.48.36h-2.91a1.15,1.15,0,0,0,.31.61,1.42,1.42,0,0,0,.88.41,1.44,1.44,0,0,0,.95-.23.52.52,0,0,1,.69,0,.41.41,0,0,1,0,.59,2.33,2.33,0,0,1-1.64.61A2.28,2.28,0,0,1,246.51,119.27Zm1-.45h2.6a1.52,1.52,0,0,0-1.36-1A1.29,1.29,0,0,0,247.51,118.82Z" style="fill:#fff"/><path d="M256.3,119.28v1.8a.49.49,0,0,1-.49.49.51.51,0,0,1-.48-.4,2,2,0,0,1-1.22.4,2.16,2.16,0,0,1-1.56-.67,2.36,2.36,0,0,1-.62-1.62,2.32,2.32,0,0,1,.62-1.61,2.09,2.09,0,0,1,2.78-.29.5.5,0,0,1,.48-.4.49.49,0,0,1,.49.5Zm-1,0a1.34,1.34,0,0,0-.35-.94,1.15,1.15,0,0,0-.86-.38,1.09,1.09,0,0,0-.85.38,1.34,1.34,0,0,0-.35.94,1.39,1.39,0,0,0,.35,1,1.15,1.15,0,0,0,.85.36,1.2,1.2,0,0,0,.86-.36A1.39,1.39,0,0,0,255.32,119.28Z" style="fill:#fff"/><path d="M260.92,117.47a.49.49,0,0,1-.49.48.89.89,0,0,0-.55.18,1.36,1.36,0,0,0-.42.44,2.92,2.92,0,0,0-.38.77v1.74a.5.5,0,0,1-1,0v-3.61a.5.5,0,0,1,1,0v.06a1.12,1.12,0,0,1,.2-.18,2,2,0,0,1,1.15-.36A.48.48,0,0,1,260.92,117.47Z" style="fill:#fff"/><path d="M261.57,119.28a2.33,2.33,0,0,1,2.33-2.3,2.45,2.45,0,0,1,1.46.5.5.5,0,0,1,.1.68.5.5,0,0,1-.69.1,1.43,1.43,0,0,0-.87-.3,1.37,1.37,0,0,0-1.36,1.32,1.35,1.35,0,0,0,1.36,1.31,1.44,1.44,0,0,0,.87-.29.5.5,0,0,1,.69.1.51.51,0,0,1-.1.68,2.58,2.58,0,0,1-1.46.49A2.32,2.32,0,0,1,261.57,119.28Z" style="fill:#fff"/><path d="M268.15,121.06a.51.51,0,0,1-1,0v-5.41a.51.51,0,0,1,1,0v1.6a2,2,0,0,1,3,1.74v2.07a.51.51,0,1,1-1,0V119a1,1,0,1,0-2,0Z" style="fill:#fff"/><path d="M259.29,96.09H240.71A1.14,1.14,0,0,1,239.56,95h0a1.14,1.14,0,0,1,1.15-1.15h18.58A1.14,1.14,0,0,1,260.43,95h0A1.14,1.14,0,0,1,259.29,96.09Z" style="fill:#263238"/></g><g id="freepik--marketing-icons--inject-55"><circle cx="321.09" cy="159.16" r="5.62" style="fill:#fa5951"/><path d="M306.4,171.64a5.63,5.63,0,1,1-5.63-5.63A5.63,5.63,0,0,1,306.4,171.64Z" style="fill:#fa5951"/><path d="M326.71,184.11a5.63,5.63,0,1,1-5.62-5.62A5.63,5.63,0,0,1,326.71,184.11Z" style="fill:#fa5951"/><polygon points="320.65 185.42 299.26 171.62 320.66 158.47 321.51 159.85 302.29 171.65 321.52 184.07 320.65 185.42" style="fill:#fa5951"/><g id="freepik--aiZGp2--inject-55"><path d="M280.07,222.19a24.73,24.73,0,0,0-1.65,7.54h-6.67v-.19c0-.17,0-.34.05-.51a18,18,0,0,1,.44-2.63,20,20,0,0,1,1.49-4.11.14.14,0,0,1,.16-.1h6.18Z" style="fill:#fa5951"/><path d="M279.87,239h-6.13a.14.14,0,0,1-.15-.1,19.5,19.5,0,0,1-1.83-7s0-.06,0-.08v-.19h6.56c.12,0,.11,0,.12.12,0,.53.07,1.07.13,1.6a19.61,19.61,0,0,0,.41,2.53,22.36,22.36,0,0,0,.87,3Z" style="fill:#fa5951"/><path d="M305.66,241l-.05.09a17.3,17.3,0,0,1-1.74,2.25,16.69,16.69,0,0,1-2.55,2.35,18,18,0,0,1-2.9,1.8,17.79,17.79,0,0,1-3.06,1.19,20.1,20.1,0,0,1-2.56.55l-.25,0h-.15l-.14-.09.16-.12a19.43,19.43,0,0,0,4.84-4.69,22.68,22.68,0,0,0,2-3.28.13.13,0,0,1,.15-.09h6.27Z" style="fill:#fa5951"/><path d="M299.53,229.72h-8.62V222.2h6.73a.12.12,0,0,1,.13.09,20.68,20.68,0,0,1,1.37,4.41,19.34,19.34,0,0,1,.33,2.39Z" style="fill:#fa5951"/><path d="M299.48,231.73c0,.18,0,.36,0,.53,0,.42-.07.84-.13,1.26-.08.58-.17,1.15-.28,1.72a19.78,19.78,0,0,1-1.12,3.68.14.14,0,0,1-.16.11h-6.9v-7.3Z" style="fill:#fa5951"/><path d="M289,222.24v7.54h-8.41l0-.57c.05-.42.08-.84.15-1.26.1-.64.21-1.28.35-1.91a19.39,19.39,0,0,1,1.21-3.71.14.14,0,0,1,.15-.09H289Z" style="fill:#fa5951"/><path d="M289,231.83V239h-6.72a.14.14,0,0,1-.15-.1,19.37,19.37,0,0,1-1.15-3.8c-.12-.67-.22-1.34-.3-2-.06-.44-.07-.89-.1-1.33v-.05h8.31C289,231.72,289,231.75,289,231.83Z" style="fill:#fa5951"/><path d="M308.66,229.78H301.6a24.5,24.5,0,0,0-1.64-7.59h6.58a.13.13,0,0,1,.15.09,18.34,18.34,0,0,1,1.63,4.72,21.58,21.58,0,0,1,.34,2.65Z" style="fill:#fa5951"/><path d="M308.67,231.68c0,.17,0,.33,0,.49a17.28,17.28,0,0,1-.23,1.9,18.41,18.41,0,0,1-1.3,4.24c-.09.22-.2.43-.29.65,0,0-.05.07-.11.07h-6.56l.24-.66a22.8,22.8,0,0,0,.87-3.44,22.06,22.06,0,0,0,.3-2.56c0-.2,0-.41,0-.61s0-.08.07-.07h7Z" style="fill:#fa5951"/><path d="M305.47,220.27v0h-6.27a.15.15,0,0,1-.15-.09,21.41,21.41,0,0,0-3.06-4.54,17.89,17.89,0,0,0-2.35-2.17c-.42-.32-.86-.62-1.29-.94l-.07-.05.08-.06a.93.93,0,0,0,0-.13,18.45,18.45,0,0,1,13.16,8Z" style="fill:#fa5951"/><path d="M287.77,249.15a.42.42,0,0,1-.18,0,15.83,15.83,0,0,1-2-.39,17.73,17.73,0,0,1-3.58-1.33,18.37,18.37,0,0,1-3.65-2.39,16.94,16.94,0,0,1-2.2-2.2,17.3,17.3,0,0,1-1.37-1.9s0,0,0-.05h5.85c.08,0,.11,0,.15.1a22,22,0,0,0,2.11,3.44,20.8,20.8,0,0,0,2.48,2.74,18.34,18.34,0,0,0,2.38,1.92Z" style="fill:#fa5951"/><path d="M287.7,212.5l-.87.64a22.07,22.07,0,0,0-2.79,2.59,20.05,20.05,0,0,0-2.92,4.17l-.15.29a.18.18,0,0,1-.09.06H275a18.34,18.34,0,0,1,12.68-7.89l0,.07Z" style="fill:#fa5951"/><path d="M297,241a19.93,19.93,0,0,1-2.85,3.84,17.92,17.92,0,0,1-3.25,2.76V241Z" style="fill:#fa5951"/><path d="M289,241v6.48a18.83,18.83,0,0,1-5.85-6.48Z" style="fill:#fa5951"/><path d="M296.76,220.24h-5.85v-6.17a17.73,17.73,0,0,1,3.29,2.75A20.47,20.47,0,0,1,296.76,220.24Z" style="fill:#fa5951"/><path d="M289,214.26v6h-5.62A17.92,17.92,0,0,1,289,214.26Z" style="fill:#fa5951"/></g><ellipse cx="373.32" cy="150.1" rx="18.45" ry="18.17" transform="translate(108.91 453.4) rotate(-70.82)" style="fill:#fa5951"/><path d="M387.51,149.87a14.45,14.45,0,0,1-14.1,14.6,14.11,14.11,0,0,1-14.29-14.13,14.45,14.45,0,0,1,14.1-14.6A14.11,14.11,0,0,1,387.51,149.87Z" style="fill:#fff"/><path d="M383.55,149.94a10.41,10.41,0,0,1-10.17,10.52,10.18,10.18,0,0,1-10.3-10.19,10.42,10.42,0,0,1,10.17-10.52A10.17,10.17,0,0,1,383.55,149.94Z" style="fill:#fa5951"/><path d="M379.55,150a6.35,6.35,0,0,1-6.19,6.41,6.19,6.19,0,0,1-6.27-6.2,6.33,6.33,0,0,1,6.19-6.41A6.19,6.19,0,0,1,379.55,150Z" style="fill:#fff"/><path d="M376.09,150.06a2.82,2.82,0,0,1-2.75,2.85,2.76,2.76,0,0,1-2.8-2.76,2.82,2.82,0,0,1,2.76-2.85A2.75,2.75,0,0,1,376.09,150.06Z" style="fill:#fa5951"/><polygon points="373.17 150.16 354.12 140.15 354.26 139.87 373.32 149.89 373.17 150.16" style="fill:#263238"/><polygon points="352.99 140.63 353.06 140.6 354.29 140.23 351.88 138.97 350.57 139.37 352.99 140.63" style="fill:#263238"/><path d="M351.59,137.43l.43,1.27,2.41,1.25a5.85,5.85,0,0,1-.43-1.26Z" style="fill:#263238"/><polygon points="373.9 149.79 373.4 150.7 372.06 150.58 372.94 149.86 373.03 148.73 373.9 149.79" style="fill:#263238"/><rect x="413.74" y="165.95" width="3.56" height="22.88" style="fill:#fa5951"/><rect x="419.86" y="169.76" width="3.56" height="19.08" style="fill:#fa5951"/><rect x="425.97" y="176.69" width="3.56" height="12.14" style="fill:#fa5951"/><rect x="432.09" y="169.42" width="3.56" height="19.41" style="fill:#fa5951"/><rect x="438.2" y="172.61" width="3.56" height="16.22" style="fill:#fa5951"/><rect x="444.32" y="162.76" width="3.56" height="26.07" style="fill:#fa5951"/><path d="M411.68,161.18l0,6.91,0,6.91,0,13.83-.09-.11c8.64,0,17.28,0,25.93,0l7.21,0,6.39.07-6.39.07-7.21,0c-8.65,0-17.29.06-25.93,0h-.09v-.11l0-13.83,0-6.91Z" style="fill:#263238"/><path d="M410.89,162.76a2.41,2.41,0,0,1,.79-.12,2.12,2.12,0,0,1,.78.12,2.13,2.13,0,0,1-.78.13A2.18,2.18,0,0,1,410.89,162.76Z" style="fill:#263238"/><path d="M410.89,165.51a2.42,2.42,0,0,1,.79-.13,2.36,2.36,0,0,1,.78.13,2.36,2.36,0,0,1-.78.13A2.42,2.42,0,0,1,410.89,165.51Z" style="fill:#263238"/><path d="M410.89,168.25a2.17,2.17,0,0,1,.79-.12,2.12,2.12,0,0,1,.78.12,2.13,2.13,0,0,1-.78.13A2.18,2.18,0,0,1,410.89,168.25Z" style="fill:#263238"/><path d="M410.89,171a2.42,2.42,0,0,1,.79-.13,2.13,2.13,0,0,1,.78.13,2.36,2.36,0,0,1-.78.13A2.42,2.42,0,0,1,410.89,171Z" style="fill:#263238"/><path d="M410.89,173.74a2.42,2.42,0,0,1,.79-.13,2.36,2.36,0,0,1,.78.13,2.13,2.13,0,0,1-.78.13A2.42,2.42,0,0,1,410.89,173.74Z" style="fill:#263238"/><path d="M410.89,176.49a2.18,2.18,0,0,1,.79-.13,2.13,2.13,0,0,1,.78.13,2.12,2.12,0,0,1-.78.12A2.17,2.17,0,0,1,410.89,176.49Z" style="fill:#263238"/><path d="M410.89,179.23a2.42,2.42,0,0,1,.79-.13,2.36,2.36,0,0,1,.78.13,2.36,2.36,0,0,1-.78.13A2.42,2.42,0,0,1,410.89,179.23Z" style="fill:#263238"/><path d="M410.89,182a2.18,2.18,0,0,1,.79-.13,2.13,2.13,0,0,1,.78.13,2.12,2.12,0,0,1-.78.12A2.41,2.41,0,0,1,410.89,182Z" style="fill:#263238"/><path d="M410.89,184.72a2.42,2.42,0,0,1,.79-.13,2.36,2.36,0,0,1,.78.13,2.36,2.36,0,0,1-.78.13A2.42,2.42,0,0,1,410.89,184.72Z" style="fill:#263238"/><path d="M322,263c-.15-.3-.29-.61-.42-.91l.45-.21.42.91Z" style="fill:#fa5951"/><path d="M320.8,260.21c-.25-.63-.5-1.26-.73-1.9l.47-.17c.23.63.47,1.26.72,1.88Zm-1.4-3.82c-.21-.64-.41-1.29-.6-1.94l.48-.14c.19.65.39,1.29.6,1.93Zm-1.13-3.9c-.16-.65-.32-1.31-.46-2l.49-.1c.14.66.29,1.31.46,2Zm-.86-4c-.12-.67-.23-1.33-.32-2l.49-.07c.1.67.21,1.33.32,2Zm-.58-4c-.08-.67-.14-1.35-.19-2l.5,0c.05.67.11,1.34.19,2Zm-.31-4.05c0-.68,0-1.35,0-2h.5c0,.68,0,1.35,0,2Zm.47-4-.5,0c0-.67.05-1.35.09-2l.5,0C317,235.05,317,235.72,317,236.4Zm.25-4-.5,0c.06-.68.14-1.35.22-2l.5.06C317.37,231,317.3,231.71,317.24,232.38Zm.51-4-.49-.08c.11-.67.23-1.34.36-2l.49.1Q317.92,227.39,317.75,228.38Zm.79-3.95-.48-.12c.15-.66.32-1.31.5-2l.48.13C318.86,223.12,318.7,223.78,318.54,224.43Zm1.06-3.89-.47-.14c.2-.65.41-1.3.64-1.94l.47.16C320,219.26,319.81,219.9,319.6,220.54Zm1.34-3.81-.47-.18c.25-.64.51-1.26.77-1.89l.46.2C321.44,215.48,321.18,216.1,320.94,216.73Zm1.59-3.71-.45-.21q.44-.93.9-1.83l.44.23C323.12,211.81,322.82,212.41,322.53,213Zm1.85-3.59-.44-.25c.33-.59.67-1.17,1-1.75l.43.25C325,208.26,324.71,208.84,324.38,209.43Zm2.08-3.45-.42-.28q.57-.85,1.14-1.68l.41.29C327.21,204.86,326.83,205.41,326.46,206Zm2.32-3.3-.4-.3c.41-.55.83-1.08,1.26-1.61l.39.32C329.6,201.61,329.19,202.14,328.78,202.68Zm2.54-3.14-.38-.32c.45-.51.9-1,1.36-1.51l.37.33Q332,198.79,331.32,199.54Zm87.45-1.2c-.46-.5-.92-1-1.39-1.47l.36-.35c.47.49.94,1,1.4,1.48Zm-84.7-1.75-.36-.35c.48-.48,1-1,1.46-1.41l.34.36C335,195.65,334.54,196.12,334.07,196.59Zm81.87-1.13c-.48-.46-1-.92-1.48-1.36l.33-.38q.76.67,1.5,1.38ZM337,193.84l-.33-.38c.51-.44,1-.88,1.56-1.31l.31.39Zm75.93-1.05c-.52-.43-1-.85-1.57-1.26l.3-.4c.54.42,1.07.84,1.59,1.27Zm-72.81-1.5-.3-.39c.54-.41,1.08-.81,1.64-1.21l.29.41C341.2,190.49,340.66,190.89,340.12,191.29Zm69.62-1c-.55-.4-1.1-.78-1.66-1.15l.28-.42c.56.38,1.12.76,1.67,1.16ZM343.41,189l-.28-.42,1.72-1.09.26.43C344.54,188.24,344,188.6,343.41,189Zm63-.88c-.57-.36-1.14-.7-1.73-1l.25-.44c.59.34,1.17.69,1.75,1Zm-59.54-1.22-.24-.43c.58-.33,1.18-.66,1.78-1l.23.45C348,186.23,347.42,186.54,346.84,186.87Zm56.05-.78c-.6-.32-1.2-.62-1.81-.91l.22-.45c.61.29,1.22.6,1.82.91ZM350.41,185l-.22-.45c.61-.29,1.23-.57,1.85-.84l.2.46C351.62,184.45,351,184.73,350.41,185Zm48.85-.69q-.93-.41-1.86-.78l.18-.47c.63.25,1.26.52,1.88.79Zm-45.17-.91-.18-.47,1.9-.71.17.47C355.35,182.94,354.72,183.17,354.09,183.42Zm41.42-.59c-.63-.23-1.26-.45-1.91-.65l.16-.48q1,.31,1.92.66Zm-37.62-.76-.15-.48q1-.3,1.95-.57l.13.48C359.17,181.68,358.53,181.87,357.89,182.07Zm33.78-.48c-.64-.18-1.29-.36-1.94-.52l.11-.49c.66.17,1.32.34,2,.53Zm-29.9-.6-.12-.49,2-.44.1.49C363.08,180.69,362.42,180.83,361.77,181Zm26-.37c-.66-.14-1.32-.27-2-.38l.08-.5c.67.12,1.34.25,2,.39Zm-22-.44-.09-.49c.67-.12,1.34-.22,2-.31l.07.5C367,180,366.38,180.07,365.72,180.18Zm18.06-.26c-.66-.09-1.33-.17-2-.24l.05-.5c.68.07,1.35.15,2,.25Zm-14.07-.28,0-.49c.67-.07,1.35-.13,2-.17l0,.5C371.05,179.52,370.38,179.58,369.71,179.64Zm10.06-.14c-.66-.05-1.34-.08-2-.11l0-.5c.68,0,1.35.06,2,.11Zm-6-.12,0-.5,1.87,0h.17v.5h-.17C375,179.35,374.35,179.36,373.73,179.38Z" style="fill:#fa5951"/><path d="M420.78,200.64l-.65-.76.38-.33c.22.25.44.51.65.77Z" style="fill:#fa5951"/><path d="M316.72,233.21h-2v-.5h2Zm-4,0h-1.59v-.5h1.59Z" style="fill:#fa5951"/><path d="M333.93,196.38,332.51,195l.36-.35,1.41,1.41Zm-2.83-2.82-1.42-1.42.36-.35,1.41,1.41Z" style="fill:#fa5951"/><path d="M417.24,196.38l-.36-.35,1.42-1.41.35.35Zm2.83-2.82-.36-.36,1.42-1.41.35.35Z" style="fill:#fa5951"/><path d="M375.83,179.1h-.5v-2h.5Zm0-4h-.5v-2h.5Z" style="fill:#fa5951"/></g><g id="freepik--social-media-icons--inject-55"><circle cx="172.41" cy="89.66" r="19.42" transform="translate(45.39 236.73) rotate(-76.66)" style="fill:#fa5951"/><polygon points="165.17 97.12 165.17 82.2 182.95 89.66 165.17 97.12" style="fill:#fff"/><circle cx="127.07" cy="69.9" r="26.22" style="fill:#455a64"/><path d="M126.43,62.64c-.06,1.66,0,3.35,0,5.16h6.52c-.28,2.14-.52,4.13-.84,6.09,0,.2-.51.44-.79.46-1.57,0-3.14,0-4.85,0V96.09A25.51,25.51,0,0,1,119.54,95V74.41h-5.7V67.86h5.58c0-.5.06-.9.06-1.27,0-1.73,0-3.46.14-5.16.36-3.76,2.66-6.4,6.38-6.91a52.7,52.7,0,0,1,7.12-.06v5.95c-.85,0-1.72,0-2.58,0a10.85,10.85,0,0,0-2.28.16A2.15,2.15,0,0,0,126.43,62.64Z" style="fill:#fff"/><circle cx="190.5" cy="135.69" r="26.22" style="fill:#455a64"/><path d="M176.18,148a14.68,14.68,0,0,0,9.45-2.91c-3.91-1.19-5.47-2.38-6-4.6l2.62-.13c-3.09-1.19-4.9-3.26-5.14-6.64l2.7.71c-2.83-3.56-3.4-6.32-1.71-8.89a19.47,19.47,0,0,0,13.85,6.92c0-.44,0-.77-.06-1.1a6.38,6.38,0,0,1,3.71-6.41,6.44,6.44,0,0,1,7.36.89,1.34,1.34,0,0,0,1.49.3l3.27-1.2a6.67,6.67,0,0,1-2.57,3.3l.07.19,3.24-.83.13.13c-.84.84-1.64,1.72-2.52,2.51a1.72,1.72,0,0,0-.71,1.45,19,19,0,0,1-17.25,19,19.19,19.19,0,0,1-11.25-2.29C176.61,148.27,176.4,148.13,176.18,148Z" style="fill:#fff"/><circle cx="170.74" cy="181.03" r="19.39" transform="translate(-42.02 310.1) rotate(-77.92)" style="fill:#fa5951"/><path d="M182.3,174.65a4.85,4.85,0,0,0-5.1-5.21q-6.47-.08-12.95,0a4.84,4.84,0,0,0-5.07,5.1c0,2.15,0,4.31,0,6.46s0,4.22,0,6.33c0,3.21,2,5.27,5.18,5.3q6.41.08,12.81,0a4.9,4.9,0,0,0,5.14-5.2Q182.33,181,182.3,174.65Zm-2.06,12.82a2.83,2.83,0,0,1-3.09,3.11q-6.41,0-12.81,0a2.81,2.81,0,0,1-3.09-3.1q0-6.45,0-12.92a2.84,2.84,0,0,1,3.08-3.12q6.4,0,12.81,0a2.85,2.85,0,0,1,3.1,3.11c0,2.16,0,4.31,0,6.46S180.26,185.32,180.24,187.47Z" style="fill:#fff"/><path d="M170.75,175a6,6,0,1,0,6,6.13A6,6,0,0,0,170.75,175ZM170.68,185a4.09,4.09,0,0,1-4-4,4,4,0,0,1,8.06,0A4.09,4.09,0,0,1,170.68,185Z" style="fill:#fff"/><path d="M178.59,174.82a1.38,1.38,0,0,1-2.75-.25,1.33,1.33,0,0,1,1.45-1.29A1.36,1.36,0,0,1,178.59,174.82Z" style="fill:#fff"/></g></svg>