<svg xmlns="http://www.w3.org/2000/svg" viewBox="0 0 770 128">
   <path fill="#2a2e30"
      d="M29.74729 127.49213V.01866787H0V127.49213Zm223.34855.00003c40.0372 0 63.33155-26.90029 62.84625-69.553011H251.8826v22.538084h32.51505c-3.39709 13.328974-15.28691 21.084027-31.54445 21.084027-19.65461 0-36.15478-13.571331-36.15478-37.805833 0-23.507465 16.50017-37.805818 36.15478-37.805818 15.04428 0 26.69146 7.028004 32.51503 18.902909h28.8753C309.14791 16.255807 279.30201.01869225 253.8238.01869225c-36.15478 0-65.27274 28.35436475-65.27274 63.73673475-.24263 35.140027 29.11796 63.736733 64.54478 63.736733zm120.63965-.00003V84.831693h19.06875l22.37403 42.660437h34.06955L421.7888 80.260933c14.74652-6.348282 24.15377-19.806636 24.15377-37.32789 0-25.393121-19.06876-42.91437513-46.01931-42.91437513H343.9882V127.49213Zm0-101.064617h25.17078c9.66151 0 17.54325 7.617938 17.54325 16.50553 0 9.903319-7.6275 17.013391-17.54325 17.013391h-25.17078ZM610.00538 127.49213 557.6298.01866787h-27.96751L477.28671 127.49213h31.52702l8.13603-20.82234h53.13831l8.13602 20.82234zm-67.37634-85.06695.7627-3.808968h.25426l.76281 3.808968 15.76351 39.867203h-33.56105zm125.16233 85.06695V47.249874l32.2898 46.21548h7.37326l32.79829-45.707616V128H770V.01866787h-25.93351L703.89492 54.86781 664.23186.01866787h-26.18778V127.49213Zm-528.5521-54.798732L59.022266 0v33.53111l104.820294 94.45022V3.3275146h-24.60329z" />
   <path fill="#ff5757" d="M96.696065 125.16574H59.022266l18.708757-44.281537Z" />
</svg>
