<svg xmlns="http://www.w3.org/2000/svg" viewBox="0 0 491.9 512">
   <path fill="#08a3c1"
      d="M.1 319c-.5-12.9 6-23.5 14.5-32.6 16.7-17.6 33.7-35 51-52 27.4-27.6 54.9-55.2 83-82.1 29.7-28.6 53.5-29 83.9-.9 29.5 27.4 57.6 56.3 86.5 84.2 7.6 7.4 7 13 0 20.6-26.7 29.1-41.6 29.8-69.3 1.7a212.1 212.1 0 0 1-19.3-21.5c-14.8-20-55.1-22.5-74.1-3.5-17.2 17.2-34.7 34-51.4 51.5-15.4 16.3-19.8 40-7.8 58.5 18.6 28.5 43.8 51.5 71 71.9 19.8 15 39 8.3 55.8-5.5 11.5-9.4 21.6-20.7 31.6-31.8a38.7 38.7 0 0 1 45.3-7.5c2.7 1.6 5.3 3.6 7.7 5.7 20.3 18.3 20.2 20.4.7 39.6-26.6 26.3-54 51.8-79 79.5a53 53 0 0 1-75.8 2.4c-19.4-19-38.4-38.2-57.5-57.3l-77.5-78C8 350.1-1 337 .1 318.8Z" />
   <path fill="#08a3c1"
      d="M451 323.5a37 37 0 0 1-12 22.6l-46.6 46.5a27.8 27.8 0 0 1-40.4.3 449 449 0 0 1-23.7-25c-21.2-24-61.2-33.8-90-1.7-7 7.8-14.1 15.3-21 23.2-13.8 16-31.1 16.6-46.4 1.9a3717.6 3717.6 0 0 1-47-46.3c-14.1-14.1-13.6-30.2.9-44.5l44-43.3c17.5-17.1 34.7-16.6 50.6 1.8 10.5 12.2 20.4 24.8 33.6 34.3a52.4 52.4 0 0 0 58.1 1c13.8-8.8 24-21 33.7-33.7 7.8-10.4 4.7-20.6-3.3-30-9.4-10.9-22.6-17-33.2-26.3-4.5-4-9-8-13.2-12-7.5-7.4-8-15.4-1-23.2a208.3 208.3 0 0 1 30.3-29.8c9.1-7 18-8.7 26.3 1.4 3 3.5 7 6 10 9.3 21.5 23 40.8 22.9 61.3-.6 19.9-22.8 23.5-23 45.3-1.4 6.6 6.5 13.1 12.9 19 19.8 7.4 8.5 7.6 17.1-.6 25.6-9.7 10.1-20.6 19-29.8 29.6-6.5 7.4-15.6 6.9-23.2-.4a857.1 857.1 0 0 1-16.8-16.1c-11-10.7-24-12.4-38.3-9.2-8.1 1.8-14.3 6.2-17.1 14.3-3 8.6 2.5 14 8 18.9a909 909 0 0 1 72 71.3 37.2 37.2 0 0 1 10.5 21.7zM442.9 0c11.4 0 31 18.9 30.4 29.3-.5 10-23.2 33.2-32.2 32.7-7-.3-30.7-25.5-30.8-32.7-.1-10 21.4-29.4 32.6-29.3z" />
</svg>
