<svg xmlns="http://www.w3.org/2000/svg" viewBox="0 0 1000.7 283.9">
	<path fill="#fff"
		d="M361.1 51v24.8h44.3v24h-44.3v46.8h-27.3V26.2h75.3V51zm64.1 95.5V26.2h27.9v120.3zm122.4 0-46-78.7h-.5l.7 78.7H475V26.2h31.5l45.8 78.5h.5l-.6-78.5H579v120.3zM649.9 51v95.5h-27.6V51H590V26.2h92.1V51zm43.3 95.5V26.2H770v24.4h-50.2v22.8h47.5v23.3h-47.5v25h53.1v24.9Zm178.2-2q-11 5.3-25.6 5.3a64 64 0 0 1-24.5-4.6 57.2 57.2 0 0 1-19.5-13 60.5 60.5 0 0 1-12.9-20.2 69 69 0 0 1-4.7-25.8A69 69 0 0 1 789 60a57.2 57.2 0 0 1 32.9-32.6 67.3 67.3 0 0 1 48.2 0 45.5 45.5 0 0 1 19 13.2l-18.7 19.7a23.4 23.4 0 0 0-10.3-8.3 32.3 32.3 0 0 0-13-2.7 31 31 0 0 0-23.7 10.5 35.6 35.6 0 0 0-6.7 11.7 43 43 0 0 0-2.5 14.7 44.3 44.3 0 0 0 2.5 15 35.2 35.2 0 0 0 6.7 11.6 30.2 30.2 0 0 0 10.2 7.6 31.2 31.2 0 0 0 13 2.7 29.2 29.2 0 0 0 14.5-3.4 28.3 28.3 0 0 0 9.8-8.8l19.2 19a54.7 54.7 0 0 1-18.6 14.5zm101.1 2V96.2h-44.4v50.4h-27.6V26.2h27.6v45.4h44.5V26.1h27.7v120.3zm-638.6 34.4h24.4a48.3 48.3 0 0 1 9.3.9 26.2 26.2 0 0 1 8.5 3.2 18 18 0 0 1 6.1 6 18.2 18.2 0 0 1 2.4 9.8 15.9 15.9 0 0 1-4 10.7 18.7 18.7 0 0 1-10.5 6v.2a22 22 0 0 1 13.2 5.9q5.2 5 5.2 13.6a18.6 18.6 0 0 1-2.1 8.8 19.7 19.7 0 0 1-6 6.9 29.7 29.7 0 0 1-9.6 4.3 48.1 48.1 0 0 1-12.7 1.6h-24.2zm8.3 34h16.9a28.7 28.7 0 0 0 6-.6 17.3 17.3 0 0 0 5.6-2.2 12.3 12.3 0 0 0 4.1-4.3 12.6 12.6 0 0 0 1.6-6.5 12 12 0 0 0-1.6-6.3 12.6 12.6 0 0 0-4.2-4.2 18.7 18.7 0 0 0-6.2-2.4 39 39 0 0 0-7.7-.7h-14.4zm0 37h15.5a43.6 43.6 0 0 0 8.6-.8 22.8 22.8 0 0 0 7.2-2.6 14.4 14.4 0 0 0 4.9-4.7 12.8 12.8 0 0 0 1.8-7q0-7.7-5.5-11.5t-15.5-3.8h-17zm104.6-.2h43.8v7h-52v-77.8h50.5v7h-42.4v26.7h39.7v7h-39.7zm99.6 0h38.1v7h-46.4v-77.8h8.3zm136.7-56.8a29.9 29.9 0 0 0-10.1-6.6 36 36 0 0 0-13.5-2.4 35 35 0 0 0-14.2 2.8 32 32 0 0 0-10.7 7.4 32.8 32.8 0 0 0-6.7 10.8 36.7 36.7 0 0 0 0 26 31.8 31.8 0 0 0 17.4 18 35 35 0 0 0 14.2 2.8 52.8 52.8 0 0 0 12.7-1.4 33.2 33.2 0 0 0 9.4-3.7V225h-19.1v-7h27.3v35.2a54.4 54.4 0 0 1-14.4 5.7 68 68 0 0 1-16 1.9 46.4 46.4 0 0 1-17.3-3.2 40.6 40.6 0 0 1-13.5-8.5 38.7 38.7 0 0 1-8.9-13 41.5 41.5 0 0 1-3.2-16.3 40.9 40.9 0 0 1 3.3-16.4 39 39 0 0 1 9-13 41.4 41.4 0 0 1 13.5-8.5 45.7 45.7 0 0 1 16.9-3 47.6 47.6 0 0 1 17 2.7 37 37 0 0 1 12.6 7.8zm67.5 63.9h-8.3v-78h8.3zm83 2q-9.2 0-15-3a26.7 26.7 0 0 1-9.5-7.7 27.5 27.5 0 0 1-4.7-10 43.5 43.5 0 0 1-1.4-10.4v-48.8h8.3v48a36.4 36.4 0 0 0 1.2 9.2 22.4 22.4 0 0 0 3.8 7.9 19.1 19.1 0 0 0 6.8 5.6 26.8 26.8 0 0 0 21 0 19.1 19.1 0 0 0 6.9-5.6 22.4 22.4 0 0 0 3.8-8 36.5 36.5 0 0 0 1.1-9.1v-48h8.3v48.7a43.5 43.5 0 0 1-1.3 10.3 27.5 27.5 0 0 1-4.8 10 26.5 26.5 0 0 1-9.4 7.7q-6 3-15 3zm123.5-15.5h.1l27.4-64.4h12.7v77.9H989v-67.7h-.2l-29.6 67.6h-4.4l-29.6-67.6h-.2v67.7h-8.3v-78h12.7z" />
	<path fill="#eb2227"
		d="m123.4 267.7-.6-1-.5-1-.5-.9-.4-.8h-1l-2.4-.1-2.4-.2h-1.1l-.7.8-1.4 1.9-1.5 2-.6.9.5 1 .6 1 .6 1.1.6 1.1.6 1 .5 1h1.2l2.4-.1 2.4-.1h1l.6-1 1.3-2 1.2-2 .5-.8-.4-.8zm-10-6.7.6-.8-.4-1-1-2-.9-2.1-.4-1-3.6-.7-2.6-.5-1.2-.3-.8.8-1.7 1.7-2.5 2.6.5 1.1 1 2.4 1.1 2.3.5 1.1 1.2.2 2.7.3 3.8.4 2.2-2.8 1.4-1.7zm-12.2-9.6 1.8-1.6.8-.7-.4-1-.8-2.3-.8-2.2-.3-1-1.2-.3-2.6-1-2.7-.8-1.3-.5-.9.7-2 1.4-2 1.6-1 .7.4 1.2.9 2.5a65.7 65.7 0 0 0 1.3 3.7l1.3.4 2.9.7 4 1zm-10.2-13 2-1.4 1-.5-.3-1-.5-2.3-.4-1.3-.2-1-.2-1-4-1.9c-2-.8-4-1.9-4-1.9l-3.4 1.6-3.4 1.8.2 1.2.3 1.3.4 1.4.6 2.7.3 1.2 1.4.5 3 1.2 4.2 1.6zm-11.7-13.3 2.4-1.1 2.4-1 1-.4-.1-1-.4-2.4c0-.8-.2-1.7-.3-2.3v-1l-1.3-.7-2.7-1.7-4-2.5-3.8 1-2.7.8-1.2.4.1 1.2a59.9 59.9 0 0 1 .7 5.4l.1 1.3 1.4.7 3 1.6 3 1.5 1.3.7 1-.5zm-10.7-16.5 1.3.8 1.2-.3 2.7-.6 3.9-.8v-5.6a9.2 9.2 0 0 1 0-1l-3.7-3c-1-.6-2-1.4-2.6-2l-1.2-1-1.3.1-3 .3-4.2.5v1.2l-.2 2.6v2.7a12.2 12.2 0 0 0 0 1.3l4.2 2.9zm-9-19.4 4 3.4 4.2-.3H72l.5-3.3.2-1.1.3-1 .2-1-3.5-3.4-3.4-3.5-4.4-.4c-2.2-.2-4.6-.2-4.6-.2l-.3 1.1-.3 1.2c0 .5-.2.8-.3 1.3l-.7 3.7 1.2 1.1zm-3.2-17.4 2.3 2.6.8.9.3.3h1.4l3.1.4 3 .4 1.4.2.3-1 .8-2 .9-2c0-.2.2-.4.3-.5v-.3l-3-3.7c-.7-1-1.4-2-2-2.6l-.8-1.2-1.4-.4-3.2-.7-4.7-1-.2.3c-.2.2-.2.4-.3.7l-1.1 2.2-1 2.3-.4 1 1 1.3zm-3-21 1 1.3 1.9 2.9 2.9 4 4.6 1.2 3.1.9 1.4.4.5-.8 1.3-1.8a20.7 20.7 0 0 1 1.8-2.3l-.7-1.2-1.7-2.7-2.2-4-4.6-1.7-3.2-1.1-1.5-.5-.7.8c-.5.4-1 1.1-1.6 1.8a23.9 23.9 0 0 0-1.6 1.9l-.6 1zm21.5 82.5-.4-1.5c-.2-.5-.1-.9-.2-1.3l-.3-1.2-4.4-2.1-4.6-2.3-3.8 2-4 2 .4 1.5.3 1.5.4 1.7.8 3.2.4 1.5 1.5.6 3.3 1.4 4.8 1.9 3.4-2.5 2.4-1.6 1-.7-.4-1.3c-.3-.8-.4-1.8-.6-2.8zm-15.7-9.6 2.8-1.3 2.6-1.2 1.3-.5-.2-1.3-.4-2.9c0-1-.2-2-.3-2.8v-1.1l-4.5-2.8-4.4-3-4.4 1.3-4.4 1.5v1.4l.4 3.3.4 3.2.1 1.5 1.6.9 3.3 1.9 3.4 1.8 1.5.8zm-10.5-18.6 1.4-.4 3.1-.8 4.4-1.1v-4.1l.1-2.7a8 8 0 0 1 .1-1.3l-4.1-3.4-4.2-3.5-4.8.5-4.9.7v1.4c0 .8-.3 2-.3 3.2l-.2 3.2v1.5a520.8 520.8 0 0 0 8 5.8zm-1.6-20.5 3.3-.3h1.5l.2-1.3.6-2.6c0-.5.2-1 .3-1.4l.3-1.2.3-1.2-3.7-3.8-3.7-4-5.1-.3a309 309 0 0 0-5.2-.2l-.4 1.4-.4 1.3-.4 1.6-.8 3-.3 1.4 1.3 1.3 3 2.8 4.4 3.9zm-9.3-21 .9 1 .3.3h1.6l3.6.4 5 .4.5-1 1-2.4 1.2-2.3.4-.7.1-.3-3-4.2a67.8 67.8 0 0 1-2.2-3l-.9-1.4-1.6-.3-3.6-.8-5.4-1a3.6 3.6 0 0 1-.2.3l-.5.9c-.4.7-1 1.6-1.4 2.6-.4 1-1 1.9-1.4 2.6l-.6 1.3 3.7 4.5a80.8 80.8 0 0 0 2.5 3zm-1.1-22.3 3 4.6 5.2 1.1 3.6.9 1.6.4.6-1 1.7-2 1.6-1.8.8-.8-.7-1.3a89.2 89.2 0 0 1-1.7-3l-2.2-4.4-5.2-1.8-3.6-1.2-1.7-.5-1 .8-2 2.1-2 2.1-.9 1 .9 1.5zm20.4-10.7 2-1.4.9-.6-.6-1.3-1.2-2.9-1.6-4.1-4.9-2.4-3.5-1.6-1.6-.7-1 .6-2.4 1.5-2.4 1.5-1 .7 2 4.5 1.5 3.1.7 1.4 1.6.6a91 91 0 0 1 8.6 3.3l.9-.7zm8.7-20.4-.3-1.2-1.4-.8-3.2-2-4.8-2.7-.4.1-.8.3-2.6 1-2.6 1-1.2.5a449.6 449.6 0 0 0 2.4 7.1l.4 1v.4l1.6.7 3.4 1.7 4.8 2.4 1-.5 2.2-1 2.3-1 .7-.3.3-.1-1.1-3.9zm7.9-2 2.4-.5.8-.1h.3l-.5-3.5-.5-3.5-4.3-3-4.4-3.1h-.3l-1 .1-2.7.5-2.8.5-1.3.2.8 3.9.9 3.9 4.6 2.7 4.4 2.8 1.1-.3zm-50.3 49-5.8-.1-6-.1-.6 1.5-.6 1.6-.5 1.9c-.4 1.3-.9 2.5-1 3.5-.1 1-.5 1.7-.5 1.7l1.5 1.5 3.3 3.2 4.7 4.5 5.7-.6 3.8-.4h1.7l.3-1.5c.1-.9.5-2 .8-3.2l.4-1.6.4-1.4.5-1.4-4-4.4-4-4.6zm-9.3-5.7 1 1.1.3.4h.5l1.4.1 4 .3c3 .1 5.8.4 5.8.4l.7-1.3 1.4-2.7 1.6-2.7a9.2 9.2 0 0 1 .5-.8l.2-.4-3.2-4.7-2.2-3.3-1-1.5-1.8-.3-4.2-.8c-3-.6-6.2-1-6.2-1a3.5 3.5 0 0 0-.3.3l-.6 1-2 2.9c-.8 1.1-1.3 2.2-1.8 3l-.8 1.5 4 5.1a91 91 0 0 1 2.7 3.4zm4-36.2-2.6 2.3c-1 .9-2 1.7-2.6 2.4l-1.1 1 .9 1.7 2 3.5 3 5a326 326 0 0 0 10.1 2.3l1.8.4 1-1a29.6 29.6 0 0 1 2-2.2c.8-.7 1.5-1.5 2.2-2l1-1-.8-1.4c-.5-.8-1-2.1-1.6-3.3l-2.2-4.7-5.9-2-4.2-1.3-1.9-.6zm9.6-16-2.9 1.4-2.8 1.5-1.3.8 2 4.8 2 4.8 2 .7 4 1.4 5.6 2.2 1-.7 2.5-1.5 2.5-1.5 1-.6-1.6-4.4-1.5-4.4-5.5-2.6-5.7-2.6zm13-12.8a2 2 0 0 0-1 .3l-3.2.8-3 1-1.5.5 1.3 4.4.9 3 .5 1.4 1.7.9 3.8 1.8 5.3 2.6 1.2-.4 2.7-1 2.7-1 1-.3h.3l-1-4-.6-2.8-.3-1.2-1.6-1-3.5-2-5.4-3a3.3 3.3 0 0 1-.4 0zm19.2-5.4L55 77.8h-1.4l-3.3.3-3.3.4-1.5.2.6 4 .7 4 5 3 5 3 1.4-.3 2.9-.5 2.8-.4 1-.1h.3l-.3-3.6-.3-3.5zm18.2 4.5h.4l.1-3 .2-2v-1l-1.3-1.1-2.9-2.4-4.3-3.5h-1.5l-3.3-.3-3.3-.2h-1.5v6.8l4.8 3.3 4.5 3.3h7.2zm5.9-4.3 1.4.2 2.9.4 2.9.5 1.3.3.1-.8.4-1.7.4-1.7.2-.8-1-1-2.6-2.5-2.6-2.4-1.3-1.1-1.4-.4-3.2-.7-3.3-.6-1.4-.3-.6 2.8c0 .7-.2 1.4-.3 2v1l1.2 1a1029.3 1029.3 0 0 1 6.9 5.8zm21.3-6.5-2.2-2.2-1-1-4.5-1.6-3.1-1-1-.3-.4-.2-.8 2.3c-.3 1.2-.8 2.3-.8 2.3l3.6 3.5 3.6 3.5h.3l1 .3 2.9.9 4 1.2.3-.6.6-1.4.6-1.4.3-.6-1-1zm-88.4 25 1.4-.8 3-1.6a49.6 49.6 0 0 1 3-1.4l1.3-.7-1.5-4.6-1.4-4.6-6.2-3-6.5-2.8-1.5.6c-1 .3-2.3.8-3.5 1.4l-3.5 1.5-1.5.8 4 10.3 2 .7c1.3.5 3 1 4.6 1.7l6.3 2.4zm-.7-21.4.4 1.4 2 1 4.2 2 6 3 4.7-1.4 3.2-.8 1-.3h.5l-.8-4.2-.5-2.9-.2-1.3-1.8-1-4-2.2-5.9-3.4h-.5c-.2.2-.7.2-1.2.3l-3.7.8c-2.7.5-5.3 1.2-5.3 1.2l1 4.7.9 3zm15.5-9.6 5.7 3.3 5.4 3.4 1.6-.2 3.4-.3 3.3-.3h1.5l-.1-3.6v-3.5L47.3 64 42 60.3h-1.8l-3.7.1-3.9.2h-1.5l.3 4 .5 4.2zm26.8.1h1.6l3.4.3c1.2 0 2.4.2 3.3.3l1.6.2.3-3 .3-2 .2-1-1.4-1-3.2-2.6-4.7-3.8-1.7-.3-3.7-.5-3.8-.4L49 55l-.3 3.3-.2 3.4a1087 1087 0 0 0 10 7.2zm12.1-6.8 4.4 3.7h.4l1.1.3 3.4.7 3.2.7 1.5.4.2-.8.6-1.6.5-1.7.3-.7L85 62l-2.8-2.6-2.8-2.6-1.3-1.2-1.6-.4-3.6-1-3.7-.9L68 53l-.5-.1-.7 2.7a30.7 30.7 0 0 0-.5 1.9l-.2.9 1.4 1.1zm21 3.6.4.1 1 .4 3.3 1 4.5 1.6.3-.6c.1-.4.4-.8.7-1.3l.7-1.3.4-.5-1-1.2-2.5-2.5-2.4-2.5-1.1-1.2-5-2-3.4-1.2-1.1-.4-.4-.1-1.1 2-1 2.3 4 3.7a290.1 290.1 0 0 1 3.7 3.7zm24.4-.2-2.1-2.5-1-1.1-1.4-.7-3.2-1.6-1.7-.8-1.4-.7-1.5-.7-1.3 1.6-1.2 1.7a659.4 659.4 0 0 0 6.7 7.3l1.4.6 1.4.6 1.6.7 2.9 1.3 1.3.7.4-.5.8-1 .9-1 .4-.4-1-1zm15.8 5.9L130 69l-.8-1.1-4.3-2.6-4.4-2.5-.4.4-1 .8-1.4 1.2 3 3.5 2 2.4.9 1.1 4 2.2 4 2.4.4-.4a6 6 0 0 1 1-.7l1.5-.9-.8-1zm18.3 10.8-1.8-2.5-.5-.6-.6-.7-.8-1.2-.9-1.1-1.4-1a230.3 230.3 0 0 0-6-4.2l-1.3-.9-.6.2-1 .5-1.1.5-.5.3.8 1 1.8 2.4 1.8 2.3.7 1.1 1.3.8 2.8 1.9 2.8 1.9 1.4 1 .5-.2a11.2 11.2 0 0 1 1.5-.2h2z" />
	<path fill="#fcee21"
		d="m270.5 85.6-.6 1-.6 1-.5.8-.5.8.5 1 1 2 1.1 2.2.5 1 1 .1 2.4.3 2.5.3 1 .1.7-1 .6-1 .6-1 .7-1.2.6-1 .5-.9-.6-1-1.3-2-1.3-2-.6-1h-3.4l-2.3-.1h-1l-.5.8zm-.9 12h-1l-.6.8-1.3 1.8-1.3 1.8-.6.9 1.2 3.5.8 2.5.4 1.1 1 .3 2.4.7 3.5.9.7-1 1.6-2.2 1.5-2 .7-1-.5-1.2-1-2.5-1.6-3.5-3.5-.5zm-2.1 15.4-2.3-.7-1-.4-.7.8-1.6 1.9-1.5 1.7-.7.8.3 1.2.6 2.7.5 2.8.3 1.3 1 .5 2.2 1 2.4 1 1 .4.9-.9 1.8-2 1.7-2 .8-1-.3-1.4-.9-2.8-1.1-4-3.5-.9zm-6.2 15.3-2.2-1-1-.6-.8.8-1.7 1.6-1 .9-.7.7-.8.8.4 4.3.4 4.4a108.1 108.1 0 0 0 6.3 4.3l1-.9.9-.8 1-1 2-2 1-.8-.3-1.5c0-.8-.3-2-.4-3.1l-.8-4.4zm-5.7 16.8-2.1-1.5a43.6 43.6 0 0 1-2-1.6l-1-.7-.8.7-1.9 1.4c-.7.4-1.3 1-1.8 1.4l-.9.6v4.6l-.2 4.7 2.8 2.8 2 1.9 1 .9 1-.7 2.2-1.7 2.2-1.6 1-.8v-1.6l-.1-3.3-.2-3.3v-1.5zm-8.9 17.5.1-1.6-.9-.9-1.9-2-2.6-2.9-.9.5-2 1.2-2 1a9.1 9.1 0 0 1-1 .5l-.5 4.8-.5 3.2-.3 1.5.8 1.1a51.4 51.4 0 0 0 4.2 5.8l1-.5 2.4-1.2 2.4-1.3a12.4 12.4 0 0 0 1-.6l.5-5.2zM234.5 180l1-5-2.4-3.6-1.5-2.5-.7-1-3 1-1.1.5-1 .2-1 .3-1.2 4.7-1.3 4.8 2 4 2 4 1.1-.3 1.1-.3c.5 0 1-.3 1.4-.4l3.6-1.3.3-1.6zM221 191.6l1-3.4.4-1 .1-.5-.1-.4-.5-.9-1.2-2.9-1.2-2.8a42.3 42.3 0 0 1-.5-1.2l-1 .1c-.6.1-1.4.3-2.2.3l-2 .3h-1l-1.8 4.4-1.2 3-.6 1.4.4 1.5 1 3a262.3 262.3 0 0 0 1.5 4.6h1.1l2.4-.2c1 0 1.9-.2 2.5-.3l1.2-.1.5-1.6zm-16.7 13 .7-1.4 1.5-3 2-4.6-1.3-4.6-.8-3.1-.3-1.5h-1l-2.1-.2-2-.3-1-.1-.7 1.2-1.5 2.8-2.3 4 .8 4.7.6 3.4.3 1.5 1.1.3 2.4.4a23.5 23.5 0 0 0 2.4.4zm60.7-59.8-1 1-1 .9-1 .9a259 259 0 0 0 .6 10 149.4 149.4 0 0 0 7.4 4.6l1.1-1 1.2-1 1.2-1.2a102.9 102.9 0 0 0 3.5-3.3l-.2-1.7-.5-3.6-.8-5-3.8-1.8-2.6-1.2-1.1-.6-1 1zm-.5 18.3-2.5-1.7-2.4-1.7-1-.8-1 .8-2.3 1.7-2.3 1.7-1 .7-.2 5.2-.3 5.3 3.3 3.1 3.5 3.1 1.2-.8 2.6-1.8c1-.7 2-1.4 2.6-2l1.2-1v-9.3l-.1-1.7zm-10.9 18.5-1-1a159.8 159.8 0 0 1-5.3-5.5l-1.1.7-2.5 1.3-2.4 1.3a9.2 9.2 0 0 1-1.1.5l-1 5.3-1 5.4 3 3.9 3 3.8 1.3-.6 2.9-1.3 2.8-1.5 1.3-.7.7-5.9.3-3.9zm-16.9 11.8-1.8-2.7-.8-1.3-1.2.4-2.5.9-1.4.4-1.2.3-1.1.3-1.5 5.2c-.7 2.6-1.7 5.2-1.7 5.2l2.3 4.5 2.5 4.7 1.4-.4 1.4-.3 1.5-.4 3-.9 1.4-.5.5-1.7.9-4 1.2-5.8-2.9-4zm-13.5 18.5.4-1.2.2-.5-.2-.4-.6-1-1.5-3.2-2-4.6-1.3.1-2.6.3-2.5.2h-1.2l-2 4.7a93 93 0 0 1-1.6 3.3l-.7 1.5.5 1.6 1.2 3.5a307 307 0 0 0 1.8 5.1h4.4l3-.1h1.3l2-5.6c.6-1.3 1-2.7 1.4-3.7zm-18.7 12.2 2.5-4.9-1.7-5.2-1-3.5-.4-1.5-1.1-.2c-.7 0-1.6-.2-2.5-.4l-2.5-.5-1.1-.2-.8 1.3-1.7 2.9-2.6 4 1 5.5.7 3.7.4 1.8 1.3.3 2.8.8 2.8.6 1.3.3.9-1.5c.4-1 1-2 1.7-3.3zm-19.6-12.5-2.2-1-1-.5-.9 1.1-1.8 2.5a364.4 364.4 0 0 1-2.8 3.4l.4 5.5.4 3.8.2 1.8 1 .6 2.5 1.3 2.5 1.3 1.2.5 2.8-4 2-2.8.8-1.3-.3-1.7-.6-3.7-.8-5.4-1-.4zm-22 2.6-.9.9V226l.3.2.7.6 2 1.8 2.3 1.7 1 .8 3-3.3a18 18 0 0 1 2-2.4l.6-.8.3-.3-.2-1.7-.2-3.8-.3-5.3-1-.6-2-1.4-2-1.5-.6-.5-.2-.2-2.8 3zm-5.6-5.8-1.7-1.9-.5-.6-.2-.2-2.8 2.2-2.7 2.1-.5 5.2-.5 5.4.2.3.6.7 1.8 2.2 1.8 2.1.9 1 2.9-2.5 3-2.8v-5.3l.2-5.3-.8-.8zm67.5 19 2.8 5.1 3 5.3 1.6-.3 1.7-.3 1.9-.4 3.6-.9 1.6-.4.6-2 1.1-4.5 1.6-6.4-3.4-4.5-2.2-3.2-1-1.4-1.4.5-3.1.8-1.7.5c-.6 0-1 .2-1.4.3l-1.4.3-1.9 5.7zm-.3 11 .5-1.4.2-.5-.3-.5-.6-1.2a323.9 323.9 0 0 1-4.3-8.9l-1.5.1-3 .1h-3.1a8.7 8.7 0 0 1-1 0 3.6 3.6 0 0 0-.4 0l-2.5 5.2-1.8 3.5-.8 1.6.6 1.7a164.1 164.1 0 0 0 3.6 10 3.3 3.3 0 0 0 .4 0l1.2.1 3.5.2h5.2l2.5-6zm-33.4 14.4 3.2 1c1.2.4 2.4.9 3.4 1l1.5.5 1-1.6 2-3.5 2.8-5.2-2-5.9a111.3 111.3 0 0 1-1.1-4l-.6-1.8-1.3-.2a28.8 28.8 0 0 1-3-.7l-2.8-.8-1.3-.4-1 1.3c-.5.8-1.2 2-2 3-1.4 2.2-3 4.3-3 4.3a374.6 374.6 0 0 0 2.2 10.4l.5 2zm-18.8-.3 2.7 1.8 2.8 1.7 1.3.7 3.1-4.2 3.2-4.2-.4-2-.7-4.1-1-6-1.1-.6-2.6-1.4-2.5-1.4-1-.6-3 3.6-3 3.6.4 6 .6 6.3zm-17.4-4.9.7.8 2.3 2.2 2.4 2.3 1.1 1 3.2-3.4 2.2-2.3 1-1.1-.2-2c-.2-1.1-.2-2.6-.2-4.1l-.4-6-1-.8-2.3-1.8-2.1-1.9-.7-.6-.3-.3-3 2.9-2 1.9-1 .8v12.1a3 3 0 0 1 .3.3zm-14.3-14-.5 6 .2.3.6.9 2 2.7 1.9 2.6.9 1.2 3.1-2.5 3.1-2.6.1-5.9.2-5.8-1-1-1.8-2.3-1.8-2.2-.5-.8-.2-.3-3 2.1-2.8 2-.5 5.7zm-5.3-18-.1-.2-2.7 1.3-2 1-.7.3-.3 1.7-.6 3.7-.9 5.5.2.4.5 1 1.4 3 1.5 3 .7 1.3 3-1.7 2.9-1.8.5-5.7.6-5.5-.7-1.2-1.4-2.5-1.4-2.6zm-6.7-2.9-.5-1.3-1-2.7-1-2.8-.5-1.2-.8.2-1.6.5-1.7.5-.8.2-.3 1.6a242 242 0 0 1-1.6 6.9l-.4 1.6.4 1.4 1 3.1 1.1 3.2.5 1.4 2.7-1 1.8-.7.9-.4.3-1.7.6-3.6 1-5.2zm-16.1-15.1-1 3.2-.4 1.5 1 4.6.6 3.2.3 1v.4l2.4-.4 2.4-.5 1.2-5 1.3-4.7-.1-.4-.3-1-.7-2.9-1-4.1h-.6l-1.5.3-1.5.1h-.7l-.4 1.4zm65.7 64-1.3-.7-2.8-1.8-2.8-1.9-1.2-.8-3.2 3.6-3.3 3.6.6 6.8.7 7 1.3 1 3 2.3 3 2.2 1.5 1 7-8.5-.5-2.2-.8-4.8-1.2-6.7zM160.1 273l1-1-.1-2.2-.3-4.8-.5-6.6-3.5-3.4-2.4-2.3-.7-.8-.3-.3-3.2 2.7-2.2 1.9-1 .8v13.4l.3.3.8 1a205.9 205.9 0 0 0 6.3 6.8l3.5-3.3zm-16-8.6v-6.6c0-3.3.2-6.4.2-6.4l-.9-1.3-2-2.7-1.9-2.8-.6-1-.2-.3-3 2c-1.5 1-3 1.7-3 1.7l-.5 6.3-.5 6.4.2.4.7 1.1 2 3.2 2 3.3 1 1.4 3.4-2.3zM130.8 241l-.7-1.3-1.5-3.1-1.5-3c-.5-.9-.6-1.5-.6-1.5l-2.8 1.2-1.9.8-.8.3-.3 1.8-.7 4-.9 6 .7 1.5 1.4 3.5c.5 1.3 1 2.6 1.5 3.5l.8 1.6 3-1.4 3-1.6.6-6.2.7-6zm-12-7 1-5.7v-.4l-.4-1c-.4-1-.8-2-1.1-3.3-.3-1.3-.8-2.3-1-3.2l-.4-1.4-.8.2-1.7.3-1.7.3-.8.2-.4 1.6-.8 3.7-.8 3.8-.4 1.7.4 1.6a94 94 0 0 0 2 7.2l.4 1.2v.5l2.8-.7 1.9-.6.8-.2.4-1.9.7-4zm-7.4-20v-.4l-.3-1.1-.7-3.3-.8-4.7h-4.3l-.5 1.5-1 3.4a508.8 508.8 0 0 1-1 3.4l-.4 1.5.8 5.2.6 3.6.2 1.2.1.5 2.4-.1 2.4-.3 1.2-5.3zm-12.3-21-1 3-.6 1.5.1 1.6.2 3.4.2 2 .1 1.6.2 1.6 2 .3 2 .2 1.5-4.8 1.5-4.6-.2-1.5-.2-1.5-.1-1.8-.3-3.2-.1-1.4-.6-.1-1.3-.3-1.3-.2-.5-.2-.5 1.4zm-2.9-16.7-1.1 2.8-.5 1.3-.1 5v5l.5.2 1.2.5 1.7.5 1.6-4.3 1-3 .6-1.2-.1-4.7v-4.6l-.5-.2-1-.5-1.6-.8-.5 1.3zm.3-21.3-1.2 3-.4.7c0 .3-.2.5-.3.8l-.6 1.3-.5 1.3-.2 1.8-.4 3.7-.3 3.6v1.6l.3.3 1 .7 1 .7.5.2.5-1.2 1.2-2.7 1.1-2.7.5-1.2.1-1.5.2-3.3.3-3.5.1-1.6-.3-.4a10.5 10.5 0 0 1-.8-1.1l-.8-1.2-.4-.5z" />
	<path fill="#fff"
		d="M39.2 49.3h4.3l.5-1c.4-.4.8-1.2 1.3-2l1.4-2 .6-.8-.4-1-1-2.2-1-2.2-.4-1h-7l-.6 1-1.2 2.1-1 2.2-.6 1 .6.9 1 2 1.2 2 .4 1h1zM50.1 44l.4 1h1l2.2.3 2.3.2 1 .1 2.4-2.8 1.7-2 .9-.9-.3-1-.6-2.4-1-3.5-1.2-.1-2.6-.3-2.6-.2-1.2-.1-.8 1-1.6 2.1-2.2 3.1a158.2 158.2 0 0 0 2.2 5.5zm14.4-5.8.5 2.4.2 1 1 .2 2.3.4 2.3.4 1 .3 1-.9 2-1.9 2.2-1.8 1-.9-.1-1.1-.3-2.5c0-1-.2-1.8-.3-2.5l-.1-1.2-1.2-.3-2.7-.5-2.6-.5-1.3-.2-1 1-2 2.1-2.8 3zm16.3-2.3.2 2.5v1l1 .3 2.2.7c.5 0 .9.2 1.3.3l1 .4 1 .3 3.5-2.5 3.6-2.5.4-3.8c.2-1.8.2-3.9.2-3.9l-1.2-.4-1.2-.3-1.5-.4-2.6-.8-1.2-.3-1.2.9-2.4 2-3.5 2.8zm17.4-3.5-.3 2.6a91.1 91.1 0 0 1-.5 3.7l1 .4 2.2.9 2.2.9 1 .4 1.2-.6 2.7-1.6 4.2-2.2 1-3.8.7-2.7.2-1.2-1-.6-2.6-1-2.5-1.1-1.2-.5-1.3.8-2.9 1.8-2.7 1.8-1.3.8v1.2zm19.6-1-1.4.6-.4 1.3-.7 2.6-1.3 3.8 1 .5 2 1.1 1.9 1.2a9.3 9.3 0 0 1 .8.5l4.4-1.8 3.1-1.2 1.4-.5.6-1.2 1.2-2.7 1.7-3.9-1-.7-2.2-1.4-2.3-1.4a12.3 12.3 0 0 0-1-.6s-2.4 1-4.7 2.2l-3.1 1.5zm21.2 1.9-5 1.7s-.8 2-1.8 3.8l-1.3 2.6-.7 1.1 2.5 2 1 .8.7.7.7.7 4.7-1.3 4.7-1.2 2.5-3.7a153 153 0 0 1 2.5-3.8l-.8-.8-.8-.9-1-.9-2.9-2.5-1.6.6c-1 .4-2.2.6-3.4 1zm16.8 5.9-3.5.7-1.1.3h-.5l-.2.4-.6.8-1.8 2.6-1.8 2.4-.9 1 .7.8 1.3 1.7 1.3 1.7.3.6a2.6 2.6 0 0 0 .2.2l4.7-.7 3.3-.4 1.5-.2 1-1a89.7 89.7 0 0 0 2.2-2.4l3.2-3.6-.2-.3-.4-.7-1.4-2-1.5-2-.7-1-1.6.4zm19.5 8h-1.5l-3.5.3-5 .4-3.3 3.5-2.3 2.2-1 1 .5 1 .8 1.8c.4.7.7 1.4.8 2 .1.6.3.8.3.8h9.2l3.8-3.1 2.5-2.2 1.2-1-.3-1-.8-2.3a23.6 23.6 0 0 0-.9-2.3l-.5-1.2zM93.2 24.5l1.5.4 1.2.4 1.2.4 4-2.8 4.3-2.8.3-4.3v-4.4l-1.3-.5-1.4-.5-1.7-.5-3.2-.9-1.4-.4-1.4 1-2.8 2.2-4 3.2.4 4.2.2 2.9v1.2l1.4.4zm16.1-8.8-.2 3c0 1-.2 2.1-.3 2.9l-.1 1.3 1.2.5 2.6 1.1 2.6 1.2 1.1.5 4.6-2.4 4.8-2.4 1-4.4 1-4.6-1.4-.6-3-1.4-3-1.3-1.3-.6-1.6 1-3.3 2-3.2 2-1.4.8v1.4zm21.4.2-.3 1.4-.9 3.1-1.2 4.3 1 .7 2.5 1.4 2.3 1.5a8.7 8.7 0 0 1 1 .7l5-1.9 5.1-1.8 2-4.4c1-2.2 1.8-4.6 1.8-4.6l-1.2-.8-2.6-1.8-2.7-1.8-1.3-.7-5.4 2.3-3.5 1.7zm18.6 8.8-1.4 3-.7 1.3 1 .8a129.4 129.4 0 0 1 3 2.8l.8.9.9.8 5.2-1.2 5.3-1.2 2.8-4.3 2.9-4.5-1-1-1-1-1.2-1.2-2.2-2.1-1.1-1-1.8.5-3.9 1.2-5.5 1.7-2 4.5zm22.9 2.4-1.3.3h-.5l-.2.4-.7 1-2 3-2.9 4 .7 1 1.5 2.2 1.4 2.1.5.7.1.3 5.2-.6 3.6-.3 1.7-.1 1-1.3 2.5-2.7 3.6-4.2-.2-.3c0-.2-.2-.5-.5-.8l-1.5-2.6-1.6-2.5-.8-1.2-5.7 1-4 .6zM192 37.3c-2.7 0-5.4.3-5.4.3l-3.7 4-2.5 2.6-1.1 1.2.4 1 1 2.4.7 2.4c.1.7.4 1 .4 1h1.5a68.6 68.6 0 0 1 8.2.3l4.2-3.5 2.9-2.6 1.3-1.2-.3-1.3-.8-2.7-.8-2.8-.5-1.3h-1.7c-1 0-2.4 0-3.8.2zm-1 23.2a27.9 27.9 0 0 1 .3 3.5l1.4.2a238.1 238.1 0 0 1 7.5 1l4.4-3 3.2-2.3 1.4-1v-4l-.2-2.8-.1-1.3-5-.4-3.4-.3-1.5-.1-1.3 1.1-3 2.4-4.2 3.4.2 1.1c.2.7.2 1.6.3 2.5zm13.3 17.7 1.2.4 1.4-.9 3.2-1.8 4.8-2.8.1-.3.2-.9.5-2.7.4-2.8.1-1.3-4.3-.9-3-.5-1-.2h-.4l-1.4 1-3.2 2-4.4 3-.1 1-.2 2.6-.3 2.4-.1.8v.3a96.8 96.8 0 0 0 6.5 1.6zm-2.2 7.8-.8 2.4-.2.7-.1.3 3.3 1.3 3.2 1.3 4.8-2.1 4.8-2.3.2-.4c.2-.2.1-.5.3-.8l1-2.7 1-2.6.3-1.2-3.7-1.3-3.8-1.2s-2.3 1.4-4.7 2.6l-4.6 2.6-.3 1-.7 2.5zm-17.4-68 3.1-5 3.1-5.2-1-1.2-1.1-1.3c-.3-.5-1-1-1.4-1.4l-2.5-2.7-1.3-1.2-2 .5-4.4 1.2-6.3 2-2.3 5.1-1.6 3.5-.7 1.5 1 1c.8.6 1.6 1.5 2.4 2.3l1.2 1.2 1 1 1 1.1 5.9-1.2 6-1.2zm9.7-5.2-1.4.3h-.6l-.2.5-.8 1.1-2.2 3.5-3.3 4.7.8 1.2 1.7 2.7c.7 1 1 1.9 1.5 2.6a9 9 0 0 1 .5.9 2.8 2.8 0 0 0 .1.3l5.7-.4 4-.2 1.7-.1 1.3-1.4 2.7-3.2 4-4.9a3.5 3.5 0 0 0-.1-.4 11.3 11.3 0 0 0-.5-1l-1.6-3.1-1.8-3.1-.8-1.5-6.4.9zm29.3 21.5-.6-3.4a20 20 0 0 0-.8-3.3l-.4-1.6h-6l-5.9.1-4 4.6a96.2 96.2 0 0 1-2.9 3l-1.3 1.4.5 1.3a27.8 27.8 0 0 1 .8 2.9l.8 2.9.3 1.3h1.6l3.6.3 5.1.4 4.7-4 3.3-3 1.4-1.4zm9.1 16.4.2-3.2.1-3.3v-1.4l-5.2-.7-5.2-.6-1.5 1.3c-.9.8-2 1.8-3.3 2.7-2.3 2-4.7 3.8-4.7 3.8l.1 1.3.1 3v4l4.7.8 4.5.9 5-3.5 5.1-3.6zm4.6 17.6.3-1 .8-3.2.7-3.1.3-1.5-4.5-1.1-3.1-.7-1.4-.3-1.6 1-3.5 2.4-5 3.3-.2 1.3-.5 2.8-.5 2.8a50 50 0 0 0-.3 1.3l4 1.2 2.7.8 1.2.4 1.6-1c1-.4 2.3-1.2 3.5-2 2.7-1.4 5.3-3 5.3-3zm-5 19.3 5.4-2.5.1-.4.5-1 1.4-3 1.3-3 .6-1.4-3.7-1.5-3.8-1.4-5.2 3a372 372 0 0 1-5.1 2.7l-.4 1.3-1 2.7-1.1 2.7-.4.8-.2.4a138.6 138.6 0 0 0 6.5 3l5.1-2.4zm-13 13.6a3 3 0 0 0-.1.3l2.5 1.6 1.7 1.2.8.5 1.6-.6 3.5-1.3 5.2-2 .2-.3.6-1 2-2.6 1.7-2.8.8-1.3-2.9-1.7-3-1.7-5.2 2.4-5 2.3-.7 1.1-1.5 2.6-1.5 2.5zm.8 7.2-.8 1.1-1.9 2.3-1.9 2.3-.8 1 .6.5 1.3 1.2 1.2 1.2.6.6 1.5-.5 3.4-1 3.4-1 1.6-.5 1-1.1 2.2-2.4 2.1-2.5 1-1.2-2.1-1.8c-.6-.5-1.1-1-1.6-1.2-.5-.2-.7-.6-.7-.6l-1.6.6-3.5 1.3zm-5 21.7 3.2-.8 1.5-.4 3.5-3 2.5-2.2.8-.8.3-.2-1.5-1.9c-.7-.9-1.7-1.8-1.7-1.8l-4.9 1.4-4.7 1.3-.3.3-.7.7-2.1 2-3.1 3 .4.5 1 1.2.8 1.2.4.5 1.4-.3zm22.6-89v1.6l-.2 3.3c0 1.2 0 2.4-.2 3.3-.2.9-.1 1.5-.1 1.5l4.8 1 4.7 1 5.6-3.8 5.7-4.2.3-1.6.5-3.7.4-3.8.1-1.7-10.9-1.8-1.7 1.5-3.7 3.2zm18.9 10-1.5-.3-1.8 1.2-3.9 2.7-5.5 3.6-1.1 4.8-.9 3.2-.3 1-.1.4a217.3 217.3 0 0 0 6.7 2.4l1.2.5 1.8-1 4-2.3 5.8-3.5.1-.4.4-1.1 1.3-3.6 1.6-5.3-4.6-1.4zm.5 18.3-5.7 3.2c-2.8 1.6-5.7 3-5.7 3l-.6 1.5-1.4 3.1-1.4 3-.5 1-.2.4 3.2 1.7 3 1.7 5.7-2.7 5.8-2.8.3-.4.6-1 1.8-3.4 1.8-3.4.8-1.6L261 71zm-13.5 23.1-.8 1.3-2 2.9-1.9 2.8-.9 1.2 2.4 1.8 1.6 1.3.7.6 1.7-.6 3.8-1.5 5.7-2.2 1-1.4 2.3-3 2.3-3 1-1.4-2.7-2c-1.3-1-3-1.9-3-1.9l-5.6 2.7zm-.2 14-5.4 1.9-.3.3-.7.8-2.2 2.6-2.3 2.4-1 1.1.5.6 1.1 1.3 1.2 1.3.4.6 1.7-.5 3.6-1.1 3.7-1.2 1.6-.5 1.2-1.2 2.7-2.6 2.6-2.7.8-1 .4-.3-2-2c-.5-.5-1-1-1.5-1.3l-.6-.6-1.8.6c-1 .4-2.3 1-3.7 1.4zm-13.6 16.3-.3.3-.8.8-2.5 2.2-3.6 3 .3.7.8 1.3.7 1.2.3.6 1.6-.3 3.3-.9 3.5-.8 1.6-.4 4-3.3 2.9-2.3.9-.8.3-.3-1.3-2-1.4-2-5.2 1.6-5 1.4zm-12 21.2 3.2-.6 1.5-.3 1.3-.8 2.9-2 1.6-1 1.3-1 1.3-1-.7-1.8-.8-2-5 1.2-4.7 1-1.2 1-1.2.9-1.4 1-2.7 1.8-1.2.8.3.6.4 1.2.4 1.2.1.6 1.5-.3zm-13 10.8 3-.4 1.4-.2 4.3-2.4 4.4-2.5v-.6l-.3-1.2-.4-1.8-4.5.8-3.1.5-1.4.2-4 2.4-4 2.4.1.5.1 1.2.1 1.7 1.3-.2c.8 0 2-.2 3-.4zm-18.6 10.4 3.1-.3.9-.1.8-.1 1.5-.2 1.4-.2 1.6-.7 3.4-1.5a126.6 126.6 0 0 0 3.2-1.6l1.4-.7.1-.5.2-1.2v-1.7l-1.3.2-3 .3-2.8.4-1.3.1-1.4.7-3 1.5-3 1.5-1.6.7-.1.5a11 11 0 0 1-.6 1.3l-.6 1.2-.3.6z" />
</svg>
