<svg xmlns="http://www.w3.org/2000/svg" viewBox="0 0 60 25">
	<path fill="#0A2540"
		d="M59.6 14.3h-8c.2 2 1.6 2.5 3.2 2.5s3-.3 4-1v3.4a8.3 8.3 0 0 1-4.5 1.1c-4 0-6.9-2.5-6.9-7.5 0-4.2 2.4-7.5 6.3-7.5 4 0 6 3.3 6 7.5v1.5zm-5.9-5.6c-1 0-2.2.7-2.2 2.5h4.3c0-1.8-1-2.5-2-2.5zM41 20.3c-1.4 0-2.3-.6-2.8-1v4.6l-4.2.9V5.6h3.8v1A4.7 4.7 0 0 1 41 5.3c2.9 0 5.6 2.6 5.6 7.4 0 5.2-2.7 7.6-5.7 7.6zM40 8.9c-1 0-1.5.4-2 .9v6c.5.5 1 .9 2 .9 1.5 0 2.5-1.7 2.5-4 0-2-1-3.8-2.5-3.8zM28.2 5.6h4.2V20h-4.2V5.6zm0-4.7 4.2-.9v3.4l-4.2.8V1zM24 10.2V20h-4.1V5.6h3.7l.1 1.2c1-1.8 3-1.4 3.6-1.2v3.8c-.5-.2-2.2-.5-3.3.8zM15.4 15c0 2.5 2.6 1.7 3 1.5v3.4a6 6 0 0 1-2.8.5 4.2 4.2 0 0 1-4.3-4.2V2.9l4-.9v3.6h3.2V9h-3.1v5.8zm-5 .7c0 3-2.3 4.7-5.7 4.7a11.2 11.2 0 0 1-4.4-1v-3.9a9 9 0 0 0 4.4 1.3c1 0 1.6-.2 1.6-1 0-2-6.3-1.2-6.3-5.8 0-3 2.3-4.7 5.6-4.7 1.4 0 2.7.2 4.1.8v3.8a9.2 9.2 0 0 0-4-1c-1 0-1.5.2-1.5.9 0 1.8 6.3 1 6.3 5.8z" />
</svg>
