<svg xmlns="http://www.w3.org/2000/svg" version="1.0" viewBox="0 0 583 623">
  <path fill="#FFF" d="M209.3 110.4c-82.4 33.8-111.1 46-113.3 48.1a13 13 0 0 0-3.5 5c-.3 1.1-7.7 55.3-16.6 120.4-13.1 97-15.8 118.9-14.9 121.2.6 1.4 2.4 3.8 3.8 5.2 1.5 1.4 44.9 35.2 96.6 75.1 84.4 65.3 94.2 72.6 97.5 72.6 2.5 0 37.6-13.8 114.1-45.1 85.1-34.8 111.3-45.9 113.8-48.3 1.8-1.7 3.5-4 3.7-5.1.3-1.1 7.7-55.3 16.6-120.4 13.1-97.1 15.8-118.9 14.9-121.2-.6-1.4-2.4-3.8-3.8-5.2a10189 10189 0 0 0-96.6-75.1c-90.3-69.9-94-72.6-98-72.5-3 0-33.2 12-114.3 45.3z"/>
</svg>