<svg width="154" height="36" viewBox="0 0 154 36" fill="none" xmlns="http://www.w3.org/2000/svg">
<path d="M43.8015 24.6864V12.1188H47.0205V16.7978H50.6514V12.1188H53.8704V24.6864H50.6514V19.698H47.0205V24.6864H43.8015ZM59.1413 24.9184C58.1182 24.9184 57.3758 24.5639 56.9142 23.855C56.4525 23.1331 56.2218 22.1729 56.2218 20.9741V15.0191H59.4408V20.5488C59.4408 21.1675 59.5157 21.5798 59.6653 21.7861C59.8275 21.9923 60.0646 22.0955 60.3766 22.0955C60.6759 22.0955 60.9256 22.031 61.1252 21.9022C61.3249 21.7733 61.5245 21.5541 61.7241 21.2447V15.0191H64.9432V24.6864H62.3229L62.0983 23.4104H62.0234C61.6492 23.8743 61.2312 24.2418 60.7696 24.5124C60.3205 24.7831 59.7777 24.9184 59.1413 24.9184ZM70.5226 28.6694C69.8115 28.6694 69.1563 28.5856 68.5574 28.4181C67.9587 28.2633 67.4783 28.0119 67.1165 27.6639C66.767 27.316 66.5924 26.8518 66.5924 26.2718C66.5924 25.5114 67.029 24.8926 67.9025 24.4157V24.3383C67.6633 24.1556 67.4546 23.9335 67.2848 23.681C67.1226 23.4104 67.0415 23.0751 67.0415 22.6755C67.0415 22.3404 67.1352 22.0117 67.3223 21.6895C67.5219 21.3672 67.7778 21.0901 68.0896 20.8582V20.7808C67.7527 20.5488 67.4534 20.2201 67.1914 19.7946C66.9417 19.3564 66.817 18.8601 66.817 18.3059C66.817 17.5067 67.0041 16.8494 67.3785 16.3338C67.7652 15.8052 68.2643 15.4186 68.8756 15.1737C69.4871 14.916 70.1358 14.7869 70.822 14.7869C71.371 14.7869 71.8701 14.8643 72.3192 15.0191H75.8004V17.4165H74.4529C74.4902 17.5326 74.5215 17.6808 74.5464 17.8611C74.5838 18.0416 74.6025 18.2286 74.6025 18.4218C74.6025 19.1824 74.4342 19.8012 74.0973 20.2781C73.7603 20.7421 73.305 21.0838 72.731 21.3028C72.157 21.522 71.5208 21.6315 70.822 21.6315C70.5102 21.6315 70.1608 21.5864 69.774 21.4961C69.6242 21.6379 69.5495 21.8248 69.5495 22.0568C69.5495 22.263 69.6493 22.4112 69.8489 22.5016C70.0609 22.5917 70.3978 22.6368 70.8595 22.6368H72.2632C73.436 22.6368 74.3405 22.8367 74.9769 23.2362C75.6257 23.623 75.9501 24.2609 75.9501 25.1504C75.9501 25.8465 75.7255 26.4587 75.2764 26.9873C74.8396 27.5157 74.2158 27.9282 73.4047 28.2246C72.5937 28.5212 71.633 28.6694 70.5226 28.6694ZM70.822 19.6593C71.1215 19.6593 71.3648 19.5498 71.5519 19.3306C71.7392 19.1116 71.8326 18.7699 71.8326 18.3059C71.8326 17.8547 71.7392 17.526 71.5519 17.3198C71.3648 17.1007 71.1215 16.9912 70.822 16.9912C70.5226 16.9912 70.2793 17.1007 70.0922 17.3198C69.9049 17.526 69.8115 17.8547 69.8115 18.3059C69.8115 18.7699 69.9049 19.1116 70.0922 19.3306C70.2793 19.5498 70.5226 19.6593 70.822 19.6593ZM71.0466 26.6198C71.5706 26.6198 72.0074 26.5361 72.3566 26.3685C72.7061 26.2137 72.8807 26.0011 72.8807 25.7304C72.8807 25.4727 72.7685 25.3115 72.5439 25.2471C72.3317 25.1827 72.0261 25.1504 71.6268 25.1504H70.897C70.5226 25.1504 70.2357 25.1376 70.036 25.1117C69.8489 25.0989 69.6867 25.0731 69.5495 25.0344C69.3249 25.2664 69.2125 25.4984 69.2125 25.7304C69.2125 26.0398 69.3809 26.2654 69.7178 26.4072C70.0673 26.549 70.5102 26.6198 71.0466 26.6198ZM80.7394 28.6694C80.0281 28.6694 79.3731 28.5856 78.7742 28.4181C78.1753 28.2633 77.6949 28.0119 77.3331 27.6639C76.9838 27.316 76.809 26.8518 76.809 26.2718C76.809 25.5114 77.2458 24.8926 78.1191 24.4157V24.3383C77.8799 24.1556 77.6712 23.9335 77.5016 23.681C77.3392 23.4104 77.2582 23.0751 77.2582 22.6755C77.2582 22.3404 77.3518 22.0117 77.5389 21.6895C77.7385 21.3672 77.9944 21.0901 78.3064 20.8582V20.7808C77.9695 20.5488 77.67 20.2201 77.408 19.7946C77.1583 19.3564 77.0336 18.8601 77.0336 18.3059C77.0336 17.5067 77.2209 16.8494 77.5951 16.3338C77.9818 15.8052 78.4809 15.4186 79.0924 15.1737C79.7037 14.916 80.3524 14.7869 81.0387 14.7869C81.5878 14.7869 82.0869 14.8643 82.536 15.0191H86.017V17.4165H84.6695C84.707 17.5326 84.7381 17.6808 84.7631 17.8611C84.8004 18.0416 84.8192 18.2286 84.8192 18.4218C84.8192 19.1824 84.6508 19.8012 84.3139 20.2781C83.9771 20.7421 83.5217 21.0838 82.9476 21.3028C82.3738 21.522 81.7374 21.6315 81.0387 21.6315C80.7268 21.6315 80.3775 21.5864 79.9906 21.4961C79.841 21.6379 79.7661 21.8248 79.7661 22.0568C79.7661 22.263 79.8659 22.4112 80.0655 22.5016C80.2777 22.5917 80.6145 22.6368 81.0761 22.6368H82.4798C83.6526 22.6368 84.5571 22.8367 85.1935 23.2362C85.8423 23.623 86.1667 24.2609 86.1667 25.1504C86.1667 25.8465 85.9421 26.4587 85.493 26.9873C85.0563 27.5157 84.4324 27.9282 83.6215 28.2246C82.8105 28.5212 81.8498 28.6694 80.7394 28.6694ZM81.0387 19.6593C81.3381 19.6593 81.5814 19.5498 81.7687 19.3306C81.9558 19.1116 82.0494 18.7699 82.0494 18.3059C82.0494 17.8547 81.9558 17.526 81.7687 17.3198C81.5814 17.1007 81.3381 16.9912 81.0387 16.9912C80.7394 16.9912 80.4959 17.1007 80.3088 17.3198C80.1217 17.526 80.0281 17.8547 80.0281 18.3059C80.0281 18.7699 80.1217 19.1116 80.3088 19.3306C80.4959 19.5498 80.7394 19.6593 81.0387 19.6593ZM81.2634 26.6198C81.7874 26.6198 82.224 26.5361 82.5734 26.3685C82.9227 26.2137 83.0975 26.0011 83.0975 25.7304C83.0975 25.4727 82.9851 25.3115 82.7605 25.2471C82.5485 25.1827 82.2427 25.1504 81.8434 25.1504H81.1136C80.7394 25.1504 80.4523 25.1376 80.2526 25.1117C80.0655 25.0989 79.9033 25.0731 79.7661 25.0344C79.5415 25.2664 79.4291 25.4984 79.4291 25.7304C79.4291 26.0398 79.5977 26.2654 79.9346 26.4072C80.2839 26.549 80.7268 26.6198 81.2634 26.6198ZM87.5499 24.6864V15.0191H90.7689V24.6864H87.5499ZM89.1594 13.8203C88.6353 13.8203 88.211 13.6721 87.8866 13.3756C87.5622 13.0662 87.4 12.6601 87.4 12.1575C87.4 11.6548 87.5622 11.2551 87.8866 10.9587C88.211 10.6493 88.6353 10.4947 89.1594 10.4947C89.6834 10.4947 90.1076 10.6493 90.432 10.9587C90.7563 11.2551 90.9185 11.6548 90.9185 12.1575C90.9185 12.6601 90.7563 13.0662 90.432 13.3756C90.1076 13.6721 89.6834 13.8203 89.1594 13.8203ZM92.9415 24.6864V15.0191H95.5615L95.7861 16.179H95.861C96.2352 15.8052 96.6596 15.483 97.1336 15.2124C97.6202 14.9287 98.1816 14.7869 98.818 14.7869C99.8535 14.7869 100.596 15.1479 101.045 15.8698C101.507 16.5787 101.738 17.5326 101.738 18.7312V24.6864H98.5186V19.1567C98.5186 18.5379 98.4437 18.1254 98.294 17.9192C98.1442 17.7129 97.9073 17.6098 97.5827 17.6098C97.2834 17.6098 97.0338 17.6742 96.8341 17.8033C96.6345 17.9321 96.4099 18.1126 96.1605 18.3446V24.6864H92.9415ZM107.241 28.6694C106.529 28.6694 105.874 28.5856 105.275 28.4181C104.677 28.2633 104.196 28.0119 103.834 27.6639C103.485 27.316 103.31 26.8518 103.31 26.2718C103.31 25.5114 103.747 24.8926 104.62 24.4157V24.3383C104.381 24.1556 104.173 23.9335 104.003 23.681C103.841 23.4104 103.759 23.0751 103.759 22.6755C103.759 22.3404 103.853 22.0117 104.04 21.6895C104.24 21.3672 104.496 21.0901 104.808 20.8582V20.7808C104.471 20.5488 104.171 20.2201 103.909 19.7946C103.66 19.3564 103.535 18.8601 103.535 18.3059C103.535 17.5067 103.722 16.8494 104.096 16.3338C104.483 15.8052 104.982 15.4186 105.594 15.1737C106.205 14.916 106.854 14.7869 107.54 14.7869C108.089 14.7869 108.588 14.8643 109.037 15.0191H112.518V17.4165H111.171C111.208 17.5326 111.239 17.6808 111.264 17.8611C111.302 18.0416 111.32 18.2286 111.32 18.4218C111.32 19.1824 111.152 19.8012 110.815 20.2781C110.478 20.7421 110.023 21.0838 109.449 21.3028C108.875 21.522 108.239 21.6315 107.54 21.6315C107.228 21.6315 106.879 21.5864 106.492 21.4961C106.342 21.6379 106.267 21.8248 106.267 22.0568C106.267 22.263 106.367 22.4112 106.567 22.5016C106.779 22.5917 107.116 22.6368 107.577 22.6368H108.981C110.154 22.6368 111.058 22.8367 111.695 23.2362C112.344 23.623 112.668 24.2609 112.668 25.1504C112.668 25.8465 112.443 26.4587 111.994 26.9873C111.558 27.5157 110.934 27.9282 110.123 28.2246C109.312 28.5212 108.351 28.6694 107.241 28.6694ZM107.54 19.6593C107.839 19.6593 108.083 19.5498 108.27 19.3306C108.457 19.1116 108.551 18.7699 108.551 18.3059C108.551 17.8547 108.457 17.526 108.27 17.3198C108.083 17.1007 107.839 16.9912 107.54 16.9912C107.241 16.9912 106.997 17.1007 106.81 17.3198C106.623 17.526 106.529 17.8547 106.529 18.3059C106.529 18.7699 106.623 19.1116 106.81 19.3306C106.997 19.5498 107.241 19.6593 107.54 19.6593ZM107.765 26.6198C108.289 26.6198 108.725 26.5361 109.075 26.3685C109.424 26.2137 109.599 26.0011 109.599 25.7304C109.599 25.4727 109.486 25.3115 109.262 25.2471C109.05 25.1827 108.744 25.1504 108.345 25.1504H107.615C107.241 25.1504 106.954 25.1376 106.754 25.1117C106.567 25.0989 106.404 25.0731 106.267 25.0344C106.043 25.2664 105.93 25.4984 105.93 25.7304C105.93 26.0398 106.099 26.2654 106.436 26.4072C106.785 26.549 107.228 26.6198 107.765 26.6198ZM118.06 24.6864V12.1188H125.995V14.903H121.279V17.3004H125.321V20.0846H121.279V24.6864H118.06ZM129.515 24.9184C128.929 24.9184 128.424 24.7831 127.999 24.5124C127.594 24.2365 127.265 23.8568 127.045 23.4104C126.82 22.9592 126.708 22.4693 126.708 21.9409C126.708 20.9354 127.107 20.1492 127.906 19.582C128.704 19.0019 130.002 18.6153 131.799 18.4218C131.724 17.7516 131.287 17.4165 130.489 17.4165C130.152 17.4165 129.796 17.4873 129.422 17.6291C129.047 17.758 128.617 17.9579 128.13 18.2286L127.007 16.0631C127.669 15.6506 128.336 15.3348 129.01 15.1156C129.695 14.8968 130.408 14.786 131.125 14.7869C132.347 14.7869 133.302 15.1479 133.988 15.8698C134.674 16.5787 135.018 17.7259 135.018 19.3113V24.6864H132.397L132.173 23.7582H132.098C131.724 24.1063 131.324 24.39 130.9 24.609C130.489 24.8152 130.027 24.9184 129.515 24.9184ZM130.638 22.3662C130.9 22.3662 131.119 22.3081 131.293 22.1922C131.468 22.0633 131.636 21.9022 131.799 21.7089V20.394C131.037 20.5101 130.507 20.684 130.208 20.916C129.921 21.1482 129.777 21.3995 129.777 21.6702C129.777 22.1342 130.064 22.3662 130.638 22.3662ZM141.346 24.9184C140.46 24.9184 139.661 24.7185 138.95 24.319C138.239 23.9194 137.671 23.3458 137.247 22.5981C136.835 21.8378 136.63 20.9226 136.63 19.8526C136.63 18.7829 136.86 17.8741 137.322 17.1265C137.796 16.3659 138.414 15.786 139.175 15.3863C139.936 14.9868 140.759 14.7869 141.645 14.7869C142.207 14.7869 142.712 14.8773 143.161 15.0576C143.623 15.2381 144.028 15.483 144.378 15.7924L142.881 17.9192C142.681 17.7388 142.5 17.6164 142.338 17.5519C142.177 17.4875 142.005 17.4548 141.832 17.4552C141.234 17.4552 140.766 17.6742 140.429 18.1126C140.092 18.5379 139.924 19.118 139.924 19.8526C139.924 20.5875 140.098 21.1739 140.448 21.6122C140.797 22.0374 141.221 22.2503 141.72 22.2503C141.982 22.2503 142.238 22.1922 142.487 22.0761C142.743 21.9511 142.988 21.8022 143.217 21.6315L144.453 23.7969C143.991 24.2224 143.479 24.5188 142.918 24.6864C142.357 24.841 141.832 24.9184 141.346 24.9184ZM149.719 24.9184C148.808 24.9184 147.985 24.7185 147.249 24.319C146.525 23.9194 145.951 23.3458 145.527 22.5981C145.103 21.8378 144.891 20.9226 144.891 19.8526C144.891 18.8086 145.103 17.9128 145.527 17.1652C145.964 16.4046 146.525 15.8182 147.211 15.4057C147.898 14.9932 148.621 14.7869 149.382 14.7869C150.306 14.7869 151.067 14.9997 151.666 15.425C152.277 15.8375 152.726 16.3982 153.013 17.1071C153.313 17.816 153.462 18.6024 153.462 19.4661C153.462 19.7495 153.444 20.0268 153.406 20.2974C153.381 20.5552 153.356 20.7421 153.331 20.8582H147.997C148.147 21.4382 148.415 21.8441 148.802 22.0761C149.189 22.2953 149.644 22.4048 150.168 22.4048C150.767 22.4048 151.404 22.2116 152.077 21.8248L153.125 23.7969C152.626 24.1578 152.065 24.435 151.441 24.6283C150.817 24.8216 150.243 24.9184 149.719 24.9184ZM147.96 18.6925H150.73C150.73 18.3187 150.636 17.9966 150.449 17.7259C150.274 17.4422 149.944 17.3004 149.457 17.3004C149.108 17.3004 148.796 17.4101 148.521 17.6291C148.247 17.8484 148.06 18.2028 147.96 18.6925Z" fill="#000B1B"/>
<path d="M36.8823 26.5282C36.7874 26.1582 36.6337 25.8072 36.4275 25.4892C36.4717 25.3217 36.5053 25.1516 36.5279 24.9798C36.6742 23.8891 36.3083 22.8905 35.6184 22.1177C35.2447 21.6957 34.8442 21.4172 34.42 21.2461C34.6984 20.0154 34.8394 18.7558 34.8401 17.4918C34.8401 16.9147 34.8085 16.3492 34.7555 15.7922C34.7277 15.514 34.6943 15.2364 34.6553 14.9597C34.5337 14.1433 34.3535 13.3373 34.1161 12.5486C33.9604 12.0303 33.7804 11.5203 33.5767 11.0201C33.2712 10.2795 32.9145 9.56255 32.5094 8.87477C32.2435 8.4173 31.9541 7.97488 31.6423 7.54948C31.4895 7.33465 31.3303 7.12489 31.1645 6.9205C30.6737 6.3042 30.1405 5.72548 29.5686 5.18891C29.3789 5.00855 29.1837 4.8344 28.9831 4.66672C28.7858 4.49664 28.584 4.33201 28.3782 4.17299C27.9639 3.85446 27.5356 3.55559 27.095 3.27736C24.6602 1.74964 21.805 0.873718 18.7533 0.873718C9.86811 0.873718 2.66664 8.3137 2.66664 17.4926C2.66641 18.7724 2.80994 20.0479 3.09437 21.2934C2.71276 21.4646 2.34686 21.7313 2.00782 22.1173C1.31808 22.8896 0.952008 23.8847 1.09847 24.9753C1.12056 25.1487 1.15412 25.3202 1.19865 25.4889C0.99259 25.807 0.838936 26.1582 0.743884 26.5282C0.531874 27.3606 0.601661 28.1114 0.871091 28.769C0.57834 29.6288 0.651483 30.5444 1.03292 31.3404C1.31031 31.9217 1.7073 32.3713 2.19651 32.7733C2.7783 33.251 3.50656 33.6571 4.38516 34.0464C5.4332 34.5082 6.71233 34.9421 7.29413 35.1012C8.79693 35.5033 10.2379 35.7581 11.6984 35.7704C13.779 35.7904 15.5708 35.2849 16.8538 33.9913C17.484 34.0711 18.1183 34.1111 18.7533 34.1109C19.4241 34.1094 20.0942 34.0656 20.76 33.9802C22.0398 35.2819 23.8385 35.7921 25.9268 35.7715C27.3871 35.7596 28.828 35.5048 30.3269 35.1021C30.9126 34.943 32.1914 34.5091 33.24 34.0475C34.1186 33.6573 34.8466 33.2514 35.4325 32.7743C35.918 32.3723 36.3146 31.9226 36.5922 31.3413C36.9775 30.5453 37.047 29.6298 36.7579 28.7699C37.0249 28.1123 37.0941 27.3599 36.8823 26.5282ZM35.3913 28.7133C35.6866 29.2921 35.7055 29.9461 35.4449 30.5552C35.0498 31.4784 34.0686 32.2053 32.1628 32.986C30.9778 33.4717 29.8925 33.782 29.8829 33.7849C28.3155 34.2049 26.8978 34.4181 25.6707 34.4181C23.6385 34.4181 22.1265 33.8389 21.1675 32.6949C19.5458 32.9801 17.8899 32.9898 16.2652 32.7235C15.3051 33.8486 13.8014 34.4181 11.7864 34.4181C10.5591 34.4181 9.14162 34.2049 7.57416 33.7849C7.56444 33.782 6.47983 33.4717 5.29434 32.986C3.38854 32.2053 2.40711 31.4787 2.01224 30.5552C1.75164 29.9461 1.77054 29.2921 2.06577 28.7133C2.09315 28.6597 2.12231 28.6071 2.15358 28.5565C1.97662 28.282 1.85795 27.9717 1.80532 27.6465C1.7527 27.3212 1.76735 26.9879 1.84828 26.6689C1.96559 26.2086 2.20799 25.8256 2.53696 25.5506C2.37856 25.2815 2.27458 24.9822 2.23131 24.6704C2.13662 23.9926 2.35428 23.3156 2.84438 22.7638C3.22582 22.3343 3.76521 22.098 4.36255 22.098H4.37845C3.92816 20.6069 3.69982 19.0539 3.70125 17.492C3.70125 8.97333 10.3861 2.06705 18.6328 2.06705C26.8796 2.06705 33.5643 8.97279 33.5643 17.492C33.5654 19.0581 33.3355 20.6152 32.8825 22.1097C32.9546 22.1024 33.0253 22.0985 33.0945 22.0985C33.6917 22.0985 34.2313 22.3347 34.6127 22.7642C35.1025 23.3156 35.3207 23.9931 35.2258 24.6708C35.1825 24.9826 35.0786 25.2821 34.9201 25.5511C35.2491 25.826 35.4915 26.2089 35.6088 26.6694C35.6896 26.9885 35.7042 27.3216 35.6516 27.647C35.5989 27.9723 35.4804 28.2824 35.3035 28.5571C35.3348 28.6071 35.3643 28.6597 35.3913 28.7133Z" fill="white"/>
<path d="M35.3036 28.5571C35.4805 28.2824 35.599 27.9723 35.6517 27.6471C35.7043 27.3216 35.6896 26.9885 35.6089 26.6695C35.4916 26.2091 35.2492 25.8262 34.9202 25.5512C35.0785 25.2821 35.1826 24.9828 35.2259 24.671C35.3206 23.9931 35.1029 23.3162 34.6128 22.7644C34.2314 22.3349 33.6918 22.0986 33.0946 22.0986C33.0252 22.0986 32.9547 22.1022 32.8826 22.1097C33.3351 20.6152 33.5646 19.0581 33.5632 17.4922C33.5632 8.97371 26.8783 2.06726 18.6323 2.06726C10.3864 2.06726 3.70079 8.97298 3.70079 17.4922C3.69936 19.0541 3.9277 20.6072 4.37799 22.0982H4.36209C3.76493 22.0982 3.22554 22.3346 2.8441 22.764C2.35435 23.3154 2.13633 23.9928 2.23103 24.6707C2.27426 24.9824 2.37824 25.2817 2.53668 25.5508C2.20771 25.8258 1.96531 26.2088 1.84818 26.6693C1.76729 26.9883 1.7527 27.3216 1.80539 27.6471C1.85807 27.9723 1.97681 28.2826 2.15383 28.5571C2.1222 28.6077 2.09323 28.6602 2.06602 28.7139C1.77097 29.2927 1.75189 29.9467 2.01248 30.5557C2.40735 31.4788 3.38879 32.2061 5.29458 32.9866C6.47954 33.4723 7.56486 33.7826 7.5744 33.7855C9.14187 34.2055 10.5593 34.4188 11.7865 34.4188C13.8017 34.4188 15.3052 33.8494 16.2654 32.7241C17.8901 32.9904 19.5461 32.9807 21.1678 32.6954C22.1266 33.8395 23.6388 34.4188 25.6709 34.4188C26.8981 34.4188 28.3157 34.2055 29.8832 33.7855C29.8927 33.7826 30.9775 33.4723 32.163 32.9866C34.0688 32.2061 35.0502 31.4788 35.4451 30.5557C35.7057 29.9467 35.6868 29.2927 35.3916 28.7139C35.3646 28.6597 35.3349 28.6073 35.3036 28.5571ZM15.5783 30.9628C15.4956 31.1122 15.4071 31.2581 15.3128 31.3999C15.0646 31.7753 14.7381 32.0621 14.3593 32.2755C13.6347 32.6834 12.718 32.8261 11.7863 32.8261C10.315 32.8261 8.80654 32.4704 7.96097 32.2437C7.91945 32.2326 2.77837 30.7324 3.42924 29.4555C3.53878 29.2408 3.71917 29.1551 3.94602 29.1551C4.86244 29.1551 6.53115 30.5649 7.24845 30.5649C7.40852 30.5649 7.52158 30.4942 7.56769 30.3225C7.87334 29.1899 2.92236 28.7139 3.33932 27.0741C3.41299 26.7839 3.61246 26.6662 3.89319 26.6662C5.10466 26.666 7.82404 28.8672 8.39276 28.8672C8.4364 28.8672 8.46767 28.8541 8.48463 28.8263L8.49205 28.8137C8.75883 28.3583 8.60583 28.0273 6.77689 26.8701L6.60127 26.7596C4.58894 25.5011 3.17625 24.744 3.97976 23.8405C4.07217 23.7361 4.20308 23.69 4.36227 23.69C4.55113 23.69 4.77957 23.7553 5.03116 23.8646C6.09404 24.3277 7.56716 25.5906 8.18252 26.1414C8.36396 26.3046 8.47085 26.4043 8.47085 26.4043C8.47085 26.4043 9.24999 27.2413 9.72118 27.2413C9.82966 27.2413 9.92153 27.1973 9.9839 27.088C10.3182 26.5061 6.88095 23.8154 6.68714 22.7053C6.55587 21.9529 6.77936 21.572 7.19296 21.572C7.38942 21.572 7.62935 21.6583 7.89419 21.8319C8.71573 22.3707 10.3019 25.1867 10.8826 26.282C11.0773 26.6492 11.4097 26.8044 11.7091 26.8044C12.3033 26.8044 12.7678 26.1942 11.7636 25.4188C10.2542 24.252 10.7839 22.345 11.5042 22.2276C11.5349 22.2227 11.566 22.2201 11.5969 22.2199C12.2521 22.2199 12.5411 23.3863 12.5411 23.3863C12.5411 23.3863 13.3879 25.5835 14.8428 27.0853C16.1631 28.4485 16.3474 29.5674 15.5783 30.9628ZM20.283 31.2201L20.2076 31.2294L20.0788 31.2448C20.0111 31.2519 19.9434 31.2588 19.8754 31.2654L19.809 31.2716L19.7486 31.2769L19.6625 31.284C19.6309 31.2864 19.5993 31.2889 19.5677 31.2909L19.473 31.2975L19.4521 31.2988L19.3776 31.3033L19.3459 31.305L19.2576 31.3096L19.1549 31.3139L19.0617 31.3172L18.9995 31.319H18.968C18.9486 31.319 18.9293 31.3201 18.9099 31.3203H18.879C18.8595 31.3203 18.8403 31.3203 18.8208 31.3214L18.7419 31.3223H18.6313C18.5445 31.3223 18.4581 31.3214 18.3717 31.3198L18.3018 31.3181C18.282 31.3181 18.262 31.317 18.2422 31.3165L18.1682 31.3141L18.076 31.3105L17.9931 31.3068L17.9716 31.3059L17.8926 31.3015C17.8707 31.3002 17.8488 31.2991 17.8271 31.2977L17.776 31.2946C17.7119 31.2904 17.6477 31.2856 17.5836 31.2805L17.5165 31.2751L17.4317 31.2676L17.3325 31.2581C17.2772 31.2528 17.2219 31.2469 17.1666 31.2406H17.164C17.9714 29.3797 17.5631 27.6419 15.9315 25.9576C14.8616 24.8537 14.1496 23.2233 14.002 22.8653C13.7031 21.8058 12.9118 20.628 11.5978 20.628C11.4867 20.6282 11.3759 20.6373 11.2662 20.6552C10.6904 20.7486 10.1873 21.091 9.82825 21.6061C9.44045 21.1076 9.06325 20.7114 8.72226 20.4874C8.20814 20.1509 7.69525 19.98 7.19526 19.98C6.57159 19.98 6.01383 20.2447 5.62514 20.7247L5.61543 20.7369L5.59352 20.6418L5.59263 20.6378C5.51871 20.3111 5.45661 19.9815 5.40642 19.65C5.40642 19.6476 5.40642 19.6455 5.40536 19.6433L5.3944 19.5682C5.38849 19.5277 5.38271 19.487 5.37709 19.4465C5.3725 19.4127 5.3679 19.379 5.36366 19.3454C5.35942 19.3118 5.35483 19.278 5.35094 19.2443C5.3467 19.2103 5.34281 19.1766 5.33893 19.1428C5.3352 19.1107 5.33161 19.0785 5.32815 19.0464L5.32711 19.0382C5.31117 18.89 5.29752 18.7416 5.2861 18.593L5.27992 18.5071C5.27815 18.4835 5.27656 18.4598 5.27515 18.4359C5.27515 18.4304 5.27444 18.4247 5.27409 18.4196L5.26828 18.3244C5.26616 18.2899 5.26455 18.2554 5.26278 18.2209C5.26101 18.1866 5.25925 18.1521 5.25783 18.1174L5.2543 18.027L5.25324 17.9996L5.25059 17.9161L5.24867 17.8452C5.24867 17.8169 5.24741 17.7885 5.24688 17.7602L5.24547 17.6709C5.24511 17.6412 5.24547 17.6116 5.24476 17.5819C5.24388 17.5519 5.24476 17.5222 5.24476 17.4922C5.24476 9.85329 11.2395 3.66012 18.6345 3.66012C26.0294 3.66012 32.024 9.85292 32.024 17.4922V17.6709C32.024 17.7007 32.0233 17.7306 32.0226 17.7602C32.0226 17.785 32.0217 17.8093 32.021 17.8341C32.021 17.8562 32.0201 17.8781 32.0192 17.8994C32.0192 17.9274 32.0176 17.9551 32.0167 17.983V17.9854C32.0144 18.046 32.012 18.1066 32.0095 18.1672L32.0084 18.1873L32.0038 18.2778L31.9996 18.3495C31.9897 18.5195 31.9768 18.6894 31.9611 18.859V18.8613C31.9583 18.8931 31.9551 18.925 31.9517 18.9568C31.9439 19.0307 31.936 19.1046 31.928 19.1786L31.919 19.2528L31.9079 19.3401C31.904 19.372 31.8998 19.4038 31.8954 19.4356C31.8906 19.4711 31.8855 19.5066 31.8805 19.542L31.8681 19.6256L31.8537 19.7205C31.8487 19.752 31.8438 19.7834 31.8379 19.815C31.8319 19.8464 31.8273 19.8778 31.822 19.9094C31.8114 19.9722 31.8005 20.0348 31.7886 20.0974C31.7651 20.222 31.7406 20.3463 31.7146 20.4705C31.7081 20.5013 31.7014 20.5323 31.6945 20.5632C31.3176 20.1848 30.8187 19.9787 30.2682 19.9787C29.7687 19.9787 29.2553 20.1494 28.7413 20.4862C28.4002 20.7099 28.0233 21.1064 27.6352 21.6048C27.2756 21.0896 26.7725 20.7473 26.1974 20.6537C26.0877 20.636 25.9767 20.6269 25.8656 20.6267C24.5513 20.6267 23.7605 21.8045 23.4614 22.8641C23.3132 23.222 22.6012 24.8523 21.53 25.958C19.8996 27.6368 19.4882 29.367 20.283 31.2201ZM34.1061 27.4952L34.1008 27.5114C34.0971 27.5218 34.0934 27.5322 34.0893 27.5425C34.083 27.558 34.0762 27.5731 34.0692 27.5883C34.052 27.6244 34.0326 27.6595 34.0112 27.6931C33.9817 27.7385 33.9494 27.7819 33.9142 27.8228C33.9061 27.8323 33.8983 27.8416 33.8891 27.8509C33.8768 27.865 33.8635 27.8787 33.8504 27.8924C33.6125 28.136 33.2499 28.3494 32.84 28.5454C32.7936 28.5672 32.7466 28.5889 32.6989 28.6106L32.6515 28.6323C32.6199 28.6467 32.5885 28.6612 32.5552 28.6752C32.5229 28.6894 32.4904 28.7035 32.4579 28.7174L32.3593 28.7595C32.1287 28.8575 31.8925 28.9508 31.662 29.0432L31.5636 29.0826L31.466 29.122C31.4014 29.1481 31.3374 29.1742 31.2743 29.2003L31.1805 29.2394L31.0885 29.2784L31.0431 29.298C31.013 29.3111 30.9834 29.3239 30.954 29.337C30.276 29.6375 29.7883 29.9432 29.8908 30.3227C29.8936 30.3334 29.8968 30.3436 29.9003 30.3535C29.9095 30.3816 29.9221 30.4083 29.9376 30.4331C29.9468 30.448 29.9574 30.4621 29.9692 30.4749C30.0897 30.6041 30.309 30.5837 30.5855 30.4811C30.6079 30.4727 30.6309 30.4637 30.654 30.4543C30.6699 30.448 30.6857 30.4415 30.7016 30.4349L30.7254 30.4245C30.7887 30.3968 30.8556 30.3659 30.9242 30.3321C30.9413 30.3239 30.9586 30.3159 30.9759 30.3064C31.3139 30.1358 31.6971 29.9056 32.0773 29.6962C32.1356 29.6636 32.1941 29.6324 32.2522 29.6013C32.3473 29.5504 32.4432 29.5013 32.54 29.4544C32.9001 29.2795 33.2384 29.1554 33.5107 29.1554C33.6383 29.1554 33.7512 29.1824 33.845 29.2445L33.8607 29.2553C33.9082 29.2899 33.9496 29.3325 33.9833 29.3814C33.9911 29.3929 33.9992 29.4047 34.0061 29.417C34.0135 29.4296 34.0206 29.4425 34.0273 29.4557C34.1617 29.7192 34.0492 29.9925 33.786 30.2602C33.5331 30.5172 33.1399 30.7693 32.6927 31.0027C32.6597 31.0201 32.6263 31.0374 32.5927 31.0542C31.2622 31.7292 29.5201 32.2375 29.4958 32.2439C29.0314 32.3682 28.3675 32.5315 27.6196 32.6536L27.5089 32.6714L27.4908 32.6741C27.3212 32.7004 27.1511 32.7236 26.9806 32.7436L26.9649 32.7453C26.6548 32.7818 26.3368 32.8082 26.0183 32.8194H26.0135C25.899 32.8238 25.7847 32.8258 25.6702 32.8258H25.5384C25.3638 32.8232 25.1895 32.8152 25.0154 32.8013C25.0114 32.8013 25.0071 32.8013 25.0029 32.8004C24.9407 32.7955 24.8783 32.7894 24.8163 32.7823C24.7096 32.7705 24.6031 32.7559 24.4969 32.7387C24.4556 32.7316 24.4114 32.7241 24.3688 32.7164C24.3494 32.7128 24.3301 32.7091 24.3109 32.7051L24.3063 32.7042C24.245 32.6922 24.184 32.6788 24.1232 32.6644C24.0881 32.6562 24.0527 32.648 24.0179 32.6383L23.9971 32.6327C23.9798 32.6283 23.9628 32.6235 23.9459 32.6188L23.9365 32.6162L23.8819 32.6C23.8621 32.5941 23.8425 32.5881 23.8227 32.5821L23.8156 32.5799L23.7642 32.5637C23.7448 32.5575 23.7255 32.5509 23.7063 32.5445C23.6904 32.539 23.6747 32.5334 23.6588 32.5281L23.6239 32.5155C23.5904 32.5034 23.5572 32.4907 23.524 32.4775L23.4925 32.4649L23.4665 32.4542C23.4165 32.4333 23.3667 32.4116 23.3174 32.3888L23.2846 32.3726L23.2791 32.37C23.2674 32.3643 23.2559 32.3587 23.2443 32.3536C23.2215 32.3423 23.1989 32.3306 23.1764 32.3187L23.1697 32.3153L23.1372 32.2975C23.0794 32.2665 23.0227 32.2333 22.9672 32.1979L22.9369 32.1787C22.9211 32.1689 22.9068 32.1588 22.8918 32.1488L22.8522 32.1216C22.8379 32.1117 22.8236 32.1017 22.8097 32.0913L22.7842 32.0727C22.7574 32.0528 22.731 32.0325 22.7051 32.0115C22.6913 32.0006 22.6777 31.9893 22.6641 31.9789C22.6339 31.9539 22.6044 31.9281 22.5752 31.9017L22.574 31.9006C22.5455 31.8752 22.5178 31.8489 22.4908 31.8221L22.4893 31.8203C22.4752 31.8064 22.4614 31.7925 22.4476 31.7781C22.434 31.7637 22.4203 31.7494 22.407 31.735C22.3936 31.7204 22.3802 31.7056 22.3671 31.6905C22.3544 31.6762 22.342 31.6618 22.3296 31.6472L22.3254 31.6423C22.2616 31.5658 22.2019 31.4857 22.1466 31.4023L22.1247 31.3689C22.1102 31.3468 22.0959 31.3245 22.0817 31.3023L22.0401 31.236C22.0196 31.2037 21.9996 31.171 21.9802 31.1382C21.9662 31.1148 21.9524 31.0914 21.9388 31.0679C21.9273 31.0478 21.9159 31.0279 21.9049 31.0082C21.8987 30.9974 21.8929 30.9865 21.8871 30.9755C21.8812 30.9642 21.8743 30.9527 21.8681 30.9412L21.8583 30.9232C21.8549 30.9171 21.8538 30.9153 21.8521 30.9113C21.8401 30.8896 21.8284 30.8675 21.8171 30.845C21.812 30.8354 21.8068 30.8255 21.8014 30.8158L21.7855 30.7844L21.7697 30.7532L21.7394 30.6899C21.7344 30.6795 21.7296 30.6691 21.7249 30.6587C21.7144 30.6362 21.7045 30.6141 21.6947 30.5921C21.6908 30.5831 21.6867 30.5742 21.6832 30.5652C21.6696 30.5347 21.6567 30.5039 21.6445 30.4727C21.6362 30.4521 21.6286 30.4316 21.6204 30.4112C21.5977 30.3509 21.5763 30.2902 21.5567 30.2287C21.5508 30.2104 21.545 30.1923 21.5399 30.1741C21.5272 30.1326 21.5157 30.0908 21.5054 30.0487C21.4929 29.9996 21.4818 29.9499 21.4724 29.9001C21.4664 29.8707 21.4611 29.8412 21.4567 29.8114C21.4519 29.782 21.4478 29.7526 21.4445 29.7234C21.4372 29.6652 21.4321 29.6068 21.4291 29.5482C21.4291 29.5385 21.4282 29.5287 21.428 29.519C21.4272 29.4997 21.4266 29.4803 21.4265 29.461C21.4166 28.6812 21.7987 27.9312 22.6155 27.0878C24.0702 25.5862 24.9172 23.3888 24.9172 23.3888C24.9172 23.3888 24.94 23.2966 24.9875 23.1641C25.0034 23.1201 25.02 23.0763 25.0375 23.0331C25.0575 22.9842 25.0789 22.9358 25.1018 22.8883L25.1085 22.8745C25.1381 22.8139 25.17 22.7549 25.2048 22.6974C25.2128 22.6841 25.2206 22.6708 25.2297 22.6576C25.2555 22.6178 25.2829 22.5793 25.3117 22.5419C25.334 22.5132 25.3577 22.4855 25.3826 22.4592C25.467 22.3694 25.5633 22.296 25.6723 22.2568L25.6861 22.2522C25.6953 22.2491 25.7043 22.2462 25.7137 22.2435C25.7246 22.2406 25.7356 22.2378 25.7465 22.2354L25.7515 22.2345C25.7746 22.2298 25.7978 22.2265 25.8213 22.2249H25.8234C25.8356 22.2249 25.8478 22.2236 25.8603 22.2236C25.8916 22.2238 25.9227 22.2263 25.9536 22.2312C26.0847 22.2526 26.2096 22.3333 26.317 22.4578L26.3315 22.4753C26.3665 22.5176 26.3983 22.5629 26.4265 22.6103C26.4477 22.6456 26.4677 22.6826 26.4866 22.7215C26.4942 22.7379 26.5015 22.7529 26.5087 22.769C26.5122 22.7772 26.5158 22.7852 26.5191 22.7936C26.5262 22.8098 26.5327 22.8263 26.5393 22.8434C26.5762 22.9413 26.6048 23.0422 26.625 23.1451C26.6463 23.2563 26.6587 23.3691 26.6622 23.4824C26.6635 23.5323 26.6635 23.5826 26.6622 23.6338C26.6614 23.6531 26.6605 23.6726 26.6591 23.6922C26.6446 23.9092 26.5988 24.1227 26.5232 24.3259C26.5156 24.346 26.5073 24.3664 26.4995 24.3868C26.4615 24.4807 26.4174 24.5716 26.3675 24.6592C26.3391 24.7092 26.3084 24.7588 26.2755 24.8081L26.2553 24.8377C26.1774 24.9501 26.0905 25.0556 25.9955 25.1531C25.9018 25.25 25.8015 25.3396 25.6953 25.4216C25.5888 25.5028 25.4889 25.5929 25.3967 25.691C25.1312 25.979 25.0693 26.2329 25.129 26.4254C25.1361 26.4472 25.1444 26.4685 25.154 26.4891C25.176 26.5339 25.2047 26.5749 25.2389 26.6107L25.2483 26.6204C25.258 26.63 25.2683 26.6393 25.2787 26.6483L25.2893 26.6572C25.3151 26.6777 25.3423 26.6959 25.3707 26.7118C25.3789 26.7164 25.3865 26.7209 25.3958 26.7253C25.4349 26.7454 25.4757 26.7615 25.5177 26.7737L25.5294 26.7768L25.5451 26.7812L25.5589 26.7846L25.5736 26.7879L25.5882 26.791L25.6022 26.7934C25.6126 26.7954 25.6232 26.7971 25.6336 26.7985L25.6439 26.8L25.6621 26.802L25.6734 26.8031L25.6921 26.8045H25.7029L25.7223 26.8054H25.7836L25.8011 26.8045L25.8213 26.8033L25.8458 26.8009L25.8688 26.798C25.8739 26.798 25.8792 26.7965 25.8845 26.7956C25.9654 26.7834 26.0442 26.7598 26.1188 26.7255C26.1347 26.7186 26.1504 26.7109 26.1649 26.7029C26.196 26.6868 26.2262 26.6687 26.2552 26.6488C26.2956 26.6215 26.3338 26.5906 26.3697 26.557L26.3946 26.5326C26.3985 26.5286 26.4025 26.5247 26.4062 26.5205C26.4306 26.4953 26.4536 26.4687 26.475 26.4408C26.5128 26.3915 26.5463 26.3391 26.5755 26.284C26.9212 25.6346 27.2836 24.9946 27.6622 24.3651L27.7142 24.2792L27.7666 24.193C27.793 24.1496 27.8193 24.1065 27.8456 24.064L27.8723 24.0211L27.9255 23.9355C27.9968 23.8214 28.0684 23.7086 28.1405 23.5969L28.1944 23.5137C28.3025 23.3483 28.4104 23.1873 28.5171 23.0342L28.5705 22.9586C28.6866 22.7929 28.8076 22.631 28.9332 22.4729L28.9832 22.4112C28.9913 22.4008 28.9989 22.3908 29.008 22.3807L29.0569 22.3221C29.065 22.3125 29.0728 22.303 29.0813 22.2937L29.1286 22.2384L29.1525 22.2117C29.1754 22.186 29.1988 22.1606 29.2224 22.1354C29.2383 22.1192 29.253 22.1028 29.2684 22.0876C29.3579 21.9929 29.4567 21.908 29.5632 21.8344L29.5878 21.8182L29.6127 21.8018C29.6286 21.7916 29.6447 21.7817 29.6611 21.7724C30.0788 21.5276 30.4247 21.5096 30.6236 21.7151C30.7443 21.8397 30.8109 22.0462 30.8074 22.3333C30.8074 22.3461 30.8074 22.3587 30.8063 22.3718V22.386C30.8063 22.399 30.8053 22.4123 30.8044 22.4256C30.8044 22.4419 30.8024 22.4583 30.8009 22.4746C30.7993 22.491 30.7986 22.5034 30.797 22.5178C30.797 22.522 30.7961 22.5262 30.7956 22.5304C30.7943 22.5432 30.7927 22.5561 30.7911 22.5689C30.7911 22.5729 30.7911 22.5768 30.7895 22.5808C30.7878 22.5981 30.7853 22.6155 30.7823 22.6326C30.7804 22.6485 30.7779 22.6644 30.7749 22.6803C30.7736 22.6894 30.7719 22.6983 30.7705 22.7075C30.7659 22.7334 30.7599 22.7591 30.7526 22.7843C30.739 22.8314 30.7224 22.8776 30.7028 22.9225C30.6943 22.942 30.6853 22.9615 30.6761 22.9807C30.657 23.0203 30.6355 23.0608 30.6118 23.1028C30.6 23.1234 30.5878 23.1448 30.5747 23.1661L30.5549 23.1986C30.5348 23.2313 30.5138 23.2643 30.4918 23.2977C30.4699 23.3311 30.4464 23.3653 30.4212 23.3998C30.3885 23.4458 30.354 23.4927 30.3176 23.5401L30.2901 23.5761C30.2122 23.6763 30.1323 23.7748 30.0507 23.8718L29.9859 23.9475L29.9528 23.9858C29.9078 24.0379 29.8625 24.0895 29.8169 24.1408L29.782 24.1799C29.7588 24.2058 29.7346 24.2321 29.7115 24.2582C29.6878 24.2846 29.6638 24.3109 29.6397 24.3372L29.567 24.4164L29.4933 24.4958C29.4687 24.5223 29.444 24.5491 29.4191 24.5756L29.2691 24.7353C28.5527 25.4944 27.7977 26.2509 27.5423 26.7226C27.5253 26.7534 27.5099 26.785 27.496 26.8173C27.4597 26.9031 27.4446 26.9765 27.4548 27.0358C27.4582 27.0553 27.4649 27.0741 27.4746 27.0911C27.4891 27.1168 27.5066 27.1406 27.5267 27.1617C27.5361 27.1712 27.5458 27.1802 27.5564 27.1882C27.6089 27.2269 27.6725 27.2468 27.7369 27.2448H27.7571L27.7778 27.2433L27.7986 27.2408L27.8157 27.2382C27.818 27.238 27.8203 27.2375 27.8226 27.2369L27.8384 27.2338L27.8426 27.2327L27.8599 27.2289L27.8661 27.2273L27.8846 27.2223L27.9067 27.2156C27.9212 27.211 27.9357 27.2059 27.9505 27.2002C27.9825 27.1886 28.0138 27.1751 28.0444 27.1599C28.0521 27.1561 28.0601 27.1524 28.0677 27.1482L28.0912 27.1362C28.1219 27.1201 28.1525 27.1028 28.1832 27.084C28.2078 27.069 28.2322 27.0537 28.2565 27.0374L28.2802 27.0212C28.288 27.0161 28.296 27.0108 28.3037 27.0048L28.3272 26.9885L28.3396 26.9796L28.3735 26.9551C28.4051 26.9325 28.4346 26.9093 28.4647 26.8858L28.4673 26.8837L28.5147 26.8458C28.5795 26.7928 28.6412 26.7396 28.6968 26.6894L28.7339 26.6556L28.7375 26.6523L28.7567 26.6346C28.8023 26.5924 28.8429 26.553 28.8769 26.5203L28.8906 26.5065L28.924 26.4738L28.944 26.4537L28.9509 26.4464L28.9528 26.4444C28.9698 26.4269 28.9698 26.4269 28.9868 26.4092L28.9882 26.4077L28.9945 26.4019C28.9965 26.3997 28.9991 26.3975 29.0021 26.3948L29.0046 26.3924L29.0113 26.3862L29.0472 26.3535L29.0673 26.3347C29.0772 26.326 29.088 26.3159 29.0989 26.3052L29.1231 26.2832C29.1274 26.2796 29.1316 26.2754 29.136 26.2714L29.1613 26.2486L29.1986 26.215L29.2182 26.1973C29.295 26.1281 29.3887 26.0447 29.4959 25.9507L29.5399 25.9124L29.6127 25.8494L29.6869 25.7851C29.7841 25.7019 29.8887 25.6134 29.9993 25.5214L30.0719 25.4612C30.1337 25.4104 30.1973 25.3584 30.2616 25.3062C30.2874 25.2852 30.3138 25.2642 30.3406 25.2434C30.4065 25.1909 30.4728 25.1385 30.5392 25.0868C30.6908 24.9685 30.8471 24.8501 31.0053 24.7345L31.0733 24.6858C31.1206 24.6519 31.168 24.6181 31.2155 24.5851L31.2584 24.5549C31.3434 24.4958 31.4291 24.4379 31.5155 24.3814L31.5584 24.3534L31.601 24.3261C31.6436 24.2989 31.6862 24.2719 31.7282 24.2457L31.7704 24.2198L31.8551 24.1689C31.8828 24.1523 31.9104 24.1361 31.9379 24.12L31.9545 24.1103L32.0203 24.0733C32.0475 24.0579 32.0749 24.0432 32.1019 24.0287L32.1425 24.0072L32.1817 23.9866C32.2715 23.94 32.3628 23.8969 32.4558 23.8575C32.4685 23.852 32.481 23.8468 32.4936 23.8411C32.5185 23.8303 32.5432 23.8205 32.5678 23.8117C32.5923 23.8031 32.6165 23.7942 32.6404 23.7854C32.6621 23.7779 32.6832 23.771 32.7036 23.7644L32.7105 23.7622C32.7215 23.7588 32.7324 23.7555 32.7434 23.7526L32.7466 23.7517C32.7688 23.7451 32.7911 23.7391 32.8135 23.7336H32.8153C32.8483 23.7254 32.8805 23.7184 32.9119 23.713C32.9227 23.7111 32.9333 23.7093 32.9436 23.7079C32.9741 23.7031 33.0049 23.6998 33.0356 23.6976C33.0551 23.6962 33.0747 23.6956 33.0941 23.6956H33.1089C33.1287 23.6956 33.1478 23.6969 33.1667 23.6989C33.1754 23.6989 33.184 23.7006 33.1925 23.7018H33.196C33.2045 23.7027 33.2132 23.7042 33.2215 23.706C33.2298 23.7079 33.2383 23.7091 33.2464 23.7111H33.2492C33.2573 23.713 33.2649 23.7153 33.2734 23.7177C33.3409 23.7365 33.4029 23.7719 33.4543 23.8208L33.4589 23.8256L33.4679 23.8347L33.4768 23.8444C33.5476 23.9214 33.6063 24.0096 33.6505 24.1056L33.6573 24.1218C33.6724 24.1583 33.6842 24.1961 33.6925 24.2348C33.7155 24.3427 33.7093 24.4551 33.6745 24.5595C33.6595 24.605 33.6411 24.6491 33.6194 24.6915L33.6049 24.7185C33.5497 24.8139 33.4847 24.9028 33.4107 24.9835L33.3948 25.0008C33.36 25.039 33.3238 25.076 33.2865 25.1116C33.2747 25.1231 33.2625 25.1346 33.2501 25.1461L33.2314 25.1637C33.1925 25.1992 33.1528 25.2339 33.1125 25.2679C33.1054 25.2737 33.0982 25.2796 33.0913 25.2858C33.0632 25.3091 33.0342 25.3329 33.0042 25.3566C32.9006 25.4384 32.7952 25.5172 32.6877 25.5933C32.6245 25.638 32.5591 25.6831 32.4916 25.7289C32.3658 25.8142 32.2392 25.8976 32.1113 25.9793C32.0743 26.0029 32.0372 26.0268 31.9994 26.0505C31.6519 26.2714 31.2666 26.5076 30.8556 26.7644L30.7493 26.8312C30.6328 26.9046 30.5229 26.9746 30.4196 27.0413L30.3675 27.0752L30.2689 27.1406C30.2298 27.1661 30.1919 27.1913 30.1549 27.2161C30.127 27.2346 30.0998 27.2528 30.0731 27.2709L30.0205 27.3067C29.9949 27.324 29.9694 27.3413 29.944 27.359L29.9192 27.3753C29.8931 27.3933 29.8677 27.4111 29.8429 27.4286L29.8025 27.457L29.7549 27.4912L29.7111 27.5228C29.6419 27.573 29.5735 27.6242 29.5056 27.6764L29.482 27.6951C29.4553 27.7159 29.4295 27.7367 29.4046 27.7569L29.3721 27.7838C29.3173 27.8292 29.2677 27.8728 29.2228 27.9145L29.2009 27.9353C29.1883 27.9471 29.176 27.959 29.1643 27.9707C29.156 27.9787 29.1484 27.9869 29.1401 27.9949L29.1286 28.0066C29.1034 28.0327 29.0788 28.0596 29.0549 28.0871L29.0433 28.101C29.0173 28.132 28.9947 28.1618 28.9747 28.1908L28.9659 28.2039C28.9429 28.2386 28.9226 28.2753 28.9053 28.3134L28.8993 28.3268L28.8956 28.3361L28.8926 28.3441L28.8885 28.3552C28.8873 28.3591 28.8848 28.3658 28.8834 28.3717C28.8762 28.3934 28.8709 28.4158 28.8673 28.4387L28.8656 28.4509L28.8641 28.462L28.8633 28.4728V28.5301C28.8633 28.5348 28.8633 28.5398 28.8643 28.5447C28.8645 28.5476 28.8648 28.5505 28.8652 28.5535C28.8652 28.5582 28.8664 28.563 28.867 28.5679L28.8703 28.588V28.5889C28.8716 28.5953 28.8728 28.6016 28.8744 28.608C28.876 28.6144 28.8776 28.6215 28.8795 28.6283C28.8852 28.6489 28.8921 28.6694 28.9 28.6893C28.9 28.6907 28.9012 28.6924 28.9018 28.6938C28.9039 28.6987 28.9058 28.7039 28.9081 28.7088C28.9168 28.7296 28.9265 28.7499 28.9371 28.7698L28.9482 28.7904L28.9599 28.8112L28.9721 28.832C28.9742 28.8355 28.9765 28.8386 28.9792 28.8417L28.9832 28.846L28.9875 28.8501L28.9922 28.8539C28.9954 28.8563 28.9988 28.8583 29.0023 28.8603C29.0058 28.8619 29.0097 28.8638 29.0136 28.8652C29.0178 28.8667 29.0221 28.8679 29.0263 28.869C29.1283 28.8928 29.3378 28.8055 29.6161 28.6537L29.6661 28.6263L29.7507 28.5787L29.7922 28.5549C29.8215 28.5385 29.8518 28.5202 29.8823 28.5022L29.9383 28.4695C30.3063 28.2507 30.7461 27.9694 31.2005 27.6949C31.2429 27.6691 31.2857 27.6436 31.3284 27.618L31.4143 27.5615C31.4572 27.5359 31.5 27.5107 31.5429 27.4859C31.7256 27.3786 31.9107 27.2754 32.0978 27.1767L32.1817 27.1327C32.2376 27.1042 32.2929 27.0765 32.3475 27.0495C32.4533 26.9976 32.5602 26.9485 32.6681 26.902L32.7273 26.8772L32.7346 26.8743C33.048 26.7459 33.3323 26.6665 33.5623 26.6665C33.6121 26.6662 33.6618 26.6704 33.7109 26.6791H33.7123C33.7282 26.6821 33.7425 26.6853 33.757 26.6892H33.7596C33.7808 26.6945 33.8017 26.7012 33.8218 26.7096C33.8379 26.7156 33.8535 26.7228 33.8685 26.7312C33.9344 26.7657 33.9907 26.8166 34.0328 26.8794C34.0363 26.8847 34.0397 26.8901 34.0428 26.8958C34.0584 26.9203 34.0718 26.946 34.0828 26.973C34.0893 26.9885 34.0953 27.0046 34.101 27.0219C34.1066 27.0394 34.1116 27.0562 34.1167 27.0743C34.1542 27.2127 34.1504 27.359 34.1061 27.4952Z" fill="#FF9D00"/>
<path fill-rule="evenodd" clip-rule="evenodd" d="M32.0218 17.5816V17.4922C32.0218 9.8529 26.0293 3.6601 18.6342 3.6601C11.2395 3.6601 5.24474 9.85327 5.24474 17.4922L5.24456 17.5221C5.24438 17.542 5.24421 17.5617 5.24456 17.5816C5.24541 17.6114 5.24571 17.6411 5.24544 17.6709L5.2465 17.7366L5.24686 17.7603L5.24774 17.7928C5.24809 17.8103 5.24862 17.8277 5.24862 17.8452L5.25039 17.9162L5.25322 17.9996L5.2541 18.027L5.25763 18.1133V18.1173L5.26258 18.2183V18.2208C5.26435 18.2553 5.26612 18.2898 5.26824 18.3241C5.27 18.3561 5.27195 18.3878 5.27407 18.4196L5.27459 18.4253C5.27615 18.4524 5.27792 18.4798 5.2799 18.507L5.28043 18.5141C5.28219 18.5404 5.28414 18.5669 5.28626 18.593L5.28661 18.5981L5.29014 18.6437C5.30073 18.7753 5.31309 18.9069 5.32724 19.0382L5.32813 19.0464L5.33873 19.1427L5.35092 19.2442C5.3591 19.3118 5.36783 19.3791 5.37707 19.4465C5.38258 19.4872 5.3883 19.5277 5.3942 19.5682L5.39509 19.5731C5.40829 19.6648 5.42253 19.7564 5.43784 19.8476C5.48178 20.1125 5.53339 20.376 5.59261 20.6378L5.59349 20.642L5.59915 20.6666C5.60445 20.69 5.60975 20.7134 5.6154 20.7369L5.62512 20.7247C6.0138 20.2446 6.57139 19.98 7.19523 19.98C7.69522 19.98 8.20829 20.1506 8.72224 20.4874C9.06322 20.7112 9.44025 21.1076 9.82823 21.6061C10.1872 21.0908 10.6904 20.7486 11.266 20.6551C11.3759 20.6372 11.4868 20.6281 11.5978 20.6279C12.9117 20.6279 13.7031 21.8059 14.002 22.8653C14.1495 23.2234 14.8615 24.8535 15.935 25.9563C17.5666 27.6404 17.9749 29.3784 17.1675 31.2392H17.1701C17.2253 31.2454 17.2806 31.2513 17.336 31.2566C17.3691 31.2599 17.4021 31.2631 17.4351 31.2661L17.4468 31.2672C17.471 31.2695 17.4954 31.2717 17.5198 31.2736L17.5869 31.2792C17.6509 31.2843 17.715 31.2889 17.7795 31.2933L17.8304 31.2964L17.8708 31.2987L17.8961 31.3002L17.9749 31.3046L17.9964 31.3055L18.0795 31.3091L18.1715 31.3128L18.2457 31.315L18.2581 31.3155C18.2736 31.3161 18.2895 31.3168 18.3053 31.3168L18.3221 31.3172C18.4263 31.3197 18.5304 31.321 18.6346 31.321H18.7452L18.8243 31.3201C18.8438 31.319 18.863 31.319 18.8825 31.319H18.9132L18.9399 31.3185C18.9503 31.3181 18.9609 31.3177 18.9713 31.3177H19.003L19.065 31.3159L19.1583 31.3126L19.2611 31.3081C19.2906 31.3068 19.3199 31.3053 19.3494 31.3037L19.381 31.3018L19.4279 31.2991L19.4556 31.2975L19.4763 31.2962L19.5712 31.2896C19.6028 31.2876 19.6344 31.2851 19.666 31.2825L19.7519 31.2756L19.8125 31.2703L19.8787 31.2641C19.9468 31.2575 20.0146 31.2506 20.0821 31.2433C20.1252 31.2383 20.168 31.2334 20.2109 31.2281L20.2863 31.2188C19.4915 29.3656 19.9029 27.6355 21.528 25.958C22.599 24.8524 23.311 23.2219 23.4594 22.864C23.7585 21.8045 24.5492 20.6267 25.8634 20.6267C25.9746 20.6268 26.0855 20.6358 26.1952 20.6538C26.7703 20.7473 27.2737 21.0897 27.6332 21.6048C28.0214 21.1063 28.3982 20.7099 28.7392 20.4861C29.2531 20.1494 29.7666 19.9787 30.266 19.9787C30.8165 19.9787 31.3156 20.1849 31.6925 20.5631C31.7132 20.4679 31.7331 20.3726 31.7522 20.2769C31.7639 20.2173 31.7754 20.1574 31.7867 20.0973C31.8004 20.0236 31.8135 19.9495 31.8255 19.8754C31.8287 19.8553 31.8321 19.8352 31.8358 19.815C31.8416 19.7834 31.8467 19.7522 31.8515 19.7204L31.8534 19.7084L31.866 19.6257L31.8784 19.5419L31.8785 19.541C31.8835 19.506 31.8886 19.4707 31.8932 19.4355C31.8969 19.4089 31.9004 19.3822 31.9038 19.3554L31.9059 19.3401L31.9169 19.2528L31.9259 19.1785C31.9314 19.1296 31.9367 19.0807 31.9418 19.0316C31.9441 19.0121 31.946 18.9923 31.948 18.9726L31.9497 18.9568C31.9531 18.9241 31.9561 18.8916 31.9589 18.8589L31.966 18.783C31.9807 18.6147 31.9925 18.4464 32.0017 18.2778V18.2767L32.0064 18.1872L32.0073 18.1672L32.0109 18.0823C32.0123 18.0503 32.0135 18.018 32.0146 17.9854V17.983L32.0155 17.9595C32.0163 17.9394 32.017 17.9193 32.017 17.8994L32.0174 17.8912C32.0181 17.8726 32.0188 17.8532 32.0188 17.8341L32.0193 17.8176C32.0199 17.7985 32.0204 17.7795 32.0204 17.7603L32.0208 17.7441C32.0213 17.7196 32.0218 17.6953 32.0218 17.6709V17.5816ZM15.3134 31.3999C16.3737 29.7933 16.2986 28.5876 14.8437 27.0854C13.3887 25.5832 12.5419 23.3864 12.5419 23.3864C12.5419 23.3864 12.2259 22.1102 11.505 22.2276C10.7842 22.3447 10.2554 24.2515 11.7646 25.4188C13.2737 26.586 11.4644 27.3774 10.8835 26.2821C10.3024 25.1866 8.71659 22.3708 7.89416 21.8322C7.07191 21.2936 6.49366 21.5955 6.68747 22.7056C6.78376 23.2566 7.67915 24.197 8.5157 25.0756C9.36445 25.9673 10.1526 26.795 9.98423 27.0879C9.64978 27.6698 8.47189 26.4044 8.47189 26.4044C8.47189 26.4044 4.78361 22.937 3.98062 23.8407C3.24053 24.6735 4.38185 25.3815 6.14083 26.4727C6.29048 26.5656 6.44454 26.6612 6.60231 26.7598C8.61464 28.0184 8.77118 28.3505 8.48567 28.8267C8.3802 29.0026 7.70653 28.5848 6.87792 28.0708C5.46541 27.1947 3.60272 26.0395 3.33982 27.0735C3.11209 27.9684 4.48238 28.5167 5.72512 29.0141C6.76044 29.4284 7.70742 29.8073 7.56819 30.3217C7.42385 30.8548 6.64136 30.4102 5.78589 29.924C4.82566 29.3781 3.77356 28.7799 3.4294 29.4549C2.77853 30.7307 7.91872 32.2327 7.96094 32.2437C9.62169 32.6886 13.8393 33.6316 15.3134 31.3999ZM22.1444 31.3999C21.084 29.7933 21.1593 28.5876 22.6142 27.0854C24.0691 25.5832 24.9161 23.3864 24.9161 23.3864C24.9161 23.3864 25.232 22.1102 25.9528 22.2276C26.6737 22.3447 27.2026 24.2515 25.6933 25.4188C24.184 26.586 25.9935 27.3774 26.5746 26.2821C27.1555 25.1866 28.7406 22.3708 29.5629 21.8322C30.3851 21.2936 30.9635 21.5955 30.7697 22.7056C30.6734 23.2566 29.778 24.1972 28.9413 25.0758C28.0927 25.9673 27.3046 26.795 27.473 27.0879C27.8072 27.6698 28.9862 26.4037 28.9862 26.4037C28.9862 26.4037 32.6743 22.9363 33.4773 23.84C34.2174 24.6728 33.0759 25.381 31.3169 26.4723C31.1672 26.565 31.0134 26.6605 30.8556 26.7592C28.8431 28.0177 28.6867 28.3499 28.9722 28.8259C29.0777 29.0019 29.7514 28.5841 30.5798 28.0703C31.9925 27.1942 33.8552 26.0388 34.1181 27.0728C34.3458 27.9677 32.9755 28.5162 31.7326 29.0136C30.6973 29.4279 29.7505 29.8066 29.8895 30.3211C30.0339 30.8543 30.816 30.4095 31.6711 29.9233C32.6313 29.3773 33.6836 28.779 34.028 29.4542C34.6788 30.7309 29.5379 32.2312 29.4962 32.2424C27.8355 32.6886 23.6179 33.6316 22.1444 31.3999Z" fill="#FFD21E"/>
<path fill-rule="evenodd" clip-rule="evenodd" d="M22.9827 13.7271C23.1914 13.8034 23.3467 14.0357 23.4944 14.2566C23.694 14.5554 23.8799 14.8332 24.165 14.6766C24.5016 14.4919 24.7774 14.2082 24.9578 13.8614C25.1382 13.5147 25.2148 13.1205 25.1783 12.7287C25.1511 12.4357 25.0613 12.1526 24.9154 11.8998C24.7694 11.647 24.571 11.4308 24.3346 11.2667C24.0981 11.1027 23.8292 10.9949 23.5476 10.9511C23.2658 10.9073 22.9781 10.9286 22.7053 11.0135C22.3405 11.127 22.0165 11.3497 21.7741 11.6534C21.5319 11.9571 21.382 12.3282 21.3437 12.7198C21.3055 13.1114 21.3806 13.506 21.5594 13.8536C21.6916 14.1104 21.9849 13.9894 22.2944 13.8614C22.5372 13.7612 22.7898 13.6568 22.9827 13.7271ZM13.9059 13.7273C13.6972 13.8036 13.5417 14.0359 13.394 14.2568C13.1944 14.5554 13.0085 14.8334 12.7234 14.6768C12.472 14.5386 12.2534 14.3444 12.0833 14.1084C11.9131 13.8724 11.7958 13.6004 11.7396 13.3119C11.6835 13.0234 11.6898 12.7257 11.7584 12.4401C11.8271 12.1545 11.9561 11.8881 12.1361 11.6602C12.3165 11.4324 12.5433 11.2487 12.8006 11.1224C13.0578 10.996 13.3391 10.9301 13.6239 10.9295C13.9087 10.9288 14.1901 10.9934 14.4479 11.1186C14.7057 11.2438 14.9334 11.4265 15.1147 11.6535C15.3571 11.9571 15.5069 12.3283 15.5452 12.72C15.5834 13.1117 15.5083 13.5062 15.3293 13.8538C15.1968 14.1106 14.9035 13.9894 14.594 13.8614C14.3514 13.7612 14.0988 13.6568 13.9059 13.7273ZM21.5785 22.2604C23.0172 21.0893 23.5456 19.1778 23.5456 18.0001C23.5456 17.0693 22.9393 17.3622 21.9688 17.8585L21.9142 17.8866C21.0232 18.3424 19.8374 18.9491 18.5356 18.9491C17.2337 18.9491 16.0479 18.3422 15.1572 17.8864C14.1553 17.3737 13.5269 17.0521 13.5269 18.0003C13.5269 19.215 14.0891 21.2098 15.6323 22.3688C15.8359 21.9417 16.1224 21.5626 16.4744 21.2552C16.8261 20.9479 17.2357 20.719 17.6772 20.5826C17.8312 20.5352 17.9899 20.8092 18.1524 21.0895C18.3091 21.3602 18.4692 21.6369 18.6323 21.6369C18.8058 21.6369 18.9764 21.3642 19.143 21.0979C19.3171 20.8197 19.4867 20.5485 19.6508 20.6027C20.4769 20.8767 21.1679 21.4708 21.5785 22.2604Z" fill="#32343D"/>
<path d="M21.578 22.2603C20.8288 22.8703 19.8328 23.2793 18.536 23.2793C17.3175 23.2793 16.3644 22.9183 15.6324 22.3687C15.8361 21.9418 16.1228 21.5627 16.4746 21.2555C16.8264 20.9481 17.2359 20.7191 17.6772 20.5825C17.9799 20.4893 18.3004 21.6368 18.6322 21.6368C18.9875 21.6368 19.3297 20.4966 19.6509 20.6026C20.4766 20.8768 21.1674 21.4709 21.578 22.2603Z" fill="#FF323D"/>
<path fill-rule="evenodd" clip-rule="evenodd" d="M10.4657 15.3834C10.329 15.4785 10.1755 15.5447 10.0139 15.5783C9.85239 15.6119 9.68602 15.6123 9.52434 15.5794C9.36267 15.5464 9.20887 15.4809 9.07177 15.3865C8.93467 15.292 8.81697 15.1706 8.7254 15.0289C8.63383 14.8875 8.57021 14.7285 8.53817 14.5617C8.50614 14.3947 8.50632 14.2227 8.5387 14.0557C8.57109 13.8889 8.63506 13.7303 8.72692 13.5888C8.81879 13.4475 8.93675 13.3263 9.07405 13.2322C9.35019 13.0428 9.68773 12.9743 10.0127 13.0416C10.3376 13.1089 10.6235 13.3065 10.8077 13.5912C10.9918 13.8759 11.0593 14.2244 10.9952 14.5602C10.9311 14.8962 10.7406 15.1923 10.4657 15.3834ZM28.3827 15.3834C28.246 15.4785 28.0924 15.5447 27.9309 15.5783C27.7695 15.6119 27.603 15.6123 27.4414 15.5794C27.2797 15.5464 27.1258 15.4809 26.9887 15.3865C26.8516 15.292 26.734 15.1706 26.6425 15.0289C26.5508 14.8875 26.4872 14.7285 26.4552 14.5617C26.4232 14.3947 26.4234 14.2227 26.4557 14.0557C26.488 13.8889 26.552 13.7303 26.6439 13.5888C26.7357 13.4475 26.8538 13.3263 26.991 13.2322C27.2672 13.0428 27.6048 12.9743 27.9297 13.0416C28.2546 13.1089 28.5405 13.3065 28.7248 13.5912C28.9088 13.8759 28.9763 14.2244 28.9122 14.5602C28.8481 14.8962 28.6576 15.1923 28.3827 15.3834Z" fill="#FFAD03"/>
</svg>
