<svg width="124" height="27" viewBox="0 0 124 27" fill="none" xmlns="http://www.w3.org/2000/svg">
<path d="M27.8425 6.6167H34.2205C38.836 6.6167 40.0052 9.52927 40.0052 11.9032C40.0052 14.277 38.8098 17.1896 34.2205 17.1896H30.2855V25.5165H27.8425V6.6167ZM30.2855 14.9436H33.505C35.442 14.9436 37.3789 14.4688 37.3789 11.9032C37.3789 9.33753 35.442 8.86276 33.505 8.86276H30.2855V14.9436Z" fill="black"/>
<path d="M43.1985 6.52545C44.1205 6.52609 44.8705 7.30239 44.8812 8.26707C44.892 9.23175 44.1594 10.0261 43.2378 10.0492C42.3161 10.0724 41.548 9.31563 41.5146 8.35151C41.5005 7.8739 41.6714 7.41058 41.9884 7.06673C42.3055 6.72289 42.7419 6.52769 43.1985 6.52545ZM42.073 12.8619H44.3415V25.5165H42.073V12.8619Z" fill="black"/>
<path d="M46.9677 12.8619H49.2624V14.8158H49.3148C50.1148 13.3224 51.6603 12.4392 53.2934 12.5423C55.6404 12.5423 57.6559 14.0123 57.6559 17.3723V25.5165H55.3874V18.0479C55.3874 15.6649 54.0874 14.7884 52.6303 14.7884C50.7195 14.7884 49.2624 16.0666 49.2624 19.0066V25.5165H46.9677V12.8619Z" fill="black"/>
<path d="M61.8614 20.0748C61.8614 22.2843 63.8245 23.7269 65.9447 23.7269C67.2747 23.6864 68.5064 22.9843 69.2602 21.8369L71.0053 23.2248C69.7382 24.9738 67.7251 25.9518 65.6306 25.836C61.8003 25.836 59.4097 22.96 59.4097 19.1892C59.342 17.4294 59.9713 15.7185 61.1489 14.4603C62.3264 13.2021 63.948 12.5081 65.6306 12.5423C69.8884 12.5423 71.52 15.957 71.52 19.2165V20.0748H61.8614ZM69.1206 18.1483C69.0683 16.0392 67.9428 14.4962 65.6306 14.4962C63.6533 14.4821 62.0082 16.0835 61.8789 18.1483H69.1206Z" fill="black"/>
<path d="M81.9378 16.231C81.1907 15.3068 80.084 14.7865 78.9276 14.8158C76.4323 14.8158 75.1497 16.9249 75.1497 19.2987C75.0868 20.4216 75.4716 21.5215 76.2124 22.3365C76.9532 23.1515 77.9837 23.6086 79.0585 23.5991C80.1946 23.639 81.2817 23.1142 81.9901 22.1839L83.6217 23.873C82.4345 25.1882 80.7594 25.898 79.0323 25.8178C77.3345 25.9072 75.6795 25.2424 74.4749 23.9871C73.2704 22.7318 72.6282 21.0027 72.7067 19.2257C72.6299 17.4418 73.2699 15.7056 74.4716 14.4377C75.6732 13.1698 77.327 12.4859 79.0323 12.5514C80.7795 12.505 82.4645 13.2309 83.674 14.551L81.9378 16.231Z" fill="black"/>
<path d="M90.4098 12.5423C93.9036 12.6026 96.6948 15.6046 96.6565 19.261C96.6183 22.9174 93.765 25.8548 90.2708 25.8351C86.7765 25.8153 83.9537 22.8458 83.9532 19.1892C83.953 17.4072 84.6366 15.6997 85.8505 14.4499C87.0645 13.2002 88.7071 12.5129 90.4098 12.5423ZM90.4098 23.5991C92.8528 23.5991 94.3884 21.773 94.3884 19.1892C94.3884 16.6053 92.8528 14.7883 90.4098 14.7883C87.9668 14.7883 86.4224 16.6144 86.4224 19.1892C86.4224 21.7639 87.958 23.5991 90.4098 23.5991Z" fill="black"/>
<path d="M98.6985 12.8618H100.993V14.8157C101.796 13.3209 103.345 12.4378 104.981 12.5423C107.328 12.5423 109.343 14.0123 109.343 17.3722V25.5165H107.048V18.0479C107.048 15.6648 105.748 14.7883 104.3 14.7883C102.381 14.7883 100.932 16.0666 100.932 19.0065V25.5165H98.6985V12.8618Z" fill="black"/>
<path d="M113.618 20.0748C113.618 22.2844 115.582 23.7269 117.702 23.7269C119.031 23.6821 120.261 22.981 121.017 21.837L122.762 23.2248C121.494 24.9593 119.489 25.9263 117.405 25.8087C113.583 25.8087 111.184 22.9326 111.184 19.1618C111.116 17.3972 111.749 15.6819 112.932 14.4228C114.116 13.1637 115.744 12.4731 117.431 12.5149C121.698 12.5149 123.329 15.9297 123.329 19.1892V20.0474L113.618 20.0748ZM120.86 18.1483C120.808 16.0392 119.691 14.4962 117.37 14.4962C115.391 14.4775 113.743 16.0814 113.618 18.1483H120.86Z" fill="black"/>
<path d="M12.7743 5.53937L13.3846 1.98767" stroke="black" stroke-width="1.59473" stroke-linecap="square"/>
<path d="M15.5838 4.27937L13.4549 1.55853L10.5582 3.32981" stroke="black" stroke-width="1.59473" stroke-linecap="square" stroke-linejoin="round"/>
<path d="M10.2266 20.6957L10.8194 17.144" stroke="black" stroke-width="1.59473" stroke-linecap="square"/>
<path d="M13.0361 19.4266L10.8897 16.7149L8.00171 18.4953" stroke="black" stroke-width="1.59473" stroke-linecap="square" stroke-linejoin="round"/>
<path d="M11.4568 13.3732L12.0496 9.82147" stroke="black" stroke-width="1.59473" stroke-linecap="square"/>
<path d="M14.2663 12.1041L12.1287 9.40149L9.24066 11.1728" stroke="black" stroke-width="1.59473" stroke-linecap="square" stroke-linejoin="round"/>
<path d="M9.45008 26.7582C10.2355 26.7582 10.8723 26.0919 10.8723 25.27C10.8723 24.448 10.2355 23.7817 9.45008 23.7817C8.66463 23.7817 8.02789 24.448 8.02789 25.27C8.02789 26.0919 8.66463 26.7582 9.45008 26.7582Z" fill="black"/>
<path d="M5.41909 20.3853L2.8103 22.2844" stroke="black" stroke-width="1.51364" stroke-linecap="square"/>
<path d="M5.57616 23.4621L2.49622 22.5126L2.72307 19.1617" stroke="black" stroke-width="1.51364" stroke-linecap="square" stroke-linejoin="round"/>
<path d="M14.8945 22.1656L16.7093 24.9047" stroke="black" stroke-width="1.51364" stroke-linecap="square"/>
<path d="M13.7253 24.996L16.9274 25.2243L17.8348 22.0195" stroke="black" stroke-width="1.51364" stroke-linecap="square" stroke-linejoin="round"/>
<path d="M17.8698 16.6053L21.0631 17.2079" stroke="black" stroke-width="1.54968" stroke-linecap="square"/>
<path d="M18.9691 19.5361L21.447 17.2809L19.8852 14.277" stroke="black" stroke-width="1.54968" stroke-linecap="square" stroke-linejoin="round"/>
<path d="M16.9362 9.97665L19.7805 8.33319" stroke="black" stroke-width="1.54968" stroke-linecap="square"/>
<path d="M17.0932 6.82672L20.1208 8.14149L19.5537 11.5106" stroke="black" stroke-width="1.54968" stroke-linecap="square" stroke-linejoin="round"/>
<path d="M4.38953 14.1218L1.18744 13.5375" stroke="black" stroke-width="1.54968" stroke-linecap="square"/>
<path d="M2.39152 16.4774L0.803558 13.4735L3.2553 11.2092" stroke="black" stroke-width="1.54968" stroke-linecap="square" stroke-linejoin="round"/>
<path d="M7.42584 8.21451L5.28821 5.65802" stroke="black" stroke-width="1.54968" stroke-linecap="square"/>
<path d="M8.3071 5.21063L5.0352 5.35672L4.45935 8.7258" stroke="black" stroke-width="1.54968" stroke-linecap="square" stroke-linejoin="round"/>
</svg>
