<svg width="103" height="37" viewBox="0 0 103 37" fill="none" xmlns="http://www.w3.org/2000/svg">
<g clip-path="url(#clip0_69_552)">
<path d="M13.3698 15.3918C11.0499 15.1181 10.8781 12.0221 7.90533 12.2958C6.4619 12.2958 5.12157 12.8944 5.12157 14.2115C5.12157 16.1957 8.19745 16.3839 10.0533 16.8799C13.2151 17.8378 16.2738 18.4878 16.2738 21.9088C16.2738 26.2535 12.8542 27.7587 8.33492 27.7587C4.5545 27.7587 0.722534 26.4245 0.722534 22.9693C0.722534 22.0114 1.65045 21.2588 2.54401 21.2588C3.67813 21.2588 4.07336 21.7377 4.46858 22.5246C5.34495 24.064 6.32443 24.8851 8.76451 24.8851C10.311 24.8851 11.892 24.3035 11.892 22.9693C11.892 21.0706 9.95019 20.6601 7.9397 20.1983C4.38267 19.2062 1.32396 18.693 0.963106 14.7589C0.585064 8.05372 14.6242 7.79714 15.4318 13.6813C15.4146 14.7418 14.418 15.3918 13.3698 15.3918ZM30.0723 9.50764C35.0041 9.50764 37.805 13.6129 37.805 18.6759C37.805 23.7561 35.09 27.8442 30.0723 27.8442C27.2886 27.8442 25.553 26.664 24.2986 24.8509V31.556C24.2986 33.5744 23.6456 34.5494 22.1678 34.5494C20.3635 34.5494 20.037 33.4034 20.037 31.556V12.0563C20.037 10.4655 20.7072 9.49054 22.1678 9.49054C23.5425 9.49054 24.2986 10.5682 24.2986 12.0563V12.6037C25.6905 10.8589 27.2886 9.50764 30.0723 9.50764ZM28.9038 24.3548C31.7907 24.3548 33.0795 21.7035 33.0795 18.6075C33.0795 15.5799 31.7735 12.8602 28.9038 12.8602C25.8967 12.8602 24.5048 15.3234 24.5048 18.6075C24.5048 21.8062 25.9139 24.3548 28.9038 24.3548ZM41.1558 14.2971C41.1558 10.7734 45.2284 9.50764 49.1806 9.50764C54.731 9.50764 57.0164 11.1155 57.0164 16.4523V21.5838C57.0164 22.7983 57.7725 25.2272 57.7725 25.9627C57.7725 27.0745 56.7415 27.7758 55.6417 27.7758C54.4217 27.7758 53.5109 26.339 52.8579 25.3127C51.0536 26.7495 49.1462 27.7758 46.225 27.7758C42.9945 27.7758 40.4513 25.8772 40.4513 22.7469C40.4513 19.9759 42.4446 18.3852 44.8503 17.8378C44.8503 17.8549 52.583 16.0247 52.583 16.0076C52.583 13.6471 51.741 12.6037 49.2494 12.6037C47.0498 12.6037 45.9329 13.2023 45.0737 14.5194C44.3864 15.5115 44.4723 16.1102 43.1491 16.1102C42.0837 16.0931 41.1558 15.3747 41.1558 14.2971ZM47.7544 24.8851C51.1396 24.8851 52.5658 23.1061 52.5658 19.5654V18.8128C51.6551 19.1207 47.9778 20.0272 46.9811 20.1812C45.9157 20.3864 44.8503 21.1733 44.8503 22.4219C44.8847 23.7903 46.2938 24.8851 47.7544 24.8851ZM72.6192 2.81958C77.3963 2.81958 82.5686 5.65901 82.5686 10.1747C82.5686 11.3379 81.6922 12.2958 80.5409 12.2958C78.9772 12.2958 78.7538 11.4576 78.0665 10.2774C76.9151 8.17345 75.5576 6.77084 72.602 6.77084C68.0312 6.73663 65.9863 10.6366 65.9863 15.4944C65.9863 20.3864 67.6875 23.9101 72.413 23.9101C75.5576 23.9101 77.2932 22.0969 78.1867 19.7536C78.5476 18.6759 79.2006 17.6325 80.5581 17.6325C81.6235 17.6325 82.6889 18.7101 82.6889 19.8733C82.6889 24.6627 77.7743 27.9811 72.7223 27.9811C67.1892 27.9811 64.0617 25.6548 62.3433 21.7891C61.5013 19.9417 60.9687 18.026 60.9687 15.3918C60.9343 7.96819 65.2818 2.81958 72.6192 2.81958ZM99.9413 9.50764C101.161 9.50764 101.866 10.2945 101.866 11.526C101.866 12.0221 101.471 13.0142 101.316 13.5444L95.4392 28.9219C94.1332 32.2573 93.1537 34.5665 88.7032 34.5665C86.5896 34.5665 84.7509 34.3784 84.7509 32.5481C84.7509 31.4876 85.5585 30.9574 86.6755 30.9574C86.8817 30.9574 87.2254 31.06 87.4316 31.06C87.7581 31.06 87.9815 31.1626 88.1877 31.1626C90.4215 31.1626 90.7309 28.8876 91.5213 27.314L85.8507 13.3392C85.5242 12.5866 85.3008 12.0734 85.3008 11.6287C85.3008 10.3971 86.2631 9.50764 87.5519 9.50764C88.9953 9.50764 89.5624 10.6366 89.9232 11.8681L93.6693 22.9522L97.4153 12.7063C97.9824 11.1155 98.0339 9.50764 99.9413 9.50764Z" fill="#09A3D5"/>
</g>
<defs>
<clipPath id="clip0_69_552">
<rect width="102.295" height="36.4337" fill="white" transform="translate(0.705322 0.561768)"/>
</clipPath>
</defs>
</svg>
