<svg xmlns="http://www.w3.org/2000/svg" viewBox="0 0 500 500"><path d="M72 63a13.1 13.1 0 0 0-5.8-6.3 10 10 0 0 0-7.7-.7L45 60.3c-5.2 1.6-8.1 7.4-7 13.5l1 4.9 35.1-11.3Zm-20.1-7.5a10 10 0 1 0-7.7-.7 10 10 0 0 0 7.6.7ZM471 160.3a14.3 14.3 0 0 0-1.5-9.2 11 11 0 0 0-6.5-5.3l-14.9-4.3c-5.7-1.6-11.9 1.8-14.5 8l-2.1 5 38.6 11.2Zm-13.8-19a11 11 0 1 0-6.5-5.2 11 11 0 0 0 6.5 5.2Z" style="fill:#f0f0f0"/><path d="M40.7 155.5a19.5 19.5 0 0 1-3.2.6 19.8 19.8 0 0 1-3.2 0 1 1 0 0 1-1-.9l-.3-2.7a16 16 0 0 1-4.2-1.3l-1.8 2.1a1 1 0 0 1-1.3.3 19.6 19.6 0 0 1-5-4.1 1 1 0 0 1 0-1.4l1.7-2.1a15.7 15.7 0 0 1-2-3.9l-2.8.3a1 1 0 0 1-1.1-.8 20.5 20.5 0 0 1-.6-3.2 20.9 20.9 0 0 1 0-3.2 1 1 0 0 1 .9-1l2.7-.3a16.1 16.1 0 0 1 1.3-4.2l-2.1-1.7a1 1 0 0 1-.3-1.3 19.5 19.5 0 0 1 4.1-5 1 1 0 0 1 1.4 0l2 1.7a15.8 15.8 0 0 1 4-2l-.3-2.8a1 1 0 0 1 .8-1.1 19.5 19.5 0 0 1 3.2-.6 19.8 19.8 0 0 1 3.2 0 1 1 0 0 1 1 .9l.3 2.7a15.8 15.8 0 0 1 4.2 1.3l1.8-2.1a1 1 0 0 1 1.3-.3 19.6 19.6 0 0 1 5 4.1 1 1 0 0 1 0 1.4l-1.8 2a15.8 15.8 0 0 1 2.1 4l2.7-.3a1 1 0 0 1 1.2.8 20.3 20.3 0 0 1 .6 6.4 1 1 0 0 1-1 1l-2.6.3a16 16 0 0 1-1.3 4.2l2 1.7a1 1 0 0 1 .3 1.4 19.3 19.3 0 0 1-4 5 1 1 0 0 1-1.4 0l-2.1-1.8a15.7 15.7 0 0 1-4 2.1l.3 2.7a1 1 0 0 1-.7 1ZM28.5 150a.5.5 0 0 1 .3 0 15 15 0 0 0 4.7 1.4.5.5 0 0 1 .4.5l.3 3a14.9 14.9 0 0 0 3.2 0 19 19 0 0 0 3-.5l-.3-3.1a.5.5 0 0 1 .3-.6 14.9 14.9 0 0 0 4.3-2.3.5.5 0 0 1 .6 0l2.5 2a17.5 17.5 0 0 0 4-4.7l-2.5-2a.5.5 0 0 1-.1-.6 15.3 15.3 0 0 0 1.4-4.7.5.5 0 0 1 .5-.4l3-.3a18.7 18.7 0 0 0-.5-6.2l-3.2.3a.5.5 0 0 1-.5-.3 15.4 15.4 0 0 0-2.3-4.3.5.5 0 0 1 0-.6l2-2.4a17.6 17.6 0 0 0-4.8-4l-2 2.4a.5.5 0 0 1-.6.1 14.8 14.8 0 0 0-4.6-1.4.5.5 0 0 1-.5-.4l-.3-3.1a15 15 0 0 0-3 0 19 19 0 0 0-3 .5l.2 3.2a.5.5 0 0 1-.4.5 15 15 0 0 0-4.3 2.3.5.5 0 0 1-.6 0l-2.4-2a17.4 17.4 0 0 0-4 4.8l2.5 2a.5.5 0 0 1 0 .6 15.4 15.4 0 0 0-1.3 4.6.5.5 0 0 1-.5.5l-3 .3a15 15 0 0 0 0 3.1 18.5 18.5 0 0 0 .5 3l3.2-.3a.5.5 0 0 1 .5.4 15.4 15.4 0 0 0 2.3 4.3.5.5 0 0 1 0 .6l-2 2.4a17.4 17.4 0 0 0 4.7 4l2-2.4a.5.5 0 0 1 .3-.2Zm10-4.6a9.5 9.5 0 0 1-9-1.7 9.7 9.7 0 0 1-3.1-10A9 9 0 0 1 31 128a9.6 9.6 0 0 1 13.6 11.1 9 9 0 0 1-4.8 5.8 10.9 10.9 0 0 1-1.4.6Zm-5.6-17.1a10 10 0 0 0-1.3.5 8 8 0 0 0-4.2 5.2 8.6 8.6 0 0 0 12.1 10 8 8 0 0 0 4.2-5.2A8.5 8.5 0 0 0 33 128.4ZM62.5 101.9a7.3 7.3 0 0 0-3.8 4.7 7.7 7.7 0 0 0 8.8 9.7 9 9 0 0 0 1-.2 9 9 0 0 0 1.2-.5 7.3 7.3 0 0 0 3.9-4.7 7.8 7.8 0 0 0-11-9Zm10.1 8.8a6.4 6.4 0 0 1-3.3 4 6.8 6.8 0 0 1-9.7-7.9 6.3 6.3 0 0 1 3.4-4 7.4 7.4 0 0 1 1-.5 8.9 8.9 0 0 1 1-.2 6.8 6.8 0 0 1 5.4 1.4 6.9 6.9 0 0 1 2.2 7.2Zm8.9-6.1a1 1 0 0 0-1-.7l-2.1.2a13 13 0 0 0-1.7-3l1.4-1.6a1 1 0 0 0 0-1.2 15.8 15.8 0 0 0-4-3.3 1 1 0 0 0-1.2.2l-1.4 1.6a12.9 12.9 0 0 0-3.3-1l-.2-2.1a1 1 0 0 0-.8-.8 15.3 15.3 0 0 0-2.7 0 15.6 15.6 0 0 0-2.6.4 1 1 0 0 0-.6 1l.2 2.2a12.7 12.7 0 0 0-3 1.6l-1.7-1.4a1 1 0 0 0-1.2 0 16 16 0 0 0-3.3 4 1 1 0 0 0 .3 1.2l1.6 1.3a13.7 13.7 0 0 0-1 3.4l-2.1.2a1 1 0 0 0-.8.8 15.4 15.4 0 0 0 0 2.6 15.6 15.6 0 0 0 .4 2.6 1 1 0 0 0 1 .7l2.1-.2a13.1 13.1 0 0 0 1.7 3l-1.4 1.6a1 1 0 0 0 0 1.2 15.8 15.8 0 0 0 4 3.3 1 1 0 0 0 1.2-.2l1.4-1.6a12.9 12.9 0 0 0 3.3 1l.2 2.1a1 1 0 0 0 .9.8 15.5 15.5 0 0 0 2.6 0l1.2-.1 1.4-.4a1 1 0 0 0 .6-1l-.2-2a13.3 13.3 0 0 0 3-1.6l1.7 1.3a1 1 0 0 0 1.2 0 15.8 15.8 0 0 0 3.3-4 1 1 0 0 0-.2-1.2l-1.6-1.4a13.1 13.1 0 0 0 1-3.3l2-.2a1 1 0 0 0 1-.8 16.3 16.3 0 0 0-.6-5.2Zm-.5 2.7a15.2 15.2 0 0 1 0 2.4l-2.5.2a.5.5 0 0 0-.4.5A12 12 0 0 1 77 114a.5.5 0 0 0 .1.6l2 1.6A14.3 14.3 0 0 1 76 120l-1.9-1.5a.5.5 0 0 0-.6 0 11.8 11.8 0 0 1-3.4 1.8.5.5 0 0 0-.3.5l.2 2.5a16.5 16.5 0 0 1-2.4.4 12.3 12.3 0 0 1-2.4 0l-.3-2.4a.5.5 0 0 0-.4-.5 12 12 0 0 1-3.7-1 .5.5 0 0 0-.3 0 .4.4 0 0 0-.3 0l-1.6 2a13.8 13.8 0 0 1-3.7-3.1l1.6-2a.5.5 0 0 0 0-.5 12 12 0 0 1-1.9-3.4.5.5 0 0 0-.5-.4l-2.4.2a14.6 14.6 0 0 1-.5-2.3 12.4 12.4 0 0 1 0-2.5l2.4-.2a.5.5 0 0 0 .4-.4 12 12 0 0 1 1.2-3.7.5.5 0 0 0-.2-.6l-1.8-1.6a14 14 0 0 1 3-3.7l2 1.5a.5.5 0 0 0 .5 0 11.8 11.8 0 0 1 3.5-1.8.5.5 0 0 0 .3-.5l-.2-2.5a15.4 15.4 0 0 1 2.3-.4 11.8 11.8 0 0 1 2.5 0l.2 2.4a.5.5 0 0 0 .4.5 12 12 0 0 1 3.7 1 .5.5 0 0 0 .6 0l1.6-2a14 14 0 0 1 3.7 3.2l-1.5 1.8a.5.5 0 0 0 0 .6 12.5 12.5 0 0 1 1.8 3.5.5.5 0 0 0 .5.3l2.5-.2a15 15 0 0 1 .4 2.3ZM481.6 236.6a15.4 15.4 0 0 1-.3 2.4 14.7 14.7 0 0 1-.6 2.3.8.8 0 0 1-1 .5l-2-.4a12.2 12.2 0 0 1-1.7 2.8l1 1.6a.8.8 0 0 1 0 1 14.6 14.6 0 0 1-4 2.7.8.8 0 0 1-1-.2l-1.2-1.7a12.4 12.4 0 0 1-3.2.6l-.4 2a.8.8 0 0 1-.8.6 15.2 15.2 0 0 1-2.4-.2 14.8 14.8 0 0 1-2.4-.7.8.8 0 0 1-.4-.9l.4-2a12.5 12.5 0 0 1-2.8-1.8l-1.7 1.1a.8.8 0 0 1-1-.1 14.6 14.6 0 0 1-2.7-4 .8.8 0 0 1 .3-1l1.7-1.1a11.7 11.7 0 0 1-.6-3.3l-2-.4a.8.8 0 0 1-.7-.8 14.4 14.4 0 0 1 .3-2.4 14.7 14.7 0 0 1 .7-2.3.8.8 0 0 1 .8-.5l2 .4a12 12 0 0 1 1.9-2.8l-1.1-1.7a.8.8 0 0 1 0-1 14.6 14.6 0 0 1 4-2.6.8.8 0 0 1 1 .2l1.2 1.7a12.6 12.6 0 0 1 3.2-.6l.4-2a.8.8 0 0 1 .8-.7 14.9 14.9 0 0 1 4.8 1 .8.8 0 0 1 .4 1l-.3 2a12.6 12.6 0 0 1 2.7 1.8l1.7-1.2a.8.8 0 0 1 1 .2 14.6 14.6 0 0 1 2.7 4 .8.8 0 0 1-.3 1l-1.7 1a12.3 12.3 0 0 1 .7 3.3l2 .4a.8.8 0 0 1 .6.8Zm-6.5 7.6a.3.3 0 0 1 .1-.3 11.3 11.3 0 0 0 2-3 .4.4 0 0 1 .4-.2l2.3.4a10.5 10.5 0 0 0 .7-2.2 13 13 0 0 0 .3-2.3l-2.4-.5a.4.4 0 0 1-.3-.4 11.4 11.4 0 0 0-.7-3.5.4.4 0 0 1 .2-.5l1.9-1.3a13 13 0 0 0-2.5-3.8l-2 1.3a.4.4 0 0 1-.5 0 11.4 11.4 0 0 0-3-2 .4.4 0 0 1-.2-.5l.4-2.2a14.8 14.8 0 0 0-2.2-.7 13 13 0 0 0-2.3-.3l-.5 2.3a.4.4 0 0 1-.3.3 11.3 11.3 0 0 0-3.6.7.4.4 0 0 1-.4 0l-1.3-2a13 13 0 0 0-3.9 2.5l1.3 2a.4.4 0 0 1 0 .5 11.1 11.1 0 0 0-2 3 .4.4 0 0 1-.4.2l-2.3-.5a11.1 11.1 0 0 0-.7 2.3 15.2 15.2 0 0 0-.3 2.3l2.4.5a.4.4 0 0 1 .3.3 11 11 0 0 0 .7 3.6.4.4 0 0 1-.2.4l-1.9 1.3a12.8 12.8 0 0 0 2.5 3.9l2-1.3a.4.4 0 0 1 .5 0 11.6 11.6 0 0 0 3 2 .4.4 0 0 1 .2.4l-.5 2.3a11 11 0 0 0 2.3.7 13.6 13.6 0 0 0 2.3.2l.5-2.3a.4.4 0 0 1 .3-.3 11.2 11.2 0 0 0 3.6-.7.4.4 0 0 1 .4.2l1.3 1.9a13 13 0 0 0 4-2.6l-1.4-2a.4.4 0 0 1 0-.2ZM474 236a7.1 7.1 0 0 1-11 6 6.7 6.7 0 0 1-3.1-4.6 7.2 7.2 0 0 1 10.9-7.2 6.7 6.7 0 0 1 3.1 4.6 8 8 0 0 1 .1 1.2Zm-13.5.3a7.9 7.9 0 0 0 .1 1 6 6 0 0 0 2.8 4.2 6.4 6.4 0 0 0 9.8-6.6 6 6 0 0 0-2.8-4.1 6.4 6.4 0 0 0-9.9 5.5ZM448 209.3a5.5 5.5 0 0 0 2.5 3.7 5.9 5.9 0 0 0 6.4 0 5.8 5.8 0 0 0 2.5-4 6.5 6.5 0 0 0 0-.9 6.3 6.3 0 0 0 0-1 5.5 5.5 0 0 0-2.5-3.7 5.8 5.8 0 0 0-8.9 5.9Zm8.5-5.4a4.7 4.7 0 0 1 2.2 3.3 5 5 0 0 1-7.8 5.2 4.7 4.7 0 0 1-2.2-3.3 6.2 6.2 0 0 1 0-.8 5.2 5.2 0 0 1 0-.7 5 5 0 0 1 7.7-3.7Zm-2.4-7.6a.7.7 0 0 0-.7.5l-.3 1.6a10 10 0 0 0-2.6.5l-.8-1.3a.7.7 0 0 0-1-.3 11.7 11.7 0 0 0-3.2 2.2.7.7 0 0 0 0 .9l.8 1.3a10 10 0 0 0-1.4 2.2l-1.6-.4a.7.7 0 0 0-.8.5 11.7 11.7 0 0 0-.5 1.9 11.9 11.9 0 0 0-.2 2 .7.7 0 0 0 .5.6l1.6.3a9.7 9.7 0 0 0 .5 2.6l-1.3.8a.7.7 0 0 0-.3.9 12 12 0 0 0 2.2 3.2.7.7 0 0 0 .9.1l1.3-.8a10 10 0 0 0 2.2 1.4l-.4 1.5a.7.7 0 0 0 .5.8 12.7 12.7 0 0 0 1.9.6 11.7 11.7 0 0 0 2 .2.7.7 0 0 0 .6-.6l.4-1.5a9.5 9.5 0 0 0 2.5-.5l.9 1.3a.7.7 0 0 0 .8.2 12 12 0 0 0 3.3-2.1.7.7 0 0 0 .1-.9l-.9-1.3a9.5 9.5 0 0 0 1.4-2.2l1.6.3a.7.7 0 0 0 .8-.4 12 12 0 0 0 .5-1.9l.2-.9a9.9 9.9 0 0 0 0-1 .7.7 0 0 0-.5-.7l-1.6-.3a9.4 9.4 0 0 0-.5-2.6l1.3-.9a.7.7 0 0 0 .3-.8 12 12 0 0 0-2.2-3.3.7.7 0 0 0-.9 0l-1.3.8a9.7 9.7 0 0 0-2.2-1.4l.4-1.6a.7.7 0 0 0-.5-.8 10.7 10.7 0 0 0-1.9-.5 12 12 0 0 0-2-.2Zm1.8 1a11.3 11.3 0 0 1 1.7.4l-.3 1.8a.3.3 0 0 0 .2.4 9.2 9.2 0 0 1 2.4 1.6.3.3 0 0 0 .4 0l1.6-1a10.2 10.2 0 0 1 2 3l-1.5 1a.4.4 0 0 0-.2.5 9 9 0 0 1 .6 2.8.4.4 0 0 0 .3.3l1.8.4a11 11 0 0 1-.2 1.8 9 9 0 0 1-.5 1.8l-1.8-.4a.4.4 0 0 0-.4.2 9.1 9.1 0 0 1-1.6 2.4.4.4 0 0 0-.1.3.7.7 0 0 0 0 .2l1 1.5a10.5 10.5 0 0 1-3 2l-1-1.5a.3.3 0 0 0-.4-.1 9.3 9.3 0 0 1-2.8.6.3.3 0 0 0-.4.2l-.4 1.8a10.8 10.8 0 0 1-1.8-.2 9 9 0 0 1-1.7-.5l.3-1.8a.4.4 0 0 0-.2-.4 9.2 9.2 0 0 1-2.4-1.6.4.4 0 0 0-.4 0l-1.6 1a10.4 10.4 0 0 1-2-3l1.5-1a.3.3 0 0 0 .2-.4 9 9 0 0 1-.6-2.9.3.3 0 0 0-.3-.3l-1.8-.4a10.8 10.8 0 0 1 .2-1.8 8.6 8.6 0 0 1 .5-1.7l1.8.4a.4.4 0 0 0 .4-.2 8.9 8.9 0 0 1 1.6-2.5.3.3 0 0 0 0-.4l-1-1.6a10.4 10.4 0 0 1 3-2l1 1.5a.4.4 0 0 0 .4.2 8.8 8.8 0 0 1 2.9-.6.4.4 0 0 0 .3-.3l.4-1.8a11 11 0 0 1 1.9.2ZM240 58.6a21 21 0 0 1-1.6-3.2 22 22 0 0 1-1-3.5 1.1 1.1 0 0 1 .7-1.3l2.9-1a17.7 17.7 0 0 1 .2-4.9l-2.8-1.2a1.2 1.2 0 0 1-.6-1.4 21.7 21.7 0 0 1 3-6.5 1.2 1.2 0 0 1 1.4-.4l2.8 1.2a17.4 17.4 0 0 1 3.6-3.3l-1-2.8a1.2 1.2 0 0 1 .5-1.4 23.6 23.6 0 0 1 3.3-1.5 22 22 0 0 1 3.4-1 1.1 1.1 0 0 1 1.3.8l1 2.8a17.8 17.8 0 0 1 5 .2l1.2-2.7a1.1 1.1 0 0 1 1.3-.7 21.8 21.8 0 0 1 6.5 3 1.1 1.1 0 0 1 .4 1.5l-1.3 2.7a17.4 17.4 0 0 1 3.3 3.6l2.9-1a1.1 1.1 0 0 1 1.4.5 21 21 0 0 1 1.5 3.3 22 22 0 0 1 1 3.4 1.1 1.1 0 0 1-.8 1.3l-2.8 1a17.4 17.4 0 0 1-.2 4.9l2.7 1.3a1.2 1.2 0 0 1 .7 1.3 21.7 21.7 0 0 1-3 6.5 1.2 1.2 0 0 1-1.5.4l-2.7-1.3a17.9 17.9 0 0 1-3.6 3.3l1 2.9a1.1 1.1 0 0 1-.5 1.4 22.7 22.7 0 0 1-3.3 1.5 23.6 23.6 0 0 1-3.4 1 1.2 1.2 0 0 1-1.3-.8l-1-2.8a17.7 17.7 0 0 1-4.9-.2l-1.2 2.7a1.1 1.1 0 0 1-1.4.7 21.5 21.5 0 0 1-6.5-3 1.1 1.1 0 0 1-.4-1.5l1.3-2.7a17.7 17.7 0 0 1-3.3-3.6l-2.9 1a1.1 1.1 0 0 1-1.4-.5Zm2.3-14.5a.6.6 0 0 1 0 .4 16.5 16.5 0 0 0-.2 5.3.6.6 0 0 1-.3.6l-3.3 1.2a16.5 16.5 0 0 0 .9 3.4 20.9 20.9 0 0 0 1.4 3.1l3.3-1.2a.6.6 0 0 1 .7.3 16.4 16.4 0 0 0 3.6 4 .6.6 0 0 1 .2.6l-1.4 3.1a19.4 19.4 0 0 0 6.1 3l1.6-3.2a.5.5 0 0 1 .6-.3 16.8 16.8 0 0 0 5.3.2.6.6 0 0 1 .6.4l1.2 3.2a21.5 21.5 0 0 0 3.4-1 20.9 20.9 0 0 0 3-1.4l-1.1-3.3a.5.5 0 0 1 .2-.6 17.3 17.3 0 0 0 4-3.7.5.5 0 0 1 .7-.1l3 1.4a19.6 19.6 0 0 0 3-6.2l-3.1-1.5a.5.5 0 0 1-.3-.6 16.6 16.6 0 0 0 .2-5.4.6.6 0 0 1 .3-.5l3.3-1.2a16.5 16.5 0 0 0-1-3.4 20.9 20.9 0 0 0-1.3-3l-3.3 1a.6.6 0 0 1-.7-.1 16.2 16.2 0 0 0-3.6-4 .6.6 0 0 1-.2-.7l1.4-3a19.4 19.4 0 0 0-6.2-3l-1.5 3.1a.6.6 0 0 1-.6.3 17 17 0 0 0-5.4-.2.5.5 0 0 1-.6-.4l-1.1-3.2a16.5 16.5 0 0 0-3.4.9 20 20 0 0 0-3.1 1.4l1.2 3.3a.5.5 0 0 1-.3.7 16.8 16.8 0 0 0-4 3.6.5.5 0 0 1-.6.2l-3.1-1.5a19.6 19.6 0 0 0-3 6.2L242 44a.6.6 0 0 1 .3.1Zm7.7 9.4a10.5 10.5 0 0 1-.7-10 10.7 10.7 0 0 1 9.9-6.2 10 10 0 0 1 7.5 3.5 10.6 10.6 0 0 1-8.2 17.6 10 10 0 0 1-7.5-3.5 10.8 10.8 0 0 1-1-1.4Zm16.8-10.7a10.6 10.6 0 0 0-1-1.3 8.9 8.9 0 0 0-6.6-3.1 9.5 9.5 0 0 0-7.3 15.8 8.9 8.9 0 0 0 6.6 3 9.6 9.6 0 0 0 8.9-5.4 9.5 9.5 0 0 0-.6-9ZM303.3 67.2a8 8 0 0 0-6-2.8 8.7 8.7 0 0 0-8 5 8.6 8.6 0 0 0 0 7.1 8 8 0 0 0 .4 1 8.8 8.8 0 0 0 .9 1.2 8 8 0 0 0 6 2.8 8.6 8.6 0 0 0 6.7-14.3Zm.4 8.8a7.6 7.6 0 0 1-7 4.4 7 7 0 0 1-5.3-2.4 7.5 7.5 0 0 1 5.8-12.6 7 7 0 0 1 5.3 2.5 11.7 11.7 0 0 1 .8 1 9.7 9.7 0 0 1 .4.9 7.6 7.6 0 0 1 0 6.2Zm9.7.4-2.2-1a14 14 0 0 0 .2-3.8l2.2-.8a1 1 0 0 0 .6-1.2 16.6 16.6 0 0 0-.7-2.8 18.7 18.7 0 0 0-1.2-2.6 1 1 0 0 0-1.3-.5l-2.2.9a14.4 14.4 0 0 0-2.6-2.9l1-2a1 1 0 0 0-.3-1.3 17.7 17.7 0 0 0-5.3-2.5 1 1 0 0 0-1.2.6l-1 2.1a14.4 14.4 0 0 0-3.8-.1l-.8-2.2a1 1 0 0 0-1.1-.7 17 17 0 0 0-5.5 2 1 1 0 0 0-.4 1.2l.8 2.2a14.6 14.6 0 0 0-2.8 2.6l-2.1-1a1 1 0 0 0-1.3.4 18 18 0 0 0-2.4 5.2 1 1 0 0 0 .6 1.2l2 1a14.3 14.3 0 0 0 0 3.8l-2.3.8a1 1 0 0 0-.6 1.1 15.7 15.7 0 0 0 .7 2.8l.5 1.3a15.6 15.6 0 0 0 .8 1.4 1 1 0 0 0 1.2.4l2.2-.8a14.2 14.2 0 0 0 2.6 2.8l-1 2.1a1 1 0 0 0 .3 1.3 17.3 17.3 0 0 0 5.3 2.4 1 1 0 0 0 1.2-.5l1-2.2a14.7 14.7 0 0 0 3.8.2l.8 2.2a1 1 0 0 0 1.1.6 20 20 0 0 0 2.8-.7 17.2 17.2 0 0 0 2.7-1.3 1 1 0 0 0 .4-1.1l-.8-2.2a14.7 14.7 0 0 0 2.8-2.6l2.1 1a1 1 0 0 0 1.3-.3 17.6 17.6 0 0 0 2.4-5.3 1 1 0 0 0-.5-1.2Zm-2.8 5.8-2.4-1.1a.5.5 0 0 0-.7.1 13.5 13.5 0 0 1-3.1 3 .5.5 0 0 0-.2.6l.9 2.5a16.7 16.7 0 0 1-2.5 1.1 14.9 14.9 0 0 1-2.6.8l-.9-2.6a.5.5 0 0 0-.5-.3 13.5 13.5 0 0 1-4.3-.2.5.5 0 0 0-.6.3l-1.2 2.4a15.2 15.2 0 0 1-4.8-2.2l1.1-2.5a.5.5 0 0 0-.2-.6 13.6 13.6 0 0 1-2.9-3.2.5.5 0 0 0-.6-.2l-2.6 1a17.7 17.7 0 0 1-1-2.5 14 14 0 0 1-.8-2.6l2.6-1a.5.5 0 0 0 .3-.5 13.5 13.5 0 0 1 .2-4.3.5.5 0 0 0 0-.4.7.7 0 0 0-.3-.2l-2.5-1.1a15.5 15.5 0 0 1 2.3-4.9l2.4 1.2a.5.5 0 0 0 .7-.2 13.5 13.5 0 0 1 3.1-3 .5.5 0 0 0 .2-.5l-.9-2.6a14.3 14.3 0 0 1 2.4-1.1 12.4 12.4 0 0 1 2.6-.7l1 2.5a.5.5 0 0 0 .5.3 13.9 13.9 0 0 1 4.3.2.5.5 0 0 0 .6-.3l1.2-2.4a15.8 15.8 0 0 1 4.8 2.3l-1 2.4a.5.5 0 0 0 0 .7 13.1 13.1 0 0 1 3 3.1.5.5 0 0 0 .6.2l2.6-.9a17.3 17.3 0 0 1 1 2.4 14.1 14.1 0 0 1 .8 2.6l-2.6 1a.5.5 0 0 0-.3.5 13.2 13.2 0 0 1-.2 4.3.5.5 0 0 0 .3.6l2.5 1.2a15.7 15.7 0 0 1-2.3 4.8Zm-13.4-17.9a8.7 8.7 0 0 0-8 5 8.6 8.6 0 0 0 0 7.2 8 8 0 0 0 .6 1 8.8 8.8 0 0 0 .8 1.2 8 8 0 0 0 6 2.8 8.6 8.6 0 0 0 6.7-14.3 8 8 0 0 0-6-2.9Zm6.5 11.7a7.6 7.6 0 0 1-7 4.4 7 7 0 0 1-5.3-2.4 7.5 7.5 0 0 1 5.8-12.6 7 7 0 0 1 5.3 2.5 11.7 11.7 0 0 1 .8 1 9.7 9.7 0 0 1 .4.9 7.6 7.6 0 0 1 0 6.2Zm-.4-8.9a8 8 0 0 0-6-2.8 8.7 8.7 0 0 0-8 5 8.6 8.6 0 0 0 0 7.2 8 8 0 0 0 .4 1 8.8 8.8 0 0 0 .9 1.1 8 8 0 0 0 6 2.9 8.6 8.6 0 0 0 6.7-14.3Zm.4 8.9a7.6 7.6 0 0 1-7 4.4 7 7 0 0 1-5.3-2.4 7.5 7.5 0 0 1 5.8-12.6 7 7 0 0 1 5.3 2.5 11.7 11.7 0 0 1 .8 1 9.7 9.7 0 0 1 .4.9 7.6 7.6 0 0 1 0 6.2ZM471.7 48.4a7.3 7.3 0 0 0-5.5-2.6 7.8 7.8 0 0 0-7.2 4.5 7.7 7.7 0 0 0 0 6.5 6.7 6.7 0 0 0 .5.9 7.8 7.8 0 0 0 .8 1 7.3 7.3 0 0 0 5.5 2.5 7.8 7.8 0 0 0 6-12.9Zm.4 8a6.9 6.9 0 0 1-6.4 4A6.4 6.4 0 0 1 461 58a6.8 6.8 0 0 1 5.3-11.3A6.3 6.3 0 0 1 471 49a8.5 8.5 0 0 1 .7 1 7.8 7.8 0 0 1 .4.7 6.8 6.8 0 0 1 0 5.7Zm8.7.3-1.9-1a12.9 12.9 0 0 0 .1-3.4l2-.7a1 1 0 0 0 .6-1 15.3 15.3 0 0 0-.7-2.5 16.8 16.8 0 0 0-1-2.4 1 1 0 0 0-1.2-.4l-2 .7a13.1 13.1 0 0 0-2.3-2.5l.9-2a1 1 0 0 0-.3-1.1 16 16 0 0 0-4.8-2.2 1 1 0 0 0-1 .5l-1 2a12.9 12.9 0 0 0-3.4-.2l-.7-2a.9.9 0 0 0-1-.6 15.8 15.8 0 0 0-2.6.7 16.7 16.7 0 0 0-2.4 1.1 1 1 0 0 0-.4 1.1l.8 2a13.1 13.1 0 0 0-2.6 2.4l-1.9-1a1 1 0 0 0-1.1.4 16.2 16.2 0 0 0-2.2 4.7 1 1 0 0 0 .5 1.1l1.9.9a12.8 12.8 0 0 0-.1 3.4l-2 .8a1 1 0 0 0-.6 1 14.7 14.7 0 0 0 .6 2.5l.5 1.1a14 14 0 0 0 .6 1.3 1 1 0 0 0 1.1.4l2-.8a12.9 12.9 0 0 0 2.3 2.6l-.9 1.9a1 1 0 0 0 .4 1.1 15.4 15.4 0 0 0 4.7 2.2 1 1 0 0 0 1-.5l1-1.9a13.3 13.3 0 0 0 3.4.2l.8 2a1 1 0 0 0 1 .6 17.5 17.5 0 0 0 2.5-.7 15.8 15.8 0 0 0 2.4-1.2 1 1 0 0 0 .4-1l-.8-2a13.1 13.1 0 0 0 2.6-2.4l2 .9a1 1 0 0 0 1-.3 16.1 16.1 0 0 0 2.3-4.8 1 1 0 0 0-.5-1Zm-2.5 5.2-2.2-1a.5.5 0 0 0-.6.2 12.2 12.2 0 0 1-2.8 2.6.5.5 0 0 0-.2.6l.8 2.3a15 15 0 0 1-2.2 1 14 14 0 0 1-2.3.6l-.9-2.3a.5.5 0 0 0-.5-.3 12.1 12.1 0 0 1-3.9-.1.5.5 0 0 0-.5.2l-1 2.3a13.8 13.8 0 0 1-4.4-2l1-2.3a.5.5 0 0 0-.2-.5 12.4 12.4 0 0 1-2.6-2.9.5.5 0 0 0-.6-.2l-2.3.8a16.1 16.1 0 0 1-1-2.2 12 12 0 0 1-.6-2.3l2.3-.8a.5.5 0 0 0 .3-.6 12 12 0 0 1 .1-3.8.5.5 0 0 0 0-.4.5.5 0 0 0-.2-.2l-2.3-1a14 14 0 0 1 2.1-4.4l2.2 1a.5.5 0 0 0 .6-.1 12 12 0 0 1 2.9-2.7.5.5 0 0 0 .1-.5l-.8-2.4a13.6 13.6 0 0 1 2.2-1 12 12 0 0 1 2.4-.6l.8 2.3a.5.5 0 0 0 .5.3 12.5 12.5 0 0 1 3.9.1.5.5 0 0 0 .5-.2L470 39a14.4 14.4 0 0 1 4.4 2l-1 2.3a.5.5 0 0 0 .1.6 12 12 0 0 1 2.6 2.8.5.5 0 0 0 .6.2l2.3-.8a15.6 15.6 0 0 1 1 2.2 12.8 12.8 0 0 1 .6 2.3l-2.3.9a.5.5 0 0 0-.3.5 12.1 12.1 0 0 1-.1 3.9.5.5 0 0 0 .3.5l2.2 1.1a14.2 14.2 0 0 1-2 4.3Zm-12-16.1a7.8 7.8 0 0 0-7.3 4.5 7.7 7.7 0 0 0 0 6.5 6.7 6.7 0 0 0 .5.9 7.8 7.8 0 0 0 .8 1 7.3 7.3 0 0 0 5.5 2.5 7.8 7.8 0 0 0 6-12.9 7.3 7.3 0 0 0-5.6-2.5Zm5.8 10.6a6.9 6.9 0 0 1-6.4 4A6.4 6.4 0 0 1 461 58a6.8 6.8 0 0 1 5.3-11.3A6.3 6.3 0 0 1 471 49a8.5 8.5 0 0 1 .7 1 7.8 7.8 0 0 1 .4.7 6.8 6.8 0 0 1 0 5.7Zm-.4-8a7.3 7.3 0 0 0-5.5-2.6 7.8 7.8 0 0 0-7.2 4.5 7.7 7.7 0 0 0 0 6.5 6.7 6.7 0 0 0 .5.9 7.8 7.8 0 0 0 .8 1 7.3 7.3 0 0 0 5.5 2.5 7.8 7.8 0 0 0 6-12.9Zm.4 8a6.9 6.9 0 0 1-6.4 4A6.4 6.4 0 0 1 461 58a6.8 6.8 0 0 1 5.3-11.3A6.3 6.3 0 0 1 471 49a8.5 8.5 0 0 1 .7 1 7.8 7.8 0 0 1 .4.7 6.8 6.8 0 0 1 0 5.7Z" style="fill:#e0e0e0"/><path d="M212.2 68.8a10.2 10.2 0 0 0 .1-3.3.4.4 0 0 1 .3-.5l2-.7a11.7 11.7 0 0 0-.5-2 14 14 0 0 0-1-1.9l-2 .7a.4.4 0 0 1-.4-.1 10.2 10.2 0 0 0-2.3-2.5.4.4 0 0 1 0-.5l.8-1.9a12.5 12.5 0 0 0-3.8-1.8l-.9 2a.4.4 0 0 1-.4.2 11 11 0 0 0-3.4-.2.4.4 0 0 1-.4-.2l-.7-2a9.8 9.8 0 0 0-2 .5 12 12 0 0 0-1.9 1l.7 2a.4.4 0 0 1-.1.4 10.4 10.4 0 0 0-2.5 2.3.4.4 0 0 1-.5 0l-1.9-.8a11.8 11.8 0 0 0-1.8 3.8l2 .9a.3.3 0 0 1 .1.1.4.4 0 0 1 0 .3 10.2 10.2 0 0 0 0 3.4.4.4 0 0 1-.3.4l-2 .7a11.5 11.5 0 0 0 .5 2 16 16 0 0 0 .9 2l2-.8a.4.4 0 0 1 .4.2 10.7 10.7 0 0 0 2.3 2.5.4.4 0 0 1 .1.5l-.9 1.9a11.9 11.9 0 0 0 3.8 1.7l.9-1.9a.4.4 0 0 1 .4-.2 10.4 10.4 0 0 0 3.4.1.4.4 0 0 1 .4.3l.8 2a12 12 0 0 0 2-.6 13 13 0 0 0 1.8-.8l-.7-2a.4.4 0 0 1 .2-.5 10.5 10.5 0 0 0 2.4-2.3.4.4 0 0 1 .5 0l2 .8a12 12 0 0 0 1.7-3.8l-1.9-.9a.4.4 0 0 1-.2-.5Zm-5.2.3a5.7 5.7 0 0 1-5.2 3.3 5.3 5.3 0 0 1-4-2 5.9 5.9 0 0 1-.6-.7 5.4 5.4 0 0 1-.3-.6 5.7 5.7 0 0 1 0-4.7A5.7 5.7 0 0 1 202 61a5.3 5.3 0 0 1 4 1.8 5.7 5.7 0 0 1 .9 6.2Z" style="fill:#f0f0f0"/><path d="m335.1 325.4-5-2.9 1.6 104 3.4 1.9v-103z" style="fill:#37474f"/><path d="m335.1 325.4 4.9-2.9-1.6 104-3.3 1.9v-103z" style="fill:#263238"/><path d="m202.9 249.1-5-2.9 1.7 104 3.3 1.9v-103z" style="fill:#37474f"/><path d="m202.9 249.1 4.9-2.9-1.6 104-3.3 1.9v-103z" style="fill:#263238"/><path d="m401.1 287.2-4.9-2.8 1.6 104 3.3 1.9V287.2z" style="fill:#37474f"/><path d="m401.1 287.2 5-2.8-1.7 104-3.3 1.9V287.2z" style="fill:#263238"/><path d="m268.9 210.9-4.9-2.8 1.6 103.9 3.3 1.9v-103z" style="fill:#37474f"/><path d="m268.9 210.9 5-2.8-1.6 103.9-3.4 1.9v-103z" style="fill:#263238"/><path d="M442 277.4v-4.2a2.4 2.4 0 0 0-1.1-2L262.1 168.2a2.4 2.4 0 0 0-2.2 0l-94.2 54.5a2.4 2.4 0 0 0-1.1 1.9v4.2a2.4 2.4 0 0 0 1 2l178.8 103.2a2.4 2.4 0 0 0 2.2 0l94.2-54.6a2.4 2.4 0 0 0 1.2-1.9Z" style="fill:#fa5951"/><path d="M442 277.4v-4.2a2.4 2.4 0 0 0-1.1-2L262.1 168.2a2.4 2.4 0 0 0-2.2 0l-94.2 54.5a2.4 2.4 0 0 0-1.1 1.9v4.2a2.4 2.4 0 0 0 1 2l178.8 103.2a2.4 2.4 0 0 0 2.2 0l94.2-54.6a2.4 2.4 0 0 0 1.2-1.9Z" style="fill:#fff;opacity:.2"/><path d="M345.5 327.3v6.8a2.3 2.3 0 0 0 1.1-.3l94.2-54.5a2.4 2.4 0 0 0 1.2-1.9v-4.2a2.4 2.4 0 0 0-1-1.8c.5.4.4.8-.1 1.2L346.6 327a2.3 2.3 0 0 1-1 .2Z" style="fill:#fa5951"/><path d="M440.9 272.6 346.6 327a2.4 2.4 0 0 1-2.2 0L165.7 223.8a.7.7 0 0 1 0-1.2l94.2-54.5a2.4 2.4 0 0 1 2.2 0l178.8 103.2a.7.7 0 0 1 0 1.3Z" style="fill:#fa5951"/><path d="M440.9 272.6 346.6 327a2.4 2.4 0 0 1-2.2 0L165.7 223.8a.7.7 0 0 1 0-1.2l94.2-54.5a2.4 2.4 0 0 1 2.2 0l178.8 103.2a.7.7 0 0 1 0 1.3Z" style="fill:#fff;opacity:.5"/><path d="m332.8 273.9 37.5-21.4a3.2 3.2 0 0 1 2.9 0l37.8 21.8a.9.9 0 0 1 0 1.6l-37.4 21.7a3.2 3.2 0 0 1-2.9 0l-38-22a.9.9 0 0 1 0-1.7Z" style="opacity:.2" fill="#000000"/><path d="m333.6 266.6 36.9-21.3 13.3 7.7-36.9 21.3-13.3-7.7z" style="fill:#455a64"/><path d="m344.7 271.4-7-4a.6.6 0 0 1 0-1.2l7-4a2.1 2.1 0 0 1 2 0l7 4a.6.6 0 0 1 0 1.1l-7 4.1a2.2 2.2 0 0 1-2 0Z" style="fill:#263238"/><path d="m344.8 263.5-7 4 7 4a2.2 2.2 0 0 0 1.9 0l6.8-4-6.8-4a2.1 2.1 0 0 0-2 0Z" style="fill:#37474f"/><path d="m370 256.9-7-4.1a.6.6 0 0 1 0-1.1l7-4.2a2.1 2.1 0 0 1 2 0l7 4.1a.6.6 0 0 1 0 1.2l-7 4a2.2 2.2 0 0 1-2 0Z" style="fill:#263238"/><path d="m371.9 256.9 6.9-4-6.9-4a2.1 2.1 0 0 0-1.9 0l-6.9 4 6.9 4a2.2 2.2 0 0 0 1.9 0Z" style="fill:#37474f"/><path d="m373.4 253.8-2.2 3.3a2.3 2.3 0 0 1-.4 0 1.7 1.7 0 0 1-.8-.2l-2.3-1.3-2.8-1.6-.8-.5 2-3.7.1-.2.1.1 3 1.7Z" style="fill:#263238"/><path d="M378.8 250.3a.5.5 0 0 0 0-.3.4.4 0 0 0-.1-.1 1.8 1.8 0 0 0-.3-.5l-.2-.1a3.4 3.4 0 0 0-.4-.3l-.3-.2-6.4-3.7-.2-.1-.5-.2c-.8-.3-2.8-.2-5.5 1.4L346 257a21.2 21.2 0 0 0-5.9 5.1 6.2 6.2 0 0 0-1.2 3v3l5.8 3.3a2 2 0 0 0 1 .2 2 2 0 0 0 1-.2l7-4 .2-1 .3-1.2a7.2 7.2 0 0 1 3.1-3.7l9.9-5.7a3.8 3.8 0 0 1 .6-.3c1.2-.5 2.3-.3 2.6.4l.4 1.2a2.3 2.3 0 0 0 .4 0 2 2 0 0 0 .7-.2l7-4v-2.3a1.8 1.8 0 0 0 0-.3Z" style="fill:#455a64"/><path d="M378.8 250.6v2.3l-7 4a2 2 0 0 1-.6.2 2.3 2.3 0 0 1-.4 0l-.5-1.2c-.3-.8-1.4-.9-2.6-.4a3.8 3.8 0 0 0-.6.3l-9.8 5.7a7.2 7.2 0 0 0-3.1 3.7l-.3 1.1-.3 1.1-7 4a2 2 0 0 1-1 .2v-2.5a6 6 0 0 1 1.4-3 18 18 0 0 1 2.2-2.5 20 20 0 0 1 3.6-2.6l12.1-7 4.4-2.6 2.4-1.3a12.6 12.6 0 0 1 2.6-1.2 4.8 4.8 0 0 1 3-.2l.2.1.3.2a3.4 3.4 0 0 1 .4.3l.2.1a1.8 1.8 0 0 1 .3.5.4.4 0 0 1 0 .1.5.5 0 0 1 .1.3 1.8 1.8 0 0 1 0 .3Z" style="fill:#37474f"/><path d="M335 270.9v2.4a1.7 1.7 0 0 0 .8 1.5l35.3 20.4a1.7 1.7 0 0 0 1.7 0l33.8-19.6a1.7 1.7 0 0 0 .9-1.4v-2.5l-34.7 20a1.7 1.7 0 0 1-1.7 0Z" style="fill:#263238"/><path d="M409 260.6v6.9l-37 21.3-25.2-14.5 23.7-13.7 13.3-14.5 25.2 14.5z" style="fill:#455a64"/><path d="M395.7 275.2 372 288.8l-38.4-22.2v2.5a1.7 1.7 0 0 0 .8 1.4l36.8 21.3a1.7 1.7 0 0 0 1.6 0l35.3-20.4a1.7 1.7 0 0 0 .9-1.5v-9.3Z" style="fill:#37474f"/><path d="m371.8 288.7-38.3-22v2.4a1.7 1.7 0 0 0 .9 1.4l36.7 21.3a1.6 1.6 0 0 0 .7.2Z" style="fill:#263238"/><path d="m371.1 291.8-36.1-21v2.5a1.7 1.7 0 0 0 .8 1.5l35.3 20.4a1.7 1.7 0 0 0 .7.2V292a1.6 1.6 0 0 1-.7-.2Z" fill="#000000"/><path d="m409 260.6-25.2-13.4-13.3 13.4 13.3-14.5 25.2 14.5zM395.7 275.2 376 263.8l20.2 10.8-.5.6z" style="fill:#fff;opacity:.1"/><path d="m370.5 260.6-23.6 13.7-.5-.3 24.1-13.4z" style="fill:#263238"/><path d="m398.9 265.2-18-10.4 4.3-4.7 18 10.3-4.3 4.8z" style="fill:#fa5951"/><path d="m402.8 260.9.4-.5-18-10.3-4.3 4.7.5.3 3.9-4.3 17.5 10.1z" style="opacity:.15" fill="#000000"/><path d="m385.3 250.8-.1-.7-4.3 4.7.5.3 3.9-4.3z" style="opacity:.15" fill="#000000"/><path d="m382.9 264.9-6.2-3.6 1-1.2 6.2 3.6a.4.4 0 0 1 .1.6l-.4.4a.6.6 0 0 1-.7.2Z" style="fill:#fff"/><path d="M378.2 259.9a.2.2 0 0 0-.1-.1l-1-.7a.4.4 0 0 0-.5.1l-1 1a.2.2 0 0 0 0 .2v.4a.3.3 0 0 0 .2.2l1 .6a.4.4 0 0 0 .5-.1l1-1a.3.3 0 0 0 0-.2l-.1-.4Z" style="fill:#fa5951"/><path d="M377.1 261.6a.4.4 0 0 0 .2 0l1-1a.3.3 0 0 0 0-.3l-.1-.4a.2.2 0 0 0-.1-.1l-1-.6a.3.3 0 0 0-.3 0Z" style="opacity:.15" fill="#000000"/><path d="M376.8 259.1a.3.3 0 0 0-.2.1l-1 1a.2.2 0 0 0 0 .2v.4a.3.3 0 0 0 .2.2l1 .6a.3.3 0 0 0 .3 0Z" style="opacity:.30000000000000004" fill="#000000"/><path d="m377.2 261.1 1-1a.2.2 0 0 0-.1-.3l-1-.6a.4.4 0 0 0-.5 0l-1 1a.2.2 0 0 0 0 .4l1.1.6a.4.4 0 0 0 .5-.1Z" style="fill:#fa5951"/><path d="m385.4 262.2-6.2-3.6 1-1.2 6.1 3.6a.3.3 0 0 1 .1.6l-.4.5a.6.6 0 0 1-.6 0Z" style="fill:#fff"/><path d="M380.6 257.2a.2.2 0 0 0 0-.1l-1.1-.6a.3.3 0 0 0-.5 0l-.9 1a.2.2 0 0 0 0 .2v.4a.2.2 0 0 0 .2.2l1 .6a.3.3 0 0 0 .5 0l.9-1a.2.2 0 0 0 0-.3v-.4Z" style="fill:#fa5951"/><path d="M379.6 259a.4.4 0 0 0 .2-.2l.9-1a.2.2 0 0 0 0-.2v-.4a.2.2 0 0 0-.2-.1l-1-.6a.3.3 0 0 0-.3 0Z" style="opacity:.15" fill="#000000"/><path d="M379.2 256.4a.3.3 0 0 0-.2.1l-.9 1a.2.2 0 0 0 0 .2v.4a.2.2 0 0 0 .2.2l1 .6a.3.3 0 0 0 .3 0Z" style="opacity:.30000000000000004" fill="#000000"/><path d="m379.7 258.4.9-1a.2.2 0 0 0 0-.3l-1.1-.6a.3.3 0 0 0-.5 0l-.9 1a.2.2 0 0 0 0 .4l1.1.6a.4.4 0 0 0 .5 0Z" style="fill:#fa5951"/><path d="m393.2 270.8-6.2-3.6 1-1.1 6.2 3.5a.3.3 0 0 1 .1.6l-.4.5a.6.6 0 0 1-.7.1Z" style="fill:#fff"/><path d="M388.5 265.8a.2.2 0 0 0-.1-.1l-1-.6a.4.4 0 0 0-.5 0l-1 1a.3.3 0 0 0 0 .3l.1.4a.3.3 0 0 0 .1.1l1 .6a.3.3 0 0 0 .5 0l1-1a.3.3 0 0 0 0-.3l-.1-.4Z" style="fill:#fa5951"/><path d="M387.4 267.6a.3.3 0 0 0 .2-.2l1-1a.3.3 0 0 0 0-.1l-.1-.5a.2.2 0 0 0-.1-.1l-1-.6a.4.4 0 0 0-.3 0Z" style="opacity:.15" fill="#000000"/><path d="M387 265a.4.4 0 0 0-.1.2l-1 1a.3.3 0 0 0 0 .2l.1.4a.3.3 0 0 0 .1.1l1 .6a.4.4 0 0 0 .3 0Z" style="opacity:.30000000000000004" fill="#000000"/><path d="m387.5 267 1-1a.2.2 0 0 0-.1-.3l-1-.7a.4.4 0 0 0-.5.1l-1 1a.2.2 0 0 0 .1.4l1 .6a.3.3 0 0 0 .5-.1Z" style="fill:#fa5951"/><path d="m395.7 268.1-6.2-3.6 1-1.1 6.2 3.6a.3.3 0 0 1 0 .6l-.4.4a.6.6 0 0 1-.6.1Z" style="fill:#fff"/><path d="M391 263.2a.2.2 0 0 0-.1-.2l-1-.6a.3.3 0 0 0-.5 0l-1 1a.2.2 0 0 0 0 .3l.1.4a.2.2 0 0 0 .1.1l1 .6a.3.3 0 0 0 .5 0l1-1a.2.2 0 0 0 0-.2l-.1-.4Z" style="fill:#fa5951"/><path d="M389.9 264.9a.4.4 0 0 0 .2-.1l.9-1a.2.2 0 0 0 0-.2v-.4a.2.2 0 0 0-.2-.2l-1-.6a.4.4 0 0 0-.3 0Z" style="opacity:.15" fill="#000000"/><path d="M389.5 262.4a.4.4 0 0 0-.1 0l-1 1a.2.2 0 0 0 0 .3v.4a.2.2 0 0 0 .2.1l1 .6a.4.4 0 0 0 .3 0Z" style="opacity:.30000000000000004" fill="#000000"/><path d="m390 264.4 1-1a.2.2 0 0 0-.1-.4l-1.1-.6a.3.3 0 0 0-.4 0l-1 1a.2.2 0 0 0 .1.4l1 .6a.4.4 0 0 0 .5 0ZM371 263.5l-2.2 1.2a.6.6 0 0 0 0 1.1l1 .6a2 2 0 0 0 1.8 0l2.2-1.3a.6.6 0 0 0 0-1l-1-.6a2 2 0 0 0-1.8 0Z" style="fill:#fa5951"/><path d="M374 265a1 1 0 0 1-.2 0l-2.2 1.4a2 2 0 0 1-1.9 0l-1-.6a.8.8 0 0 1-.2-.2.5.5 0 0 1-.1-.3v.7a.7.7 0 0 0 .3.5l1 .6a2 2 0 0 0 1.9 0l2.2-1.3a.7.7 0 0 0 .4-.5v-.8a.5.5 0 0 1-.2.4ZM377.2 267l-2.2 1.3a.6.6 0 0 0 0 1.1l1 .6a2 2 0 0 0 1.8 0l2.3-1.3c.5-.3.5-.8 0-1l-1-.6a2 2 0 0 0-1.9 0Z" style="fill:#fa5951"/><path d="M380.2 268.5a.8.8 0 0 1-.2.2l-2.2 1.3a2 2 0 0 1-1.8 0l-1-.6a2 2 0 0 1-.2-.2.6.6 0 0 1-.2-.3v.7a.7.7 0 0 0 .4.5l1 .6a2 2 0 0 0 1.8 0l2.2-1.3a.7.7 0 0 0 .4-.5v-.7a.5.5 0 0 1-.2.3ZM382 269.9l-2.1 1.3a.6.6 0 0 0 0 1l1 .6a2 2 0 0 0 1.8 0l2.2-1.3a.6.6 0 0 0 0-1l-1-.6a2 2 0 0 0-1.8 0Z" style="fill:#fa5951"/><path d="M385.1 271.4a1 1 0 0 1-.2.1l-2.2 1.3a2 2 0 0 1-1.8 0l-1-.6a2 2 0 0 1-.2-.1.5.5 0 0 1-.2-.4v.7a.7.7 0 0 0 .4.6l1 .5a2 2 0 0 0 1.8 0l2.2-1.3a.7.7 0 0 0 .4-.5v-.7a.5.5 0 0 1-.2.4ZM387 272.7l-2.3 1.3a.6.6 0 0 0 0 1l1 .6a2 2 0 0 0 1.9 0l2.1-1.3a.6.6 0 0 0 0-1l-1-.6a2 2 0 0 0-1.8 0Z" style="fill:#fa5951"/><path d="M390 274.2a.7.7 0 0 1-.3.1l-2.2 1.3a2 2 0 0 1-1.8 0l-1-.6a2 2 0 0 1-.2-.1.6.6 0 0 1-.2-.4v.7a.7.7 0 0 0 .4.6l1 .5a2 2 0 0 0 1.8 0l2.2-1.2a.6.6 0 0 0 .4-.6v-.7a.5.5 0 0 1-.2.4ZM365.8 266.5l-2.3 1.2c-.5.3-.5.8 0 1.1l1 .6a2 2 0 0 0 1.9 0l2.2-1.3a.6.6 0 0 0 0-1l-1-.6a2 2 0 0 0-1.9 0Z" style="fill:#fa5951"/><path d="M368.8 268a.7.7 0 0 1-.2 0l-2.2 1.4a2 2 0 0 1-1.9 0l-1-.6a2 2 0 0 1-.2-.2.6.6 0 0 1-.2-.3v.7a.7.7 0 0 0 .4.5l1 .6a2 2 0 0 0 1.9 0l2.2-1.3a.7.7 0 0 0 .3-.5v-.7a.5.5 0 0 1-.1.3ZM372 270l-2.2 1.3a.6.6 0 0 0 0 1.1l1 .6a2 2 0 0 0 1.9 0l2.2-1.3a.6.6 0 0 0 0-1l-1-.6a2 2 0 0 0-1.9 0Z" style="fill:#fa5951"/><path d="M375 271.5a1.2 1.2 0 0 1-.2.2l-2.2 1.3a2 2 0 0 1-1.8 0l-1-.6a2 2 0 0 1-.3-.2.6.6 0 0 1-.1-.3v.7a.7.7 0 0 0 .4.5l1 .6a2 2 0 0 0 1.8 0l2.2-1.3a.7.7 0 0 0 .4-.5v-.7a.5.5 0 0 1-.2.3ZM376.9 272.9l-2.2 1.3c-.5.3-.5.7 0 1l1 .6a2 2 0 0 0 1.8 0l2.2-1.3a.6.6 0 0 0 0-1l-1-.6a2 2 0 0 0-1.8 0Z" style="fill:#fa5951"/><path d="M380 274.4a1.4 1.4 0 0 1-.3.1l-2.2 1.3a2 2 0 0 1-1.8 0l-1-.6a1.2 1.2 0 0 1-.2-.1.5.5 0 0 1-.2-.4v.7a.7.7 0 0 0 .4.6l1 .5a2 2 0 0 0 1.8 0l2.2-1.3a.6.6 0 0 0 .4-.5v-.7a.6.6 0 0 1-.2.4ZM381.7 275.7l-2.2 1.3a.6.6 0 0 0 0 1l1 .6a2 2 0 0 0 1.8 0l2.2-1.3c.6-.3.6-.7 0-1l-1-.6a2 2 0 0 0-1.8 0Z" style="fill:#fa5951"/><path d="M384.7 277.2a.7.7 0 0 1-.2.1l-2.2 1.3a2 2 0 0 1-1.8 0l-1-.6a2 2 0 0 1-.2-.1.6.6 0 0 1-.2-.4v.7a.7.7 0 0 0 .4.6l1 .5a2 2 0 0 0 1.8 0l2.2-1.2a.7.7 0 0 0 .4-.6v-.7a.5.5 0 0 1-.2.4ZM360.6 269.5l-2.3 1.2a.6.6 0 0 0 0 1.1l1 .6a2 2 0 0 0 1.9 0l2.2-1.3a.6.6 0 0 0 0-1l-1-.6a2 2 0 0 0-1.8 0Z" style="fill:#fa5951"/><path d="M363.6 271a.7.7 0 0 1-.2 0l-2.2 1.4a2 2 0 0 1-1.9 0l-1-.6a2 2 0 0 1-.2-.2.6.6 0 0 1-.2-.3v.7a.7.7 0 0 0 .4.5l1 .6a2 2 0 0 0 1.9 0l2.2-1.3a.7.7 0 0 0 .3-.5v-.7a.5.5 0 0 1-.1.3ZM366.8 273l-2.2 1.3a.6.6 0 0 0 0 1.1l1 .6a2 2 0 0 0 1.9 0l2.2-1.3c.5-.3.5-.8 0-1l-1-.6a2 2 0 0 0-1.9 0Z" style="fill:#fa5951"/><path d="M369.8 274.5a1.2 1.2 0 0 1-.2.2l-2.2 1.3a2 2 0 0 1-1.8 0l-1-.6a2 2 0 0 1-.2-.2.6.6 0 0 1-.2-.3v.7a.7.7 0 0 0 .4.5l1 .6a2 2 0 0 0 1.8 0l2.2-1.3a.7.7 0 0 0 .4-.5v-.7a.5.5 0 0 1-.2.3ZM371.7 275.9l-2.2 1.3a.6.6 0 0 0 0 1l1 .6a2 2 0 0 0 1.8 0l2.2-1.3a.6.6 0 0 0 0-1l-1-.6a2 2 0 0 0-1.8 0Z" style="fill:#fa5951"/><path d="M374.7 277.4a1 1 0 0 1-.2.1l-2.2 1.3a2 2 0 0 1-1.8 0l-1-.6a.8.8 0 0 1-.2-.1.5.5 0 0 1-.2-.4v.7a.7.7 0 0 0 .4.6l1 .5a2 2 0 0 0 1.8 0l2.2-1.3a.7.7 0 0 0 .4-.5v-.7a.5.5 0 0 1-.2.4ZM376.5 278.7l-2.2 1.3a.6.6 0 0 0 0 1l1 .6a2 2 0 0 0 1.8 0l2.2-1.3a.6.6 0 0 0 0-1l-1-.6a2 2 0 0 0-1.8 0Z" style="fill:#fa5951"/><path d="M379.5 280.2a1 1 0 0 1-.2.1l-2.2 1.3a2 2 0 0 1-1.8 0l-1-.6a2 2 0 0 1-.2-.1.5.5 0 0 1-.2-.4v.8a.7.7 0 0 0 .4.5l1 .5a2 2 0 0 0 1.8 0l2.2-1.2a.7.7 0 0 0 .4-.6v-.7a.5.5 0 0 1-.2.4ZM355.4 272.5l-2.2 1.2a.6.6 0 0 0 0 1.1l1 .6a2 2 0 0 0 1.8 0l2.2-1.3a.6.6 0 0 0 0-1l-1-.6a2 2 0 0 0-1.8 0Z" style="fill:#fa5951"/><path d="M358.4 274a1 1 0 0 1-.2.1l-2.2 1.3a2 2 0 0 1-1.9 0l-1-.6a2 2 0 0 1-.2-.2.6.6 0 0 1-.2-.3v.7a.7.7 0 0 0 .4.5l1 .6a2 2 0 0 0 1.9 0l2.2-1.3a.7.7 0 0 0 .3-.5v-.7a.5.5 0 0 1-.1.3ZM361.6 276l-2.2 1.3a.6.6 0 0 0 0 1.1l1 .6a2 2 0 0 0 1.9 0l2.2-1.3a.6.6 0 0 0 0-1l-1-.6a2 2 0 0 0-1.9 0Z" style="fill:#fa5951"/><path d="M364.6 277.5a1 1 0 0 1-.2.2l-2.2 1.3a2 2 0 0 1-1.8 0l-1-.6a2 2 0 0 1-.2-.2.6.6 0 0 1-.2-.3v.7a.7.7 0 0 0 .4.5l1 .6a2 2 0 0 0 1.8 0l2.2-1.3a.7.7 0 0 0 .4-.5v-.7a.5.5 0 0 1-.2.3ZM366.5 278.9l-2.2 1.3a.6.6 0 0 0 0 1l1 .6a2 2 0 0 0 1.8 0l2.2-1.3a.6.6 0 0 0 0-1l-1-.6a2 2 0 0 0-1.8 0Z" style="fill:#fa5951"/><path d="M369.5 280.4a.7.7 0 0 1-.2.1l-2.2 1.3a2 2 0 0 1-1.8 0l-1-.6a1.1 1.1 0 0 1-.3-.1.6.6 0 0 1-.1-.4v.7a.7.7 0 0 0 .4.6l1 .5a2 2 0 0 0 1.8 0l2.2-1.3a.7.7 0 0 0 .4-.5v-.7a.5.5 0 0 1-.2.4ZM371.3 281.7l-2.2 1.3c-.5.3-.5.7 0 1l1 .6a2 2 0 0 0 1.8 0l2.3-1.3a.6.6 0 0 0 0-1l-1-.6a2 2 0 0 0-1.9 0Z" style="fill:#fa5951"/><path d="M374.3 283.2a1.4 1.4 0 0 1-.2.1l-2.2 1.3a2 2 0 0 1-1.8 0l-1-.6a1.2 1.2 0 0 1-.2-.1.5.5 0 0 1-.2-.4v.8a.7.7 0 0 0 .4.5l1 .5a2 2 0 0 0 1.8 0l2.2-1.2a.6.6 0 0 0 .4-.6v-.7a.6.6 0 0 1-.2.4Z" style="fill:#fa5951"/><g style="opacity:.35000000000000003"><path d="M374 265a1 1 0 0 1-.2 0l-2.2 1.4a2 2 0 0 1-1.9 0l-1-.6a.8.8 0 0 1-.2-.2.5.5 0 0 1-.1-.3v.7a.7.7 0 0 0 .3.5l1 .6a2 2 0 0 0 1.9 0l2.2-1.3a.7.7 0 0 0 .4-.5v-.8a.5.5 0 0 1-.2.4ZM380.2 268.5a.8.8 0 0 1-.2.2l-2.2 1.3a2 2 0 0 1-1.8 0l-1-.6a2 2 0 0 1-.2-.2.6.6 0 0 1-.2-.3v.7a.7.7 0 0 0 .4.5l1 .6a2 2 0 0 0 1.8 0l2.2-1.3a.7.7 0 0 0 .4-.5v-.7a.5.5 0 0 1-.2.3ZM385.1 271.4a1 1 0 0 1-.2.1l-2.2 1.3a2 2 0 0 1-1.8 0l-1-.6a2 2 0 0 1-.2-.1.5.5 0 0 1-.2-.4v.7a.7.7 0 0 0 .4.6l1 .5a2 2 0 0 0 1.8 0l2.2-1.3a.7.7 0 0 0 .4-.5v-.7a.5.5 0 0 1-.2.4ZM390 274.2a.7.7 0 0 1-.3.1l-2.2 1.3a2 2 0 0 1-1.8 0l-1-.6a2 2 0 0 1-.2-.1.6.6 0 0 1-.2-.4v.7a.7.7 0 0 0 .4.6l1 .5a2 2 0 0 0 1.8 0l2.2-1.2a.6.6 0 0 0 .4-.6v-.7a.5.5 0 0 1-.2.4ZM368.8 268a.7.7 0 0 1-.2 0l-2.2 1.4a2 2 0 0 1-1.9 0l-1-.6a2 2 0 0 1-.2-.2.6.6 0 0 1-.2-.3v.7a.7.7 0 0 0 .4.5l1 .6a2 2 0 0 0 1.9 0l2.2-1.3a.7.7 0 0 0 .3-.5v-.7a.5.5 0 0 1-.1.3ZM375 271.5a1.2 1.2 0 0 1-.2.2l-2.2 1.3a2 2 0 0 1-1.8 0l-1-.6a2 2 0 0 1-.3-.2.6.6 0 0 1-.1-.3v.7a.7.7 0 0 0 .4.5l1 .6a2 2 0 0 0 1.8 0l2.2-1.3a.7.7 0 0 0 .4-.5v-.7a.5.5 0 0 1-.2.3ZM380 274.4a1.4 1.4 0 0 1-.3.1l-2.2 1.3a2 2 0 0 1-1.8 0l-1-.6a1.2 1.2 0 0 1-.2-.1.5.5 0 0 1-.2-.4v.7a.7.7 0 0 0 .4.6l1 .5a2 2 0 0 0 1.8 0l2.2-1.3a.6.6 0 0 0 .4-.5v-.7a.6.6 0 0 1-.2.4ZM384.7 277.2a.7.7 0 0 1-.2.1l-2.2 1.3a2 2 0 0 1-1.8 0l-1-.6a2 2 0 0 1-.2-.1.6.6 0 0 1-.2-.4v.7a.7.7 0 0 0 .4.6l1 .5a2 2 0 0 0 1.8 0l2.2-1.2a.7.7 0 0 0 .4-.6v-.7a.5.5 0 0 1-.2.4ZM363.6 271a.7.7 0 0 1-.2 0l-2.2 1.4a2 2 0 0 1-1.9 0l-1-.6a2 2 0 0 1-.2-.2.6.6 0 0 1-.2-.3v.7a.7.7 0 0 0 .4.5l1 .6a2 2 0 0 0 1.9 0l2.2-1.3a.7.7 0 0 0 .3-.5v-.7a.5.5 0 0 1-.1.3ZM369.8 274.5a1.2 1.2 0 0 1-.2.2l-2.2 1.3a2 2 0 0 1-1.8 0l-1-.6a2 2 0 0 1-.2-.2.6.6 0 0 1-.2-.3v.7a.7.7 0 0 0 .4.5l1 .6a2 2 0 0 0 1.8 0l2.2-1.3a.7.7 0 0 0 .4-.5v-.7a.5.5 0 0 1-.2.3ZM374.7 277.4a1 1 0 0 1-.2.1l-2.2 1.3a2 2 0 0 1-1.8 0l-1-.6a.8.8 0 0 1-.2-.1.5.5 0 0 1-.2-.4v.7a.7.7 0 0 0 .4.6l1 .5a2 2 0 0 0 1.8 0l2.2-1.3a.7.7 0 0 0 .4-.5v-.7a.5.5 0 0 1-.2.4ZM379.5 280.2a1 1 0 0 1-.2.1l-2.2 1.3a2 2 0 0 1-1.8 0l-1-.6a2 2 0 0 1-.2-.1.5.5 0 0 1-.2-.4v.8a.7.7 0 0 0 .4.5l1 .5a2 2 0 0 0 1.8 0l2.2-1.2a.7.7 0 0 0 .4-.6v-.7a.5.5 0 0 1-.2.4ZM358.4 274a1 1 0 0 1-.2.1l-2.2 1.3a2 2 0 0 1-1.9 0l-1-.6a2 2 0 0 1-.2-.2.6.6 0 0 1-.2-.3v.7a.7.7 0 0 0 .4.5l1 .6a2 2 0 0 0 1.9 0l2.2-1.3a.7.7 0 0 0 .3-.5v-.7a.5.5 0 0 1-.1.3ZM364.6 277.5a1 1 0 0 1-.2.2l-2.2 1.3a2 2 0 0 1-1.8 0l-1-.6a2 2 0 0 1-.2-.2.6.6 0 0 1-.2-.3v.7a.7.7 0 0 0 .4.5l1 .6a2 2 0 0 0 1.8 0l2.2-1.3a.7.7 0 0 0 .4-.5v-.7a.5.5 0 0 1-.2.3ZM369.5 280.4a.7.7 0 0 1-.2.1l-2.2 1.3a2 2 0 0 1-1.8 0l-1-.6a1.1 1.1 0 0 1-.3-.1.6.6 0 0 1-.1-.4v.7a.7.7 0 0 0 .4.6l1 .5a2 2 0 0 0 1.8 0l2.2-1.3a.7.7 0 0 0 .4-.5v-.7a.5.5 0 0 1-.2.4ZM374.3 283.2a1.4 1.4 0 0 1-.2.1l-2.2 1.3a2 2 0 0 1-1.8 0l-1-.6a1.2 1.2 0 0 1-.2-.1.5.5 0 0 1-.2-.4v.8a.7.7 0 0 0 .4.5l1 .5a2 2 0 0 0 1.8 0l2.2-1.2a.6.6 0 0 0 .4-.6v-.7a.6.6 0 0 1-.2.4Z" fill="#000000"/></g><path d="m297 243.8-24 14a2.9 2.9 0 0 1-2.6 0l-68-39.1a.8.8 0 0 1 0-1.5l24.2-14a2.9 2.9 0 0 1 2.6 0l67.9 39a.8.8 0 0 1 0 1.6Z" style="opacity:.2" fill="#000000"/><path d="M204.3 214.3a.9.9 0 0 1 .6-.7l21.4-12.4a2.8 2.8 0 0 1 2.6 0l65.6 37.9a.9.9 0 0 1 .5.7v2.3a1 1 0 0 1-.5.7L273 255.2a2.9 2.9 0 0 1-2.6 0L205 217.4a.9.9 0 0 1-.6-.8Z" style="fill:#263238"/><path d="m273 252.9 21.5-12.3a.8.8 0 0 0 0-1.5l-65.6-38a2.8 2.8 0 0 0-2.5 0l-21.5 12.5a.8.8 0 0 0 0 1.5l65.5 37.8a2.9 2.9 0 0 0 2.6 0Z" style="fill:#37474f"/><path d="M271.8 253.2v2.3a2.6 2.6 0 0 0 1.2-.3l21.5-12.4a1 1 0 0 0 .5-.7v-2.3a1 1 0 0 1-.5.7L273 253a2.6 2.6 0 0 1-1.2.3Z" style="fill:#263238"/><path d="m208.3 214.5 2.1-1.3 3 1.7-2.2 1.3-2.9-1.7Zm3.3-2 2.2-1.2 2.2 1.3-2.1 1.3-2.3-1.3Zm.7 4.3 2.2-1.2 2.2 1.3-2.1 1.3-2.3-1.3Zm2.7-6.2 2-1.2 3.7 2.1-2 1.3-3.7-2.2Zm0 4 2.2-1.3 1.8 1-2.2 1.3-1.8-1Zm.7 4.2 2.2-1.3 2.2 1.4-2.1 1.2-2.3-1.3Zm2.3-2.6 2.1-1.2 1.8 1-2.1 1.3-1.8-1Zm.3-7.5 2.1-1.2 3 1.7-2.2 1.2-3-1.6Zm.9 12 2-1.2 16.5 9.4-2.2 1.3-16.4-9.4Zm.6-7.3 2.1-1.3 1.8 1-2.1 1.3-1.8-1Zm1.1 4.5 2.2-1.2 1.8 1-2.2 1.3-1.7-1Zm.7-11.1 2.2-1.3 1.8 1-2.2 1.3-1.8-1Zm.7 4.2 2.2-1.2 1.8 1-2.2 1.2-1.8-1Zm.4 4 2.1-1.2 1.8 1-2.1 1.3-1.8-1Zm1.2 4.6 2.1-1.2 1.8 1-2.1 1.2-1.8-1Zm.7-11.1 2-1.3 1.9 1-2.2 1.3-1.7-1Zm.7 4.2 2-1.2 1.9 1-2.2 1.2-1.7-1Zm.4 4 2-1.2 1.9 1-2.2 1.3-1.8-1Zm0-12.3 2-1.2 2.3 1.3-2 1.3-2.4-1.3Zm1.1 16.9 2.1-1.2 1.8 1-2.1 1.2-1.8-1Zm.7-11.1 2.1-1.3 1.8 1-2.1 1.3-1.8-1Zm.7 4.2 2.1-1.2 1.8 1-2.1 1.3-1.8-1Zm.4 4 2.1-1.2 1.8 1-2.1 1.3-1.8-1Zm1.2 4.6 2.1-1.2 1.8 1-2.1 1.2-1.8-1Zm.5-15.9 2.2-1.2 1.8 1-2.2 1.3-1.8-1Zm.1 4.8 2.2-1.3 1.8 1-2.2 1.3-1.8-1Zm.7 4.2 2.2-1.2 1.8 1-2.1 1.3-1.8-1Zm.4 4 2.2-1.1 1.8 1-2.2 1.3-1.7-1Zm1.2 4.6 2.1-1.2 1.8 1-2.1 1.2-1.8-1Zm.6-15.9 2.1-1.2 1.8 1-2.1 1.3-1.8-1Zm.1 4.8 2.1-1.3 1.8 1-2.1 1.3-1.8-1Zm.7 4.2 2.1-1.2 1.8 1-2.1 1.2-1.8-1Zm.4 4 2.1-1.2 1.8 1-2.1 1.4-1.8-1Zm1.2 4.6 2-1.2 1.9 1-2.2 1.2-1.8-1Zm.5-15.9 2.2-1.2 1.8 1-2.2 1.3-1.8-1Zm.1 4.8 2.2-1.3 1.8 1-2.2 1.3-1.8-1Zm.4 15.5 2.1-1.2 2.3 1.3-2.2 1.3-2.2-1.3Zm.3-11.3 2.2-1.2 1.8 1-2.2 1.2-1.8-1Zm.4 4 2.2-1.2 1.7 1-2 1.3-1.9-1Zm1.2 4.6 2.1-1.2 1.8 1-2.1 1.2-1.8-1Zm.6-15.9 2.1-1.2 1.8 1-2.1 1.3-1.8-1Zm0 4.8 2.2-1.3 1.8 1-2.1 1.3-1.8-1Zm.8 4.2 2.1-1.2 1.8 1-2.1 1.2-1.8-1Zm0 11.6 2.2-1.2 2.3 1.3-2.2 1.2-2.2-1.3Zm.4-7.5 2.1-1.3 1.8 1-2.1 1.3-1.8-1Zm1.1 4.5 2.2-1.2 1.8 1-2.2 1.2-1.8-1Zm.7-11.1 2.2-1.3 1.8 1-2.2 1.3-1.8-1Zm.7 4.2 2.1-1.2 1.8 1-2 1.3-1.8-1Zm.4 4 2.1-1.2 1.8 1-2.1 1.3-1.8-1Zm.1-12.2 2.1-1.3 1.8 1-2.1 1.3-1.8-1Zm0 20 2.2-1.2 2.3 1.3-2.2 1.3-2.2-1.3Zm1-3.2 2.2-1.2 1.8 1-2.1 1.2-1.8-1Zm.8-11.1 2.1-1.3 1.8 1-2.1 1.3-1.8-1Zm.7 4.2 2.1-1.2 1.8 1-2.1 1.2-1.8-1Zm.4 4 2.1-1.2 1.8 1-2.1 1.3-1.8-1Zm0-12.2 2.2-1.3 1.8 1-2.2 1.3-1.8-1Zm.6 20.3 2.1-1.2 3 1.7-2.2 1.2-3-1.6Zm.5-3.5 2.2-1.2 5.6 3.2-2.1 1.3-5.7-3.3Zm.7-11.1 2.1-1.3 1.8 1-2 1.3-1.9-1Zm.7 4.2 2.1-1.2 1.8 1-2.1 1.2-1.8-1Zm.4 4 2.1-1.2 1.8 1-2.1 1.4-1.8-1Zm.1-12.2 2.1-1.3 1.8 1-2.1 1.3-1.8-1Zm1.8 5.7 2-1.3 1.9 1-2.2 1.3-1.8-1Zm.4 15.6 2.2-1.2 1.8 1-2.2 1.2-1.8-1Zm.3-11.4 2.1-1.2 1.8 1-2.1 1.2-1.8-1Zm.4 4 2-1.2 1.7 1a1 1 0 0 0 .5.2 1.2 1.2 0 0 0 .6-.2l2.8-1.6 2.1 1.2-5.5 3.2-4.3-2.4Zm0-12.2 2.2-1.3 1.8 1-2.2 1.3-1.8-1Zm1.8 5.7 2.1-1.3 1.8 1-2.1 1.3-1.8-1Zm.5 15.6 2.1-1.2 1.8 1-2.1 1.2-1.8-1Zm.2-11.4 2.1-1.2 1.8 1-2.1 1.2-1.8-1Zm1.8-7.5 2.1-1.2 1.8 1-2.1 1.3-1.8-1Zm.4 5 2.2-1.3 1.8 1-2.2 1.3-1.8-1Zm.5 15.6 2.2-1.2 1.7 1-2 1.2-1.9-1Zm.4-3.6 2.2-1.2 1.8 1-2.1 1.3-1.8-1Zm1.6-15.2 2.1-1.2 1.8 1-2 1.2-1.9-1Zm.5 5 2.1-1.3 3.2 1.9-2.1 1.2-3.2-1.8Zm1.1 16 2.1-1.3 4.8 2.8-2.2 1.2-4.7-2.8Zm.5-11.3 2.2-1.2 1.8 1-2.2 1.3-1.8-1Zm.9-8 2.1-1.2 1.8 1-2.1 1.3-1.8-1Zm2 17.4 2.1-1.3 1.8 1-2.2 1.2-1.8-1Zm.1-7.6 2.1-1.3 1.8 1-2.1 1.3-1.8-1Zm.4-3.7 2.1-1.3 1.8 1-2.1 1.3-1.8-1Zm.4-4.4 2.2-1.2 1.8 1-2.2 1.3-1.8-1Zm1.6 21 2.1-1.4 1.8 1-2.1 1.3-1.8-1Zm.4-3.6 2.1-1.2 1.8 1-2.1 1.2-1.8-1Zm.2-7.6 2-1.2 1.9 1-2.2 1.2-1.8-1Zm.2 4 2.1-1.2 1.8 1-2.1 1.2-1.8-1Zm.1-7.6 2.2-1.4 1.8 1-2.1 1.3-1.8-1Zm1.1-4 2.2-1.2 1.8 1-2.2 1.2-1.8-1Zm1 20.6 5.4-3.2 1.8 1-5.5 3.2-1.7-1Zm.4-3.6 2-1.3 1.9 1-2.2 1.1-1.8-1Zm.3-3.7 2.2-1.2 1.8 1-2.2 1.3-1.8-1Zm.2-7.6 2.1-1.2 1.8 1-2.1 1.3-1.8-1Zm.2 4 2.1-1.2 1.8 1-2.1 1.3-1.8-1Zm.9-8 2.1-1.2 1.8 1-2.1 1.3-1.8-1Zm1.7 13.4 2.1-1.3 1.8 1-2.1 1.3-1.8-1Zm.4-3.7 2.1-1.2 1.8 1-2.1 1.3-1.8-1Zm.3-3.6 2.2-1.2 1.8 1-2.2 1.3-1.8-1Zm.5-4.4 2.2-1.2 1.8 1-2.2 1.3-1.8-1Zm1.7 13.4 5.5-3.4 1.8 1-5.5 3.2-1.8-1Zm.4-3.7 2.1-1.2 1.8 1-2.1 1.3-1.8-1Zm.4-3.6 2.1-1.2 1.8 1-2.1 1.1-1.8-1Zm2-4.5.9-.5 1.8 1-1 .5-1.7-1Zm1 6.2 2.1-1.2 1.8 1-2.2 1-1.8-1Zm2-4.5.9-.5 1.8 1-1 .5-1.7-1Zm1 6.2 2.1-1.2 1.8 1-2.2 1-1.8-1Zm2-4.5.8-.5 1.8 1-.9.5-1.8-1Zm2.9 1.7.9-.5 1.8 1-1 .5-1.7-1Z" style="fill:#fa5951"/><path d="m349.1 243.6 11.8-6.8c1.7-1 1.7-2.7 0-3.7l-84.4-48.7a7 7 0 0 0-6.4 0l-11.8 6.8c-1.7 1-1.7 2.7 0 3.7l84.4 48.7a7 7 0 0 0 6.4 0Z" style="opacity:.2" fill="#000000"/><path d="m294.5 228.4-13-7.5a3.4 3.4 0 0 1-2-2.8v-1.8l12.2-7a2.9 2.9 0 0 0 1.3-2.2v-16l22.6 13.1v16a2.9 2.9 0 0 1-1.3 2.2l-10.2 6a10.7 10.7 0 0 1-9.6 0Z" style="fill:#37474f"/><path d="M310.2 223v1.8l4.2-2.4a2.8 2.8 0 0 0 1.3-2.2v-16l-4.3-2.5-.3 3.3 3 1.8v12.5a2.9 2.9 0 0 1-1.3 2.2Z" style="fill:#263238"/><path d="M314.1 219.3a2.9 2.9 0 0 1-1.3 2.2l-8.6 5a10.7 10.7 0 0 1-9.7 0l-13-7.5c-2.7-1.5-2.7-4 0-5.5l8.6-5a2.9 2.9 0 0 0 1.3-2.3v-12.5l22.7 13.1Z" style="fill:#455a64"/><path d="m287.5 210 2.7-1.5a2.9 2.9 0 0 0 1.3-2.3v-12.5l22.6 13.1v12.5a2.9 2.9 0 0 1-1.3 2.2l-2.6 1.5Z" style="fill:#37474f"/><path d="M350.4 236.5a3.5 3.5 0 0 1-3 0l-87.6-50.6a3.6 3.6 0 0 1-1.6-2.8v-67.5a3 3 0 0 1 4.6-2.7l87.5 50.6a3.6 3.6 0 0 1 1.7 2.8v67.5a3.5 3.5 0 0 1-1.6 2.7Z" style="fill:#37474f"/><path d="m347.3 236.5-87.5-50.6a3.5 3.5 0 0 1-1.6-2.8v-67.5c0-1 .7-1.4 1.6-1l87.5 50.6a3.5 3.5 0 0 1 1.6 2.8v67.5c0 1-.7 1.5-1.6 1Z" style="fill:#455a64"/><path d="M346 226.1V169a2.1 2.1 0 0 0-1-1.7L262 119.5c-.5-.3-1 0-1 .6v57a2.2 2.2 0 0 0 1 1.8l82.8 47.8c.6.3 1 0 1-.6Z" style="fill:#e6e6e6"/><path d="M301.7 204.2a3.3 3.3 0 0 1 1.6 2.6c0 1-.7 1.4-1.6.9a3.4 3.4 0 0 1-1.5-2.6c0-1 .7-1.4 1.5-1Z" style="fill:#fa5951"/><path d="m351.5 164.7-3 1.7a3.4 3.4 0 0 1 .5 1.6v67.8c0 .9-.6 1.3-1.4 1a3 3 0 0 0 4.4-2.8v-67.7a3.4 3.4 0 0 0-.5-1.6Z" style="fill:#263238"/><path d="m287.8 266.2 8.2 4.8a9 9 0 0 0 9.1-.5l13.6-10c2.5-1.7 2.3-4.4-.3-5.9l-4.1-2.4a11.2 11.2 0 0 0-9.6-.2l-16.8 9c-2.6 1.4-2.7 3.7-.1 5.2Z" style="opacity:.2" fill="#000000"/><path d="m319 256.3-9.4 7.3-7 5.5a6 6 0 0 1-2.3.5 6 6 0 0 1-3.2-.7l-7.4-4.3a5.2 5.2 0 0 1-1.5-7.4l.2-.3a9.8 9.8 0 0 1 6-3.8l3.7-.8a42 42 0 0 1 11.6-1.4l9.3 5.4Z" style="fill:#37474f"/><path d="m313.7 260.4.6-.4-8.4-4.8 7.3-2.3-.7-.4-7.3 2.2-5-2.8-1 .1Z" style="fill:#fa5951"/><path d="m303.4 268.6 6.7-4.8 8.9-6.4v-1a33 33 0 0 0-9.3 2.7l-3 1.2a9.4 9.4 0 0 0-2.7 1.6 9.8 9.8 0 0 0-3.6 7.6v.2a6 6 0 0 0 2.2-.6Z" style="fill:#263238"/><path d="M267.4 160.4c0 1.5 1 2.5 2.4 3.3l28.6 16.5c1.4.8 2.5.2 2.5-1.4v-12.1a4.8 4.8 0 0 0-2.5-4.2l-28.6-16.6a1.6 1.6 0 0 0-2.4 1.4Z" style="opacity:.2" fill="#000000"/><path d="M264.3 150.4a3.3 3.3 0 0 1 1.5-2.5l.5-.3a3.3 3.3 0 0 1 3 0l28.2 16.3a3.3 3.3 0 0 1 1.5 2.6v13.9a3.3 3.3 0 0 1-1.5 2.5l-.5.4a3.3 3.3 0 0 1-3 0h.1l-12.4-7a3 3 0 0 0-.6-.4l-2.3 2-.2.2-1.2.7-2.3 1.3a1.9 1.9 0 0 1-1.7-.1 3 3 0 0 1-1.2-2.4v-5.2a3.3 3.3 0 0 0-1.5-2.6l-5-2.8a3.3 3.3 0 0 1-1.5-2.6v-13.9h.1Z" style="fill:#fa5951"/><path d="M264.3 150.4a3.3 3.3 0 0 1 1.5-2.5l.5-.3a3.3 3.3 0 0 1 3 0l28.2 16.3a3.3 3.3 0 0 1 1.5 2.6v13.9a3.3 3.3 0 0 1-1.5 2.5l-.5.4a3.3 3.3 0 0 1-3 0h.1l-12.4-7a3 3 0 0 0-.6-.4l-2.3 2-.2.2-1.2.7-2.3 1.3a1.9 1.9 0 0 1-1.7-.1 3 3 0 0 1-1.2-2.4v-5.2a3.3 3.3 0 0 0-1.5-2.6l-5-2.8a3.3 3.3 0 0 1-1.5-2.6v-13.9h.1Z" style="opacity:.25" fill="#000000"/><path d="M264.3 150.5c0-1 .7-1.3 1.5-.8L294 166a3 3 0 0 1 1 1l3.5-2a3 3 0 0 0-1-1l-28.2-16.3a3.3 3.3 0 0 0-3 0l-.5.3a3.3 3.3 0 0 0-1.5 2.5Z" style="fill:#fa5951"/><path d="M264.3 150.5c0-1 .7-1.3 1.5-.8L294 166a3 3 0 0 1 1 1l3.5-2a3 3 0 0 0-1-1l-28.2-16.3a3.3 3.3 0 0 0-3 0l-.5.3a3.3 3.3 0 0 0-1.5 2.5Z" style="fill:#fff;opacity:.45"/><path d="M294.7 183.2c.4 0 .5-.6.5-.8v-13.8a3 3 0 0 0-1.3-2.4L265.6 150a1.1 1.1 0 0 0-.5-.1c-.5 0-.5.5-.5.7v13.9a3 3 0 0 0 1.3 2.3l5 2.9a3.6 3.6 0 0 1 1.6 2.8v5.2a2.7 2.7 0 0 0 1 2.2 1.8 1.8 0 0 0 .9.2 1 1 0 0 0 .7-.2l4.2-4a1.4 1.4 0 0 1 1-.3 3.3 3.3 0 0 1 1.6.5l12.2 7a1.2 1.2 0 0 0 .6.2Z" style="fill:#fafafa"/><path d="M265.1 150a.9.9 0 0 1 .4.2l28.2 16.3a2.7 2.7 0 0 1 1.2 2v13.9c0 .2 0 .5-.2.5a.8.8 0 0 1-.4-.2l-12.3-7a3.6 3.6 0 0 0-1.7-.4 1.7 1.7 0 0 0-1.2.4l-4.2 3.9a.7.7 0 0 1-.5.1 1.5 1.5 0 0 1-.7-.2 2.4 2.4 0 0 1-.9-1.8v-5.2a3.9 3.9 0 0 0-1.8-3.1l-5-2.9a2.7 2.7 0 0 1-1.1-2v-14c0-.1 0-.4.2-.4m0-.6c-.5 0-.8.4-.8 1v13.9a3.3 3.3 0 0 0 1.5 2.6l5 2.8a3.3 3.3 0 0 1 1.5 2.6v5.2a3 3 0 0 0 1.1 2.4 2.1 2.1 0 0 0 1 .3 1.3 1.3 0 0 0 1-.3l4.2-4a1.2 1.2 0 0 1 .8-.2 3 3 0 0 1 1.4.4l12.2 7a1.3 1.3 0 0 0 .7.2c.5 0 .8-.4.8-1v-13.8a3.3 3.3 0 0 0-1.5-2.6l-28.2-16.3a1.3 1.3 0 0 0-.7-.2Z" style="fill:#e6e6e6"/><path d="M273 160.8c-.9-.5-1.6 0-1.6 1a3.8 3.8 0 0 0 1.7 3c1 .6 1.7.1 1.7-1a3.8 3.8 0 0 0-1.7-3ZM280 164.8c-1-.6-1.8-.1-1.8 1a3.8 3.8 0 0 0 1.7 3c1 .5 1.8 0 1.8-1a3.8 3.8 0 0 0-1.8-3ZM286.8 168.7c-1-.5-1.7 0-1.7 1a3.8 3.8 0 0 0 1.7 3c1 .6 1.7.1 1.7-1a3.8 3.8 0 0 0-1.7-3Z" style="fill:#455a64"/><path d="M267.4 133.9c0 1.5 1.1 2.5 2.5 3.3l71.7 41.4c1.3.8 2.4.1 2.4-1.4v-27a4.8 4.8 0 0 0-2.4-4.1L270 104.7a1.6 1.6 0 0 0-2.5 1.4Z" style="opacity:.2" fill="#000000"/><path d="m340.2 181.6.5-.3a3.3 3.3 0 0 0 1.5-2.6v-28.5a3.3 3.3 0 0 0-1.5-2.6l-71.3-41.2a3.3 3.3 0 0 0-3 0l-.6.3a3.3 3.3 0 0 0-1.5 2.6v28.5a3.3 3.3 0 0 0 1.5 2.6l48 27.8a6.5 6.5 0 0 1 2.2 2.4l5.6 11.7a5.8 5.8 0 0 0 1.9 2.2 3 3 0 0 0 2.6-.2l.4-.2a3.3 3.3 0 0 0 1.5-2.6v-3.4c0-1 .7-1.4 1.5-.9l7.6 4.4a3.3 3.3 0 0 0 3 0Z" style="fill:#fa5951"/><path d="m340.2 181.6.5-.3a3.3 3.3 0 0 0 1.5-2.6v-28.5a3.3 3.3 0 0 0-1.5-2.6l-71.3-41.2a3.3 3.3 0 0 0-3 0l-.6.3a3.3 3.3 0 0 0-1.5 2.6v28.5a3.3 3.3 0 0 0 1.5 2.6l48 27.8a6.5 6.5 0 0 1 2.2 2.4l5.6 11.7a5.8 5.8 0 0 0 1.9 2.2 3 3 0 0 0 2.6-.2l.4-.2a3.3 3.3 0 0 0 1.5-2.6v-3.4c0-1 .7-1.4 1.5-.9l7.6 4.4a3.3 3.3 0 0 0 3 0Z" style="opacity:.25" fill="#000000"/><path d="M264.4 109.3c0-1 .6-1.4 1.4-.9l71.4 41.2a2.9 2.9 0 0 1 1 1l3.4-2a2.7 2.7 0 0 0-.9-1l-71.3-41.2a3.3 3.3 0 0 0-3 0l-.6.3a3.3 3.3 0 0 0-1.4 2.6Z" style="fill:#fa5951"/><path d="M264.4 109.3c0-1 .6-1.4 1.4-.9l71.4 41.2a2.9 2.9 0 0 1 1 1l3.4-2a2.7 2.7 0 0 0-.9-1l-71.3-41.2a3.3 3.3 0 0 0-3 0l-.6.3a3.3 3.3 0 0 0-1.4 2.6Z" style="fill:#fff;opacity:.45"/><path d="M324 184.3a.3.3 0 0 0 .2-.1 1.3 1.3 0 0 0 .2-.7V176c0-.8.4-1.3 1.1-1.3a1.6 1.6 0 0 1 .8.2l11 6.4a1.1 1.1 0 0 0 .5.1c.5 0 .6-.5.6-.7v-28.6a3 3 0 0 0-1.4-2.3l-71.3-41.2a1 1 0 0 0-.6-.2c-.4 0-.5.5-.5.8v28.5a3 3 0 0 0 1.4 2.4l48 27.7a6.8 6.8 0 0 1 2.3 2.6l5.5 11.7a5.6 5.6 0 0 0 1.8 2 .6.6 0 0 0 .3.1Z" style="fill:#fafafa"/><path d="M265.2 108.8a.8.8 0 0 1 .4.1l71.3 41.2a2.7 2.7 0 0 1 1.2 2v28.7c0 .1 0 .4-.3.4a.8.8 0 0 1-.3 0l-11-6.4a2 2 0 0 0-1-.3 1.5 1.5 0 0 0-1.4 1.6v7.4c0 .3-.2.5-.2.5a.3.3 0 0 1-.1 0 5.4 5.4 0 0 1-1.7-2l-5.5-11.7a7 7 0 0 0-2.5-2.7l-48-27.7a2.7 2.7 0 0 1-1.2-2v-28.6c0-.2 0-.5.3-.5m0-.6c-.5 0-.9.4-.9 1v28.6a3.3 3.3 0 0 0 1.5 2.6l48 27.8a6.5 6.5 0 0 1 2.3 2.4l5.5 11.7a5.8 5.8 0 0 0 1.9 2.2.8.8 0 0 0 .4.1c.4 0 .8-.4.8-1.1V176c0-.6.3-1 .8-1a1.3 1.3 0 0 1 .6.2l11 6.3a1.3 1.3 0 0 0 .7.2c.5 0 .8-.4.8-1v-28.6a3.3 3.3 0 0 0-1.5-2.6l-71.3-41.2a1.4 1.4 0 0 0-.6-.2Z" style="fill:#e6e6e6"/><path d="M270 124.5v-8c0-.3.2-.4.5-.2l.3.2a.8.8 0 0 1 .5.7v3.1l1.4.8V118c0-.3.1-.3.5-.1l.3.2a.8.8 0 0 1 .5.6v8c0 .3-.2.4-.5.2l-.3-.2a.8.8 0 0 1-.5-.7v-3.3l-1.4-.8v3.3c0 .3-.2.3-.5.1l-.3-.2a.8.8 0 0 1-.5-.6ZM275 127.4v-5.8c0-.3.2-.3.6-.2l.2.2a.8.8 0 0 1 .5.7v5.8c0 .3-.2.3-.5.1l-.2-.1a.8.8 0 0 1-.5-.7Zm.1-7.3v-.7c0-.3.2-.3.6-.1s.6.4.6.7v.8c0 .2-.2.3-.6 0s-.6-.4-.6-.7ZM277.3 128.7v-1.2c0-.3.2-.3.5-.1l.3.1a.8.8 0 0 1 .4.7v1.2c0 .2-.1.3-.4.1l-.3-.1a.8.8 0 0 1-.5-.7Zm.3-2.4a.8.8 0 0 1-.1-.4v-5.2c0-.3.1-.3.5-.1l.3.2a1.1 1.1 0 0 1 .4.3.6.6 0 0 1 .1.3l-.4 5-.1.3-.3-.1h-.1a1 1 0 0 1-.3-.3ZM270 136.3v-8c0-.3.2-.3.5-.1l.3.2a.8.8 0 0 1 .5.6v3.1l1.4.8v-3c0-.3.1-.4.5-.2l.3.2a.8.8 0 0 1 .5.7v8c0 .2-.2.3-.5.1l-.3-.2a.8.8 0 0 1-.5-.7v-3.2l-1.4-.8v3.3c0 .2-.2.3-.5.1l-.3-.2a.8.8 0 0 1-.5-.7ZM275.4 139a7.6 7.6 0 0 1-.5-2.8 4.4 4.4 0 0 1 .5-2.2c.2-.4.7-.5 1.2-.2a3 3 0 0 1 1.3 1.6 7.8 7.8 0 0 1 .4 2.8 4.4 4.4 0 0 1-.4 2.2c-.3.5-.7.5-1.3.2a2.9 2.9 0 0 1-1.2-1.6Zm1.5-.1a6.2 6.2 0 0 0 .2-1.4 8 8 0 0 0-.2-1.6.9.9 0 0 0-.3-.6c-.2-.1-.3 0-.3.2a6.3 6.3 0 0 0-.1 1.4 8.3 8.3 0 0 0 0 1.6 1 1 0 0 0 .4.6c.2.1.3 0 .3-.2ZM279.8 142.3a.4.4 0 0 1 0-.2l-1-6.4a1 1 0 0 1 0-.1c0-.3.2-.3.6 0s.6.4.6.6l.2 3.2v1.4l.2-1.4.3-2.8.2-.1a.7.7 0 0 1 .3 0l.2.2a1 1 0 0 1 .3.2.4.4 0 0 1 .1.3l.3 3.3.2 1.5v-1.4l.2-3h.5c.3.1.5.4.5.7a1 1 0 0 1 0 .1l-.8 5.4c0 .2-.2.2-.4 0h-.2a.8.8 0 0 1-.3-.3 1 1 0 0 1 0-.2l-.6-3.7v-.5a3 3 0 0 0 0-.5v1l-.5 3v.1a.4.4 0 0 1-.3 0l-.3-.2a.7.7 0 0 1-.3-.2ZM285.6 142.4q0-3.4 1.7-2.3a2.6 2.6 0 0 1 .6.4 3.4 3.4 0 0 1 .5.6 1.2 1.2 0 0 1 .1.5 1.4 1.4 0 0 1 0 .5l-.3.2a.7.7 0 0 1-.2-.2 3.5 3.5 0 0 0-.3-.3.9.9 0 0 0-.2-.2.3.3 0 0 0-.5.2 3.6 3.6 0 0 0-.2 1.3 5.7 5.7 0 0 0 .2 1.6 1.1 1.1 0 0 0 .5.7.7.7 0 0 0 .2.1h.5l.2.5a2.6 2.6 0 0 1 .1.7.3.3 0 0 1-.2.3 1 1 0 0 1-.5 0 1.5 1.5 0 0 1-.5-.2q-1.7-1-1.7-4.4ZM289.4 147.5a4 4 0 0 1-.2-1.6c0-1.6.6-2 1.9-1.3v-.2a1.6 1.6 0 0 0-.2-.6.9.9 0 0 0-.3-.4.7.7 0 0 0-.4-.1 1.1 1.1 0 0 0-.3 0 .2.2 0 0 1-.1 0 .7.7 0 0 1-.2-.3 5.5 5.5 0 0 1-.2-.6 1.8 1.8 0 0 1 0-.4.3.3 0 0 1 .1-.3.9.9 0 0 1 .5 0 2.4 2.4 0 0 1 .6.3 3 3 0 0 1 1.3 1.2 4 4 0 0 1 .4 1.9v3.8a1.8 1.8 0 0 1 0 .3c0 .2-.1.2-.4.1a2.4 2.4 0 0 1-.6-.2.4.4 0 0 1-.1-.2 4.6 4.6 0 0 1-.1-.6.6.6 0 0 1-.4.3.6.6 0 0 1-.5 0 2 2 0 0 1-.8-1.1Zm1.5-.1a.3.3 0 0 0 .2-.2v-1.5c-.6-.3-.9 0-.9.7a1.7 1.7 0 0 0 .2.6.7.7 0 0 0 .2.4.2.2 0 0 0 .3 0ZM293.4 149.8v-5.7s.1-.2.3-.2a2.4 2.4 0 0 1 .6.3.4.4 0 0 1 .2.2 2 2 0 0 1 .1.4 2.6 2.6 0 0 0 0 .4 1 1 0 0 1 .4-.4.7.7 0 0 1 .7 0 1.8 1.8 0 0 1 .6.9 4 4 0 0 1 .3 1.4v4.6c0 .2-.2.3-.5 0h-.3a.8.8 0 0 1-.4-.7v-4.2a1.8 1.8 0 0 0-.1-.5.5.5 0 0 0-.3-.3l-.4.2v4.6a.5.5 0 0 1-.4-.1l-.3-.2a.8.8 0 0 1-.5-.7ZM298.9 153v-8c0-.3.1-.3.4-.1l.4.1a.8.8 0 0 1 .5.7v8c0 .3-.2.4-.5.2l-.4-.2a.8.8 0 0 1-.4-.7ZM302.5 155.1v-8.7c0-.3.2-.3.5-.1l.3.1a.8.8 0 0 1 .4.7v3.3a.9.9 0 0 1 .5-.4.7.7 0 0 1 .6.1 1.7 1.7 0 0 1 .7.8 3.7 3.7 0 0 1 .2 1.5v4.5c0 .3-.2.3-.5.2l-.3-.2a.8.8 0 0 1-.4-.7v-4.1a1.5 1.5 0 0 0-.1-.5.5.5 0 0 0-.3-.3c-.1-.1-.2 0-.4.1v4.4c0 .3-.1.3-.4.1l-.3-.1a.8.8 0 0 1-.5-.7ZM307 157.3a7.4 7.4 0 0 1-.5-2.7 4.1 4.1 0 0 1 .5-2.4c.3-.4.7-.4 1.3 0a2.7 2.7 0 0 1 1.1 1.5 8.7 8.7 0 0 1 .4 2.7.6.6 0 0 1-.2.3c-.1.2-.2.2-.3.2l-1.5-.9a2.7 2.7 0 0 0 .2 1 1.2 1.2 0 0 0 .5.5.9.9 0 0 0 .3.1 1 1 0 0 0 .3 0 .3.3 0 0 1 .1 0 .7.7 0 0 1 .2.3 2.6 2.6 0 0 1 .2.6 1.6 1.6 0 0 1 0 .4c0 .2 0 .3-.2.3a.9.9 0 0 1-.5 0 2 2 0 0 1-.5-.2 3.2 3.2 0 0 1-1.4-1.7Zm1.7-2a7 7 0 0 0-.1-1.3.8.8 0 0 0-.4-.6c-.1 0-.2 0-.3.2a4.7 4.7 0 0 0-.1 1.2ZM310.6 158.3v-7.2c0-.3.2-.3.5-.2l.2.2a.8.8 0 0 1 .5.7v7.2a1 1 0 0 0 0 .4.3.3 0 0 0 .2.2.1.1 0 0 1 .2 0l.2.4a4.3 4.3 0 0 1 0 .6c0 .2 0 .3-.2.3a1 1 0 0 1-.5-.1 2.7 2.7 0 0 1-1.1-2.5ZM313 163.7v-8.1a2 2 0 0 1 0-.3c0-.1 0-.2.3 0a2.4 2.4 0 0 1 .6.1.5.5 0 0 1 .2.4 5 5 0 0 1 .1.6.7.7 0 0 1 .3-.4.5.5 0 0 1 .6 0 1.7 1.7 0 0 1 .6.8 5.3 5.3 0 0 1 .4 1.4 10.5 10.5 0 0 1 .2 2 5.1 5.1 0 0 1-.4 2.2.6.6 0 0 1-1 .3 1.8 1.8 0 0 1-.6-.7v2.4c0 .3-.2.3-.5.1h-.3a.8.8 0 0 1-.5-.8Zm1.9-2.9a5.4 5.4 0 0 0 .1-1.4 7.7 7.7 0 0 0 0-1.5l-.4-.6s-.3 0-.4.3v3a1 1 0 0 0 .3.5q.3.1.4-.3ZM321.4 160v.2L320 168h-.5l-.1-.1c-.3-.2-.5-.4-.5-.6a.9.9 0 0 1 0-.2l.5-2.3a.6.6 0 0 1-.2-.2.6.6 0 0 1-.1-.3l-1-5.7v-.3c0-.2.2-.2.5 0l.3.1a.9.9 0 0 1 .3.2.6.6 0 0 1 .1.4l.3 2.7.2 1.5v-.6l.1-.8.3-2.4h.5l.2.2.5.5ZM322.3 166.1a8 8 0 0 1-.4-2.7 4.3 4.3 0 0 1 .4-2.3c.3-.4.7-.5 1.3-.2a3 3 0 0 1 1.2 1.6 7.9 7.9 0 0 1 .4 2.8 4.3 4.3 0 0 1-.4 2.3c-.3.4-.7.4-1.2.1a3 3 0 0 1-1.3-1.6Zm1.6 0a6.2 6.2 0 0 0 .1-1.5 8 8 0 0 0-.1-1.6 1 1 0 0 0-.3-.6c-.2 0-.3 0-.4.2a6.4 6.4 0 0 0 0 1.5 8.1 8.1 0 0 0 0 1.5 1 1 0 0 0 .4.7c.1 0 .2 0 .3-.3ZM326.3 168.9a3.8 3.8 0 0 1-.2-1.5V163c0-.3.1-.3.5-.1l.2.1a.8.8 0 0 1 .5.7v4.1a1.5 1.5 0 0 0 0 .5.5.5 0 0 0 .3.3c.2.1.3 0 .4-.1V164l.1-.2a.5.5 0 0 1 .4 0l.3.2a.8.8 0 0 1 .4.7v5.8c0 .1 0 .2-.3.1a2.8 2.8 0 0 1-.6-.2.4.4 0 0 1-.2-.3 2 2 0 0 1 0-.4v-.3a1 1 0 0 1-.5.4.6.6 0 0 1-.6 0 1.7 1.7 0 0 1-.7-1ZM330.8 168.9a.5.5 0 0 1-.2-.3 3.2 3.2 0 0 1 .2-1 2.7 2.7 0 0 1 .3-.7l.2-.2a3.5 3.5 0 0 0 .3-.5.8.8 0 0 0 .1-.4 1 1 0 0 0-.5-1 .5.5 0 0 0-.3 0 1 1 0 0 0-.2 0h-.2a.6.6 0 0 1-.2-.4 4.6 4.6 0 0 1-.2-.6 1.6 1.6 0 0 1-.1-.4.4.4 0 0 1 .2-.4.9.9 0 0 1 .5 0 1.9 1.9 0 0 1 .7.2 3.2 3.2 0 0 1 1.2 1.3 3.7 3.7 0 0 1 .4 1.8 3 3 0 0 1 0 .8 1.5 1.5 0 0 1-.3.5 2.6 2.6 0 0 1-.4.4 2.4 2.4 0 0 0-.4.5 1.7 1.7 0 0 0-.2.7l-.2.2a.5.5 0 0 1-.3-.1l-.2-.2a.9.9 0 0 1-.3-.2Zm-.3 2.4V170c0-.2.2-.3.5 0h.3a.8.8 0 0 1 .5.7v1.2c0 .3-.2.3-.5.1l-.3-.1a.8.8 0 0 1-.4-.7Z" style="fill:#455a64"/><path d="m258.7 357.3 15.2-8.8h.1c7.4-4.2 17.5-3.5 28.6 3a90 90 0 0 1 40.7 70.4c0 12.9-4.5 22-11.8 26.2h-.1l-15.2 8.8-2.6-6.8a43 43 0 0 1-11.2-4.6 90 90 0 0 1-40.7-70.5 43.3 43.3 0 0 1 1.6-12Z" style="fill:#fa5951"/><path d="m258.7 357.3 15.2-8.8h.1c7.4-4.2 17.5-3.5 28.6 3a90 90 0 0 1 40.7 70.4c0 12.9-4.5 22-11.8 26.2h-.1l-15.2 8.8-2.6-6.8a43 43 0 0 1-11.2-4.6 90 90 0 0 1-40.7-70.5 43.3 43.3 0 0 1 1.6-12Z" style="fill:#fff;opacity:.4"/><path d="M343 415.5a59.5 59.5 0 0 1 .4 6.3c0 13-4.5 22-11.8 26.3h-.1l-15.2 8.8-2.6-6.8a37 37 0 0 1-2.6-.8l-3.9-13.2Z" style="fill:#fa5951;opacity:.4"/><ellipse cx="287.3" cy="407.2" rx="33.2" ry="57.5" style="fill:#fa5951" transform="rotate(-30 287.3 407.2)"/><ellipse cx="287.3" cy="407.2" rx="33.2" ry="57.5" style="fill:#fff;opacity:.6000000000000001" transform="rotate(-30 287.3 407.2)"/><path d="M256.5 368.4c5-8.7 15.4-9.7 27.6-2.6a84.2 84.2 0 0 1 37.5 64.9c0 6.1-1.2 11.4-3.4 15.3-5 8.7-15.4 9.7-27.7 2.6a84.2 84.2 0 0 1-37.4-64.9c0-6.1 1.1-11.4 3.4-15.3Z" style="fill:#fa5951"/><path d="M255.9 368.7c5.7-9 16.8-10.5 29.6-3.7a78.1 78.1 0 0 1 37.5 64.9 32.2 32.2 0 0 1-4.2 15.8c-5.8 9-16.8 10.5-29.7 3.7a78 78 0 0 1-37.4-64.9c.2-6.3 1.7-11.7 4.2-15.8Z" style="fill:#fa5951"/><path d="M255.9 368.7c5.7-9 16.8-10.5 29.6-3.7a78.1 78.1 0 0 1 37.5 64.9 32.2 32.2 0 0 1-4.2 15.8c-5.8 9-16.8 10.5-29.7 3.7a78 78 0 0 1-37.4-64.9c.2-6.3 1.7-11.7 4.2-15.8Z" style="fill:#fff;opacity:.4"/><path d="M293.3 447c8.1 4.4 15.6 5.4 21.4 3.2a17.4 17.4 0 0 0 4-4.5c2.6-4 4-9.5 4.3-15.8a78 78 0 0 0-37.5-65c-8.2-4.2-15.6-5.2-21.4-3a17 17 0 0 0-4 4.5 32 32 0 0 0-4.2 15.8 78 78 0 0 0 37.4 64.9Z" style="fill:#fafafa"/><path d="M289.8 370.9a2 2 0 0 1 .9 1.6v4.3c0 .6-.4.9-.9.6a2 2 0 0 1-.8-1.5v-4.5c0-.5.4-.8.8-.5ZM260.6 387.8a2 2 0 0 0 1 1.5l3.7 2.2c.6.3 1 0 1-.5a2 2 0 0 0-1-1.5l-3.8-2.2c-.5-.3-1 0-.9.5ZM320.1 423.4a2 2 0 0 0-1-1.6l-3.7-2.2c-.5-.3-1 0-1 .5a2 2 0 0 0 1 1.5l3.8 2.2c.5.3 1 .1 1-.4ZM290.9 440.2a2 2 0 0 1-.9-1.5v-4.4c0-.6.4-.9.9-.6a2 2 0 0 1 .8 1.6v4.4c0 .6-.3.8-.8.5ZM288.1 408.8l21.6-3.1h-23.3l1.7 3.1z" style="fill:#fa5951"/><path d="M287.3 382s-2 18.5-2.7 22.8a3 3 0 0 0 0 .8 6.1 6.1 0 0 0 2.7 4.8 2 2 0 0 0 2 .2l1.5-.9a2 2 0 0 0 .8-1.8c.3-4.4-1.4-25.7-1.4-25.7l-1.4-1Z" style="fill:#37474f"/><path d="M284.6 405.6a6.1 6.1 0 0 0 2.7 4.8c1.6.9 2.8.2 2.8-1.6a437 437 0 0 0-1.4-25.8l-1.4-1s-2.7 21.8-2.8 23.6Z" style="fill:#455a64"/><path d="M286 406.5a2.8 2.8 0 0 0 1.3 2.1c.7.5 1.3.1 1.3-.7a2.8 2.8 0 0 0-1.3-2.1c-.7-.4-1.2-.1-1.2.7Z" style="fill:#263238"/><path d="M266.9 403h.4v4.5h-.4z" style="fill:#37474f" transform="rotate(-83 267.1 405.2)"/><path d="M276.8 425.7h4.5v.4h-4.5z" style="fill:#37474f" transform="rotate(-67 279 425.9)"/><path d="M299.3 385.2h4.5v.4h-4.5z" style="fill:#37474f" transform="rotate(-67 300.2 385.3)"/><path d="M313.3 403.8h.4v4.5h-.4z" style="fill:#37474f" transform="rotate(-83 313.5 406)"/><path d="M263.6 373.7h.4v6h-.4z" style="fill:#37474f" transform="rotate(-42 263.8 376.7)"/><path d="M278.5 365.1h.4v6h-.4z" style="fill:#37474f" transform="rotate(-18 278.7 368.1)"/><path d="M301.9 440h.4v6h-.4z" style="fill:#37474f" transform="rotate(-18.2 306 449)"/><path d="M316.8 431.4h.4v6h-.4z" style="fill:#37474f" transform="rotate(-42 317 434.4)"/><path d="m190.4 367.8-13-74.6-8.2-.5 17 75.1a1 1 0 0 0 .6.8 3.2 3.2 0 0 0 3 .1 1 1 0 0 0 .5-.9Z" style="fill:#263238"/><path d="M68.6 281h-8.2l-19.2 77.5a1 1 0 0 0 .5.9 3.2 3.2 0 0 0 3 0 1.1 1.1 0 0 0 .6-.7ZM125.3 403.4l-.3-83.6-8.2-.4 4.4 84a1.1 1.1 0 0 0 .6.7 3.2 3.2 0 0 0 3 .2 1 1 0 0 0 .6-1Z" style="fill:#37474f"/><path d="M118.3 248.8H110l-12.8 80.1a1 1 0 0 0 .6 1 3.3 3.3 0 0 0 3 0 1.1 1.1 0 0 0 .5-.8Z" style="fill:#263238"/><path d="M45 190.3a46.4 46.4 0 0 0-3.3 14.4c-1 11 2.8 46.8 5 62.8 3.3 26.7 7.3 26.7 13 31.2 10 7.7 38.6 22.8 48 26.5 17.2 6.7 31.2-3.7 41.6-8.8A242 242 0 0 0 177 300c2.6-2 4-3.8 4-5.8v-5c0-2.6-2.3-5.3-7.1-8.4a1533 1533 0 0 0-53.3-31.3c-9.6-5.9-15.3-45.2-22-66.1a33 33 0 0 0-2-5.5" style="fill:#fa5951"/><path d="M181 289.2c0-2.6-2.3-5.3-7-8.4-9-5.8-40.9-24.4-53.3-31.3-9.6-5.9-15.3-45.2-22-66.2a37.9 37.9 0 0 0-1.3-3.8 2.4 2.4 0 0 0-.2-.3c0-.3-.2-.5-.3-.8l-.2-.5a20.2 20.2 0 0 0-4.4-6.3A9.3 9.3 0 0 0 90 170l-3.9-2.2c-6.4-3.9-15 .7-25.5 6.5a32 32 0 0 0-15.7 16 46.4 46.4 0 0 0-3.2 14.3c-1 11 2.8 46.8 5 62.8 3.2 26.7 7.2 26.7 13 31.2 10 7.7 38.6 22.7 48 26.5 17.1 6.7 31.1-3.7 41.6-8.8A242 242 0 0 0 177 300c2.6-2 4-3.8 4-5.8v-5Z" style="fill:#fa5951"/><path d="M181 289.2c0-2.6-2.3-5.3-7-8.4-9-5.8-40.9-24.4-53.3-31.3-9.6-5.9-15.3-45.2-22-66.2a37.9 37.9 0 0 0-1.3-3.8 2.4 2.4 0 0 0-.2-.3c0-.3-.2-.5-.3-.8l-.2-.5a20.2 20.2 0 0 0-4.4-6.3A9.3 9.3 0 0 0 90 170l-3.9-2.2c-6.4-3.9-15 .7-25.5 6.5a32 32 0 0 0-15.7 16 46.4 46.4 0 0 0-3.2 14.3c-1 11 2.8 46.8 5 62.8 3.2 26.7 7.2 26.7 13 31.2 10 7.7 38.6 22.7 48 26.5 17.1 6.7 31.1-3.7 41.6-8.8A242 242 0 0 0 177 300c2.6-2 4-3.8 4-5.8v-5Z" style="fill:#fff;opacity:.25"/><path d="M149.4 311.4A241.8 241.8 0 0 0 177 295c6-4.3 5.4-8.7-3.1-14.3-11.8-7.6-60-35-60-35s-60.9 36-58.3 42.6 40.3 27.2 52.2 31.9c17.1 6.7 31.2-3.7 41.6-8.8Z" style="fill:#fa5951"/><path d="M149.4 311.4A241.8 241.8 0 0 0 177 295c6-4.3 5.4-8.7-3.1-14.3-11.8-7.6-60-35-60-35s-60.9 36-58.3 42.6 40.3 27.2 52.2 31.9c17.1 6.7 31.2-3.7 41.6-8.8Z" style="fill:#fff;opacity:.6000000000000001"/><path d="M90 170c-6.3-3.3-14.7 1.3-25 7a32 32 0 0 0-15.6 15.9l-4.4-2.6c3.4-8 9-12.2 15.6-15.9 10.6-5.8 19.1-10.4 25.6-6.5L90 170Z" style="fill:#fa5951"/><path d="M90 170c-6.3-3.3-14.7 1.3-25 7a32 32 0 0 0-15.6 15.9l-4.4-2.6c3.4-8 9-12.2 15.6-15.9 10.6-5.8 19.1-10.4 25.6-6.5L90 170Z" style="fill:#fff;opacity:.5"/><path d="M98.7 183.3c-.1-.4-2.3-8-6.5-11.7a10.4 10.4 0 0 0-7-2.7c-5.6 0-12.3 3.7-20.2 8l-2 1.1-.7.5-.9.5-.6.4a36.3 36.3 0 0 0-4 3 7.7 7.7 0 0 0-.6.6 26.1 26.1 0 0 0-2.2 2.3l-.4.5-.4.5-.5.6-.4.6a27.7 27.7 0 0 0-1.5 2.5l-.2.3-.4.7-.5 1.1a45.5 45.5 0 0 0-3.6 15c-1.5 18.2 4.7 78 11 83.3 0 0-1-5.9 11.5-13.8 8.5-5.3 14.5-9.8 23.6-14.3 22.2-10.9 28.4-13 28.4-13-9.5-5.7-15.3-45-21.9-66Z" style="fill:#fa5951"/><path d="M98.7 183.3c-.1-.4-2.3-8-6.5-11.7a10.4 10.4 0 0 0-7-2.7c-5.6 0-12.3 3.7-20.2 8l-2 1.1-.7.5-.9.5-.6.4a36.3 36.3 0 0 0-4 3 7.7 7.7 0 0 0-.6.6 26.1 26.1 0 0 0-2.2 2.3l-.4.5-.4.5-.5.6-.4.6a27.7 27.7 0 0 0-1.5 2.5l-.2.3-.4.7-.5 1.1a45.5 45.5 0 0 0-3.6 15c-1.5 18.2 4.7 78 11 83.3 0 0-1-5.9 11.5-13.8 8.5-5.3 14.5-9.8 23.6-14.3 22.2-10.9 28.4-13 28.4-13-9.5-5.7-15.3-45-21.9-66Z" style="fill:#fff;opacity:.4"/><path d="M441 402.4h-45.8l4.7 19.7c.4 2.4 2.1 4.7 5.3 6.5a28.6 28.6 0 0 0 25.8 0c3.4-2 5.2-4.5 5.3-7Z" style="fill:#37474f"/><path d="M435.4 415.9a18.5 18.5 0 0 0 2.8-1.9l2.6-10.6a18.6 18.6 0 0 1-4.7 3.7 40 40 0 0 1-35.2.5l1.2-4.7-.3-.5h-6.6l4.7 19.7c.4 2.4 2.1 4.7 5.3 6.6 5 3 12.4 3.7 18.8 2.5-11.5.8-19.3-4.2-20.5-8.8-.5-1.8-1.3-5.9-1.3-5.9a38.4 38.4 0 0 0 33.3-.6Z" style="fill:#263238"/><path d="M443.4 396.5a9.6 9.6 0 0 1-1.5 3.6 17 17 0 0 1-5.8 5 39.9 39.9 0 0 1-36 0 16.8 16.8 0 0 1-5.8-5 9.7 9.7 0 0 1-1.5-3.6c-1-4.3 1.5-8.8 7.3-12.1 10-5.8 26-5.8 36 0 5.8 3.3 8.2 7.8 7.3 12.1Z" style="fill:#455a64"/><path d="M441.9 400a17 17 0 0 1-5.8 5.2 39.9 39.9 0 0 1-36 0 16.8 16.8 0 0 1-5.8-5.1 9.7 9.7 0 0 1-1.5-3.6l1.1 7.8c.5 3.1 2.9 6.2 7 8.6a38 38 0 0 0 34.4 0c4-2.4 6.4-5.4 7-8.5v-.4l1.1-7.5a9.6 9.6 0 0 1-1.5 3.6Z" style="fill:#37474f"/><path d="M433.1 386a33.2 33.2 0 0 0-30 0c-4.7 2.8-6.8 6.5-6.1 10 .4 2.7 2.5 5.4 6 7.4a33.2 33.2 0 0 0 30.1 0c3.6-2 5.7-4.7 6.1-7.4.7-3.5-1.4-7.2-6-10Z" style="fill:#263238"/><path d="M398.4 399.3a14.2 14.2 0 0 0 4.7 4.2 33.2 33.2 0 0 0 30 0 14.3 14.3 0 0 0 4.8-4.2c-.1-2.9-2-5.7-5.8-8a30.8 30.8 0 0 0-28 0c-3.8 2.3-5.7 5.1-5.7 8Z" style="fill:#fafafa"/><path d="M419.7 390.4c-3.8-1-4.5-9.3-2.3-18 2-8.5 8.7-21.2 10.1-21s3.2 14.2 2.2 23.3c-1.2 11-6.2 16.7-10 15.7Z" style="fill:#fa5951"/><path d="M419.7 390.4c-3.8-1-4.5-9.3-2.3-18 2-8.5 8.7-21.2 10.1-21s3.2 14.2 2.2 23.3c-1.2 11-6.2 16.7-10 15.7Z" style="opacity:.30000000000000004" fill="#000000"/><path d="M421.6 363.7c.6 1 1 2.9 2.7 2.9 1.2 0 2-1.4 3-1.7a3.1 3.1 0 0 1 2.6.8v-1a4 4 0 0 0-2.2-.8 3.2 3.2 0 0 0-1.8.8c-.6.5-1.3 1.2-2.2.9s-1.2-1.6-1.7-2.4a3 3 0 0 0-1-1l-.3.7a2.1 2.1 0 0 1 .9.8Zm4.5-3.4c.5-.3.8-.9 1.3-1.3a1.9 1.9 0 0 1 2-.4v-.8l-.4-.1a2.2 2.2 0 0 0-1.6.3c-.6.4-.8 1-1.4 1.4-1 .6-1.8-.5-2-1.3l-.4-1.1-.4.6.3.7c.3 1.1 1.3 2.6 2.6 2Zm-.2 11a9.1 9.1 0 0 1-2 1.3c-2 .6-2.4-2.5-3.7-3.4a2.7 2.7 0 0 0-1.8-.4l-.2.7a2.4 2.4 0 0 1 1 0 2.7 2.7 0 0 1 1.7 1.5c.6 1.1 1.4 2.7 3 2.4a4.8 4.8 0 0 0 1.8-1 3.3 3.3 0 0 1 2.7-.7 3.5 3.5 0 0 1 1.5.8v-.9a3.8 3.8 0 0 0-1.8-.8 3.4 3.4 0 0 0-2.1.5Zm1.3 6.6a3.9 3.9 0 0 0-2.7.4c-.9.4-1.5 1.3-2.5 1.6-2 .8-2.4-2.2-3.9-3a3 3 0 0 0-1.6-.2v.6a3 3 0 0 1 .5 0 2.8 2.8 0 0 1 2.2 1.7c.7 1.4 1.7 2.5 3.4 1.7.9-.5 1.5-1.3 2.4-1.7a3 3 0 0 1 3.1.3 4.5 4.5 0 0 1 .6.7l.2-.9a3.3 3.3 0 0 0-1.8-1.1Z" style="fill:#fa5951;opacity:.5"/><path d="M419.7 390.4c3.8 1 8.8-4.7 10-15.7a65.6 65.6 0 0 0 .2-9.5 36.5 36.5 0 0 0-6.2 7.8 83.5 83.5 0 0 0-3.8-8.4 57.7 57.7 0 0 0-2.5 7.8c-2.2 8.7-1.5 17 2.3 18Z" style="opacity:.1" fill="#000000"/><path d="M416.6 395c-5 3.2-9.7-8.2-12.2-16.9s-.9-31.2 1.7-32.5c1.7-.9 11.2 19.4 13 29.3 1.4 7.1 1.5 17.5-2.5 20.1Z" style="fill:#fa5951"/><path d="M416.6 395c-5 3.2-9.7-8.2-12.2-16.9s-.9-31.2 1.7-32.5c1.7-.9 11.2 19.4 13 29.3 1.4 7.1 1.5 17.5-2.5 20.1Z" style="opacity:.1" fill="#000000"/><path d="M405.8 361.6c1.5.7 2.8.7 4-.6s2-2.8 3.8-2.6l-.5-1.2a2.6 2.6 0 0 0-1 .1c-1.5.4-2.2 2-3.3 3-1.6 1.6-3.4-.4-5.3-.3h-.2v1a4.8 4.8 0 0 1 2.4.6Zm13.7 15.5a5.6 5.6 0 0 0-.8-.2 3 3 0 0 0-2.3.5c-1.6 1.1-1.6 3.6-4 3-2-.5-3.3-1.7-5.3-.7a6.5 6.5 0 0 0-1.8 1.3l.3.9a5.6 5.6 0 0 1 2.4-1.5c2.2-.6 3.7 1.6 5.9 1.2 1.7-.3 1.9-2.2 3-3.1a2.7 2.7 0 0 1 2.8-.2l-.1-1.2Zm-13.7-23.8c.6.9 1.5 1.7 2.5 1.2s1.3-2 2-3l-.4-.7c-.7 1-1 3-2.4 3-1.1 0-1.6-1.7-2.5-2.2a1.6 1.6 0 0 0-.9-.1v.6h.1c.8 0 1.2.7 1.6 1.2Zm3.8 17.2c2 .4 3-2 3.9-3.2a6 6 0 0 1 2.7-2.4l-.4-1a3.7 3.7 0 0 0-1 .4 6.7 6.7 0 0 0-2.1 2.1 8.8 8.8 0 0 1-2 2.7c-1.1.7-2.3-.4-3.4-.6a5.9 5.9 0 0 0-3 .3 5.6 5.6 0 0 0-1 .4l.1 1.5a4.7 4.7 0 0 1 3.2-1.1c1 0 2 .7 3 .9Z" style="fill:#fa5951"/><path d="M416.6 365.9a28.2 28.2 0 0 0-4.1 6.6s-5.5-7.4-9.3-10.7c-.2 6.1.1 12.5 1.2 16.3 2.5 8.6 7.2 20 12.2 16.9 4-2.6 4-13 2.6-20.2a61.8 61.8 0 0 0-2.6-9Z" style="opacity:.1" fill="#000000"/><path d="M416.2 400.9c-9.1.4-17.7-5.1-23.3-12.1s-9.9-21.5-8.6-22.4 16 8.3 21.6 14.8c7.3 8.7 10.3 19.7 10.3 19.7Z" style="fill:#fa5951"/><path d="M416.2 400.9c-9.1.4-17.7-5.1-23.3-12.1s-9.9-21.5-8.6-22.4 16 8.3 21.6 14.8c7.3 8.7 10.3 19.7 10.3 19.7Z" style="opacity:.2" fill="#000000"/><path d="M396.2 377.9c.5-.9.2-2 .1-2.9a2.6 2.6 0 0 1 .4-1.8l-1-.7a3.8 3.8 0 0 0-.4 2.5c.2 1 .4 2.4-1 2.6s-3.7-1.2-4.9.3c-.6.8-.4 1.7-.4 2.6a2.5 2.5 0 0 1-.3 1.1l.5 1a3.2 3.2 0 0 0 .7-1.6c.1-1-.3-2.4 1.1-2.6a12.7 12.7 0 0 1 3 .3 2.3 2.3 0 0 0 2.2-.8Zm-5.1-7.7a2.1 2.1 0 0 1 .4-.4l-.8-.5c-.7.8-.7 2-1.4 3a1.6 1.6 0 0 1-1.7.4 3 3 0 0 0-2 .1 2.4 2.4 0 0 0-.3.2l.2.7a2 2 0 0 1 1-.3c.7 0 1.3.4 2 .3a1.8 1.8 0 0 0 1.2-.6c.8-.8.8-2 1.4-2.9Zm10.2 12.3a4.6 4.6 0 0 0 1.3-2.4 16 16 0 0 0 .3-2l-.9-.7a9.6 9.6 0 0 1-.6 3.2 2.9 2.9 0 0 1-2.9 1.5 3 3 0 0 0-2.4.8 4.6 4.6 0 0 0-1 2.4c-.1 1.3-.3 2.5-1.5 3.2a3.3 3.3 0 0 1-.7.3l.7.8a3.7 3.7 0 0 0 1.3-1c1.6-1.8.3-5.4 3.6-5.4a4 4 0 0 0 2.8-.7Zm4.9 1a4.7 4.7 0 0 1 .7-1l-.8-1a6 6 0 0 0-1.5 2.8 8.6 8.6 0 0 1-1.2 3.4c-.8 1-2 1-3.1 1.5a4.5 4.5 0 0 0-2 2.3 11.3 11.3 0 0 0-.5 2.3l1 .8v-.1a5.8 5.8 0 0 1 1.4-3.6c1-1 2.3-.8 3.3-1.5 2-1.3 1.7-4 2.7-6Zm4 3.8a6 6 0 0 0-.8.6c-1.5 1.8-1.3 4-1.9 6a3.7 3.7 0 0 1-2 2.7c-.9.4-1.9 0-2.6.7h-.1l1.4.8a5 5 0 0 1 .8-.1 3.4 3.4 0 0 0 1.4-.3 4 4 0 0 0 1.8-2c1-2 .5-4.3 1.7-6.2a5.5 5.5 0 0 1 1-1.1Z" style="fill:#fa5951"/><path d="M395.6 372.4c.8 7.7 4.9 28 20.6 28.5 0 0-3-11-10.3-19.7a57.8 57.8 0 0 0-10.3-8.8Z" style="opacity:.2" fill="#000000"/><path d="M416.2 400.9c-7.2-1.1-13.4-5.7-16.6-19.3s-3.6-19.7-1.4-21c2.5-1.6 12.3 12 15.5 18.1 8 15.2 2.5 22.2 2.5 22.2Z" style="fill:#fa5951"/><path d="M402.9 375.7c1.8.6 4 1.2 5.4-.6a17.2 17.2 0 0 0 1.3-3l-1-1.4c-.7 1.3-.7 3.2-2.1 4a4.5 4.5 0 0 1-3.4-.2 7.8 7.8 0 0 0-3.3-.5 4.6 4.6 0 0 0-1.7.6l.2 1.2a5.2 5.2 0 0 1 .8-.3 5.6 5.6 0 0 1 3.8.2Zm-2.2-7a2.9 2.9 0 0 0 1.7.3c1-.2 1.7-1.2 2.2-2.1a4.9 4.9 0 0 1 .6-.7l-.7-.8a1.9 1.9 0 0 0-.1.1c-.7.8-1.3 2.5-2.6 2.5a8.6 8.6 0 0 1-1.8-.5 4 4 0 0 0-1.5 0 3.9 3.9 0 0 0-1.5.5l.1 1a4.3 4.3 0 0 1 2-.6 3.8 3.8 0 0 1 1.6.3Zm7.9 15.1a10.2 10.2 0 0 1 2.2-2.9 4.8 4.8 0 0 1 3.7-.6l-.8-1.5a6.2 6.2 0 0 0-2.5.1 5.3 5.3 0 0 0-2.7 2 16 16 0 0 1-1.9 2.7c-1.5 1.3-3.5.1-5-.2a6.4 6.4 0 0 0-1.5-.1l.4 1.4a5.9 5.9 0 0 1 1.9.3c2.4.7 4.6 1.2 6.2-1.2Zm8.3 2.7h-.4a5.6 5.6 0 0 0-2.4 1.9c-.7 1-1 2-1.7 3a2.3 2.3 0 0 1-3 1 4.9 4.9 0 0 0-3-.3 5.3 5.3 0 0 0-2 1.3l.7 1a4.5 4.5 0 0 1 1.5-1 3.5 3.5 0 0 1 2.5.4 3.9 3.9 0 0 0 5.1-1.6c.6-.9 1-2 1.7-2.8a4 4 0 0 1 1.5-1.2 25 25 0 0 0-.5-1.8Z" style="fill:#fff;opacity:.2"/><path d="M413.7 378.7a55 55 0 0 0-2.3-3.9c-3.1 9.7-4.1 23.8 4.8 26 0 0 5.5-7-2.5-22Z" style="opacity:.15" fill="#000000"/><path d="M420 400.9c9.2.4 17.8-5.1 23.3-12.1s10-21.5 8.7-22.4-16.1 8.3-21.7 14.8A57.8 57.8 0 0 0 420 401Z" style="fill:#fa5951"/><path d="M420 400.9c9.2.4 17.8-5.1 23.3-12.1s10-21.5 8.7-22.4-16.1 8.3-21.7 14.8A57.8 57.8 0 0 0 420 401Z" style="opacity:.2" fill="#000000"/><path d="M442.3 378.8a12.8 12.8 0 0 1 3-.4c1.4.2 1 1.6 1 2.7a3 3 0 0 0 .8 1.5l.5-1a2.4 2.4 0 0 1-.3-1c0-1 .2-1.9-.4-2.6-1.3-1.6-3.4-.2-5-.4s-1.1-1.5-1-2.6a3.8 3.8 0 0 0-.3-2.5l-1 .8a2.6 2.6 0 0 1 .3 1.8c0 .9-.4 2 .1 2.8a2.3 2.3 0 0 0 2.3.9Zm4.2-5.7a1.8 1.8 0 0 0 1.2.6c.7 0 1.4-.3 2-.3a2 2 0 0 1 1 .3l.2-.7a2.4 2.4 0 0 0-.4-.2 3 3 0 0 0-1.9 0 1.6 1.6 0 0 1-1.7-.6c-.7-.8-.7-2-1.4-3l-.8.5a2.1 2.1 0 0 1 .4.5c.6 1 .6 2 1.4 2.9Zm-8.8 10c3.3 0 2 3.7 3.6 5.5a3.7 3.7 0 0 0 1.3 1l.7-.8a3.3 3.3 0 0 1-.7-.3c-1.2-.7-1.3-1.9-1.5-3.2a4.6 4.6 0 0 0-1-2.4 3 3 0 0 0-2.4-.8 2.9 2.9 0 0 1-2.9-1.5 9.6 9.6 0 0 1-.6-3.2l-.9.8a18.2 18.2 0 0 0 .3 2 4.6 4.6 0 0 0 1.4 2.3 4 4 0 0 0 2.7.7Zm-5 6.3c1 .8 2.3.6 3.3 1.6a5.8 5.8 0 0 1 1.4 3.5v.2l1-.8a10.7 10.7 0 0 0-.5-2.3 4.4 4.4 0 0 0-2-2.3c-1-.6-2.3-.5-3.1-1.5a8.7 8.7 0 0 1-1.3-3.4 6 6 0 0 0-1.4-3l-.8 1a4.7 4.7 0 0 1 .7 1c1 2 .7 4.7 2.6 6Zm-7.3-1a5.5 5.5 0 0 1 1 1.1c1.1 2 .7 4.3 1.7 6.3a4 4 0 0 0 1.7 1.9 3.4 3.4 0 0 0 1.4.3 5 5 0 0 1 .8.1l1.4-.7c-.8-.8-1.8-.4-2.7-.8a3.7 3.7 0 0 1-2-2.6c-.5-2.1-.3-4.4-2-6a6 6 0 0 0-.7-.8Z" style="fill:#fa5951"/><path d="M440.6 372.4c-.8 7.7-4.9 28-20.6 28.5 0 0 3-11 10.3-19.7a57.8 57.8 0 0 1 10.3-8.8Z" style="opacity:.2" fill="#000000"/><path d="M420 400.9c7.2-1.1 13.4-5.7 16.6-19.3s3.7-19.7 1.5-21c-2.5-1.6-12.4 12-15.6 18.1-8 15.2-2.5 22.2-2.5 22.2Z" style="fill:#fa5951"/><path d="M437.1 375.5a4.7 4.7 0 0 1 .7.4l.3-1.2a4.5 4.5 0 0 0-1.7-.7 7.8 7.8 0 0 0-3.3.5 4.5 4.5 0 0 1-3.4.2c-1.4-.8-1.4-2.7-2.2-4l-1 1.4a17.2 17.2 0 0 0 1.3 3c1.4 1.8 3.7 1.2 5.5.7a5.6 5.6 0 0 1 3.8-.3Zm0-7.1a4.3 4.3 0 0 1 2 .6v-1a3.8 3.8 0 0 0-1.4-.6 4 4 0 0 0-1.5 0 8.4 8.4 0 0 1-1.8.5c-1.3 0-1.9-1.7-2.5-2.5l-.2-.1-.7.8a4.9 4.9 0 0 1 .6.7c.6.9 1.1 2 2.2 2.1a2.9 2.9 0 0 0 1.7-.3 3.8 3.8 0 0 1 1.6-.2Zm-3.3 16.6a5.9 5.9 0 0 1 2-.3l.3-1.4a6.4 6.4 0 0 0-1.4.1c-1.6.4-3.6 1.5-5.1.2a16 16 0 0 1-1.9-2.7 5.3 5.3 0 0 0-2.7-2 6.2 6.2 0 0 0-2.5-.1l-.8 1.5a4.8 4.8 0 0 1 3.7.7 10.2 10.2 0 0 1 2.2 2.8c1.7 2.4 3.8 2 6.3 1.2Zm-15 3.2a4 4 0 0 1 1.5 1.2c.7.8 1 1.9 1.7 2.8a3.9 3.9 0 0 0 5.1 1.6 3.5 3.5 0 0 1 2.5-.4 4.4 4.4 0 0 1 1.6 1l.7-1a5.2 5.2 0 0 0-2-1.3 4.9 4.9 0 0 0-3.2.2 2.3 2.3 0 0 1-2.8-1c-.7-.9-1-2-1.8-2.9a5.6 5.6 0 0 0-2.4-1.8l-.4-.1-.5 1.7Z" style="fill:#fff;opacity:.2"/><path d="M422.5 378.7a55 55 0 0 1 2.3-3.9c3.1 9.7 4.1 23.8-4.8 26 0 0-5.4-7 2.5-22Z" style="opacity:.15" fill="#000000"/><path d="M418.1 402.4c6 0 8.1-8.3 7.5-15s-4.8-19.4-7.5-19.4-6.9 12.7-7.5 19.4 1.4 15 7.5 15Z" style="fill:#fa5951"/><path d="M418.1 402.4c6 0 8.1-8.3 7.5-15s-4.8-19.4-7.5-19.4-6.9 12.7-7.5 19.4 1.4 15 7.5 15Z" style="fill:#fff;opacity:.30000000000000004"/><path d="M418 376.7a5 5 0 0 0 2.3-1.6 4 4 0 0 1 2-1l-.6-1.2a5.8 5.8 0 0 0-2.5 1.6 3.6 3.6 0 0 1-1.3 1c-.7.3-1.2-.1-1.7-.6a4 4 0 0 0-2-1.2l-.4 1a3.8 3.8 0 0 1 2.1 1.2 2.3 2.3 0 0 0 2.2.8Zm-4.5 7.3c2 1.6 3.7-.7 5-2 1.1-1.1 2.3-1.4 3.5-.3a8.2 8.2 0 0 0 2.3 1.7 4.7 4.7 0 0 0 .7.1l-.2-1.1a6.9 6.9 0 0 1-2.5-1.7c-1.8-1.4-3.5-.8-4.9.8-.8 1-2.2 2.6-3.5 1.6-.8-.6-1.2-1.6-2-2.2l-.3 1c.8.5 1.2 1.5 2 2.1Zm2.3 7.3c1.1 1.5 2.6 1.9 4.1.6a27.8 27.8 0 0 1 2.1-2.1c1.2-.8 2.5-.4 3.7.1v-1a8 8 0 0 0-1.7-.6 3.4 3.4 0 0 0-2.6.5c-.9.6-1.4 1.6-2.2 2.2a2 2 0 0 1-1.8.6c-.7-.3-1.1-1.1-1.6-1.6a5 5 0 0 0-2.4-1.4 4.4 4.4 0 0 0-2.9.3v1a4.3 4.3 0 0 1 5.3 1.4Zm5.8 6.2a4.8 4.8 0 0 1-3.5 1 2.7 2.7 0 0 1-1.7-.8l-1-1a4.1 4.1 0 0 0-2.2-1.2 4.6 4.6 0 0 0-2 .2l.4 1a3.1 3.1 0 0 1 3 .5c.8.5 1.1 1.4 1.9 2a4.4 4.4 0 0 0 2.4.5 5.5 5.5 0 0 0 2.5-.6c.9-.5 1.5-1.3 2.3-1.7a3.6 3.6 0 0 1 .7-.4l.5-1.3a4 4 0 0 0-.9.1 8.4 8.4 0 0 0-2.4 1.7Z" style="fill:#fff;opacity:.2"/><path d="m393.6 230 4-7.4-3.2-9.2v-5.6l9.8 5.6v5.6l-4.2 7.2a.6.6 0 0 1-.3.3Z" style="fill:#fa5951"/><path d="m393.6 230 4-7.4-3.2-9.2v-5.6l9.8 5.6v5.6l-4.2 7.2a.6.6 0 0 1-.3.3Z" style="opacity:.2" fill="#000000"/><path d="M372.5 164.3a6.4 6.4 0 0 1 3-5l2.3-1.4a6.5 6.5 0 0 1 5.9 0L420 179a6.5 6.5 0 0 1 3 5v40.2a6.5 6.5 0 0 1-3 5l-2.4 1.4a6.5 6.5 0 0 1-5.8 0l-13.9-8-4.2 7.2a.6.6 0 0 1-1 0l-4.5-12.8-12.8-7.5a6.4 6.4 0 0 1-3-5Z" style="fill:#fa5951"/><path d="M423 224.1a6.5 6.5 0 0 1-2.9 5l-2.4 1.5a6.6 6.6 0 0 1-5.3.2c1.4.5 2.4-.3 2.4-2v-40a6 6 0 0 0-.8-3l8.2-4.7a6 6 0 0 1 .9 3Z" style="opacity:.2" fill="#000000"/><path d="M372.6 163.5c.4-1.3 1.5-1.7 2.8-.9l36.5 21.1a5.8 5.8 0 0 1 2 2.2l8.3-4.8a5.9 5.9 0 0 0-2-2.1l-36.5-21.1a6.5 6.5 0 0 0-5.9 0l-2.3 1.3a6.5 6.5 0 0 0-2.9 4.3Z" style="fill:#fff;opacity:.30000000000000004"/><path d="m385 178-1.4-2.7-4-.9a3.1 3.1 0 0 1 1.6-2.6c1.5-.6 3.6.6 5 3a10.5 10.5 0 0 1 1.8 5.8 3 3 0 0 0 .3 1.5l3.4 6.5 1.2 2.2-2.6 2.3-1-1.9-3.2-6.2a2 2 0 0 0-1.2-1.1c-1.4-.3-3-1.7-4.1-3.9l-.3-.6 4 1ZM396.4 197.4l2.8 5.5 1.6 3a2 2 0 0 0 1.2 1.1c1.5.3 3 1.7 4.2 3.9l.2.6-4-1-.5 2.4 1.5 2.8 4 .8a3 3 0 0 1-1.7 2.7c-1.5.6-3.6-.6-5-3a10.5 10.5 0 0 1-1.8-5.9 3 3 0 0 0-.3-1.5l-2-3.9-2.7-5ZM381 202.1l10.8-8.5a1 1 0 0 1 1.7.3l1.2 2.1a1 1 0 0 1-.1 1.3l-10.4 10c-.4.5-.8.2-1-.3l-2-3.7c-.3-.4-.4-1-.1-1.2ZM401.9 189.3l-6.6 5.5-.8-1.4 6.6-5.5.4-1.6 3.6-1.9.8 1.6-2.4 2.9-1.6.4z" style="fill:#fafafa"/><path d="M382 31a50.7 50.7 0 0 0-35.5 82.3l-5 14a1.5 1.5 0 0 0 2 2l15.1-5.1A50.7 50.7 0 1 0 382 30.9Z" style="fill:#fff"/><path d="M390.1 133a51.2 51.2 0 0 1-31.6-7.8l-14.8 5a2.5 2.5 0 0 1-3-3.2l4.8-13.5a51.6 51.6 0 1 1 44.6 19.4Zm-31.4-9.9.4.3a49.8 49.8 0 1 0-11.9-10.7l.4.4-5.3 14.6a.6.6 0 0 0 .2.6.6.6 0 0 0 .6.2Z" style="fill:#455a64"/><path d="M391.4 93.3a.4.4 0 0 0 .4.1h2.6a.6.6 0 0 0 .4-.1.7.7 0 0 0 .2-.4l.4-2h1.5a.6.6 0 0 0 .4-.2.6.6 0 0 0 .3-.3l.4-2.1a.5.5 0 0 0 0-.4.4.4 0 0 0-.4-.1h-1.5l1.6-7.6a.5.5 0 0 0 0-.4.4.4 0 0 0-.4-.1h-3.4a1 1 0 0 0-.4 0 1.8 1.8 0 0 0-.4.3l-7.5 7.4a1.6 1.6 0 0 0-.4.9l-.4 2a.4.4 0 0 0 0 .4.4.4 0 0 0 .4.2h6.6l-.4 2a.4.4 0 0 0 0 .4Zm-1.7-5.5 3.6-3.7-.7 3.7Zm-19.4-27.2a.8.8 0 0 0-.4 1l1.8 3.2a.8.8 0 0 0 .8.4.8.8 0 0 0 .4-.1.8.8 0 0 0 .3-1.1l-1.8-3.1a.8.8 0 0 0-1.1-.3Zm11.6-2.6v5.5a.8.8 0 0 0 1.6 0V58a.8.8 0 0 0-1.6 0Zm-16.5 13.3-3.1-1.8a.8.8 0 0 0-1.1.3.8.8 0 0 0 .3 1l3 1.9a.8.8 0 0 0 .5 0 .8.8 0 0 0 .4-1.4ZM355 97a6.2 6.2 0 0 1 1-.5l-.1-.2a31.3 31.3 0 0 1-3.1-19.6 30.7 30.7 0 0 1 9.1-17.3 30.2 30.2 0 0 1 17.4-8 29.1 29.1 0 0 1 26.8 11.7h-6.5a1 1 0 0 0-.4 1.8l15 6.7a2.6 2.6 0 0 0 3.5-2l2.2-16.3a1 1 0 0 0-1.7-.6l-4 6.7a37.8 37.8 0 0 0-12.6-10.9 36.9 36.9 0 0 0-23.1-3.8A36.4 36.4 0 0 0 358 55.5a35.8 35.8 0 0 0-9.6 20.6A35.2 35.2 0 0 0 353 98l.5.8.2-.3A5.5 5.5 0 0 1 355 97Zm9.1-15.5h-5.5a.8.8 0 1 0 0 1.6h5.5a.8.8 0 1 0 0-1.6Zm37.3 13.4a1.6 1.6 0 0 0 .4-.4l10-15.9a.5.5 0 0 0 0-.4.3.3 0 0 0-.3-.2h-2.8a1 1 0 0 0-.6.2 1.6 1.6 0 0 0-.4.4l-10 16a.5.5 0 0 0 0 .3.3.3 0 0 0 .3.2h2.8a1 1 0 0 0 .6-.2ZM423 80a.4.4 0 0 0-.3-.3h-9.5a.7.7 0 0 0-.6.6l-.4 2a.5.5 0 0 0 0 .5.4.4 0 0 0 .4.1h5.6l-6.4 10a.6.6 0 0 0 0 .4c0 .2.2.2.4.2h3a.6.6 0 0 0 .3-.1 2 2 0 0 0 .3-.3l6.4-10a6.3 6.3 0 0 0 .3-.6 1.8 1.8 0 0 0 .2-.4l.4-1.9a.4.4 0 0 0-.1-.3Zm-38.8 2.6a3.6 3.6 0 0 0-.8-1.5 4.3 4.3 0 0 0-1.5-1.1 5.4 5.4 0 0 0-2.2-.4 7.6 7.6 0 0 0-2.6.4 6 6 0 0 0-1.8 1.1 5.4 5.4 0 0 0-1.2 1.5 7.2 7.2 0 0 0-.6 1.6.3.3 0 0 0 0 .3.3.3 0 0 0 .3.2h2.5a1.4 1.4 0 0 0 .5-.1.8.8 0 0 0 .3-.4l.2-.4a2 2 0 0 1 .4-.4 2.3 2.3 0 0 1 .6-.5 2 2 0 0 1 1-.1 1.6 1.6 0 0 1 .8.1 1 1 0 0 1 .4.5 1.1 1.1 0 0 1 .2.4 1.4 1.4 0 0 1 0 .4l-.1.4a1.4 1.4 0 0 1-.3.5 2.5 2.5 0 0 1-.3.4 3.6 3.6 0 0 1-.7.5l-6.6 4.2a1.8 1.8 0 0 0-.6.5 2 2 0 0 0-.3.7l-.3 1.7a.5.5 0 0 0 0 .3.4.4 0 0 0 .4.2h10.2a.6.6 0 0 0 .4-.2.6.6 0 0 0 .2-.3l.5-2.1a.4.4 0 0 0 0-.4.4.4 0 0 0-.4-.2h-4.6l3.1-1.8a7.6 7.6 0 0 0 1.3-1 5.5 5.5 0 0 0 .9-1 5.8 5.8 0 0 0 .5-1 8.3 8.3 0 0 0 .3-1.2 3.6 3.6 0 0 0 0-1.8Zm-21.8 16.2a4.2 4.2 0 0 0-1.2-.7 4.6 4.6 0 0 0-1.7-.3 6.5 6.5 0 0 0-1.8.2 4.4 4.4 0 0 0-1.4.7 3.4 3.4 0 0 0-1 1 3.6 3.6 0 0 0-.4 1.2 2.6 2.6 0 0 0 .3 2 3.1 3.1 0 0 0 2 1.2l1.3.3a8.4 8.4 0 0 1 1 .2 1.4 1.4 0 0 1 .4.3.4.4 0 0 1 .1.4.8.8 0 0 1-.6.6 4.7 4.7 0 0 1-1.3.2 2.1 2.1 0 0 1-.8-.1 1.7 1.7 0 0 1-.4-.3 1.5 1.5 0 0 1-.3-.3 1.2 1.2 0 0 0-.1-.2.7.7 0 0 0-.2-.1.9.9 0 0 0-.3 0h-2a.4.4 0 0 0-.2 0 .5.5 0 0 0-.2.3 2 2 0 0 0 .3 1.1 3 3 0 0 0 .8 1 4.2 4.2 0 0 0 1.3.7 4.8 4.8 0 0 0 1.6.3 6.6 6.6 0 0 0 3.5-.8 3.4 3.4 0 0 0 1.6-2.3 2.4 2.4 0 0 0-.3-2.1 4 4 0 0 0-2.2-1.2l-1.3-.3a5.4 5.4 0 0 1-.8-.2.9.9 0 0 1-.4-.3.5.5 0 0 1 0-.4.7.7 0 0 1 .1-.4 1 1 0 0 1 .4-.2 1.7 1.7 0 0 1 .5-.1 4.9 4.9 0 0 1 .5 0 2.1 2.1 0 0 1 .6 0 1.7 1.7 0 0 1 .4.3 1.1 1.1 0 0 1 .3.2 1 1 0 0 0 0 .1 1 1 0 0 0 .3.2.7.7 0 0 0 .3 0h1.9a.4.4 0 0 0 .2 0 .4.4 0 0 0 .2-.3 1.9 1.9 0 0 0-.2-1 3.2 3.2 0 0 0-.8-1Zm31.4-.7c0-.1 0-.2-.2-.2h-2a.6.6 0 0 0-.5.1.8.8 0 0 0-.2.3l-3.4 6.4-.7-6.4a.5.5 0 0 0 0-.3h-2.2c-.3 0-.4 0-.4.4l1 9.2a.6.6 0 0 0 .7.6h2a1 1 0 0 0 1-.6l4.9-9.2a.7.7 0 0 0 0-.3Zm3.7-.2h-1.9a.5.5 0 0 0-.3.1.5.5 0 0 0-.2.3l-2 9.5a.3.3 0 0 0 .4.4h1.9a.5.5 0 0 0 .3-.1.5.5 0 0 0 .2-.3l2-9.5a.3.3 0 0 0-.1-.3.3.3 0 0 0-.3 0Zm-15.3 1a3.2 3.2 0 0 0-1.2-.7 5.4 5.4 0 0 0-1.6-.3h-3.8a.5.5 0 0 0-.3.1.5.5 0 0 0-.2.3l-2 9.5a.3.3 0 0 0 .3.4h2a.5.5 0 0 0 .3-.1.5.5 0 0 0 .1-.3l.7-3.1h1.5l1 3.1a1 1 0 0 0 .1.3.5.5 0 0 0 .4 0h1.8a.4.4 0 0 0 .3 0 .4.4 0 0 0 .1-.2.4.4 0 0 0 0-.2l-1-3.5a4.3 4.3 0 0 0 1.5-1 3.7 3.7 0 0 0 .8-1.7 3 3 0 0 0 0-1.5 2.4 2.4 0 0 0-.8-1.2Zm-2 2.4a1.1 1.1 0 0 1-.6.8 2.3 2.3 0 0 1-1 .3H377l.5-2.2h1.6a1.7 1.7 0 0 1 1 .2.8.8 0 0 1 .2.9Zm26.8-2.5a4.2 4.2 0 0 0-1.3-.7 4.7 4.7 0 0 0-1.6-.3 6.1 6.1 0 0 0-2.1.3 4.8 4.8 0 0 0-1.5.8 4.8 4.8 0 0 0-1 1.3 6 6 0 0 0-.6 1.5 32.1 32.1 0 0 0-.6 2.7 3.2 3.2 0 0 0 .1 1.5 3.4 3.4 0 0 0 .8 1.3 3.5 3.5 0 0 0 1.2.8 4.6 4.6 0 0 0 1.8.3 6.3 6.3 0 0 0 2-.3 5.3 5.3 0 0 0 1.5-.7 4.3 4.3 0 0 0 1.7-2.6.2.2 0 0 0 0-.2.3.3 0 0 0-.3 0h-2a.5.5 0 0 0-.3 0 1.8 1.8 0 0 0-.2.3 3.5 3.5 0 0 1-.3.4 1.8 1.8 0 0 1-.4.4 2.2 2.2 0 0 1-.5.3 2.6 2.6 0 0 1-.9 0 2 2 0 0 1-.8 0 1.2 1.2 0 0 1-.5-.4 1 1 0 0 1-.2-.6 2.3 2.3 0 0 1 0-.6l.1-.6.1-.7.2-.7c0-.3.1-.4.2-.5a2.6 2.6 0 0 1 .2-.6 1.7 1.7 0 0 1 .4-.6 2.2 2.2 0 0 1 .7-.3 2.5 2.5 0 0 1 .9-.2 2.2 2.2 0 0 1 .7.1 1.2 1.2 0 0 1 .5.3.8.8 0 0 1 .2.4 3.6 3.6 0 0 1 .2.4.7.7 0 0 0 0 .3l.3.1h2a.4.4 0 0 0 .2 0 .4.4 0 0 0 .2-.3 2.4 2.4 0 0 0-.2-1.4 3 3 0 0 0-.8-1.2Zm10.5-.9h-6.9a.5.5 0 0 0-.3.1.4.4 0 0 0-.1.3l-2 9.5a.3.3 0 0 0 0 .3.3.3 0 0 0 .3 0h7a.4.4 0 0 0 .3 0 .5.5 0 0 0 .2-.3l.3-1.6a.4.4 0 0 0 0-.2.3.3 0 0 0-.3-.2h-4.6l.4-1.6h4.1a.5.5 0 0 0 .4-.1.4.4 0 0 0 .1-.3l.4-1.6a.3.3 0 0 0-.1-.2.3.3 0 0 0-.3-.2h-4.1l.3-1.5h4.4a.5.5 0 0 0 .3-.2.5.5 0 0 0 .2-.2l.3-1.6a.3.3 0 0 0 0-.3.3.3 0 0 0-.3 0Zm-44.3.2a.3.3 0 0 0-.2-.1h-6.8a.5.5 0 0 0-.5.4l-2 9.5a.3.3 0 0 0 0 .2.3.3 0 0 0 .3.2h7a.4.4 0 0 0 .3-.2.5.5 0 0 0 .1-.2l.4-1.6a.3.3 0 0 0 0-.3.3.3 0 0 0-.3-.1h-4.7l.3-1.6h4.2a.5.5 0 0 0 .3-.2.4.4 0 0 0 .2-.2l.4-1.6a.3.3 0 0 0-.1-.3.3.3 0 0 0-.3 0h-4.2l.4-1.7h4.5a.5.5 0 0 0 .3 0 .5.5 0 0 0 .2-.4l.3-1.5a.4.4 0 0 0 0-.3Z" style="fill:#fa5951"/></svg>