<svg xmlns="http://www.w3.org/2000/svg" viewBox="0 0 500 500"><path d="M101 164.6a1 1 0 0 0-1 .1l-2 1.4-.4 1.2a2.2 2.2 0 0 0 .8 2.1 9.5 9.5 0 0 1 1 1 1.5 1.5 0 0 0 2 .4l4.7-3.3a1 1 0 0 1 1-.1Zm-6 17c-1-3.6-3.7-5.3-7-5a9.1 9.1 0 0 1 .9 2.2c1.6 5.8-1.6 14.3-7.2 19a12 12 0 0 1-6.1 3c2.3 3.8 7.4 4 12.2 0 5.5-4.8 8.8-13.3 7.1-19.1Zm-2.2-25a1.3 1.3 0 0 0-.4 0l-3.8-.6a2 2 0 0 0-2 1l-3 6.3a2.8 2.8 0 0 1-.6.8 3.5 3.5 0 0 1-.6.4l1.4 3.4a1.3 1.3 0 0 0 1.8.6 19.9 19.9 0 0 1 2.3-.8 3.5 3.5 0 0 0 1.1-.7 2.6 2.6 0 0 0 .7-.9l3-6.3a2 2 0 0 1 2-1l3.7.6a1.4 1.4 0 0 1 .4.1Zm-5 60.2a1 1 0 0 1-.3-.5l-1.6-3.8a1.4 1.4 0 0 0-1.9-.7 18 18 0 0 1-2.2.8 2.6 2.6 0 0 0-.7.3l.2.5a1 1 0 0 0 .5.6Zm-12.4-56.2a1.2 1.2 0 0 0-.4-.1 1 1 0 0 0-.7.3l-5.1 4.3a1.2 1.2 0 0 0-.2.2.7.7 0 0 0-.2.1 3 3 0 0 0-.4.9 1.2 1.2 0 0 1 0 .2 2 2 0 0 0 0 .8l.7 4.9a3.6 3.6 0 0 1-.6 2.4 39.3 39.3 0 0 0-2.3 3.3 2.6 2.6 0 0 1-1.1 1 2.7 2.7 0 0 1-.5 0 .8.8 0 0 1-.2 0 1.1 1.1 0 0 1-.4 0h-4l-.2.1a1.7 1.7 0 0 0-.3.2 2.8 2.8 0 0 0-.5.3 2 2 0 0 0-.5.7l-2.7 7.1a1.3 1.3 0 0 0 .7 1.7l4.1 2a1.5 1.5 0 0 1 .2 1 27.8 27.8 0 0 0-.3 3.3 3.8 3.8 0 0 1-1 2.3l-4.5 4.5a1.6 1.6 0 0 0-.2.2 1.2 1.2 0 0 0-.2.4 2.4 2.4 0 0 0-.2 1.7l1.4 4.9a1 1 0 0 0 .5.7l6.1 2.8a1 1 0 0 1-.5-.6l-1.3-5a2 2 0 0 1 0-1 2.4 2.4 0 0 1 .6-1.3l4.5-4.4a3.9 3.9 0 0 0 1-2.4 26 26 0 0 1 .3-3.3 1.7 1.7 0 0 0-1.2-1.8l-3-1a1.4 1.4 0 0 1-.9-1.7l2.7-7.2a2 2 0 0 1 .5-.7 2.3 2.3 0 0 1 1.5-.5h3.6a2.3 2.3 0 0 0 1-.2 2.5 2.5 0 0 0 1.1-1l2.3-3.3a3.5 3.5 0 0 0 .6-2.4l-.7-4.8a2 2 0 0 1 0-1 2.7 2.7 0 0 1 .8-1.3l5.2-4.3a1 1 0 0 1 1-.2ZM72 213a2.3 2.3 0 0 0-.8-2.1 8.7 8.7 0 0 1-1-1 1.5 1.5 0 0 0-2-.4l-2.7 1.9-1.5 5.2a1.1 1.1 0 0 0 .6 1.3l6.1 3a1.1 1.1 0 0 1-.6-1.5Z" style="fill:#fa5951"/><path d="M101 164.6a1 1 0 0 0-1 .1l-2 1.4-.4 1.2a2.2 2.2 0 0 0 .8 2.1 9.5 9.5 0 0 1 1 1 1.5 1.5 0 0 0 2 .4l4.7-3.3a1 1 0 0 1 1-.1Zm-6 17c-1-3.6-3.7-5.3-7-5a9.1 9.1 0 0 1 .9 2.2c1.6 5.8-1.6 14.3-7.2 19a12 12 0 0 1-6.1 3c2.3 3.8 7.4 4 12.2 0 5.5-4.8 8.8-13.3 7.1-19.1Zm-2.2-25a1.3 1.3 0 0 0-.4 0l-3.8-.6a2 2 0 0 0-2 1l-3 6.3a2.8 2.8 0 0 1-.6.8 3.5 3.5 0 0 1-.6.4l1.4 3.4a1.3 1.3 0 0 0 1.8.6 19.9 19.9 0 0 1 2.3-.8 3.5 3.5 0 0 0 1.1-.7 2.6 2.6 0 0 0 .7-.9l3-6.3a2 2 0 0 1 2-1l3.7.6a1.4 1.4 0 0 1 .4.1Zm-5 60.2a1 1 0 0 1-.3-.5l-1.6-3.8a1.4 1.4 0 0 0-1.9-.7 18 18 0 0 1-2.2.8 2.6 2.6 0 0 0-.7.3l.2.5a1 1 0 0 0 .5.6Zm-12.4-56.2a1.2 1.2 0 0 0-.4-.1 1 1 0 0 0-.7.3l-5.1 4.3a1.2 1.2 0 0 0-.2.2.7.7 0 0 0-.2.1 3 3 0 0 0-.4.9 1.2 1.2 0 0 1 0 .2 2 2 0 0 0 0 .8l.7 4.9a3.6 3.6 0 0 1-.6 2.4 39.3 39.3 0 0 0-2.3 3.3 2.6 2.6 0 0 1-1.1 1 2.7 2.7 0 0 1-.5 0 .8.8 0 0 1-.2 0 1.1 1.1 0 0 1-.4 0h-4l-.2.1a1.7 1.7 0 0 0-.3.2 2.8 2.8 0 0 0-.5.3 2 2 0 0 0-.5.7l-2.7 7.1a1.3 1.3 0 0 0 .7 1.7l4.1 2a1.5 1.5 0 0 1 .2 1 27.8 27.8 0 0 0-.3 3.3 3.8 3.8 0 0 1-1 2.3l-4.5 4.5a1.6 1.6 0 0 0-.2.2 1.2 1.2 0 0 0-.2.4 2.4 2.4 0 0 0-.2 1.7l1.4 4.9a1 1 0 0 0 .5.7l6.1 2.8a1 1 0 0 1-.5-.6l-1.3-5a2 2 0 0 1 0-1 2.4 2.4 0 0 1 .6-1.3l4.5-4.4a3.9 3.9 0 0 0 1-2.4 26 26 0 0 1 .3-3.3 1.7 1.7 0 0 0-1.2-1.8l-3-1a1.4 1.4 0 0 1-.9-1.7l2.7-7.2a2 2 0 0 1 .5-.7 2.3 2.3 0 0 1 1.5-.5h3.6a2.3 2.3 0 0 0 1-.2 2.5 2.5 0 0 0 1.1-1l2.3-3.3a3.5 3.5 0 0 0 .6-2.4l-.7-4.8a2 2 0 0 1 0-1 2.7 2.7 0 0 1 .8-1.3l5.2-4.3a1 1 0 0 1 1-.2ZM72 213a2.3 2.3 0 0 0-.8-2.1 8.7 8.7 0 0 1-1-1 1.5 1.5 0 0 0-2-.4l-2.7 1.9-1.5 5.2a1.1 1.1 0 0 0 .6 1.3l6.1 3a1.1 1.1 0 0 1-.6-1.5Z" style="fill:#fff;opacity:.7000000000000001"/><path d="M101 164.6a1 1 0 0 0-1 .1l-2 1.4-.4 1.2a2.2 2.2 0 0 0 .8 2.1 9.5 9.5 0 0 1 1 1 1.5 1.5 0 0 0 2 .4l4.7-3.3a1 1 0 0 1 1-.1Zm-6 17c-1-3.6-3.7-5.3-7-5a9.1 9.1 0 0 1 .9 2.2c1.6 5.8-1.6 14.3-7.2 19a12 12 0 0 1-6.1 3c2.3 3.8 7.4 4 12.2 0 5.5-4.8 8.8-13.3 7.1-19.1Zm-2.2-25a1.3 1.3 0 0 0-.4 0l-3.8-.6a2 2 0 0 0-2 1l-3 6.3a2.8 2.8 0 0 1-.6.8 3.5 3.5 0 0 1-.6.4l1.4 3.4a1.3 1.3 0 0 0 1.8.6 19.9 19.9 0 0 1 2.3-.8 3.5 3.5 0 0 0 1.1-.7 2.6 2.6 0 0 0 .7-.9l3-6.3a2 2 0 0 1 2-1l3.7.6a1.4 1.4 0 0 1 .4.1Zm-5 60.2a1 1 0 0 1-.3-.5l-1.6-3.8a1.4 1.4 0 0 0-1.9-.7 18 18 0 0 1-2.2.8 2.6 2.6 0 0 0-.7.3l.2.5a1 1 0 0 0 .5.6Zm-12.4-56.2a1.2 1.2 0 0 0-.4-.1 1 1 0 0 0-.7.3l-5.1 4.3a1.2 1.2 0 0 0-.2.2.7.7 0 0 0-.2.1 3 3 0 0 0-.4.9 1.2 1.2 0 0 1 0 .2 2 2 0 0 0 0 .8l.7 4.9a3.6 3.6 0 0 1-.6 2.4 39.3 39.3 0 0 0-2.3 3.3 2.6 2.6 0 0 1-1.1 1 2.7 2.7 0 0 1-.5 0 .8.8 0 0 1-.2 0 1.1 1.1 0 0 1-.4 0h-4l-.2.1a1.7 1.7 0 0 0-.3.2 2.8 2.8 0 0 0-.5.3 2 2 0 0 0-.5.7l-2.7 7.1a1.3 1.3 0 0 0 .7 1.7l4.1 2a1.5 1.5 0 0 1 .2 1 27.8 27.8 0 0 0-.3 3.3 3.8 3.8 0 0 1-1 2.3l-4.5 4.5a1.6 1.6 0 0 0-.2.2 1.2 1.2 0 0 0-.2.4 2.4 2.4 0 0 0-.2 1.7l1.4 4.9a1 1 0 0 0 .5.7l6.1 2.8a1 1 0 0 1-.5-.6l-1.3-5a2 2 0 0 1 0-1 2.4 2.4 0 0 1 .6-1.3l4.5-4.4a3.9 3.9 0 0 0 1-2.4 26 26 0 0 1 .3-3.3 1.7 1.7 0 0 0-1.2-1.8l-3-1a1.4 1.4 0 0 1-.9-1.7l2.7-7.2a2 2 0 0 1 .5-.7 2.3 2.3 0 0 1 1.5-.5h3.6a2.3 2.3 0 0 0 1-.2 2.5 2.5 0 0 0 1.1-1l2.3-3.3a3.5 3.5 0 0 0 .6-2.4l-.7-4.8a2 2 0 0 1 0-1 2.7 2.7 0 0 1 .8-1.3l5.2-4.3a1 1 0 0 1 1-.2ZM72 213a2.3 2.3 0 0 0-.8-2.1 8.7 8.7 0 0 1-1-1 1.5 1.5 0 0 0-2-.4l-2.7 1.9-1.5 5.2a1.1 1.1 0 0 0 .6 1.3l6.1 3a1.1 1.1 0 0 1-.6-1.5Z" style="opacity:.05" fill="#000000"/><path d="m65.6 200.6-4.5 4.3a2.4 2.4 0 0 0-.6 1.4l-6.2-2.9a3 3 0 0 1 .3-.7 1.2 1.2 0 0 1 .1-.3 1.6 1.6 0 0 1 .2-.3l4.5-4.4ZM71.2 181.7a2.3 2.3 0 0 1-1 .2h-3.7a2.3 2.3 0 0 0-1.4.6l-6.1-2.9a2.8 2.8 0 0 1 .5-.3 1.7 1.7 0 0 1 .3-.1l.2-.1h4a1.1 1.1 0 0 0 .3 0h.2l.5-.2ZM107 167.4a1 1 0 0 0-1 .2l-4.6 3.2a1.6 1.6 0 0 1-2-.3 8.7 8.7 0 0 0-1-1 2.2 2.2 0 0 1-.8-2.2l.4-1.1 2-1.4a1 1 0 0 1 1-.2ZM98.8 159.5a1.4 1.4 0 0 0-.3-.1l-3.8-.6a2 2 0 0 0-2 1l-3 6.3a2.6 2.6 0 0 1-.7.9l-6.1-2.9a2.8 2.8 0 0 0 .7-.8l2.9-6.3a2 2 0 0 1 2-1l3.8.6a1.3 1.3 0 0 1 .4 0ZM81.6 163.4a1 1 0 0 0-1.1.2l-5.2 4.3a2.7 2.7 0 0 0-.8 1.4l-6.1-2.8a1.2 1.2 0 0 0 0-.2 3 3 0 0 1 .4-.9.7.7 0 0 1 .1-.1 1.2 1.2 0 0 1 .2-.2l5.2-4.3a1 1 0 0 1 .6-.3 1.2 1.2 0 0 1 .5 0Z" style="fill:#fa5951"/><path d="m65.6 200.6-4.5 4.3a2.4 2.4 0 0 0-.6 1.4l-6.2-2.9a3 3 0 0 1 .3-.7 1.2 1.2 0 0 1 .1-.3 1.6 1.6 0 0 1 .2-.3l4.5-4.4ZM71.2 181.7a2.3 2.3 0 0 1-1 .2h-3.7a2.3 2.3 0 0 0-1.4.6l-6.1-2.9a2.8 2.8 0 0 1 .5-.3 1.7 1.7 0 0 1 .3-.1l.2-.1h4a1.1 1.1 0 0 0 .3 0h.2l.5-.2ZM107 167.4a1 1 0 0 0-1 .2l-4.6 3.2a1.6 1.6 0 0 1-2-.3 8.7 8.7 0 0 0-1-1 2.2 2.2 0 0 1-.8-2.2l.4-1.1 2-1.4a1 1 0 0 1 1-.2ZM98.8 159.5a1.4 1.4 0 0 0-.3-.1l-3.8-.6a2 2 0 0 0-2 1l-3 6.3a2.6 2.6 0 0 1-.7.9l-6.1-2.9a2.8 2.8 0 0 0 .7-.8l2.9-6.3a2 2 0 0 1 2-1l3.8.6a1.3 1.3 0 0 1 .4 0ZM81.6 163.4a1 1 0 0 0-1.1.2l-5.2 4.3a2.7 2.7 0 0 0-.8 1.4l-6.1-2.8a1.2 1.2 0 0 0 0-.2 3 3 0 0 1 .4-.9.7.7 0 0 1 .1-.1 1.2 1.2 0 0 1 .2-.2l5.2-4.3a1 1 0 0 1 .6-.3 1.2 1.2 0 0 1 .5 0Z" style="fill:#fff;opacity:.9"/><path d="m109 173-1.4-4.9a1 1 0 0 0-1.5-.5l-4.6 3.2a1.5 1.5 0 0 1-2-.3 8.7 8.7 0 0 0-1.1-1 2.3 2.3 0 0 1-.8-2.1l2-6.5a1.2 1.2 0 0 0-1.1-1.5l-3.8-.6a2 2 0 0 0-2 1l-3 6.3a3.5 3.5 0 0 1-2 1.6 18.6 18.6 0 0 0-2.1.8 1.3 1.3 0 0 1-1.9-.7l-1.6-3.8a1 1 0 0 0-1.6-.4l-5.2 4.3a2.7 2.7 0 0 0-.8 2.3l.7 4.8a3.5 3.5 0 0 1-.6 2.4 39.3 39.3 0 0 0-2.3 3.3 2.8 2.8 0 0 1-2.2 1.2h-3.5a2.2 2.2 0 0 0-2 1.3l-2.7 7.1a1.3 1.3 0 0 0 1 1.7l3 1a1.7 1.7 0 0 1 1 1.8 25.8 25.8 0 0 0-.2 3.4 3.9 3.9 0 0 1-1 2.3l-4.6 4.4a2.5 2.5 0 0 0-.6 2.3l1.4 5a1 1 0 0 0 1.5.5l4.7-3.3a1.5 1.5 0 0 1 2 .4 9.4 9.4 0 0 0 1 1 2.3 2.3 0 0 1 .8 2.1l-1.9 6.5a1.2 1.2 0 0 0 1 1.5l3.8.6a2 2 0 0 0 2-1l3-6.3a3.5 3.5 0 0 1 2-1.6 19.2 19.2 0 0 0 2.2-.8 1.3 1.3 0 0 1 1.8.7l1.6 3.8a1 1 0 0 0 1.6.3l5.2-4.3a2.7 2.7 0 0 0 .9-2.2l-.8-4.9a3.5 3.5 0 0 1 .6-2.4 39.3 39.3 0 0 0 2.3-3.3 2.8 2.8 0 0 1 2.2-1.1h3.6a2.2 2.2 0 0 0 2-1.3l2.7-7.1a1.4 1.4 0 0 0-1-1.8l-3-1a1.7 1.7 0 0 1-1-1.8 29.8 29.8 0 0 0 .2-3.3 3.8 3.8 0 0 1 1-2.3l4.6-4.4a2.6 2.6 0 0 0 .5-2.3Zm-21.3 27.7c-5.6 4.6-11.5 3.7-13.1-2.1s1.6-14.3 7.2-19 11.5-3.8 13.1 2-1.6 14.4-7.2 19Z" style="fill:#fa5951"/><path d="m109 173-1.4-4.9a1 1 0 0 0-1.5-.5l-4.6 3.2a1.5 1.5 0 0 1-2-.3 8.7 8.7 0 0 0-1.1-1 2.3 2.3 0 0 1-.8-2.1l2-6.5a1.2 1.2 0 0 0-1.1-1.5l-3.8-.6a2 2 0 0 0-2 1l-3 6.3a3.5 3.5 0 0 1-2 1.6 18.6 18.6 0 0 0-2.1.8 1.3 1.3 0 0 1-1.9-.7l-1.6-3.8a1 1 0 0 0-1.6-.4l-5.2 4.3a2.7 2.7 0 0 0-.8 2.3l.7 4.8a3.5 3.5 0 0 1-.6 2.4 39.3 39.3 0 0 0-2.3 3.3 2.8 2.8 0 0 1-2.2 1.2h-3.5a2.2 2.2 0 0 0-2 1.3l-2.7 7.1a1.3 1.3 0 0 0 1 1.7l3 1a1.7 1.7 0 0 1 1 1.8 25.8 25.8 0 0 0-.2 3.4 3.9 3.9 0 0 1-1 2.3l-4.6 4.4a2.5 2.5 0 0 0-.6 2.3l1.4 5a1 1 0 0 0 1.5.5l4.7-3.3a1.5 1.5 0 0 1 2 .4 9.4 9.4 0 0 0 1 1 2.3 2.3 0 0 1 .8 2.1l-1.9 6.5a1.2 1.2 0 0 0 1 1.5l3.8.6a2 2 0 0 0 2-1l3-6.3a3.5 3.5 0 0 1 2-1.6 19.2 19.2 0 0 0 2.2-.8 1.3 1.3 0 0 1 1.8.7l1.6 3.8a1 1 0 0 0 1.6.3l5.2-4.3a2.7 2.7 0 0 0 .9-2.2l-.8-4.9a3.5 3.5 0 0 1 .6-2.4 39.3 39.3 0 0 0 2.3-3.3 2.8 2.8 0 0 1 2.2-1.1h3.6a2.2 2.2 0 0 0 2-1.3l2.7-7.1a1.4 1.4 0 0 0-1-1.8l-3-1a1.7 1.7 0 0 1-1-1.8 29.8 29.8 0 0 0 .2-3.3 3.8 3.8 0 0 1 1-2.3l4.6-4.4a2.6 2.6 0 0 0 .5-2.3Zm-21.3 27.7c-5.6 4.6-11.5 3.7-13.1-2.1s1.6-14.3 7.2-19 11.5-3.8 13.1 2-1.6 14.4-7.2 19Z" style="fill:#fff;opacity:.75"/><path d="M113.6 76.3a1.4 1.4 0 0 0-1.4.1l-2.9 1.9-.5 1.6a3.1 3.1 0 0 0 1 3 14.8 14.8 0 0 1 1.4 1.5 2.1 2.1 0 0 0 2.8.5l6.7-4.3a1.4 1.4 0 0 1 1.4-.2Zm-9 23.7c-1.3-5.2-5-7.7-9.7-7.2a12.4 12.4 0 0 1 1.2 3c2 8.1-2.7 20-10.8 26.3a17 17 0 0 1-8.6 3.8c3.2 5.5 10.2 5.8 17.1.4 8-6.3 12.9-18.1 10.8-26.3Zm-2.3-35.2a2.3 2.3 0 0 0-.5-.2l-5.3-1a2.8 2.8 0 0 0-2.9 1.4l-4.3 8.8a3.8 3.8 0 0 1-1 1.1 4.3 4.3 0 0 1-.8.6l1.9 4.7a1.9 1.9 0 0 0 2.5 1 24.5 24.5 0 0 1 3.1-1 5.3 5.3 0 0 0 1.8-1 3.5 3.5 0 0 0 1-1.2l4.3-8.7a2.8 2.8 0 0 1 2.9-1.4l5.3 1a1.8 1.8 0 0 1 .5.2Zm-9 84a1.5 1.5 0 0 1-.4-.7l-2.2-5.4a1.9 1.9 0 0 0-2.5-1 24.6 24.6 0 0 1-3.2 1.1 4.3 4.3 0 0 0-1 .4l.3.7a1.4 1.4 0 0 0 .7.8ZM78 69.8a1.3 1.3 0 0 0-.6-.2 1.6 1.6 0 0 0-1 .4l-7.3 5.8a1.8 1.8 0 0 0-.3.3 1 1 0 0 0-.2.2 4.3 4.3 0 0 0-.6 1.2v.2a2.9 2.9 0 0 0-.2 1.2l1 6.9a5 5 0 0 1-1 3.3l-3.4 4.5a3.6 3.6 0 0 1-1.6 1.3 2.7 2.7 0 0 1-.7.2 1.6 1.6 0 0 1-.3 0 2.3 2.3 0 0 1-.4 0h-5.2a1.8 1.8 0 0 0-.4 0 1.5 1.5 0 0 0-.3 0 2.6 2.6 0 0 0-.4.2 3 3 0 0 0-.7.4 2.7 2.7 0 0 0-.8 1l-4 10a1.9 1.9 0 0 0 1 2.2l5.8 3a2.2 2.2 0 0 1 .2 1.2 40.3 40.3 0 0 0-.6 4.7 5.3 5.3 0 0 1-1.4 3.2v.1l-6.5 6a1.4 1.4 0 0 0-.3.4 1.4 1.4 0 0 0-.3.4 3.4 3.4 0 0 0-.3 2.4l1.7 7a1.4 1.4 0 0 0 .7 1l8.5 4.1a1.4 1.4 0 0 1-.6-.9l-1.8-7a3 3 0 0 1 0-1.3 3.4 3.4 0 0 1 1-1.9l6.4-6a5.5 5.5 0 0 0 1.6-3.2 36.5 36.5 0 0 1 .5-4.7 2.4 2.4 0 0 0-1.6-2.6l-4.1-1.5A1.9 1.9 0 0 1 58 111l4-9.9a2.4 2.4 0 0 1 .7-1 3.1 3.1 0 0 1 2-.7h5a3.5 3.5 0 0 0 1.5-.2 3.7 3.7 0 0 0 1.6-1.3l3.3-4.5a4.9 4.9 0 0 0 1-3.3l-1-7a2.9 2.9 0 0 1 .2-1.1 3.6 3.6 0 0 1 1.3-1.9l7.4-5.8a1.4 1.4 0 0 1 1.5-.3ZM71.3 143a3.1 3.1 0 0 0-1-3 14.6 14.6 0 0 1-1.5-1.5 2.1 2.1 0 0 0-2.8-.5l-3.8 2.5-2.3 7.2a1.6 1.6 0 0 0 .8 2l8.5 4.2a1.6 1.6 0 0 1-.8-2Z" style="fill:#fa5951"/><path d="M113.6 76.3a1.4 1.4 0 0 0-1.4.1l-2.9 1.9-.5 1.6a3.1 3.1 0 0 0 1 3 14.8 14.8 0 0 1 1.4 1.5 2.1 2.1 0 0 0 2.8.5l6.7-4.3a1.4 1.4 0 0 1 1.4-.2Zm-9 23.7c-1.3-5.2-5-7.7-9.7-7.2a12.4 12.4 0 0 1 1.2 3c2 8.1-2.7 20-10.8 26.3a17 17 0 0 1-8.6 3.8c3.2 5.5 10.2 5.8 17.1.4 8-6.3 12.9-18.1 10.8-26.3Zm-2.3-35.2a2.3 2.3 0 0 0-.5-.2l-5.3-1a2.8 2.8 0 0 0-2.9 1.4l-4.3 8.8a3.8 3.8 0 0 1-1 1.1 4.3 4.3 0 0 1-.8.6l1.9 4.7a1.9 1.9 0 0 0 2.5 1 24.5 24.5 0 0 1 3.1-1 5.3 5.3 0 0 0 1.8-1 3.5 3.5 0 0 0 1-1.2l4.3-8.7a2.8 2.8 0 0 1 2.9-1.4l5.3 1a1.8 1.8 0 0 1 .5.2Zm-9 84a1.5 1.5 0 0 1-.4-.7l-2.2-5.4a1.9 1.9 0 0 0-2.5-1 24.6 24.6 0 0 1-3.2 1.1 4.3 4.3 0 0 0-1 .4l.3.7a1.4 1.4 0 0 0 .7.8ZM78 69.8a1.3 1.3 0 0 0-.6-.2 1.6 1.6 0 0 0-1 .4l-7.3 5.8a1.8 1.8 0 0 0-.3.3 1 1 0 0 0-.2.2 4.3 4.3 0 0 0-.6 1.2v.2a2.9 2.9 0 0 0-.2 1.2l1 6.9a5 5 0 0 1-1 3.3l-3.4 4.5a3.6 3.6 0 0 1-1.6 1.3 2.7 2.7 0 0 1-.7.2 1.6 1.6 0 0 1-.3 0 2.3 2.3 0 0 1-.4 0h-5.2a1.8 1.8 0 0 0-.4 0 1.5 1.5 0 0 0-.3 0 2.6 2.6 0 0 0-.4.2 3 3 0 0 0-.7.4 2.7 2.7 0 0 0-.8 1l-4 10a1.9 1.9 0 0 0 1 2.2l5.8 3a2.2 2.2 0 0 1 .2 1.2 40.3 40.3 0 0 0-.6 4.7 5.3 5.3 0 0 1-1.4 3.2v.1l-6.5 6a1.4 1.4 0 0 0-.3.4 1.4 1.4 0 0 0-.3.4 3.4 3.4 0 0 0-.3 2.4l1.7 7a1.4 1.4 0 0 0 .7 1l8.5 4.1a1.4 1.4 0 0 1-.6-.9l-1.8-7a3 3 0 0 1 0-1.3 3.4 3.4 0 0 1 1-1.9l6.4-6a5.5 5.5 0 0 0 1.6-3.2 36.5 36.5 0 0 1 .5-4.7 2.4 2.4 0 0 0-1.6-2.6l-4.1-1.5A1.9 1.9 0 0 1 58 111l4-9.9a2.4 2.4 0 0 1 .7-1 3.1 3.1 0 0 1 2-.7h5a3.5 3.5 0 0 0 1.5-.2 3.7 3.7 0 0 0 1.6-1.3l3.3-4.5a4.9 4.9 0 0 0 1-3.3l-1-7a2.9 2.9 0 0 1 .2-1.1 3.6 3.6 0 0 1 1.3-1.9l7.4-5.8a1.4 1.4 0 0 1 1.5-.3ZM71.3 143a3.1 3.1 0 0 0-1-3 14.6 14.6 0 0 1-1.5-1.5 2.1 2.1 0 0 0-2.8-.5l-3.8 2.5-2.3 7.2a1.6 1.6 0 0 0 .8 2l8.5 4.2a1.6 1.6 0 0 1-.8-2Z" style="fill:#fff;opacity:.7000000000000001"/><path d="M113.6 76.3a1.4 1.4 0 0 0-1.4.1l-2.9 1.9-.5 1.6a3.1 3.1 0 0 0 1 3 14.8 14.8 0 0 1 1.4 1.5 2.1 2.1 0 0 0 2.8.5l6.7-4.3a1.4 1.4 0 0 1 1.4-.2Zm-9 23.7c-1.3-5.2-5-7.7-9.7-7.2a12.4 12.4 0 0 1 1.2 3c2 8.1-2.7 20-10.8 26.3a17 17 0 0 1-8.6 3.8c3.2 5.5 10.2 5.8 17.1.4 8-6.3 12.9-18.1 10.8-26.3Zm-2.3-35.2a2.3 2.3 0 0 0-.5-.2l-5.3-1a2.8 2.8 0 0 0-2.9 1.4l-4.3 8.8a3.8 3.8 0 0 1-1 1.1 4.3 4.3 0 0 1-.8.6l1.9 4.7a1.9 1.9 0 0 0 2.5 1 24.5 24.5 0 0 1 3.1-1 5.3 5.3 0 0 0 1.8-1 3.5 3.5 0 0 0 1-1.2l4.3-8.7a2.8 2.8 0 0 1 2.9-1.4l5.3 1a1.8 1.8 0 0 1 .5.2Zm-9 84a1.5 1.5 0 0 1-.4-.7l-2.2-5.4a1.9 1.9 0 0 0-2.5-1 24.6 24.6 0 0 1-3.2 1.1 4.3 4.3 0 0 0-1 .4l.3.7a1.4 1.4 0 0 0 .7.8ZM78 69.8a1.3 1.3 0 0 0-.6-.2 1.6 1.6 0 0 0-1 .4l-7.3 5.8a1.8 1.8 0 0 0-.3.3 1 1 0 0 0-.2.2 4.3 4.3 0 0 0-.6 1.2v.2a2.9 2.9 0 0 0-.2 1.2l1 6.9a5 5 0 0 1-1 3.3l-3.4 4.5a3.6 3.6 0 0 1-1.6 1.3 2.7 2.7 0 0 1-.7.2 1.6 1.6 0 0 1-.3 0 2.3 2.3 0 0 1-.4 0h-5.2a1.8 1.8 0 0 0-.4 0 1.5 1.5 0 0 0-.3 0 2.6 2.6 0 0 0-.4.2 3 3 0 0 0-.7.4 2.7 2.7 0 0 0-.8 1l-4 10a1.9 1.9 0 0 0 1 2.2l5.8 3a2.2 2.2 0 0 1 .2 1.2 40.3 40.3 0 0 0-.6 4.7 5.3 5.3 0 0 1-1.4 3.2v.1l-6.5 6a1.4 1.4 0 0 0-.3.4 1.4 1.4 0 0 0-.3.4 3.4 3.4 0 0 0-.3 2.4l1.7 7a1.4 1.4 0 0 0 .7 1l8.5 4.1a1.4 1.4 0 0 1-.6-.9l-1.8-7a3 3 0 0 1 0-1.3 3.4 3.4 0 0 1 1-1.9l6.4-6a5.5 5.5 0 0 0 1.6-3.2 36.5 36.5 0 0 1 .5-4.7 2.4 2.4 0 0 0-1.6-2.6l-4.1-1.5A1.9 1.9 0 0 1 58 111l4-9.9a2.4 2.4 0 0 1 .7-1 3.1 3.1 0 0 1 2-.7h5a3.5 3.5 0 0 0 1.5-.2 3.7 3.7 0 0 0 1.6-1.3l3.3-4.5a4.9 4.9 0 0 0 1-3.3l-1-7a2.9 2.9 0 0 1 .2-1.1 3.6 3.6 0 0 1 1.3-1.9l7.4-5.8a1.4 1.4 0 0 1 1.5-.3ZM71.3 143a3.1 3.1 0 0 0-1-3 14.6 14.6 0 0 1-1.5-1.5 2.1 2.1 0 0 0-2.8-.5l-3.8 2.5-2.3 7.2a1.6 1.6 0 0 0 .8 2l8.5 4.2a1.6 1.6 0 0 1-.8-2Z" style="opacity:.05" fill="#000000"/><path d="m62.9 125.4-6.5 6a3.4 3.4 0 0 0-1 1.8L47 129a4.4 4.4 0 0 1 .3-1 1.4 1.4 0 0 1 .3-.4 1.4 1.4 0 0 1 .3-.4l6.4-6ZM71.3 99.1a3.5 3.5 0 0 1-1.4.3l-5-.1a3.1 3.1 0 0 0-2 .7l-8.5-4.2a3 3 0 0 1 .7-.4 2.6 2.6 0 0 1 .3-.2 1.5 1.5 0 0 1 .4 0 1.8 1.8 0 0 1 .4 0h5.1a2.3 2.3 0 0 0 .5 0 3 3 0 0 0 .3 0l.7-.2ZM122 80.5a1.4 1.4 0 0 0-1.3.1L114 85a2.1 2.1 0 0 1-2.8-.5 14.8 14.8 0 0 0-1.5-1.5 3.1 3.1 0 0 1-1-3l.5-1.6 2.9-2a1.4 1.4 0 0 1 1.4 0ZM110.8 69a1.8 1.8 0 0 0-.5-.2l-5.3-1a2.8 2.8 0 0 0-2.9 1.4L97.8 78a3.5 3.5 0 0 1-1 1.2L88.3 75a3.8 3.8 0 0 0 1-1.2l4.3-8.8a2.8 2.8 0 0 1 2.9-1.3l5.3 1a2.3 2.3 0 0 1 .5.2ZM86.5 74a1.4 1.4 0 0 0-1.5.2L77.6 80a3.6 3.6 0 0 0-1.2 2l-8.5-4.3v-.3a4.3 4.3 0 0 1 .7-1.1 1 1 0 0 1 .2-.2 1.8 1.8 0 0 1 .2-.3l7.5-5.8a1.6 1.6 0 0 1 .9-.4 1.3 1.3 0 0 1 .6.2Z" style="fill:#fa5951"/><path d="m62.9 125.4-6.5 6a3.4 3.4 0 0 0-1 1.8L47 129a4.4 4.4 0 0 1 .3-1 1.4 1.4 0 0 1 .3-.4 1.4 1.4 0 0 1 .3-.4l6.4-6ZM71.3 99.1a3.5 3.5 0 0 1-1.4.3l-5-.1a3.1 3.1 0 0 0-2 .7l-8.5-4.2a3 3 0 0 1 .7-.4 2.6 2.6 0 0 1 .3-.2 1.5 1.5 0 0 1 .4 0 1.8 1.8 0 0 1 .4 0h5.1a2.3 2.3 0 0 0 .5 0 3 3 0 0 0 .3 0l.7-.2ZM122 80.5a1.4 1.4 0 0 0-1.3.1L114 85a2.1 2.1 0 0 1-2.8-.5 14.8 14.8 0 0 0-1.5-1.5 3.1 3.1 0 0 1-1-3l.5-1.6 2.9-2a1.4 1.4 0 0 1 1.4 0ZM110.8 69a1.8 1.8 0 0 0-.5-.2l-5.3-1a2.8 2.8 0 0 0-2.9 1.4L97.8 78a3.5 3.5 0 0 1-1 1.2L88.3 75a3.8 3.8 0 0 0 1-1.2l4.3-8.8a2.8 2.8 0 0 1 2.9-1.3l5.3 1a2.3 2.3 0 0 1 .5.2ZM86.5 74a1.4 1.4 0 0 0-1.5.2L77.6 80a3.6 3.6 0 0 0-1.2 2l-8.5-4.3v-.3a4.3 4.3 0 0 1 .7-1.1 1 1 0 0 1 .2-.2 1.8 1.8 0 0 1 .2-.3l7.5-5.8a1.6 1.6 0 0 1 .9-.4 1.3 1.3 0 0 1 .6.2Z" style="fill:#fff;opacity:.9"/><path d="m124.6 88.4-1.8-7a1.3 1.3 0 0 0-2.1-.8L114 85a2.1 2.1 0 0 1-2.8-.5 15.9 15.9 0 0 0-1.5-1.5 3.1 3.1 0 0 1-1-3l3-9a1.7 1.7 0 0 0-1.5-2l-5.3-1a2.8 2.8 0 0 0-2.9 1.2L97.8 78a4.8 4.8 0 0 1-2.8 2 25.6 25.6 0 0 0-3.1 1 1.9 1.9 0 0 1-2.6-1l-2-5.3a1.4 1.4 0 0 0-2.3-.6L77.6 80a3.8 3.8 0 0 0-1.3 3.1l1 6.9a5 5 0 0 1-1 3.4q-1.8 2.1-3.4 4.5a4 4 0 0 1-3 1.5h-5A3 3 0 0 0 62 101L58 111a1.9 1.9 0 0 0 1.2 2.4l4.2 1.6a2.4 2.4 0 0 1 1.6 2.5 42.7 42.7 0 0 0-.6 4.7 5.3 5.3 0 0 1-1.4 3.2l-6.5 6a3.6 3.6 0 0 0-1 3.2l1.8 7a1.3 1.3 0 0 0 2.1.8l6.6-4.4a2.1 2.1 0 0 1 2.8.5 14.6 14.6 0 0 0 1.5 1.5 3 3 0 0 1 1 3l-3 9a1.7 1.7 0 0 0 1.5 2.1l5.3 1a2.8 2.8 0 0 0 2.8-1.3l4.3-8.8a4.8 4.8 0 0 1 2.8-2 25.7 25.7 0 0 0 3.1-1.1 1.9 1.9 0 0 1 2.6 1l2.1 5.3a1.4 1.4 0 0 0 2.2.6l7.4-5.8a3.8 3.8 0 0 0 1.3-3.1l-1-6.9a5 5 0 0 1 1-3.3q1.9-2.2 3.4-4.6a4 4 0 0 1 3-1.5l5 .1a3 3 0 0 0 2.8-1.7l4-9.9a1.9 1.9 0 0 0-1.2-2.4l-4-1.6a2.4 2.4 0 0 1-1.6-2.6 40.4 40.4 0 0 0 .6-4.7 5.4 5.4 0 0 1 1.4-3.2l6.5-6a3.6 3.6 0 0 0 1-3.1Zm-30.8 37.9c-8 6.3-16.2 4.8-18.3-3.4s2.7-20 10.7-26.3 16.3-4.8 18.4 3.4-2.8 20-10.8 26.3Z" style="fill:#fa5951"/><path d="m124.6 88.4-1.8-7a1.3 1.3 0 0 0-2.1-.8L114 85a2.1 2.1 0 0 1-2.8-.5 15.9 15.9 0 0 0-1.5-1.5 3.1 3.1 0 0 1-1-3l3-9a1.7 1.7 0 0 0-1.5-2l-5.3-1a2.8 2.8 0 0 0-2.9 1.2L97.8 78a4.8 4.8 0 0 1-2.8 2 25.6 25.6 0 0 0-3.1 1 1.9 1.9 0 0 1-2.6-1l-2-5.3a1.4 1.4 0 0 0-2.3-.6L77.6 80a3.8 3.8 0 0 0-1.3 3.1l1 6.9a5 5 0 0 1-1 3.4q-1.8 2.1-3.4 4.5a4 4 0 0 1-3 1.5h-5A3 3 0 0 0 62 101L58 111a1.9 1.9 0 0 0 1.2 2.4l4.2 1.6a2.4 2.4 0 0 1 1.6 2.5 42.7 42.7 0 0 0-.6 4.7 5.3 5.3 0 0 1-1.4 3.2l-6.5 6a3.6 3.6 0 0 0-1 3.2l1.8 7a1.3 1.3 0 0 0 2.1.8l6.6-4.4a2.1 2.1 0 0 1 2.8.5 14.6 14.6 0 0 0 1.5 1.5 3 3 0 0 1 1 3l-3 9a1.7 1.7 0 0 0 1.5 2.1l5.3 1a2.8 2.8 0 0 0 2.8-1.3l4.3-8.8a4.8 4.8 0 0 1 2.8-2 25.7 25.7 0 0 0 3.1-1.1 1.9 1.9 0 0 1 2.6 1l2.1 5.3a1.4 1.4 0 0 0 2.2.6l7.4-5.8a3.8 3.8 0 0 0 1.3-3.1l-1-6.9a5 5 0 0 1 1-3.3q1.9-2.2 3.4-4.6a4 4 0 0 1 3-1.5l5 .1a3 3 0 0 0 2.8-1.7l4-9.9a1.9 1.9 0 0 0-1.2-2.4l-4-1.6a2.4 2.4 0 0 1-1.6-2.6 40.4 40.4 0 0 0 .6-4.7 5.4 5.4 0 0 1 1.4-3.2l6.5-6a3.6 3.6 0 0 0 1-3.1Zm-30.8 37.9c-8 6.3-16.2 4.8-18.3-3.4s2.7-20 10.7-26.3 16.3-4.8 18.4 3.4-2.8 20-10.8 26.3Z" style="fill:#fff;opacity:.75"/><path d="M234.2 29.7 97.6 108.6a12 12 0 0 0-6.3 11.6l43.5 303.2c.6 4.6 4.7 9.8 9.1 11.7s11.5 1.3 15.8-1.2l136.1-78.5a14 14 0 0 0 6.6-13l-43.3-302c-.6-4.7-4.7-10-9.1-11.8s-11.5-1.4-15.8 1.1Z" style="fill:#37474f"/><path d="M157.8 434.9c-4.3 1.6-10 1.8-13.9.2a16.8 16.8 0 0 1-9.1-11.7L91.3 120.2a10.8 10.8 0 0 1 1.3-6.3L107 120a11.9 11.9 0 0 0-2.7 8.6l43 300.2c.8 5.5 5.3 8 10.4 6Z" style="fill:#263238"/><path d="M110.3 117.2a12.3 12.3 0 0 0-5.9 11.4l43 300.1c1 6.3 6.4 8.6 12.3 5.3l136.1-78.6a14 14 0 0 0 6.6-13l-43.3-302c-.6-4.7-4.7-6.4-9-4Z" style="fill:#455a64"/><path d="M120.5 134.8c-4.2 2.3-7 7.8-6.4 12.2l37.3 259.7c.6 4.4 4.4 6 8.6 3.6l128-73.9c4-2.3 6.9-7.9 6.3-12.2L257 64.5c-.6-4.4-4.5-6-8.6-3.6Z" style="fill:#37474f"/><path d="m172 91.8 22.8-13.1c1.3-.8 2.6-.3 2.8 1a4.3 4.3 0 0 1-2.1 3.9l-22.7 13.1c-1.4.8-2.6.3-2.8-1a4.2 4.2 0 0 1 2-4ZM211 69.3c1.3-.7 2.5-.2 2.6 1.1a4.1 4.1 0 0 1-2 3.8c-1.2.7-2.4.2-2.6-1.1a4.1 4.1 0 0 1 2-3.8ZM220.2 64c1.3-.7 2.5-.2 2.7 1.1a4.1 4.1 0 0 1-2 3.8c-1.3.7-2.5.2-2.7-1.1a4 4 0 0 1 2-3.8ZM146.6 106.5c1.3-.8 2.5-.3 2.7 1a4 4 0 0 1-2 3.9c-1.3.7-2.4.2-2.6-1.2a4.1 4.1 0 0 1 2-3.7ZM155.8 101.2c1.3-.8 2.5-.3 2.7 1a4.1 4.1 0 0 1-2 3.9c-1.2.7-2.4.2-2.6-1.2a4 4 0 0 1 2-3.8Z" fill="#000000"/><path d="M283.3 318.8 246.5 62l-126 72.8c-4.1 2.4-7 7.9-6.3 12.2L151 404 277 331c4.1-2.4 7-7.9 6.3-12.3Z" style="fill:#fa5951"/><g style="opacity:.6000000000000001"><path d="M154.4 151.5a.5.5 0 0 0 .2-.5l-4.7-33.2-1.1.6 4.6 32.4-8.8 5a.4.4 0 0 0-.2.5l2 14.5a.6.6 0 0 0 .4.4l10.1 4.3 3.3 22.5a2.9 2.9 0 0 0-.9 2.2 1.1 1.1 0 0 0 2 .8 2.9 2.9 0 0 0 1.3-2.6 1 1 0 0 0-1.3-1L158 175a.6.6 0 0 0-.4-.4l-10-4.3-2-14ZM130.7 129l6.7 47a.6.6 0 0 0 .3.4l10.2 4.3 1.8 12.9a2.8 2.8 0 0 0-.8 2.2c.1 1 1 1.3 1.9.8a3 3 0 0 0 1.3-2.7 1 1 0 0 0-1.3-1l-1.8-12.5a.6.6 0 0 0-.4-.4l-10.1-4.3-6.8-47.4ZM169.7 393l-7.6-52.8a.6.6 0 0 0-.3-.4l-10.2-4.3L131.8 197a2.8 2.8 0 0 0 .8-2.2c0-1-1-1.4-1.8-.8a2.9 2.9 0 0 0-1.4 2.6 1 1 0 0 0 1.3 1l19.8 138.2a.6.6 0 0 0 .3.5l10.2 4.3 7.6 53.1ZM121.6 134.1l6.7 47.1a.6.6 0 0 0 .4.5l10.1 4.3 3.2 22.4a2.9 2.9 0 0 0-.9 2.3c.2 1 1 1.3 2 .8a3 3 0 0 0 1.3-2.7 1 1 0 0 0-1.3-1l-3.1-22.2a.6.6 0 0 0-.4-.4l-10.1-4.3-6.8-47.4ZM246.7 348.6l-2.7-19a.6.6 0 0 0-.4-.4l-10.1-4.3L231 307a2.9 2.9 0 0 0 .8-2.2 1.1 1.1 0 0 0-1.8-.8 2.9 2.9 0 0 0-1.4 2.7 1 1 0 0 0 1.3 1l2.5 17.4a.6.6 0 0 0 .3.4L243 330l2.7 19.3ZM160.6 398.3l-3.9-27.4a2.9 2.9 0 0 0 .9-2.2c-.2-1-1-1.3-2-.8a2.9 2.9 0 0 0-1.3 2.7 1 1 0 0 0 1.3 1l4 27.3Z" style="fill:#fff"/><path d="m267.7 257.7-10.4-4.4a.7.7 0 0 0-.6 0l-3.7 2.1-4.7-32.8 7.6-14.7a.5.5 0 0 0 0-.3l-3.4-24.1a.6.6 0 0 0-.4-.5l-10.4-4.4a.7.7 0 0 0-.6 0l-3.7 2.1-4-28a.6.6 0 0 0-.4-.4l-10.1-4.3-2-14 13-7.5 9.8 4.2 5.5 38.8a2.9 2.9 0 0 0-.8 2.2c.1 1 1 1.3 1.9.8a2.9 2.9 0 0 0 1.3-2.6 1 1 0 0 0-1.3-1l-5.5-38.6a.6.6 0 0 0-.3-.4l-10.5-4.4a.7.7 0 0 0-.6 0l-12.7 7.4-7.4-51.7-1.1.6 7.4 51.7-4 2.3-10-4.2-6.1-42.5-1.1.7 6 42.2a.6.6 0 0 0 .3.4l10.7 4.4a.7.7 0 0 0 .6 0l3.7-2 2 13.6a.6.6 0 0 0 .3.4l10.2 4.2 4 28.3-30.5 17.7-6.8-47.4a.6.6 0 0 0-.4-.5l-15.3-6.5-6.1-42.5-1.1.6 6 42.3a.6.6 0 0 0 .4.4l15.3 6.6 6.9 47.7-22.1 12.8-9.8-4.2-13.7-95.7-1.1.6 13.6 95.4a.6.6 0 0 0 .4.5l10.4 4.4a.7.7 0 0 0 .6 0l21.8-12.6 2.5 17.1a2.9 2.9 0 0 0-.8 2.3c0 1 1 1.3 1.8.8a2.9 2.9 0 0 0 1.4-2.7 1 1 0 0 0-1.3-1l-2.4-17.1 30.6-17.7 4 27.7a2.9 2.9 0 0 0-.9 2.3 1.1 1.1 0 0 0 1.9.8 2.9 2.9 0 0 0 1.4-2.7 1 1 0 0 0-1.3-1l-4-27.7 4-2.3 9.8 4.1 3.4 23.8-7.6 14.7a.5.5 0 0 0 0 .3l4.8 33.5-12.5 7.2-8.7-60.6a2.8 2.8 0 0 0 .9-2.2c-.2-1-1-1.3-2-.8a3 3 0 0 0-1.3 2.7 1 1 0 0 0 1.3 1l8.7 60.5-12.5 7.3-5.9-41.3a2.8 2.8 0 0 0 .8-2.3 1.1 1.1 0 0 0-1.8-.8 2.9 2.9 0 0 0-1.4 2.7 1 1 0 0 0 1.3 1l5.9 41.3-21.5 12.4-1.3-8.5 8.8-5a.4.4 0 0 0 .3-.5l-3.3-22.8a2.8 2.8 0 0 0 .8-2.3c-.1-1-1-1.3-1.8-.8a2.9 2.9 0 0 0-1.4 2.7 1 1 0 0 0 1.3 1l3.1 22-8.9 5a.5.5 0 0 0-.2.5l1.3 9.3-8 4.6-9.3-65.4a2.9 2.9 0 0 0 .9-2.3c-.2-1-1-1.3-2-.7a3 3 0 0 0-1.3 2.6 1 1 0 0 0 1.3 1l9.4 65.5-4 2.3-9.8-4.2-4.1-28.7a.6.6 0 0 0-.4-.4l-10-4.3-1-6.6a2.8 2.8 0 0 0 .8-2.2 1.1 1.1 0 0 0-1.9-.8 2.9 2.9 0 0 0-1.4 2.7 1 1 0 0 0 1.4 1l.8 6.2a.6.6 0 0 0 .4.5l10.1 4.3 4.1 28.6a.6.6 0 0 0 .4.5l10.4 4.4a.7.7 0 0 0 .6 0l3.7-2.1 3.4 23.2a.6.6 0 0 0 .3.5l10.2 4.3 6.9 48.3 1-.7-6.8-48a.6.6 0 0 0-.3-.4l-10.2-4.3-3.3-23.6 7.9-4.6 2 13.6a.6.6 0 0 0 .3.4l10.1 4.3 8.3 58 1.1-.6-8.2-57.7a.6.6 0 0 0-.4-.4l-10.1-4.3-2-14 21.5-12.3 3.4 23.3a.6.6 0 0 0 .3.4l20.6 8.7 5.5 38.6 1.1-.7-5.4-38.3a.6.6 0 0 0-.4-.4l-20.6-8.8-3.3-23.5 12.5-7.2 3.3 23.3a.6.6 0 0 0 .4.4l15.3 6.5 6.2 43.5 1.2-.7-6.3-43.1a.6.6 0 0 0-.3-.4l-15.4-6.6-3.4-23.6 12.5-7.2 3.2 22a2.9 2.9 0 0 0-.9 2.2c.2 1 1 1.3 1.9.8a2.9 2.9 0 0 0 1.4-2.7 1 1 0 0 0-1.3-1l-3.2-21.9 4-2.3 9.8 4.2 10.4 72.4 1.1-.6-10.3-72.2a.6.6 0 0 0-.4-.4ZM178.7 387.8l-7.5-52.8a.6.6 0 0 0-.4-.4l-10.1-4.3-6.8-47.2a2.9 2.9 0 0 0 .9-2.2 1.1 1.1 0 0 0-1.9-.8 3 3 0 0 0-1.4 2.6 1 1 0 0 0 1.3 1l6.7 47a.5.5 0 0 0 .4.3l10.1 4.3 7.6 53.2Z" style="fill:#fff"/><path d="m233.1 356.4-1.8-12.8a2.8 2.8 0 0 0 .8-2.3c-.1-1-1-1.3-1.9-.8a3 3 0 0 0-1.4 2.7 1 1 0 0 0 1.3 1l1.9 12.9ZM221.3 76.6l3.2 23a.6.6 0 0 0 .4.4l10.1 4.3 1.9 12.9a2.8 2.8 0 0 0-.9 2.2c.2 1 1 1.4 2 .8a3 3 0 0 0 1.3-2.6 1 1 0 0 0-1.3-1l-1.8-12.6a.6.6 0 0 0-.4-.5l-10.1-4.3-3.3-23.2ZM239.4 66.1l2.4 16.8a2.8 2.8 0 0 0-.9 2.3c.2 1 1 1.3 2 .8a2.9 2.9 0 0 0 1.3-2.7 1 1 0 0 0-1.3-1l-2.4-16.8ZM230.3 71.4l3.3 23a.6.6 0 0 0 .4.4l10 4.3 2.6 17.7a2.8 2.8 0 0 0-.8 2.2 1.1 1.1 0 0 0 1.9.8 3 3 0 0 0 1.3-2.6 1 1 0 0 0-1.3-1l-2.5-17.5a.6.6 0 0 0-.3-.4L234.8 94l-3.4-23.3ZM273 246.3l-7-3-3.3-22.5a2.9 2.9 0 0 0 .8-2.3c0-1-1-1.3-1.8-.8a2.9 2.9 0 0 0-1.4 2.7 1 1 0 0 0 1.3 1l3.2 22.2a.6.6 0 0 0 .3.5l8 3.4ZM201.4 374.8l-6.2-43.2a.6.6 0 0 0-.4-.5l-20.5-8.7-7.6-52.8a.6.6 0 0 0-.4-.5l-15.3-6.5-5.3-37a2.8 2.8 0 0 0 .8-2.2 1.1 1.1 0 0 0-1.8-.8 2.9 2.9 0 0 0-1.4 2.7 1 1 0 0 0 1.3 1l5.3 36.7a.6.6 0 0 0 .3.4l15.4 6.6 7.5 52.8a.6.6 0 0 0 .4.4L194 332l6.2 43.4ZM192.3 380l-2-14.2a.5.5 0 0 0-.3-.4l-5-2.1-2.5-17.7a2.9 2.9 0 0 0 .9-2.3c-.2-1-1-1.3-1.9-.7a2.9 2.9 0 0 0-1.4 2.6 1 1 0 0 0 1.3 1l2.5 17.4a.6.6 0 0 0 .4.5l4.9 2 2 14.5ZM184.2 154.2l-10.1-4.3-6.1-42.6-1.1.7 6 42.3a.6.6 0 0 0 .3.4l10.2 4.3 3.9 27.4a2.8 2.8 0 0 0-.9 2.2 1.1 1.1 0 0 0 2 .8 2.9 2.9 0 0 0 1.3-2.7 1 1 0 0 0-1.3-1l-3.9-27a.6.6 0 0 0-.3-.5ZM212.8 148.2l-20.6-8.7-6-42.6-1.2.6 6 42.3a.6.6 0 0 0 .4.4L212 149l2.5 17.7a2.9 2.9 0 0 0-.8 2.2 1.1 1.1 0 0 0 1.9.8 3 3 0 0 0 1.4-2.7 1 1 0 0 0-1.3-1l-2.5-17.4a.6.6 0 0 0-.4-.4Z" style="fill:#fff"/></g><path d="M229.8 332.2a4.7 4.7 0 0 1-2.4-.7c-2.6-1.5-4.2-5.6-4.2-11 0-8.6 4.1-18 9.2-21a5.3 5.3 0 0 1 5.5-.2c2.7 1.5 4.2 5.6 4.2 11 0 8.6-4 18-9.2 21a6.2 6.2 0 0 1-3 .9Zm3.1-31.7c-4.7 2.7-8.6 11.7-8.6 20 0 5 1.4 8.7 3.7 10a4.3 4.3 0 0 0 4.4-.2c4.8-2.8 8.6-11.8 8.6-20.1 0-5-1.3-8.7-3.7-10a4.2 4.2 0 0 0-4.4.3ZM220.7 310.9h-.2a.6.6 0 0 1-.4-.7 44.3 44.3 0 0 1 3.4-8.7.6.6 0 1 1 1 .5 43.3 43.3 0 0 0-3.3 8.5.6.6 0 0 1-.5.4ZM219 323a.6.6 0 0 1-.6-.6 43.8 43.8 0 0 1 .5-6.1.6.6 0 1 1 1 .1 43.3 43.3 0 0 0-.4 6 .6.6 0 0 1-.5.6ZM227.8 339.7c-4.2-.5-7.8-4.6-9-10.2a.6.6 0 1 1 1.1-.2c1.3 6 4.9 9 8 9.3a.6.6 0 0 1-.1 1ZM233.4 338a.6.6 0 0 1-.3-1 18.2 18.2 0 0 0 4.1-4 .6.6 0 0 1 1 .7 19.8 19.8 0 0 1-4.4 4.2.5.5 0 0 1-.4.1Z" style="fill:#fa5951"/><path d="M241 328.5a.5.5 0 0 1-.3 0 .6.6 0 0 1-.2-.8 46 46 0 0 0 4.7-19.9c0-7.3-2-12.9-5.5-14.9-2-1.1-4.3-1-6.7.4a.6.6 0 0 1-.8-.2.6.6 0 0 1 .2-.7c2.8-1.6 5.5-1.8 7.8-.4 3.8 2.2 6.1 8.1 6.1 15.8a47 47 0 0 1-4.8 20.4.6.6 0 0 1-.5.3ZM170.5 271.7a2.7 2.7 0 0 1-1.4-.4c-1.5-.9-2.4-3.2-2.4-6.2 0-4.9 2.2-10 5-11.6a3.1 3.1 0 0 1 3.3-.2c1.5.9 2.4 3.2 2.4 6.2 0 4.9-2.2 10-5.1 11.7a3.6 3.6 0 0 1-1.8.5Zm3-17.8a2.6 2.6 0 0 0-1.2.4c-2.6 1.5-4.6 6.3-4.6 10.8 0 2.6.7 4.6 1.9 5.3a2.1 2.1 0 0 0 2.2-.1c2.5-1.5 4.6-6.3 4.6-10.8 0-2.6-.7-4.6-1.9-5.3a1.7 1.7 0 0 0-1-.3Zm-1.5 0ZM165.5 260h-.1a.5.5 0 0 1-.4-.6 24.8 24.8 0 0 1 1.9-4.8.5.5 0 1 1 .9.5 22.9 22.9 0 0 0-1.8 4.6.5.5 0 0 1-.5.3ZM164.6 266.7a.5.5 0 0 1-.5-.5 25 25 0 0 1 .2-3.4.5.5 0 0 1 .6-.5.5.5 0 0 1 .4.6 23 23 0 0 0-.3 3.3.5.5 0 0 1-.4.5ZM169.4 275.8c-2.4-.3-4.5-2.6-5-5.7a.5.5 0 0 1 1-.3c.5 3.2 2.4 4.8 4 5a.5.5 0 0 1 0 1ZM172.5 274.8a.5.5 0 0 1-.4-.2.5.5 0 0 1 0-.7 9.7 9.7 0 0 0 2.3-2.1.5.5 0 1 1 .8.6 10.8 10.8 0 0 1-2.5 2.4.5.5 0 0 1-.2 0Z" style="fill:#fa5951"/><path d="M176.6 269.7a.4.4 0 0 1-.2 0 .5.5 0 0 1-.3-.7 24.9 24.9 0 0 0 2.6-10.8c0-4-1.1-7-3-8a3.4 3.4 0 0 0-3.4.2.5.5 0 0 1-.5-.9 4.3 4.3 0 0 1 4.5-.2c2.1 1.2 3.4 4.6 3.4 8.8a26 26 0 0 1-2.7 11.3.5.5 0 0 1-.4.3ZM210.2 246.8a2.8 2.8 0 0 1-1.4-.3c-1.6-1-2.5-3.2-2.5-6.2 0-4.9 2.3-10 5.2-11.7a3.1 3.1 0 0 1 3.2-.1c1.5.9 2.4 3.2 2.4 6.2 0 4.8-2.3 10-5.1 11.6a3.6 3.6 0 0 1-1.8.5Zm3-17.7a2.7 2.7 0 0 0-1.2.4c-2.6 1.5-4.7 6.3-4.7 10.8 0 2.6.8 4.6 2 5.3a2 2 0 0 0 2.2-.1c2.5-1.5 4.6-6.4 4.6-10.8 0-2.6-.7-4.7-2-5.3a1.9 1.9 0 0 0-.8-.3Zm-1.5 0ZM205.2 235.2a.3.3 0 0 1-.2 0 .5.5 0 0 1-.3-.6 24.9 24.9 0 0 1 1.9-4.8.5.5 0 0 1 .8.5 23.2 23.2 0 0 0-1.7 4.6.5.5 0 0 1-.5.3ZM204.2 241.8a.5.5 0 0 1-.5-.5 25.1 25.1 0 0 1 .3-3.4.5.5 0 0 1 .6-.4.5.5 0 0 1 .4.6 22.8 22.8 0 0 0-.3 3.2.5.5 0 0 1-.5.5ZM209 251c-2.4-.3-4.4-2.6-5-5.8a.5.5 0 0 1 .4-.6.5.5 0 0 1 .6.4c.6 3.2 2.5 4.8 4.1 5a.5.5 0 0 1 0 1ZM212.2 250a.5.5 0 0 1-.3-1 10.3 10.3 0 0 0 2.2-2 .5.5 0 0 1 .8.5 11 11 0 0 1-2.5 2.4.5.5 0 0 1-.2.1Z" style="fill:#fa5951"/><path d="M216.3 244.8a.5.5 0 0 1-.3 0 .5.5 0 0 1-.2-.6 24.9 24.9 0 0 0 2.6-10.8c0-4-1.1-6.9-3-8a3.4 3.4 0 0 0-3.4.2.5.5 0 0 1-.7-.2.5.5 0 0 1 .2-.6 4.3 4.3 0 0 1 4.5-.3c2 1.3 3.4 4.6 3.4 8.9a26 26 0 0 1-2.7 11.2.5.5 0 0 1-.4.3ZM203.7 164.2a2.8 2.8 0 0 1-1.4-.4c-1.5-.9-2.5-3.2-2.5-6.2 0-4.8 2.3-10 5.2-11.6a3.1 3.1 0 0 1 3.2-.2c1.5 1 2.4 3.2 2.4 6.2 0 4.9-2.2 10-5.1 11.7a3.6 3.6 0 0 1-1.8.5Zm3-17.7a2.6 2.6 0 0 0-1.2.3c-2.6 1.5-4.7 6.4-4.7 10.8 0 2.6.8 4.7 2 5.3a2.1 2.1 0 0 0 2.2-.1c2.5-1.5 4.6-6.3 4.6-10.8 0-2.6-.7-4.6-1.9-5.3a1.8 1.8 0 0 0-1-.3Zm-1.5 0ZM198.7 152.6h-.1a.5.5 0 0 1-.4-.6 24.6 24.6 0 0 1 1.9-4.8.5.5 0 0 1 .8.4 24.1 24.1 0 0 0-1.7 4.6.5.5 0 0 1-.5.4ZM197.8 159.2a.5.5 0 0 1-.6-.5 23.5 23.5 0 0 1 .3-3.4.5.5 0 0 1 1 .1 23 23 0 0 0-.2 3.3.5.5 0 0 1-.6.5ZM202.6 168.3c-2.4-.3-4.5-2.6-5-5.7a.5.5 0 0 1 .3-.6.5.5 0 0 1 .6.4c.6 3.1 2.5 4.7 4.1 4.9a.5.5 0 0 1 .5.5.5.5 0 0 1-.5.5ZM205.7 167.4a.5.5 0 0 1-.4-.3.5.5 0 0 1 0-.7 9.4 9.4 0 0 0 2.3-2.1.5.5 0 1 1 .8.6 10.7 10.7 0 0 1-2.5 2.4.5.5 0 0 1-.2 0Z" style="fill:#fa5951"/><path d="M209.8 162.2a.5.5 0 0 1-.3 0 .5.5 0 0 1-.2-.7 25 25 0 0 0 2.6-10.8c0-4-1.1-7-3-8a3.4 3.4 0 0 0-3.4.2.5.5 0 0 1-.5-.9 4.3 4.3 0 0 1 4.5-.2c2 1.3 3.4 4.6 3.4 8.9a25.9 25.9 0 0 1-2.7 11.2.5.5 0 0 1-.4.3Z" style="fill:#fa5951"/><g style="opacity:.8"><path d="M229.8 332.2a4.7 4.7 0 0 1-2.4-.7c-2.6-1.5-4.2-5.6-4.2-11 0-8.6 4.1-18 9.2-21a5.3 5.3 0 0 1 5.5-.2c2.7 1.5 4.2 5.6 4.2 11 0 8.6-4 18-9.2 21a6.2 6.2 0 0 1-3 .9Zm3.1-31.7c-4.7 2.7-8.6 11.7-8.6 20 0 5 1.4 8.7 3.7 10a4.3 4.3 0 0 0 4.4-.2c4.8-2.8 8.6-11.8 8.6-20.1 0-5-1.3-8.7-3.7-10a4.2 4.2 0 0 0-4.4.3ZM220.7 310.9h-.2a.6.6 0 0 1-.4-.7 44.3 44.3 0 0 1 3.4-8.7.6.6 0 1 1 1 .5 43.3 43.3 0 0 0-3.3 8.5.6.6 0 0 1-.5.4ZM219 323a.6.6 0 0 1-.6-.6 43.8 43.8 0 0 1 .5-6.1.6.6 0 1 1 1 .1 43.3 43.3 0 0 0-.4 6 .6.6 0 0 1-.5.6ZM227.8 339.7c-4.2-.5-7.8-4.6-9-10.2a.6.6 0 1 1 1.1-.2c1.3 6 4.9 9 8 9.3a.6.6 0 0 1-.1 1ZM233.4 338a.6.6 0 0 1-.3-1 18.2 18.2 0 0 0 4.1-4 .6.6 0 0 1 1 .7 19.8 19.8 0 0 1-4.4 4.2.5.5 0 0 1-.4.1Z" style="fill:#fff"/><path d="M241 328.5a.5.5 0 0 1-.3 0 .6.6 0 0 1-.2-.8 46 46 0 0 0 4.7-19.9c0-7.3-2-12.9-5.5-14.9-2-1.1-4.3-1-6.7.4a.6.6 0 0 1-.8-.2.6.6 0 0 1 .2-.7c2.8-1.6 5.5-1.8 7.8-.4 3.8 2.2 6.1 8.1 6.1 15.8a47 47 0 0 1-4.8 20.4.6.6 0 0 1-.5.3ZM170.5 271.7a2.7 2.7 0 0 1-1.4-.4c-1.5-.9-2.4-3.2-2.4-6.2 0-4.9 2.2-10 5-11.6a3.1 3.1 0 0 1 3.3-.2c1.5.9 2.4 3.2 2.4 6.2 0 4.9-2.2 10-5.1 11.7a3.6 3.6 0 0 1-1.8.5Zm3-17.8a2.6 2.6 0 0 0-1.2.4c-2.6 1.5-4.6 6.3-4.6 10.8 0 2.6.7 4.6 1.9 5.3a2.1 2.1 0 0 0 2.2-.1c2.5-1.5 4.6-6.3 4.6-10.8 0-2.6-.7-4.6-1.9-5.3a1.7 1.7 0 0 0-1-.3Zm-1.5 0ZM165.5 260h-.1a.5.5 0 0 1-.4-.6 24.8 24.8 0 0 1 1.9-4.8.5.5 0 1 1 .9.5 22.9 22.9 0 0 0-1.8 4.6.5.5 0 0 1-.5.3ZM164.6 266.7a.5.5 0 0 1-.5-.5 25 25 0 0 1 .2-3.4.5.5 0 0 1 .6-.5.5.5 0 0 1 .4.6 23 23 0 0 0-.3 3.3.5.5 0 0 1-.4.5ZM169.4 275.8c-2.4-.3-4.5-2.6-5-5.7a.5.5 0 0 1 1-.3c.5 3.2 2.4 4.8 4 5a.5.5 0 0 1 0 1ZM172.5 274.8a.5.5 0 0 1-.4-.2.5.5 0 0 1 0-.7 9.7 9.7 0 0 0 2.3-2.1.5.5 0 1 1 .8.6 10.8 10.8 0 0 1-2.5 2.4.5.5 0 0 1-.2 0Z" style="fill:#fff"/><path d="M176.6 269.7a.4.4 0 0 1-.2 0 .5.5 0 0 1-.3-.7 24.9 24.9 0 0 0 2.6-10.8c0-4-1.1-7-3-8a3.4 3.4 0 0 0-3.4.2.5.5 0 0 1-.5-.9 4.3 4.3 0 0 1 4.5-.2c2.1 1.2 3.4 4.6 3.4 8.8a26 26 0 0 1-2.7 11.3.5.5 0 0 1-.4.3ZM210.2 246.8a2.8 2.8 0 0 1-1.4-.3c-1.6-1-2.5-3.2-2.5-6.2 0-4.9 2.3-10 5.2-11.7a3.1 3.1 0 0 1 3.2-.1c1.5.9 2.4 3.2 2.4 6.2 0 4.8-2.3 10-5.1 11.6a3.6 3.6 0 0 1-1.8.5Zm3-17.7a2.7 2.7 0 0 0-1.2.4c-2.6 1.5-4.7 6.3-4.7 10.8 0 2.6.8 4.6 2 5.3a2 2 0 0 0 2.2-.1c2.5-1.5 4.6-6.4 4.6-10.8 0-2.6-.7-4.7-2-5.3a1.9 1.9 0 0 0-.8-.3Zm-1.5 0ZM205.2 235.2a.3.3 0 0 1-.2 0 .5.5 0 0 1-.3-.6 24.9 24.9 0 0 1 1.9-4.8.5.5 0 0 1 .8.5 23.2 23.2 0 0 0-1.7 4.6.5.5 0 0 1-.5.3ZM204.2 241.8a.5.5 0 0 1-.5-.5 25.1 25.1 0 0 1 .3-3.4.5.5 0 0 1 .6-.4.5.5 0 0 1 .4.6 22.8 22.8 0 0 0-.3 3.2.5.5 0 0 1-.5.5ZM209 251c-2.4-.3-4.4-2.6-5-5.8a.5.5 0 0 1 .4-.6.5.5 0 0 1 .6.4c.6 3.2 2.5 4.8 4.1 5a.5.5 0 0 1 0 1ZM212.2 250a.5.5 0 0 1-.3-1 10.3 10.3 0 0 0 2.2-2 .5.5 0 0 1 .8.5 11 11 0 0 1-2.5 2.4.5.5 0 0 1-.2.1Z" style="fill:#fff"/><path d="M216.3 244.8a.5.5 0 0 1-.3 0 .5.5 0 0 1-.2-.6 24.9 24.9 0 0 0 2.6-10.8c0-4-1.1-6.9-3-8a3.4 3.4 0 0 0-3.4.2.5.5 0 0 1-.7-.2.5.5 0 0 1 .2-.6 4.3 4.3 0 0 1 4.5-.3c2 1.3 3.4 4.6 3.4 8.9a26 26 0 0 1-2.7 11.2.5.5 0 0 1-.4.3ZM203.7 164.2a2.8 2.8 0 0 1-1.4-.4c-1.5-.9-2.5-3.2-2.5-6.2 0-4.8 2.3-10 5.2-11.6a3.1 3.1 0 0 1 3.2-.2c1.5 1 2.4 3.2 2.4 6.2 0 4.9-2.2 10-5.1 11.7a3.6 3.6 0 0 1-1.8.5Zm3-17.7a2.6 2.6 0 0 0-1.2.3c-2.6 1.5-4.7 6.4-4.7 10.8 0 2.6.8 4.7 2 5.3a2.1 2.1 0 0 0 2.2-.1c2.5-1.5 4.6-6.3 4.6-10.8 0-2.6-.7-4.6-1.9-5.3a1.8 1.8 0 0 0-1-.3Zm-1.5 0ZM198.7 152.6h-.1a.5.5 0 0 1-.4-.6 24.6 24.6 0 0 1 1.9-4.8.5.5 0 0 1 .8.4 24.1 24.1 0 0 0-1.7 4.6.5.5 0 0 1-.5.4ZM197.8 159.2a.5.5 0 0 1-.6-.5 23.5 23.5 0 0 1 .3-3.4.5.5 0 0 1 1 .1 23 23 0 0 0-.2 3.3.5.5 0 0 1-.6.5ZM202.6 168.3c-2.4-.3-4.5-2.6-5-5.7a.5.5 0 0 1 .3-.6.5.5 0 0 1 .6.4c.6 3.1 2.5 4.7 4.1 4.9a.5.5 0 0 1 .5.5.5.5 0 0 1-.5.5ZM205.7 167.4a.5.5 0 0 1-.4-.3.5.5 0 0 1 0-.7 9.4 9.4 0 0 0 2.3-2.1.5.5 0 1 1 .8.6 10.7 10.7 0 0 1-2.5 2.4.5.5 0 0 1-.2 0Z" style="fill:#fff"/><path d="M209.8 162.2a.5.5 0 0 1-.3 0 .5.5 0 0 1-.2-.7 25 25 0 0 0 2.6-10.8c0-4-1.1-7-3-8a3.4 3.4 0 0 0-3.4.2.5.5 0 0 1-.5-.9 4.3 4.3 0 0 1 4.5-.2c2 1.3 3.4 4.6 3.4 8.9a25.9 25.9 0 0 1-2.7 11.2.5.5 0 0 1-.4.3Z" style="fill:#fff"/></g><path d="M223.7 241.6c-5 0-9-.3-11.4-1a2.8 2.8 0 0 1-1.9-1.9c-.3-1.3.3-2.8 2-2.3 4 1.8 38.7 4.4 60-16 7.3-7 12.8-15.2 18.1-23 12.2-17.7 23.6-34.5 53.1-33l-.2 4c-27.2-1.3-37.6 13.8-49.6 31.4a144 144 0 0 1-18.7 23.5c-15.2 14.6-37.3 18.3-51.4 18.3Z" style="fill:#fa5951"/><path d="M223.7 241.6c-5 0-9-.3-11.4-1a2.8 2.8 0 0 1-1.9-1.9c-.3-1.3.3-2.8 2-2.3 4 1.8 38.7 4.4 60-16 7.3-7 12.8-15.2 18.1-23 12.2-17.7 23.6-34.5 53.1-33l-.2 4c-27.2-1.3-37.6 13.8-49.6 31.4a144 144 0 0 1-18.7 23.5c-15.2 14.6-37.3 18.3-51.4 18.3Z" style="opacity:.4" fill="#000000"/><path d="M247.3 238.4a78 78 0 0 0 6.2-2l3.2-5.6c-2 1-4 1.7-6.1 2.4Z" style="opacity:.15" fill="#000000"/><path d="M205.8 156.9c-3-.2-2.5-4-1.4-4h1.5c21.1 0 37.1-13.6 54.8-46.6 15.8-29.4 30.4-41.3 52-42.5a2 2 0 1 1 .3 4c-20 1.1-33.7 12.4-48.7 40.4-13.7 25.3-30.2 48.7-58.5 48.7Z" style="fill:#fa5951"/><path d="M205.8 156.9c-3-.2-2.5-4-1.4-4h1.5c21.1 0 37.1-13.6 54.8-46.6 15.8-29.4 30.4-41.3 52-42.5a2 2 0 1 1 .3 4c-20 1.1-33.7 12.4-48.7 40.4-13.7 25.3-30.2 48.7-58.5 48.7Z" style="opacity:.35000000000000003" fill="#000000"/><path d="M191.6 267a76.4 76.4 0 0 1-18.4-2.3 2.3 2.3 0 0 1-1.8-2c-.2-1.7.3-2.5 1.4-2.2 29.7 7.9 58.6-3.2 77.4-29.7 6.7-9.5 12.2-19.2 17-27.7 5.6-9.7 10.9-19 16.9-26 10-11.9 25.5-19.6 37.1-18.4a2 2 0 0 1 1.8 2.2 2 2 0 0 1-2.2 1.8c-10.2-1-24.7 6.2-33.7 16.9-5.7 6.9-10.6 15.5-16.3 25.5a325 325 0 0 1-17.3 28 75.2 75.2 0 0 1-62 33.9Z" style="fill:#fa5951"/><path d="M191.6 267a76.4 76.4 0 0 1-18.4-2.3 2.3 2.3 0 0 1-1.8-2c-.2-1.7.3-2.5 1.4-2.2 29.7 7.9 58.6-3.2 77.4-29.7 6.7-9.5 12.2-19.2 17-27.7 5.6-9.7 10.9-19 16.9-26 10-11.9 25.5-19.6 37.1-18.4a2 2 0 0 1 1.8 2.2 2 2 0 0 1-2.2 1.8c-10.2-1-24.7 6.2-33.7 16.9-5.7 6.9-10.6 15.5-16.3 25.5a325 325 0 0 1-17.3 28 75.2 75.2 0 0 1-62 33.9Z" style="opacity:.35000000000000003" fill="#000000"/><path d="M319 67.1a6.8 6.8 0 1 1-6.8-6.8A6.8 6.8 0 0 1 319 67ZM324.9 159.1a6.8 6.8 0 1 1-6.8-6.8 6.8 6.8 0 0 1 6.8 6.8ZM431.7 185.5c1.2 1.1 3.5 2.4 8.2 3.3s12.6 1.5 17.2 0 6.3-3.7 7.3-6.7.7-4.4 1.9-6.5c1.6-3 .9-4.6-2.3-3.6s-7.7 2.4-10.7 2.6a21.3 21.3 0 0 1-5.6-.4c-.8-.7 4-1.7 5.7-4.2s.5-3.7-.3-3.6-2.8 1.3-5.8 2.1-7.8 2-10.5 3-4.5 2-5.8 7-.6 5.7.7 7Z" style="fill:#fa5951"/><path d="M431.7 185.5c1.2 1.1 3.5 2.4 8.2 3.3s12.6 1.5 17.2 0 6.3-3.7 7.3-6.7.7-4.4 1.9-6.5c1.6-3 .9-4.6-2.3-3.6s-7.7 2.4-10.7 2.6a21.3 21.3 0 0 1-5.6-.4c-.8-.7 4-1.7 5.7-4.2s.5-3.7-.3-3.6-2.8 1.3-5.8 2.1-7.8 2-10.5 3-4.5 2-5.8 7-.6 5.7.7 7Z" style="fill:#fff;opacity:.8"/><path d="M464.4 182.1c1-3 .7-4.4 1.9-6.5a4.5 4.5 0 0 0 .8-3c-.4 2-2.2 2.2-4.5 5.6-2.5 3.8-2.9 5.8-7.5 6.7-3.1.6-8.4.1-15.6-2.1l-8.5-4.2c-1.3 5-.6 5.6.8 6.9 1.1 1.1 3.4 2.4 8.1 3.3s12.6 1.5 17.2 0 6.3-3.7 7.3-6.7Z" style="opacity:.1" fill="#000000"/><path d="M422.6 184s11 2 15.3 1.8c4.6-.3 7-3.8 4.7-6.5s-7.5-4.6-7.5-4.6l-9.6-3Z" style="fill:#37474f"/><path d="M382.4 170.2c-2 4.2 1 8 8 9.3s35.8 5.4 35.8 5.4c1 .1 2.4-1.2 3.3-5.6.8-4.1 0-7-1.4-7.3 0 0-24.8-7.7-27.8-9-6-2.3-15 1.6-18 7.2Z" style="fill:#fa5951"/><path d="M382.4 170.2c-2 4.2 1 8 8 9.3s35.8 5.4 35.8 5.4c1 .1 2.4-1.2 3.3-5.6.8-4.1 0-7-1.4-7.3 0 0-24.8-7.7-27.8-9-6-2.3-15 1.6-18 7.2Z" style="fill:#fff;opacity:.8"/><path d="M428.8 181.8c-8.3-1-22.9-3.3-29.8-5.6-9.9-3.3-10-5.7-9.2-9l.8-3.7a15 15 0 0 0-8.2 6.7c-2 4.2 1 8 8 9.3S426 185 426 185c.9.1 1.9-.7 2.7-3Z" style="opacity:.1" fill="#000000"/><path d="m380.8 166.7 3.4 5.2s3 2 7.5-1c4.2-3 4.2-6.2 4.2-6.2l-3.2-7.7Z" style="fill:#37474f"/><path d="M361.9 113.7c6.9-2.6 10.7 0 14.3 5.9 2.9 4.7 17.7 38.9 17.7 38.9 1.2 4.1-9.3 13-13.8 9.2 0 0-19.9-25-23.4-32.5-4.3-9.3-.8-19.4 5.2-21.5Z" style="fill:#fa5951"/><path d="M361.9 113.7c6.9-2.6 10.7 0 14.3 5.9 2.9 4.7 17.7 38.9 17.7 38.9 1.2 4.1-9.3 13-13.8 9.2 0 0-19.9-25-23.4-32.5-4.3-9.3-.8-19.4 5.2-21.5Z" style="fill:#fff;opacity:.8"/><path d="M387.6 167c-2.7 1.6-5.6 2.2-7.5.7 0 0-19.9-25-23.3-32.5l-.3-.5 2.9-1.6v.4c1.4 5.7 4.9 11 11.5 5.3a7.8 7.8 0 0 0 1.3-1.4c.5 6.7 13 25.3 15.4 29.7Z" style="opacity:.1" fill="#000000"/><path d="M362.9 115.6c3-2.5 8.1-1 9.8 3.6.8 2.3 4 14.5-1.8 19.6-6.6 5.8-10 .5-11.4-5.3s-2.3-14.4 3.4-18Z" style="fill:#fa5951"/><path d="M362.9 115.6c3-2.5 8.1-1 9.8 3.6.8 2.3 4 14.5-1.8 19.6-6.6 5.8-10 .5-11.4-5.3s-2.3-14.4 3.4-18Z" style="opacity:.1" fill="#000000"/><path d="M368.4 135.3c-2.5 2.2-6.1-.2-8-5s1.7-11.4 4.2-13c2.8-1.6 5.7.3 6.8 7 1.1 7-.5 11-3 11Z" style="fill:#37474f"/><path d="M341.2 383.2a6.9 6.9 0 0 0 0 2.6c.3 1 5.2 2.4 7.9 3.2a23.8 23.8 0 0 1 9.4 6c2.8 3 7 5.3 13.9 5.3s9.7-2.6 10.4-3.4.3-2.9.3-2.9Z" style="fill:#263238"/><path d="M342.4 363.6c1 5.5-.2 8.4-1.3 11.7a10.8 10.8 0 0 0 .1 7.9c3.3 2.6 10.4 3 15 6.2 2.3 1.7 6.2 6.8 11.4 6.2s10.2-7.7 10.2-7.7a42.7 42.7 0 0 1-10.8-7.8c-5.6-5.6-10.2-8-9.8-15.4Z" style="fill:#455a64"/><path d="M358.2 389c-3.9-3.2-10.2-6-10-8.4s-3.1-6-3.1-6-2.2-2.9 5.9-3.8c4.4-.5 6-1.7 6.4-2.6a13.5 13.5 0 0 1-.2-3.6l-14.8-1c1 5.5-.2 8.4-1.3 11.7a10.8 10.8 0 0 0 .1 7.9c3.3 2.6 10.5 3 15 6.2 1 .7 2.3 2 3.9 3.4a6.5 6.5 0 0 0-1.9-3.8Z" style="fill:#37474f"/><path d="M342.8 287.2c-3.6-.2-5.7 4.7-6.2 18-.4 11.9 5.4 58.8 6 62.2.5 2.6 14.7 2.5 14.9-.8.3-5.4 6.3-63.3 6.8-70s.9-8-2.5-9-19-.4-19-.4Z" style="fill:#fa5951"/><path d="M342.8 287.2c-3.6-.2-5.7 4.7-6.2 18-.4 11.9 5.4 58.8 6 62.2.5 2.6 14.7 2.5 14.9-.8.3-5.4 6.3-63.3 6.8-70s.9-8-2.5-9-19-.4-19-.4Z" style="fill:#fff;opacity:.8"/><path d="M361.8 287.6c-3.4-1.1-19-.4-19-.4-3.6-.2-5.7 4.7-6.2 18-.4 11.9 5.4 58.8 6 62.2.2.8 1.6 1.4 3.5 1.7a869 869 0 0 1-2.7-44.4c0-11.7-.3-31.2 6.3-25.5 6.1 5.3 11.7 3.2 14.4-.3l.2-2.3c.6-6.6.9-8-2.5-9Z" style="opacity:.1" fill="#000000"/><path d="m341.2 277.6.9 11.4c0 1.9 3.6 5.3 11.8 5.2 7-.2 8.8-4 8.8-4L365 274Z" style="fill:#37474f"/><path d="M365.6 179.4c2.5 5 4.8 12.5 4.7 47.3s-4.7 54.2-4.7 54.2c-2 6.5-24.1 6-25.3.6l-13-69.8c-1.7-16.4 25.8-58 38.3-32.3Z" style="fill:#fa5951"/><path d="M365.6 179.4c2.5 5 4.8 12.5 4.7 47.3s-4.7 54.2-4.7 54.2c-2 6.5-24.1 6-25.3.6l-13-69.8c-1.7-16.4 25.8-58 38.3-32.3Z" style="fill:#fff;opacity:.8"/><path d="m327.2 211.7 13.1 69.8c.9 4 13.6 5.3 20.7 3a2 2 0 0 0 0-.4c-1.8-6-8.4.2-9.5-1.6s-2.4-35.3-3.4-46.5c-1.3-14.9 8.4-22.1 11.7-36.4a127.8 127.8 0 0 0 2.8-24.7c-13.4-15.2-36.9 21.6-35.4 36.8Z" style="opacity:.1" fill="#000000"/><path d="M358.4 175.2c3.9.8 8.2 8.6 7.5 19.1s-6.3 25.8-18.5 22.8-6.7-46.7 11-42Z" style="fill:#fa5951"/><path d="M358.4 175.2c3.9.8 8.2 8.6 7.5 19.1s-6.3 25.8-18.5 22.8-6.7-46.7 11-42Z" style="opacity:.1" fill="#000000"/><path d="M356.8 184.8c3.3.7 7.5 3.3 5 13.7-2 8.8-4.7 13-11.7 11.5-10.5-2.3-8.3-29.3 6.7-25.2Z" style="fill:#455a64"/><path d="M350 386.6c4.3.3 6 .5 10.1 2.8s7.2-4.3 13.6-4a28.2 28.2 0 0 1 7.4 3.2c1.6 1 2.3 2.5 2 5.4a11 11 0 0 1-8 3.8c-8.7.8-13-2.8-16.6-5.8s-5-4.3-8.4-5.4Z" style="fill:#fa5951"/><path d="M350 386.6c4.3.3 6 .5 10.1 2.8s7.2-4.3 13.6-4a28.2 28.2 0 0 1 7.4 3.2c1.6 1 2.3 2.5 2 5.4a11 11 0 0 1-8 3.8c-8.7.8-13-2.8-16.6-5.8s-5-4.3-8.4-5.4Z" style="fill:#fff;opacity:.8"/><path d="M371.5 394.5c-8.6-.2-12.5-4.4-15.9-7.1a26.8 26.8 0 0 0-5.6-.8c3.4 1.1 5 2.5 8.6 5.5s7.9 6.5 16.6 5.8a11 11 0 0 0 8-3.8c.2-3-.4-4.4-2-5.5 2.3 2.8-1.1 6.1-9.7 6Z" style="opacity:.1" fill="#000000"/><path d="M347.3 376.5c-.5 2.8-2.4 5.2-5 4.7a5 5 0 0 1-3.6-6c.5-2.8 3-4.8 5.6-4.3s3.6 2.7 3 5.6Z" style="fill:#fa5951"/><path d="M347.3 376.5c.4-2.1 0-3.8-1.3-4.8 1.3 2 .3 6-3.4 6.1-3.2 0-3.8-2.4-3.5-3.8a6.2 6.2 0 0 0-.4 1.2 5 5 0 0 0 3.7 6c2.5.5 4.4-1.9 5-4.7Z" style="opacity:.15" fill="#000000"/><path d="M351.4 290.1c.4-5.6 3.5-10.6 8.5-10.3s8.7 5.2 8.4 10.8-4.7 10-9.7 9.6-7.5-4.4-7.2-10Z" style="fill:#fa5951"/><path d="M358.7 295.6c-5.4-4.1-3.3-12.8-.1-15.7-4.3.5-6.8 5.1-7.2 10.2-.3 5.7 2.2 9.8 7.2 10.1a9 9 0 0 0 8.1-4.6 6.2 6.2 0 0 1-8 0Z" style="opacity:.15" fill="#000000"/><path d="M358.7 182.2s3 9.5-2 21.9c-5.5 13.2-12.2 17.5-19 16.8s-14.3-7.5-17.5-13.7c-4.5-9-3.7-14.6-2.8-18.8a47.5 47.5 0 0 1 3.6-10.2Z" style="fill:#fa5951"/><path d="M358.7 182.2s3 9.5-2 21.9c-5.5 13.2-12.2 17.5-19 16.8s-14.3-7.5-17.5-13.7c-4.5-9-3.7-14.6-2.8-18.8a47.5 47.5 0 0 1 3.6-10.2Z" style="fill:#fff;opacity:.7000000000000001"/><path d="M351.8 213.1a15.1 15.1 0 0 1-11 1.4c-8.6-1.7-11.8-14.4-12.6-20s-1.3-11.4 4.5-13.3l1.3-1.6-13-1.4a47.5 47.5 0 0 0-3.6 10.3c-.9 4.1-1.7 9.8 2.8 18.7 3.1 6.2 10.8 13 17.5 13.7 4.9.5 9.7-1.6 14-7.8Z" style="fill:#fa5951"/><path d="M351.8 213.1a15.1 15.1 0 0 1-11 1.4c-8.6-1.7-11.8-14.4-12.6-20s-1.3-11.4 4.5-13.3l1.3-1.6-13-1.4a47.5 47.5 0 0 0-3.6 10.3c-.9 4.1-1.7 9.8 2.8 18.7 3.1 6.2 10.8 13 17.5 13.7 4.9.5 9.7-1.6 14-7.8Z" style="opacity:.05" fill="#000000"/><path d="M319.5 161.9a22.2 22.2 0 0 1 1.5 16.3s12.6 12.5 24.6 11.8a15.7 15.7 0 0 0 13-7.8l3.4-31.5s-5.5-15.8-15.8-15.2-26.7 26.4-26.7 26.4Z" style="fill:#455a64"/><path d="M323.5 180.4c4.3 3.6 13.4 10.1 22.1 9.6a16.6 16.6 0 0 0 5.9-1.4c-5.8.3-12.6-2.8-15-6-2.7-3.4-3.8-7.7-3.4-13.7.1-1.3 1.7-22.6 3-27.5-7.1 6.5-14 16.6-16 19.6l-.3.5-.1.1v.2a21.7 21.7 0 0 1 1.7 5 23.6 23.6 0 0 1 .6 3.2 22.4 22.4 0 0 1 .1 3.2 16.8 16.8 0 0 1-.6 4l-.3 1c-.2 0 .8 1 2.3 2.2ZM346.2 135.5a12 12 0 0 0-5.4 2.1c5 .2 6.2 8 8 14.5 2 7.6 1.9 5.9 10.8 7.4l1.4.9 1-9.7s-5.5-15.8-15.8-15.2Z" style="fill:#37474f"/><path d="M315 110.8c-9.7 2.2-14.4 4-13.3 14S310 152.4 315 159c5 6.8 4.8 7.9 10.6 6.3 7.3-2.1 16-6.4 17-9s.3-16.6 4.5-16.7 4.7 14.3 5.7 16.3 7.9 5.8 9.3 5 7-15.2 7.2-27.8c.1-15-2.6-18.4-12.2-21Z" style="fill:#fa5951"/><path d="M315 110.8c-9.7 2.2-14.4 4-13.3 14S310 152.4 315 159c5 6.8 4.8 7.9 10.6 6.3 7.3-2.1 16-6.4 17-9s.3-16.6 4.5-16.7 4.7 14.3 5.7 16.3 7.9 5.8 9.3 5 7-15.2 7.2-27.8c.1-15-2.6-18.4-12.2-21Z" style="fill:#fff;opacity:.7000000000000001"/><path d="m321.4 111-6.4-.2c-9.6 2.2-14.4 4-13.3 14S310 152.4 315 159c5 6.8 4.8 7.9 10.6 6.3a61 61 0 0 0 7.8-2.9c-4.7.2-9.2 0-14.8-11.3s-7.1-20.7-6.8-28.1c.3-6.7 3-9.5 9.6-12Z" style="opacity:.1" fill="#000000"/><path d="M305.4 115.7c4.3-3 8-.3 10.2 8.5 1.6 6.4.7 15.8-3.8 17.5-4.2 1.6-6-3.6-8.5-10.8-1.3-4-2.2-12.2 2.1-15.2Z" style="fill:#fa5951"/><path d="M305.4 115.7c4.3-3 8-.3 10.2 8.5 1.6 6.4.7 15.8-3.8 17.5-4.2 1.6-6-3.6-8.5-10.8-1.3-4-2.2-12.2 2.1-15.2Z" style="opacity:.1" fill="#000000"/><path d="m345.8 117.8-1 .3a110 110 0 0 1 2.3 21.6 2 2 0 0 1 1 .2 112 112 0 0 0-2.4-22Z" style="fill:#fa5951"/><path d="m323.7 91.5 1.3 16.2c0 .7-10 3.1-10 3.1s7.3-.3 17.6 4.2a42.4 42.4 0 0 1 9.8 6.3 3.9 3.9 0 0 0 5.7-.8 47 47 0 0 1 1.9-2.7 25.6 25.6 0 0 1 7.2-5.8s-13-5-13-5.5l-.8-9.9Z" style="fill:#455a64"/><path d="M334 217.1c2.4-1.2 1.7-12.1-.1-18.6-2.9-10-8-14.4-11.9-13.7s-3.8 10.7-3 14.4c1.5 6.3 8.7 18.4 15 17.9Z" style="fill:#fa5951"/><path d="M334 217.1c2.4-1.2 1.7-12.1-.1-18.6-2.9-10-8-14.4-11.9-13.7s-3.8 10.7-3 14.4c1.5 6.3 8.7 18.4 15 17.9Z" style="opacity:.1" fill="#000000"/><circle cx="335" cy="70.3" r="25.9" style="fill:#455a64" transform="rotate(-77 335 70.4)"/><path d="m343.8 102.5-.3-4.2-.3-5.6s-5.3-1.7-18.8-6.3c-10-3.4-15-13.7-14-24.2A25.9 25.9 0 0 0 324 93.7l1 14s1.8-1.1 6-.8 8 3.7 6.2-1.3c-1.4-4.4 5.1-3.4 6.7-3Z" style="fill:#37474f"/><path d="M343.4 46c-11.5 0-17.8 7.7-19.8 18.2-1.3 6.8-.7 22.7 5.4 30.4 3.2 4 18.1 8.7 24.4 7 6.9-2 8-11 8.6-20.1a60.3 60.3 0 0 0-1.9-20A19.6 19.6 0 0 0 343.4 46Z" style="fill:#fa5951"/><path d="M343.4 46c-11.5 0-17.8 7.7-19.8 18.2-1.3 6.8-.7 22.7 5.4 30.4 3.2 4 18.1 8.7 24.4 7 6.9-2 8-11 8.6-20.1a60.3 60.3 0 0 0-1.9-20A19.6 19.6 0 0 0 343.4 46Z" style="fill:#fff;opacity:.8"/><path d="M362 80.8a7.6 7.6 0 0 1-1.5 1c-8-.7-10-6.5-10-6.8 0-.6-.7-9.5-2.4-14a19.5 19.5 0 0 0 1.9-.7c3.3-1.3 5.4-3.2 6.3-5.7a7 7 0 0 0 .3-.9l-.4-.5a7 7 0 0 1-.3 1.3c-.9 2.3-3 4-6.1 5.3-10 4-19.7-.5-23.3-4.1l-.3.5c2.8 2.6 8.6 5.7 15.5 5.7a22.5 22.5 0 0 0 6-.8 62.4 62.4 0 0 1 2.2 14c-.5 2.2-4.1 8.2-13.7 9.8a19.7 19.7 0 0 1-8-6.7l-.4.3a20.3 20.3 0 0 0 8.2 7 15 15 0 0 1 2.3 7.4l.1 1a19 19 0 0 0 1.3 6.1l.7.2c-1-1.5-1.2-3.9-1.5-6.3v-1c-.5-4.5-1.8-6.7-2.3-7.5 8.9-1.6 12.6-7 13.6-9.6.8 1.6 3.4 6 10.4 6.5h.1a9.8 9.8 0 0 0 1.3-.8v-.7Z" style="fill:#fa5951"/><path d="M353.4 101.5a7.8 7.8 0 0 0 1.4-.5c-6 1-13-1-19.5-4.8s-7.8-8.2-9.4-17.5.4-22.4 4.8-28.3c-3.7 3.3-6 8.1-7 13.8-1.4 6.8-.8 22.7 5.3 30.3 3.2 4 18.1 8.8 24.4 7Z" style="opacity:.1" fill="#000000"/><path d="M330 82.2c0-4.2-3-8.6-6.6-9.8a4.7 4.7 0 0 0-4.7.6c-1.7.8-2.7 2.7-2.7 5.2 0 4.2 2.9 8.6 6.5 9.9a4.7 4.7 0 0 0 4.7-.7c1.6-.8 2.7-2.7 2.7-5.2Z" style="fill:#fa5951"/><path d="M330 82.2c0-4.2-3-8.6-6.6-9.8a4.7 4.7 0 0 0-4.7.6c-1.7.8-2.7 2.7-2.7 5.2 0 4.2 2.9 8.6 6.5 9.9a4.7 4.7 0 0 0 4.7-.7c1.6-.8 2.7-2.7 2.7-5.2Z" style="opacity:.15" fill="#000000"/><path d="M322.5 73c3.6 1.3 6.5 5.7 6.5 9.8s-2.9 6.5-6.5 5.3-6.5-5.7-6.5-9.8 2.9-6.6 6.5-5.3Z" style="fill:#fa5951"/><path d="M324.4 86.4a3.7 3.7 0 0 1-1.2-.2c-2.9-1-5.2-4.6-5.2-8 0-2.2 1-3.6 2.6-3.6a3.7 3.7 0 0 1 1.2.3c2.8 1 5.2 4.6 5.2 7.9 0 2.2-1 3.6-2.6 3.6Z" style="opacity:.15" fill="#000000"/><path d="M321.8 74.8a3.7 3.7 0 0 0-1.2-.2 2.1 2.1 0 0 0-.2 0 4.6 4.6 0 0 0-.7 2.5c0 3.3 2.4 7 5.2 7.9a3.7 3.7 0 0 0 1.3.2 1.9 1.9 0 0 0 .2 0 4.5 4.5 0 0 0 .6-2.4c0-3.3-2.4-7-5.2-8Z" style="opacity:.15" fill="#000000"/><path d="M337.7 68.9c-2.4-.2-4-.4-4.8.3-1.1 1-.8 2.6-.3 5.8.4 1.9.7 3.7 2.4 5 2 1.4 6 2.6 11.8 2.6 6.5 0 12-1.2 15.4-6.4a45.7 45.7 0 0 0-1.3-11.5 22.1 22.1 0 0 1-7.5 3.4 47 47 0 0 1-15.7.8Z" style="fill:#455a64"/><ellipse cx="341.7" cy="76" rx="2" ry="2.4" style="fill:#fa5951" transform="rotate(-8 341.7 76)"/><path d="M360 73.7a2 2 0 1 1-2-2.2 2.1 2.1 0 0 1 2 2.2ZM283.8 264c-2.2-2.9-7.3-1.2-17.7 7.2-9.2 7.5-31.4 32.6-33.9 35a17.6 17.6 0 0 0-4.7 12.8c0 5.9 4.6 7.4 6.2 6.4 6-3.5 51.7-35 57-39s6.7-4.6 5.3-7.8-12.2-14.6-12.2-14.6Z" style="fill:#fa5951"/><path d="M283.8 264c-2.2-2.9-7.3-1.2-17.7 7.2-9.2 7.5-31.4 32.6-33.9 35a17.6 17.6 0 0 0-4.7 12.8c0 5.9 4.6 7.4 6.2 6.4 6-3.5 51.7-35 57-39s6.7-4.6 5.3-7.8-12.2-14.6-12.2-14.6Z" style="fill:#fff;opacity:.8"/><path d="M277.8 271.2c.7 5.3 6.7 9-12.2 23.3-11.5 8.7-27.2 19.8-37.7 27.1 1.1 3.7 4.5 4.6 5.8 3.8 6-3.5 51.7-35 57-39s6.7-4.6 5.3-7.8c-1.2-2.8-9.1-11.3-11.5-13.9l-1.6-.7c-5.5-.3-5.9 1.9-5.1 7.2Z" style="opacity:.1" fill="#000000"/><path d="m285.6 258.4-5.5 6.3c-1 1.4-.5 5 3.7 10s9.7 7 11.1 5.7l8.3-8.3Z" style="fill:#37474f"/><path d="M318 192.4a70.3 70.3 0 0 1 7.5-2.7c2.6-.6 4.3 5.2 5 7 2.2 6 2.6 13.6 1.7 14.4-2 2-6.6 3.3-6.6 3.3Z" style="fill:#455a64"/><path d="M313.8 173.6c5.9 0 15 23.9 16 34.2s2.7 17-7.8 37.5c-11 21.7-20 29.4-20 29.4-4 2.4-20.2-10.7-19-16.4 0 0 9-30.8 12.5-44.8s8.6-41.1 18.3-39.9Z" style="fill:#fa5951"/><path d="M313.8 173.6c5.9 0 15 23.9 16 34.2s2.7 17-7.8 37.5c-11 21.7-20 29.4-20 29.4-4 2.4-20.2-10.7-19-16.4 0 0 9-30.8 12.5-44.8s8.6-41.1 18.3-39.9Z" style="fill:#fff;opacity:.8"/><path d="M323.1 185.7c-3-6.7-6.5-12.1-9.3-12.1-9.7-1.2-14.7 25.8-18.3 39.9S283 258.3 283 258.3c-1 5 11 15.3 17 16.6 1.3-1.5 2.3-3.1 2.3-4.6.2-4.4-9.1-4.3-9.6-6.5s8.2-29.4 13.8-51.4 11.7-32.2 16.7-26.7Z" style="opacity:.1" fill="#000000"/><path d="M288.2 272.9c3.4-4.5 8.8-6.9 12.8-3.8s4.4 9.1 1 13.6-9.5 5.6-13.5 2.5-3.7-7.9-.3-12.3Z" style="fill:#fa5951"/><path d="M291.4 281.5c-2.2-4.5 0-12 7.4-13.5-3.6-1.1-7.7 1.2-10.6 4.9-3.4 4.4-3.7 9.3.3 12.3 3.5 2.7 8.6 2.2 12-1-2 .6-6.7 1.7-9-2.7Z" style="opacity:.15" fill="#000000"/><path d="M259 209.7c-.8 1.4-1.5 3.9-1.2 8.7s1.7 12.6 4.2 16.6 5.2 5.2 8.3 5.4 4.5-.4 6.8.2c3.4.9 4.7-.2 3-3.1s-4.3-6.8-5.3-9.6a21.6 21.6 0 0 1-1-5.7c.6-.9 2.7 3.6 5.5 4.6s3.8-.5 3.5-1.2-2-2.4-3.5-5-3.9-7.2-5.5-9.6-3-3.8-8.3-3.8-5.5.8-6.5 2.5Z" style="fill:#fa5951"/><path d="M259 209.7c-.8 1.4-1.5 3.9-1.2 8.7s1.7 12.6 4.2 16.6 5.2 5.2 8.3 5.4 4.5-.4 6.8.2c3.4.9 4.7-.2 3-3.1s-4.3-6.8-5.3-9.6a21.6 21.6 0 0 1-1-5.7c.6-.9 2.7 3.6 5.5 4.6s3.8-.5 3.5-1.2-2-2.4-3.5-5-3.9-7.2-5.5-9.6-3-3.8-8.3-3.8-5.5.8-6.5 2.5Z" style="fill:#fff;opacity:.8"/><path d="M262 235c2.5 4 5.2 5.2 8.3 5.4s4.5-.4 6.8.2c2 .5 3.1.4 3.6-.3-1.5 1-3.1-.4-4.7-2s-6.3-1-7.7-1.9c-1.9-1-4.4-2.2-5.8-9.4s1.7-8 3.7-14l-.2-5.8h-.4c-5.3 0-5.7.8-6.6 2.4-.8 1.5-1.5 4-1.2 8.8s1.7 12.6 4.2 16.6Z" style="opacity:.1" fill="#000000"/><path d="M306.6 118.7c3-1.6 5.2 2.4 6 7.5s.2 8.7-2.4 9.9c-4 1.7-9.1-.5-10.1-6-1-4.5 1.8-8.7 6.5-11.4ZM258.3 200.4s.7 11.2 2 15.3c1.4 4.3 5.3 5.8 7.4 2.9s2.6-8.3 2.6-8.3l.6-10.1Z" style="fill:#37474f"/><path d="M261.6 158c-4.5-1-7.4 3-7 10s3.4 36 3.4 36c.2 1 2.5 2 6.6 1.8s6.4-2 6.4-2.9c0 0 1.6-26 2-29.2.8-6.5-5.2-14.3-11.4-15.6Z" style="fill:#fa5951"/><path d="M261.6 158c-4.5-1-7.4 3-7 10s3.4 36 3.4 36c.2 1 2.5 2 6.6 1.8s6.4-2 6.4-2.9c0 0 1.6-26 2-29.2.8-6.5-5.2-14.3-11.4-15.6Z" style="fill:#fff;opacity:.8"/><path d="M273 171.8c-.4-6-5.8-12.5-11.4-13.7-4.5-1-7.4 3-7 10s3.4 36 3.4 36c.2.9 2 1.6 5 1.7-.4-4.2-.5-9.8-.8-14.8-.7-11.7-3-21.7 2.4-18.7 4 2.2 7.4 1.5 8.4-.5Z" style="opacity:.1" fill="#000000"/><path d="m264.7 155.6-4.2 4.6s-1.3 3.4 2.8 7c4 3.4 7 2.6 7 2.6l6.7-5Z" style="fill:#37474f"/><path d="M305.5 117.4c4.7 4.1 6.2 18.6 2.7 22.8s-32.6 26.6-32.6 26.6c-3.7 2.2-14.8-5.8-12.3-11L289 125c5.3-6.3 11.7-11.9 16.5-7.7Z" style="fill:#fa5951"/><path d="M305.5 117.4c4.7 4.1 6.2 18.6 2.7 22.8s-32.6 26.6-32.6 26.6c-3.7 2.2-14.8-5.8-12.3-11L289 125c5.3-6.3 11.7-11.9 16.5-7.7Z" style="fill:#fff;opacity:.8"/><path d="M305.5 117.4c-4.8-4.2-11.3 1.3-16.5 7.7s-25.7 30.6-25.7 30.6c-1 2 0 4.3 1.7 6.3 1.9-2.8 6.4-8.8 16.2-19.5 11.3-12.2 20.6-21 26.3-22.3a9.6 9.6 0 0 0-2-2.8Z" style="opacity:.1" fill="#000000"/></svg>