<svg xmlns="http://www.w3.org/2000/svg" viewBox="0 0 500 500"><defs fill="#000000"><clipPath id="a" fill="#000000"><path d="m132.5 88.2-13 11.3 11.8 37.5 27.2-.5 6.1-46-19.3-5.3-12.8 3z" style="fill:#000000"/></clipPath><clipPath id="b" fill="#000000"><path d="m119.5 99.5-10.1 25.9s7.9 4.6 8 4 8.1-11 8.1-11Z" style="fill:#000000"/></clipPath><clipPath id="c" fill="#000000"><path d="m164.6 90.5 24.8 19.9-9.6 5.7-17.2-9.9 2-15.7z" style="fill:#000000"/></clipPath></defs><path d="M140.2 397.8a231.8 231.8 0 0 1-7.5-12.6c.5-.3 4.4-2.7 5.6-4.5 1-1.6 2-4 1.2-6a3.5 3.5 0 0 0-4.3-2.2l-.3.1c-2.7 1.3-3.5 6.5-3.2 9l.8 3.1-1.2-2.2-1.7-3.4-.8-1.9-.8-1.9-1-2.9c1.1-.5 4.6-2 5.8-3.4s2.6-3.7 2.2-5.7a3.5 3.5 0 0 0-3.9-2.9h-.4c-2.7 1-4.4 5.9-4.4 8.5a9.1 9.1 0 0 0 0 1.3l-.8-3-2-8.4-.4-1.8c1-.5 4.7-2.2 6-3.6s2.6-3.7 2.2-5.7a3.5 3.5 0 0 0-4-2.9l-.3.1c-2.8.8-4.4 5.8-4.5 8.4a116 116 0 0 0-1.1-3.1 62.5 62.5 0 0 0-2.7-7.7c.3-.1 4.7-2 6.2-3.6 1.3-1.5 2.5-3.7 2.2-5.7a3.5 3.5 0 0 0-4-2.9 2.2 2.2 0 0 0-.3.1c-2.8.8-4.4 5.8-4.5 8.4l.3 3.4a45.8 45.8 0 0 0-4-7 64.6 64.6 0 0 0-4.4-5.6l-4.2-4.4-2-1.8-1.4-3.5c-1.3-2.2-5.2-5.8-8-5.2a3.4 3.4 0 0 0-2.6 4.2l.1.3c.7 2 2.8 3.3 4.7 4s6 .3 7 .2a62.7 62.7 0 0 1 6 6.4l1 1.4a98 98 0 0 0-2-1.6c-2.2-1.4-7.2-2.8-9.5-1a3.4 3.4 0 0 0-.3 4.9 1.8 1.8 0 0 0 .3.3c1.4 1.4 4 1.6 5.9 1.3s5.5-2.5 6.4-3l2.4 3.4a44.6 44.6 0 0 1 3.8 7l.2.4-2.6-2.6c-2-1.7-6.9-3.6-9.3-2a3.5 3.5 0 0 0-.8 4.8 2.9 2.9 0 0 0 .2.2c1.3 1.6 3.8 2 5.7 2 2.2 0 6.6-2.3 6.8-2.3a58.6 58.6 0 0 1 2.5 7.4l1.4 5.8-2.6-2.6c-2-1.6-6.9-3.6-9.3-2a3.5 3.5 0 0 0-.9 4.8l.3.3c1.3 1.6 3.8 2 5.7 2 2.2 0 6.4-2.2 6.8-2.3l.6 2.6c.6 2.9 1.1 5.8 1.8 8.6l.7 2.9-2.1-2.2c-2-1.6-7-3.6-9.4-2a3.5 3.5 0 0 0-.8 4.8 3.3 3.3 0 0 0 .2.3c1.3 1.6 3.8 2 5.8 2s5.5-1.8 6.5-2.2l1.5 4.7.7 2 .8 1.8c.6 1.3 1 2.5 1.7 3.6l.8 1.7-1.7-2.3c-1.8-2-6.3-4.6-9-3.4a3.4 3.4 0 0 0-1.5 4.6l.2.3c1 1.8 3.4 2.6 5.3 2.8 2.2.3 6.5-1 7-1.3l2 4 5.4 9.3 2.2 3.4a1 1 0 0 0 1.5.2 1 1 0 0 0 .2-1.4s-.7-1.3-2.1-3.4Z" style="fill:#fa5951"/><path d="M111.6 331.5s4-3.1 5-5.2c1-1.7 1.6-4.2.7-6a3.4 3.4 0 0 0-4.6-1.7l-.3.1c-2.5 1.6-2.8 6.8-2.1 9.4l1.3 3.4ZM137.9 399.7c-2.4-1-5.7-2.6-9.6-4.5l-3.6-2c.3-.4 2.1-4.6 2.1-6.7 0-2-.5-4.5-2.2-5.7a3.4 3.4 0 0 0-4.8.5l-.2.3c-1.6 2.5.6 7.3 2.3 9.3l2.3 2.1-2.2-1.2-3.3-2-1.7-1-1.7-1.1-2.4-1.9c.7-1.1 2.7-4.3 3-6.1s0-4.5-1.4-6a3.5 3.5 0 0 0-4.8-.2 3.6 3.6 0 0 0-.3.3c-1.9 2.2-.5 7.3.9 9.5a9.7 9.7 0 0 0 .8 1l-2.3-2-6.4-6-1.3-1.3c.5-.9 2.7-4.3 3-6.3s0-4.4-1.3-6a3.4 3.4 0 0 0-5-.2l-.2.3c-1.8 2.2-.5 7.3 1 9.5a10.4 10.4 0 0 0 .8 1.2l-3.5-3.2a60.8 60.8 0 0 0-6.5-4.9c.2-.3 2.8-4.3 3.1-6.4.3-2 .1-4.5-1.3-6a3.5 3.5 0 0 0-4.9-.2l-.2.2c-2 2.2-.5 7.3.8 9.5l2.2 2.7a45.4 45.4 0 0 0-7.2-3.6 64 64 0 0 0-6.8-2.2l-5.9-1.4-2.6-.5-3.2-2c-2.3-1.2-7.5-2-9.5 0a3.5 3.5 0 0 0 .2 5l.3.2c1.6 1.2 4.1 1.1 6 .7s5.1-3 6-3.7a82 82 0 0 1 8.5 2l1.8.6-2.6-.3c-2.7 0-7.6 1.7-8.5 4.5a3.4 3.4 0 0 0 2.4 4.2 2.3 2.3 0 0 0 .4 0c2 .5 4.2-.8 5.7-2.1s3.3-5.2 3.6-6l4 1.5a44 44 0 0 1 7 3.6l.3.3-3.5-.8c-2.6-.2-7.8.9-8.9 3.6a3.4 3.4 0 0 0 2 4.4 3.4 3.4 0 0 0 .3.1c2 .7 4.3-.3 6-1.5 1.7-1.3 4.2-5.6 4.3-5.7a60.5 60.5 0 0 1 6.2 4.8l4.3 4-3.5-.7c-2.6-.3-7.8.8-8.9 3.5a3.5 3.5 0 0 0 2 4.5h.3c2 .7 4.3-.3 5.9-1.4 1.7-1.3 4.1-5.4 4.3-5.8l2 2 6.2 6c.7.8 1.5 1.4 2.2 2a97 97 0 0 0-3-.5c-2.6-.3-7.7.8-8.8 3.5a3.4 3.4 0 0 0 1.9 4.4l.4.2c2 .6 4.3-.4 5.8-1.6s3.7-4.5 4.3-5.5c1.2 1.1 2.5 2.2 3.8 3.1.5.4 1 .9 1.7 1.3l1.6 1 3.3 2.1 1.7 1-2.7-1c-2.6-.7-7.8-.4-9.3 2a3.5 3.5 0 0 0 1.2 4.8 2.5 2.5 0 0 0 .3.2c1.9.9 4.3.2 6-.6 2-1 4.8-4.6 5.2-5a116 116 0 0 0 13.5 6.9l3.7 1.6a1 1 0 0 0 .7-1.9s-1.3-.3-3.6-1.3Z" style="fill:#fa5951"/><path d="M77.5 360.1s1.6-4.8 1.4-7c-.2-2-1.1-4.4-2.8-5.4a3.5 3.5 0 0 0-4.8 1 2.6 2.6 0 0 0-.2.3c-1.2 2.7 1.5 7.2 3.4 9l3 2.1Z" style="fill:#fa5951"/><g style="opacity:.4000000059604645"><path d="M140.2 397.8a231.8 231.8 0 0 1-7.5-12.6c.5-.3 4.4-2.7 5.6-4.5 1-1.6 2-4 1.2-6a3.5 3.5 0 0 0-4.3-2.2l-.3.1c-2.7 1.3-3.5 6.5-3.2 9l.8 3.1-1.2-2.2-1.7-3.4-.8-1.9-.8-1.9-1-2.9c1.1-.5 4.6-2 5.8-3.4s2.6-3.7 2.2-5.7a3.5 3.5 0 0 0-3.9-2.9h-.4c-2.7 1-4.4 5.9-4.4 8.5a9.1 9.1 0 0 0 0 1.3l-.8-3-2-8.4-.4-1.8c1-.5 4.7-2.2 6-3.6s2.6-3.7 2.2-5.7a3.5 3.5 0 0 0-4-2.9l-.3.1c-2.8.8-4.4 5.8-4.5 8.4a116 116 0 0 0-1.1-3.1 62.5 62.5 0 0 0-2.7-7.7c.3-.1 4.7-2 6.2-3.6 1.3-1.5 2.5-3.7 2.2-5.7a3.5 3.5 0 0 0-4-2.9 2.2 2.2 0 0 0-.3.1c-2.8.8-4.4 5.8-4.5 8.4l.3 3.4a45.8 45.8 0 0 0-4-7 64.6 64.6 0 0 0-4.4-5.6l-4.2-4.4-2-1.8-1.4-3.5c-1.3-2.2-5.2-5.8-8-5.2a3.4 3.4 0 0 0-2.6 4.2l.1.3c.7 2 2.8 3.3 4.7 4s6 .3 7 .2a62.7 62.7 0 0 1 6 6.4l1 1.4a98 98 0 0 0-2-1.6c-2.2-1.4-7.2-2.8-9.5-1a3.4 3.4 0 0 0-.3 4.9 1.8 1.8 0 0 0 .3.3c1.4 1.4 4 1.6 5.9 1.3s5.5-2.5 6.4-3l2.4 3.4a44.6 44.6 0 0 1 3.8 7l.2.4-2.6-2.6c-2-1.7-6.9-3.6-9.3-2a3.5 3.5 0 0 0-.8 4.8 2.9 2.9 0 0 0 .2.2c1.3 1.6 3.8 2 5.7 2 2.2 0 6.6-2.3 6.8-2.3a58.6 58.6 0 0 1 2.5 7.4l1.4 5.8-2.6-2.6c-2-1.6-6.9-3.6-9.3-2a3.5 3.5 0 0 0-.9 4.8l.3.3c1.3 1.6 3.8 2 5.7 2 2.2 0 6.4-2.2 6.8-2.3l.6 2.6c.6 2.9 1.1 5.8 1.8 8.6l.7 2.9-2.1-2.2c-2-1.6-7-3.6-9.4-2a3.5 3.5 0 0 0-.8 4.8 3.3 3.3 0 0 0 .2.3c1.3 1.6 3.8 2 5.8 2s5.5-1.8 6.5-2.2l1.5 4.7.7 2 .8 1.8c.6 1.3 1 2.5 1.7 3.6l.8 1.7-1.7-2.3c-1.8-2-6.3-4.6-9-3.4a3.4 3.4 0 0 0-1.5 4.6l.2.3c1 1.8 3.4 2.6 5.3 2.8 2.2.3 6.5-1 7-1.3l2 4 5.4 9.3 2.2 3.4a1 1 0 0 0 1.5.2 1 1 0 0 0 .2-1.4s-.7-1.3-2.1-3.4Z" style="fill:#fff"/><path d="M111.6 331.5s4-3.1 5-5.2c1-1.7 1.6-4.2.7-6a3.4 3.4 0 0 0-4.6-1.7l-.3.1c-2.5 1.6-2.8 6.8-2.1 9.4l1.3 3.4ZM137.9 399.7c-2.4-1-5.7-2.6-9.6-4.5l-3.6-2c.3-.4 2.1-4.6 2.1-6.7 0-2-.5-4.5-2.2-5.7a3.4 3.4 0 0 0-4.8.5l-.2.3c-1.6 2.5.6 7.3 2.3 9.3l2.3 2.1-2.2-1.2-3.3-2-1.7-1-1.7-1.1-2.4-1.9c.7-1.1 2.7-4.3 3-6.1s0-4.5-1.4-6a3.5 3.5 0 0 0-4.8-.2 3.6 3.6 0 0 0-.3.3c-1.9 2.2-.5 7.3.9 9.5a9.7 9.7 0 0 0 .8 1l-2.3-2-6.4-6-1.3-1.3c.5-.9 2.7-4.3 3-6.3s0-4.4-1.3-6a3.4 3.4 0 0 0-5-.2l-.2.3c-1.8 2.2-.5 7.3 1 9.5a10.4 10.4 0 0 0 .8 1.2l-3.5-3.2a60.8 60.8 0 0 0-6.5-4.9c.2-.3 2.8-4.3 3.1-6.4.3-2 .1-4.5-1.3-6a3.5 3.5 0 0 0-4.9-.2l-.2.2c-2 2.2-.5 7.3.8 9.5l2.2 2.7a45.4 45.4 0 0 0-7.2-3.6 64 64 0 0 0-6.8-2.2l-5.9-1.4-2.6-.5-3.2-2c-2.3-1.2-7.5-2-9.5 0a3.5 3.5 0 0 0 .2 5l.3.2c1.6 1.2 4.1 1.1 6 .7s5.1-3 6-3.7a82 82 0 0 1 8.5 2l1.8.6-2.6-.3c-2.7 0-7.6 1.7-8.5 4.5a3.4 3.4 0 0 0 2.4 4.2 2.3 2.3 0 0 0 .4 0c2 .5 4.2-.8 5.7-2.1s3.3-5.2 3.6-6l4 1.5a44 44 0 0 1 7 3.6l.3.3-3.5-.8c-2.6-.2-7.8.9-8.9 3.6a3.4 3.4 0 0 0 2 4.4 3.4 3.4 0 0 0 .3.1c2 .7 4.3-.3 6-1.5 1.7-1.3 4.2-5.6 4.3-5.7a60.5 60.5 0 0 1 6.2 4.8l4.3 4-3.5-.7c-2.6-.3-7.8.8-8.9 3.5a3.5 3.5 0 0 0 2 4.5h.3c2 .7 4.3-.3 5.9-1.4 1.7-1.3 4.1-5.4 4.3-5.8l2 2 6.2 6c.7.8 1.5 1.4 2.2 2a97 97 0 0 0-3-.5c-2.6-.3-7.7.8-8.8 3.5a3.4 3.4 0 0 0 1.9 4.4l.4.2c2 .6 4.3-.4 5.8-1.6s3.7-4.5 4.3-5.5c1.2 1.1 2.5 2.2 3.8 3.1.5.4 1 .9 1.7 1.3l1.6 1 3.3 2.1 1.7 1-2.7-1c-2.6-.7-7.8-.4-9.3 2a3.5 3.5 0 0 0 1.2 4.8 2.5 2.5 0 0 0 .3.2c1.9.9 4.3.2 6-.6 2-1 4.8-4.6 5.2-5a116 116 0 0 0 13.5 6.9l3.7 1.6a1 1 0 0 0 .7-1.9s-1.3-.3-3.6-1.3Z" style="fill:#fff"/><path d="M77.5 360.1s1.6-4.8 1.4-7c-.2-2-1.1-4.4-2.8-5.4a3.5 3.5 0 0 0-4.8 1 2.6 2.6 0 0 0-.2.3c-1.2 2.7 1.5 7.2 3.4 9l3 2.1Z" style="fill:#fff"/></g><path d="M307.8 350c0 28.7 22.8 51.8 22.8 51.8s22.6-23.3 22.5-52-22.9-51.8-22.9-51.8-22.6 23.3-22.4 52Z" style="fill:#fa5951"/><path d="m330.7 401.8-.5-103.9M330.4 334.9l-12.8-11.1M330.7 352l15.6-22.9M330.5 361.9l-18.8-16.7M330.8 375.2l18.5-16.6M330.8 386.7l-14.5-11.4" style="fill:#000000;stroke:#fff;stroke-miterlimit:10;stroke-width:.9938565432589912px"/><path d="M292.2 394.2a49 49 0 0 0 29.9 13.7s.8-18.8-10.3-31.2S282 363 282 363s-.9 18.8 10.2 31.1Z" style="fill:#fa5951"/><path d="M322.1 407.9 282 363M296.2 379l-9.8.1M302.9 386.3l-2-15.9M306.7 390.6l-14.6.1M311.9 396.3l1.7-14.3M316.4 401.3l-10.8.6" style="fill:#000000;stroke:#fff;stroke-miterlimit:10;stroke-width:.9938565432589912px"/><path d="M350 376c-11.5 12-11.4 30.9-11.4 30.9s18.8-.6 30.4-12.6 11.4-30.8 11.4-30.8-18.9.6-30.4 12.6Z" style="fill:#fa5951"/><path d="m338.6 406.9 41.8-43.4M365.5 378.9l-.8-9.7M358.7 386.2l15.8-3.2M354.6 390.2l-1.1-14.5M349.4 395.9l14.4.5M344.8 400.7l-1.5-10.7" style="fill:#000000;stroke:#fff;stroke-miterlimit:10;stroke-width:.9938565432589912px"/><g style="opacity:.4000000059604645"><path d="M307.8 350c0 28.7 22.8 51.8 22.8 51.8s22.6-23.3 22.5-52-22.9-51.8-22.9-51.8-22.6 23.3-22.4 52Z" style="fill:#fff"/><path d="m330.7 401.8-.5-103.9M330.4 334.9l-12.8-11.1M330.7 352l15.6-22.9M330.5 361.9l-18.8-16.7M330.8 375.2l18.5-16.6M330.8 386.7l-14.5-11.4" style="fill:#000000"/><path d="M292.2 394.2a49 49 0 0 0 29.9 13.7s.8-18.8-10.3-31.2S282 363 282 363s-.9 18.8 10.2 31.1Z" style="fill:#fff"/><path d="M322.1 407.9 282 363M296.2 379l-9.8.1M302.9 386.3l-2-15.9M306.7 390.6l-14.6.1M311.9 396.3l1.7-14.3M316.4 401.3l-10.8.6" style="fill:#000000"/><path d="M350 376c-11.5 12-11.4 30.9-11.4 30.9s18.8-.6 30.4-12.6 11.4-30.8 11.4-30.8-18.9.6-30.4 12.6Z" style="fill:#fff"/><path d="m338.6 406.9 41.8-43.4M365.5 378.9l-.8-9.7M358.7 386.2l15.8-3.2M354.6 390.2l-1.1-14.5M349.4 395.9l14.4.5M344.8 400.7l-1.5-10.7" style="fill:#000000"/></g><path d="M278.5 101c0 23.9 19.2 43.2 19.2 43.2s18.8-19.5 18.8-43.4-19.2-43.3-19.2-43.3-19 19.5-18.8 43.4Z" style="fill:#fa5951"/><path d="m297.6 144.2-.3-86.7M297.4 88.3l-10.7-9.2M297.6 102.6l13.1-19.1M297.5 110.9 281.8 97M297.7 122l15.5-13.9M297.8 131.7l-12.2-9.6" style="fill:#000000;stroke:#fff;stroke-miterlimit:10;stroke-width:.9938565432589912px"/><path d="M265.5 138c9.3 10.3 25 11.3 25 11.3s.7-15.7-8.6-26-25-11.4-25-11.4-.7 15.7 8.6 26Z" style="fill:#fa5951"/><path d="m290.5 149.3-33.6-37.4M268.9 125.2l-8.2.1M274.5 131.3l-1.7-13.3M277.6 134.9l-12.2.1M282 139.7l1.3-12M285.7 143.8l-9 .6" style="fill:#000000;stroke:#fff;stroke-miterlimit:10;stroke-width:.9938565432589912px"/><path d="M313.8 122.8c-9.6 10-9.5 25.7-9.5 25.7s15.7-.5 25.3-10.5 9.5-25.7 9.5-25.7-15.7.5-25.3 10.5Z" style="fill:#fa5951"/><path d="m304.3 148.5 34.8-36.2M326.8 125.2l-.8-8.2M321.1 131.2l13.1-2.7M317.7 134.6l-1-12.2M313.3 139.3l12 .5M309.4 143.3l-1.2-8.9" style="fill:#000000;stroke:#fff;stroke-miterlimit:10;stroke-width:.9938565432589912px"/><g style="opacity:.4000000059604645"><path d="M278.5 101c0 23.9 19.2 43.2 19.2 43.2s18.8-19.5 18.8-43.4-19.2-43.3-19.2-43.3-19 19.5-18.8 43.4Z" style="fill:#fff"/><path d="m297.6 144.2-.3-86.7M297.4 88.3l-10.7-9.2M297.6 102.6l13.1-19.1M297.5 110.9 281.8 97M297.7 122l15.5-13.9M297.8 131.7l-12.2-9.6" style="fill:#000000"/><path d="M265.5 138c9.3 10.3 25 11.3 25 11.3s.7-15.7-8.6-26-25-11.4-25-11.4-.7 15.7 8.6 26Z" style="fill:#fff"/><path d="m290.5 149.3-33.6-37.4M268.9 125.2l-8.2.1M274.5 131.3l-1.7-13.3M277.6 134.9l-12.2.1M282 139.7l1.3-12M285.7 143.8l-9 .6" style="fill:#000000"/><path d="M313.8 122.8c-9.6 10-9.5 25.7-9.5 25.7s15.7-.5 25.3-10.5 9.5-25.7 9.5-25.7-15.7.5-25.3 10.5Z" style="fill:#fff"/><path d="m304.3 148.5 34.8-36.2M326.8 125.2l-.8-8.2M321.1 131.2l13.1-2.7M317.7 134.6l-1-12.2M313.3 139.3l12 .5M309.4 143.3l-1.2-8.9" style="fill:#000000"/></g><path d="M144 370.2c.1 18.6 15 33.7 15 33.7s14.7-15.2 14.6-33.8-15-33.8-15-33.8-14.6 15.2-14.5 33.9Z" style="fill:#fa5951"/><path d="m159 403.9-.3-67.6M158.8 360.4l-8.3-7.2M159 371.5l10.2-14.9M158.9 377.9l-12.3-10.8M159.1 386.6l12-10.8M159.1 394.1l-9.5-7.4" style="fill:#000000;stroke:#fff;stroke-miterlimit:10;stroke-width:.9938565432589912px"/><path d="M134 399c7.2 8 19.4 8.8 19.4 8.8s.6-12.2-6.6-20.3-19.4-8.8-19.4-8.8-.7 12.2 6.6 20.3Z" style="fill:#fa5951"/><path d="m153.4 407.9-26.1-29.2M136.6 389.1h-6.4M140.9 393.8l-1.3-10.3M143.4 396.7h-9.5M146.8 400.4l1-9.4M149.7 403.6l-7 .4" style="fill:#000000;stroke:#fff;stroke-miterlimit:10;stroke-width:.9938565432589912px"/><path d="M171.6 387.2c-7.5 7.8-7.4 20-7.4 20s12.2-.3 19.7-8.1 7.4-20.1 7.4-20.1-12.2.4-19.7 8.2Z" style="fill:#fa5951"/><path d="m164.2 407.2 27.1-28.2M181.7 389.1l-.6-6.4M177.2 393.8l10.3-2.1M174.6 396.4l-.7-9.5M171.2 400.1l9.3.3M168.1 403.2l-.9-6.9" style="fill:#000000;stroke:#fff;stroke-miterlimit:10;stroke-width:.9938565432589912px"/><g style="opacity:.4000000059604645"><path d="M144 370.2c.1 18.6 15 33.7 15 33.7s14.7-15.2 14.6-33.8-15-33.8-15-33.8-14.6 15.2-14.5 33.9Z" style="fill:#fff"/><path d="m159 403.9-.3-67.6M158.8 360.4l-8.3-7.2M159 371.5l10.2-14.9M158.9 377.9l-12.3-10.8M159.1 386.6l12-10.8M159.1 394.1l-9.5-7.4" style="fill:#000000"/><path d="M134 399c7.2 8 19.4 8.8 19.4 8.8s.6-12.2-6.6-20.3-19.4-8.8-19.4-8.8-.7 12.2 6.6 20.3Z" style="fill:#fff"/><path d="m153.4 407.9-26.1-29.2M136.6 389.1h-6.4M140.9 393.8l-1.3-10.3M143.4 396.7h-9.5M146.8 400.4l1-9.4M149.7 403.6l-7 .4" style="fill:#000000"/><path d="M171.6 387.2c-7.5 7.8-7.4 20-7.4 20s12.2-.3 19.7-8.1 7.4-20.1 7.4-20.1-12.2.4-19.7 8.2Z" style="fill:#fff"/><path d="m164.2 407.2 27.1-28.2M181.7 389.1l-.6-6.4M177.2 393.8l10.3-2.1M174.6 396.4l-.7-9.5M171.2 400.1l9.3.3M168.1 403.2l-.9-6.9" style="fill:#000000"/></g><path d="m132.5 88.2-13 11.3 11.8 37.5 27.2-.5 6.1-46-19.3-5.3-12.8 3z" style="fill:#fff"/><g style="clip-path:url(#a)"><path d="M155 91.5c-2.3-.5-5.9-1.8-5.9-1.8s-14.6-.3-16.9 9.2l-.7 3.8 3.8-1-4.9 7.5c-.5.7-1-6.4-2-5.7S125 114 125 114l1.5 8 4.7 15 27.2-.5L164 96a51 51 0 0 0-8.9-4.4Z" style="fill:#fa5951;opacity:.5;isolation:isolate"/></g><path d="m132.5 88.2-13 11.3 11.8 37.5 27.2-.5 6.1-46-19.3-5.3-12.8 3z" style="fill:#000000;stroke:#263238;stroke-linecap:round;stroke-linejoin:round;stroke-width:.8297007805211063px"/><path d="m134.9 96.1 4.4 5.2-1.1 31.5 4.3 5.7 4.4-8.5-6.2-28.7 3.6-6.1-1.5-5-7.9 5.9z" style="fill:#263238;stroke:#263238;stroke-linecap:round;stroke-linejoin:round;stroke-width:.8297007805211063px"/><path d="M131.3 87a24.6 24.6 0 0 0-1 6.7 30 30 0 0 0 1.4 7.7s3.3-4.2 5.5-5 6.7-1.3 8.2-.7 5.1 3 5.1 3a26.7 26.7 0 0 0-1.6-10.2c-2-4.9-2.8-6.7-4.1-7.2s-11.2-1.1-13.5 5.7Z" style="fill:#fff;stroke:#263238;stroke-linecap:round;stroke-linejoin:round;stroke-width:.8297007805211063px"/><path d="m119.5 99.5-10.1 25.9s7.9 4.6 8 4 8.1-11 8.1-11Z" style="fill:#fff"/><g style="clip-path:url(#b)"><path d="M121.8 113.5s-6.6-2.6-4.9-1a64.9 64.9 0 0 1 4.9 5.3l-6.2 3.1 4.3 5 5.6-7.4-4.2-13.6-.3.1Z" style="fill:#fa5951;opacity:.5;isolation:isolate"/></g><path d="m119.5 99.5-10.1 25.9s7.9 4.6 8 4 8.1-11 8.1-11Z" style="fill:#000000;stroke:#263238;stroke-linecap:round;stroke-linejoin:round;stroke-width:.8297007805211063px"/><path d="m164.6 90.5 24.8 19.9-9.6 5.7-17.2-9.9 2-15.7z" style="fill:#fff"/><g style="clip-path:url(#c)"><path d="m181.1 113.2-8.4-6.1s3.8-.8 4.6-1.8-9-.8-9-.8l3-4-5.8 2v-2.6l-1.6-4-1.3 10.3 17.1 9.9 1.5-.9Z" style="fill:#fa5951;opacity:.5;isolation:isolate"/></g><path d="m164.6 90.5 24.8 19.9-9.6 5.7-17.2-9.9 2-15.7z" style="fill:#000000;stroke:#263238;stroke-linecap:round;stroke-linejoin:round;stroke-width:.8297007805211063px"/><path d="M131.3 87s2.1 5.7 4.6 8 4.6 1.8 6.2-.3 3.5-9.2 4-9.5 2.3-2 2.3-3.6-2.2-.9-2.5-.2l-.3.7-1.7-3.5a33.3 33.3 0 0 1-2.8 5.5c-1.3 1.9-1.6 3.2-2.9 2.2s-2.3-2.5-3.3-.8-3.6 1.5-3.6 1.5Z" style="fill:#fff;stroke:#263238;stroke-linecap:round;stroke-linejoin:round;stroke-width:.8297007805211063px"/><path d="m145.9 81.5-.3.6-1.7-3.4a33.3 33.3 0 0 1-2.8 5.5c-1.3 1.8-1.6 3.1-2.9 2.2s-2.3-2.5-3.3-.9-3.6 1.5-3.6 1.5l1.3 3c4.2.2 11-.2 12.6-4.8v2a6.8 6.8 0 0 1 .8-2c.5-.3 2.3-2 2.3-3.6s-2-.8-2.4-.1Z" style="fill:#fa5951;opacity:.5;isolation:isolate"/><path d="M133.2 89s2.3 1 3.1.3c0 0 .2 4.5 1.3 4.1l1.5-1M139.7 89s1.2 1 3-.6M138.9 88.2s0-2.5 3.9-2.2M136.3 89.3a3.7 3.7 0 0 0-2.6-2.7M136.8 94.2a3.2 3.2 0 0 0 3.7-.8" style="fill:#000000;stroke:#263238;stroke-linecap:round;stroke-linejoin:round;stroke-width:.5531338536807375px"/><path d="M147.5 81.6s4.6-4.7 2-10.2c-1.5-3.6-1.8-3.5-5.7-7.6s-12-2-14.7 1-.9 8-1.9 8.7-7.3 2.5-7 5 7 3.7 6.2 4.5-6.2.6-3.7 2.7 9.7 3.2 15.6.7 5.5-6 5.5-6 .7 4 3.7 1.2Z" style="fill:#263238;stroke:#263238;stroke-linecap:round;stroke-linejoin:round;stroke-width:.8297007805211063px"/><path d="M133 86s3.6.6 7.7-2.7 1.2-7.8 1.2-7.8M144.5 72.2s2.3 7.2.2 9.1M126.4 83s6.6 1.5 10-2.2" style="fill:#000000;stroke:#fff;stroke-linecap:round;stroke-linejoin:round;stroke-width:.5531338536807375px"/><path d="M111.3 128.8s-5-1-4.1-3.8 0-5.8 6-5.3 8.6 2 8.6 4.7-.8 7.5-4.1 6.1a24 24 0 0 0-6.4-1.7Z" style="fill:#fff;stroke:#263238;stroke-linecap:round;stroke-linejoin:round;stroke-width:.8297007805211063px"/><path d="m169.6 101.7-7 4.5 12.2-2.8M124.8 116.9l-5.5-5.3M122.3 115.9l-3.7-1.9M157.9 109.2l-6.5.2v2h6.1" style="fill:#000000;stroke:#263238;stroke-linecap:round;stroke-linejoin:round;stroke-width:.5531338536807375px"/><path d="M110.3 126.8s-3.1-1.6-1.8-2.6a9.6 9.6 0 0 1 6.6-1.3 17.6 17.6 0 0 1 3.8 1.6s-3.3-2.6-1.3-2.6 3.4 2.6 2.6 5.1-3.8 1.8-3.8 1.8Z" style="fill:#fa5951;opacity:.5;isolation:isolate"/><path d="M258.3 387.5v-35.9h-57.8v35.9a23.2 23.2 0 0 1-6.7 16.4l-13.2 13.3h97.6l-13.1-13.3a23.2 23.2 0 0 1-6.8-16.4Z" style="fill:#fff;stroke:#263238;stroke-linecap:round;stroke-linejoin:round;stroke-width:1.106267707361475px"/><path d="M200.6 351.6v35.9a23.1 23.1 0 0 1-1.5 8.1h60.7a23.3 23.3 0 0 1-1.5-8.1v-35.9Z" style="fill:#fa5951;opacity:.4399999976158142;isolation:isolate"/><path d="M200.6 353.2h57.7v26.6h-57.7z" style="fill:#263238;stroke:#263238;stroke-miterlimit:10;stroke-width:1.106267707361475px"/><path d="M180.6 417.2h97.5v1.9h-97.5z" style="fill:#fff;stroke:#263238;stroke-linecap:round;stroke-linejoin:round;stroke-width:1.106267707361475px"/><path d="M89.4 132h280a13.5 13.5 0 0 1 13.6 13.6v209a14.7 14.7 0 0 1-14.7 14.7H90.6a14.7 14.7 0 0 1-14.7-14.7v-209A13.5 13.5 0 0 1 89.4 132Z" style="fill:#263238;stroke:#263238;stroke-miterlimit:10;stroke-width:1.106267707361475px"/><path d="M75.9 341.8H383v12.8a14.7 14.7 0 0 1-14.7 14.7H90.6a14.7 14.7 0 0 1-14.7-14.7v-12.8Z" style="fill:#fff;stroke:#263238;stroke-miterlimit:10;stroke-width:1.106267707361475px"/><path d="M120.5 147h274.6v183.1H120.5z" style="fill:#fff;stroke:#263238;stroke-linecap:round;stroke-linejoin:round;stroke-width:.8297007805211063px"/><path d="M120.5 147h274.6v59.3H120.5zM148.5 317.7h-11V221h11Zm21.6-96.8h-11v96.8h11.1Zm21.7 0h-11v96.8h11Zm21.7 0h-11v96.8h11Zm21.7 0h-11v96.8h11Zm21.7 0h-11.1v96.8h11Zm21.7 0h-11.1v96.8h11Zm21.6 0h-11v96.8h11Zm21.7 0h-11v96.8h11Zm21.7 0h-11v96.8h11Z" style="fill:#fa5951"/><path d="M148.5 317.7h-11V221h11Zm21.6-96.8h-11v96.8h11.1Zm21.7 0h-11v96.8h11Zm21.7 0h-11v96.8h11Zm21.7 0h-11v96.8h11Zm21.7 0h-11.1v96.8h11Zm21.7 0h-11.1v96.8h11Zm21.6 0h-11v96.8h11Zm21.7 0h-11v96.8h11Zm21.7 0h-11v96.8h11Z" style="fill:#fff;opacity:.4000000059604645;isolation:isolate"/><path d="M206.1 169.2h-72.7a2.4 2.4 0 0 1-2.4-2.4h0a2.4 2.4 0 0 1 2.4-2.5h72.7a2.4 2.4 0 0 1 2.5 2.5h0a2.4 2.4 0 0 1-2.5 2.4Z" style="fill:#fff;stroke:#263238;stroke-linecap:round;stroke-linejoin:round;stroke-width:.8297007805211063px"/><path d="M184.1 169.2h-50.7a2.4 2.4 0 0 1-2.4-2.4h0a2.4 2.4 0 0 1 2.4-2.5h50.7Z" style="fill:#263238;stroke:#263238;stroke-linecap:round;stroke-linejoin:round;stroke-width:1.106267707361475px"/><path d="M206.1 178.7h-72.7a2.4 2.4 0 0 1-2.4-2.4h0a2.4 2.4 0 0 1 2.4-2.4h72.7a2.4 2.4 0 0 1 2.5 2.4h0a2.4 2.4 0 0 1-2.5 2.4Z" style="fill:#fff;stroke:#263238;stroke-linecap:round;stroke-linejoin:round;stroke-width:.8297007805211063px"/><path d="M193.5 178.7h-60a2.4 2.4 0 0 1-2.5-2.4h0a2.4 2.4 0 0 1 2.5-2.4h60Z" style="fill:#263238;stroke:#263238;stroke-linecap:round;stroke-linejoin:round;stroke-width:1.106267707361475px"/><path d="M206.1 188.3h-72.7a2.4 2.4 0 0 1-2.4-2.5h0a2.4 2.4 0 0 1 2.4-2.4h72.7a2.4 2.4 0 0 1 2.5 2.5h0a2.4 2.4 0 0 1-2.5 2.4Z" style="fill:#fff;stroke:#263238;stroke-linecap:round;stroke-linejoin:round;stroke-width:.8297007805211063px"/><path d="M171.2 188.3h-37.8a2.4 2.4 0 0 1-2.4-2.5h0a2.4 2.4 0 0 1 2.4-2.4h37.8Z" style="fill:#263238;stroke:#263238;stroke-linecap:round;stroke-linejoin:round;stroke-width:1.106267707361475px"/><path d="M206.1 197.7h-72.7a2.4 2.4 0 0 1-2.4-2.4h0a2.5 2.5 0 0 1 2.4-2.4h72.7a2.4 2.4 0 0 1 2.5 2.4h0a2.4 2.4 0 0 1-2.5 2.4Z" style="fill:#fff;stroke:#263238;stroke-linecap:round;stroke-linejoin:round;stroke-width:.8297007805211063px"/><path d="M203.5 197.7h-70a2.4 2.4 0 0 1-2.5-2.4h0a2.5 2.5 0 0 1 2.4-2.4h70.1Z" style="fill:#263238;stroke:#263238;stroke-linecap:round;stroke-linejoin:round;stroke-width:1.106267707361475px"/><path d="M131.5 317.7h217.9M153.3 317.7v-2.2M175.1 317.7v-2.2M196.9 317.7v-2.2M218.7 317.7v-2.2M240.5 317.7v-2.2M262.3 317.7v-2.2M284.1 317.7v-2.2M305.9 317.7v-2.2M327.6 317.7v-2.2M349.4 317.7v-2.2M131.5 317.7V221.3M131.5 309.1h5.5M131.5 294.4h5.5M131.5 279.8h5.5M131.5 265.2h5.5M131.5 250.6h5.5M131.5 235.9h5.5M131.5 221.3h5.5" style="fill:#000000;stroke:#263238;stroke-linecap:round;stroke-linejoin:round;stroke-width:.8297007805211063px"/><path d="M353.4 162.5h35.5v36.6h-35.5z" style="fill:#fff;stroke:#263238;stroke-linecap:round;stroke-linejoin:round;stroke-width:.8297007805211063px"/><path d="M353.4 162.5h35.5v6.3h-35.5z" style="fill:#263238;stroke:#263238;stroke-linecap:round;stroke-linejoin:round;stroke-width:1.0078640977828122px"/><path d="M356.7 173.9v20.8M361.5 173.9v20.8M366.3 173.9v20.8M371.1 173.9v20.8M375.9 173.9v20.8M380.7 173.9v20.8M385.5 173.9v20.8M385.2 176.7h-28.4M385.2 180.5h-28.4M385.2 184.3h-28.4M385.2 188.2h-28.4M385.2 192h-28.4" style="fill:#000000;stroke:#263238;stroke-linecap:round;stroke-linejoin:round;stroke-width:.8297007805211063px"/><path d="m164.2 273.8-21.8 43.9M186 303.1l-21.8-29.3M207.8 279.7 186 303.1M229.6 229.9l-21.8 49.8M251.4 244.6l-21.8-14.7M273.2 295.8l-21.8-51.2M294.9 291.4l-21.7 4.4M316.8 285.5l-21.9 5.9M338.5 259.2l-21.7 26.3" style="fill:#000000;stroke:#263238;stroke-linecap:round;stroke-linejoin:round;stroke-width:2.21253541472295px"/><path d="M142.4 315.5h0a2.3 2.3 0 0 1 2.3 2.3h0a2.3 2.3 0 0 1-2.3 2.3h0a2.3 2.3 0 0 1-2.3-2.3h0a2.3 2.3 0 0 1 2.3-2.3ZM164.2 271.6h0a2.3 2.3 0 0 1 2.3 2.2h0a2.3 2.3 0 0 1-2.3 2.3h0a2.3 2.3 0 0 1-2.3-2.3h0a2.3 2.3 0 0 1 2.3-2.3ZM186 300.8h0a2.3 2.3 0 0 1 2.3 2.3h0a2.3 2.3 0 0 1-2.3 2.3h0a2.3 2.3 0 0 1-2.3-2.3h0a2.3 2.3 0 0 1 2.3-2.3ZM207.9 277.4h0a2.3 2.3 0 0 1 2.2 2.3h0a2.3 2.3 0 0 1-2.2 2.3h0a2.3 2.3 0 0 1-2.3-2.3h0a2.3 2.3 0 0 1 2.3-2.3ZM229.6 227.6h0a2.3 2.3 0 0 1 2.3 2.3h0a2.3 2.3 0 0 1-2.3 2.3h0a2.3 2.3 0 0 1-2.3-2.3h0a2.3 2.3 0 0 1 2.3-2.3ZM251.4 242.3h0a2.3 2.3 0 0 1 2.3 2.3h0a2.3 2.3 0 0 1-2.3 2.3h0a2.3 2.3 0 0 1-2.3-2.3h0a2.3 2.3 0 0 1 2.3-2.3ZM273.1 293.5h0a2.3 2.3 0 0 1 2.3 2.3h0a2.3 2.3 0 0 1-2.3 2.3h0a2.3 2.3 0 0 1-2.3-2.3h0a2.3 2.3 0 0 1 2.3-2.3ZM295 289.1h0a2.3 2.3 0 0 1 2.3 2.3h0a2.3 2.3 0 0 1-2.3 2.3h0a2.3 2.3 0 0 1-2.3-2.3h0a2.3 2.3 0 0 1 2.3-2.3ZM316.8 283.3h0a2.3 2.3 0 0 1 2.2 2.2h0a2.3 2.3 0 0 1-2.3 2.3h0a2.3 2.3 0 0 1-2.2-2.3h0a2.3 2.3 0 0 1 2.3-2.3ZM338.5 257h0a2.3 2.3 0 0 1 2.3 2.2h0a2.3 2.3 0 0 1-2.3 2.3h0a2.3 2.3 0 0 1-2.3-2.3h0a2.3 2.3 0 0 1 2.3-2.3ZM170.4 263.7h-12a3 3 0 0 1-3-3h0a3 3 0 0 1 3-3h12a3 3 0 0 1 3 3v0h0a3 3 0 0 1-3 3Z" style="fill:#fff;stroke:#263238;stroke-linecap:round;stroke-linejoin:round;stroke-width:.8297007805211063px"/><path d="M164.2 271.6v-7.7" style="fill:#000000;stroke:#263238;stroke-linecap:round;stroke-linejoin:round;stroke-width:.8297007805211063px"/><path d="M235.5 219.8h-12a3 3 0 0 1-3-3h0a3 3 0 0 1 3-3h12a3 3 0 0 1 3 3h0a3 3 0 0 1-3 3Z" style="fill:#fff;stroke:#263238;stroke-linecap:round;stroke-linejoin:round;stroke-width:.8297007805211063px"/><path d="M229.3 227.7v-7.6" style="fill:#000000;stroke:#263238;stroke-linecap:round;stroke-linejoin:round;stroke-width:.8297007805211063px"/><path d="M344.2 248.7h-11.9a3 3 0 0 1-3-3h0a3 3 0 0 1 3-3h12a3 3 0 0 1 3 2.9v0h0a3 3 0 0 1-3 3Z" style="fill:#fff;stroke:#263238;stroke-linecap:round;stroke-linejoin:round;stroke-width:.8297007805211063px"/><path d="M338 256.6v-7.7" style="fill:#000000;stroke:#263238;stroke-linecap:round;stroke-linejoin:round;stroke-width:.8297007805211063px"/><path d="M238.7 162.5a17.2 17.2 0 1 0 17.2 17.2h0a17.2 17.2 0 0 0-17.2-17.2Zm0 29.4a12.2 12.2 0 1 1 12.2-12.2 12.2 12.2 0 0 1-12.2 12.2Z" style="fill:#fff;stroke:#263238;stroke-linecap:round;stroke-linejoin:round;stroke-width:.8297007805211063px"/><path d="M238.7 162.5a17 17 0 0 0-12.4 5.3l3.6 3.5a12 12 0 0 1 8.8-3.7 12.2 12.2 0 1 1 0 24.3h0v5a17.2 17.2 0 0 0 .9-34.4h-1Z" style="fill:#263238;stroke:#263238;stroke-linecap:round;stroke-linejoin:round;stroke-width:1.0078640977828122px"/><path d="M233.9 178.8h9.6M233.9 180.6h9.6M132.3 159h9.6M132.3 160.8h9.6M144.2 159h9.6M144.2 160.8h9.6M156 159h9.6M156 160.8h9.6M132.3 212.2h9.6M132.3 214h9.6M144.2 212.2h9.6M144.2 214h9.6M156 212.2h9.6M156 214h9.6M355.7 221.3h9.6M367.6 221.3h9.5M379.4 221.3h9.5M355.7 223.6h9.6M367.6 223.6h9.5M379.4 223.6h9.5M355.7 225.8h9.6M367.6 225.8h9.5M379.4 225.8h9.5M355.7 228h9.6M367.6 228h9.5M379.4 228h9.5M355.7 230.3h9.6M367.6 230.3h9.5M379.4 230.3h9.5M355.7 232.5h9.6M367.6 232.5h9.5M379.4 232.5h9.5M355.7 234.7h9.6M367.6 234.7h9.5M379.4 234.7h9.5M355.7 237h9.6M367.6 237h9.5M379.4 237h9.5M355.7 239.2h9.6M367.6 239.2h9.5M379.4 239.2h9.5M355.7 241.4h9.6M367.6 241.4h9.5M379.4 241.4h9.5M355.7 243.7h9.6M367.6 243.7h9.5M379.4 243.7h9.5M355.7 245.9h9.6M367.6 245.9h9.5M379.4 245.9h9.5M355.7 248.1h9.6M367.6 248.1h9.5M379.4 248.1h9.5M355.7 250.3h9.6M367.6 250.3h9.5M379.4 250.3h9.5M355.7 252.6h9.6M367.6 252.6h9.5M379.4 252.6h9.5" style="fill:#000000;stroke:#263238;stroke-linecap:round;stroke-linejoin:round;stroke-width:.8297007805211063px"/><path d="M279 162.5a17.2 17.2 0 1 0 17.2 17.2h0a17.2 17.2 0 0 0-17.2-17.2Zm0 29.4a12.2 12.2 0 1 1 12.2-12.2 12.2 12.2 0 0 1-12.2 12.2Z" style="fill:#fff;stroke:#263238;stroke-linecap:round;stroke-linejoin:round;stroke-width:.8297007805211063px"/><path d="m290.8 176.8 4.8-1.7a17.2 17.2 0 0 0-29-7.3l3.7 3.5a12.1 12.1 0 0 1 20.5 5.5Z" style="fill:#263238;stroke:#263238;stroke-linecap:round;stroke-linejoin:round;stroke-width:1.0078640977828122px"/><path d="M274 178.8h9.6M274 180.6h9.6" style="fill:#000000;stroke:#263238;stroke-linecap:round;stroke-linejoin:round;stroke-width:.8297007805211063px"/><path d="M334.7 169.3a17.2 17.2 0 1 0-3.2 24 17.2 17.2 0 0 0 3.2-24Zm-23.3 17.8a12.2 12.2 0 1 1 17 2.3h0a12.2 12.2 0 0 1-17-2.3Z" style="fill:#fff;stroke:#263238;stroke-linecap:round;stroke-linejoin:round;stroke-width:.8297007805211063px"/><path d="m330.5 187.3 4.3 2.7a17.2 17.2 0 0 0-11.8-27.4l-.6 5a12.2 12.2 0 0 1 8 19.7Z" style="fill:#263238;stroke:#263238;stroke-linecap:round;stroke-linejoin:round;stroke-width:1.0078640977828122px"/><path d="M316 178.8h9.6M316 180.6h9.6" style="fill:#000000;stroke:#263238;stroke-linecap:round;stroke-linejoin:round;stroke-width:.8297007805211063px"/><path d="M385.6 289.5a17.2 17.2 0 1 0-3.2 24.1 17.2 17.2 0 0 0 3.2-24Zm-23.3 17.8a12.2 12.2 0 1 1 17 2.3h0a12.2 12.2 0 0 1-17-2.3Z" style="fill:#fa5951;stroke:#263238;stroke-linecap:round;stroke-linejoin:round;stroke-width:1.106267707361475px"/><path d="m381.4 307.6 4.3 2.7a17.2 17.2 0 0 0-11.8-27.4l-.6 5a12.2 12.2 0 0 1 8 19.7Z" style="fill:#263238;stroke:#263238;stroke-linecap:round;stroke-linejoin:round;stroke-width:1.0078640977828122px"/><path d="M366.9 299h9.6M366.9 300.8h9.6" style="fill:#000000;stroke:#263238;stroke-linecap:round;stroke-linejoin:round;stroke-width:.8297007805211063px"/><path d="M185.6 107s-6.1 2.4-7.9 5.5c-1.1 1.9-.1 5.9 4.3 7.4 1.8.7 4.5-.2 7.6-1.3s.4-13-4-11.5Z" style="fill:#fff;stroke:#263238;stroke-linecap:round;stroke-linejoin:round;stroke-width:.8297007805211063px"/><path d="M183.5 119s-4-1-4-4.2 5.4-5.4 7-5.4 2.2 1.5 2.2 4-3 6.4-5.2 5.5Z" style="fill:#fa5951;opacity:.5;isolation:isolate"/><path d="m109.4 125.4 10.8 35-1.4 7.9 4 5.7 1.5-.7.7-5.4v-4.3l1.8 5.8 1.8-1.2-1.1-8.2-3.6-5.8-5-27.3s-4.9-2.5-9.5-1.5Z" style="fill:#fff;stroke:#263238;stroke-linecap:round;stroke-linejoin:round;stroke-width:.8297007805211063px"/><path d="m122.6 173.5-2.8-6.3M124.2 173.3l-2.3-7.5" style="fill:#000000;stroke:#263238;stroke-linecap:round;stroke-linejoin:round;stroke-width:.5531338536807375px"/><path d="m189.7 112 19.7 24.8 6 5.2.7 7-1.6.3-4-3.7-2.7-3.3 2.2 5.5-2 .3-4.4-7.1v-4.9l-20-17.2c-1.7-1.4-1.4-5.7.5-6.8a6.3 6.3 0 0 1 5.6 0Z" style="fill:#fff;stroke:#263238;stroke-linecap:round;stroke-linejoin:round;stroke-width:.8297007805211063px"/><path d="m215.4 149.2-4.8-8.4M215.3 146.2l-2.2-4.7" style="fill:#000000;stroke:#263238;stroke-linecap:round;stroke-linejoin:round;stroke-width:.5531338536807375px"/></svg>