<svg xmlns="http://www.w3.org/2000/svg" viewBox="0 0 500 500"><defs fill="#000000"><clipPath id="a" fill="#000000"><path d="M184.2 292.5v9.9a2.6 2.6 0 0 1-1.2 2l-10.3 6c-.7.4-1.2 0-1.2-.6v-10a2.6 2.6 0 0 1 1.2-2l10.3-6c.7-.4 1.2 0 1.2.7Z" style="fill:#fa5951"/></clipPath></defs><path d="M224.2 27.3 96.5 101a10.3 10.3 0 0 0-4.6 8v288c0 3 2 4.2 4.6 2.7l127.7-73.8a10.3 10.3 0 0 0 4.6-8V30c0-3-2-4.2-4.6-2.7Zm-2 264c0 2.6-1.8 4.2-4 5.5l-116 67c-2.3 1.2-4 .2-4-2.3V136a8.8 8.8 0 0 1 4-7l116-67c2.2-1.3 4-.3 4 2.3Z" style="fill:#fa5951"/><path d="M224.2 27.3 96.5 101a10.3 10.3 0 0 0-4.6 8v288c0 3 2 4.2 4.6 2.7l127.7-73.8a10.3 10.3 0 0 0 4.6-8V30c0-3-2-4.2-4.6-2.7Zm-2 264c0 2.6-1.8 4.2-4 5.5l-116 67c-2.3 1.2-4 .2-4-2.3V136a8.8 8.8 0 0 1 4-7l116-67c2.2-1.3 4-.3 4 2.3Z" style="fill:#fff;opacity:.75"/><path d="M96 400a10.4 10.4 0 0 1-8.7-.4l-5.3-3a10.2 10.2 0 0 1-4.7-8v-288a8.8 8.8 0 0 1 .8-3.4l.6-1.2 14.6 8.5a13.2 13.2 0 0 0-.8 1.7 8.6 8.6 0 0 0-.6 2.8v288c0 2.7 1.8 4 4.1 3Z" style="fill:#fa5951"/><path d="M96 400a10.4 10.4 0 0 1-8.7-.4l-5.3-3a10.2 10.2 0 0 1-4.7-8v-288a8.8 8.8 0 0 1 .8-3.4l.6-1.2 14.6 8.5a13.2 13.2 0 0 0-.8 1.7 8.6 8.6 0 0 0-.6 2.8v288c0 2.7 1.8 4 4.1 3Z" style="fill:#fff;opacity:.6000000000000001"/><path d="M158.2 355.9a4.2 4.2 0 0 1-2.1-.6c-1.6-.9-2.4-2.7-2.4-5.1a16.7 16.7 0 0 1 7.5-13.1c2.1-1.2 4.2-1.4 5.7-.5s2.4 2.7 2.4 5.1a16.7 16.7 0 0 1-7.6 13.1 7.1 7.1 0 0 1-3.5 1Zm6.5-19a6.1 6.1 0 0 0-3 1 15.7 15.7 0 0 0-7 12.3c0 2 .6 3.6 1.9 4.3s2.9.5 4.7-.5a15.7 15.7 0 0 0 7-12.3c0-2-.6-3.6-1.9-4.3a3.4 3.4 0 0 0-1.7-.5ZM160.4 70.3c1.7-1 3-.1 3 1.8a6.9 6.9 0 0 1-3 5.4c-1.8 1-3.1.2-3.1-1.8a6.9 6.9 0 0 1 3-5.4ZM148.3 89.3l24-13.9c1.5-.8 2.6-.2 2.6 1.3a5.6 5.6 0 0 1-2.5 4.3l-24 13.9c-1.5.8-2.6.2-2.6-1.3a5.6 5.6 0 0 1 2.5-4.3ZM222.2 291.4c0 2.5-1.8 4.1-4 5.4l-116.1 67c-2.2 1.2-4 .2-4-2.3V136a8.8 8.8 0 0 1 4-7l116-67c2.3-1.3 4-.3 4 2.3Z" style="fill:#455a64"/><path d="M228.8 29.2c-.3-2.4-2.3-3.3-4.6-2L96.5 101a9.4 9.4 0 0 0-3.3 3.5L78.6 96a9.5 9.5 0 0 1 3.3-3.5L209.6 19a10.3 10.3 0 0 1 9.3 0l5.3 3a10.4 10.4 0 0 1 4.6 7.3Z" style="fill:#fa5951"/><path d="M228.8 29.2c-.3-2.4-2.3-3.3-4.6-2L96.5 101a9.4 9.4 0 0 0-3.3 3.5L78.6 96a9.5 9.5 0 0 1 3.3-3.5L209.6 19a10.3 10.3 0 0 1 9.3 0l5.3 3a10.4 10.4 0 0 1 4.6 7.3Z" style="fill:#fff;opacity:.9"/><path d="M122 134.4a.3.3 0 0 1 0-.2v-1l-1.6.8-.1-.1v-.3a1 1 0 0 1 0-.2 1 1 0 0 1 0-.2l1.6-4.4a1 1 0 0 1 0-.1.3.3 0 0 1 .2-.1l.2-.2h.1V132l.3-.2h.2v.5a.6.6 0 0 1 0 .2.2.2 0 0 1-.2.1l-.3.2v1a.6.6 0 0 1 0 .3.3.3 0 0 1-.1.1l-.3.2Zm0-2V130l-1.1 3ZM123.7 132.8a3.1 3.1 0 0 1-.4-2 6.1 6.1 0 0 1 .4-2.5 3 3 0 0 1 1.2-1.5 2 2 0 0 1 .6-.2.7.7 0 0 1 .5 0 .1.1 0 0 1 0 .1.9.9 0 0 1 0 .1l-.1.5a.4.4 0 0 1 0 .1h-.1a.8.8 0 0 0-.8.2 2.1 2.1 0 0 0-.9 1 4.8 4.8 0 0 0-.3 1.8 2.5 2.5 0 0 0 .3 1.5c.2.2.5.2.9 0a2.3 2.3 0 0 0 .3-.2 1.7 1.7 0 0 0 .3-.4v-1.5l-.6.3h-.1a.3.3 0 0 1 0-.2v-.2a.6.6 0 0 1 0-.2.3.3 0 0 1 .1-.2l1-.5h.1a.4.4 0 0 1 0 .2v2.2a.8.8 0 0 1 0 .2.2.2 0 0 1 0 .2 3 3 0 0 1-1.1 1.2c-.6.3-1 .3-1.3 0ZM210.9 76c-.2-.3-.4-.3-.6-.2l-6 3.4a2.3 2.3 0 0 0-.7 1.9v3.3a2 2 0 0 0 .3 1 .7.7 0 0 0 .2.3.4.4 0 0 0 .4 0l6-3.4a2.3 2.3 0 0 0 .7-1.8V77a2 2 0 0 0-.3-1.1Zm-6.8 9a1 1 0 0 1-.1-.5v-3.3a1.8 1.8 0 0 1 .5-1.3l6-3.5a.2.2 0 0 1 .2 0 .3.3 0 0 1 0 .1 1 1 0 0 1 .2.5v3.3a1.8 1.8 0 0 1-.6 1.4l-6 3.5-.2-.1Z" style="fill:#fafafa"/><path d="M210.2 77.5v2.8a1.5 1.5 0 0 1-.7 1.3l-5 2.8a.1.1 0 0 1-.1-.1v-3a1.4 1.4 0 0 1 .4-1l5.2-3a.1.1 0 0 1 .2.2ZM211.4 77c.1-.1.3.4.3 1v.7a2.4 2.4 0 0 1-.3 1.4l-.3.3v-3.2ZM132.3 127.1a2.3 2.3 0 0 1-.9 1.9c-.5.2-.9-.2-.9-.9a2.3 2.3 0 0 1 1-1.8c.4-.3.8 0 .8.8Z" style="fill:#fafafa"/><path d="M131.4 124a5.2 5.2 0 0 0-2 3l.1.7c.2.1.4-.1.5-.5a3.7 3.7 0 0 1 1.4-2.1 1 1 0 0 1 1.5.5c0 .2.3.2.5-.1a.9.9 0 0 0 0-.7 1.3 1.3 0 0 0-2-.7Z" style="fill:#fafafa"/><path d="M131.4 122a8.1 8.1 0 0 0-3 4.4c-.2.2-.2.5 0 .6.1.1.4 0 .5-.4a6.7 6.7 0 0 1 2.5-3.6 1.7 1.7 0 0 1 2.5.7c.2.2.4.1.5-.2a.9.9 0 0 0 .1-.7 2 2 0 0 0-3-.9ZM154.6 110.6a.2.2 0 0 1 0-.2.7.7 0 0 1 0-.2l1.3-2.2.1-.2a.4.4 0 0 1 .1 0l.5-.3a.2.2 0 0 1 .1.1v5.7a.5.5 0 0 1 0 .2.2.2 0 0 1-.1.2l-.5.2h-.1a.2.2 0 0 1 0-.1v-4.4l-.9 1.5h-.2ZM157.5 108.9a.2.2 0 0 1 0-.2.3.3 0 0 1 0-.1l1.3-2.3.1-.1a.4.4 0 0 1 .1-.2l.5-.3a.2.2 0 0 1 0 .2v5.7a.4.4 0 0 1 0 .2.4.4 0 0 1 0 .2l-.5.2h-.1a.2.2 0 0 1 0-.1v-4.4l-.9 1.5a.3.3 0 0 1-.1 0 .1.1 0 0 1-.1 0ZM161.3 106.5h.1a.2.2 0 0 1 .1.1v.9a.5.5 0 0 1 0 .2.3.3 0 0 1-.2 0l-.5.4h-.1a.2.2 0 0 1 0-.1v-1a.5.5 0 0 1 0-.1.4.4 0 0 1 .1-.1Zm0 3h.1a.2.2 0 0 1 .1.2v.9a.5.5 0 0 1 0 .2.3.3 0 0 1-.2 0l-.5.4h-.1a.2.2 0 0 1 0-.2v-.8a.5.5 0 0 1 0-.2.4.4 0 0 1 .1-.2ZM164.4 109.1h-.1a.2.2 0 0 1 0-.1v-1.1l-1.8 1h-.1a.2.2 0 0 1 0-.1v-.7a.7.7 0 0 1 0-.2v-.3l1.8-4.4a.7.7 0 0 1 .3-.3l.4-.3h.1a.2.2 0 0 1 0 .2v3.5l.5-.3h.1a.2.2 0 0 1 0 .2v.6a.5.5 0 0 1 0 .2.3.3 0 0 1 0 .1l-.6.3v1a.5.5 0 0 1 0 .3.3.3 0 0 1 0 .1Zm-.1-2.3v-2l-1 2.6ZM166.7 101.8a.4.4 0 0 1 0-.2.3.3 0 0 1 .1-.1l2.2-1.3h.1a.2.2 0 0 1 0 .2v.6a.5.5 0 0 1 0 .2.4.4 0 0 1 0 .1l-1.7 1v1.1a1.4 1.4 0 0 1 .2-.3l.3-.1a1.5 1.5 0 0 1 .6-.2.7.7 0 0 1 .5 0 1 1 0 0 1 .3.6 2.5 2.5 0 0 1 0 .8 4.2 4.2 0 0 1 0 1 3.3 3.3 0 0 1-.4.8 2.4 2.4 0 0 1-.4.7 2.5 2.5 0 0 1-.6.4 1.5 1.5 0 0 1-.7.3.7.7 0 0 1-.5-.1.8.8 0 0 1-.2-.4 1.9 1.9 0 0 1-.2-.6.5.5 0 0 1 0-.2l.2-.1.4-.3a.1.1 0 0 1 .1 0 .5.5 0 0 0 .2.4.3.3 0 0 0 .2 0 .4.4 0 0 0 .2 0 .7.7 0 0 0 .2 0 1.3 1.3 0 0 0 .6-.6 1.8 1.8 0 0 0 .2-.9.6.6 0 0 0-.2-.5.5.5 0 0 0-.6 0 1.2 1.2 0 0 0-.2.2.9.9 0 0 0-.2.1 1.1 1.1 0 0 1-.1.2.4.4 0 0 1-.1.1l-.6.3a.2.2 0 0 1 0-.1ZM107.6 142.7v-1.8l1.6-1v1.9l-1.6.9zM110 141.3v-3.7l1.6-.9v3.7l-1.6.9zM112.4 139.9v-5.5l1.6-.9v5.5l-1.6.9zM114.8 138.6v-7.4l1.6-1v7.4l-1.6 1z" style="fill:#fafafa"/><path d="M372 90.9a2 2 0 0 0 0-2c0-.3-3.2-2.5-3.3-2.6a.5.5 0 0 0-.5 0l-3.4 1.2-1.2-3a.8.8 0 0 0-.1-.3l-3.3-2.5c-.4-.3-1.1.2-1.4 1.3l-2.2 8.1a2.4 2.4 0 0 1-.7 1.2l-4.9 4c-.8.5-1 2.2-.5 2.7l3.5 3.3a1.4 1.4 0 0 1 .3 1.1l-.8 8a1.2 1.2 0 0 0 .3 1.2l3.1 2.4h.1c.3.2.7 0 1-.4l4.4-6c.3-.4.6-.6.9-.6l4.4 1c.7.2 1.5-1.2 1.3-2.3l-.8-7a2.8 2.8 0 0 1 .3-1.5Z" style="fill:#fa5951"/><path d="M372 90.9a2 2 0 0 0 0-2c0-.3-3.2-2.5-3.3-2.6a.5.5 0 0 0-.5 0l-3.4 1.2-1.2-3a.8.8 0 0 0-.1-.3l-3.3-2.5c-.4-.3-1.1.2-1.4 1.3l-2.2 8.1a2.4 2.4 0 0 1-.7 1.2l-4.9 4c-.8.5-1 2.2-.5 2.7l3.5 3.3a1.4 1.4 0 0 1 .3 1.1l-.8 8a1.2 1.2 0 0 0 .3 1.2l3.1 2.4h.1c.3.2.7 0 1-.4l4.4-6c.3-.4.6-.6.9-.6l4.4 1c.7.2 1.5-1.2 1.3-2.3l-.8-7a2.8 2.8 0 0 1 .3-1.5Z" style="fill:#fff;opacity:.5"/><path d="M363.4 84.1c-.5-.3-1.2.3-1.4 1.4l-2.2 8a3 3 0 0 1-.4.9L356 92a2.8 2.8 0 0 0 .5-.9l2.2-8.1c.2-1 1-1.7 1.4-1.3l3.2 2.4Z" style="fill:#fa5951"/><path d="M363.4 84.1c-.5-.3-1.2.3-1.4 1.4l-2.2 8a3 3 0 0 1-.4.9L356 92a2.8 2.8 0 0 0 .5-.9l2.2-8.1c.2-1 1-1.7 1.4-1.3l3.2 2.4Z" style="opacity:.1" fill="#000000"/><path d="m363.6 84.5 2.2 5.5a.5.5 0 0 0 .7.4l5-1.7c.7-.3 1 1 .5 2.1l-3.6 7.4a2.8 2.8 0 0 0-.2 1.4l.8 7c.1 1.2-.7 2.5-1.4 2.4l-4.4-1c-.2 0-.6.1-.8.5l-4.4 6c-.7 1-1.5.6-1.4-.6l.9-8a1.4 1.4 0 0 0-.3-1.2l-3.5-3.2c-.6-.6-.3-2.2.5-2.8l4.9-4a2.4 2.4 0 0 0 .7-1.2l2.2-8c.3-1.3 1.3-2 1.6-1Z" style="fill:#fa5951"/><path d="M357.4 105.4a1 1 0 0 0-.2-.7l-3.6-3.2a1.5 1.5 0 0 1-.2-1.3l-3.2-2.5a1.5 1.5 0 0 0 .2 1.3l3.6 3.3a.9.9 0 0 1 .2.5 1.9 1.9 0 0 1 0 .4 2 2 0 0 1 0 .2l-.8 8a1.3 1.3 0 0 0 .3 1.2l3.2 2.4a1.3 1.3 0 0 1-.3-1.1l.8-8v-.5Z" style="fill:#fa5951"/><path d="M357.4 105.4a1 1 0 0 0-.2-.7l-3.6-3.2a1.5 1.5 0 0 1-.2-1.3l-3.2-2.5a1.5 1.5 0 0 0 .2 1.3l3.6 3.3a.9.9 0 0 1 .2.5 1.9 1.9 0 0 1 0 .4 2 2 0 0 1 0 .2l-.8 8a1.3 1.3 0 0 0 .3 1.2l3.2 2.4a1.3 1.3 0 0 1-.3-1.1l.8-8v-.5Z" style="opacity:.1" fill="#000000"/><path d="M334.5 127.2a2 2 0 0 0 0-2c0-.2-3.1-2.5-3.3-2.6a.5.5 0 0 0-.4 0l-3.5 1.2-1.1-3a.9.9 0 0 0-.2-.3l-3.2-2.5c-.4-.3-1.2.3-1.5 1.3l-2.2 8.1a2.3 2.3 0 0 1-.7 1.2l-4.9 4c-.8.6-1 2.2-.5 2.7l3.5 3.3a1.4 1.4 0 0 1 .3 1.2l-.8 8a1.2 1.2 0 0 0 .3 1.1l3.1 2.4a.3.3 0 0 0 .1.1c.3.2.7 0 1-.4l4.4-6.1c.3-.4.6-.6 1-.5l4.3 1c.7.1 1.5-1.2 1.4-2.4l-.9-7a2.7 2.7 0 0 1 .3-1.4Z" style="fill:#fa5951"/><path d="M334.5 127.2a2 2 0 0 0 0-2c0-.2-3.1-2.5-3.3-2.6a.5.5 0 0 0-.4 0l-3.5 1.2-1.1-3a.9.9 0 0 0-.2-.3l-3.2-2.5c-.4-.3-1.2.3-1.5 1.3l-2.2 8.1a2.3 2.3 0 0 1-.7 1.2l-4.9 4c-.8.6-1 2.2-.5 2.7l3.5 3.3a1.4 1.4 0 0 1 .3 1.2l-.8 8a1.2 1.2 0 0 0 .3 1.1l3.1 2.4a.3.3 0 0 0 .1.1c.3.2.7 0 1-.4l4.4-6.1c.3-.4.6-.6 1-.5l4.3 1c.7.1 1.5-1.2 1.4-2.4l-.9-7a2.7 2.7 0 0 1 .3-1.4Z" style="fill:#fff;opacity:.5"/><path d="M326 120.4c-.5-.3-1.1.3-1.4 1.3l-2.2 8.1a2.9 2.9 0 0 1-.4.9l-3.3-2.5a2.4 2.4 0 0 0 .5-.8l2.2-8.1c.3-1 1-1.7 1.5-1.3l3.1 2.4Z" style="fill:#fa5951"/><path d="M326 120.4c-.5-.3-1.1.3-1.4 1.3l-2.2 8.1a2.9 2.9 0 0 1-.4.9l-3.3-2.5a2.4 2.4 0 0 0 .5-.8l2.2-8.1c.3-1 1-1.7 1.5-1.3l3.1 2.4Z" style="opacity:.1" fill="#000000"/><path d="m326.2 120.8 2.2 5.5a.5.5 0 0 0 .7.4l4.9-1.7c.8-.3 1 1 .5 2.2l-3.5 7.3a2.7 2.7 0 0 0-.3 1.5l.9 7c0 1-.7 2.5-1.4 2.3l-4.4-1c-.3 0-.6.1-.9.5l-4.3 6c-.7 1-1.6.6-1.4-.7l.8-8a1.4 1.4 0 0 0-.3-1l-3.5-3.4c-.6-.5-.3-2.1.5-2.8l5-3.9a2.3 2.3 0 0 0 .6-1.2l2.2-8c.4-1.3 1.4-2 1.7-1Z" style="fill:#fa5951"/><path d="M320 141.7a1.1 1.1 0 0 0-.3-.7l-3.5-3.2a1.5 1.5 0 0 1-.3-1.3l-3.2-2.4a1.4 1.4 0 0 0 .3 1.2l3.5 3.3a1 1 0 0 1 .3.5 1.8 1.8 0 0 1 0 .4 2 2 0 0 1 0 .2l-.9 8a1.3 1.3 0 0 0 .4 1.2l3.1 2.4a1.3 1.3 0 0 1-.3-1.1l.9-8a1.1 1.1 0 0 0 0-.2v-.3Z" style="fill:#fa5951"/><path d="M320 141.7a1.1 1.1 0 0 0-.3-.7l-3.5-3.2a1.5 1.5 0 0 1-.3-1.3l-3.2-2.4a1.4 1.4 0 0 0 .3 1.2l3.5 3.3a1 1 0 0 1 .3.5 1.8 1.8 0 0 1 0 .4 2 2 0 0 1 0 .2l-.9 8a1.3 1.3 0 0 0 .4 1.2l3.1 2.4a1.3 1.3 0 0 1-.3-1.1l.9-8a1.1 1.1 0 0 0 0-.2v-.3Z" style="opacity:.1" fill="#000000"/><path d="M307.4 180.2a2 2 0 0 0 0-2c-.1-.3-3.2-2.5-3.3-2.6a.5.5 0 0 0-.5 0l-3.4 1.2-1.2-3a.7.7 0 0 0-.1-.2l-3.3-2.5c-.4-.4-1.2.2-1.5 1.3l-2.1 8a2.4 2.4 0 0 1-.7 1.2l-5 4c-.7.6-1 2.2-.4 2.7l3.5 3.3a1.4 1.4 0 0 1 .3 1.1l-.8 8a1.2 1.2 0 0 0 .3 1.2l3.1 2.4a.5.5 0 0 0 .1 0c.3.2.7 0 1-.4l4.4-6c.3-.4.6-.6.9-.6l4.4 1c.7.2 1.5-1.2 1.3-2.3l-.8-7a2.8 2.8 0 0 1 .3-1.4Z" style="fill:#fa5951"/><path d="M307.4 180.2a2 2 0 0 0 0-2c-.1-.3-3.2-2.5-3.3-2.6a.5.5 0 0 0-.5 0l-3.4 1.2-1.2-3a.7.7 0 0 0-.1-.2l-3.3-2.5c-.4-.4-1.2.2-1.5 1.3l-2.1 8a2.4 2.4 0 0 1-.7 1.2l-5 4c-.7.6-1 2.2-.4 2.7l3.5 3.3a1.4 1.4 0 0 1 .3 1.1l-.8 8a1.2 1.2 0 0 0 .3 1.2l3.1 2.4a.5.5 0 0 0 .1 0c.3.2.7 0 1-.4l4.4-6c.3-.4.6-.6.9-.6l4.4 1c.7.2 1.5-1.2 1.3-2.3l-.8-7a2.8 2.8 0 0 1 .3-1.4Z" style="fill:#fff;opacity:.5"/><path d="M298.8 173.4c-.5-.2-1.2.3-1.5 1.4l-2.1 8a2.9 2.9 0 0 1-.4.9l-3.3-2.4a2.8 2.8 0 0 0 .5-.9l2.1-8c.3-1.2 1.1-1.7 1.5-1.4l3.2 2.4Z" style="fill:#fa5951"/><path d="M298.8 173.4c-.5-.2-1.2.3-1.5 1.4l-2.1 8a2.9 2.9 0 0 1-.4.9l-3.3-2.4a2.8 2.8 0 0 0 .5-.9l2.1-8c.3-1.2 1.1-1.7 1.5-1.4l3.2 2.4Z" style="opacity:.1" fill="#000000"/><path d="m299 173.8 2.2 5.5a.5.5 0 0 0 .7.4l4.9-1.7c.8-.3 1 1 .5 2.2l-3.5 7.4a2.8 2.8 0 0 0-.3 1.4l.8 7c.2 1.1-.6 2.5-1.3 2.3l-4.4-1c-.3 0-.6.2-.9.5l-4.4 6.1c-.7 1-1.5.5-1.3-.7l.8-8a1.4 1.4 0 0 0-.3-1.2l-3.5-3.2c-.6-.5-.3-2.2.5-2.8l5-4a2.4 2.4 0 0 0 .6-1.1l2.2-8.1c.4-1.3 1.4-1.9 1.7-1Z" style="fill:#fa5951"/><path d="M292.8 194.7a1 1 0 0 0-.2-.6l-3.6-3.3a1.5 1.5 0 0 1-.3-1.3l-3.1-2.4a1.4 1.4 0 0 0 .2 1.2l3.5 3.3a.9.9 0 0 1 .3.5 1.8 1.8 0 0 1 0 .4 2 2 0 0 1 0 .2l-.9 8a1.2 1.2 0 0 0 .4 1.2l3.1 2.4a1.3 1.3 0 0 1-.3-1.1l.9-8v-.5Z" style="fill:#fa5951"/><path d="M292.8 194.7a1 1 0 0 0-.2-.6l-3.6-3.3a1.5 1.5 0 0 1-.3-1.3l-3.1-2.4a1.4 1.4 0 0 0 .2 1.2l3.5 3.3a.9.9 0 0 1 .3.5 1.8 1.8 0 0 1 0 .4 2 2 0 0 1 0 .2l-.9 8a1.2 1.2 0 0 0 .4 1.2l3.1 2.4a1.3 1.3 0 0 1-.3-1.1l.9-8v-.5Z" style="opacity:.1" fill="#000000"/><path d="M297.8 237a2 2 0 0 0 0-2c0-.2-3.1-2.4-3.3-2.5a.5.5 0 0 0-.4 0l-3.5 1.2-1.1-3a.9.9 0 0 0-.2-.3c-.2-.3-3.1-2.4-3.2-2.5-.4-.3-1.2.2-1.5 1.3l-2.2 8.1a2.3 2.3 0 0 1-.7 1.2l-4.9 4c-.8.6-1 2.2-.5 2.7l3.5 3.3a1.4 1.4 0 0 1 .3 1.1l-.8 8a1.3 1.3 0 0 0 .3 1.2l3.1 2.4a.5.5 0 0 0 .1 0c.3.2.7 0 1-.4l4.4-6c.3-.4.6-.6.9-.6l4.4 1c.7.2 1.5-1.2 1.4-2.3l-.9-7a2.7 2.7 0 0 1 .3-1.4Z" style="fill:#fa5951"/><path d="M297.8 237a2 2 0 0 0 0-2c0-.2-3.1-2.4-3.3-2.5a.5.5 0 0 0-.4 0l-3.5 1.2-1.1-3a.9.9 0 0 0-.2-.3c-.2-.3-3.1-2.4-3.2-2.5-.4-.3-1.2.2-1.5 1.3l-2.2 8.1a2.3 2.3 0 0 1-.7 1.2l-4.9 4c-.8.6-1 2.2-.5 2.7l3.5 3.3a1.4 1.4 0 0 1 .3 1.1l-.8 8a1.3 1.3 0 0 0 .3 1.2l3.1 2.4a.5.5 0 0 0 .1 0c.3.2.7 0 1-.4l4.4-6c.3-.4.6-.6.9-.6l4.4 1c.7.2 1.5-1.2 1.4-2.3l-.9-7a2.7 2.7 0 0 1 .3-1.4Z" style="fill:#fff;opacity:.5"/><path d="M289.3 230.3c-.5-.2-1.2.3-1.5 1.4l-2.2 8a2.6 2.6 0 0 1-.4.9l-3.2-2.4a2.5 2.5 0 0 0 .4-.9l2.2-8c.3-1.2 1-1.7 1.5-1.4l3.1 2.4Z" style="fill:#fa5951"/><path d="M289.3 230.3c-.5-.2-1.2.3-1.5 1.4l-2.2 8a2.6 2.6 0 0 1-.4.9l-3.2-2.4a2.5 2.5 0 0 0 .4-.9l2.2-8c.3-1.2 1-1.7 1.5-1.4l3.1 2.4Z" style="opacity:.1" fill="#000000"/><path d="m289.5 230.7 2.2 5.6a.5.5 0 0 0 .7.3l4.9-1.7c.8-.3 1 1 .5 2.2l-3.5 7.4a2.7 2.7 0 0 0-.3 1.4l.8 7c.2 1.1-.6 2.5-1.3 2.3l-4.4-1c-.3 0-.6.2-.9.5l-4.4 6.1c-.7 1-1.5.5-1.3-.7l.8-8a1.4 1.4 0 0 0-.3-1.1l-3.5-3.3c-.6-.5-.3-2.1.5-2.8l4.9-3.9a2.4 2.4 0 0 0 .7-1.2l2.2-8c.4-1.4 1.4-2 1.7-1.1Z" style="fill:#fa5951"/><path d="M283.3 251.6a1.1 1.1 0 0 0-.3-.7l-3.5-3.2a1.5 1.5 0 0 1-.3-1.3L276 244a1.4 1.4 0 0 0 .3 1.3l3.5 3.2a1 1 0 0 1 .2.5 2.6 2.6 0 0 1 0 .4 2 2 0 0 1 0 .3l-.8 8a1.3 1.3 0 0 0 .3 1.1l3.2 2.4a1.3 1.3 0 0 1-.3-1l.8-8a1.1 1.1 0 0 0 0-.3 2.2 2.2 0 0 0 .1-.3Z" style="fill:#fa5951"/><path d="M283.3 251.6a1.1 1.1 0 0 0-.3-.7l-3.5-3.2a1.5 1.5 0 0 1-.3-1.3L276 244a1.4 1.4 0 0 0 .3 1.3l3.5 3.2a1 1 0 0 1 .2.5 2.6 2.6 0 0 1 0 .4 2 2 0 0 1 0 .3l-.8 8a1.3 1.3 0 0 0 .3 1.1l3.2 2.4a1.3 1.3 0 0 1-.3-1l.8-8a1.1 1.1 0 0 0 0-.3 2.2 2.2 0 0 0 .1-.3Z" style="opacity:.1" fill="#000000"/><path d="M308.8 280.7a2 2 0 0 0 0-2c0-.3-3.1-2.5-3.3-2.6a.5.5 0 0 0-.4 0l-3.5 1.1-1.1-3a.9.9 0 0 0-.2-.2c-.2-.3-3.1-2.4-3.2-2.5-.4-.4-1.2.2-1.5 1.3l-2.2 8a2.4 2.4 0 0 1-.7 1.3l-4.9 3.9c-.8.6-1 2.3-.5 2.8l3.5 3.3a1.4 1.4 0 0 1 .3 1.1l-.8 8a1.2 1.2 0 0 0 .3 1.2l3.1 2.4a.3.3 0 0 0 .2 0c.2.2.6 0 1-.4l4.3-6c.3-.4.6-.6 1-.6l4.3 1c.7.2 1.5-1.2 1.4-2.3l-.9-7a2.6 2.6 0 0 1 .3-1.5Z" style="fill:#fa5951"/><path d="M308.8 280.7a2 2 0 0 0 0-2c0-.3-3.1-2.5-3.3-2.6a.5.5 0 0 0-.4 0l-3.5 1.1-1.1-3a.9.9 0 0 0-.2-.2c-.2-.3-3.1-2.4-3.2-2.5-.4-.4-1.2.2-1.5 1.3l-2.2 8a2.4 2.4 0 0 1-.7 1.3l-4.9 3.9c-.8.6-1 2.3-.5 2.8l3.5 3.3a1.4 1.4 0 0 1 .3 1.1l-.8 8a1.2 1.2 0 0 0 .3 1.2l3.1 2.4a.3.3 0 0 0 .2 0c.2.2.6 0 1-.4l4.3-6c.3-.4.6-.6 1-.6l4.3 1c.7.2 1.5-1.2 1.4-2.3l-.9-7a2.6 2.6 0 0 1 .3-1.5Z" style="fill:#fff;opacity:.5"/><path d="M300.3 274c-.5-.4-1.2.2-1.5 1.2l-2.2 8.1a3 3 0 0 1-.4.9l-3.2-2.5a2.6 2.6 0 0 0 .4-.8l2.2-8.1c.3-1 1-1.7 1.5-1.3l3.1 2.4Z" style="fill:#fa5951"/><path d="M300.3 274c-.5-.4-1.2.2-1.5 1.2l-2.2 8.1a3 3 0 0 1-.4.9l-3.2-2.5a2.6 2.6 0 0 0 .4-.8l2.2-8.1c.3-1 1-1.7 1.5-1.3l3.1 2.4Z" style="opacity:.1" fill="#000000"/><path d="m300.5 274.3 2.2 5.5a.5.5 0 0 0 .7.4l4.9-1.7c.8-.3 1 1 .5 2.2l-3.5 7.3a2.6 2.6 0 0 0-.3 1.4l.9 7c0 1.2-.7 2.5-1.4 2.4l-4.4-1c-.3 0-.6.1-.9.5l-4.4 6c-.6 1-1.5.6-1.3-.7l.8-8a1.3 1.3 0 0 0-.3-1.1l-3.5-3.3c-.6-.5-.3-2.2.5-2.8l5-3.9a2.4 2.4 0 0 0 .6-1.2l2.2-8.1c.4-1.2 1.4-1.8 1.7-1Z" style="fill:#fa5951"/><path d="M294.3 295.2a1.1 1.1 0 0 0-.3-.7l-3.5-3.2a1.5 1.5 0 0 1-.3-1.3l-3.2-2.5a1.5 1.5 0 0 0 .3 1.3l3.5 3.3a1 1 0 0 1 .2.4 2.6 2.6 0 0 1 0 .5 2 2 0 0 1 0 .2l-.8 8a1.3 1.3 0 0 0 .3 1.2l3.2 2.4a1.3 1.3 0 0 1-.3-1.1l.8-8a1 1 0 0 0 0-.2l.1-.3Z" style="fill:#fa5951"/><path d="M294.3 295.2a1.1 1.1 0 0 0-.3-.7l-3.5-3.2a1.5 1.5 0 0 1-.3-1.3l-3.2-2.5a1.5 1.5 0 0 0 .3 1.3l3.5 3.3a1 1 0 0 1 .2.4 2.6 2.6 0 0 1 0 .5 2 2 0 0 1 0 .2l-.8 8a1.3 1.3 0 0 0 .3 1.2l3.2 2.4a1.3 1.3 0 0 1-.3-1.1l.8-8a1 1 0 0 0 0-.2l.1-.3Z" style="opacity:.1" fill="#000000"/><path d="M336.8 300.7a2 2 0 0 0 0-2c0-.2-3.1-2.4-3.2-2.5a.5.5 0 0 0-.5 0l-3.4 1.1-1.2-3a1 1 0 0 0-.2-.2c-.2-.3-3.1-2.4-3.2-2.5-.4-.4-1.2.2-1.5 1.3l-2.2 8a2.3 2.3 0 0 1-.7 1.3l-4.9 4c-.8.5-1 2.2-.5 2.7l3.5 3.3a1.4 1.4 0 0 1 .3 1.1l-.8 8a1.3 1.3 0 0 0 .3 1.2l3.1 2.4a.5.5 0 0 0 .2 0c.2.2.6 0 1-.4l4.3-6c.3-.4.6-.6 1-.6l4.3 1c.7.2 1.5-1.2 1.4-2.3l-.9-7a2.7 2.7 0 0 1 .3-1.5Z" style="fill:#fa5951"/><path d="M336.8 300.7a2 2 0 0 0 0-2c0-.2-3.1-2.4-3.2-2.5a.5.5 0 0 0-.5 0l-3.4 1.1-1.2-3a1 1 0 0 0-.2-.2c-.2-.3-3.1-2.4-3.2-2.5-.4-.4-1.2.2-1.5 1.3l-2.2 8a2.3 2.3 0 0 1-.7 1.3l-4.9 4c-.8.5-1 2.2-.5 2.7l3.5 3.3a1.4 1.4 0 0 1 .3 1.1l-.8 8a1.3 1.3 0 0 0 .3 1.2l3.1 2.4a.5.5 0 0 0 .2 0c.2.2.6 0 1-.4l4.3-6c.3-.4.6-.6 1-.6l4.3 1c.7.2 1.5-1.2 1.4-2.3l-.9-7a2.7 2.7 0 0 1 .3-1.5Z" style="fill:#fff;opacity:.5"/><path d="M328.3 294c-.5-.3-1.2.3-1.5 1.3l-2.2 8.1a2.8 2.8 0 0 1-.4.9l-3.2-2.5a2.6 2.6 0 0 0 .4-.9l2.2-8c.3-1.1 1-1.7 1.5-1.3l3.2 2.4Z" style="fill:#fa5951"/><path d="M328.3 294c-.5-.3-1.2.3-1.5 1.3l-2.2 8.1a2.8 2.8 0 0 1-.4.9l-3.2-2.5a2.6 2.6 0 0 0 .4-.9l2.2-8c.3-1.1 1-1.7 1.5-1.3l3.2 2.4Z" style="opacity:.1" fill="#000000"/><path d="m328.5 294.3 2.2 5.6a.5.5 0 0 0 .7.4l5-1.8c.7-.2 1 1 .4 2.2l-3.5 7.4a2.7 2.7 0 0 0-.3 1.4l.9 7c0 1.1-.7 2.5-1.4 2.3l-4.4-1c-.3 0-.6.2-.9.6l-4.4 6c-.6 1-1.5.5-1.3-.7l.8-8a1.4 1.4 0 0 0-.3-1.1l-3.5-3.3c-.6-.5-.3-2.2.5-2.8l5-4a2.4 2.4 0 0 0 .6-1.1l2.2-8.1c.4-1.3 1.4-1.9 1.7-1Z" style="fill:#fa5951"/><path d="M322.3 315.3a1.1 1.1 0 0 0-.3-.7l-3.5-3.3a1.5 1.5 0 0 1-.3-1.3l-3.2-2.4a1.5 1.5 0 0 0 .3 1.2l3.5 3.3a.9.9 0 0 1 .3.5 2.7 2.7 0 0 1 0 .4 2 2 0 0 1 0 .2l-.9 8a1.3 1.3 0 0 0 .4 1.2l3.1 2.4a1.3 1.3 0 0 1-.3-1l.9-8a1 1 0 0 0 0-.3v-.2Z" style="fill:#fa5951"/><path d="M322.3 315.3a1.1 1.1 0 0 0-.3-.7l-3.5-3.3a1.5 1.5 0 0 1-.3-1.3l-3.2-2.4a1.5 1.5 0 0 0 .3 1.2l3.5 3.3a.9.9 0 0 1 .3.5 2.7 2.7 0 0 1 0 .4 2 2 0 0 1 0 .2l-.9 8a1.3 1.3 0 0 0 .4 1.2l3.1 2.4a1.3 1.3 0 0 1-.3-1l.9-8a1 1 0 0 0 0-.3v-.2Z" style="opacity:.1" fill="#000000"/><path d="M375.4 291.2a2 2 0 0 0 0-2c-.1-.3-3.2-2.5-3.3-2.6a.5.5 0 0 0-.5 0l-3.4 1.2-1.2-3a.8.8 0 0 0-.1-.2l-3.3-2.5c-.4-.4-1.2.2-1.5 1.3l-2.1 8a2.4 2.4 0 0 1-.7 1.2l-5 4c-.7.5-1 2.2-.4 2.7l3.5 3.3a1.4 1.4 0 0 1 .3 1.1l-.8 8a1.2 1.2 0 0 0 .3 1.2l3.1 2.4h.1c.3.2.7 0 1-.4l4.4-6c.3-.5.6-.6.9-.6l4.4 1c.7.2 1.5-1.2 1.3-2.3l-.8-7a2.8 2.8 0 0 1 .3-1.5Z" style="fill:#fa5951"/><path d="M375.4 291.2a2 2 0 0 0 0-2c-.1-.3-3.2-2.5-3.3-2.6a.5.5 0 0 0-.5 0l-3.4 1.2-1.2-3a.8.8 0 0 0-.1-.2l-3.3-2.5c-.4-.4-1.2.2-1.5 1.3l-2.1 8a2.4 2.4 0 0 1-.7 1.2l-5 4c-.7.5-1 2.2-.4 2.7l3.5 3.3a1.4 1.4 0 0 1 .3 1.1l-.8 8a1.2 1.2 0 0 0 .3 1.2l3.1 2.4h.1c.3.2.7 0 1-.4l4.4-6c.3-.5.6-.6.9-.6l4.4 1c.7.2 1.5-1.2 1.3-2.3l-.8-7a2.8 2.8 0 0 1 .3-1.5Z" style="fill:#fff;opacity:.5"/><path d="M366.8 284.4c-.5-.3-1.1.3-1.4 1.4l-2.2 8a3 3 0 0 1-.4.9l-3.2-2.5a2.8 2.8 0 0 0 .4-.8l2.2-8.1c.3-1 1-1.7 1.5-1.3l3.1 2.4Z" style="fill:#fa5951"/><path d="M366.8 284.4c-.5-.3-1.1.3-1.4 1.4l-2.2 8a3 3 0 0 1-.4.9l-3.2-2.5a2.8 2.8 0 0 0 .4-.8l2.2-8.1c.3-1 1-1.7 1.5-1.3l3.1 2.4Z" style="opacity:.1" fill="#000000"/><path d="m367 284.8 2.3 5.5a.5.5 0 0 0 .7.4l4.9-1.7c.7-.3 1 1 .5 2.2l-3.6 7.3a2.8 2.8 0 0 0-.2 1.5l.8 7c.1 1-.7 2.5-1.4 2.3l-4.4-1c-.2 0-.6.1-.8.5l-4.4 6c-.7 1-1.5.6-1.4-.7l.9-8a1.4 1.4 0 0 0-.3-1l-3.6-3.4c-.5-.5-.2-2.1.6-2.7l4.9-4a2.4 2.4 0 0 0 .7-1.2l2.2-8c.3-1.3 1.3-2 1.7-1Z" style="fill:#fa5951"/><path d="M360.9 305.7a1 1 0 0 0-.3-.7l-3.5-3.2a1.5 1.5 0 0 1-.3-1.3l-3.2-2.4a1.5 1.5 0 0 0 .3 1.2l3.5 3.3a.8.8 0 0 1 .2.4 1.9 1.9 0 0 1 0 .5 2 2 0 0 1 0 .2l-.8 8a1.3 1.3 0 0 0 .3 1.2l3.2 2.4a1.3 1.3 0 0 1-.3-1.1l.8-8v-.5Z" style="fill:#fa5951"/><path d="M360.9 305.7a1 1 0 0 0-.3-.7l-3.5-3.2a1.5 1.5 0 0 1-.3-1.3l-3.2-2.4a1.5 1.5 0 0 0 .3 1.2l3.5 3.3a.8.8 0 0 1 .2.4 1.9 1.9 0 0 1 0 .5 2 2 0 0 1 0 .2l-.8 8a1.3 1.3 0 0 0 .3 1.2l3.2 2.4a1.3 1.3 0 0 1-.3-1.1l.8-8v-.5Z" style="opacity:.1" fill="#000000"/><path d="M412.8 254.9a2 2 0 0 0 0-2c0-.3-3.2-2.5-3.3-2.6a.5.5 0 0 0-.4 0l-3.5 1.2-1.1-3a.9.9 0 0 0-.2-.3c-.2-.3-3.1-2.4-3.2-2.5-.5-.3-1.2.2-1.5 1.3l-2.2 8.1a2.4 2.4 0 0 1-.7 1.2l-4.9 4c-.8.6-1 2.2-.5 2.7l3.5 3.3a1.3 1.3 0 0 1 .3 1.1l-.8 8a1.2 1.2 0 0 0 .3 1.2l3.1 2.4h.1c.3.2.7 0 1-.4l4.4-6c.3-.4.6-.6.9-.6l4.4 1c.7.2 1.5-1.2 1.3-2.3l-.8-7a2.8 2.8 0 0 1 .3-1.4Z" style="fill:#fa5951"/><path d="M412.8 254.9a2 2 0 0 0 0-2c0-.3-3.2-2.5-3.3-2.6a.5.5 0 0 0-.4 0l-3.5 1.2-1.1-3a.9.9 0 0 0-.2-.3c-.2-.3-3.1-2.4-3.2-2.5-.5-.3-1.2.2-1.5 1.3l-2.2 8.1a2.4 2.4 0 0 1-.7 1.2l-4.9 4c-.8.6-1 2.2-.5 2.7l3.5 3.3a1.3 1.3 0 0 1 .3 1.1l-.8 8a1.2 1.2 0 0 0 .3 1.2l3.1 2.4h.1c.3.2.7 0 1-.4l4.4-6c.3-.4.6-.6.9-.6l4.4 1c.7.2 1.5-1.2 1.3-2.3l-.8-7a2.8 2.8 0 0 1 .3-1.4Z" style="fill:#fff;opacity:.5"/><path d="M404.2 248.1c-.4-.2-1.1.3-1.4 1.4l-2.2 8a3 3 0 0 1-.4.9L397 256a2.5 2.5 0 0 0 .4-.9l2.2-8c.3-1.1 1-1.7 1.5-1.3 0 0 2.6 1.8 3.1 2.3Z" style="fill:#fa5951"/><path d="M404.2 248.1c-.4-.2-1.1.3-1.4 1.4l-2.2 8a3 3 0 0 1-.4.9L397 256a2.5 2.5 0 0 0 .4-.9l2.2-8c.3-1.1 1-1.7 1.5-1.3 0 0 2.6 1.8 3.1 2.3Z" style="opacity:.1" fill="#000000"/><path d="m404.5 248.5 2.2 5.6a.5.5 0 0 0 .7.3l4.9-1.7c.8-.3 1 1 .5 2.2l-3.5 7.3a2.8 2.8 0 0 0-.3 1.5l.8 7c.2 1.1-.6 2.5-1.3 2.3l-4.4-1c-.3 0-.6.1-.9.5l-4.4 6c-.7 1-1.5.6-1.3-.7l.8-8a1.4 1.4 0 0 0-.3-1l-3.5-3.4c-.6-.5-.3-2.1.5-2.7l5-4a2.4 2.4 0 0 0 .6-1.2l2.2-8c.3-1.3 1.4-1.9 1.7-1Z" style="fill:#fa5951"/><path d="M398.3 269.4a1.1 1.1 0 0 0-.3-.7l-3.5-3.2a1.5 1.5 0 0 1-.3-1.3l-3.2-2.4a1.5 1.5 0 0 0 .3 1.2l3.5 3.3a1 1 0 0 1 .3.5 2.5 2.5 0 0 1 0 .4 2 2 0 0 1 0 .2l-.9 8a1.3 1.3 0 0 0 .4 1.2l3.1 2.4a1.3 1.3 0 0 1-.3-1.1l.9-8v-.5Z" style="fill:#fa5951"/><path d="M398.3 269.4a1.1 1.1 0 0 0-.3-.7l-3.5-3.2a1.5 1.5 0 0 1-.3-1.3l-3.2-2.4a1.5 1.5 0 0 0 .3 1.2l3.5 3.3a1 1 0 0 1 .3.5 2.5 2.5 0 0 1 0 .4 2 2 0 0 1 0 .2l-.9 8a1.3 1.3 0 0 0 .4 1.2l3.1 2.4a1.3 1.3 0 0 1-.3-1.1l.9-8v-.5Z" style="opacity:.1" fill="#000000"/><path d="M440 201.9a2 2 0 0 0 0-2c0-.3-3.2-2.6-3.3-2.6a.5.5 0 0 0-.5 0l-3.4 1.1-1.2-3a.7.7 0 0 0-.1-.2l-3.3-2.5c-.4-.4-1.1.2-1.4 1.3l-2.2 8a2.4 2.4 0 0 1-.7 1.3l-4.9 3.9c-.8.6-1 2.3-.5 2.8l3.5 3.3a1.4 1.4 0 0 1 .3 1l-.8 8a1.2 1.2 0 0 0 .3 1.3l3.1 2.4h.1c.3.2.7 0 1-.4l4.4-6c.3-.5.6-.7.9-.6l4.4 1c.7.2 1.5-1.2 1.3-2.3l-.8-7a2.8 2.8 0 0 1 .3-1.5Z" style="fill:#fa5951"/><path d="M440 201.9a2 2 0 0 0 0-2c0-.3-3.2-2.6-3.3-2.6a.5.5 0 0 0-.5 0l-3.4 1.1-1.2-3a.7.7 0 0 0-.1-.2l-3.3-2.5c-.4-.4-1.1.2-1.4 1.3l-2.2 8a2.4 2.4 0 0 1-.7 1.3l-4.9 3.9c-.8.6-1 2.3-.5 2.8l3.5 3.3a1.4 1.4 0 0 1 .3 1l-.8 8a1.2 1.2 0 0 0 .3 1.3l3.1 2.4h.1c.3.2.7 0 1-.4l4.4-6c.3-.5.6-.7.9-.6l4.4 1c.7.2 1.5-1.2 1.3-2.3l-.8-7a2.8 2.8 0 0 1 .3-1.5Z" style="fill:#fff;opacity:.5"/><path d="M431.4 195.1c-.4-.3-1.1.3-1.4 1.3l-2.2 8.1a3 3 0 0 1-.4.9l-3.2-2.5a2.6 2.6 0 0 0 .4-.8l2.2-8.1c.3-1.1 1-1.7 1.5-1.3l3.1 2.4Z" style="fill:#fa5951"/><path d="M431.4 195.1c-.4-.3-1.1.3-1.4 1.3l-2.2 8.1a3 3 0 0 1-.4.9l-3.2-2.5a2.6 2.6 0 0 0 .4-.8l2.2-8.1c.3-1.1 1-1.7 1.5-1.3l3.1 2.4Z" style="opacity:.1" fill="#000000"/><path d="m431.7 195.5 2.2 5.5a.5.5 0 0 0 .7.4l4.9-1.7c.7-.3 1 1 .5 2.2l-3.6 7.3a2.8 2.8 0 0 0-.2 1.5l.8 7c.1 1-.7 2.5-1.4 2.3l-4.3-1c-.3 0-.6.1-1 .5l-4.3 6c-.7 1-1.5.6-1.4-.7l.9-8a1.4 1.4 0 0 0-.3-1.1l-3.5-3.3c-.6-.5-.3-2.1.5-2.8l4.9-3.9a2.3 2.3 0 0 0 .7-1.2l2.2-8c.3-1.3 1.3-2 1.7-1Z" style="fill:#fa5951"/><path d="M425.5 216.4a1 1 0 0 0-.3-.7l-3.5-3.2a1.5 1.5 0 0 1-.3-1.3l-3.2-2.4a1.5 1.5 0 0 0 .3 1.2l3.5 3.3a1 1 0 0 1 .2.5 1.8 1.8 0 0 1 0 .4 2 2 0 0 1 0 .2l-.8 8a1.2 1.2 0 0 0 .3 1.2l3.2 2.4a1.3 1.3 0 0 1-.3-1.1l.8-8v-.5Z" style="fill:#fa5951"/><path d="M425.5 216.4a1 1 0 0 0-.3-.7l-3.5-3.2a1.5 1.5 0 0 1-.3-1.3l-3.2-2.4a1.5 1.5 0 0 0 .3 1.2l3.5 3.3a1 1 0 0 1 .2.5 1.8 1.8 0 0 1 0 .4 2 2 0 0 1 0 .2l-.8 8a1.2 1.2 0 0 0 .3 1.2l3.2 2.4a1.3 1.3 0 0 1-.3-1.1l.8-8v-.5Z" style="opacity:.1" fill="#000000"/><path d="M449.5 145a2 2 0 0 0 0-2c0-.3-3.1-2.5-3.3-2.6a.5.5 0 0 0-.4 0l-3.5 1.2-1.1-3a.9.9 0 0 0-.2-.3c-.2-.3-3.1-2.4-3.2-2.5-.4-.3-1.2.3-1.5 1.3l-2.2 8.1a2.4 2.4 0 0 1-.7 1.2l-4.9 4c-.8.6-1 2.2-.5 2.7l3.5 3.3a1.4 1.4 0 0 1 .3 1.1l-.8 8a1.2 1.2 0 0 0 .3 1.2l3.1 2.4a.4.4 0 0 0 .1.1c.3.1.7 0 1-.5l4.4-6c.3-.4.6-.6 1-.5l4.3 1c.7.1 1.5-1.3 1.4-2.4l-.9-7a2.8 2.8 0 0 1 .3-1.4Z" style="fill:#fa5951"/><path d="M449.5 145a2 2 0 0 0 0-2c0-.3-3.1-2.5-3.3-2.6a.5.5 0 0 0-.4 0l-3.5 1.2-1.1-3a.9.9 0 0 0-.2-.3c-.2-.3-3.1-2.4-3.2-2.5-.4-.3-1.2.3-1.5 1.3l-2.2 8.1a2.4 2.4 0 0 1-.7 1.2l-4.9 4c-.8.6-1 2.2-.5 2.7l3.5 3.3a1.4 1.4 0 0 1 .3 1.1l-.8 8a1.2 1.2 0 0 0 .3 1.2l3.1 2.4a.4.4 0 0 0 .1.1c.3.1.7 0 1-.5l4.4-6c.3-.4.6-.6 1-.5l4.3 1c.7.1 1.5-1.3 1.4-2.4l-.9-7a2.8 2.8 0 0 1 .3-1.4Z" style="fill:#fff;opacity:.5"/><path d="M441 138.2c-.5-.3-1.1.3-1.4 1.3l-2.2 8.1a2.7 2.7 0 0 1-.4.9l-3.3-2.5a2.5 2.5 0 0 0 .4-.9l2.2-8c.3-1.1 1-1.7 1.5-1.3l3.2 2.4Z" style="fill:#fa5951"/><path d="M441 138.2c-.5-.3-1.1.3-1.4 1.3l-2.2 8.1a2.7 2.7 0 0 1-.4.9l-3.3-2.5a2.5 2.5 0 0 0 .4-.9l2.2-8c.3-1.1 1-1.7 1.5-1.3l3.2 2.4Z" style="opacity:.1" fill="#000000"/><path d="m441.2 138.6 2.2 5.5a.5.5 0 0 0 .7.4l4.9-1.7c.8-.3 1 1 .5 2.2l-3.5 7.3a2.7 2.7 0 0 0-.3 1.5l.9 7c0 1-.7 2.4-1.4 2.3l-4.4-1c-.3 0-.6.1-.9.5l-4.3 6c-.7 1-1.6.6-1.4-.7l.8-8a1.3 1.3 0 0 0-.3-1.1l-3.5-3.3c-.6-.5-.3-2.2.5-2.8l5-3.9a2.3 2.3 0 0 0 .6-1.2l2.2-8c.4-1.3 1.4-2 1.7-1Z" style="fill:#fa5951"/><path d="M435 159.5a1.1 1.1 0 0 0-.3-.7l-3.5-3.2a1.5 1.5 0 0 1-.3-1.3l-3.2-2.5a1.5 1.5 0 0 0 .3 1.3l3.5 3.3a1 1 0 0 1 .3.5 2.6 2.6 0 0 1 0 .4 2 2 0 0 1 0 .2l-.9 8a1.3 1.3 0 0 0 .4 1.2l3.1 2.4a1.3 1.3 0 0 1-.3-1.1l.9-8a1.3 1.3 0 0 0 0-.2 2.2 2.2 0 0 0 0-.3Z" style="fill:#fa5951"/><path d="M435 159.5a1.1 1.1 0 0 0-.3-.7l-3.5-3.2a1.5 1.5 0 0 1-.3-1.3l-3.2-2.5a1.5 1.5 0 0 0 .3 1.3l3.5 3.3a1 1 0 0 1 .3.5 2.6 2.6 0 0 1 0 .4 2 2 0 0 1 0 .2l-.9 8a1.3 1.3 0 0 0 .4 1.2l3.1 2.4a1.3 1.3 0 0 1-.3-1.1l.9-8a1.3 1.3 0 0 0 0-.2 2.2 2.2 0 0 0 0-.3Z" style="opacity:.1" fill="#000000"/><path d="M438.5 101.4a2 2 0 0 0 0-2c0-.3-3.2-2.5-3.3-2.6a.5.5 0 0 0-.4 0l-3.4 1.2-1.2-3a1.4 1.4 0 0 0-.1-.2l-3.3-2.5c-.4-.4-1.2.2-1.5 1.3l-2.2 8a2.3 2.3 0 0 1-.7 1.3l-4.8 3.9c-.8.6-1.1 2.3-.6 2.8l3.6 3.2a1.4 1.4 0 0 1 .2 1.2l-.8 8a1.3 1.3 0 0 0 .3 1.2c.3.1 2.6 2 3.2 2.3v.1c.4.2.7 0 1-.4l4.5-6.1c.2-.4.6-.6.8-.5l4.4 1c.7.2 1.5-1.2 1.4-2.3l-.9-7a2.8 2.8 0 0 1 .3-1.5Z" style="fill:#fa5951"/><path d="M438.5 101.4a2 2 0 0 0 0-2c0-.3-3.2-2.5-3.3-2.6a.5.5 0 0 0-.4 0l-3.4 1.2-1.2-3a1.4 1.4 0 0 0-.1-.2l-3.3-2.5c-.4-.4-1.2.2-1.5 1.3l-2.2 8a2.3 2.3 0 0 1-.7 1.3l-4.8 3.9c-.8.6-1.1 2.3-.6 2.8l3.6 3.2a1.4 1.4 0 0 1 .2 1.2l-.8 8a1.3 1.3 0 0 0 .3 1.2c.3.1 2.6 2 3.2 2.3v.1c.4.2.7 0 1-.4l4.5-6.1c.2-.4.6-.6.8-.5l4.4 1c.7.2 1.5-1.2 1.4-2.3l-.9-7a2.8 2.8 0 0 1 .3-1.5Z" style="fill:#fff;opacity:.5"/><path d="M430 94.6c-.5-.2-1.2.3-1.4 1.4l-2.2 8a2.7 2.7 0 0 1-.4.9l-3.2-2.4a2.6 2.6 0 0 0 .4-.9l2.2-8c.3-1.2 1-1.8 1.5-1.4l3.1 2.4Z" style="fill:#fa5951"/><path d="M430 94.6c-.5-.2-1.2.3-1.4 1.4l-2.2 8a2.7 2.7 0 0 1-.4.9l-3.2-2.4a2.6 2.6 0 0 0 .4-.9l2.2-8c.3-1.2 1-1.8 1.5-1.4l3.1 2.4Z" style="opacity:.1" fill="#000000"/><path d="m430.2 95 2.2 5.6a.5.5 0 0 0 .7.3l4.9-1.7c.8-.3 1 1 .5 2.2l-3.5 7.3a2.8 2.8 0 0 0-.3 1.5l.9 7c0 1.1-.7 2.5-1.4 2.3l-4.4-1c-.3 0-.6.1-.9.5l-4.3 6c-.7 1-1.6.6-1.4-.6l.8-8a1.4 1.4 0 0 0-.3-1.2l-3.5-3.2c-.6-.5-.3-2.2.5-2.8l5-4a2.4 2.4 0 0 0 .6-1.1l2.2-8.1c.4-1.3 1.4-1.9 1.7-1Z" style="fill:#fa5951"/><path d="M424 116a1.1 1.1 0 0 0-.3-.8l-3.5-3.2a1.4 1.4 0 0 1-.3-1.3l-3.2-2.4a1.5 1.5 0 0 0 .3 1.2l3.5 3.3a.9.9 0 0 1 .3.5 2.5 2.5 0 0 1 0 .4 2 2 0 0 1 0 .2l-.9 8a1.3 1.3 0 0 0 .4 1.2l3.1 2.4a1.3 1.3 0 0 1-.3-1l.9-8a1.3 1.3 0 0 0 0-.3v-.3Z" style="fill:#fa5951"/><path d="M424 116a1.1 1.1 0 0 0-.3-.8l-3.5-3.2a1.4 1.4 0 0 1-.3-1.3l-3.2-2.4a1.5 1.5 0 0 0 .3 1.2l3.5 3.3a.9.9 0 0 1 .3.5 2.5 2.5 0 0 1 0 .4 2 2 0 0 1 0 .2l-.9 8a1.3 1.3 0 0 0 .4 1.2l3.1 2.4a1.3 1.3 0 0 1-.3-1l.9-8a1.3 1.3 0 0 0 0-.3v-.3Z" style="opacity:.1" fill="#000000"/><path d="M410.5 81.3a2 2 0 0 0 0-2c0-.2-3.2-2.4-3.3-2.5a.5.5 0 0 0-.4 0l-3.5 1.2-1.1-3a1 1 0 0 0-.2-.2c-.2-.3-3.1-2.5-3.2-2.5-.5-.4-1.2.2-1.5 1.3l-2.2 8a2.4 2.4 0 0 1-.7 1.3l-4.9 3.9c-.8.6-1 2.3-.5 2.8l3.5 3.3a1.4 1.4 0 0 1 .3 1l-.8 8a1.3 1.3 0 0 0 .3 1.3l3.1 2.3a.5.5 0 0 0 .1.1c.3.2.7 0 1-.4L401 99c.3-.4.6-.6.9-.5l4.4 1c.7.1 1.5-1.2 1.3-2.3l-.8-7a2.7 2.7 0 0 1 .3-1.5Z" style="fill:#fa5951"/><path d="M410.5 81.3a2 2 0 0 0 0-2c0-.2-3.2-2.4-3.3-2.5a.5.5 0 0 0-.4 0l-3.5 1.2-1.1-3a1 1 0 0 0-.2-.2c-.2-.3-3.1-2.5-3.2-2.5-.5-.4-1.2.2-1.5 1.3l-2.2 8a2.4 2.4 0 0 1-.7 1.3l-4.9 3.9c-.8.6-1 2.3-.5 2.8l3.5 3.3a1.4 1.4 0 0 1 .3 1l-.8 8a1.3 1.3 0 0 0 .3 1.3l3.1 2.3a.5.5 0 0 0 .1.1c.3.2.7 0 1-.4L401 99c.3-.4.6-.6.9-.5l4.4 1c.7.1 1.5-1.2 1.3-2.3l-.8-7a2.7 2.7 0 0 1 .3-1.5Z" style="fill:#fff;opacity:.5"/><path d="M402 74.6c-.5-.3-1.2.3-1.5 1.3l-2.2 8.1a2.8 2.8 0 0 1-.4.8l-3.2-2.4a2.6 2.6 0 0 0 .4-.9l2.2-8c.3-1.1 1-1.7 1.5-1.3l3.1 2.4Z" style="fill:#fa5951"/><path d="M402 74.6c-.5-.3-1.2.3-1.5 1.3l-2.2 8.1a2.8 2.8 0 0 1-.4.8l-3.2-2.4a2.6 2.6 0 0 0 .4-.9l2.2-8c.3-1.1 1-1.7 1.5-1.3l3.1 2.4Z" style="opacity:.1" fill="#000000"/><path d="m402.2 75 2.2 5.5a.5.5 0 0 0 .7.4L410 79c.8-.2 1 1 .5 2.2l-3.5 7.4a2.7 2.7 0 0 0-.3 1.4l.9 7c0 1.2-.7 2.5-1.4 2.4l-4.4-1c-.3 0-.6.1-.9.5l-4.3 6c-.7 1-1.6.6-1.4-.7l.8-8a1.3 1.3 0 0 0-.3-1.1l-3.5-3.3c-.6-.5-.3-2.2.5-2.8l5-3.9a2.4 2.4 0 0 0 .6-1.2l2.2-8.1c.4-1.3 1.4-1.9 1.7-1Z" style="fill:#fa5951"/><path d="M396 95.9a1.1 1.1 0 0 0-.3-.7l-3.5-3.3a1.5 1.5 0 0 1-.3-1.3l-3.2-2.4a1.5 1.5 0 0 0 .3 1.3l3.5 3.2a1 1 0 0 1 .3.5 2.7 2.7 0 0 1 0 .4 2 2 0 0 1 0 .3l-.9 8a1.3 1.3 0 0 0 .4 1.2l3.1 2.4a1.3 1.3 0 0 1-.3-1.2l.9-8a1 1 0 0 0 0-.1v-.3Z" style="fill:#fa5951"/><path d="M396 95.9a1.1 1.1 0 0 0-.3-.7l-3.5-3.3a1.5 1.5 0 0 1-.3-1.3l-3.2-2.4a1.5 1.5 0 0 0 .3 1.3l3.5 3.2a1 1 0 0 1 .3.5 2.7 2.7 0 0 1 0 .4 2 2 0 0 1 0 .3l-.9 8a1.3 1.3 0 0 0 .4 1.2l3.1 2.4a1.3 1.3 0 0 1-.3-1.2l.9-8a1 1 0 0 0 0-.1v-.3Z" style="opacity:.1" fill="#000000"/><path d="m396.6 182.8-18-10.4a4.7 4.7 0 0 0-4.6 0l-.7.4-39.1 22.6a14.2 14.2 0 0 0-7.1 12.3v29.8c0 2.2.7 3.8 2 4.6l17.7 10.2c1.2.7 3.1.8 5.2-.4l39.1-22.6a15.7 15.7 0 0 0 7.2-12.3v-29.8a5.5 5.5 0 0 0-1.7-4.4Z" style="fill:#fa5951"/><path d="M346.9 252.4 329.1 242c-1.3-.8-2-2.3-2-4.5v-29.9a14.3 14.3 0 0 1 2-7L347 211a14.5 14.5 0 0 0-2 7v29.8c0 2.2.7 3.8 1.9 4.6Z" style="opacity:.1" fill="#000000"/><path d="M398.3 187.2V217a15.7 15.7 0 0 1-7.1 12.3L352 252c-4 2.3-7.1.5-7.1-4V218a15.7 15.7 0 0 1 7.1-12.3l39.2-22.6c4-2.3 7.1-.4 7.1 4Z" style="fill:#fa5951"/><path d="m378.7 172.4 17.4 10.1c-1.2-.7-3-.5-5 .6L352 205.7a14.6 14.6 0 0 0-5 5.3l-18-10.4a14.3 14.3 0 0 1 5.2-5.2l39.2-22.6.6-.3a4.7 4.7 0 0 1 4.7 0Z" style="fill:#fff;opacity:.5"/><path d="m375.4 227.2-7.6 4.4 1.2-13.8c-1-.5-1.5-1.7-1.5-3.4 0-3 1.8-6.6 4.1-7.9s4.1 0 4.1 3.1a10.4 10.4 0 0 1-1.5 5.1Z" style="fill:#455a64"/><path d="m375.4 227.2-6.9-4-.7 8.4 7.6-4.4zM371.6 206.5a9 9 0 0 0-3.5 4.7l6.1 3.5a10.4 10.4 0 0 0 1.5-5c0-3.1-1.8-4.5-4-3.2ZM379.4 182.5v-30.3c0-6-2.3-10.8-6.3-13.1-3.8-2.2-8.5-2-13.3.8a34.9 34.9 0 0 0-15.5 28v30.3a2 2 0 0 0 1.2 1.6 6.3 6.3 0 0 0 5.6 0 2 2 0 0 0 1.2-1.6v-30.3a27 27 0 0 1 11.6-21c2-1.3 4-1.6 5.2-.9 1.4.8 2.3 3.2 2.3 6.2v30.3a2 2 0 0 0 1.2 1.6 6.3 6.3 0 0 0 5.6 0 2 2 0 0 0 1.2-1.6Z" style="fill:#37474f"/><path d="m166.7 127.5 102.7-59.3c1.2-.6 2.2 0 2.2 1.3v41a4.7 4.7 0 0 1-2.2 3.8l-102.7 59.3c-1.2.6-2.1 0-2.1-1.3v-41a4.8 4.8 0 0 1 2.1-3.8Z" style="fill:#fa5951;opacity:.7000000000000001"/><path d="m165.2 129.1-5.5-3.1a4.4 4.4 0 0 0-.6 2.1v41a1.5 1.5 0 0 0 .6 1.5l5.5 3.1a1.5 1.5 0 0 1-.6-1.4v-41a4.3 4.3 0 0 1 .6-2.2Z" style="fill:#fa5951;opacity:.30000000000000004"/><path d="m270.9 68-5.4-3.1a1.5 1.5 0 0 0-1.5.1l-102.8 59.4a4.4 4.4 0 0 0-1.5 1.6l5.5 3.1a4.4 4.4 0 0 1 1.5-1.6l102.7-59.3a1.6 1.6 0 0 1 1.5-.2Z" style="fill:#fa5951;opacity:.5"/><path d="M181.2 139a3.3 3.3 0 0 1-1.7-.4 4.1 4.1 0 0 1-1.8-3.7 10.8 10.8 0 0 1 5-8.6 3.7 3.7 0 0 1 6 3.5 10.8 10.8 0 0 1-5 8.5 5.1 5.1 0 0 1-2.5.8ZM190.8 140.3c-1.9-1-4.2-.9-6.6.5l-2.7 1.6A18.5 18.5 0 0 0 173 157v4.7l20.7-12v-3.2c0-2.8-1-5.1-2.9-6.2Z" style="fill:#fff"/><path d="M201 121.3c0 3 2.4 4.3 5.3 2.6L254.6 96a11 11 0 0 0 5.2-8.6c0-3-2.3-4.2-5.2-2.6l-48.3 28a11 11 0 0 0-5.2 8.5Z" style="fill:#fff;opacity:.7000000000000001"/><path d="m206 116.6 48.9-28.2c1-.6 1.7-.2 1.7.9a3.7 3.7 0 0 1-1.7 2.8L206 120.3c-1 .6-1.7.2-1.7-.9a3.7 3.7 0 0 1 1.7-2.8Z" style="fill:#455a64"/><path d="M201 140c0 3 2.4 4.2 5.3 2.5l48.3-27.9a11 11 0 0 0 5.2-8.6c0-3-2.3-4.2-5.2-2.6l-48.3 28a11 11 0 0 0-5.2 8.5Z" style="fill:#fff;opacity:.7000000000000001"/><path d="M209.2 133.4c.9-.5 1.6 0 1.6 1a3.5 3.5 0 0 1-1.6 2.7c-1 .6-1.6.1-1.6-.9a3.5 3.5 0 0 1 1.6-2.8ZM214.3 130.5c.8-.5 1.6-.1 1.6 1a3.5 3.5 0 0 1-1.6 2.7c-1 .5-1.7.1-1.7-1a3.5 3.5 0 0 1 1.7-2.7ZM219.3 127.5c1-.5 1.6 0 1.6 1a3.5 3.5 0 0 1-1.6 2.8c-.9.5-1.6 0-1.6-1a3.5 3.5 0 0 1 1.6-2.8ZM224.4 124.6c1-.5 1.6-.1 1.6 1a3.6 3.6 0 0 1-1.6 2.7c-.9.5-1.6.1-1.6-1a3.5 3.5 0 0 1 1.6-2.7ZM229.5 121.7c1-.6 1.6-.1 1.6.9a3.6 3.6 0 0 1-1.6 2.8c-.9.5-1.6 0-1.6-1a3.6 3.6 0 0 1 1.6-2.7ZM234.6 118.7c.9-.5 1.6 0 1.6 1a3.6 3.6 0 0 1-1.6 2.8c-.9.5-1.6 0-1.6-1a3.6 3.6 0 0 1 1.6-2.8ZM239.7 115.8c.9-.5 1.6-.1 1.6 1a3.6 3.6 0 0 1-1.6 2.7c-.9.5-1.6.1-1.6-1a3.6 3.6 0 0 1 1.6-2.7ZM244.8 112.8c.9-.5 1.6 0 1.6 1a3.6 3.6 0 0 1-1.6 2.8c-.9.5-1.6 0-1.6-1a3.6 3.6 0 0 1 1.6-2.8ZM249.9 110c.9-.6 1.6-.2 1.6.8a3.5 3.5 0 0 1-1.6 2.8c-1 .6-1.6.1-1.6-.9a3.5 3.5 0 0 1 1.6-2.8ZM255 107c.9-.5 1.6-.1 1.6 1a3.5 3.5 0 0 1-1.6 2.7c-.9.5-1.6.1-1.6-1a3.5 3.5 0 0 1 1.6-2.7Z" style="fill:#455a64"/><path d="M261 142.7a1 1 0 0 0-.3-1h-.1l-2-1.2a1 1 0 0 0-1 .1l-41.2 23.7-1.2-4.8a1.4 1.4 0 0 0-.6-.8l-2.1-1.2a1.3 1.3 0 0 0-1.3 0l-17.5 10a3.1 3.1 0 0 0-1.5 2.5v58.4a1 1 0 0 0 .4.9l2.2 1.3a1 1 0 0 0 1-.1l64-37a3.1 3.1 0 0 0 1.3-2.4Z" style="fill:#fa5951"/><path d="M214.6 158.7a1.3 1.3 0 0 0-1.3 0l-17.5 10.1a3 3 0 0 0-1 1.1l-2.2-1.2a2.9 2.9 0 0 1 1-1.1l17.6-10.1a1.3 1.3 0 0 1 1.3 0ZM260.6 141.7a1 1 0 0 0-1 .1l-41.1 23.8a1.3 1.3 0 0 1-2-.8l-.1-.5 41.1-23.7a1.3 1.3 0 0 1 .6-.2.7.7 0 0 1 .4.1Z" style="opacity:.2" fill="#000000"/><path d="M261 142.7V191a3.1 3.1 0 0 1-1.3 2.5l-64 37a.8.8 0 0 1-1.4-.7v-58.6a3.1 3.1 0 0 1 1.5-2.5l17.5-10a1.3 1.3 0 0 1 1.2-.1 1.3 1.3 0 0 1 .6.8l1.2 4.8.2.5a1.2 1.2 0 0 0 2 .8l41.1-23.8a1 1 0 0 1 1-.1 1 1 0 0 1 .5 1Z" style="fill:#fa5951"/><path d="M261 142.7V191a3.1 3.1 0 0 1-1.3 2.5l-64 37a.8.8 0 0 1-1.4-.7v-58.6a3.1 3.1 0 0 1 1.5-2.5l17.5-10a1.3 1.3 0 0 1 1.2-.1 1.3 1.3 0 0 1 .6.8l1.2 4.8.2.5a1.2 1.2 0 0 0 2 .8l41.1-23.8a1 1 0 0 1 1-.1 1 1 0 0 1 .5 1Z" style="opacity:.30000000000000004" fill="#000000"/><path d="m194.9 230.6-2.3-1.2a1 1 0 0 1-.4-1v-58.3a2.9 2.9 0 0 1 .5-1.4l2 1.2a2.9 2.9 0 0 0-.3 1.4v58.5a.8.8 0 0 0 .5.8Z" style="opacity:.5" fill="#000000"/><path d="M182.5 175.6a1.2 1.2 0 0 0-1 .1l-67.3 38.9a3.4 3.4 0 0 0-1.5 2.7V278a1.1 1.1 0 0 0 .4 1l-3-1.7a1.1 1.1 0 0 1-.4-1v-60.7a3.4 3.4 0 0 1 1.6-2.7l67.2-38.9a1.1 1.1 0 0 1 1.1-.1l2.9 1.7Z" style="fill:#fa5951;opacity:.7000000000000001"/><path d="m114.2 214.6 67.2-38.9c.9-.5 1.6 0 1.6 1v60.6a3.5 3.5 0 0 1-1.6 2.7L114.2 279c-.9.5-1.6 0-1.6-1v-60.6a3.5 3.5 0 0 1 1.6-2.8Z" style="fill:#fa5951;opacity:.7000000000000001"/><path d="m113 215.7-2.9-1.7a3.3 3.3 0 0 0-.4 1.6v60.7a1.1 1.1 0 0 0 .4 1l3 1.6a1.1 1.1 0 0 1-.5-1v-60.6a3.2 3.2 0 0 1 .5-1.6Z" style="opacity:.15" fill="#000000"/><path d="m182.5 175.6-2.9-1.7a1.1 1.1 0 0 0-1.1.1L111.2 213a3.3 3.3 0 0 0-1 1.1l2.9 1.7a3.1 3.1 0 0 1 1-1.1l67.3-38.9a1.2 1.2 0 0 1 1-.1Z" style="fill:#fff;opacity:.5"/><path d="m156.6 234.7 5.3 7.5-24-21.9-25.3 42.9V278c0 1 .7 1.4 1.6.9l67.2-38.9a3.5 3.5 0 0 0 1.6-2.7v-8.1l-18-13ZM159.5 198.7c3.2-1.8 5.7-.3 5.7 3.3a12.5 12.5 0 0 1-5.7 9.9c-3.1 1.8-5.6.3-5.6-3.3a12.6 12.6 0 0 1 5.6-9.9Z" style="fill:#fafafa;opacity:.9500000000000001"/><path d="m201.7 240.2 52.5-30.3a1.1 1.1 0 0 1 1.3 0l2.5 1.4a1.7 1.7 0 0 1 .6 1.4V260a4.3 4.3 0 0 1-1.8 3.5l-9.3 5.3-47-27.2a3.5 3.5 0 0 1 1.2-1.4Z" style="fill:#fa5951"/><path d="m201.7 240.2 52.5-30.3a1.1 1.1 0 0 1 1.3 0l2.5 1.4a1.7 1.7 0 0 1 .6 1.4V260a4.3 4.3 0 0 1-1.8 3.5l-9.3 5.3-47-27.2a3.5 3.5 0 0 1 1.2-1.4Z" style="fill:#fff;opacity:.5"/><path d="m203 293.8-2.6-1.5a1.6 1.6 0 0 1-.6-1.4v-47.3a4.4 4.4 0 0 1 .6-2l47.1 27.1-43.3 25a1.1 1.1 0 0 1-1.2.1Z" style="fill:#fa5951"/><path d="m203 293.8-2.6-1.5a1.6 1.6 0 0 1-.6-1.4v-47.3a4.4 4.4 0 0 1 .6-2l47.1 27.1-43.3 25a1.1 1.1 0 0 1-1.2.1Z" style="opacity:.2" fill="#000000"/><path d="m204.3 293.7 52.5-30.3a4.3 4.3 0 0 0 1.8-3.4v-47.3c0-1.3-.8-2-1.8-1.3l-52.5 30.3a4.3 4.3 0 0 0-1.8 3.4v47.3c0 1.3.8 2 1.8 1.3Z" style="fill:#fa5951"/><path d="M202.5 292.4v-1l21.7-36-21.5-11.8.2-.4 26.7 11.1c.6.3 1.3-.2 1.8-1l26.7-42a1.4 1.4 0 0 1 .2.3L236.9 248l21.7 10.9v1a4.8 4.8 0 0 1-.6 2.1L235.8 250l-3.2 5.4c-1.2 2.1-3 3.1-4.2 2.4l-3.1-1.7-22.3 37.7a1.7 1.7 0 0 1-.5-1.4Z" style="opacity:.2" fill="#000000"/><path d="m111.5 349.8-1.4-.8a1.8 1.8 0 0 1-.8-1.4v-57.8a1.8 1.8 0 0 1 .8-1.4l75-43.2a1.8 1.8 0 0 1 1.6 0l1.4.8a1.8 1.8 0 0 1 .8 1.4v57.8a1.8 1.8 0 0 1-.8 1.4l-75 43.2a1.8 1.8 0 0 1-1.5 0Z" style="fill:#f5f5f5"/><path d="m113.2 290.2 74.9-43.3c.5-.2.8 0 .8.5v57.8a1.8 1.8 0 0 1-.8 1.4l-75 43.2c-.4.3-.7 0-.7-.4v-57.8a1.8 1.8 0 0 1 .8-1.4Z" style="fill:#f0f0f0"/><path d="M188.1 247c-6.2 3.7-12.3 7.4-18.6 11L151 269 132 279.6l-9.4 5.3-9.5 5.2 9.2-5.6 9.3-5.5 18.7-11 18.8-10.6c6.3-3.6 12.6-7.2 18.9-10.6ZM112.6 290.8l-3-1.8a1.7 1.7 0 0 0-.2.8v57.8a1.8 1.8 0 0 0 .8 1.4l1.4.8a1.8 1.8 0 0 0 1.4.1c-.3.1-.6 0-.6-.5v-57.8a1.6 1.6 0 0 1 .2-.8Z" style="fill:#e0e0e0"/><path d="m112.4 298.2 76.5-44.2v15.1l-76.5 44.2v-15.1zM184.2 292.5v9.9a2.6 2.6 0 0 1-1.2 2l-10.3 6c-.7.4-1.2 0-1.2-.6v-10a2.6 2.6 0 0 1 1.2-2l10.3-6c.7-.4 1.2 0 1.2.7Z" style="fill:#fa5951"/><g style="clip-path:url(#a)"><path d="M184.2 292.5v9.9a2.6 2.6 0 0 1-1.2 2l-10.3 6c-.7.4-1.2 0-1.2-.6v-10a2.6 2.6 0 0 1 1.2-2l10.3-6c.7-.4 1.2 0 1.2.7Z" style="opacity:.2" fill="#000000"/><path d="m186.2 294 .3-.7-17 9.9-.3.7 17-9.9z" style="fill:#fff"/><path d="m179.6 302.8.5-.7v-5l-.5.6v5.1zM175.6 305.2l.5-.7v-5l-.5.6v5.1z" style="fill:#fff"/><path d="m186.2 299.1.3-.8-17 9.9-.3.8 17-9.9z" style="fill:#fff"/></g><path d="M117.2 304.5a2.4 2.4 0 0 1-.6-2 5.5 5.5 0 0 1 .6-2.7 4.5 4.5 0 0 1 1.8-1.8 3.8 3.8 0 0 1 .9-.4 1.4 1.4 0 0 1 .6 0 .1.1 0 0 1 .1.1.4.4 0 0 1 0 .2l-.2.7a.3.3 0 0 1-.1.1.2.2 0 0 1-.1 0 1.5 1.5 0 0 0-1 .3 2.8 2.8 0 0 0-1.1 1.1 4 4 0 0 0-.4 1.8c0 .7.2 1.2.4 1.4s.6.1 1.1-.1a3.4 3.4 0 0 0 1-1h.2l.3.4a.4.4 0 0 1-.1.3 4.6 4.6 0 0 1-1.6 1.4c-.8.4-1.4.5-1.8.2ZM121.3 302.7v-5.5a.7.7 0 0 1 0-.3.5.5 0 0 1 .2-.2l1.7-1c1.1-.7 1.7-.4 1.7 1a3.5 3.5 0 0 1-.2 1.1 3.3 3.3 0 0 1-.6 1l.7 1.7a.3.3 0 0 1-.1.3l-.8.5a.3.3 0 0 1-.1 0s0 0-.1-.1l-.6-1.6-.8.4v1.8a.7.7 0 0 1 0 .3.6.6 0 0 1-.3.2l-.5.3-.2.1Zm1.7-4a1.6 1.6 0 0 0 .6-.6 1.6 1.6 0 0 0 .2-.8q0-.4-.2-.6l-.5.1-.8.5v1.8ZM125.5 300.3a.3.3 0 0 1 0-.2v-5.3a.9.9 0 0 1 0-.3.7.7 0 0 1 .2-.3l2.8-1.6h.2v.6a.8.8 0 0 1 0 .3.5.5 0 0 1-.2.3l-2 1v1.5l1.4-.8h.2a.4.4 0 0 1 0 .3v.2a.7.7 0 0 1 0 .3.5.5 0 0 1-.2.2l-1.4.8v1.4l2-1c0-.1.2-.2.2 0a.4.4 0 0 1 0 .2v.3a.7.7 0 0 1 0 .3.7.7 0 0 1-.2.2l-2.8 1.6h-.2ZM129.3 298v-5.4a.7.7 0 0 1 0-.4.6.6 0 0 1 .2-.2l1.4-.8c.8-.4 1.4-.5 1.8-.3s.6 1 .6 2a5.3 5.3 0 0 1-.6 2.6 4.5 4.5 0 0 1-1.8 1.7l-1.4.9h-.2Zm1.7-1.9a2.1 2.1 0 0 0 .9-1 4 4 0 0 0 .3-1.6 2 2 0 0 0-.3-1.3c-.2-.2-.5-.2-.9 0l-.7.4v4ZM133.9 295.5a.3.3 0 0 1 0-.3V290a.8.8 0 0 1 0-.3.6.6 0 0 1 .2-.3l.5-.2c.1-.1.2-.1.2 0l.1.2v5.3a.8.8 0 0 1 0 .3.7.7 0 0 1-.3.2l-.5.3h-.2ZM136.8 293.8a.3.3 0 0 1-.1-.2V289l-1.1.6c-.1 0-.2.1-.2 0v-.5a.8.8 0 0 1 0-.4.6.6 0 0 1 .2-.2l3.3-1.9h.2a.3.3 0 0 1 0 .3v.3a.7.7 0 0 1 0 .3.5.5 0 0 1-.2.2l-1.1.7v4.5a.6.6 0 0 1-.3.6l-.5.3h-.2ZM142.5 290c-.4-.4-.7-1-.7-2a5.7 5.7 0 0 1 .7-2.8 4.6 4.6 0 0 1 1.7-1.8 3.5 3.5 0 0 1 1-.4 1.3 1.3 0 0 1 .6 0 .1.1 0 0 1 0 .1.8.8 0 0 1 0 .2l-.2.7a.3.3 0 0 1 0 .1.2.2 0 0 1-.2 0 1.6 1.6 0 0 0-1 .3 2.7 2.7 0 0 0-1 1.1 4 4 0 0 0-.4 1.8c0 .7.1 1.1.4 1.3s.6.2 1 0a3.6 3.6 0 0 0 1.1-1 .7.7 0 0 1 .1-.1s0 0 .1 0l.3.4a.2.2 0 0 1 0 .1.4.4 0 0 1-.1.2 4.7 4.7 0 0 1-1.6 1.4c-.8.5-1.4.6-1.8.3ZM146.2 288.3a1 1 0 0 1 0-.2l1.7-6.4a1.3 1.3 0 0 1 .1-.3.5.5 0 0 1 .2-.1l.5-.3a.2.2 0 0 1 .1 0 .3.3 0 0 1 .1.1l1.8 4.5a.7.7 0 0 1 0 .1.2.2 0 0 1-.2.3l-.8.4a.2.2 0 0 1-.1 0l-.4-1-1.6 1-.3 1.2a1.2 1.2 0 0 1 0 .2.4.4 0 0 1-.2.1l-.8.5-.1-.1Zm2.8-3.7-.6-1.6-.5 2.2ZM151.3 285.4v-5.5a.7.7 0 0 1 0-.3.5.5 0 0 1 .2-.3l1.7-1c1.2-.6 1.7-.3 1.7 1a3.6 3.6 0 0 1-.2 1.2 3.2 3.2 0 0 1-.6 1l.7 1.6a.5.5 0 0 1 0 .2.3.3 0 0 1-.1.2l-.7.5h-.2l-.6-1.6-.8.4v1.8a.8.8 0 0 1 0 .3.6.6 0 0 1-.3.2l-.5.3h-.3Zm1.8-4.1a1.6 1.6 0 0 0 .5-.5 1.5 1.5 0 0 0 .2-.8l-.1-.6h-.6l-.8.5v1.8ZM155.5 283a.3.3 0 0 1 0-.3v-5.2a.8.8 0 0 1 0-.3.6.6 0 0 1 .3-.3l1.4-.8c.7-.4 1.3-.5 1.7-.3s.6 1 .6 2a5.3 5.3 0 0 1-.6 2.6 4.5 4.5 0 0 1-1.7 1.8l-1.4.8h-.3Zm1.7-2a2.2 2.2 0 0 0 .9-.9 4 4 0 0 0 .3-1.7 2 2 0 0 0-.3-1.3c-.2-.2-.5-.2-.9 0l-.6.4v4Z" style="fill:#455a64"/><g style="opacity:.15"><path d="M117.2 304.5a2.4 2.4 0 0 1-.6-2 5.5 5.5 0 0 1 .6-2.7 4.5 4.5 0 0 1 1.8-1.8 3.8 3.8 0 0 1 .9-.4 1.4 1.4 0 0 1 .6 0 .1.1 0 0 1 .1.1.4.4 0 0 1 0 .2l-.2.7a.3.3 0 0 1-.1.1.2.2 0 0 1-.1 0 1.5 1.5 0 0 0-1 .3 2.8 2.8 0 0 0-1.1 1.1 4 4 0 0 0-.4 1.8c0 .7.2 1.2.4 1.4s.6.1 1.1-.1a3.4 3.4 0 0 0 1-1h.2l.3.4a.4.4 0 0 1-.1.3 4.6 4.6 0 0 1-1.6 1.4c-.8.4-1.4.5-1.8.2ZM121.3 302.7v-5.5a.7.7 0 0 1 0-.3.5.5 0 0 1 .2-.2l1.7-1c1.1-.7 1.7-.4 1.7 1a3.5 3.5 0 0 1-.2 1.1 3.3 3.3 0 0 1-.6 1l.7 1.7a.3.3 0 0 1-.1.3l-.8.5a.3.3 0 0 1-.1 0s0 0-.1-.1l-.6-1.6-.8.4v1.8a.7.7 0 0 1 0 .3.6.6 0 0 1-.3.2l-.5.3-.2.1Zm1.7-4a1.6 1.6 0 0 0 .6-.6 1.6 1.6 0 0 0 .2-.8q0-.4-.2-.6l-.5.1-.8.5v1.8ZM125.5 300.3a.3.3 0 0 1 0-.2v-5.3a.9.9 0 0 1 0-.3.7.7 0 0 1 .2-.3l2.8-1.6h.2v.6a.8.8 0 0 1 0 .3.5.5 0 0 1-.2.3l-2 1v1.5l1.4-.8h.2a.4.4 0 0 1 0 .3v.2a.7.7 0 0 1 0 .3.5.5 0 0 1-.2.2l-1.4.8v1.4l2-1c0-.1.2-.2.2 0a.4.4 0 0 1 0 .2v.3a.7.7 0 0 1 0 .3.7.7 0 0 1-.2.2l-2.8 1.6h-.2ZM129.3 298v-5.4a.7.7 0 0 1 0-.4.6.6 0 0 1 .2-.2l1.4-.8c.8-.4 1.4-.5 1.8-.3s.6 1 .6 2a5.3 5.3 0 0 1-.6 2.6 4.5 4.5 0 0 1-1.8 1.7l-1.4.9h-.2Zm1.7-1.9a2.1 2.1 0 0 0 .9-1 4 4 0 0 0 .3-1.6 2 2 0 0 0-.3-1.3c-.2-.2-.5-.2-.9 0l-.7.4v4ZM133.9 295.5a.3.3 0 0 1 0-.3V290a.8.8 0 0 1 0-.3.6.6 0 0 1 .2-.3l.5-.2c.1-.1.2-.1.2 0l.1.2v5.3a.8.8 0 0 1 0 .3.7.7 0 0 1-.3.2l-.5.3h-.2ZM136.8 293.8a.3.3 0 0 1-.1-.2V289l-1.1.6c-.1 0-.2.1-.2 0v-.5a.8.8 0 0 1 0-.4.6.6 0 0 1 .2-.2l3.3-1.9h.2a.3.3 0 0 1 0 .3v.3a.7.7 0 0 1 0 .3.5.5 0 0 1-.2.2l-1.1.7v4.5a.6.6 0 0 1-.3.6l-.5.3h-.2ZM142.5 290c-.4-.4-.7-1-.7-2a5.7 5.7 0 0 1 .7-2.8 4.6 4.6 0 0 1 1.7-1.8 3.5 3.5 0 0 1 1-.4 1.3 1.3 0 0 1 .6 0 .1.1 0 0 1 0 .1.8.8 0 0 1 0 .2l-.2.7a.3.3 0 0 1 0 .1.2.2 0 0 1-.2 0 1.6 1.6 0 0 0-1 .3 2.7 2.7 0 0 0-1 1.1 4 4 0 0 0-.4 1.8c0 .7.1 1.1.4 1.3s.6.2 1 0a3.6 3.6 0 0 0 1.1-1 .7.7 0 0 1 .1-.1s0 0 .1 0l.3.4a.2.2 0 0 1 0 .1.4.4 0 0 1-.1.2 4.7 4.7 0 0 1-1.6 1.4c-.8.5-1.4.6-1.8.3ZM146.2 288.3a1 1 0 0 1 0-.2l1.7-6.4a1.3 1.3 0 0 1 .1-.3.5.5 0 0 1 .2-.1l.5-.3a.2.2 0 0 1 .1 0 .3.3 0 0 1 .1.1l1.8 4.5a.7.7 0 0 1 0 .1.2.2 0 0 1-.2.3l-.8.4a.2.2 0 0 1-.1 0l-.4-1-1.6 1-.3 1.2a1.2 1.2 0 0 1 0 .2.4.4 0 0 1-.2.1l-.8.5-.1-.1Zm2.8-3.7-.6-1.6-.5 2.2ZM151.3 285.4v-5.5a.7.7 0 0 1 0-.3.5.5 0 0 1 .2-.3l1.7-1c1.2-.6 1.7-.3 1.7 1a3.6 3.6 0 0 1-.2 1.2 3.2 3.2 0 0 1-.6 1l.7 1.6a.5.5 0 0 1 0 .2.3.3 0 0 1-.1.2l-.7.5h-.2l-.6-1.6-.8.4v1.8a.8.8 0 0 1 0 .3.6.6 0 0 1-.3.2l-.5.3h-.3Zm1.8-4.1a1.6 1.6 0 0 0 .5-.5 1.5 1.5 0 0 0 .2-.8l-.1-.6h-.6l-.8.5v1.8ZM155.5 283a.3.3 0 0 1 0-.3v-5.2a.8.8 0 0 1 0-.3.6.6 0 0 1 .3-.3l1.4-.8c.7-.4 1.3-.5 1.7-.3s.6 1 .6 2a5.3 5.3 0 0 1-.6 2.6 4.5 4.5 0 0 1-1.7 1.8l-1.4.8h-.3Zm1.7-2a2.2 2.2 0 0 0 .9-.9 4 4 0 0 0 .3-1.7 2 2 0 0 0-.3-1.3c-.2-.2-.5-.2-.9 0l-.6.4v4Z" style="fill:#455a64"/></g><path d="m123.5 324.8 3-1.7c.4-.2.7 0 .7.4v.9a1.5 1.5 0 0 1-.7 1.2l-3 1.7c-.4.2-.7 0-.7-.4v-.9a1.6 1.6 0 0 1 .7-1.2ZM117 328.6l3-1.7c.4-.3.7 0 .7.4v.9a1.5 1.5 0 0 1-.7 1.2l-3 1.7c-.4.2-.7 0-.7-.4v-1a1.5 1.5 0 0 1 .7-1.1ZM154.3 313.3l-36.8 21.2a2.5 2.5 0 0 0-1.1 2v1.1c0 .8.5 1 1.1.7l36.8-21.3a2.6 2.6 0 0 0 1.2-2v-1c0-.8-.5-1-1.2-.7Z" style="fill:#fa5951"/><path d="m123.5 324.8 3-1.7c.4-.2.7 0 .7.4v.9a1.5 1.5 0 0 1-.7 1.2l-3 1.7c-.4.2-.7 0-.7-.4v-.9a1.6 1.6 0 0 1 .7-1.2ZM117 328.6l3-1.7c.4-.3.7 0 .7.4v.9a1.5 1.5 0 0 1-.7 1.2l-3 1.7c-.4.2-.7 0-.7-.4v-1a1.5 1.5 0 0 1 .7-1.1ZM154.3 313.3l-36.8 21.2a2.5 2.5 0 0 0-1.1 2v1.1c0 .8.5 1 1.1.7l36.8-21.3a2.6 2.6 0 0 0 1.2-2v-1c0-.8-.5-1-1.2-.7Z" style="fill:#455a64"/><path d="m117 318.3.1-.1c.5-.3.8 0 .8.5v3a1.9 1.9 0 0 1-.8 1.4c-.5.3-.9 0-.9-.5v-3a1.8 1.8 0 0 1 .8-1.4ZM121 316c.5-.3.8 0 .8.5v2.9a1.9 1.9 0 0 1-.7 1.5h-.2c-.4.3-.7 0-.7-.5v-3a1.8 1.8 0 0 1 .7-1.4ZM124.8 313.8h.2c.4-.3.7 0 .7.5v2.9a1.9 1.9 0 0 1-.8 1.5c-.5.3-.8 0-.8-.5v-3a1.8 1.8 0 0 1 .7-1.4ZM128.7 311.6l.2-.1c.4-.3.7 0 .7.6v2.9a1.9 1.9 0 0 1-.8 1.5c-.5.3-.8 0-.8-.5v-3a1.8 1.8 0 0 1 .7-1.4ZM135.2 307.7h.2c.4-.3.7 0 .7.5v3a1.9 1.9 0 0 1-.7 1.4h-.2c-.4.3-.7 0-.7-.5v-3a1.8 1.8 0 0 1 .7-1.4ZM139.1 305.5h.2c.4-.3.7 0 .7.5v2.9a1.9 1.9 0 0 1-.8 1.5c-.5.3-.8 0-.8-.5v-3a1.8 1.8 0 0 1 .7-1.4ZM143 303.3l.1-.1c.5-.2.8 0 .8.6v2.9a1.9 1.9 0 0 1-.8 1.4v.1c-.5.3-.9 0-.9-.5v-3a1.8 1.8 0 0 1 .8-1.4ZM147 301c.4-.2.8 0 .8.6v2.9a1.9 1.9 0 0 1-.8 1.4l-.1.1c-.5.3-.8 0-.8-.5v-3a1.8 1.8 0 0 1 .8-1.4ZM153.4 297.2h.2c.4-.3.7 0 .7.5v3a1.9 1.9 0 0 1-.7 1.4h-.2c-.4.3-.7 0-.7-.5v-3a1.8 1.8 0 0 1 .7-1.4ZM157.3 295h.2c.4-.3.7 0 .7.5v2.9a1.9 1.9 0 0 1-.8 1.5c-.5.3-.8 0-.8-.5v-3a1.8 1.8 0 0 1 .7-1.4ZM161.2 292.8l.2-.1c.4-.3.7 0 .7.6v2.9a1.9 1.9 0 0 1-.8 1.4v.1c-.5.3-.8 0-.8-.5v-3a1.8 1.8 0 0 1 .7-1.4ZM165.1 290.5h.1c.4-.3.8 0 .8.5v3a1.9 1.9 0 0 1-.8 1.4c-.5.3-.9 0-.9-.5v-3a1.8 1.8 0 0 1 .8-1.4ZM171.6 286.7h.2c.4-.3.7 0 .7.5v3a2 2 0 0 1-.8 1.4c-.5.3-.8 0-.8-.5v-3a1.8 1.8 0 0 1 .7-1.4ZM175.5 284.5h.1c.5-.3.8 0 .8.5v2.9a2 2 0 0 1-.8 1.5c-.5.3-.9 0-.9-.5v-3a1.8 1.8 0 0 1 .8-1.4ZM179.4 282.3l.1-.1c.5-.2.8 0 .8.6v2.9a1.9 1.9 0 0 1-.8 1.4v.1c-.5.3-.9 0-.9-.5v-3a1.8 1.8 0 0 1 .8-1.4ZM183.3 280h.1c.4-.3.8 0 .8.5v2.9a1.9 1.9 0 0 1-.8 1.5h-.1c-.4.3-.8 0-.8-.5v-3a1.8 1.8 0 0 1 .8-1.4ZM112.4 298.2l-3.1-1.8v15.1l3.1 1.8v-15.1z" style="fill:#fa5951"/><path d="m112.4 298.2-3.1-1.8v15.1l3.1 1.8v-15.1z" style="opacity:.2" fill="#000000"/><path d="M109.6 153v48a2.2 2.2 0 0 0 1 1.8l1.8 1a2.2 2.2 0 0 0 2 0l34-19.6a2.2 2.2 0 0 0 1-1.8v-48a2.2 2.2 0 0 0-1-1.7l-1.8-1a2.3 2.3 0 0 0-2 0l-34 19.6a2.2 2.2 0 0 0-1 1.7Z" style="fill:#ebebeb"/><path d="M149.4 134.3c0-.5-.5-.7-1-.4l-34 19.6a2 2 0 0 0-.7.7L110 152a2 2 0 0 1 .7-.8l34-19.5a2.3 2.3 0 0 1 2 0l1.8 1a2.3 2.3 0 0 1 1 1.6Z" style="fill:#f5f5f5"/><path d="M114.2 203.9h-.4a2.4 2.4 0 0 1-1.2 0l-.2-.2-1.8-1a2.3 2.3 0 0 1-1-1.7v-48a2 2 0 0 1 .3-1l3.8 2.2a2.1 2.1 0 0 0-.3 1v48a.8.8 0 0 0 .2.5.5.5 0 0 0 .5.2Z" style="fill:#e0e0e0"/><path d="M139.5 172.6a5.5 5.5 0 0 1-3.1-.9.3.3 0 0 1 .3-.5 6 6 0 0 0 4.5.6.3.3 0 0 1 .4.2.3.3 0 0 1-.3.4 10.6 10.6 0 0 1-1.8.2ZM136 171a.4.4 0 0 1-.3-.2c-1-1.3-1.2-3.2-1.3-5.3l-.1-1a2.5 2.5 0 0 0-.7-1.9 1.4 1.4 0 0 0-1.3 0 .3.3 0 1 1-.2-.7 2 2 0 0 1 1.9.2 3 3 0 0 1 1 2.4v1c.2 2 .3 3.8 1.3 5a.3.3 0 0 1 0 .4.3.3 0 0 1-.3 0ZM130 175.6a.3.3 0 0 1-.4-.2c-1-2.7-1.7-10.8 1.6-13a.3.3 0 0 1 .4 0 .3.3 0 0 1 0 .5c-2.9 2-2.4 9.7-1.4 12.3a.3.3 0 0 1-.2.4ZM137.6 180.6a8 8 0 0 1-7.4-4.1.3.3 0 0 1 0-.4.3.3 0 0 1 .5 0c1.6 2.9 4.5 4.2 8.2 3.8a.3.3 0 0 1 .4.2.3.3 0 0 1-.3.4h-1.4Z" style="fill:#455a64"/><path d="M138.3 178.7a7.3 7.3 0 0 1-5.3-1.9c-2-2-2.8-5.3-2.5-10.2a3.4 3.4 0 0 1 1.4-2.5 1.2 1.2 0 0 1 1.2 0 1.4 1.4 0 0 1 .6 1.2c0 4 .7 6.4 2.2 7.7 1.1 1 2.8 1.3 5 1a.3.3 0 1 1 .2.6c-2.5.4-4.3 0-5.6-1-1.7-1.5-2.5-4.2-2.4-8.2a.8.8 0 0 0-.3-.7.5.5 0 0 0-.6 0 2.8 2.8 0 0 0-1 2c-.4 4.6.4 7.9 2.3 9.7 1.4 1.3 3.5 1.9 6.1 1.6a.3.3 0 0 1 0 .6 11.5 11.5 0 0 1-1.3.1Z" style="fill:#455a64"/><path d="M136.8 182.8a8.7 8.7 0 0 1-6.4-2.4c-2.4-2.3-3.4-6.3-3.1-11.8.1-3 1.3-6.9 4-8.4a3.2 3.2 0 0 1 3.2-.3c1.1.6 1.8 2 2 3.8v.4c0 1.9.2 3.8 1.5 4.8a4.5 4.5 0 0 0 3.6.5.3.3 0 0 1 .4.3.3.3 0 0 1-.3.4 5.1 5.1 0 0 1-4.1-.7c-1.5-1.1-1.7-3.3-1.8-5.3v-.3c-.1-1.7-.7-2.9-1.6-3.4a2.6 2.6 0 0 0-2.5.3h-.1c-2.4 1.4-3.5 5.2-3.6 8-.3 5.2.6 9 2.9 11.3a8.5 8.5 0 0 0 6.8 2.1.3.3 0 1 1 0 .7ZM136.2 185.1a10.4 10.4 0 0 1-3.4-.6.3.3 0 0 1-.2-.4.3.3 0 0 1 .4-.2 9.7 9.7 0 0 0 3.2.6.3.3 0 0 1 .3.3.3.3 0 0 1-.3.3ZM131.8 184.2a.3.3 0 0 1-.2 0 8.6 8.6 0 0 1-4.3-4 .3.3 0 0 1 .2-.5.3.3 0 0 1 .4.2 7.8 7.8 0 0 0 4 3.7.3.3 0 0 1 .2.5.3.3 0 0 1-.3 0Z" style="fill:#455a64"/><path d="M127 178.9a.3.3 0 0 1-.3-.2c-1.3-3.7-2-11.1 1-16.8a.3.3 0 0 1 .4-.1.3.3 0 0 1 .2.4c-3 5.5-2.2 12.7-1 16.3a.3.3 0 0 1-.2.4.2.2 0 0 1-.1 0ZM137.6 163.7a.3.3 0 0 1-.3-.3c-.3-3.3-1.2-4.8-3-5.2s-3.8.8-5.4 3a.3.3 0 1 1-.5-.4c1.8-2.5 4-3.7 6-3.3 2.7.6 3.3 3.3 3.5 5.8a.3.3 0 0 1-.3.4ZM140.4 168.3a2.8 2.8 0 0 1-1.5-.4 3.4 3.4 0 0 1-1.4-2.7.3.3 0 1 1 .7 0 2.8 2.8 0 0 0 1 2.1 3 3 0 0 0 2.5 0 .3.3 0 0 1 .3.7 4.5 4.5 0 0 1-1.6.3Z" style="fill:#455a64"/><path d="M134.9 186.9a13.3 13.3 0 0 1-3.4-.9c-5.7-2.3-8-7-7.6-15.7.2-5 2.8-11.4 7.3-14 1.9-1.1 3.5-1.3 4.9-.7 1.6.8 2.6 2.8 3 5.8.5 3.4 1.3 4 3 3.9a.3.3 0 0 1 .2.3.3.3 0 0 1-.3.3c-2.1 0-3-1-3.5-4.4-.4-2.8-1.3-4.6-2.7-5.3-1.2-.6-2.6-.4-4.3.6-4.3 2.5-6.8 8.7-7 13.5-.4 10.5 3.4 13.5 7.2 15.1a12.4 12.4 0 0 0 3.2.8.3.3 0 0 1 0 .7Z" style="fill:#455a64"/><path d="M142 163.7c-1.8 0-2.2-2.4-2.5-4.3l-.2-.8a.3.3 0 0 1 .3-.3.3.3 0 0 1 .4.2l.1.8c.3 1.8.7 3.8 2 3.7a.3.3 0 0 1 .3.4.3.3 0 0 1-.3.3ZM139.4 157.8a.3.3 0 0 1-.3-.3c-.7-2.1-2-3.4-3.6-3.7a.3.3 0 0 1-.2-.4.3.3 0 0 1 .3-.3c1.9.4 3.4 1.9 4 4.2a.3.3 0 0 1-.2.4ZM128.7 156.8a.3.3 0 0 1-.2-.1.3.3 0 0 1 0-.5 9.6 9.6 0 0 1 6.1-3.1.3.3 0 0 1 .4.3.3.3 0 0 1-.4.3 9 9 0 0 0-5.7 3 .3.3 0 0 1-.2 0ZM123.3 166a.3.3 0 0 1-.3-.4 21.6 21.6 0 0 1 4.3-8.4.3.3 0 0 1 .5 0 .3.3 0 0 1 0 .5 20.9 20.9 0 0 0-4.2 8 .3.3 0 0 1-.3.3ZM122.6 175.6a.3.3 0 0 1-.3-.3 27.8 27.8 0 0 1 .3-8.3.3.3 0 0 1 .6.1 27.2 27.2 0 0 0-.2 8.1.3.3 0 0 1-.3.4ZM125 183.5a.3.3 0 0 1-.3-.2 19.4 19.4 0 0 1-2.2-6.3.3.3 0 0 1 .3-.4.3.3 0 0 1 .3.3 18.8 18.8 0 0 0 2.2 6.1.3.3 0 0 1-.1.5.3.3 0 0 1-.2 0ZM132.1 189a.3.3 0 0 1-.1 0 14.3 14.3 0 0 1-6.3-4.5.3.3 0 0 1 .5-.4 13.8 13.8 0 0 0 6 4.2.3.3 0 0 1 .2.5.3.3 0 0 1-.3.1Z" style="fill:#455a64"/><path d="M129.7 190.3h-.2c-5.9-2.4-9-8.6-9-18 0-7.2 3.3-16.3 10.7-20.4a7.2 7.2 0 0 1 7.2 0c2.5 1.5 4 4.6 4 8.4a.3.3 0 0 1-.3.3.3.3 0 0 1-.3-.3c0-3.6-1.4-6.4-3.7-7.8a6.5 6.5 0 0 0-6.6 0c-7.1 3.9-10.3 12.8-10.3 19.8 0 6.3 1.5 14.5 8.6 17.4a.3.3 0 0 1 0 .6ZM138.7 176.7h-.6a.3.3 0 1 1 0-.6 13.5 13.5 0 0 0 2.4-.1.3.3 0 0 1 .3.3.3.3 0 0 1-.3.3 15.3 15.3 0 0 1-1.8.1Z" style="fill:#455a64"/><path d="M136.9 176.6a5 5 0 0 1-3.6-2.6.3.3 0 0 1 .1-.4.3.3 0 0 1 .5.1 4.3 4.3 0 0 0 3 2.3.3.3 0 0 1 .3.3.3.3 0 0 1-.3.3ZM133 173.2a.3.3 0 0 1-.2-.2 15.2 15.2 0 0 1-1-7.1.3.3 0 0 1 .4-.3.3.3 0 0 1 .3.3 14.9 14.9 0 0 0 .9 6.8.3.3 0 0 1-.2.5ZM139.6 150.1a.3.3 0 0 1-.2 0 7 7 0 0 0-5.1-1 .3.3 0 0 1-.4-.3.3.3 0 0 1 .2-.4 7.7 7.7 0 0 1 5.7 1 .3.3 0 0 1 .1.6.3.3 0 0 1-.3.1ZM126 154.1a.3.3 0 0 1-.3 0 .3.3 0 0 1 0-.5 17.8 17.8 0 0 1 6.9-4.7.3.3 0 0 1 .4.2.3.3 0 0 1-.2.4 17.2 17.2 0 0 0-6.6 4.5.4.4 0 0 1-.3.1ZM126.1 191.1a.4.4 0 0 1-.1 0 7.9 7.9 0 0 1-2.6-2.1.3.3 0 0 1 0-.5.3.3 0 0 1 .4 0 7.2 7.2 0 0 0 2.4 2 .3.3 0 0 1-.1.6ZM122.8 187.9a.3.3 0 0 1-.3-.1 14.6 14.6 0 0 1-2.3-4.2.3.3 0 0 1 .7-.2 13.6 13.6 0 0 0 2.1 4 .3.3 0 0 1 0 .4.3.3 0 0 1-.2 0Z" style="fill:#455a64"/></svg>