<svg xmlns="http://www.w3.org/2000/svg" viewBox="0 0 500 500"><path d="M98 114.3a3.4 3.4 0 0 1-.5 0l-4.6-1.2a2.7 2.7 0 0 1-1.7-1.4 2.6 2.6 0 0 1-.1-2.2l3.4-8.3a2 2 0 0 0-.5-1.9 13.2 13.2 0 0 1-1.2-1.6.8.8 0 0 0-1-.3l-6.3 3.8a2.1 2.1 0 0 1-3.4-1.6l-1-6.7a4.8 4.8 0 0 1 1.5-3.9l6.4-5.5a4.7 4.7 0 0 0 1.2-2.3 41.9 41.9 0 0 1 1-4.6 1.2 1.2 0 0 0-.6-1.3L87 73.7a2.8 2.8 0 0 1-1.4-3.8l4.5-9.3a3.9 3.9 0 0 1 3.6-2l4.5.3a2.6 2.6 0 0 0 2-1c1-1.4 2.1-2.9 3.3-4.2a4.2 4.2 0 0 0 1-2.4l-.3-6.6a4.9 4.9 0 0 1 1.8-3.8l7-5.2a2.3 2.3 0 0 1 2.2-.4 2.3 2.3 0 0 1 1.4 1.6l1.5 5.3a.6.6 0 0 0 .2.3.7.7 0 0 0 .5 0 23.8 23.8 0 0 1 3-.9 3.5 3.5 0 0 0 2-1.4l4.6-8.1a3.5 3.5 0 0 1 3.8-1.7l4.6 1.2a2.6 2.6 0 0 1 1.8 3.6l-3.3 8.3a2 2 0 0 0 .4 1.9A13.4 13.4 0 0 1 137 47a.8.8 0 0 0 1 .3l6.3-3.8a2.1 2.1 0 0 1 3.3 1.6l1 6.7a4.7 4.7 0 0 1-1.5 3.9l-6.3 5.5a4.6 4.6 0 0 0-1.2 2.3 43 43 0 0 1-1 4.6 1.2 1.2 0 0 0 .6 1.3l3.6 1.6a2.8 2.8 0 0 1 1.4 1.6 2.8 2.8 0 0 1 0 2.2l-4.5 9.3a3.9 3.9 0 0 1-3.7 2l-4.5-.3a2.6 2.6 0 0 0-1.9 1c-1 1.4-2.2 2.8-3.4 4.2a4.2 4.2 0 0 0-.9 2.4l.2 6.6a4.9 4.9 0 0 1-1.8 3.8l-7 5.2a2.2 2.2 0 0 1-3.6-1.2l-1.4-5.3a.5.5 0 0 0-.3-.3.7.7 0 0 0-.5 0 22.6 22.6 0 0 1-3 .9 3.5 3.5 0 0 0-2 1.4l-4.6 8.1a3.6 3.6 0 0 1-3.4 1.7Zm-5.6-19a3 3 0 0 1 2.1 1.2 11.4 11.4 0 0 0 1 1.4 4 4 0 0 1 .9 4l-3.4 8.4a.6.6 0 0 0 0 .5.6.6 0 0 0 .4.3l4.6 1.1a1.5 1.5 0 0 0 1.5-.6l4.6-8.2a5.5 5.5 0 0 1 3.4-2.4 19.8 19.8 0 0 0 2.7-.8 2.7 2.7 0 0 1 2.2.1 2.5 2.5 0 0 1 1.3 1.7l1.4 5.2.1.2a.6.6 0 0 0 .2 0l7.1-5.3a2.9 2.9 0 0 0 1-2l-.2-6.6a6.2 6.2 0 0 1 1.4-3.9c1.2-1.2 2.3-2.6 3.3-4a4.6 4.6 0 0 1 3.8-1.8l4.4.3a1.8 1.8 0 0 0 1.6-.9l4.5-9.2a.7.7 0 0 0 0-.6.7.7 0 0 0-.4-.5l-3.5-1.6a3.3 3.3 0 0 1-1.8-3.7 38.4 38.4 0 0 0 .9-4.4 6.7 6.7 0 0 1 2-3.6l6.2-5.4a2.6 2.6 0 0 0 .8-2l-1-6.8a.6.6 0 0 0 0-.2 1.6 1.6 0 0 0-.2.1l-6.2 3.9a2.8 2.8 0 0 1-3.9-1 12 12 0 0 0-1-1.3 4 4 0 0 1-.8-4l3.3-8.4a.6.6 0 0 0 0-.5.6.6 0 0 0-.4-.2l-4.5-1.2a1.4 1.4 0 0 0-1.5.6l-4.6 8.2a5.5 5.5 0 0 1-3.4 2.4 22.2 22.2 0 0 0-2.7.8 2.7 2.7 0 0 1-2.2-.1 2.5 2.5 0 0 1-1.3-1.7l-1.5-5.2a.4.4 0 0 0 0-.2.8.8 0 0 0-.3 0l-7 5.3a2.8 2.8 0 0 0-1 2l.2 6.6a6.3 6.3 0 0 1-1.5 3.8 51.7 51.7 0 0 0-3.3 4A4.6 4.6 0 0 1 98 61l-4.5-.3a1.8 1.8 0 0 0-1.5.8l-4.5 9.3a.8.8 0 0 0 .4 1l3.5 1.7a3.3 3.3 0 0 1 1.7 3.7 39.9 39.9 0 0 0-.8 4.3 6.6 6.6 0 0 1-2 3.6L84 90.6a2.7 2.7 0 0 0-.8 2l1 6.8a.7.7 0 0 0 0 .1 1.3 1.3 0 0 0 .2 0l6.3-3.9a2.7 2.7 0 0 1 1.7-.4Zm15.1-4.3a8 8 0 0 1-2.4-.6c-2.8-1.2-4.6-3.9-5.2-7.6-1.1-8.3 4.4-19.7 12.3-25.6 4.4-3.3 9-4.3 12.4-2.9 2.8 1.2 4.7 3.9 5.2 7.6 1.2 8.3-4.3 19.8-12.3 25.6-3.4 2.6-7 3.8-10 3.5ZM122 55.8c-2.5-.3-5.5.8-8.6 3C106.2 64.3 101 75 102 82.5c.4 3 1.8 5 4 6 2.7 1.1 6.5.2 10.3-2.6 7.4-5.5 12.5-16.1 11.5-23.7-.5-3-1.8-5-4-6a6.1 6.1 0 0 0-1.8-.4ZM164 79.7a2 2 0 0 1-.4 0l-3-.8a1.9 1.9 0 0 1-1.2-1 2 2 0 0 1 0-1.6l2.2-5.5a1.2 1.2 0 0 0-.3-1.1 9.3 9.3 0 0 1-.8-1.1c0-.1-.3-.3-.5-.2l-4.2 2.6a1.6 1.6 0 0 1-2.5-1.2l-.6-4.4a3.3 3.3 0 0 1 1-2.8l4.2-3.6a2.9 2.9 0 0 0 .8-1.5 26.9 26.9 0 0 1 .6-3 .6.6 0 0 0-.3-.6l-2.4-1.1a2 2 0 0 1-1-2.8l3-6.1a2.7 2.7 0 0 1 2.6-1.5l3 .2a1.5 1.5 0 0 0 1.1-.5c.7-1 1.5-2 2.3-2.8a2.7 2.7 0 0 0 .5-1.5l-.1-4.5a3.4 3.4 0 0 1 1.3-2.6l4.7-3.5a1.7 1.7 0 0 1 1.6-.3 1.7 1.7 0 0 1 1 1.2l1 3.5c0 .2.2.2.2.1a17 17 0 0 1 2-.6 2.2 2.2 0 0 0 1.3-.8l3-5.4a2.5 2.5 0 0 1 2.7-1.2l3 .8a1.9 1.9 0 0 1 1.3 2.5l-2.2 5.6a1.2 1.2 0 0 0 .3 1 9.4 9.4 0 0 1 .8 1.2.3.3 0 0 0 .5.1l4.1-2.5a1.7 1.7 0 0 1 1.6-.2 1.6 1.6 0 0 1 .9 1.3l.6 4.5a3.3 3.3 0 0 1-1 2.8l-4.2 3.6a3 3 0 0 0-.7 1.4 27.5 27.5 0 0 1-.7 3 .6.6 0 0 0 .3.7l2.4 1.1a2 2 0 0 1 1 2.8l-3 6.1a2.8 2.8 0 0 1-2.6 1.5l-2.9-.2a1.6 1.6 0 0 0-1.1.5c-.7 1-1.5 2-2.3 2.8a2.5 2.5 0 0 0-.6 1.5l.2 4.4a3.4 3.4 0 0 1-1.3 2.7l-4.7 3.4a1.6 1.6 0 0 1-2.6-.9l-1-3.5h-.3a16 16 0 0 1-2 .5 2.2 2.2 0 0 0-1.2.9l-3 5.4a2.5 2.5 0 0 1-2.5 1.2Zm-3.7-13a2.1 2.1 0 0 1 1.5 1 6.8 6.8 0 0 0 .7 1 2.9 2.9 0 0 1 .6 2.8l-2.3 5.5.2.3 3 .7a.8.8 0 0 0 .8-.3l3-5.4a3.8 3.8 0 0 1 2.4-1.7 13 13 0 0 0 1.8-.5 2 2 0 0 1 1.6 0 1.9 1.9 0 0 1 1 1.3l1 3.4 4.6-3.5a1.7 1.7 0 0 0 .6-1.2l-.2-4.3a4.3 4.3 0 0 1 1-2.7l2.2-2.7a3.2 3.2 0 0 1 2.7-1.3l2.9.3a1 1 0 0 0 .9-.5l3-6.2a.3.3 0 0 0 0-.3.3.3 0 0 0-.2-.1l-2.3-1.1a2.4 2.4 0 0 1-1.3-2.7 26 26 0 0 0 .6-2.9 4.6 4.6 0 0 1 1.3-2.5l4.2-3.6a1.6 1.6 0 0 0 .5-1.2l-.7-4.5-4 2.6a2 2 0 0 1-2.8-.6 7.8 7.8 0 0 0-.6-1 2.9 2.9 0 0 1-.6-2.8l2.2-5.5.1-.3h-.2l-3-.8a.8.8 0 0 0-.9.4l-3 5.4a3.8 3.8 0 0 1-2.3 1.6 15 15 0 0 0-1.8.6 2 2 0 0 1-1.6-.1 1.9 1.9 0 0 1-1-1.2l-1-3.5-4.6 3.5a1.7 1.7 0 0 0-.6 1.2l.2 4.4a4.3 4.3 0 0 1-1 2.7 36 36 0 0 0-2.2 2.7 3.3 3.3 0 0 1-2.7 1.2l-3-.2a1 1 0 0 0-.9.5l-3 6.1a.3.3 0 0 0 0 .3.4.4 0 0 0 .2.2l2.3 1A2.4 2.4 0 0 1 161 55a23.8 23.8 0 0 0-.6 2.9 4.5 4.5 0 0 1-1.3 2.5l-4.2 3.6a1.6 1.6 0 0 0-.4 1.2l.6 4.5 4-2.6a2 2 0 0 1 1.3-.3Zm10-2.4a5.7 5.7 0 0 1-1.7-.4 6.2 6.2 0 0 1-3.5-5.2c-.8-5.6 2.9-13.3 8.2-17.2 3-2.2 6-3 8.4-2a6.2 6.2 0 0 1 3.6 5.3c.7 5.5-3 13.2-8.3 17.1a10.2 10.2 0 0 1-6.7 2.3Zm9.6-23.4a8.5 8.5 0 0 0-5.6 2c-4.8 3.6-8.2 10.5-7.5 15.5a4.5 4.5 0 0 0 2.5 3.9c1.8.7 4.2 0 6.7-1.8 5-3.6 8.3-10.5 7.6-15.5-.3-2-1.1-3.3-2.5-3.9a4 4 0 0 0-1.2-.3Z" style="fill:#e0e0e0"/><path d="M57.4 338.7c0 3.2 2.4 5.2 5.4 7l120.7 69.7a11.8 11.8 0 0 0 10.7 0L389 302.9c3-1.7 5.3-3.9 5.3-7s-2.4-5.3-5.3-7l-120.8-69.7a11.8 11.8 0 0 0-10.6 0L62.8 331.7c-3 1.7-5.4 3.8-5.4 7Z" style="fill:#37474f"/><path d="m62.8 337.9 120.7 69.7a11.8 11.8 0 0 0 10.7 0L389 295c3-1.7 3-4.5 0-6.2l-120.8-69.7a11.8 11.8 0 0 0-10.6 0L62.8 331.7c-3 1.7-3 4.5 0 6.2Z" style="fill:#455a64"/><path d="M188.9 408.9v7.7a10.9 10.9 0 0 1-5.4-1.2L62.8 345.6c-3-1.7-5.4-3.7-5.4-6.9 0-3 2.2-5 5-6.8-2.4 1.7-2.4 4.4.4 6l120.7 69.7a10.9 10.9 0 0 0 5.4 1.3ZM79.2 332.6l179-103.4a5.6 5.6 0 0 1 5 0l6.6 3.7c1.3.8 1.3 2.1 0 3l-179 103.3a5.6 5.6 0 0 1-5 0l-6.5-3.7c-1.5-.8-1.5-2 0-2.9ZM96.8 343l179-103.4a5.2 5.2 0 0 1 4.6-.2l46.6 26.9c1.1.6 1 1.8-.4 2.6L147.8 372.1a5.2 5.2 0 0 1-4.6.3l-46.8-26.8c-1.2-.6-1-1.8.4-2.6Z" style="fill:#263238"/><path d="m252 283 5.5-3.2c.3-.2.3-.4.1-.5l-5.4-3.1a.9.9 0 0 0-.8 0l-5.6 3.2c-.2.2-.3.4 0 .5l5.4 3a.9.9 0 0 0 .7.1Zm-8.2-11.2L238 275c-.2.2-.2.4 0 .5l5.4 3.1a.9.9 0 0 0 .8 0l5.6-3.2c.3-.2.3-.4 0-.5l-5.3-3.1a.9.9 0 0 0-.8 0Zm-18.2 10.4-9.4 5.5c-.3.2-.3.4 0 .5l5.3 3.1a.9.9 0 0 0 .8 0l9.5-5.5c.3-.1.3-.3 0-.4l-5.3-3.1a.9.9 0 0 0-.8 0Zm10-5.7-5.6 3.3c-.2.1-.3.3 0 .5l5.3 3a.9.9 0 0 0 .8 0l5.6-3.2c.3-.1.3-.3 0-.4l-5.3-3.1a.9.9 0 0 0-.8 0Zm-22 12.7-5.6 3.3c-.2.1-.3.3 0 .5l5.3 3a.9.9 0 0 0 .8 0l5.6-3.2c.3-.1.3-.3 0-.4l-5.3-3.1a.9.9 0 0 0-.8 0Zm-8.2 4.7-5.6 3.3c-.3.1-.3.3 0 .5l5.3 3a1 1 0 0 0 .8 0l5.6-3.2c.2-.1.3-.3 0-.4l-5.3-3.1a1 1 0 0 0-.8 0Zm21 12.7 5.6-3.3c.2 0 .2-.3 0-.4l-5.3-3.1a1 1 0 0 0-.8 0l-5.7 3.2c-.2.2-.2.4 0 .5l5.4 3a.9.9 0 0 0 .8.1Zm-8.2 4.7 5.6-3.2c.2-.2.2-.4 0-.5l-5.4-3a.9.9 0 0 0-.8 0l-5.6 3.1c-.2.2-.3.4 0 .5l5.3 3.1a.9.9 0 0 0 1 0Zm-8.2 4.8 5.6-3.3c.2-.1.3-.3 0-.4l-5.4-3.1a1 1 0 0 0-.8 0l-5.6 3.2c-.2.1-.2.4 0 .5l5.4 3a1 1 0 0 0 .8 0Zm-8.2 4.7 5.6-3.2c.2-.2.3-.4 0-.5L202 314a1 1 0 0 0-.8 0l-5.6 3.2c-.2.2-.2.4 0 .5l5.4 3.1a1 1 0 0 0 .8 0Zm42-33 5.5-3.3c.3-.1.3-.3 0-.5l-5.3-3a.9.9 0 0 0-.8 0l-5.6 3.2c-.3.2-.3.4 0 .5l5.3 3.1a.9.9 0 0 0 .8 0Zm-9.2 14 12.5-7.1c.2-.2.2-.4 0-.5l-13-7.5a.9.9 0 0 0-.8 0l-6.4 3.7c-.3.1-.3.4-.1.5l6.9 4c.2.1.2.3 0 .5l-5.2 3c-.3 0-.3.3 0 .4l5.3 3.1a1 1 0 0 0 .8 0Zm-37.4-3-5.6 3.1c-.3.2-.3.4 0 .5l5.3 3.1a.9.9 0 0 0 .8 0l5.6-3.2c.2-.2.3-.4 0-.5l-5.3-3.1a1 1 0 0 0-.8 0Zm-8.2 4.6-5.6 3.3c-.2.1-.3.3 0 .5l5.3 3a.9.9 0 0 0 .9 0l5.6-3.2c.2-.1.2-.3 0-.5l-5.3-3a.9.9 0 0 0-.9 0ZM143.7 354a.9.9 0 0 0 .8 0l5.6-3.2c.2-.1.2-.3 0-.5l-5.4-3a.9.9 0 0 0-.8 0l-5.6 3.2c-.2.1-.3.3 0 .4Zm-20.2-12.6-5.6 3.2c-.3.2-.3.4 0 .5l5.3 3a.9.9 0 0 0 .8 0l5.6-3.2c.3-.1.3-.3 0-.4l-5.3-3.1a.9.9 0 0 0-.8 0Zm10.4 9.5a.9.9 0 0 0 .8 0l5.6-3.3c.2-.1.2-.3 0-.4l-5.3-3.2a.9.9 0 0 0-.8 0l-5.6 3.3c-.3.1-.3.3 0 .5Zm22.6 5 5.6-3.2c.2-.1.2-.3 0-.5l-5.4-3a.9.9 0 0 0-.8 0l-5.6 3.2c-.2.1-.2.3 0 .4l5.4 3.2a.9.9 0 0 0 .8 0Zm-9 4.8a.9.9 0 0 0 .8 0l5.6-3.2c.2-.2.2-.4 0-.5l-5.4-3a.9.9 0 0 0-.8 0L142 357c-.2.1-.2.3 0 .5Zm-15.8-24-5.6 3.2c-.3.1-.3.3 0 .5l5.3 3a1 1 0 0 0 .8 0l5.6-3.2c.3-.1.3-.3 0-.5l-5.3-3a1 1 0 0 0-.8 0Zm41-23.7-5.6 3.2c-.3.2-.3.4 0 .5l5.3 3.1a1 1 0 0 0 .8 0l5.6-3.2c.3-.2.3-.4 0-.5l-5.3-3a1 1 0 0 0-.9-.1Zm-32.8 19-5.6 3.2c-.3.1-.3.3 0 .4l5.3 3.1a.9.9 0 0 0 .8 0l5.6-3.2c.2-.2.3-.4 0-.5l-5.3-3a1 1 0 0 0-.9 0Zm41-23.7-5.6 3.2c-.3.2-.3.4 0 .5l5.3 3a.9.9 0 0 0 .8 0l5.7-3.2c.2-.1.2-.3 0-.4l-5.4-3.1a.9.9 0 0 0-.9 0Zm-16.4 9.4-5.6 3.3c-.2.1-.3.3 0 .4l5.4 3.1a1 1 0 0 0 .8 0l5.6-3.2c.2-.1.2-.3 0-.5l-5.4-3a1 1 0 0 0-.9 0Zm-8.2 4.8-5.6 3.2c-.2.1-.3.3 0 .5l5.4 3a1 1 0 0 0 .8 0l5.6-3.2c.2-.1.2-.3 0-.4l-5.4-3.1a1 1 0 0 0-.9 0ZM148 327l-5.6 3.2c-.3.2-.3.4 0 .5l5.3 3.1a1 1 0 0 0 .8 0l5.6-3.2c.3-.2.3-.4 0-.5l-5.3-3.1a.9.9 0 0 0-.8 0Zm37.4 3.2 5.6-3.3c.2-.1.3-.3 0-.4l-5.3-3.1a.9.9 0 0 0-.9 0l-5.6 3.2c-.2.1-.2.3 0 .5l5.3 3a.9.9 0 0 0 1 0Zm76.4-69-5.6 3.3c-.2.1-.2.4 0 .5l5.3 3a.9.9 0 0 0 .9 0l5.6-3.2c.2-.1.2-.3 0-.4l-5.4-3.1a1 1 0 0 0-.7 0Zm-9.8 5.8-5.6 3.2c-.2.2-.3.4 0 .5l5.4 3.1a.9.9 0 0 0 .8 0l5.6-3.2c.2-.2.2-.4 0-.5l-5.3-3.1a1 1 0 0 0-.9 0Zm18.1-10.5-5.6 3.3c-.2.1-.3.3 0 .5l5.4 3a.9.9 0 0 0 .8 0l5.6-3.2c.2-.1.3-.3 0-.5l-5.3-3a1 1 0 0 0-1 0Zm-45.3 42.1 5.6-3.2c.3-.2.3-.4 0-.5l-5.3-3a.9.9 0 0 0-.8 0l-5.6 3.2c-.2 0-.3.3 0 .4l5.3 3.1a1 1 0 0 0 .8 0Zm54.3-46.8a1 1 0 0 0-.8 0l-5.6 3.2c-.2.2-.3.4 0 .5l5.4 3a1 1 0 0 0 .8 0l5.6-3.1c.2-.2.2-.4 0-.5Zm-85.4 73.6 5.6-3.2c.2-.1.3-.3 0-.5l-5.4-3a.9.9 0 0 0-.8 0l-5.6 3.2c-.2.1-.3.3 0 .5l5.4 3a.9.9 0 0 0 .7 0Zm100.5-58 5.5-3.2c.3-.1.3-.3.1-.5l-5.4-3a1 1 0 0 0-.8 0L288 264c-.2.1-.3.3 0 .5l5.3 3a1 1 0 0 0 .8 0Zm-15.9.4 5.6-3.3c.2-.1.3-.3 0-.5l-5.4-3.1a1 1 0 0 0-.8 0l-5.6 3.2c-.2.2-.2.4 0 .5l5.3 3.1a1 1 0 0 0 .9 0Zm8.5-11.6a1 1 0 0 0-.8 0l-5.6 3.3c-.3 0-.3.3 0 .4l5.3 3.1a1 1 0 0 0 .8 0l5.6-3.2c.2-.1.2-.4 0-.5Zm1.7-1 13 7.5a.9.9 0 0 0 .8 0l5.6-3.2c.3-.1.3-.3 0-.5l-13-7.5a.9.9 0 0 0-.8 0l-5.6 3.3c-.2.1-.3.3 0 .4Zm-19 10.5L264 269c-.2.1-.2.3 0 .5l5.4 3a.9.9 0 0 0 .8 0l5.6-3.2c.2-.1.3-.3 0-.4l-5.4-3.1a.9.9 0 0 0-.8 0ZM208 301.4l-5.6 3.2c-.3.2-.3.4 0 .5l5.3 3.1a.9.9 0 0 0 .8 0l5.6-3.2c.2-.2.3-.4 0-.5l-5.3-3.1a1 1 0 0 0-.8 0Zm77.2-29.1a1 1 0 0 0 .8 0l5.6-3.2c.2-.2.3-.4 0-.5l-5.3-3.1a1 1 0 0 0-.8 0l-5.6 3.2c-.3.2-.3.4 0 .5Zm-69 24.4-5.6 3.2c-.3.1-.3.3 0 .5l5.3 3a1 1 0 0 0 .8 0l5.6-3.2c.3-.1.3-.3 0-.4l-5.3-3.1a1 1 0 0 0-.8 0Zm-64.2 52.5a.9.9 0 0 0 .8 0l5.6-3.2c.2-.2.3-.4 0-.5l-5.4-3.1a.9.9 0 0 0-.8 0l-5.6 3.2c-.2.2-.2.4 0 .5Zm-9.5-10-5.6 3.2c-.3.2-.3.4 0 .5l5.2 3.1a1 1 0 0 0 .8 0l5.6-3.2c.3-.2.3-.4 0-.5l-5.3-3.1a1 1 0 0 0-.8 0Zm18.5 5.2 5.6-3.2c.2-.1.3-.3 0-.5l-5.3-3a.9.9 0 0 0-.8 0l-5.6 3.2c-.3.1-.3.3 0 .4l5.3 3.1a.9.9 0 0 0 .8 0Zm8.2-4.7 5.6-3.2c.2-.2.2-.4 0-.5l-5.3-3.1a1 1 0 0 0-.8 0l-5.6 3.2c-.3.2-.3.4 0 .5l5.3 3.1a1 1 0 0 0 .8 0Zm8.2-4.7 5.6-3.3c.2-.1.2-.3 0-.4l-5.3-3.1a.9.9 0 0 0-.8 0l-5.7 3.2c-.2.1-.2.4 0 .5l5.4 3a1 1 0 0 0 .8.1Zm-26.8-.5-5.6 3.2c-.2.2-.2.4 0 .5l5.4 3a1 1 0 0 0 .8 0l5.6-3.1c.3-.2.3-.4 0-.5l-5.3-3.1a1 1 0 0 0-.9 0Zm8.2-4.8-5.6 3.3c-.2.1-.2.3 0 .5l5.3 3a.9.9 0 0 0 .8 0l5.7-3.2c.2-.1.2-.3 0-.4l-5.4-3.1a.9.9 0 0 0-.8 0Zm32.8-18.9-5.6 3.3c-.2.1-.3.3 0 .4l5.4 3.1a1 1 0 0 0 .8 0l5.6-3.2c.2-.1.2-.3 0-.5l-5.4-3a.9.9 0 0 0-.8 0Zm-8.2 4.8-5.6 3.2c-.2.1-.2.3 0 .5l5.3 3a1 1 0 0 0 .9 0l5.5-3.2c.3-.1.3-.3.1-.4l-5.4-3.1a1 1 0 0 0-.8 0Zm16.4-9.5-5.6 3.2c-.2.2-.3.4 0 .5l5.4 3.1a.9.9 0 0 0 .8 0l5.6-3.2c.2-.2.2-.4 0-.5l-5.4-3a.9.9 0 0 0-.8 0ZM167 325l-5.6 3.2c-.2.2-.3.4 0 .5l5.4 3.1a.9.9 0 0 0 .8 0l5.6-3.2c.2-.2.2-.4 0-.5l-5.4-3.1a.9.9 0 0 0-.8 0Zm8.2-4.7-5.6 3.2c-.2.1-.3.4 0 .5l5.3 3a.9.9 0 0 0 .8 0l5.6-3.2c.3-.1.3-.3 0-.4l-5.3-3.1a1 1 0 0 0-.8 0ZM164.6 351l5.6-3.3c.3 0 .3-.3.1-.4l-5.4-3.1a1 1 0 0 0-.8 0l-5.6 3.2c-.2.2-.2.4 0 .5l5.3 3a.9.9 0 0 0 .8.1Zm-43.2-2-5.3-3.1a.9.9 0 0 0-.8 0l-5.6 3.2c-.3.2-.3.4 0 .5l5.3 3a.9.9 0 0 0 .8 0l5.6-3.2c.2 0 .3-.3 0-.4Zm10.7 2.7-5.3-3.1a.9.9 0 0 0-.9 0l-8.6 5c-.2.1-.2.3 0 .4l5.4 3.1a.9.9 0 0 0 .8 0l8.6-5c.2-.1.2-.3 0-.4Zm-18.7-8.8-5.3-3.1a1 1 0 0 0-.8 0l-7 4c-.2.1-.2.3 0 .5l5.4 3a.9.9 0 0 0 .8 0l7-4c.1-.1.2-.3 0-.4Zm5.3-3a.9.9 0 0 0 .8 0l5.7-3.3c.2-.1.2-.3 0-.5l-5.4-3a.9.9 0 0 0-.8 0l-5.6 3.2c-.3.1-.3.3 0 .4Zm23.2 15-5.3-3.2a1 1 0 0 0-.8 0l-10.8 6.3c-.2.1-.3.3 0 .5l5.4 3a.9.9 0 0 0 .8 0l10.8-6.2c.1-.1.2-.3 0-.5Zm3.8 6.6-5.3-3a1 1 0 0 0-.9 0l-6.9 4c-.2 0-.2.3 0 .4l5.4 3a.9.9 0 0 0 .8 0l6.9-4c.2 0 .2-.3 0-.4Zm34-56.9a1 1 0 0 0 .7 0l5.7-3.2c.2-.1.2-.3 0-.5l-5.3-3a1 1 0 0 0-.9 0l-5.6 3.2c-.2.1-.2.3 0 .5Zm-16.4 9.5a.9.9 0 0 0 .8 0l5.6-3.2c.2-.2.2-.4 0-.5l-5.4-3.1a1 1 0 0 0-.8 0l-5.6 3.2c-.2.2-.3.4 0 .5Zm-36.4 21a1 1 0 0 0 .8 0l5.6-3.2c.3-.2.3-.4 0-.5l-5.3-3.1a1 1 0 0 0-.8 0l-5.6 3.2c-.3.2-.3.4 0 .5Zm44.5-25.7a.9.9 0 0 0 .9 0l5.6-3.2c.2-.2.2-.4 0-.5l-5.4-3.1a.9.9 0 0 0-.8 0l-5.6 3.2c-.3.2-.3.4 0 .5Zm-16.3 9.5a1 1 0 0 0 .8 0l5.6-3.3c.2-.1.2-.3 0-.4l-5.3-3.2a1 1 0 0 0-.9 0l-5.6 3.3c-.2.1-.2.3 0 .5Zm-5.4 43a.9.9 0 0 0-.8 0l-8.6 5c-.2.1-.3.3 0 .4l5.3 3.1a.9.9 0 0 0 .8 0l8.7-5c.2-.1.2-.3 0-.4Zm-6.4-36.2a.9.9 0 0 0 .8 0l5.6-3.3c.3-.1.3-.3 0-.4l-5.3-3.2a.9.9 0 0 0-.8 0l-5.6 3.3c-.2 0-.3.3 0 .4Zm-8.2 4.7a1 1 0 0 0 .8 0l5.6-3.2c.3-.2.3-.4 0-.5l-5.3-3.1a1 1 0 0 0-.8 0l-5.6 3.2c-.2.2-.3.4 0 .5Zm166.4-56.2a1 1 0 0 0-.8 0l-13.8 8c-.2.2-.3.4 0 .5l5.3 3.1a1 1 0 0 0 .8 0l13.8-8c.3-.1.3-.3 0-.5Zm-18 10.5a1 1 0 0 0-1 0L277 288c-.2.1-.3.3 0 .5l5.3 3a1 1 0 0 0 .8 0l5.6-3.2c.3-.1.3-.3 0-.4Zm-110.7 61.6 5.6-3.2c.3-.2.3-.4 0-.5l-5.3-3.1a1 1 0 0 0-.8 0l-5.6 3.2c-.2.2-.2.4 0 .5l5.3 3.1a1 1 0 0 0 .8 0Zm94.2-52.2a.9.9 0 0 0-.8 0l-5.6 3.3c-.3 0-.3.3 0 .4l5.3 3.1a.9.9 0 0 0 .9 0l5.6-3.2c.2-.1.2-.4 0-.5Zm42.7-24.6a.9.9 0 0 0-.8 0l-5.6 3.2c-.3.2-.3.4 0 .5l5.3 3a.9.9 0 0 0 .8 0l5.6-3.1c.2-.2.3-.4 0-.5Zm13.6-1.7-13-7.5a.9.9 0 0 0-.9 0l-5.6 3.3c-.2.1-.2.3 0 .4l13 7.6a.9.9 0 0 0 .8 0l5.6-3.3c.3-.1.3-.3 0-.5Zm-87 44a.9.9 0 0 0-.7 0l-7 4c-.2.2-.2.4 0 .5l5.4 3.1a1 1 0 0 0 .9 0l6.8-4c.3-.1.3-.3.1-.5Zm20.8-11.9a1 1 0 0 0-.8 0l-8.6 5c-.3.1-.3.3 0 .5l5.3 3a1 1 0 0 0 .9 0l8.6-5c.2 0 .2-.3 0-.4Zm-39.7 22.9a1 1 0 0 0-.8 0l-46.1 26.6c-.2.2-.3.4 0 .5l5.3 3.1a1 1 0 0 0 .8 0l46.2-26.6c.2-.2.2-.4 0-.5ZM168.7 351a1 1 0 0 0-.8 0l-6.9 4c-.2.1-.3.3 0 .5l5.3 3a.9.9 0 0 0 .8 0l7-4c.2 0 .2-.3 0-.4Zm58.2-33.6a.9.9 0 0 0-.8 0l-6.9 4c-.2.1-.2.3 0 .5l5.3 3a.9.9 0 0 0 .8 0l7-4c.2 0 .2-.3 0-.4Zm-67.7 39a.9.9 0 0 0-.8 0l-6.9 4c-.2.2-.2.4 0 .6l5.3 3a.9.9 0 0 0 .8 0l7-4c.2 0 .2-.3 0-.4Zm86.7-50a1 1 0 0 0-.8 0l-7 4c-.1.2-.2.4 0 .6l5.4 3a.9.9 0 0 0 .9 0l6.9-4c.2 0 .2-.3 0-.4Zm29.3-16.8a1 1 0 0 0-.8 0l-5.6 3.2c-.2.1-.3.3 0 .5l5.3 3a1 1 0 0 0 .8 0l5.6-3.2c.3-.1.3-.3 0-.5Zm18.4-12.9 5.6-3.2c.2-.1.2-.3 0-.5l-5.3-3a1 1 0 0 0-.9 0l-5.6 3.2c-.2.1-.2.3 0 .4l5.4 3.1a1 1 0 0 0 .8 0Zm-33.5 1.7 5.6-3.3c.3-.1.3-.3 0-.5l-5.3-3a1 1 0 0 0-.8 0l-5.6 3.2c-.2.1-.2.3 0 .5l5.4 3a1 1 0 0 0 .7 0Zm-21.7 30.2 16.4-9.5c.2 0 .2-.3 0-.4l-5.3-3.1a1 1 0 0 0-.9 0l-16.3 9.4c-.3.1-.3.3-.1.5l5.4 3a1 1 0 0 0 .8 0Zm46.2-27.1a.9.9 0 0 0 .8 0l5.6-3.2c.2-.2.2-.4 0-.5l-5.4-3.1a.9.9 0 0 0-.8 0l-5.6 3.2c-.2.2-.3.4 0 .5Zm-6.9-4.5 5.6-3.2c.3-.2.3-.4 0-.5l-5.3-3.1a.9.9 0 0 0-.8 0l-5.6 3.2c-.3.2-.3.4 0 .5l5.3 3.1a.9.9 0 0 0 .8 0Zm-47.5 36.3 5.6-3.2c.2-.2.2-.4 0-.5l-5.3-3.1a.9.9 0 0 0-.8 0l-5.6 3.2c-.3.2-.3.4 0 .5l5.3 3a.9.9 0 0 0 .8 0Zm36.2-21.4a.9.9 0 0 0 .9 0l5.6-3.2c.2-.2.2-.4 0-.5l-5.3-3a1 1 0 0 0-.9 0l-5.6 3.1c-.2.2-.2.4 0 .5Zm-77.2 45 5.6-3.2c.3-.2.3-.4 0-.5l-5.3-3a1 1 0 0 0-.9 0l-5.6 3.2c-.2 0-.2.3 0 .4l5.4 3.1a.9.9 0 0 0 .8 0Zm8.2-4.7 5.6-3.2c.2-.1.3-.3 0-.5l-5.4-3a.9.9 0 0 0-.8 0l-5.6 3.2c-.2.1-.2.3 0 .4l5.4 3.1a.9.9 0 0 0 .8 0Zm-16.4 9.5 5.6-3.3c.2-.1.3-.3 0-.4l-5.3-3.1a.9.9 0 0 0-.8 0l-5.6 3.2c-.3.1-.3.3 0 .5l5.3 3a1 1 0 0 0 .8 0Zm32.8-19 5.6-3.2c.2-.1.2-.3 0-.5l-5.4-3a1 1 0 0 0-.8 0l-5.6 3.2c-.2.1-.3.3 0 .4l5.4 3.1a1 1 0 0 0 .8 0Zm-8.2 4.8 5.6-3.3c.2-.1.2-.3 0-.4l-5.4-3.1a1 1 0 0 0-.8 0l-5.6 3.2c-.2.1-.3.4 0 .5l5.4 3a1 1 0 0 0 .8 0ZM222 318l5.6-3.2c.2-.2.3-.4 0-.5l-5.3-3.1a.9.9 0 0 0-.9 0l-5.6 3.2c-.2.2-.2.4 0 .5l5.3 3.1a.9.9 0 0 0 .9 0Zm44.7-65.8a.9.9 0 0 0 .8 0l5.6-3.2c.3-.2.3-.4 0-.5l-1.4-.8a1 1 0 0 0-.8 0l-5.6 3.2c-.3.1-.3.3 0 .5ZM226 278a.9.9 0 0 0 .8 0l5.6-3.2c.3-.2.3-.4 0-.5l-5.3-3.1a.9.9 0 0 0-.9 0l-5.6 3.2c-.2.2-.2.4 0 .5Zm16.4-9.5a1 1 0 0 0 .8 0l5.6-3.2c.2-.1.3-.3 0-.5l-5.3-3a1 1 0 0 0-.8 0L237 265c-.3.1-.3.3 0 .4ZM216 283.8a1 1 0 0 0 .8 0l5.6-3.3c.3-.1.3-.3 0-.4l-5.3-3.1a.9.9 0 0 0-.8 0l-5.6 3.2c-.3.1-.3.3 0 .5Zm18.2-10.5a1 1 0 0 0 .8 0l5.6-3.3c.3-.1.3-.3 0-.4l-5.3-3.1a1 1 0 0 0-.9 0l-5.6 3.2c-.2.1-.2.3 0 .5Zm-34.6 20a.9.9 0 0 0 .8 0l5.6-3.3c.2-.1.3-.3 0-.5l-5.3-3a.9.9 0 0 0-.8 0l-5.6 3.2c-.3.1-.3.3 0 .4Zm8.2-4.8a1 1 0 0 0 .8 0l5.6-3.2c.3-.1.3-.4 0-.5l-5.3-3a1 1 0 0 0-.8 0l-5.6 3.2c-.2.1-.3.3 0 .4Zm42.5-26.8a1 1 0 0 0 .9 0l5.6-3.2c.2-.2.2-.4 0-.5l-1.5-.8a.9.9 0 0 0-.8 0l-5.6 3.2c-.2.1-.3.3 0 .5Zm24.6-14.2a.9.9 0 0 0 .8 0l5.6-3.2c.3-.2.3-.4 0-.5l-1.3-.8a.9.9 0 0 0-.8 0l-5.7 3.2c-.2.2-.2.4 0 .5Zm11.3 6.5a1 1 0 0 0 .8 0l5.6-3.2c.2-.2.2-.4 0-.5l-5.3-3.1a1 1 0 0 0-.9 0l-5.6 3.2c-.2.2-.2.4 0 .5Zm15.6 18 5.6-3.2c.2-.2.2-.4 0-.5l-5.3-3.1a.9.9 0 0 0-.9 0l-5.6 3.2c-.2.2-.2.4 0 .5l5.3 3a1 1 0 0 0 .9.1Zm-43.3-15a1 1 0 0 0 .8 0l5.6-3.2c.3-.2.3-.4 0-.5l-1.4-.8a.9.9 0 0 0-.8 0l-5.6 3.2c-.2.1-.2.4 0 .5Zm-67.1 41a.9.9 0 0 0 .8 0l5.6-3.2c.3-.2.3-.4 0-.5l-5.3-3.1a.9.9 0 0 0-.8 0l-5.7 3.2c-.2.2-.2.4 0 .5Z" style="fill:#455a64"/><path d="m214.9 344.6 1.2.7 32.4 18.7 57.5-33.3 1.2-.6-33.6-19.4-58.7 33.9z" style="fill:#263238"/><path d="m305.3 331.2-31.7-18.3-56.8 32.8 31.7 18.3 56.8-32.8zM55.1 332.5c-2.3-1-3-3-3.2-6.2L41.4 173.2a10.6 10.6 0 0 1 5-9L241.2 51.7c3-1.7 5-2.7 7.8-.8s2.8 2.9 3 6.2l10.5 153.1a10.6 10.6 0 0 1-5 9L62.8 331.7c-3 1.7-4.6 2.2-7.6.8Z" style="fill:#37474f"/><path d="M252 57c-.2-3.2-2.8-4.5-5.7-2.8L51.4 166.7a10 10 0 0 0-3.6 4l-5-2.6a10.3 10.3 0 0 1 3.6-4L241.2 51.7c3-1.7 5.1-2.7 7.8-.8 2.9 2 2.8 2.9 3 6.2Z" style="fill:#455a64"/><path d="M62.3 332c-2.6 1.5-4.3 1.7-7.2.5-2.2-.9-3-3-3.2-6.2L41.4 173.1a9.5 9.5 0 0 1 1.3-5l5.1 2.5a9.6 9.6 0 0 0-1.3 5L57 329c.2 3 2.8 4.5 5.3 3Z" style="fill:#263238"/><path d="M54.8 172.6 242.3 64.3c1.8-1 3.3-.2 3.5 1.7l9.7 143a6.4 6.4 0 0 1-3 5.3L65.1 322.6c-1.8 1-3.3.2-3.4-1.8L51.9 178a6.4 6.4 0 0 1 3-5.4Z" fill="#000000"/><path d="M54.8 172.6a6.4 6.4 0 0 0-3 5.4l9.7 140.5 185.3-107a6.3 6.3 0 0 0 3-5.4l-9.6-140.5Z" style="fill:#fff"/><path d="M293.8 50.6a1.3 1.3 0 0 0-.1-.3 1.3 1.3 0 0 0-.1-.4 1.7 1.7 0 0 0-.3-.5 1.4 1.4 0 0 0-.1-.2 1 1 0 0 0-.2-.2 1.2 1.2 0 0 0-.3-.2 1.6 1.6 0 0 0-.3-.2 3.1 3.1 0 0 0-2.8.4l-142.2 82c-2.2 1.3-3.9 4.3-3.6 8.6l8 117.6v-1.8.9a2.7 2.7 0 0 0 1.6 2.2l.2.1.3.2a1.5 1.5 0 0 0 .3 0 2 2 0 0 0 .6.1 2.7 2.7 0 0 0 1.3-.4h.1l3.8-2.2 138.3-79.9a8 8 0 0 0 3.7-6.7L293.9 51a3.5 3.5 0 0 0-.1-.5Z" style="fill:#fafafa"/><path d="M291.4 49.6a1.2 1.2 0 0 1 .5 0h.1v.1a.1.1 0 0 1 .1 0l.1.1.1.2h.1l.2.4a.6.6 0 0 1 0 .1v.4l8 118.6a6.8 6.8 0 0 1-3 5.6l-138.1 80.2-3.7 2.1h-.2v.2a1.7 1.7 0 0 1-.8.2H154.1l-.1-.1a1.6 1.6 0 0 1-1-1.3l-.1-.9-.1-1-7.9-114.8c-.2-4.1 1.4-6.6 3-7.5L290.1 50a2.6 2.6 0 0 1 1.3-.4m0-1.1a3.9 3.9 0 0 0-1.8.5l-142.2 82c-2.2 1.3-3.9 4.3-3.6 8.6l8 117.6v-1.8.9a2.7 2.7 0 0 0 1.6 2.2l.2.1.3.2a1.5 1.5 0 0 0 .3 0 2.8 2.8 0 0 0 .5.1 2.8 2.8 0 0 0 1.4-.4h.1l3.8-2.2 138.3-79.9a8 8 0 0 0 3.7-6.7L293.9 51a3.5 3.5 0 0 0-.1-.5 1.3 1.3 0 0 0-.1-.3 1.3 1.3 0 0 0-.1-.4 1.7 1.7 0 0 0-.3-.5 1.4 1.4 0 0 0-.1-.2 1 1 0 0 0-.2-.1 1.2 1.2 0 0 0-.3-.3 1.6 1.6 0 0 0-.3-.2 2.3 2.3 0 0 0-1-.1Z" style="fill:#fa5951"/><path d="M292.3 48.6a3.1 3.1 0 0 0-2.8.4l-142.1 82a8 8 0 0 0-3.7 6.8l.5 7.4-5.5-2.8-.5-7.3a8 8 0 0 1 3.7-6.8l142.2-82a3 3 0 0 1 3-.3l5.2 2.6Z" style="fill:#fa5951"/><path d="M293.8 51c-.1-2.3-2-3.3-4.3-2l-142.1 82a8 8 0 0 0-3.7 6.8l.5 7.4 150.2-86.6Z" style="fill:#fa5951"/><g style="opacity:.2"><path d="m289.6 49-142.2 82a7.6 7.6 0 0 0-2.8 3l-5.4-2.8a7.5 7.5 0 0 1 2.7-2.9l142.2-82a3.1 3.1 0 0 1 3-.3l5.2 2.6a3.1 3.1 0 0 0-2.8.4Z" style="fill:#fff"/></g><path d="m138.7 142.5-.5-7.4a7.3 7.3 0 0 1 1-3.9l5.5 2.7a7.2 7.2 0 0 0-1 3.9l.5 7.4Z" style="opacity:.15" fill="#000000"/><path d="M276.4 60.5a3.6 3.6 0 0 0-1.5 3.1c0 1.2.9 1.8 1.8 1.2a3.7 3.7 0 0 0 1.6-3.1c-.1-1.2-1-1.7-1.9-1.2ZM282.6 57a3.6 3.6 0 0 0-1.6 3.1c0 1.2 1 1.8 1.9 1.2a3.6 3.6 0 0 0 1.5-3.1c0-1.2-1-1.8-1.8-1.2ZM288.7 53.4a3.6 3.6 0 0 0-1.6 3.2c0 1.2 1 1.7 1.9 1.2a3.6 3.6 0 0 0 1.5-3.2c0-1.2-.9-1.7-1.8-1.2Z" style="fill:#fafafa"/><path d="m153.4 258.6-.2-.1-4.5-2.3a4.3 4.3 0 0 1-2.4-3 3.6 3.6 0 0 1 0-.5l-7.6-110.2 5.5 2.7 7.6 111a2.6 2.6 0 0 0 1.4 2.2h.2Z" style="fill:#fa5951"/><path d="m153.4 258.6-.2-.1-4.5-2.3a4.3 4.3 0 0 1-2.4-3 3.6 3.6 0 0 1 0-.5l-7.6-110.2 5.5 2.7 7.6 111a2.6 2.6 0 0 0 1.4 2.2h.2Z" style="fill:#fff;opacity:.5"/><path d="m209.4 136.2 2.6-19.6a8.3 8.3 0 0 1 7.9 2.2c2 2 3.4 5.3 3.6 9.3Z" style="fill:#fa5951"/><g style="opacity:.4"><path d="m209.4 136.2 2.6-19.6a8.3 8.3 0 0 1 7.9 2.2c2 2 3.4 5.3 3.6 9.3Z" style="fill:#fff"/></g><path d="m208.4 135.1-8-11.7a22.7 22.7 0 0 1 6.7-6.3 13.1 13.1 0 0 1 3.8-1.5Z" style="fill:#fa5951"/><g style="opacity:.2"><path d="m208.4 135.1-8-11.7a22.7 22.7 0 0 1 6.7-6.3 13.1 13.1 0 0 1 3.8-1.5Z" style="fill:#fff"/></g><path d="m208.4 137.6-3.3 19.6c-5.9.9-10.2-3.8-10.8-11.5a31.6 31.6 0 0 1 6.1-19.8Z" style="fill:#fa5951"/><g style="opacity:.7000000000000001"><path d="m208.4 137.6-3.3 19.6c-5.9.9-10.2-3.8-10.8-11.5a31.6 31.6 0 0 1 6.1-19.8Z" style="fill:#fff"/></g><path d="m209.4 137.4 14-8.1c.7 9.9-5 21.6-12.8 26a12.8 12.8 0 0 1-4.4 1.7Z" style="fill:#fa5951"/><path d="m223.3 157-25 14.5c-.8.4-1.4 0-1.4-.9a2.6 2.6 0 0 1 1.1-2.3l25-14.5c.8-.4 1.4 0 1.4.9a2.7 2.7 0 0 1-1 2.3Z" style="fill:#455a64"/><path d="m191.6 228-31.7 18.3-6.5-94.8 31.7-18.3 6.5 94.8z" style="fill:#fa5951"/><g style="opacity:.2"><path d="m191.6 228-31.7 18.3-6.5-94.8 31.7-18.3 6.5 94.8z" style="fill:#fff"/></g><path d="m285.1 80.3-51.9 30c-.6.4-1.2 0-1.3-.9a2.6 2.6 0 0 1 1.1-2.2l51.9-30c.7-.4 1.3 0 1.3.8a2.6 2.6 0 0 1-1 2.3ZM285.5 86.5l-51.8 30c-.7.4-1.3 0-1.4-.9a2.6 2.6 0 0 1 1.1-2.2l52-30c.6-.4 1.2 0 1.3.8a2.7 2.7 0 0 1-1.2 2.3Z" style="fill:#455a64"/><path d="m235.9 125.5-2.8 1.6-.2-3.6 2.8-1.6.2 3.6z" style="fill:#fa5951"/><g style="opacity:.2"><path d="m235.9 125.5-2.8 1.6-.2-3.6 2.8-1.6.2 3.6z" style="fill:#fff"/></g><path d="m236.4 133.3-2.8 1.6-.2-3.5 2.8-1.6.2 3.5z" style="fill:#fa5951"/><g style="opacity:.4"><path d="m236.4 133.3-2.8 1.6-.2-3.5 2.8-1.6.2 3.5z" style="fill:#fff"/></g><path d="m237 141.2-2.8 1.6-.3-3.6 2.8-1.6.3 3.6zM237.5 149l-2.8 1.6-.2-3.6 2.8-1.6.2 3.6z" style="fill:#fa5951"/><g style="opacity:.7000000000000001"><path d="m237.5 149-2.8 1.6-.2-3.6 2.8-1.6.2 3.6z" style="fill:#fff"/></g><path d="M239.7 122.4a1 1 0 0 1-.5-1.9l47.1-27.1a1 1 0 0 1 1 1.7l-47 27.2a1 1 0 0 1-.6.1ZM240.3 130.3a1 1 0 0 1-.5-2l47-27.1a1 1 0 0 1 1.4.4 1 1 0 0 1-.3 1.3l-47.1 27.2a1 1 0 0 1-.5.2ZM240.8 138a1 1 0 0 1-.5-1.8l47-27.2a1 1 0 1 1 1 1.7l-47 27.3a1 1 0 0 1-.5 0ZM241.3 146a1 1 0 0 1-.5-2L288 117a1 1 0 0 1 1.4.3 1 1 0 0 1-.4 1.4l-47 27.2a1 1 0 0 1-.6.1ZM198.8 189.7a1 1 0 0 1-.9-.5 1 1 0 0 1 .4-1.3l31.7-18.3a1 1 0 0 1 1 1.7l-31.7 18.3a1 1 0 0 1-.5.1ZM199.3 197.6a1 1 0 0 1-.5-1.9l31.7-18.3a1 1 0 1 1 1 1.7l-31.7 18.3a1 1 0 0 1-.5.2ZM199.8 205.4a1 1 0 0 1-.5-1.9l31.7-18.3a1 1 0 0 1 1.4.4 1 1 0 0 1-.4 1.4l-31.7 18.3a1 1 0 0 1-.5.1ZM200.4 213.2a1 1 0 0 1-.5-1.8l31.7-18.3a1 1 0 0 1 1 1.7l-31.7 18.3a1 1 0 0 1-.5.1ZM201 221a1 1 0 0 1-.6-1.8l31.7-18.3a1 1 0 0 1 1.4.4 1 1 0 0 1-.4 1.3L201.4 221a1 1 0 0 1-.5.2Z" style="fill:#e0e0e0"/><path d="m250.4 184.8-7.3 4.2-2-30.4 7.2-4.2 2.1 30.4z" style="fill:#fa5951"/><g style="opacity:.4"><path d="m250.4 184.8-7.3 4.2-2-30.4 7.2-4.2 2.1 30.4z" style="fill:#fff"/></g><path d="m250.2 192.4-5.9 3.4c-.4.2-.7 0-.7-.5a1.4 1.4 0 0 1 .6-1.2l5.9-3.4c.3-.3.7 0 .7.4a1.4 1.4 0 0 1-.6 1.3Z" style="fill:#455a64"/><path d="m260.6 178.9-7.2 4.1-2.1-30.3 7.3-4.2 2 30.4z" style="fill:#fa5951"/><g style="opacity:.2"><path d="m260.6 178.9-7.2 4.1-2.1-30.3 7.3-4.2 2 30.4z" style="fill:#fff"/></g><path d="m260.4 186.5-5.8 3.4c-.4.2-.7 0-.8-.5a1.4 1.4 0 0 1 .6-1.3l6-3.4c.3-.2.6 0 .7.5a1.4 1.4 0 0 1-.7 1.3Z" style="fill:#455a64"/><path d="m270.9 172.9-7.2 4.2-2.1-30.4 7.2-4.1 2.1 30.3z" style="fill:#fa5951"/><path d="m270.7 180.5-5.9 3.4c-.4.2-.7 0-.7-.4a1.4 1.4 0 0 1 .6-1.3l5.9-3.4c.3-.2.7 0 .7.5a1.4 1.4 0 0 1-.6 1.2Z" style="fill:#455a64"/><path d="m281.1 167-7.2 4.2-2.1-30.4 7.3-4.2 2 30.4z" style="fill:#fa5951"/><g style="opacity:.7000000000000001"><path d="m281.1 167-7.2 4.2-2.1-30.4 7.3-4.2 2 30.4z" style="fill:#fff"/></g><path d="m281 174.6-5.9 3.4c-.4.2-.7 0-.7-.4a1.4 1.4 0 0 1 .6-1.3l5.9-3.4c.4-.2.7 0 .7.5a1.4 1.4 0 0 1-.6 1.2Z" style="fill:#455a64"/><path d="m291.4 161.1-7.2 4.2-2.1-30.4 7.2-4.2 2.1 30.4z" style="fill:#fa5951"/><g style="opacity:.2"><path d="m291.4 161.1-7.2 4.2-2.1-30.4 7.2-4.2 2.1 30.4z" style="fill:#fff"/></g><path d="m291.2 168.7-5.9 3.4c-.4.2-.7 0-.7-.5a1.4 1.4 0 0 1 .6-1.2l5.9-3.4c.3-.2.7 0 .7.4a1.4 1.4 0 0 1-.6 1.3ZM109 407.4l1.5.8 1.8 1 91.8 53.2c-.5-1.3-.1-3.7 1.1-6 1.5-2.8 3.7-5 5.3-5l-91.3-53-3.4-1.9c2.2 1.4-4.6 12.2-6.7 10.9Z" style="fill:#455a64"/><path d="m119 398.4-3.2-1.9c-1-.6-2.7 1.1-4.2 3.3-2.1 3-3.8 6.8-2.5 7.6l2.4 1.4.8.4c-1.2-.7.5-4.6 2.5-7.5 1.5-2.1 3.2-3.8 4.1-3.4a.2.2 0 0 1 .1 0Z" style="fill:#ebebeb"/><path d="M118.2 398c-2.1-1.4-8.8 9.5-6.7 10.8l3.3 1.9c-2.2-1.4 4.5-12.2 6.7-11Z" style="fill:#fa5951"/><path d="m124.6 401.6-3.2-1.9c-2.1-1.3-8.7 9.1-7 10.8h.2l3.2 2c-2-1.4 4.7-12.3 6.8-11Z" style="fill:#ebebeb"/><path d="M115.8 396.5c-.9-.6-2.6 1.1-4.2 3.3-2 2.9-3.7 6.7-2.5 7.5l-13.7-7.8a3.3 3.3 0 0 1-1-3.5c.7-4 5.3-9 8.3-7ZM219.2 462.9c-1 1.5-1 2.3-1 2.3l-14-2.8c-1.5-2.2-.6-5.6 1.4-8.1l.6.3Z" style="fill:#f28f8f"/><path d="m222 466-3.8-.8s-.1-.8 1-2.3l3.4 2.1a.6.6 0 0 1 0 .8.5.5 0 0 1-.5.1Z" style="fill:#37474f"/><path d="m210.5 451.3 9.7 11a1.7 1.7 0 0 0-1 .6l-13-8.3-.7-.3a6.8 6.8 0 0 1 5-3Z" style="fill:#ffa8a7"/><path d="M219.2 462.9a1.3 1.3 0 0 1 1-.6l2.4 2.7Z" style="fill:#455a64"/><path d="m205.6 454.3-110-61.7a9.8 9.8 0 0 0-1.3 3.4 3.3 3.3 0 0 0 1 3.5l13.8 8 1.4.8 1.8 1 91.8 53.1c-1.7-2.7.2-6.6 1.5-8.1Z" style="opacity:.2" fill="#000000"/><path d="M38.1 392c-8-8.4-12.7-29.3-4.9-36h40c7.8 6.7 3 27.6-5 36l-.2.1-.3.3-.7.7-.2.1-.6.5a10.8 10.8 0 0 1-1 .7 26.2 26.2 0 0 1-24 0 10.9 10.9 0 0 1-1-.7l-.5-.5a2.1 2.1 0 0 1-.3-.1 8.6 8.6 0 0 1-.7-.7l-.3-.3Z" style="fill:#37474f"/><path d="M69.7 353.4c9 5.3 9 14 0 19.3s-24 5.3-33 0-9.2-14 0-19.3 23.8-5.3 33 0Z" style="fill:#455a64"/><path d="M65.3 356c6.7 4 6.7 10.2 0 14.1s-17.6 4-24.2 0-6.7-10.2 0-14.1 17.5-4 24.2 0Z" style="fill:#263238"/><path d="M41 362.7a26.5 26.5 0 0 1 24.3 0 11.2 11.2 0 0 1 4 3.7 11.3 11.3 0 0 1-4 3.7 26.5 26.5 0 0 1-24.2 0 11.3 11.3 0 0 1-4-3.7 11.2 11.2 0 0 1 4-3.7Z" style="fill:#fff"/><path d="M47.7 324.3c-2.7 3.4-10.8 5-14.8-3.4-3.8-7.8-7.8-15.2-9-18a3 3 0 0 1 1.6-4.2s0-4.4 7.7-2 13.3 6.6 17.2 13.7 2.3 12.6-2.7 14Z" style="fill:#fa5951"/><g style="opacity:.5"><path d="M47.7 324.3c-2.7 3.4-10.8 5-14.8-3.4-3.8-7.8-7.8-15.2-9-18a3 3 0 0 1 1.6-4.2s0-4.4 7.7-2 13.3 6.6 17.2 13.7 2.3 12.6-2.7 14Z" style="fill:#fff"/></g><path d="M51.8 335.4a39.4 39.4 0 0 0-1-4.4 62.8 62.8 0 0 0-3.1-8.4 63.5 63.5 0 0 0-10-15.4 55.2 55.2 0 0 0-7.4-7.3s-.1.2 0 .2a68.2 68.2 0 0 1 11.8 14 69.5 69.5 0 0 1 7.5 16.3l1.4 4.9 1.1 5c0 .1.3.2.3 0a31.9 31.9 0 0 0-.6-4.9Z" style="fill:#fa5951"/><path d="M51.8 335.4a39.4 39.4 0 0 0-1-4.4 62.8 62.8 0 0 0-3.1-8.4 63.5 63.5 0 0 0-10-15.4 55.2 55.2 0 0 0-7.4-7.3s-.1.2 0 .2a68.2 68.2 0 0 1 11.8 14 69.5 69.5 0 0 1 7.5 16.3l1.4 4.9 1.1 5c0 .1.3.2.3 0a31.9 31.9 0 0 0-.6-4.9Z" style="opacity:.30000000000000004" fill="#000000"/><path d="M56.5 318.4c-7 2.1-12.3-3.3-10.5-12s10.9-18 14.3-15.5c2.1-2.1 6.8-1.4 9 5.6s.2 25-12.8 21.9Z" style="fill:#fa5951"/><g style="opacity:.30000000000000004"><path d="M56.5 318.4c-7 2.1-12.3-3.3-10.5-12s10.9-18 14.3-15.5c2.1-2.1 6.8-1.4 9 5.6s.2 25-12.8 21.9Z" style="fill:#fff"/></g><path d="M60.6 296.1a94.1 94.1 0 0 0-4.7 15.5 149.8 149.8 0 0 0-2.7 16.1c-1.2 10.5-1.5 10-1.4 20.5l.1 8.8c.1 2.9 0 6 .3 9 .1 1.1 1.7.8 1.8-.2 0-5.3-.2-10.6-.3-15.8a36 36 0 0 1 .1-4.4 219.2 219.2 0 0 1 2.9-31.6c.4-3 1-5.8 1.7-8.7l2.4-9c0-.2-.1-.3-.2-.2Z" style="fill:#fa5951"/><path d="M60.6 296.1a94.1 94.1 0 0 0-4.7 15.5 149.8 149.8 0 0 0-2.7 16.1c-1.2 10.5-1.5 10-1.4 20.5l.1 8.8c.1 2.9 0 6 .3 9 .1 1.1 1.7.8 1.8-.2 0-5.3-.2-10.6-.3-15.8a36 36 0 0 1 .1-4.4 219.2 219.2 0 0 1 2.9-31.6c.4-3 1-5.8 1.7-8.7l2.4-9c0-.2-.1-.3-.2-.2Z" style="opacity:.30000000000000004" fill="#000000"/><path d="M40.2 341.6c-.9 4.5-7 7.8-14.3 4.8S4.5 324.8 11 322.7c-.3-3.4 19.2-6.2 29 5.8 7 8.7.2 13 .2 13Z" style="fill:#fa5951"/><g style="opacity:.7000000000000001"><path d="M40.2 341.6c-.9 4.5-7 7.8-14.3 4.8S4.5 324.8 11 322.7c-.3-3.4 19.2-6.2 29 5.8 7 8.7.2 13 .2 13Z" style="fill:#fff"/></g><path d="M50.5 348.3a33 33 0 0 0-3-3.2 88 88 0 0 0-6.5-5.9 89.2 89.2 0 0 0-15.2-9.7 78.6 78.6 0 0 0-9.1-4.2c-.1 0 0 .1 0 .2 2.6 1.2 5.2 2.4 7.7 3.8a87.2 87.2 0 0 1 7.6 4.8 110.8 110.8 0 0 1 13.4 11l3.5 3.5 3.8 3.4c.1.2.4.1.3-.1l-2.5-3.6Z" style="fill:#fa5951"/><path d="M50.5 348.3a33 33 0 0 0-3-3.2 88 88 0 0 0-6.5-5.9 89.2 89.2 0 0 0-15.2-9.7 78.6 78.6 0 0 0-9.1-4.2c-.1 0 0 .1 0 .2 2.6 1.2 5.2 2.4 7.7 3.8a87.2 87.2 0 0 1 7.6 4.8 110.8 110.8 0 0 1 13.4 11l3.5 3.5 3.8 3.4c.1.2.4.1.3-.1l-2.5-3.6Z" style="opacity:.30000000000000004" fill="#000000"/><path d="M80 336.1c0-2.6-13-2.4-19 2.4s-6.8 9.7-3 11.3c-.7 5.4 7.9 9 15.5 2.2s9.3-15.4 6.5-15.9Z" style="fill:#fa5951"/><path d="M80 336.1c0-2.6-13-2.4-19 2.4s-6.8 9.7-3 11.3c-.7 5.4 7.9 9 15.5 2.2s9.3-15.4 6.5-15.9Z" style="fill:#fff;opacity:.30000000000000004"/><path d="M67.3 342.9a31.7 31.7 0 0 0-14.2 12.5c-.2.3.3 1 .5.6a37 37 0 0 1 13.7-13s.1-.1 0-.1Z" style="fill:#fa5951"/><path d="M67.3 342.9a31.7 31.7 0 0 0-14.2 12.5c-.2.3.3 1 .5.6a37 37 0 0 1 13.7-13s.1-.1 0-.1Z" style="opacity:.30000000000000004" fill="#000000"/><path d="M58.8 358.1c-4.4 4.3.4 9.6 7.5 12.3a25.4 25.4 0 0 0 18.4-.9c3.4-1.7 4-2.5 4-2.5a43.2 43.2 0 0 0-3.5-8.7 18.1 18.1 0 0 0-18-8.2c-9 1.1-9.7 4.9-8.4 8Z" style="fill:#fa5951"/><g style="opacity:.5"><path d="M58.8 358.1c-4.4 4.3.4 9.6 7.5 12.3a25.4 25.4 0 0 0 18.4-.9c3.4-1.7 4-2.5 4-2.5a43.2 43.2 0 0 0-3.5-8.7 18.1 18.1 0 0 0-18-8.2c-9 1.1-9.7 4.9-8.4 8Z" style="fill:#fff"/></g><path d="M77.1 361.4a46 46 0 0 0-11.1-4.1c-3.8-.8-8.5-.8-11.6 1.9-1.1 1-2.7 3.3-1.8 5 .1 0 .6.4.7 0a15.3 15.3 0 0 1 1-3 6.1 6.1 0 0 1 2.4-2.2 14 14 0 0 1 8-1.3c4.3.4 8.4 2.1 12.4 3.7Z" style="fill:#fa5951"/><path d="M77.1 361.4a46 46 0 0 0-11.1-4.1c-3.8-.8-8.5-.8-11.6 1.9-1.1 1-2.7 3.3-1.8 5 .1 0 .6.4.7 0a15.3 15.3 0 0 1 1-3 6.1 6.1 0 0 1 2.4-2.2 14 14 0 0 1 8-1.3c4.3.4 8.4 2.1 12.4 3.7Z" style="opacity:.30000000000000004" fill="#000000"/><path d="M60 331.1c-1 3.8 3.8 7.4 9.9 5.4s12.4-4 17.6-4 8.5-3.5 7.4-5.8-2.3-7.8-15.6-9.4-19.2 3.2-22 6.8.5 7.7 2.7 7Z" style="fill:#fa5951"/><g style="opacity:.7000000000000001"><path d="M60 331.1c-1 3.8 3.8 7.4 9.9 5.4s12.4-4 17.6-4 8.5-3.5 7.4-5.8-2.3-7.8-15.6-9.4-19.2 3.2-22 6.8.5 7.7 2.7 7Z" style="fill:#fff"/></g><path d="M84.6 323a16.6 16.6 0 0 0-4.3-.3 25.9 25.9 0 0 0-4.1.3 31.8 31.8 0 0 0-7.8 2.4c-4.7 2-9.3 4.8-12.3 9a29.8 29.8 0 0 0-3.9 7.3c-.2.4.8.7 1 .3a53.7 53.7 0 0 1 3.3-6.4 19.6 19.6 0 0 1 5-5.2 40.3 40.3 0 0 1 14-6.5 28.3 28.3 0 0 1 4.6-.6 42.2 42.2 0 0 1 4.5.1c.2 0 .1-.3 0-.3Z" style="fill:#fa5951"/><path d="M84.6 323a16.6 16.6 0 0 0-4.3-.3 25.9 25.9 0 0 0-4.1.3 31.8 31.8 0 0 0-7.8 2.4c-4.7 2-9.3 4.8-12.3 9a29.8 29.8 0 0 0-3.9 7.3c-.2.4.8.7 1 .3a53.7 53.7 0 0 1 3.3-6.4 19.6 19.6 0 0 1 5-5.2 40.3 40.3 0 0 1 14-6.5 28.3 28.3 0 0 1 4.6-.6 42.2 42.2 0 0 1 4.5.1c.2 0 .1-.3 0-.3Z" style="opacity:.30000000000000004" fill="#000000"/><path d="M49.1 352.7c-1-3.9-6-6.1-12.6-6.6a17.1 17.1 0 0 0-16.2 8.3c-3.4 5.9-4.9 10.5-2.8 11.3s10.9 2 16.5 2.5 12.8-.5 17.4-4.8 3.1-9.8-2.3-10.7Z" style="fill:#fa5951"/><path d="M49.1 352.7c-1-3.9-6-6.1-12.6-6.6a17.1 17.1 0 0 0-16.2 8.3c-3.4 5.9-4.9 10.5-2.8 11.3s10.9 2 16.5 2.5 12.8-.5 17.4-4.8 3.1-9.8-2.3-10.7Z" style="fill:#fff;opacity:.30000000000000004"/><path d="M49.4 352.2a17.3 17.3 0 0 0-7.1-.3 31.7 31.7 0 0 0-6.7 1.5 42.5 42.5 0 0 0-6.6 3l-3.2 2a23.8 23.8 0 0 0-3 2s0 .1 0 0c1.2-.4 2.2-1 3.2-1.6l3.4-1.9a47.5 47.5 0 0 1 6.5-2.7 31.1 31.1 0 0 1 7-1.5 43 43 0 0 1 6.5.2c.5 0 .2-.6 0-.7Z" style="fill:#fa5951"/><path d="M49.4 352.2a17.3 17.3 0 0 0-7.1-.3 31.7 31.7 0 0 0-6.7 1.5 42.5 42.5 0 0 0-6.6 3l-3.2 2a23.8 23.8 0 0 0-3 2s0 .1 0 0c1.2-.4 2.2-1 3.2-1.6l3.4-1.9a47.5 47.5 0 0 1 6.5-2.7 31.1 31.1 0 0 1 7-1.5 43 43 0 0 1 6.5.2c.5 0 .2-.6 0-.7Z" style="opacity:.30000000000000004" fill="#000000"/><path d="M474 198.3a19.9 19.9 0 0 1-12.4 7.6l-2.2.3a19.8 19.8 0 0 1-5.5-39.2l2.2-.4a19.8 19.8 0 0 1 18 31.7Z" style="fill:#fff"/><path d="M471.2 169.2a21.5 21.5 0 0 0-28.6 32l-1.8 6.4a1.3 1.3 0 0 0 1.9 1.4l5.6-3.5a21.5 21.5 0 0 0 22.9-36.3Zm2.9 29.1a19.9 19.9 0 0 1-12.5 7.6l-2.2.3a19.8 19.8 0 0 1-5.5-39.2l2.2-.4a19.8 19.8 0 0 1 18 31.7Z" style="fill:#e0e0e0"/><path d="M474 198.3a19.9 19.9 0 0 1-12.4 7.6l-2.2.3a19.8 19.8 0 0 1-5.5-39.2l2.2-.4a19.8 19.8 0 0 1 18 31.7Z" style="fill:#fff;opacity:.7000000000000001"/><path d="M444 186.4a3.2 3.2 0 0 1 .2-1.2 3 3 0 0 1 .7-1 3.3 3.3 0 0 1 2.2-1 3.2 3.2 0 0 1 1.3.3 3.4 3.4 0 0 1 1 .7 3 3 0 0 1 .7 1 3 3 0 0 1 .2 1.2 3 3 0 0 1-1 2.2 3.2 3.2 0 0 1-1 .7 3.1 3.1 0 0 1-1.2.2 3.2 3.2 0 0 1-1.2-.2 3.1 3.1 0 0 1-1-.7 3 3 0 0 1-.7-1 3.1 3.1 0 0 1-.2-1.2ZM455 186.4a3.2 3.2 0 0 1 .3-1.2 3 3 0 0 1 .7-1 3.2 3.2 0 0 1 3.5-.7 3.6 3.6 0 0 1 1 .7 3.2 3.2 0 0 1 .6 1 3 3 0 0 1 .3 1.2 3.1 3.1 0 0 1-.3 1.2 3.3 3.3 0 0 1-.6 1 3.4 3.4 0 0 1-1 .7 3.1 3.1 0 0 1-1.3.2 3.2 3.2 0 0 1-1.2-.2 3.1 3.1 0 0 1-1-.7 3 3 0 0 1-.7-1 3.1 3.1 0 0 1-.2-1.2ZM466.2 186.4a3.2 3.2 0 0 1 .2-1.2 3 3 0 0 1 .7-1 3.2 3.2 0 0 1 3.4-.7 3.6 3.6 0 0 1 1 .7 3 3 0 0 1 .7 1 3.2 3.2 0 0 1 0 2.4 3.3 3.3 0 0 1-.7 1 3.4 3.4 0 0 1-1 .7 3.1 3.1 0 0 1-1.2.2 3.2 3.2 0 0 1-1.2-.2 3.1 3.1 0 0 1-1-.7 2.9 2.9 0 0 1-.7-1 3.1 3.1 0 0 1-.2-1.2Z" style="fill:#e0e0e0"/><path d="M329.2 67.5a19.8 19.8 0 0 1 14.5-.5l2.1.9a19.8 19.8 0 0 1-14.3 36.8l-2.1-.8a19.8 19.8 0 0 1-.2-36.4Z" style="fill:#fff"/><path d="M317.4 94.4a21.5 21.5 0 0 0 40.6-14l4.7-4.7a1.3 1.3 0 0 0-.9-2.1l-6.7.3a21.5 21.5 0 0 0-37.7 20.5Zm11.8-26.9a19.8 19.8 0 0 1 14.5-.5l2.1.9a19.8 19.8 0 0 1-14.3 36.8l-2.1-.8a19.8 19.8 0 0 1-.2-36.4Z" style="fill:#e0e0e0"/><path d="M329.2 67.5a19.8 19.8 0 0 1 14.5-.5l2.1.9a19.8 19.8 0 0 1-14.3 36.8l-2.1-.8a19.8 19.8 0 0 1-.2-36.4Z" style="fill:#fff;opacity:.7000000000000001"/><path d="M329.1 74.6a13.3 13.3 0 0 1 1.6-1.2 11 11 0 0 1 1.8-1 10.5 10.5 0 0 1 2.1-.7 12 12 0 0 1 2.5-.2 10.1 10.1 0 0 1 3.3.5 7.2 7.2 0 0 1 2.5 1.4 6.2 6.2 0 0 1 1.7 2.2 7.1 7.1 0 0 1 .6 3 7.5 7.5 0 0 1-.5 2.7 8 8 0 0 1-1.1 2 8.4 8.4 0 0 1-1.5 1.5l-1.6 1.2a10.7 10.7 0 0 0-1.3 1 2.1 2.1 0 0 0-.6 1.3l-.5 3h-3.5l-.3-3.4a2.7 2.7 0 0 1 .3-1.7 5 5 0 0 1 1-1.4 13.3 13.3 0 0 1 1.5-1.2 14.4 14.4 0 0 0 1.6-1.2 6.5 6.5 0 0 0 1.2-1.5 3.9 3.9 0 0 0 .5-2 3 3 0 0 0-1-2.4 3.5 3.5 0 0 0-1.3-.6 4.6 4.6 0 0 0-1.5-.3 6.6 6.6 0 0 0-3.4.9l-1 .6a1.4 1.4 0 0 1-.7.2 1.1 1.1 0 0 1-1-.6Zm4 22.1a3.2 3.2 0 0 1 .2-1.2A3 3 0 0 1 335 94a3 3 0 0 1 1.3-.3 3 3 0 0 1 1.2.3 3.4 3.4 0 0 1 1 .6 3.2 3.2 0 0 1 .9 2.3 3 3 0 0 1-.2 1.2 3 3 0 0 1-.7 1 3.4 3.4 0 0 1-1 .6 3.1 3.1 0 0 1-1.2.3 3.2 3.2 0 0 1-1.3-.3 3.1 3.1 0 0 1-1-.6 3.2 3.2 0 0 1-.7-1 3.1 3.1 0 0 1-.2-1.3Z" style="fill:#fa5951"/><path d="M102.4 124.3c0-15.8-18-28.7-40.1-28.7S22 108.5 22 124.3s18 28.8 40.2 28.8l4-.1a16.7 16.7 0 0 0 17.6 9 10.9 10.9 0 0 1-6.2-11.1c14.5-4.3 24.7-14.6 24.7-26.6Z" style="fill:#fff"/><path d="M81.4 162.5a16.8 16.8 0 0 1-15.4-9.1l-3.7.1c-22.4 0-40.6-13-40.6-29.2S40 95.2 62.2 95.2s40.6 13 40.6 29.1c0 11.8-9.7 22.3-24.8 27a10.5 10.5 0 0 0 6 10.3.4.4 0 0 1-.1.8 22.8 22.8 0 0 1-2.5.1Zm-15.2-10a.4.4 0 0 1 .4.2c4.2 8 11.2 9.1 15.8 9a11.4 11.4 0 0 1-5.2-10.9.4.4 0 0 1 .3-.3c14.9-4.4 24.5-14.7 24.5-26.2C102 108.7 84.1 96 62.2 96s-39.7 12.7-39.7 28.3 17.8 28.4 39.8 28.4c1.2 0 2.6 0 3.9-.2Z" style="fill:#fa5951"/><path d="M48.8 125.2a4 4 0 1 1-4-4.1 4 4 0 0 1 4 4ZM66.3 125.2a4 4 0 1 1-4-4.1 4 4 0 0 1 4 4ZM83.8 125.2a4 4 0 1 1-4-4.1 4 4 0 0 1 4 4Z" style="fill:#fa5951"/><g style="opacity:.30000000000000004"><path d="M48.8 125.2a4 4 0 1 1-4-4.1 4 4 0 0 1 4 4ZM66.3 125.2a4 4 0 1 1-4-4.1 4 4 0 0 1 4 4ZM83.8 125.2a4 4 0 1 1-4-4.1 4 4 0 0 1 4 4Z" style="fill:#fff"/></g><path d="m335 218 7.8-45.1 5-.3-10.4 45.5a.7.7 0 0 1-.3.4 2 2 0 0 1-1.8.1.6.6 0 0 1-.3-.5Z" style="fill:#263238"/><path d="M408.6 165.4h5l11.7 47a.6.6 0 0 1-.4.6 2 2 0 0 1-1.7 0 .7.7 0 0 1-.4-.4ZM374.3 239.6l.2-50.6 5-.3-2.7 50.9a.7.7 0 0 1-.3.5 2 2 0 0 1-1.8 0 .6.6 0 0 1-.3-.5Z" style="fill:#37474f"/><path d="M381.5 149.7h5l8 49.9a.6.6 0 0 1-.4.5 2 2 0 0 1-1.8 0 .7.7 0 0 1-.3-.4Z" style="fill:#263238"/><path d="M423 110.6a28 28 0 0 1 2 8.8 287 287 0 0 1-3.1 38c-2 16.1-4.4 16.1-8 18.8a185 185 0 0 1-29 16c-10.3 4.1-18.8-2.2-25.1-5.3A145.6 145.6 0 0 1 343 177c-1.6-1.1-2.4-2.3-2.4-3.5v-3c0-1.6 1.4-3.3 4.3-5.1 5.3-3.5 24.7-14.8 32.2-19 5.8-3.5 9.3-27.4 13.3-40l.3-.8.2-.6.8-1.9" style="fill:#fa5951"/><path d="M340.6 170.5c0-1.6 1.4-3.3 4.3-5.1 5.3-3.5 24.7-14.8 32.2-19 5.8-3.5 9.3-27.3 13.3-40a24.7 24.7 0 0 1 .8-2.3l.1-.2.2-.5.1-.3a12 12 0 0 1 2.7-3.8 5.3 5.3 0 0 1 1.3-1L398 97c4-2.3 9 .5 15.5 4 4 2.2 7.3 4.8 9.4 9.6a28 28 0 0 1 2 8.7 287 287 0 0 1-3 38c-2 16.2-4.4 16.2-7.9 19a185 185 0 0 1-29 16c-10.4 4-19-2.3-25.2-5.4A145.6 145.6 0 0 1 343 177c-1.6-1.1-2.4-2.3-2.4-3.5v-3Z" style="fill:#fa5951"/><path d="M340.6 170.5c0-1.6 1.4-3.3 4.3-5.1 5.3-3.5 24.7-14.8 32.2-19 5.8-3.5 9.3-27.3 13.3-40a24.7 24.7 0 0 1 .8-2.3l.1-.2.2-.5.1-.3a12 12 0 0 1 2.7-3.8 5.3 5.3 0 0 1 1.3-1L398 97c4-2.3 9 .5 15.5 4 4 2.2 7.3 4.8 9.4 9.6a28 28 0 0 1 2 8.7 287 287 0 0 1-3 38c-2 16.2-4.4 16.2-7.9 19a185 185 0 0 1-29 16c-10.4 4-19-2.3-25.2-5.4A145.6 145.6 0 0 1 343 177c-1.6-1.1-2.4-2.3-2.4-3.5v-3Z" style="opacity:.30000000000000004" fill="#000000"/><path d="M359.7 184a146.9 146.9 0 0 1-16.7-10c-3.6-2.6-3.3-5.3 1.9-8.6 7.1-4.7 36.3-21.2 36.3-21.2s36.9 21.7 35.3 25.8-24.4 16.4-31.6 19.3c-10.4 4-18.8-2.3-25.2-5.4Z" style="fill:#fa5951"/><g style="opacity:.2"><path d="M359.7 184a146.9 146.9 0 0 1-16.7-10c-3.6-2.6-3.3-5.3 1.9-8.6 7.1-4.7 36.3-21.2 36.3-21.2s36.9 21.7 35.3 25.8-24.4 16.4-31.6 19.3c-10.4 4-18.8-2.3-25.2-5.4Z" style="fill:#fff"/></g><path d="M395.6 98.4c4-2 9 .7 15.2 4.1 4 2.2 7.4 4.8 9.5 9.7l2.6-1.6c-2-4.8-5.5-7.4-9.4-9.6-6.4-3.5-11.6-6.3-15.5-4Z" style="fill:#fa5951"/><path d="M395.6 98.4c4-2 9 .7 15.2 4.1 4 2.2 7.4 4.8 9.5 9.7l2.6-1.6c-2-4.8-5.5-7.4-9.4-9.6-6.4-3.5-11.6-6.3-15.5-4Z" style="fill:#fff;opacity:.5"/><path d="M377.2 146.4s3.7 1.2 17.1 7.8c5.5 2.7 9.2 5.4 14.3 8.7 7.6 4.8 7 8.3 7 8.3 3.8-3.1 7.5-39.4 6.6-50.4a27.5 27.5 0 0 0-2.1-9l-.4-.7-.2-.5v-.2a14.6 14.6 0 0 0-1-1.5l-.3-.3-.3-.4-.2-.3-.3-.3a16.5 16.5 0 0 0-1.3-1.4l-.4-.3a22.4 22.4 0 0 0-2.4-1.9l-.4-.2-.5-.4-.4-.2-1.2-.7c-4.8-2.6-8.8-4.8-12.2-4.8a6.3 6.3 0 0 0-4.3 1.6c-2.5 2.2-3.8 6.8-3.9 7.1-4 12.7-7.5 36.5-13.2 40Z" style="fill:#fa5951"/><path d="M350.6 196.3s4.8 10.3 5.4 14.5c.6 4.3 1.8 5.6 1.4 10.4 0 1-.4 3.1-.5 4a1.2 1.2 0 0 0 1.3 1.4c2 .2 4.8-3.5 6-7.5a112 112 0 0 0 2.6-13.8 6 6 0 0 0-.9-3 9.2 9.2 0 0 0-1-1.5c-.8-1.8-1.4-5.3-2.1-7.8Z" style="fill:#c8856a"/><path d="M370.9 209a4.5 4.5 0 0 1 .6 1.4c.1.8-1.6 3.8-2.3 5a6.8 6.8 0 0 0-1 5 11.7 11.7 0 0 1-2.3 7.9 19.2 19.2 0 0 1-9 6.9c-4.5 1.8-6.4-.4-6.4-.4s-1.6-2-.8-3l21.2-22.8Z" style="fill:#263238"/><path d="M364.9 200.8c.1 0 .4 0 .8.4l2 3.1c.8 1.1 2.8 3 3.2 4.6-.8 3.5-3.8 6.1-4 9.3s0 7-4.6 11.2-9.7 5.1-11.7 4.2-2-2.8.3-6.7c2.4-4.1 3.5-12.8 3.5-12.8a26.2 26.2 0 0 0 .2-3.6 23 23 0 0 0-.7-3.5 2.7 2.7 0 0 1 .1-1.7 2.8 2.8 0 0 1 1.3-1 12.9 12.9 0 0 1 2.5-1 4.2 4.2 0 0 1 2.7 0 16.9 16.9 0 0 0 1.7 1 2.4 2.4 0 0 0 2.4-.6 2 2 0 0 0 .5-2.3 4 4 0 0 0-.2-.6Z" style="fill:#37474f"/><path d="M365 226a8 8 0 0 0-7.6-3.2c-5.3.4-7 3.2-7.6 4.8-.8 2-1.5 5.4.7 6.2 2.5.8 5.2.3 9.3-2.1s5.1-5.6 5.1-5.6ZM362.6 210.5a.5.5 0 0 1-.5 0c-.9-.3-5.3-.9-7.6 1.6-.3-.2-.3-.7 0-1.4 2.8-2 7-1.6 8-1.1a.5.5 0 0 1 .3.6.6.6 0 0 1-.2.3ZM354.2 215.2a1.6 1.6 0 0 1 .2-1.4 10.1 10.1 0 0 1 7.7-1 .5.5 0 0 1 .2.7.6.6 0 0 1-.2.3.6.6 0 0 1-.5 0c-.8-.3-5-.8-7.4 1.4ZM352.7 222.4a2.9 2.9 0 0 1 .5-2 10 10 0 0 1 7.9-1 .5.5 0 0 1 .2.7.6.6 0 0 1-.2.2.5.5 0 0 1-.5 0c-.9-.3-5.7-.9-8 2.1ZM361.6 217a.6.6 0 0 1-.5 0c-.8-.3-5.1-.8-7.5 1.6a1.8 1.8 0 0 1 .3-1.6 10.1 10.1 0 0 1 7.7-.9.5.5 0 0 1 .2.7.6.6 0 0 1-.2.3Z" style="fill:#fafafa"/><path d="M349.2 206.6s-1 10.7-2.2 18.2c-.9 5.5-5.3 7.5-9 10.8l-3.4 2.5a1.3 1.3 0 0 0-.2 2c1.3 1.6 7.5 2.9 11.3.8s7.8-7 10.1-8.8l2.6-2c.8-.7.7-1.6.9-2.5l.6-2.6 3.6-9.8Z" style="fill:#c8856a"/><path d="M359.8 235.2a4.5 4.5 0 0 1-.3 1.5c-.5.8-3.7 2.2-5 2.7a7 7 0 0 0-3.9 3.6 12.3 12.3 0 0 1-6.7 5.2 20.1 20.1 0 0 1-11.7.3c-4.9-1.2-4.6-4-4.6-4s0-2.8 1.2-3l31-6.3Z" style="fill:#263238"/><path d="M359.9 225c.1 0 .2.2.3.7 0 .3-.3 2.5-.3 3.8s.6 4-.1 5.7c-2.8 2.4-6.9 2.8-9 5.3s-4.2 5.8-10.7 6.5-10.7-1-11.8-3 .7-3.5 4.3-5.6a75 75 0 0 0 11.7-10.3 7 7 0 0 0 1.3-4c0-.5.2-1 .8-1.3a2.7 2.7 0 0 1 1-.1 14.3 14.3 0 0 1 4.5.9 15 15 0 0 1 2 .9c.5.3 1.2.6 1.5 1.2a1.4 1.4 0 0 1 0 .8 16 16 0 0 1-.6 2.5.5.5 0 0 0 0 .4c.2.4 1.6-1.3 1.8-1.5a3.4 3.4 0 0 1 1.6-1 1.7 1.7 0 0 0 1.3-1Z" style="fill:#37474f"/><path d="M344.4 245.8a8.1 8.1 0 0 0-4.3-7.2c-4.7-2.7-6.9-1-8.4-.1-1.8 1.1-5 3.4-3.6 5.4 1.5 2.2 3.7 3 8.6 3.5s7.7-1.6 7.7-1.6ZM352 231.6a.6.6 0 0 1-.5-.3c-.5-.8-3.9-3.8-7.3-3.2-.2-.4.1-.7.9-1 3.5-.1 6.7 2.7 7.3 3.7a.5.5 0 0 1-.1.7.6.6 0 0 1-.4 0ZM342 230.5a1.6 1.6 0 0 1 1-1 10.3 10.3 0 0 1 7 3.7.5.5 0 0 1-.2.7.6.6 0 0 1-.3 0 .6.6 0 0 1-.4-.2c-.5-.7-3.7-3.6-7-3.2ZM336.4 235.5a3 3 0 0 1 1.6-1.3 10.2 10.2 0 0 1 7.3 3.8.5.5 0 0 1-.2.7.6.6 0 0 1-.4.1.6.6 0 0 1-.4-.3c-.5-.8-4.2-4.2-7.9-3ZM347.1 236.4a.6.6 0 0 1-.4-.3c-.5-.7-3.8-3.7-7.2-3.1a1.8 1.8 0 0 1 1.2-1.2 10.4 10.4 0 0 1 7 3.8.5.5 0 0 1-.2.7.6.6 0 0 1-.4 0Z" style="fill:#fafafa"/><path d="M372.8 139.4s-20 10.8-29.6 20.8c-3.4 3.5-5.6 6.6-2 15.8 2.8 7 7 16.6 11.5 25.7l42.7-51.7Z" style="fill:#455a64"/><path d="m352.7 201.7 27-43-1-.2c-5-2.2-7.1-9.1-7.1-9.1a11.8 11.8 0 0 0 2.2 8.8c-2.9 2-9.3 6.9-19.3 14.4-1.8 1.3-5 3.8-5 8.7 0 6.8.3 14.3.3 14.3Z" style="fill:#37474f"/><path d="m372.8 139.4 41.7 6.2a38 38 0 0 1-5.2 19c-2.7 4-5.7 6.6-16.4 12.2l-21 10.8c-1.7 1-1.6 5.5-2.5 10-1.8 9-7.2 22.6-7.2 22.6a18.3 18.3 0 0 1-14.2-3.5s1.6-20.3 2.5-27c1-8 .9-10 4.8-14 3.4-3.3 23.5-17.2 23.5-17.2s-9.6-9.7-6-19Z" style="fill:#455a64"/><path d="M409 144.8c-.2 6.8-1.1 12-6 17-3.2-2-2.6-4-1.4-7.5l1-3.7a35.3 35.3 0 0 0 1.1-6.6h-.6a34.8 34.8 0 0 1-1 6.5l-1 3.6c-1.2 3.5-2 5.9 1.5 8.2a34.5 34.5 0 0 1-4 3.4c-7.4 5.2-17.8 11.4-24 15.1-2.2 1.3-3.9 2.3-4.7 3-3.6 2.2-4 4.2-4 10.2-.1 7.6-4.6 18.8-6.8 26.4h.6c2.2-7.7 6.8-19 6.7-26.3 0-6.2.5-7.8 3.7-9.9l4.8-2.9c6.2-3.7 16.6-9.9 24-15.2 9-6.4 10.4-12.5 10.7-21.2Z" style="fill:#37474f"/><path d="M354.6 131.7c3 1 8.3-.5 12-4.1s15.7-16.8 15.7-16.8l1.5-21.1a11.3 11.3 0 0 0-8.2 2.2c-3.4 3-13.6 18.3-16.4 22.5s-4.6 17.3-4.6 17.3Z" style="fill:#af6152"/><path d="M384 89.7c-4-.6-7.2-1-12 5.5-4.5 6-10.3 15-10.3 15a13.6 13.6 0 0 0 3.1 8.2c3.4 4.3 6.2 5.2 6.2 5.2l11.7-12.4Z" style="fill:#37474f"/><path d="M409.3 95.7c2.3 1.2 5.7 5.6 6.5 15.3.6 6 1.2 6.9-.3 24.6-.6 6.9-.5 11-2.1 20-8.3 2.8-37.7-.4-44.2-14.4 1.8-3.2 2-9.6 2-13.6s.4-17.3.7-21c1-11.9 6.1-16.5 12.2-17 0 0 7.3 1 12 1.9a69 69 0 0 1 13.2 4.2" style="fill:#fafafa"/><path d="M409.3 95.7c5.4 3.5 6.2 11.6 6.8 17.5a65.4 65.4 0 0 1 .3 11.6c-.8 10.3-1 20.7-2.9 31-8 2-16.6.6-24.5-1.2-7.7-2.2-16.2-5.7-20-13.3 2-4.4 2-9.5 2-14.3s.3-9.6.5-14.4c0-8.9 1.5-22.2 12.6-23a84.3 84.3 0 0 1 25.2 6.1 68.8 68.8 0 0 0-12.4-4c-3.7-.7-9-1.3-12.8-1.9-10.9 1-12.3 14-12.3 22.8l-.3 14.4c0 4.8 0 9.8-2 14.3v-.2c1.7 3.7 4.9 6.5 8.4 8.5 9.2 5.3 25 8.5 35.5 5.9 1.4-9.4 2.1-20.7 2.8-30.7a68 68 0 0 0-.2-11.6c-.6-5.9-1.3-13.8-6.7-17.5Z" style="fill:#e0e0e0"/><path d="M398.4 86.5c.5-3.3 3.7-6.8 5.1-9.8s2.2-5 2-7.6c-.2-1.5-1.2-3.6-2.4-4a7.2 7.2 0 0 0-5.5-8.8 25 25 0 0 1-3.2-.8c-1.2-.5-1.5-1.5-2.6-2.4-1.7-1.4-4.7-1.4-5.7.9-1.2-1.5-2.8-1.4-4.6-.9a3 3 0 0 0-2.2 3.6 3.3 3.3 0 0 0-4.9 1.9c0 1 .2 1.9-.5 2.8s-2.2 1.1-2.7.3c-.2 1.5.4 2.6 2 2.5a3.4 3.4 0 0 0-.3 2.8 3.1 3.1 0 0 0 2.8 2.1 4.8 4.8 0 0 0 2.7 3.9 33.7 33.7 0 0 0 7.9 1.9l3.1.6c.2 0 1.1 0 1.2.2Z" style="fill:#263238"/><path d="M402.3 82.1a3.2 3.2 0 0 1-3.9 0l.4 10.9c-1.7 4.7-9.6 5.7-12.6 4.4s-2.6-3-.8-5.6l-.2-1.8a31.9 31.9 0 0 1-4 0c-2.6-.4-4.6-2.4-5.4-5.2a29.2 29.2 0 0 1-.6-11.1 9.6 9.6 0 0 0 .1-2.8 13 13 0 0 1 .7-5.8c2.8-2.4 9.4-3.4 15.6.2-.6 3.7.9 6.6 3.6 8-.1 1-.2 3.4 1.5 3.3 1.1 0 1.2-1.5 2.3-2.8s4-1.8 5.2.1a6.3 6.3 0 0 1-1.9 8.2Z" style="fill:#c8856a"/><path d="m391.7 71.4 7.8 2a3.2 3.2 0 0 0-1 1.3l-6.9-1.4Z" style="fill:#263238"/><path d="M373 70.4a2.2 2.2 0 0 0 .4 1.2.9.9 0 0 1 .1.4 21.3 21.3 0 0 0 .3 3.2 3.1 3.1 0 0 0 3 2.6 4.6 4.6 0 0 0 1 0h.2a3.4 3.4 0 0 0 1-.3h.2v-.2h.2l.1-.1.2-.2a4.8 4.8 0 0 0 .9-1.1c.6-1.1.6-2.7 1.4-2.8h.2c1 .1.7 1.8 1.2 3a3.8 3.8 0 0 0 3.6 2.8h.5a3.2 3.2 0 0 0 .6 0h.4a3.2 3.2 0 0 0 .7-.3l.2-.1a2.2 2.2 0 0 0 .4-.3 3.8 3.8 0 0 0 .8-1.1 21.8 21.8 0 0 0 .8-3.1 1.3 1.3 0 0 1 .3-.5 2.2 2.2 0 0 0 .5-1 1 1 0 0 0-.5-1l-.5-.2a16.1 16.1 0 0 0-5.5-.3c-1.8.3-2.4.9-3.4.8s-1.4-.8-3-1.4a14 14 0 0 0-5-.7h-.5c-.3-.2-.7.2-.7.7Zm11.3 2a1.6 1.6 0 0 1 .5-.4h.1l.3-.1.3-.1a7.9 7.9 0 0 1 .7-.2h.3a6.5 6.5 0 0 1 .8 0h.2a4.2 4.2 0 0 1 3 .8c.3.4 0 2-.2 2.8v.1l-.1.4c-.1 0 0 .1 0 .2a3 3 0 0 1-.2.3v.2a.2.2 0 0 0 0 .1l-.1.1-.1.1v.1l-.2.1a2.6 2.6 0 0 1-2.4 1 3 3 0 0 1-2.4-1.2 3.6 3.6 0 0 1-.7-1.7 4 4 0 0 1 .2-2.6Zm-9.7-1.6a1.8 1.8 0 0 1 .4-.2h2.7a4.4 4.4 0 0 1 2.6 1.4 4.3 4.3 0 0 1-.2 2.5 4.2 4.2 0 0 1-.2.6.4.4 0 0 1 0 .2l-.1.1-.1.1v.1h-.1a2.7 2.7 0 0 1-2.7 1 2.8 2.8 0 0 1-1.2-.3 3.6 3.6 0 0 1-1.3-2.9c-.2-.6-.2-2.3.2-2.6Z" style="fill:#37474f"/><path d="m383.1 75-1.1 5.6-4-2 .5-.7.3-.4.4-.7a39.2 39.2 0 0 1 3-3.8c.7 0 .8 1 1 2ZM383.8 83a1 1 0 0 0 2.1.1 1 1 0 0 0-2.1-.1ZM385.2 90c4.1-.5 7.2-1 9.3-4.1a25.6 25.6 0 0 0 2.4-4.9 20 20 0 0 1-1.7 6.2c-1 1.9-3.4 3.6-9.8 4.3Z" style="fill:#af6152"/><path d="M385 74.5a1.2 1.2 0 0 0 1.2 1.2 1.2 1.2 0 0 0 1.2-1.2 1.2 1.2 0 1 0-2.3 0ZM385.8 68.7l2.5 1.3a1.5 1.5 0 0 0-.7-2 1.4 1.4 0 0 0-1.8.7ZM377 69l2.6-1a1.4 1.4 0 0 0-1.8-.8 1.5 1.5 0 0 0-.9 1.8ZM376.7 73.7a1.2 1.2 0 1 0 1-1.2 1.2 1.2 0 0 0-1 1.2Z" style="fill:#263238"/><path d="M335 157.3v.6a2.2 2.2 0 0 0 1.1 1.9l38.4 22.4a2.2 2.2 0 0 0 1.1.3 2.3 2.3 0 0 0 1.1-.3l21.1-12a2.2 2.2 0 0 0 1.1-1.9v-.7a.3.3 0 0 1-.1.2L375.6 181Z" style="fill:#e0e0e0"/><path d="M375.6 181v1.5a2.2 2.2 0 0 1-1-.3L336 159.8a2.2 2.2 0 0 1-1-2v-.5Z" style="fill:#263238"/><path d="M398.7 167.8a.2.2 0 0 0 .1-.2.2.2 0 0 0 0-.2l-39.6-23a1.2 1.2 0 0 0-1.2 0l-22.8 13 40.4 23.6Z" style="fill:#f0f0f0"/><path d="M358.6 144.3a1.1 1.1 0 0 1 .6.1l39.5 23.1a.1.1 0 0 1 0 .1.1.1 0 0 1 0 .1l-23 13.2-40.3-23.6 22.6-12.9a1 1 0 0 1 .5-.1m0-.2a1.2 1.2 0 0 0-.6.2l-22.9 13 40.6 23.8 23.2-13.2a.3.3 0 0 0 0-.5l-39.6-23.1a1.3 1.3 0 0 0-.7-.2Z" style="fill:#e0e0e0"/><path d="m375.9 179.1 12.3-7-35.9-21-12.4 7 36 21z" style="fill:#e0e0e0"/><path d="m339.9 158.1.4.3 12-6.8 35.5 20.8.4-.3-35.9-21-12.4 7z" style="fill:#e0e0e0"/><path d="m339.9 158.1.4.3 12-6.8 35.5 20.8.4-.3-35.9-21-12.4 7z" style="opacity:.1" fill="#000000"/><path d="m382 159.4-.2.1-6.1 3.5-10.7-6.3-.2-.1 6.3-3.6 10.9 6.4z" style="fill:#e0e0e0"/><path d="m382 159.4-.2.1-6.1 3.5-10.7-6.3-.2-.1 6.3-3.6 10.9 6.4z" style="opacity:.1" fill="#000000"/><path d="m381.8 159.5-6.1 3.5-10.7-6.3 6.1-3.4 10.7 6.2z" style="fill:#e0e0e0"/><path d="M427.2 135c-2.4-9.7-4.8-18.9-7.2-26.2-1.3-4-2-9.5-10.5-12.4-5.4 4.1-3.4 15.4-2.5 18.3l5.7 22.1s-1.5 1.9-6.6 6.9c-4.4 4.3-6.5 5.8-11.4 6.6s-5.5.5-8 1.7l-5.6 2.7c-1 .5-2.9 2.7-4.6 4s.5 2.1 1.8 1.7a16.6 16.6 0 0 0 3.8-2 21.9 21.9 0 0 1 3.3-1.5 19.6 19.6 0 0 0-.5 4c0 .7-.1 1.6.5 2a5.5 5.5 0 0 0 1.5.6 1 1 0 0 0 .4.7 1.9 1.9 0 0 0 1.3.3 5.4 5.4 0 0 0 .7-.2 1.3 1.3 0 0 0 .8 1 5.7 5.7 0 0 0 3 0l1.7-.9c.3-.2.9-.4 1-.7s-.4-1.2-1-1.3a6 6 0 0 0-2 .2 7.3 7.3 0 0 0 .6-1.7c.5-.9 4.3-.2 7.7-.9 2.6-.5 4.4-3 5.5-3.6a149.1 149.1 0 0 0 15.1-10.4c6.6-5 6.8-5.9 5.5-11Z" style="fill:#c8856a"/><path d="m384.8 157.1.7-.2a8.7 8.7 0 0 1 1-2.2c-.8.3-1.3 1.4-1.7 2.4Zm2.7 0a9.4 9.4 0 0 0-.5 2.2 16.4 16.4 0 0 0-.2 2 8 8 0 0 0 .2 2.2 18 18 0 0 1 .1-2.1l.3-2a13.7 13.7 0 0 1 .4-2 5.6 5.6 0 0 1 .4-1 2.8 2.8 0 0 1 .5-1 3.9 3.9 0 0 0-1.2 1.8Zm2 3a18.2 18.2 0 0 0-.3 2.2 9.7 9.7 0 0 0 .1 2 46 46 0 0 1 1-6l.2-1a2.6 2.6 0 0 1 .4-1 4 4 0 0 0-1 1.9 14.2 14.2 0 0 0-.4 2Zm4.3 2.2a2.4 2.4 0 0 0-.8.2h-.1v.2a1 1 0 0 1 0 .3.9.9 0 0 1-.1.2 3.6 3.6 0 0 1-.3.6 1.2 1.2 0 0 0 .7-.7 1 1 0 0 0 0-.3 4.8 4.8 0 0 1 .7-.3 3.2 3.2 0 0 1 .8-.1 1.8 1.8 0 0 0-.9-.1Z" style="fill:#af6152"/><path d="M409.3 95.7c4.4 1.7 8 3 10 9.2 2.5 7.7 5.6 19.3 5.6 19.3s-1.3 3-6.8 4.4-8 0-8 0l-3.9-13.7c-1-4-3-15.7 3-19.2Z" style="fill:#37474f"/><path d="M375 181.4a2.6 2.6 0 0 1-2.3-.2l-38.2-22.4a2.6 2.6 0 0 1-1.3-1.8l-4-25a2 2 0 0 1 0-.5 2.6 2.6 0 0 1 .8-1.9l39.7 23.3a2 2 0 0 1 1 1.3Z" style="fill:#263238"/><path d="m375.6 181-.2.2a3 3 0 0 1-.4.2l-4.4-27.2a2 2 0 0 0-1-1.3L330 129.7a2.7 2.7 0 0 1 .6-.4l39.8 23.2a2 2 0 0 1 1 1.4Z" style="fill:#455a64"/><path d="m370.3 153.4.6-.3a2 2 0 0 1 .3.8l4.4 27.2-.2.1a3 3 0 0 1-.4.2l-4.4-27.2a1.9 1.9 0 0 0-.4-.8Z" style="fill:#37474f"/><path d="M353.5 158.1a8.4 8.4 0 0 0-3.8-5c-1.9-1-3.1-.6-2.9 1.1a8.5 8.5 0 0 0 3.9 5c1.8 1.1 3.1.6 2.8-1Z" style="fill:#fa5951"/><path d="M353.7 131c-1-1.3-2.5-4.5-1.5-9.7.7-3.5 3.8-6.3 7.2-10.2 4.3-4.8 7-6.8 6.8-11.5 0-3.7-.3-4.1.7-6.5l2.4-5.3c.5-1 2.3-2.9 3.5-4.5s2 .3 1.6 1.6a16 16 0 0 1-1.7 3.6 20.4 20.4 0 0 0-1.2 3.2 19.3 19.3 0 0 1 3.6-.7c.7 0 1.5-.1 2 .4a5 5 0 0 1 .6 1.4 1 1 0 0 1 .7.3 1.8 1.8 0 0 1 .3 1.2 6.3 6.3 0 0 1-.1.7 1.3 1.3 0 0 1 1 .7 5.3 5.3 0 0 1 .1 2.9l-.8 1.5a3 3 0 0 1-.6 1c-.4.3-1.2-.3-1.3-1a5.7 5.7 0 0 1 .1-1.7 6.6 6.6 0 0 1-1.5.5c-.8.5.3 1.7-.2 4.9-.4 2.4-2.5 4-3 5-3.7 6.3-4.5 12.7-8.7 17.9-1.8 2-8 6.9-10 4.4Z" style="fill:#c8856a"/><path d="M369.4 92.7a8.5 8.5 0 0 1 2-1l.3-.6c-1 .4-2 .9-2.3 1.6Zm.9 2.1a3 3 0 0 1 .8-.6 7 7 0 0 1 .9-.3 14.3 14.3 0 0 1 1.8-.5l2-.3a17.7 17.7 0 0 1 2-.3 7.7 7.7 0 0 0-2 0 18.5 18.5 0 0 0-2 .3 8.7 8.7 0 0 0-2 .6 3.6 3.6 0 0 0-1.5 1.1Zm2.5 1a3.6 3.6 0 0 0-1.6 1 2.2 2.2 0 0 1 .8-.4 8.8 8.8 0 0 1 1-.3 36 36 0 0 1 5.6-1.2 9 9 0 0 0-2 0 17.4 17.4 0 0 0-1.9.3 13.7 13.7 0 0 0-1.9.6Zm4.2 4.4a3.4 3.4 0 0 1 0-.8 4.4 4.4 0 0 1 .3-.7.6.6 0 0 0 .2 0 1.1 1.1 0 0 0 .4-.2 1.2 1.2 0 0 0 .3-.5 2.9 2.9 0 0 1-.5.3 1.2 1.2 0 0 1-.2.1.6.6 0 0 1-.3 0h-.1v.2a2.5 2.5 0 0 0-.2.7 1.7 1.7 0 0 0 .1 1Z" style="fill:#af6152"/><path d="M394.8 348.7c-.9 2.3-4.8 1.9-9 2-3.5.1-7.5-.5-9.7.6s-2.6 3.8 1 6.8c4.5 3.8 10.5 3.4 13.8 3.7s5.4 1.5 8.4 1.4c4-.1 6.2-1.4 6.8-2.6s-.1-9.5-1.8-9.1c0 0 .2-.3-5.6-.5-4-.1-4-2.3-4-2.3Z" style="fill:#263238"/><path d="m404.3 352 1-8s-.1-.6-4.8-.8c-2.3 0-5-2-5.2-.1l-.5 5.6c-.8 2.3-4.8 1.9-9 2h-2.3c-2.2.2-4.3 2-1.7 3.5s6.6 1.8 10.3 1.9c4.3.1 12 .3 12.2-4.1Z" style="fill:#ffa8a7"/><path d="M393.6 299c-.3 8.4.8 48.5.8 48.5s4 2 10.7-.4l4.3-43.4Z" style="fill:#37474f"/><path d="M374.4 358.7c-.7 2.3-6.9 3.3-11.1 3.6-3.4.2-7.4-.3-9.6.9s-2.5 3.9 1.3 6.8c4.6 3.6 12.7 1.7 16 1.9s5.3.9 8 .9c4 0 5.3-1.5 5.8-2.6s1-9.6-.7-9c0 0 .2-.3-5.6-.3-4 0-4-2.2-4-2.2Z" style="fill:#263238"/><path d="m384 361.6 3.2-12.4a9.4 9.4 0 0 1-7.3 3.8c-2.3 0-5-1.8-5.2 0s-.2 3.5-.4 5.2-5.3 3.3-10 3.8l-3.2.3c-2.6.2-5.2 2.3-2.5 3.8s9.7 0 13.3 0c4.5 0 12.2-.1 12.2-4.5Z" style="fill:#ffa8a7"/><path d="M376.6 314.3c-1 8.8-2 33.7-2.2 40.7 0 0 5.9 2.4 11.4.7 0 0 7.7-25 7.1-34.4-.3-4.5-16.3-7-16.3-7Z" style="fill:#455a64"/><path d="m468.2 385.4-6.3-52.8-5.2-.3 9 53.1a.7.7 0 0 0 .3.5 2 2 0 0 0 1.8 0 .6.6 0 0 0 .4-.5Z" style="fill:#263238"/><path d="M397.3 327.8h-5.2l-7.5 49.9a.6.6 0 0 0 .4.5 2 2 0 0 0 1.8 0 .7.7 0 0 0 .4-.4Z" style="fill:#37474f"/><path d="m392.1 327.8-2.1 14a20.7 20.7 0 0 0 4 2.3l3.3-16.3Z" style="fill:#263238"/><path d="m433.6 403.1-4.9-53.7-5.1-.3 7.4 54a.7.7 0 0 0 .3.5 2 2 0 0 0 1.9.1.6.6 0 0 0 .4-.6Z" style="fill:#37474f"/><path d="m429.4 357.3-.7-7.9-5.1-.3 1.1 8.5a9.3 9.3 0 0 0 4.8-.4ZM425.6 311.3h-5.2l-7.5 50a.6.6 0 0 0 .3.5 2 2 0 0 0 1.9 0 .7.7 0 0 0 .4-.4Z" style="fill:#263238"/><path d="M389 326.8c-.8-4.1 2.5-7.3 8.8-11.6a147.1 147.1 0 0 1 18.2-10.1c5.2-2.5 10.6-2.2 17.3 1.2 9.3 4.8 37.4 21.8 37.4 21.8s-42 23.7-50 22.6-28.3-14.1-29.9-18.8-1.9-5.1-1.9-5.1Z" style="fill:#fa5951"/><g style="opacity:.6000000000000001"><path d="M389 326.8c-.8-4.1 2.5-7.3 8.8-11.6a147.1 147.1 0 0 1 18.2-10.1c5.2-2.5 10.6-2.2 17.3 1.2 9.3 4.8 37.4 21.8 37.4 21.8s-42 23.7-50 22.6-28.3-14.1-29.9-18.8-1.9-5.1-1.9-5.1Z" style="fill:#fff"/></g><path d="M424.7 345.8c-6 5.4-12.3.7-22.3-5.8-11.2-7.3-13.5-13.2-13.5-13.2s0 4.4.9 6.5 2.6 4.5 10.8 10.1 14 8.4 19.4 9.5l4.3-.6" style="fill:#fa5951"/><path d="M402.4 340c-11.2-7.3-13.5-13.2-13.5-13.2s0 4.4.9 6.5 2.6 4.5 10.8 10.1 14 8.4 19.4 9.5l4.3-.6.4-6.6c-6 5.5-12.3.8-22.3-5.6Z" style="fill:#fff;opacity:.25"/><path d="M457.8 309.6s-35.2-10.6-41.3-12.3-17.9-4.5-21.3-3-5.2 3.3-5.5 8.3v5.4s17 5.3 31 5.3 37.1-3.7 37.1-3.7Z" style="fill:#37474f"/><path d="M460.3 306c2.2 7.6 3.4 16.8-1.9 22.2-3.8 4-13.6 13.1-34.6 12.2-9.6-.4-36.3-19-36.3-19s-10-1.6-10-5c0-1-1-1.2-.9-2 1.5-7.8 6.3-11.6 13-11 11.3.9 36.5 8 36.5 8Z" style="fill:#455a64"/><path d="m419.6 245.5 3.5 15.3 12.9-2.7-4.5-16.9-11.9 4.3zM438.2 248.8c2-.6 6.7-.9 9.2.6s5 4.5 7.2 12c1.7 6 5.6 21.7 5 26.7s-18.9 8.4-18.9 8.4Z" style="fill:#ffa8a7"/><path d="M457.2 295.3a52.4 52.4 0 0 1-5.5-12.9c-1.7-10.9 2.1-15.7-2-26.2-1.9-4.8-7.8-8.4-12.8-7.1l-3.1.6c.9 2.5-8.4 5.2-12.6 2.9-1.8.5-10.4 4.4-10.4 4.4a44.4 44.4 0 0 0-3.8 15.6c-.4 3.2 1 6.7 2.7 9.8A42.4 42.4 0 0 1 415 309l-.1.8s7.8 8.7 27 5.3c17-3.2 17.6-14.6 17.6-14.6a51.8 51.8 0 0 0-2.3-5.2Z" style="fill:#f0f0f0"/><path d="M398 295.4c.6-6.4 2-14.7 3.3-24.2 1.2-9.2 3.4-11.7 9.4-14.2 8.7 5.3 5.7 22.6 5.7 22.6s-2 11.3-4.4 20.1c-1 4-3.2 10.4-9.2 9.8-4.7-.5-5.5-6.9-4.8-14Z" style="fill:#ffa8a7"/><path d="M409.5 230.6s-3 4.9-2.7 5.3 2.7.8 2.7.8Z" style="fill:#f28f8f"/><path d="M417.5 216.5c-2.7 1.6-7.4 4.5-8 14.7-.7 10.6.8 14.2 2.3 15.5 1 .8 8 1 9.9.4 3.2-1 9.7-5.6 12.7-11.1 3.5-6.6 3.8-15.1-.8-18.2a16.8 16.8 0 0 0-16.1-1.3Z" style="fill:#ffa8a7"/><path d="M426.5 247.2a9.6 9.6 0 0 1-4-2 14 14 0 0 1-3.1-7s1.8 1.3 4.2-1 2.5-6.7-.8-7.6c-2.3-.7-4 1.2-4.9 3-.1.3-.3.6-.6.7-.5.1-1-.4-1.1-1a4.5 4.5 0 0 0-.8-1.5 4.3 4.3 0 0 1-1.3-2.7 10 10 0 0 1 .2-2.6 8.8 8.8 0 0 0-2.4 3.4 5.5 5.5 0 0 1 0-5 9.6 9.6 0 0 0-2.2 4.5 5 5 0 0 1-1.6-3.2 10.8 10.8 0 0 1 3-8.7 18.7 18.7 0 0 1 8.1-4.8 25 25 0 0 1 9.2-1c6.5.3 10 3.5 11 4.7a9.6 9.6 0 0 1 1.7 4.4c4 2 4 7 3.1 10.7-.7 3.3-3 6.3-5 8.8l-3.4 4a16.3 16.3 0 0 0-1.5 2l-1 2.2a20.2 20.2 0 0 1-6.8-.3Z" style="fill:#37474f"/><path d="m420 247.5-.4-1.6a13.5 13.5 0 0 1-4.2.7c-3 .1-4-.4-4-.4a3.2 3.2 0 0 0 .4.5c.9.7 5.5 1 8.2.8Z" style="fill:#f28f8f"/><path d="M424.4 352.3c3.4-.2 6-2.7 14.2-6.1 15-6.3 26.4-11.3 30.6-19.2s7.4-43.2 6.3-53a13 13 0 0 0-.7-3.4l1-.1-2.7-2.3c-2.8-2.3-7.4-.3-10.8 1.6-9.9 5.4-17.6 10.6-23.7 29.4-4.6 14.1-7.6 39.6-14 46.5" style="fill:#fa5951"/><path d="m474.8 270.7 1-.2-2.7-2.3c-2.8-2.3-7.4-.3-10.8 1.6-9.9 5.4-17.6 10.6-23.7 29.4-4.6 14.1-7.6 39.7-14 46.6l-.3 6.5c3.5-.2 6.2-2.7 14.3-6.1 15-6.3 26.4-11.3 30.6-19.2s7.4-43.2 6.3-53a13 13 0 0 0-.7-3.3Z" style="fill:#fff;opacity:.25"/><path d="M464.9 271a42.7 42.7 0 0 0-24.4 30.6c-5.1 19-8.5 48-20.5 51.3 0 0 5.5 2.1 22.1-5 5.3-2.1 11.7-6.2 16-8.6a52.6 52.6 0 0 0 14-9.9c4.4-7.8 7.3-43.2 6.3-53s-8.6-8-13.5-5.3Z" style="fill:#fa5951"/><g style="opacity:.4"><path d="M464.9 271a42.7 42.7 0 0 0-24.4 30.6c-5.1 19-8.5 48-20.5 51.3 0 0 5.5 2.1 22.1-5 5.3-2.1 11.7-6.2 16-8.6a52.6 52.6 0 0 0 14-9.9c4.4-7.8 7.3-43.2 6.3-53s-8.6-8-13.5-5.3Z" style="fill:#fff"/></g><path d="m316.5 395.8 2-7s-.7.6-4.7-.4a22.5 22.5 0 0 1-4.3-1.8l-1 5c-1.1 2-4.6 1-8.5.6l-2-.3c-2-.1-4 1.1-2 2.9s5.7 2.4 9 3c4 .8 10.8 1.9 11.5-2Z" style="fill:#ffbda7"/><path d="M289 395.2a4.1 4.1 0 0 0-.2 2.1c0 .8 2 3.4 5.3 5s7.4 1.6 9.3 2.2 3.7 1.6 6 2.2 4.6.8 6.8-.7a5 5 0 0 0 .8-2.2c-.4-.4-28-8.6-28-8.6Z" style="fill:#263238"/><path d="M307.8 392.3c-1.5 1-4.5.3-7.8 0-3-.4-6.5-1.5-8.6-.8s-3.9 3.2-1 6.4a12.3 12.3 0 0 0 4 3c3.5 1.3 6.6 1.4 9 2 3 .6 4.5 2 7.2 2.3 3.5.4 5.8-.5 6.4-1.5s1.2-8.5-.3-8.4c0 0-.7 2.5-6.4.1-2.6-1-2.6-2.5-2.5-3.1Z" style="fill:#37474f"/><path d="M298 396.4s.3-3.2 2.7-4a1.3 1.3 0 0 1 1.3 0s-2.2.4-3 4.2c0 0 0 .2-.5.1-.1 0-.5 0-.5-.3ZM304 392.7l-.5-.2a1 1 0 0 0-.7.1s-1.7.8-2 4.1a.6.6 0 0 0 .5.5.5.5 0 0 0 .6-.3s.4-3.5 2.2-4.2ZM306 392.8s-.1-.2-.5-.2-.7.2-.7.2a6 6 0 0 0-1.2 4.1s0 .5.6.5.5-.5.5-.5.2-3.5 1.3-4Z" style="fill:#fafafa"/><path d="m317.4 350.7-9 37.2s5 4.5 10.4 2.5c5.8-15.3 16.1-25.7 16-36.8Z" style="fill:#fa5951"/><path d="m317.4 350.7-9 37.2s5 4.5 10.4 2.5c5.8-15.3 16.1-25.7 16-36.8Z" style="opacity:.4" fill="#000000"/><path d="M296.7 405.5c.6-1 2.8-7 2.8-7s-2.3 1.3-6.3.3a9.3 9.3 0 0 1-4-2.6l-1.6 5.8c-1 2-4.3 1.3-8.1 1a42 42 0 0 1-2-.2c-2-.1-4.1 1.2-2 2.9s5.8 2.3 9 2.8c4 .6 10 .3 12.2-3Z" style="fill:#ffbda7"/><path d="M267 405.3a4.4 4.4 0 0 0-.3 2.2c0 .9 2.2 3.6 5.8 5.2s8 1.6 10.1 2.2 4 1.6 6.5 2.2 4.8.8 7.2-.9a5.6 5.6 0 0 0 .8-2.5c-.4-.4-30.2-8.4-30.2-8.4Z" style="fill:#263238"/><path d="M287 401.6a6.7 6.7 0 0 1-.7.5 2.4 2.4 0 0 1-.8.1 11.3 11.3 0 0 1-2 0c-1.6 0-3.2-.3-4.8-.4-3.3-.3-7-1.4-9.3-.6s-4.3 3.6-1.2 6.9a15.2 15.2 0 0 0 4.2 3.2c3.7 1.5 7.6 1.2 10 1.8 3.2.7 5 2 8 2.3 3.7.3 6-.7 6.7-1.7.4-.6 0-3.6.5-5.9.4-2 .3-3.4-.5-3.3a3.4 3.4 0 0 1-.5.8 2.7 2.7 0 0 1-.9.6 7.8 7.8 0 0 1-1.4.5 8.5 8.5 0 0 1-2.6.4 1.3 1.3 0 0 1-.7-.3 1.5 1.5 0 0 1-.5-.9c0-.3 0-.5-.2-.8a1.3 1.3 0 0 0-.1-.5 1.3 1.3 0 0 0-.5-.4 3.8 3.8 0 0 1-1.4-1 3.4 3.4 0 0 1-.4-1.4l-.1-.3-.4.1Z" style="fill:#37474f"/><path d="M276.6 406.3s.3-3.5 2.8-4.4a1.3 1.3 0 0 1 1.4.1s-2.4.4-3 4.5c0 0-.1.3-.6.2-.2 0-.6-.1-.6-.4ZM283 402.2s0 0-.6-.2a1 1 0 0 0-.7.1s-1.9.9-2.1 4.5a.7.7 0 0 0 .5.6.5.5 0 0 0 .7-.4s.3-3.8 2.2-4.6ZM285 402.3s-.1-.3-.6-.2l-.6.2a6.6 6.6 0 0 0-1.3 4.4s0 .6.7.6.6-.6.6-.6.1-3.8 1.2-4.4Z" style="fill:#fafafa"/><path d="M298.6 359.6c-2.3 7-8 27-10.7 37.2 0 0 4.8 4.2 10.9 3.9 3.2-7.7 18-28.9 16.3-38-1.2-5.7-7.4-4-7.4-4Z" style="fill:#fa5951"/><path d="M298.6 359.6c-2.3 7-8 27-10.7 37.2 0 0 4.8 4.2 10.9 3.9 3.2-7.7 18-28.9 16.3-38-1.2-5.7-7.4-4-7.4-4Z" style="opacity:.30000000000000004" fill="#000000"/><path d="M313.8 371.1c-2-1.5-6.9-4.5-7.4-6 0 0 .7 4.8 6.7 8.1Z" style="opacity:.30000000000000004" fill="#000000"/><path d="m391.6 430.1-6.3-52.8-5.2-.3 8.9 53.1a.7.7 0 0 0 .3.5 2 2 0 0 0 1.9 0 .6.6 0 0 0 .4-.5Z" style="fill:#263238"/><path d="M320.7 372.5h-5.2l-7.5 49.9a.7.7 0 0 0 .4.6 2 2 0 0 0 1.8 0 .8.8 0 0 0 .4-.5Z" style="fill:#37474f"/><path d="m315.5 372.5-2.1 14a20.3 20.3 0 0 0 4 2.4l3.3-16.4Z" style="fill:#263238"/><path d="m357 447.8-4.9-53.7-5.1-.3 7.4 54a.7.7 0 0 0 .3.5 2 2 0 0 0 1.9.1.6.6 0 0 0 .4-.6Z" style="fill:#37474f"/><path d="m352.8 402-.7-7.9-5.2-.2 1.2 8.5a9.5 9.5 0 0 0 4.7-.4ZM349 356h-5.2l-7.6 50a.7.7 0 0 0 .4.6 2 2 0 0 0 1.9 0 .8.8 0 0 0 .4-.5Z" style="fill:#263238"/><path d="M312.3 371.5c-.7-4.1 2.6-7.3 8.9-11.5a148.6 148.6 0 0 1 18.1-10.2c5.3-2.5 10.6-2.2 17.3 1.2 9.4 4.8 37.4 21.8 37.4 21.8s-42 23.7-50 22.6-28.2-14.1-29.8-18.8l-1.9-5.1Z" style="fill:#fa5951"/><g style="opacity:.6000000000000001"><path d="M312.3 371.5c-.7-4.1 2.6-7.3 8.9-11.5a148.6 148.6 0 0 1 18.1-10.2c5.3-2.5 10.6-2.2 17.3 1.2 9.4 4.8 37.4 21.8 37.4 21.8s-42 23.7-50 22.6-28.2-14.1-29.8-18.8l-1.9-5.1Z" style="fill:#fff"/></g><path d="M348 390.4c-6 5.5-12.2.8-22.2-5.6-11.3-7.4-13.5-13.3-13.5-13.3s0 4.4.9 6.5 2.6 4.5 10.7 10.1 14 8.4 19.5 9.5l4.3-.6" style="fill:#fa5951"/><path d="M325.8 384.8c-11.3-7.4-13.5-13.3-13.5-13.3s0 4.4.9 6.5 2.6 4.5 10.7 10.1 14 8.4 19.5 9.5l4.3-.6.4-6.6c-6.1 5.5-12.4.8-22.3-5.6Z" style="fill:#fff;opacity:.25"/><path d="M378.3 349.9c-7.8-.8-30-6.4-35.5-7.3-10.3-1.8-15.6-2-18.6-1.1s-5.5 4.3-6.4 7.8l-1.7 6.4s22.8 8 34.3 9.3 27.9-15.1 27.9-15.1Z" style="fill:#fa5951"/><path d="M378.3 349.9c-7.8-.8-30-6.4-35.5-7.3-10.3-1.8-15.6-2-18.6-1.1s-5.5 4.3-6.4 7.8l-1.7 6.4s22.8 8 34.3 9.3 27.9-15.1 27.9-15.1Z" style="opacity:.4" fill="#000000"/><path d="M378.3 349.9c.4 11 0 21.2-5.3 26.8-3.5 3.7-21.4 13.4-32.9 9.5-11.3-3.7-34.8-21.2-37.2-23s-4.5-3-4.3-3.7c3.2-10.5 7.8-11.3 16.4-9.4 10.5 2.3 33.6 11.7 33.6 11.7Z" style="fill:#fa5951"/><path d="M378.3 349.9c.4 11 0 21.2-5.3 26.8-3.5 3.7-21.4 13.4-32.9 9.5-11.3-3.7-34.8-21.2-37.2-23s-4.5-3-4.3-3.7c3.2-10.5 7.8-11.3 16.4-9.4 10.5 2.3 33.6 11.7 33.6 11.7Z" style="opacity:.30000000000000004" fill="#000000"/><path d="M375.3 299.8c6.1-1 11.7.7 13.3 7.2 1.2 4.9-5.7 19.6-9.3 28.4 0 0-13.7-.6-15-10.7Z" style="fill:#37474f"/><path d="M349.8 277.6s-4.6 5.6-4.3 6.1a13.5 13.5 0 0 0 3 1.7Z" style="fill:#f0997a"/><path d="M352.8 267.7c-2.5.8-3.3 2.9-3.8 6.9-.2 1.7.6 4.3 0 6-1.6 4.9-.6 13.2.8 14.8.8 1 6.6 2.8 9.4 2.3 3.5-.6 11.3-3 15.5-8 4.9-5.9 6.8-14.2 2.5-18.2-6-5.4-21.8-4.7-24.4-3.8Z" style="fill:#ffbda7"/><path d="m372.6 297.9-.2-4.5-14 2.4.3 3.1c.2 1.8.3 3.6-.9 4.3l-7.8 4.5s10.1 1.2 17.7 0 6.6-7.8 6.6-7.8c-.4 0-1.6.1-1.7-2Z" style="fill:#ffbda7"/><path d="M350 295.6a16.6 16.6 0 0 0 8.6 2.3l-.2-2a20.6 20.6 0 0 1-5 .4 10.7 10.7 0 0 1-3.4-.7Z" style="fill:#f0997a"/><path d="M348 268.6a3.5 3.5 0 0 0-.6 1.8 3 3 0 0 0 1.4 2.8 2.7 2.7 0 0 0 3.1-.2 3.4 3.4 0 0 0 .8 3.1 2.4 2.4 0 0 0 3.1.3c-.2.6-.5 1.4 0 1.8a1.1 1.1 0 0 0 .5.2 2.3 2.3 0 0 0 1.3 0 2.2 2.2 0 0 0-.5 1.8c0 .3 1.1 1.7 1.2 1.5 0 0 1.4-4 4.8-3s3.4 5.2 1 7.6-4.3 1.2-4.3 1.2c0 .7-.1 4.5 3 6.7 1.9 1.4 7 1.7 9.6 0l3.9-6c4.2-6.5 5.6-10.6 4.9-14.3-.5-2.5-1.7-4-3.6-4.4a7.7 7.7 0 0 0-3-6.5c-4-3.5-8.7-3.8-12.3-3.6a21.4 21.4 0 0 1-3.8 0c-1 0-2-.5-3.1-.7a3.3 3.3 0 0 0-3 .7 3.5 3.5 0 0 0-.5 3.3 5.3 5.3 0 0 0-2.5.7 3 3 0 0 0-1.5 2 2 2 0 0 0 1.2 2.2 4 4 0 0 0-1 1Z" style="fill:#263238"/><path d="M382.7 344 381 352l-2 10.6a2 2 0 0 1-.4.8 2 2 0 0 1-.7.5 68.1 68.1 0 0 1-11 4.4 48.3 48.3 0 0 1-12.7 1.2 28 28 0 0 1-18.8-8.9c1.4-3.1 2.3-4.3 3.2-7.7 1-3.7 1.4-5.7 2-12.4 2-19.1 4.5-30.4 9.4-34.1 4.7-2.1 5.3-2.5 7.7-3.3 1.1.5 4 1.4 8.5 1 5.6-.5 8-3.6 8-4.4h1a17.5 17.5 0 0 1 4.1 1.6c1.4.8 4.8 2.1 6 8.5 3 13.8-1.1 26-2.7 34Z" style="fill:#f0f0f0"/><path d="M375.3 300.1a18 18 0 0 1 4 1.7l.3.2c1.5.7 4.4 2.2 5.6 8 2.3 11.3-.1 21.6-1.9 29.2l-1 4.7-.3 1.6-1.2 6.6-2 10.3v.3a1.7 1.7 0 0 1-.3.6 1.5 1.5 0 0 1-.6.4 67.3 67.3 0 0 1-10.9 4.4 49 49 0 0 1-11 1.2h-1.7c-7.3-.7-12.5-3-18.3-8.7l1-2a31 31 0 0 0 2-5.5c1-3.7 1.5-5.6 2.2-12.5 1.8-17.5 4-30 9-33.8l2.6-1.1a56 56 0 0 1 5-2 15.7 15.7 0 0 0 6.3 1l2.2-.1c5.3-.5 7.8-3.2 8.3-4.4h.7m0-.4h-1c0 .8-2.3 4-8 4.4l-2.2.1a15.1 15.1 0 0 1-6.3-1.1c-2.4.8-3 1.2-7.7 3.3-5 3.7-7.3 15-9.3 34-.7 6.8-1 8.8-2.1 12.5-1 3.4-1.8 4.6-3.2 7.7a28 28 0 0 0 18.8 9h1.7a49.3 49.3 0 0 0 11-1.3 68.1 68.1 0 0 0 11-4.4 2 2 0 0 0 .7-.5 2.2 2.2 0 0 0 .3-.8c.8-3.6 1.5-7 2.1-10.6l1.6-8.2c1.6-8 5.6-20.2 2.8-34-1.3-6.4-4.7-7.7-6-8.5a17.5 17.5 0 0 0-4.2-1.7Z" style="fill:#e0e0e0"/><path d="M323.2 356.3c-5.7-1.9-8.2-8.1-10.2-15-.6-2-1.2-4.1-2-6.2s-1.8-4.2-2.6-6.4a29.7 29.7 0 0 1-1-3.6c-.7-2.8-.3-6-.1-8.9a15.7 15.7 0 0 1 .2-2.1 9 9 0 0 1 .8-2.3c.3-.6.9-1.2 1.5-1a1.3 1.3 0 0 1 .8.9 6.9 6.9 0 0 0 .4 1.1c1.2 2 3.1-.4 4-1.2.5-.4 1.6-1.5 2.4-1.1 1.7.8 5 7 5 10.3s-2.3 8.3-1.5 11.2 6.6 12.5 6.6 12.5Z" style="fill:#ffbda7"/><path d="m329.6 325.7-7.4-25.9a1.4 1.4 0 0 0-1.1-1 2.1 2.1 0 0 0-1.6 0l-12.4 7.3a1.3 1.3 0 0 0-.7 1.4l7.4 25.9a1.5 1.5 0 0 0 1 .8 2.3 2.3 0 0 0 1.7 0l12.4-7.2a1.1 1.1 0 0 0 .7-1.3Z" style="fill:#37474f"/><path d="m328.7 326-12.8 7.4-7.3-26-2.1-.7a1.1 1.1 0 0 0 0 .8l7.3 25.9a1.5 1.5 0 0 0 1 .9 2.3 2.3 0 0 0 1.7 0l12.4-7.2a1.3 1.3 0 0 0 .7-.8Z" style="fill:#263238"/><path d="m321.1 299.7-12.5 7.2a1 1 0 0 0-.4 1l7.3 25.7a.8.8 0 0 0 1.2.3l12.1-7a1 1 0 0 0 .5-1L322 300a.6.6 0 0 0-.9-.3Z" style="fill:#455a64"/><path d="m321.7 301.2 6.8 24a1 1 0 0 1-.5 1l-11.3 6.5a.6.6 0 0 1-.8-.2l-6.9-24.2a1 1 0 0 1 .3-.9l.2-.1 3.2-1.9h.2a.2.2 0 0 1 .2 0c0 .1.2.2.3 0l3.7-2a.3.3 0 0 0 .1-.4.3.3 0 0 1 .2-.3l3-1.8h.1a.7.7 0 0 1 1.2.3Z" fill="#000000"/><path d="M326.7 325.7a1 1 0 0 0 .5-1l-6.7-23.7-3 1.8a.3.3 0 0 0-.2.3.3.3 0 0 1-.1.3l-3.7 2.1h-.3a.2.2 0 0 0-.3-.1h-.2l-3.1 1.9h-.2v.1a1 1 0 0 0-.3 1l6.7 23.6Z" style="fill:#fafafa"/><path d="m313.8 304.5 1.7-1h.2a.3.3 0 0 1-.1.3l-1.7 1h-.2a.3.3 0 0 1 0-.3ZM316.3 303a.2.2 0 0 1 .3 0 .3.3 0 0 1-.2.3c0 .1-.2 0-.2 0a.3.3 0 0 1 .1-.4Z" style="fill:#263238"/><path d="M308.6 310.5a.8.8 0 0 0-.5-.5.4.4 0 0 0-.3 0l-.2.2q-.1 0 0 .2l.5 2a.8.8 0 0 0 .6.6.3.3 0 0 0 .2 0l.3-.2v-.2Z" style="fill:#455a64"/><path d="m308.4 310.6.6 2.2c0 .1-.1.2-.3.2a.8.8 0 0 1-.6-.5l-.6-2.1c0-.2.1-.3.4-.2a.8.8 0 0 1 .5.4Z" style="fill:#37474f"/><path d="M309.7 314.2a.8.8 0 0 0-.5-.5.3.3 0 0 0-.3 0l-.3.2a.2.2 0 0 0 0 .2l.6 2a.9.9 0 0 0 .5.5.3.3 0 0 0 .3 0l.2-.1a.2.2 0 0 0 0-.2Z" style="fill:#455a64"/><path d="m309.4 314.3.6 2.1c0 .2 0 .3-.3.3a.9.9 0 0 1-.5-.5l-.6-2.1c0-.2 0-.3.3-.2a.9.9 0 0 1 .5.4Z" style="fill:#37474f"/><path d="m310.3 323.2.8-1.3a59.8 59.8 0 0 1 3.7-5c1.4-1.7 2 0 2.2 1.5.2 3-2.2 5.3-2.6 8.3-.2.8-.2 1.6-.2 2.3a27 27 0 0 1-1.5 4.9c-.1.5-.4 1-1 1s-.8-.8-1-1.2a14.8 14.8 0 0 1-1-3 12.4 12.4 0 0 1-.7-4 7.9 7.9 0 0 1 1.3-3.5Z" style="fill:#ffbda7"/><path d="M323.4 339.4c2.9-5.3 8-13.4 13.2-21.9 5-8.3 7.5-8.7 13.5-11.1C359 317 347 336 347 336s-9.8 12.2-14.1 17c-2.8 3.1-8 5.8-11.2 2.2s-1.2-10.5 1.7-15.8Z" style="fill:#263238"/><path d="M347.7 397c3.5-.2 6.1-2.7 14.3-6 15-6.4 26.3-11.4 30.6-19.3s7.4-43.2 6.3-53a13 13 0 0 0-.7-3.3l1-.2-2.7-2.3c-2.8-2.3-7.4-.2-10.9 1.6-9.8 5.4-17.5 10.6-23.6 29.4-4.6 14.2-7.6 39.7-14 46.6" style="fill:#fa5951"/><path d="m398.2 315.4 1-.2-2.7-2.3c-2.8-2.3-7.4-.3-10.9 1.6-9.8 5.4-17.5 10.6-23.6 29.4-4.6 14.1-7.6 39.6-14 46.5l-.3 6.6c3.5-.2 6.1-2.7 14.3-6.1 15-6.3 26.3-11.3 30.6-19.2s7.4-43.2 6.3-53a13 13 0 0 0-.7-3.3Z" style="fill:#fff;opacity:.25"/><path d="M388.3 315.8a42.7 42.7 0 0 0-24.4 30.5c-5.1 19-8.5 48-20.5 51.3 0 0 5.4 2.1 22-4.9 5.4-2.2 11.8-6.3 16-8.7a52.6 52.6 0 0 0 14-9.9c4.5-7.8 7.4-43.2 6.4-53s-8.6-8-13.6-5.3Z" style="fill:#fa5951"/><g style="opacity:.4"><path d="M388.3 315.8a42.7 42.7 0 0 0-24.4 30.5c-5.1 19-8.5 48-20.5 51.3 0 0 5.4 2.1 22-4.9 5.4-2.2 11.8-6.3 16-8.7a52.6 52.6 0 0 0 14-9.9c4.5-7.8 7.4-43.2 6.4-53s-8.6-8-13.6-5.3Z" style="fill:#fff"/></g><path d="m128.1 280-21.3 12.3-2.3 1.3-30 17.4c.9-11 3-36.6 5-58.7l48.1-.3c.3 8.5.5 18.3.5 28Z" style="fill:#263238"/><path d="M119.3 270.7c-.2.4-3 7.4-10.3 9.1l-2.2 12.5-2.3 1.3 2-15.5a24.2 24.2 0 0 0 12.8-7.4Z" fill="#000000"/><path d="M117.6 192.1c5.1.7 6.3 1 16.3 7 8.2 5 14.2 8.4 14.2 8.4s6.8 6.8 7.5 8.5.1 6.4-2.9 9.3c-2.5 2.4-4 1.6-6.2.9-2.6-1-20.6-8.9-20.6-8.9Z" style="fill:#37474f"/><path d="M178.4 183.2c-1.1-.8-1.4.3-1.9.4 0 0 1.4-1.3-.6-2.7-1.3-1-2 .9-2 .6s1.8-3.7 3.3-6.7c1.5-3 .5-3.9 0-4.1s-1-.1-2.2 2l-6 9.6c-.8 1.3-1.4 2-1.7.1a10 10 0 0 0-1.5-4.3c-1.5-1.8-2.8-1.2-2.7.1.3 1.9 0 4 .1 7v4.1c.3 3.8-2 5.4-4.8 8.1-2.3 2.2-6.3 5.3-11.2 10-3.2 3-4.2 13-.2 16.6s6.4.7 12-6.5c3.6-4.6 8.7-13.3 10-15.3s2-3.2 3.7-4.1a12.1 12.1 0 0 0 4.8-4.7c.7-1 2-2.9 2.8-4.4s1-2.6.2-3.3c-1.1-1-1.6.3-1.7.1s1.3-1.4-.4-2.6Z" style="fill:#ffa8a7"/><path d="M176.2 191c-.4-.7 0-1.8 0-1.8a2.1 2.1 0 0 1-1 .8 1.5 1.5 0 0 1-1.6-1 2.2 2.2 0 0 1 .3-1.3 2.5 2.5 0 0 1-1 .5c-.8.1-1.3-.4-1.5-1.2s.9-2.8 2-4.5a9.3 9.3 0 0 0-1.7 2 5 5 0 0 0-1 2.4 5.1 5.1 0 0 0-1.8-1.8c1.5 1.8 2.4 6.4 1.5 9.3a6.6 6.6 0 0 0 1-5.8 1.3 1.3 0 0 0 1.6 0 1.6 1.6 0 0 0 .8 1.7 1.6 1.6 0 0 0 1.7.1s-.2.7.6 1.2 1.6.1 2.2-.7a1.4 1.4 0 0 1-2.1 0Z" style="fill:#f28f8f"/><path d="M82.3 196.4a26 26 0 0 0-4.5 18c1 9.4 1.8 15.5 2 19.1.2 5.6-1.2 28.1-1.2 28.1 7 8.4 41.7 9.1 49.4-6.3 0 0-.4-12.2-.4-24.7 0-9.2.1-17.6-1-23-1.5-7.3-5.4-13.7-8.9-15.5l-8.6-.5-11-.5Z" style="fill:#455a64"/><path d="M95 186.6c-.7-3.6-4.4-7.3-6.1-10.4s-2.6-5.3-2.5-8.1a6.2 6.2 0 0 1 1.9-4.7c-.3-6.1 5.9-9.7 10-10.8a28.5 28.5 0 0 1 13.2-.5c2.3.4 4.4 1.3 6.3-.8a3.8 3.8 0 0 1-.7 4.6 5.3 5.3 0 0 1 2.5 1 2.5 2.5 0 0 1 1.3 2.2 3.4 3.4 0 0 1-1 1.6 2.3 2.3 0 0 1 1.3 2.8 3.3 3.3 0 0 1-1.1 1.7l-1 .5-.4.7c-.2.2-.1.6-.1.8a4.1 4.1 0 0 1-.6 1.6 5.8 5.8 0 0 1-2 2c-2.6 1.3-5.6 1.8-8.4 2.4l-3.4.9c-.2 0-1.2 0-1.4.3Z" style="fill:#263238"/><path d="M90.6 182a3.5 3.5 0 0 0 4.3-.2l-.7 10.9c2.2 4.8 8 2.8 14.8 11.2 0 0 2.1-3.5.4-10.5l.3-3.7a40.8 40.8 0 0 0 4.3-.3c3-.5 4.5-3.1 5.5-7.1a25.7 25.7 0 0 0 0-11 10.5 10.5 0 0 1-.2-3 14 14 0 0 0-1-6.3c-3.1-2.4-10.4-3-17 1.2 1 4-.5 7.2-3.4 8.8.2 1 .4 3.8-1.4 3.8-1.3 0-1.4-1.6-2.8-3s-4.4-1.7-5.5.4a6.9 6.9 0 0 0 2.4 8.9Z" style="fill:#ffa8a7"/><path d="m110.9 169.1 5.4 7.3-5 1.3-.4-8.6z" style="fill:#f28f8f"/><path d="m107.5 168-2.8 1.3a1.6 1.6 0 0 1 .7-2.1 1.5 1.5 0 0 1 2 .7ZM118 168.6l-2.7-1.5a1.5 1.5 0 0 1 2-.7 1.6 1.6 0 0 1 .8 2.2Z" style="fill:#263238"/><path d="M109.7 189.7c-4.5-.4-8-.8-10.5-4a28.3 28.3 0 0 1-2.8-5.2 21.9 21.9 0 0 0 2 6.6c1.2 2 4 3.8 11.1 4.2Z" style="fill:#f28f8f"/><path d="M107.9 171.7a1.3 1.3 0 1 1-1.4-1.2 1.3 1.3 0 0 1 1.4 1.2Z" style="fill:#263238"/><path d="m106.7 179.6 5 1.3a2.7 2.7 0 0 1-3.3 1.9 2.5 2.5 0 0 1-1.7-3.3Z" style="fill:#b16668"/><path d="M110 182.7a3 3 0 0 0-3.4-2.4 2.5 2.5 0 0 0 1.9 2.5 2.6 2.6 0 0 0 1.4 0Z" style="fill:#f28f8f"/><path d="M115.9 169.8a1.3 1.3 0 0 1 1.2 1.4 1.3 1.3 0 1 1-1.2-1.4" style="fill:#263238"/><path d="M108.1 209.2c.2 4.3-1.9 24.2-2 26.8s4.2 11 5 12.5 1.6 1.8 2.6-.3a36.7 36.7 0 0 0 2.8-12.2c0-4-3.8-22.3-5.2-27.3 0-1.4-3.2-1.2-3.2.5Z" style="fill:#fa5951"/><path d="M108.1 209.2c.2 4.3-1.9 24.2-2 26.8s4.2 11 5 12.5 1.6 1.8 2.6-.3a36.7 36.7 0 0 0 2.8-12.2c0-4-3.8-22.3-5.2-27.3 0-1.4-3.2-1.2-3.2.5Z" style="fill:#fff;opacity:.15"/><path d="M106.8 202a14 14 0 0 1-3.5-1.4l-1.8 3.4a18.6 18.6 0 0 0 4.2 1.8 1.8 1.8 0 0 0 1.2-1.3 4.4 4.4 0 0 0-.1-2.5Z" style="fill:#fa5951"/><path d="M106.8 202a14 14 0 0 1-3.5-1.4l-1.8 3.4a18.6 18.6 0 0 0 4.2 1.8 1.8 1.8 0 0 0 1.2-1.3 4.4 4.4 0 0 0-.1-2.5Z" style="opacity:.15" fill="#000000"/><path d="M112.3 198.9a5.8 5.8 0 0 1-1.9 2.4l1.4 3.7s2.4-1.5 2.8-3.5-2.3-2.6-2.3-2.6Z" style="fill:#fa5951"/><path d="M112.3 198.9a5.8 5.8 0 0 1-1.9 2.4l1.4 3.7s2.4-1.5 2.8-3.5-2.3-2.6-2.3-2.6Z" style="opacity:.15" fill="#000000"/><path d="M106.8 202c1.5.4 3.4 0 3.6-.7a5.3 5.3 0 0 1 1.8 4.1 6.5 6.5 0 0 1-.9 3.4s-1-.8-3.2.5a15 15 0 0 1-2.4-3.5s1.4-2 1-3.8Z" style="fill:#fa5951"/><path d="M107.8 202.1a4.7 4.7 0 0 1-1-.1c-1-1.2-1.8-1.9-2.2-1.5a27.8 27.8 0 0 0-2.9 4.9c-.5 1-.4 1-1.9 0a26.5 26.5 0 0 1-6.7-6.4 19.6 19.6 0 0 1-2.7-5.3s1.7-2.4 2.2-3.3c1-1.7 1-2.4 1.9-2.2v1.2c.2 1.5 2.3 2.8 4.4 4.6s5.5 3.6 6.3 4.3a45.6 45.6 0 0 1 2.6 3.8ZM115 202.8c-.2.6-2.2-4.1-3.1-4-.4 0-1 1.6-1.6 2.7a2 2 0 0 1-.9.4c.3-1.6.4-3.5.4-4.1a16.6 16.6 0 0 0-.4-4.4l.3-3.7h.9a15.4 15.4 0 0 1 1.3 1.6c1 1.6 2.6 4.3 3 6.2a16.3 16.3 0 0 1 .1 5.3ZM82.3 196.4c-6 2-10.4 4-12.7 9s-6 17.8-8.1 25.4c-1.8 6.6-2.9 12.6-1.3 15.5l17.2-6.8 6.1-18s4.2-18.3-1.2-25Z" style="fill:#37474f"/><path d="M76 230.6c-1.2 1.6-2.5 2.2-5.5 3.5-2.8 1.3-6 2.4-7.8 5.4.5-2.8 2-4.1 5.6-6s8.6-4 8.6-4Z" style="fill:#263238"/><path d="M76 230.6c-1.2 1.6-2.5 2.2-5.5 3.5-2.8 1.3-6.2 2.1-8.4 5-1.8 2.5-2.8 5.3-2 7.3.7 1.3 4 2.4 8.5 2 3.7-.4 6.2-3.2 10-5.7l5-3.6Z" style="fill:#ffa8a7"/><path d="M82.2 234.2c-1.4-1.3-1.7-2.7-3.8-3.8s-3.3-1-5.4-2-4-1.5-5.6-1-1.3 1.5 0 2.2 3.3 1.7 4.8 2.7 2.9 1.5 3 3.4a81.5 81.5 0 0 1-.4 8.7c-.3 3-.8 5.6-.6 6s1.6.3 2.4-1.4 1.6-8 1.6-8 .7 4.3 1 7.3l.6 5.9c.1.6 2.2 0 2.5-2.2a70.3 70.3 0 0 0-.4-9s1.9 3 3 5l3.2 5.2c.5.6 1.8-.5 1.4-2.3s-2.8-6.1-2.8-6.1 2.9 2.8 3.4 3 2 0 1.4-2c-.4-1.2-1.3-2-3.6-4.5s-2.3-3.6-3-4.7c-1-1.5-1.7-1.5-2.7-2.4Z" style="fill:#ffa8a7"/><path d="M67.4 227.4a3 3 0 0 0-.7.4.7.7 0 0 0-.3.8 2.4 2.4 0 0 0 1.3 1l3.1 1.6a32 32 0 0 1 3 2 3.3 3.3 0 0 1 1.6 3.1 75.7 75.7 0 0 1-.8 10.6l-.3 1.7a5.7 5.7 0 0 0-.1 1.8 5.5 5.5 0 0 1 0-1.8l.2-1.7a68.9 68.9 0 0 0 .5-10.5 3.4 3.4 0 0 0-.2-1.6 3.5 3.5 0 0 0-1.1-1.2l-1.5-1-1.5-1-3-1.7a2.6 2.6 0 0 1-1.3-1.2.8.8 0 0 1 .3-.9 3 3 0 0 1 .8-.4ZM76.7 235.4c2.2.9 4.4-.2 4.7-.7-.1 1.5-3.2 2.5-4.7.7ZM91.6 247a1 1 0 0 1-1.4 0l-2.7-2.7-2.9-3.2 2.1 3.6s2.9 2.9 3.4 3.1a1 1 0 0 0 1.5-.8Z" style="fill:#f28f8f"/></svg>