<svg xmlns="http://www.w3.org/2000/svg" viewBox="0 0 500 500"><g id="freepik--background-simple--inject-115"><path d="M208.87,454.86s77.87,14.07,142.35-39.53S437.28,273,456.66,201.5,446.13,65.57,385.8,43.9,296.21,73.74,219.63,88.69,120.38,96,64.27,150.31,15,309.83,78.9,377.92,208.87,454.86,208.87,454.86Z" style="fill:#7376F3"></path><path d="M208.87,454.86s77.87,14.07,142.35-39.53S437.28,273,456.66,201.5,446.13,65.57,385.8,43.9,296.21,73.74,219.63,88.69,120.38,96,64.27,150.31,15,309.83,78.9,377.92,208.87,454.86,208.87,454.86Z" style="fill:#fff;opacity:0.8"></path></g><g id="freepik--Balance--inject-115"><path d="M257.15,111.52H217.51a100.62,100.62,0,0,0-51.41,14.2l-5.88,3.49a103.54,103.54,0,0,0-33.6,32.24l-6.23,9.49a18.65,18.65,0,0,1-15.56,8.54H81.44a2.33,2.33,0,0,0-2.33,2.32h0a2.33,2.33,0,0,0,2.33,2.33h25a23.9,23.9,0,0,0,18.29-8.63l9.93-11.8a102.51,102.51,0,0,1,33.6-26.25h0a100.46,100.46,0,0,1,43.83-10.1h43.27Z" style="fill:#7376F3"></path><path d="M244.23,111.52h39.64a100.62,100.62,0,0,1,51.41,14.2l5.88,3.49a103.54,103.54,0,0,1,33.6,32.24l6.23,9.49a18.65,18.65,0,0,0,15.56,8.54h23.39a2.33,2.33,0,0,1,2.33,2.32h0a2.33,2.33,0,0,1-2.33,2.33h-25a23.9,23.9,0,0,1-18.29-8.63l-9.93-11.8a102.51,102.51,0,0,0-33.6-26.25h0a100.46,100.46,0,0,0-43.83-10.1H246Z" style="fill:#7376F3"></path><circle cx="252" cy="120.5" r="22.48" transform="translate(-16.47 43.37) rotate(-9.53)" style="fill:#a3a3a3"></circle><rect x="221.7" y="404.72" width="60.61" height="13.24" rx="5.3" style="fill:#a3a3a3"></rect><path d="M286.77,372.35l-2.13-4.44a99,99,0,0,1-9.08-31.18L259.63,173.46l-5.33-.36v-.3L252,173l-2.3-.15v.3l-5.33.36L228.44,336.73a99,99,0,0,1-9.08,31.18l-2.13,4.44a26.45,26.45,0,0,0,3.34,28.19l3.94,4.84h55l3.94-4.84A26.45,26.45,0,0,0,286.77,372.35Z" style="fill:#a3a3a3"></path><path d="M161.3,414.65H342.7a17.21,17.21,0,0,1,17.21,17.21v7.28a0,0,0,0,1,0,0H144.09a0,0,0,0,1,0,0v-7.28A17.21,17.21,0,0,1,161.3,414.65Z" style="fill:#a3a3a3"></path><path d="M132.2,435.06H371.8a19.71,19.71,0,0,1,19.71,19.71v3.11a0,0,0,0,1,0,0h-279a0,0,0,0,1,0,0v-3.11A19.71,19.71,0,0,1,132.2,435.06Z" style="fill:#a3a3a3"></path><path d="M246.57,117.85h10.86l10.95-32.14c2.36-6.92-.59-15.58-5.31-15.58H240.93c-4.72,0-7.67,8.66-5.31,15.58Z" style="fill:#a3a3a3"></path><path d="M257.43,117.14H246.57l-10.95,32.13c-2.36,6.93.59,15.58,5.31,15.58h22.14c4.72,0,7.67-8.65,5.31-15.58Z" style="fill:#a3a3a3"></path><ellipse cx="252" cy="56.86" rx="16.72" ry="13.82" style="fill:#a3a3a3"></ellipse><path d="M257.3,125.79H246.7a5.29,5.29,0,0,1-5.29-5.29h0a5.29,5.29,0,0,1,5.29-5.3h10.6a5.29,5.29,0,0,1,5.29,5.3h0A5.29,5.29,0,0,1,257.3,125.79Z" style="fill:#7376F3"></path><rect x="237.55" y="163.53" width="28.91" height="13.24" rx="5.3" style="fill:#a3a3a3"></rect><polygon points="96.31 182.63 53.56 289.56 139.06 289.56 96.31 182.63" style="fill:none;stroke:#a3a3a3;stroke-linecap:round;stroke-linejoin:round"></polygon><line x1="96.31" y1="182.63" x2="96.31" y2="291.02" style="fill:none;stroke:#a3a3a3;stroke-linecap:round;stroke-linejoin:round"></line><path d="M49.33,293.57v5.05a12.12,12.12,0,0,0,12.12,12.12h69.71a12.11,12.11,0,0,0,12.12-12.12v-5.05Z" style="fill:#7376F3"></path><path d="M144,289H48.59A2.59,2.59,0,0,0,46,291.55h0a2.6,2.6,0,0,0,2.59,2.6H144a2.6,2.6,0,0,0,2.59-2.6h0A2.59,2.59,0,0,0,144,289Z" style="fill:#7376F3"></path><polygon points="404.93 182.63 362.18 289.56 447.68 289.56 404.93 182.63" style="fill:none;stroke:#a3a3a3;stroke-linecap:round;stroke-linejoin:round"></polygon><line x1="404.93" y1="182.63" x2="404.93" y2="291.02" style="fill:none;stroke:#a3a3a3;stroke-linecap:round;stroke-linejoin:round"></line><path d="M358,293.57v5.05a12.12,12.12,0,0,0,12.13,12.12h69.71a12.12,12.12,0,0,0,12.12-12.12v-5.05Z" style="fill:#7376F3"></path><path d="M452.64,289H357.22a2.59,2.59,0,0,0-2.59,2.59h0a2.6,2.6,0,0,0,2.59,2.6h95.42a2.6,2.6,0,0,0,2.6-2.6h0A2.59,2.59,0,0,0,452.64,289Z" style="fill:#7376F3"></path></g></svg>